%TF.GenerationSoftware,KiCad,Pcbnew,5.1.9-73d0e3b20d~88~ubuntu20.04.1*%
%TF.CreationDate,2021-01-21T22:19:02+01:00*%
%TF.ProjectId,pi-hat-lorawan-gateway-minipci,70692d68-6174-42d6-9c6f-726177616e2d,rev?*%
%TF.SameCoordinates,Original*%
%TF.FileFunction,Copper,L2,Bot*%
%TF.FilePolarity,Positive*%
%FSLAX46Y46*%
G04 Gerber Fmt 4.6, Leading zero omitted, Abs format (unit mm)*
G04 Created by KiCad (PCBNEW 5.1.9-73d0e3b20d~88~ubuntu20.04.1) date 2021-01-21 22:19:02*
%MOMM*%
%LPD*%
G01*
G04 APERTURE LIST*
%TA.AperFunction,ComponentPad*%
%ADD10R,1.727200X1.727200*%
%TD*%
%TA.AperFunction,ComponentPad*%
%ADD11O,1.727200X1.727200*%
%TD*%
%TA.AperFunction,ViaPad*%
%ADD12C,0.800000*%
%TD*%
%TA.AperFunction,Conductor*%
%ADD13C,0.254000*%
%TD*%
%TA.AperFunction,Conductor*%
%ADD14C,0.508000*%
%TD*%
%TA.AperFunction,Conductor*%
%ADD15C,0.150000*%
%TD*%
G04 APERTURE END LIST*
D10*
%TO.P,Con1,1*%
%TO.N,3V3*%
X106450000Y-74450000D03*
D11*
%TO.P,Con1,2*%
%TO.N,5V*%
X106450000Y-71910000D03*
%TO.P,Con1,6*%
%TO.N,GND*%
X111530000Y-71910000D03*
%TO.P,Con1,8*%
%TO.N,/GPIO14(TXD)*%
X114070000Y-71910000D03*
%TO.P,Con1,17*%
%TO.N,3V3*%
X126770000Y-74450000D03*
%TO.P,Con1,16*%
%TO.N,/GPIO23*%
X124230000Y-71910000D03*
%TO.P,Con1,15*%
%TO.N,/GPIO22*%
X124230000Y-74450000D03*
%TO.P,Con1,14*%
%TO.N,GND*%
X121690000Y-71910000D03*
%TO.P,Con1,13*%
%TO.N,/GPIO21*%
X121690000Y-74450000D03*
%TO.P,Con1,12*%
%TO.N,/GPIO18(PWM)*%
X119150000Y-71910000D03*
%TO.P,Con1,11*%
%TO.N,/GPIO17(RTS)*%
X119150000Y-74450000D03*
%TO.P,Con1,10*%
%TO.N,/GPIO15(RXD)*%
X116610000Y-71910000D03*
%TO.P,Con1,9*%
%TO.N,GND*%
X116610000Y-74450000D03*
%TO.P,Con1,5*%
%TO.N,/GPIO1(SCL)*%
X111530000Y-74450000D03*
%TO.P,Con1,4*%
%TO.N,5V*%
X108990000Y-71910000D03*
%TO.P,Con1,3*%
%TO.N,/GPIO0(SDA)*%
X108990000Y-74450000D03*
%TO.P,Con1,7*%
%TO.N,/GPIO4*%
X114070000Y-74450000D03*
%TO.P,Con1,26*%
%TO.N,/GPIO7(CE1)*%
X136930000Y-71910000D03*
%TO.P,Con1,25*%
%TO.N,GND*%
X136930000Y-74450000D03*
%TO.P,Con1,24*%
%TO.N,/GPIO8(CE0)*%
X134390000Y-71910000D03*
%TO.P,Con1,23*%
%TO.N,/GPIO11(SCLK)*%
X134390000Y-74450000D03*
%TO.P,Con1,22*%
%TO.N,/GPIO25*%
X131850000Y-71910000D03*
%TO.P,Con1,21*%
%TO.N,/GPIO9(MISO)*%
X131850000Y-74450000D03*
%TO.P,Con1,20*%
%TO.N,GND*%
X129310000Y-71910000D03*
%TO.P,Con1,19*%
%TO.N,/GPIO10(MOSI)*%
X129310000Y-74450000D03*
%TO.P,Con1,18*%
%TO.N,/GPIO24*%
X126770000Y-71910000D03*
%TD*%
D12*
%TO.N,GND*%
X129452990Y-81952319D03*
X120390000Y-90990000D03*
X118520000Y-76870000D03*
X117470000Y-77780000D03*
X124530000Y-77160000D03*
X123570000Y-77920000D03*
X121770000Y-81290000D03*
X120250000Y-84300000D03*
X121240000Y-87220000D03*
X127050000Y-87860000D03*
X115370000Y-100430000D03*
X115160000Y-101870000D03*
X113600000Y-102060000D03*
X112510000Y-104210000D03*
X114360000Y-87240000D03*
X113770000Y-107290000D03*
X107090000Y-104620000D03*
%TO.N,3V3*%
X121980000Y-89880000D03*
X124310000Y-89650000D03*
X120080000Y-101890000D03*
%TO.N,/GPIO14(TXD)*%
X112280000Y-92580000D03*
X113340000Y-84870000D03*
%TO.N,/GPIO23*%
X112510000Y-110270000D03*
X114330000Y-104090000D03*
%TO.N,/GPIO21*%
X111960000Y-101850000D03*
X117754074Y-81124074D03*
%TO.N,/GPIO15(RXD)*%
X112230000Y-94290000D03*
X115380000Y-81630000D03*
%TO.N,/GPIO1(SCL)*%
X126102990Y-92230000D03*
X126399275Y-98492457D03*
X127380000Y-84640000D03*
%TO.N,/GPIO0(SDA)*%
X127130000Y-91530000D03*
X127360000Y-98770000D03*
X126890000Y-83470000D03*
%TO.N,/GPIO7(CE1)*%
X127090000Y-105540000D03*
X115150816Y-105422990D03*
%TO.N,/GPIO8(CE0)*%
X122660000Y-100330000D03*
X131110000Y-99630000D03*
%TD*%
D13*
%TO.N,3V3*%
X124080000Y-89880000D02*
X124310000Y-89650000D01*
X121980000Y-89880000D02*
X124080000Y-89880000D01*
D14*
X124310000Y-89650000D02*
X124310000Y-93600000D01*
X120080000Y-97830000D02*
X120080000Y-101890000D01*
X124310000Y-93600000D02*
X120080000Y-97830000D01*
D13*
%TO.N,/GPIO14(TXD)*%
X112370000Y-85840000D02*
X113340000Y-84870000D01*
X112370000Y-92490000D02*
X112370000Y-85840000D01*
X112280000Y-92580000D02*
X112370000Y-92490000D01*
%TO.N,/GPIO23*%
X112510000Y-105910000D02*
X114330000Y-104090000D01*
X112510000Y-110270000D02*
X112510000Y-105910000D01*
%TO.N,/GPIO21*%
X111960000Y-101850000D02*
X117754074Y-96055926D01*
X117754074Y-96055926D02*
X117754074Y-81124074D01*
%TO.N,/GPIO15(RXD)*%
X116610000Y-71910000D02*
X116230000Y-71910000D01*
X115300000Y-81710000D02*
X115380000Y-81630000D01*
X115300000Y-91550000D02*
X115300000Y-81710000D01*
X112560000Y-94290000D02*
X115300000Y-91550000D01*
X112230000Y-94290000D02*
X112560000Y-94290000D01*
%TO.N,/GPIO1(SCL)*%
X126102990Y-92230000D02*
X126102990Y-98196172D01*
X126102990Y-98196172D02*
X126399275Y-98492457D01*
X127779999Y-84240001D02*
X127380000Y-84640000D01*
X127779999Y-83284035D02*
X127779999Y-84240001D01*
X123695964Y-79200000D02*
X127779999Y-83284035D01*
X116280000Y-79200000D02*
X123695964Y-79200000D01*
X111530000Y-74450000D02*
X116280000Y-79200000D01*
%TO.N,/GPIO0(SDA)*%
X127130000Y-91530000D02*
X127130000Y-92750000D01*
X127130000Y-92750000D02*
X126730000Y-93150000D01*
X126730000Y-93150000D02*
X126730000Y-97330000D01*
X127360000Y-97960000D02*
X127360000Y-98770000D01*
X126730000Y-97330000D02*
X127360000Y-97960000D01*
X126890000Y-83050000D02*
X126890000Y-83470000D01*
X123500000Y-79660000D02*
X126890000Y-83050000D01*
X113970000Y-79660000D02*
X123500000Y-79660000D01*
X110610000Y-76300000D02*
X113970000Y-79660000D01*
X110610000Y-76070000D02*
X110610000Y-76300000D01*
X108990000Y-74450000D02*
X110610000Y-76070000D01*
%TO.N,/GPIO7(CE1)*%
X127090000Y-105540000D02*
X115267826Y-105540000D01*
X115267826Y-105540000D02*
X115150816Y-105422990D01*
%TO.N,/GPIO8(CE0)*%
X123360000Y-99630000D02*
X131110000Y-99630000D01*
X122660000Y-100330000D02*
X123360000Y-99630000D01*
%TD*%
%TO.N,GND*%
X142724000Y-83137601D02*
X142721794Y-83160000D01*
X142730598Y-83249392D01*
X142756673Y-83335348D01*
X142799016Y-83414566D01*
X142848144Y-83474429D01*
X142855999Y-83484001D01*
X142925434Y-83540984D01*
X143004652Y-83583327D01*
X143090608Y-83609402D01*
X143180000Y-83618206D01*
X143202399Y-83616000D01*
X155157601Y-83616000D01*
X155180000Y-83618206D01*
X155202399Y-83616000D01*
X155269392Y-83609402D01*
X155355348Y-83583327D01*
X155434566Y-83540984D01*
X155504001Y-83484001D01*
X155560984Y-83414566D01*
X155603327Y-83335348D01*
X155629402Y-83249392D01*
X155638206Y-83160000D01*
X155636000Y-83137601D01*
X155636000Y-69626000D01*
X160714001Y-69626000D01*
X160714000Y-82147601D01*
X160711794Y-82170000D01*
X160720598Y-82259392D01*
X160746673Y-82345348D01*
X160789016Y-82424566D01*
X160845999Y-82494001D01*
X160915434Y-82550984D01*
X160994652Y-82593327D01*
X161080608Y-82619402D01*
X161170000Y-82628206D01*
X161192399Y-82626000D01*
X175157601Y-82626000D01*
X175180000Y-82628206D01*
X175202399Y-82626000D01*
X175269392Y-82619402D01*
X175355348Y-82593327D01*
X175434566Y-82550984D01*
X175504001Y-82494001D01*
X175560984Y-82424566D01*
X175603327Y-82345348D01*
X175629402Y-82259392D01*
X175638206Y-82170000D01*
X175636000Y-82147601D01*
X175636000Y-69626000D01*
X188734001Y-69626000D01*
X188734000Y-85714000D01*
X178212399Y-85714000D01*
X178190000Y-85711794D01*
X178167601Y-85714000D01*
X178100608Y-85720598D01*
X178014652Y-85746673D01*
X177935434Y-85789016D01*
X177865999Y-85845999D01*
X177809016Y-85915434D01*
X177766673Y-85994652D01*
X177740598Y-86080608D01*
X177731794Y-86170000D01*
X177734001Y-86192409D01*
X177734000Y-101147601D01*
X177731794Y-101170000D01*
X177740598Y-101259392D01*
X177766673Y-101345348D01*
X177809016Y-101424566D01*
X177865999Y-101494001D01*
X177935434Y-101550984D01*
X178014652Y-101593327D01*
X178100608Y-101619402D01*
X178190000Y-101628206D01*
X178212399Y-101626000D01*
X188734001Y-101626000D01*
X188734000Y-105714000D01*
X168212399Y-105714000D01*
X168190000Y-105711794D01*
X168167601Y-105714000D01*
X168100608Y-105720598D01*
X168014652Y-105746673D01*
X167935434Y-105789016D01*
X167865999Y-105845999D01*
X167809016Y-105915434D01*
X167766673Y-105994652D01*
X167740598Y-106080608D01*
X167731794Y-106170000D01*
X167734001Y-106192409D01*
X167734000Y-124714000D01*
X104646000Y-124714000D01*
X104646000Y-113658304D01*
X112839000Y-113658304D01*
X112839000Y-113841696D01*
X112874778Y-114021563D01*
X112944958Y-114190994D01*
X113046845Y-114343478D01*
X113176522Y-114473155D01*
X113329006Y-114575042D01*
X113498437Y-114645222D01*
X113678304Y-114681000D01*
X113861696Y-114681000D01*
X114041563Y-114645222D01*
X114210994Y-114575042D01*
X114363478Y-114473155D01*
X114493155Y-114343478D01*
X114595042Y-114190994D01*
X114665222Y-114021563D01*
X114701000Y-113841696D01*
X114701000Y-113658304D01*
X114665222Y-113478437D01*
X114595042Y-113309006D01*
X114511807Y-113184436D01*
X160139000Y-113184436D01*
X160139000Y-113515564D01*
X160203600Y-113840330D01*
X160330317Y-114146252D01*
X160514282Y-114421575D01*
X160748425Y-114655718D01*
X161023748Y-114839683D01*
X161329670Y-114966400D01*
X161654436Y-115031000D01*
X161985564Y-115031000D01*
X162310330Y-114966400D01*
X162616252Y-114839683D01*
X162891575Y-114655718D01*
X163125718Y-114421575D01*
X163309683Y-114146252D01*
X163436400Y-113840330D01*
X163501000Y-113515564D01*
X163501000Y-113184436D01*
X163436400Y-112859670D01*
X163309683Y-112553748D01*
X163125718Y-112278425D01*
X162891575Y-112044282D01*
X162616252Y-111860317D01*
X162310330Y-111733600D01*
X161985564Y-111669000D01*
X161654436Y-111669000D01*
X161329670Y-111733600D01*
X161023748Y-111860317D01*
X160748425Y-112044282D01*
X160514282Y-112278425D01*
X160330317Y-112553748D01*
X160203600Y-112859670D01*
X160139000Y-113184436D01*
X114511807Y-113184436D01*
X114493155Y-113156522D01*
X114363478Y-113026845D01*
X114210994Y-112924958D01*
X114041563Y-112854778D01*
X113861696Y-112819000D01*
X113678304Y-112819000D01*
X113498437Y-112854778D01*
X113329006Y-112924958D01*
X113176522Y-113026845D01*
X113046845Y-113156522D01*
X112944958Y-113309006D01*
X112874778Y-113478437D01*
X112839000Y-113658304D01*
X104646000Y-113658304D01*
X104646000Y-110193078D01*
X111729000Y-110193078D01*
X111729000Y-110346922D01*
X111759013Y-110497809D01*
X111817887Y-110639942D01*
X111903358Y-110767859D01*
X112012141Y-110876642D01*
X112140058Y-110962113D01*
X112282191Y-111020987D01*
X112433078Y-111051000D01*
X112586922Y-111051000D01*
X112737809Y-111020987D01*
X112879942Y-110962113D01*
X113007859Y-110876642D01*
X113116642Y-110767859D01*
X113202113Y-110639942D01*
X113260987Y-110497809D01*
X113291000Y-110346922D01*
X113291000Y-110193078D01*
X113260987Y-110042191D01*
X113202113Y-109900058D01*
X113116642Y-109772141D01*
X113018000Y-109673499D01*
X113018000Y-106120420D01*
X113792352Y-105346068D01*
X114369816Y-105346068D01*
X114369816Y-105499912D01*
X114399829Y-105650799D01*
X114458703Y-105792932D01*
X114544174Y-105920849D01*
X114652957Y-106029632D01*
X114780874Y-106115103D01*
X114923007Y-106173977D01*
X115073894Y-106203990D01*
X115227738Y-106203990D01*
X115378625Y-106173977D01*
X115520758Y-106115103D01*
X115621185Y-106048000D01*
X126493499Y-106048000D01*
X126592141Y-106146642D01*
X126720058Y-106232113D01*
X126862191Y-106290987D01*
X127013078Y-106321000D01*
X127166922Y-106321000D01*
X127317809Y-106290987D01*
X127459942Y-106232113D01*
X127587859Y-106146642D01*
X127696642Y-106037859D01*
X127782113Y-105909942D01*
X127840987Y-105767809D01*
X127871000Y-105616922D01*
X127871000Y-105463078D01*
X127840987Y-105312191D01*
X127782113Y-105170058D01*
X127696642Y-105042141D01*
X127587859Y-104933358D01*
X127459942Y-104847887D01*
X127317809Y-104789013D01*
X127166922Y-104759000D01*
X127013078Y-104759000D01*
X126862191Y-104789013D01*
X126720058Y-104847887D01*
X126592141Y-104933358D01*
X126493499Y-105032000D01*
X115828865Y-105032000D01*
X115757458Y-104925131D01*
X115648675Y-104816348D01*
X115520758Y-104730877D01*
X115378625Y-104672003D01*
X115227738Y-104641990D01*
X115073894Y-104641990D01*
X114923007Y-104672003D01*
X114780874Y-104730877D01*
X114652957Y-104816348D01*
X114544174Y-104925131D01*
X114458703Y-105053048D01*
X114399829Y-105195181D01*
X114369816Y-105346068D01*
X113792352Y-105346068D01*
X114267420Y-104871000D01*
X114406922Y-104871000D01*
X114557809Y-104840987D01*
X114699942Y-104782113D01*
X114827859Y-104696642D01*
X114936642Y-104587859D01*
X115022113Y-104459942D01*
X115080987Y-104317809D01*
X115111000Y-104166922D01*
X115111000Y-104013078D01*
X115080987Y-103862191D01*
X115022113Y-103720058D01*
X114936642Y-103592141D01*
X114827859Y-103483358D01*
X114699942Y-103397887D01*
X114557809Y-103339013D01*
X114406922Y-103309000D01*
X114253078Y-103309000D01*
X114102191Y-103339013D01*
X113960058Y-103397887D01*
X113832141Y-103483358D01*
X113723358Y-103592141D01*
X113637887Y-103720058D01*
X113579013Y-103862191D01*
X113549000Y-104013078D01*
X113549000Y-104152580D01*
X112168430Y-105533150D01*
X112149053Y-105549052D01*
X112133151Y-105568429D01*
X112133150Y-105568430D01*
X112085571Y-105626405D01*
X112042715Y-105706585D01*
X112038400Y-105714657D01*
X112014656Y-105792932D01*
X112009352Y-105810416D01*
X111999543Y-105910000D01*
X112002001Y-105934954D01*
X112002000Y-109673499D01*
X111903358Y-109772141D01*
X111817887Y-109900058D01*
X111759013Y-110042191D01*
X111729000Y-110193078D01*
X104646000Y-110193078D01*
X104646000Y-101773078D01*
X111179000Y-101773078D01*
X111179000Y-101926922D01*
X111209013Y-102077809D01*
X111267887Y-102219942D01*
X111353358Y-102347859D01*
X111462141Y-102456642D01*
X111590058Y-102542113D01*
X111732191Y-102600987D01*
X111883078Y-102631000D01*
X112036922Y-102631000D01*
X112187809Y-102600987D01*
X112329942Y-102542113D01*
X112457859Y-102456642D01*
X112566642Y-102347859D01*
X112652113Y-102219942D01*
X112710987Y-102077809D01*
X112741000Y-101926922D01*
X112741000Y-101813078D01*
X119299000Y-101813078D01*
X119299000Y-101966922D01*
X119329013Y-102117809D01*
X119387887Y-102259942D01*
X119473358Y-102387859D01*
X119582141Y-102496642D01*
X119710058Y-102582113D01*
X119852191Y-102640987D01*
X120003078Y-102671000D01*
X120156922Y-102671000D01*
X120307809Y-102640987D01*
X120449942Y-102582113D01*
X120577859Y-102496642D01*
X120686642Y-102387859D01*
X120772113Y-102259942D01*
X120830987Y-102117809D01*
X120861000Y-101966922D01*
X120861000Y-101813078D01*
X120830987Y-101662191D01*
X120772113Y-101520058D01*
X120715000Y-101434582D01*
X120715000Y-100253078D01*
X121879000Y-100253078D01*
X121879000Y-100406922D01*
X121909013Y-100557809D01*
X121967887Y-100699942D01*
X122053358Y-100827859D01*
X122162141Y-100936642D01*
X122290058Y-101022113D01*
X122432191Y-101080987D01*
X122583078Y-101111000D01*
X122736922Y-101111000D01*
X122887809Y-101080987D01*
X123029942Y-101022113D01*
X123157859Y-100936642D01*
X123266642Y-100827859D01*
X123352113Y-100699942D01*
X123410987Y-100557809D01*
X123441000Y-100406922D01*
X123441000Y-100267421D01*
X123570421Y-100138000D01*
X130513499Y-100138000D01*
X130612141Y-100236642D01*
X130740058Y-100322113D01*
X130882191Y-100380987D01*
X131033078Y-100411000D01*
X131186922Y-100411000D01*
X131337809Y-100380987D01*
X131479942Y-100322113D01*
X131607859Y-100236642D01*
X131716642Y-100127859D01*
X131802113Y-99999942D01*
X131860987Y-99857809D01*
X131891000Y-99706922D01*
X131891000Y-99553078D01*
X131860987Y-99402191D01*
X131802113Y-99260058D01*
X131716642Y-99132141D01*
X131607859Y-99023358D01*
X131479942Y-98937887D01*
X131337809Y-98879013D01*
X131186922Y-98849000D01*
X131033078Y-98849000D01*
X130882191Y-98879013D01*
X130740058Y-98937887D01*
X130612141Y-99023358D01*
X130513499Y-99122000D01*
X128059545Y-99122000D01*
X128110987Y-98997809D01*
X128141000Y-98846922D01*
X128141000Y-98693078D01*
X128110987Y-98542191D01*
X128052113Y-98400058D01*
X127966642Y-98272141D01*
X127868000Y-98173499D01*
X127868000Y-97984944D01*
X127870457Y-97960000D01*
X127865786Y-97912577D01*
X127860649Y-97860415D01*
X127831601Y-97764657D01*
X127784429Y-97676405D01*
X127720948Y-97599052D01*
X127701565Y-97583145D01*
X127238000Y-97119580D01*
X127238000Y-93360420D01*
X127471570Y-93126851D01*
X127490948Y-93110948D01*
X127518103Y-93077859D01*
X127554429Y-93033596D01*
X127601600Y-92945345D01*
X127601601Y-92945343D01*
X127630649Y-92849585D01*
X127638000Y-92774947D01*
X127638000Y-92774945D01*
X127640457Y-92750001D01*
X127638000Y-92725057D01*
X127638000Y-92126501D01*
X127736642Y-92027859D01*
X127822113Y-91899942D01*
X127880987Y-91757809D01*
X127911000Y-91606922D01*
X127911000Y-91453078D01*
X127880987Y-91302191D01*
X127822113Y-91160058D01*
X127736642Y-91032141D01*
X127627859Y-90923358D01*
X127499942Y-90837887D01*
X127357809Y-90779013D01*
X127206922Y-90749000D01*
X127053078Y-90749000D01*
X126902191Y-90779013D01*
X126760058Y-90837887D01*
X126632141Y-90923358D01*
X126523358Y-91032141D01*
X126437887Y-91160058D01*
X126379013Y-91302191D01*
X126349000Y-91453078D01*
X126349000Y-91486552D01*
X126330799Y-91479013D01*
X126179912Y-91449000D01*
X126026068Y-91449000D01*
X125875181Y-91479013D01*
X125733048Y-91537887D01*
X125605131Y-91623358D01*
X125496348Y-91732141D01*
X125410877Y-91860058D01*
X125352003Y-92002191D01*
X125321990Y-92153078D01*
X125321990Y-92306922D01*
X125352003Y-92457809D01*
X125410877Y-92599942D01*
X125496348Y-92727859D01*
X125594990Y-92826501D01*
X125594991Y-98171218D01*
X125592533Y-98196172D01*
X125599278Y-98264648D01*
X125602342Y-98295757D01*
X125621993Y-98360537D01*
X125626355Y-98374916D01*
X125618275Y-98415535D01*
X125618275Y-98569379D01*
X125648288Y-98720266D01*
X125707162Y-98862399D01*
X125792633Y-98990316D01*
X125901416Y-99099099D01*
X125935690Y-99122000D01*
X123384943Y-99122000D01*
X123359999Y-99119543D01*
X123335055Y-99122000D01*
X123335053Y-99122000D01*
X123260415Y-99129351D01*
X123164657Y-99158399D01*
X123164655Y-99158400D01*
X123076404Y-99205571D01*
X123030256Y-99243444D01*
X122999052Y-99269052D01*
X122983149Y-99288430D01*
X122722579Y-99549000D01*
X122583078Y-99549000D01*
X122432191Y-99579013D01*
X122290058Y-99637887D01*
X122162141Y-99723358D01*
X122053358Y-99832141D01*
X121967887Y-99960058D01*
X121909013Y-100102191D01*
X121879000Y-100253078D01*
X120715000Y-100253078D01*
X120715000Y-98093024D01*
X124736955Y-94071070D01*
X124761185Y-94051185D01*
X124798574Y-94005627D01*
X124840537Y-93954495D01*
X124861076Y-93916069D01*
X124899502Y-93844180D01*
X124935812Y-93724482D01*
X124945000Y-93631192D01*
X124945000Y-93631182D01*
X124948071Y-93600001D01*
X124945000Y-93568820D01*
X124945000Y-90105418D01*
X125002113Y-90019942D01*
X125060987Y-89877809D01*
X125091000Y-89726922D01*
X125091000Y-89573078D01*
X125060987Y-89422191D01*
X125002113Y-89280058D01*
X124916642Y-89152141D01*
X124807859Y-89043358D01*
X124719676Y-88984436D01*
X160139000Y-88984436D01*
X160139000Y-89315564D01*
X160203600Y-89640330D01*
X160330317Y-89946252D01*
X160514282Y-90221575D01*
X160748425Y-90455718D01*
X161023748Y-90639683D01*
X161329670Y-90766400D01*
X161654436Y-90831000D01*
X161985564Y-90831000D01*
X162310330Y-90766400D01*
X162616252Y-90639683D01*
X162891575Y-90455718D01*
X163125718Y-90221575D01*
X163309683Y-89946252D01*
X163436400Y-89640330D01*
X163501000Y-89315564D01*
X163501000Y-88984436D01*
X163436400Y-88659670D01*
X163309683Y-88353748D01*
X163125718Y-88078425D01*
X162891575Y-87844282D01*
X162616252Y-87660317D01*
X162310330Y-87533600D01*
X161985564Y-87469000D01*
X161654436Y-87469000D01*
X161329670Y-87533600D01*
X161023748Y-87660317D01*
X160748425Y-87844282D01*
X160514282Y-88078425D01*
X160330317Y-88353748D01*
X160203600Y-88659670D01*
X160139000Y-88984436D01*
X124719676Y-88984436D01*
X124679942Y-88957887D01*
X124537809Y-88899013D01*
X124386922Y-88869000D01*
X124233078Y-88869000D01*
X124082191Y-88899013D01*
X123940058Y-88957887D01*
X123812141Y-89043358D01*
X123703358Y-89152141D01*
X123617887Y-89280058D01*
X123579803Y-89372000D01*
X122576501Y-89372000D01*
X122477859Y-89273358D01*
X122349942Y-89187887D01*
X122207809Y-89129013D01*
X122056922Y-89099000D01*
X121903078Y-89099000D01*
X121752191Y-89129013D01*
X121610058Y-89187887D01*
X121482141Y-89273358D01*
X121373358Y-89382141D01*
X121287887Y-89510058D01*
X121229013Y-89652191D01*
X121199000Y-89803078D01*
X121199000Y-89956922D01*
X121229013Y-90107809D01*
X121287887Y-90249942D01*
X121373358Y-90377859D01*
X121482141Y-90486642D01*
X121610058Y-90572113D01*
X121752191Y-90630987D01*
X121903078Y-90661000D01*
X122056922Y-90661000D01*
X122207809Y-90630987D01*
X122349942Y-90572113D01*
X122477859Y-90486642D01*
X122576501Y-90388000D01*
X123675000Y-90388000D01*
X123675001Y-93336974D01*
X119653050Y-97358926D01*
X119628815Y-97378815D01*
X119549463Y-97475507D01*
X119490498Y-97585821D01*
X119454188Y-97705519D01*
X119445000Y-97798809D01*
X119445000Y-97798819D01*
X119441929Y-97830000D01*
X119445000Y-97861181D01*
X119445001Y-101434581D01*
X119387887Y-101520058D01*
X119329013Y-101662191D01*
X119299000Y-101813078D01*
X112741000Y-101813078D01*
X112741000Y-101787420D01*
X118095645Y-96432776D01*
X118115022Y-96416874D01*
X118133698Y-96394116D01*
X118178503Y-96339522D01*
X118225674Y-96251270D01*
X118225675Y-96251269D01*
X118254723Y-96155511D01*
X118262074Y-96080873D01*
X118262074Y-96080871D01*
X118264531Y-96055927D01*
X118262074Y-96030983D01*
X118262074Y-81720575D01*
X118360716Y-81621933D01*
X118446187Y-81494016D01*
X118505061Y-81351883D01*
X118535074Y-81200996D01*
X118535074Y-81047152D01*
X118505061Y-80896265D01*
X118446187Y-80754132D01*
X118360716Y-80626215D01*
X118251933Y-80517432D01*
X118124016Y-80431961D01*
X117981883Y-80373087D01*
X117830996Y-80343074D01*
X117677152Y-80343074D01*
X117526265Y-80373087D01*
X117384132Y-80431961D01*
X117256215Y-80517432D01*
X117147432Y-80626215D01*
X117061961Y-80754132D01*
X117003087Y-80896265D01*
X116973074Y-81047152D01*
X116973074Y-81200996D01*
X117003087Y-81351883D01*
X117061961Y-81494016D01*
X117147432Y-81621933D01*
X117246075Y-81720576D01*
X117246074Y-95845505D01*
X112022580Y-101069000D01*
X111883078Y-101069000D01*
X111732191Y-101099013D01*
X111590058Y-101157887D01*
X111462141Y-101243358D01*
X111353358Y-101352141D01*
X111267887Y-101480058D01*
X111209013Y-101622191D01*
X111179000Y-101773078D01*
X104646000Y-101773078D01*
X104646000Y-94213078D01*
X111449000Y-94213078D01*
X111449000Y-94366922D01*
X111479013Y-94517809D01*
X111537887Y-94659942D01*
X111623358Y-94787859D01*
X111732141Y-94896642D01*
X111860058Y-94982113D01*
X112002191Y-95040987D01*
X112153078Y-95071000D01*
X112306922Y-95071000D01*
X112457809Y-95040987D01*
X112599942Y-94982113D01*
X112727859Y-94896642D01*
X112836642Y-94787859D01*
X112922113Y-94659942D01*
X112930822Y-94638916D01*
X112936855Y-94631565D01*
X115641571Y-91926850D01*
X115660948Y-91910948D01*
X115702712Y-91860058D01*
X115724429Y-91833596D01*
X115771600Y-91745345D01*
X115771601Y-91745342D01*
X115800649Y-91649585D01*
X115808000Y-91574947D01*
X115808000Y-91574945D01*
X115810457Y-91550001D01*
X115808000Y-91525057D01*
X115808000Y-82283320D01*
X115877859Y-82236642D01*
X115986642Y-82127859D01*
X116072113Y-81999942D01*
X116130987Y-81857809D01*
X116161000Y-81706922D01*
X116161000Y-81553078D01*
X116130987Y-81402191D01*
X116072113Y-81260058D01*
X115986642Y-81132141D01*
X115877859Y-81023358D01*
X115749942Y-80937887D01*
X115607809Y-80879013D01*
X115456922Y-80849000D01*
X115303078Y-80849000D01*
X115152191Y-80879013D01*
X115010058Y-80937887D01*
X114882141Y-81023358D01*
X114773358Y-81132141D01*
X114687887Y-81260058D01*
X114629013Y-81402191D01*
X114599000Y-81553078D01*
X114599000Y-81706922D01*
X114629013Y-81857809D01*
X114687887Y-81999942D01*
X114773358Y-82127859D01*
X114792001Y-82146502D01*
X114792000Y-88153789D01*
X114687342Y-87997157D01*
X114522843Y-87832658D01*
X114329413Y-87703412D01*
X114114485Y-87614386D01*
X113886318Y-87569000D01*
X113653682Y-87569000D01*
X113425515Y-87614386D01*
X113210587Y-87703412D01*
X113017157Y-87832658D01*
X112878000Y-87971815D01*
X112878000Y-86050420D01*
X113277421Y-85651000D01*
X113416922Y-85651000D01*
X113567809Y-85620987D01*
X113709942Y-85562113D01*
X113837859Y-85476642D01*
X113946642Y-85367859D01*
X114032113Y-85239942D01*
X114090987Y-85097809D01*
X114121000Y-84946922D01*
X114121000Y-84793078D01*
X114090987Y-84642191D01*
X114032113Y-84500058D01*
X113946642Y-84372141D01*
X113837859Y-84263358D01*
X113709942Y-84177887D01*
X113567809Y-84119013D01*
X113416922Y-84089000D01*
X113263078Y-84089000D01*
X113112191Y-84119013D01*
X112970058Y-84177887D01*
X112842141Y-84263358D01*
X112733358Y-84372141D01*
X112647887Y-84500058D01*
X112589013Y-84642191D01*
X112559000Y-84793078D01*
X112559000Y-84932579D01*
X112028430Y-85463150D01*
X112009053Y-85479052D01*
X111993151Y-85498429D01*
X111993150Y-85498430D01*
X111945571Y-85556405D01*
X111911052Y-85620987D01*
X111898400Y-85644657D01*
X111875364Y-85720598D01*
X111869352Y-85740416D01*
X111859543Y-85840000D01*
X111862001Y-85864954D01*
X111862000Y-91919998D01*
X111782141Y-91973358D01*
X111673358Y-92082141D01*
X111587887Y-92210058D01*
X111529013Y-92352191D01*
X111499000Y-92503078D01*
X111499000Y-92656922D01*
X111529013Y-92807809D01*
X111587887Y-92949942D01*
X111673358Y-93077859D01*
X111782141Y-93186642D01*
X111910058Y-93272113D01*
X112052191Y-93330987D01*
X112203078Y-93361000D01*
X112356922Y-93361000D01*
X112507809Y-93330987D01*
X112649942Y-93272113D01*
X112777859Y-93186642D01*
X112886642Y-93077859D01*
X112972113Y-92949942D01*
X113030987Y-92807809D01*
X113061000Y-92656922D01*
X113061000Y-92503078D01*
X113030987Y-92352191D01*
X112972113Y-92210058D01*
X112886642Y-92082141D01*
X112878000Y-92073499D01*
X112878000Y-89528185D01*
X113017157Y-89667342D01*
X113210587Y-89796588D01*
X113425515Y-89885614D01*
X113653682Y-89931000D01*
X113886318Y-89931000D01*
X114114485Y-89885614D01*
X114329413Y-89796588D01*
X114522843Y-89667342D01*
X114687342Y-89502843D01*
X114792000Y-89346211D01*
X114792000Y-91339579D01*
X112553097Y-93578483D01*
X112457809Y-93539013D01*
X112306922Y-93509000D01*
X112153078Y-93509000D01*
X112002191Y-93539013D01*
X111860058Y-93597887D01*
X111732141Y-93683358D01*
X111623358Y-93792141D01*
X111537887Y-93920058D01*
X111479013Y-94062191D01*
X111449000Y-94213078D01*
X104646000Y-94213078D01*
X104646000Y-73586400D01*
X105203557Y-73586400D01*
X105203557Y-75313600D01*
X105210913Y-75388289D01*
X105232699Y-75460108D01*
X105268078Y-75526296D01*
X105315689Y-75584311D01*
X105373704Y-75631922D01*
X105439892Y-75667301D01*
X105511711Y-75689087D01*
X105586400Y-75696443D01*
X107313600Y-75696443D01*
X107388289Y-75689087D01*
X107460108Y-75667301D01*
X107526296Y-75631922D01*
X107584311Y-75584311D01*
X107631922Y-75526296D01*
X107667301Y-75460108D01*
X107689087Y-75388289D01*
X107696443Y-75313600D01*
X107696443Y-74327418D01*
X107745400Y-74327418D01*
X107745400Y-74572582D01*
X107793229Y-74813036D01*
X107887050Y-75039539D01*
X108023256Y-75243386D01*
X108196614Y-75416744D01*
X108400461Y-75552950D01*
X108626964Y-75646771D01*
X108867418Y-75694600D01*
X109112582Y-75694600D01*
X109353036Y-75646771D01*
X109434576Y-75612996D01*
X110101519Y-76279940D01*
X110099543Y-76300000D01*
X110102000Y-76324944D01*
X110102000Y-76324947D01*
X110109351Y-76399585D01*
X110138399Y-76495343D01*
X110185571Y-76583595D01*
X110233150Y-76641570D01*
X110249053Y-76660948D01*
X110268430Y-76676850D01*
X113593145Y-80001565D01*
X113609052Y-80020948D01*
X113686405Y-80084429D01*
X113774657Y-80131601D01*
X113870415Y-80160649D01*
X113945053Y-80168000D01*
X113945056Y-80168000D01*
X113970000Y-80170457D01*
X113994944Y-80168000D01*
X123289580Y-80168000D01*
X126207400Y-83085821D01*
X126197887Y-83100058D01*
X126139013Y-83242191D01*
X126109000Y-83393078D01*
X126109000Y-83546922D01*
X126139013Y-83697809D01*
X126197887Y-83839942D01*
X126283358Y-83967859D01*
X126392141Y-84076642D01*
X126520058Y-84162113D01*
X126662191Y-84220987D01*
X126713814Y-84231255D01*
X126687887Y-84270058D01*
X126629013Y-84412191D01*
X126599000Y-84563078D01*
X126599000Y-84716922D01*
X126629013Y-84867809D01*
X126687887Y-85009942D01*
X126773358Y-85137859D01*
X126882141Y-85246642D01*
X127010058Y-85332113D01*
X127152191Y-85390987D01*
X127303078Y-85421000D01*
X127456922Y-85421000D01*
X127607809Y-85390987D01*
X127749942Y-85332113D01*
X127877859Y-85246642D01*
X127986642Y-85137859D01*
X128072113Y-85009942D01*
X128130987Y-84867809D01*
X128161000Y-84716922D01*
X128161000Y-84576514D01*
X128204428Y-84523597D01*
X128229642Y-84476425D01*
X128251600Y-84435344D01*
X128280648Y-84339586D01*
X128287999Y-84264948D01*
X128287999Y-84264946D01*
X128290456Y-84240002D01*
X128287999Y-84215058D01*
X128287999Y-83308979D01*
X128290456Y-83284035D01*
X128286645Y-83245343D01*
X128280648Y-83184450D01*
X128251600Y-83088692D01*
X128204428Y-83000440D01*
X128140947Y-82923087D01*
X128121564Y-82907180D01*
X124072819Y-78858435D01*
X124056912Y-78839052D01*
X123979559Y-78775571D01*
X123891307Y-78728399D01*
X123795549Y-78699351D01*
X123720911Y-78692000D01*
X123720908Y-78692000D01*
X123695964Y-78689543D01*
X123671020Y-78692000D01*
X116490421Y-78692000D01*
X112692996Y-74894576D01*
X112726771Y-74813036D01*
X112774600Y-74572582D01*
X112774600Y-74327418D01*
X112825400Y-74327418D01*
X112825400Y-74572582D01*
X112873229Y-74813036D01*
X112967050Y-75039539D01*
X113103256Y-75243386D01*
X113276614Y-75416744D01*
X113480461Y-75552950D01*
X113706964Y-75646771D01*
X113947418Y-75694600D01*
X114192582Y-75694600D01*
X114433036Y-75646771D01*
X114659539Y-75552950D01*
X114863386Y-75416744D01*
X115036744Y-75243386D01*
X115172950Y-75039539D01*
X115266771Y-74813036D01*
X115314600Y-74572582D01*
X115314600Y-74327418D01*
X117905400Y-74327418D01*
X117905400Y-74572582D01*
X117953229Y-74813036D01*
X118047050Y-75039539D01*
X118183256Y-75243386D01*
X118356614Y-75416744D01*
X118560461Y-75552950D01*
X118786964Y-75646771D01*
X119027418Y-75694600D01*
X119272582Y-75694600D01*
X119513036Y-75646771D01*
X119739539Y-75552950D01*
X119943386Y-75416744D01*
X120116744Y-75243386D01*
X120252950Y-75039539D01*
X120346771Y-74813036D01*
X120394600Y-74572582D01*
X120394600Y-74327418D01*
X120445400Y-74327418D01*
X120445400Y-74572582D01*
X120493229Y-74813036D01*
X120587050Y-75039539D01*
X120723256Y-75243386D01*
X120896614Y-75416744D01*
X121100461Y-75552950D01*
X121326964Y-75646771D01*
X121567418Y-75694600D01*
X121812582Y-75694600D01*
X122053036Y-75646771D01*
X122279539Y-75552950D01*
X122483386Y-75416744D01*
X122656744Y-75243386D01*
X122792950Y-75039539D01*
X122886771Y-74813036D01*
X122934600Y-74572582D01*
X122934600Y-74327418D01*
X122985400Y-74327418D01*
X122985400Y-74572582D01*
X123033229Y-74813036D01*
X123127050Y-75039539D01*
X123263256Y-75243386D01*
X123436614Y-75416744D01*
X123640461Y-75552950D01*
X123866964Y-75646771D01*
X124107418Y-75694600D01*
X124352582Y-75694600D01*
X124593036Y-75646771D01*
X124819539Y-75552950D01*
X125023386Y-75416744D01*
X125196744Y-75243386D01*
X125332950Y-75039539D01*
X125426771Y-74813036D01*
X125474600Y-74572582D01*
X125474600Y-74327418D01*
X125525400Y-74327418D01*
X125525400Y-74572582D01*
X125573229Y-74813036D01*
X125667050Y-75039539D01*
X125803256Y-75243386D01*
X125976614Y-75416744D01*
X126180461Y-75552950D01*
X126406964Y-75646771D01*
X126647418Y-75694600D01*
X126892582Y-75694600D01*
X127133036Y-75646771D01*
X127359539Y-75552950D01*
X127563386Y-75416744D01*
X127736744Y-75243386D01*
X127872950Y-75039539D01*
X127966771Y-74813036D01*
X128014600Y-74572582D01*
X128014600Y-74327418D01*
X128065400Y-74327418D01*
X128065400Y-74572582D01*
X128113229Y-74813036D01*
X128207050Y-75039539D01*
X128343256Y-75243386D01*
X128516614Y-75416744D01*
X128720461Y-75552950D01*
X128946964Y-75646771D01*
X129187418Y-75694600D01*
X129432582Y-75694600D01*
X129673036Y-75646771D01*
X129899539Y-75552950D01*
X130103386Y-75416744D01*
X130276744Y-75243386D01*
X130412950Y-75039539D01*
X130506771Y-74813036D01*
X130554600Y-74572582D01*
X130554600Y-74327418D01*
X130605400Y-74327418D01*
X130605400Y-74572582D01*
X130653229Y-74813036D01*
X130747050Y-75039539D01*
X130883256Y-75243386D01*
X131056614Y-75416744D01*
X131260461Y-75552950D01*
X131486964Y-75646771D01*
X131727418Y-75694600D01*
X131972582Y-75694600D01*
X132213036Y-75646771D01*
X132439539Y-75552950D01*
X132643386Y-75416744D01*
X132816744Y-75243386D01*
X132952950Y-75039539D01*
X133046771Y-74813036D01*
X133094600Y-74572582D01*
X133094600Y-74327418D01*
X133145400Y-74327418D01*
X133145400Y-74572582D01*
X133193229Y-74813036D01*
X133287050Y-75039539D01*
X133423256Y-75243386D01*
X133596614Y-75416744D01*
X133800461Y-75552950D01*
X134026964Y-75646771D01*
X134267418Y-75694600D01*
X134512582Y-75694600D01*
X134753036Y-75646771D01*
X134979539Y-75552950D01*
X135183386Y-75416744D01*
X135356744Y-75243386D01*
X135492950Y-75039539D01*
X135586771Y-74813036D01*
X135634600Y-74572582D01*
X135634600Y-74327418D01*
X135586771Y-74086964D01*
X135492950Y-73860461D01*
X135356744Y-73656614D01*
X135183386Y-73483256D01*
X134979539Y-73347050D01*
X134753036Y-73253229D01*
X134512582Y-73205400D01*
X134267418Y-73205400D01*
X134026964Y-73253229D01*
X133800461Y-73347050D01*
X133596614Y-73483256D01*
X133423256Y-73656614D01*
X133287050Y-73860461D01*
X133193229Y-74086964D01*
X133145400Y-74327418D01*
X133094600Y-74327418D01*
X133046771Y-74086964D01*
X132952950Y-73860461D01*
X132816744Y-73656614D01*
X132643386Y-73483256D01*
X132439539Y-73347050D01*
X132213036Y-73253229D01*
X131972582Y-73205400D01*
X131727418Y-73205400D01*
X131486964Y-73253229D01*
X131260461Y-73347050D01*
X131056614Y-73483256D01*
X130883256Y-73656614D01*
X130747050Y-73860461D01*
X130653229Y-74086964D01*
X130605400Y-74327418D01*
X130554600Y-74327418D01*
X130506771Y-74086964D01*
X130412950Y-73860461D01*
X130276744Y-73656614D01*
X130103386Y-73483256D01*
X129899539Y-73347050D01*
X129673036Y-73253229D01*
X129432582Y-73205400D01*
X129187418Y-73205400D01*
X128946964Y-73253229D01*
X128720461Y-73347050D01*
X128516614Y-73483256D01*
X128343256Y-73656614D01*
X128207050Y-73860461D01*
X128113229Y-74086964D01*
X128065400Y-74327418D01*
X128014600Y-74327418D01*
X127966771Y-74086964D01*
X127872950Y-73860461D01*
X127736744Y-73656614D01*
X127563386Y-73483256D01*
X127359539Y-73347050D01*
X127133036Y-73253229D01*
X126892582Y-73205400D01*
X126647418Y-73205400D01*
X126406964Y-73253229D01*
X126180461Y-73347050D01*
X125976614Y-73483256D01*
X125803256Y-73656614D01*
X125667050Y-73860461D01*
X125573229Y-74086964D01*
X125525400Y-74327418D01*
X125474600Y-74327418D01*
X125426771Y-74086964D01*
X125332950Y-73860461D01*
X125196744Y-73656614D01*
X125023386Y-73483256D01*
X124819539Y-73347050D01*
X124593036Y-73253229D01*
X124352582Y-73205400D01*
X124107418Y-73205400D01*
X123866964Y-73253229D01*
X123640461Y-73347050D01*
X123436614Y-73483256D01*
X123263256Y-73656614D01*
X123127050Y-73860461D01*
X123033229Y-74086964D01*
X122985400Y-74327418D01*
X122934600Y-74327418D01*
X122886771Y-74086964D01*
X122792950Y-73860461D01*
X122656744Y-73656614D01*
X122483386Y-73483256D01*
X122279539Y-73347050D01*
X122053036Y-73253229D01*
X121812582Y-73205400D01*
X121567418Y-73205400D01*
X121326964Y-73253229D01*
X121100461Y-73347050D01*
X120896614Y-73483256D01*
X120723256Y-73656614D01*
X120587050Y-73860461D01*
X120493229Y-74086964D01*
X120445400Y-74327418D01*
X120394600Y-74327418D01*
X120346771Y-74086964D01*
X120252950Y-73860461D01*
X120116744Y-73656614D01*
X119943386Y-73483256D01*
X119739539Y-73347050D01*
X119513036Y-73253229D01*
X119272582Y-73205400D01*
X119027418Y-73205400D01*
X118786964Y-73253229D01*
X118560461Y-73347050D01*
X118356614Y-73483256D01*
X118183256Y-73656614D01*
X118047050Y-73860461D01*
X117953229Y-74086964D01*
X117905400Y-74327418D01*
X115314600Y-74327418D01*
X115266771Y-74086964D01*
X115172950Y-73860461D01*
X115036744Y-73656614D01*
X114863386Y-73483256D01*
X114659539Y-73347050D01*
X114433036Y-73253229D01*
X114192582Y-73205400D01*
X113947418Y-73205400D01*
X113706964Y-73253229D01*
X113480461Y-73347050D01*
X113276614Y-73483256D01*
X113103256Y-73656614D01*
X112967050Y-73860461D01*
X112873229Y-74086964D01*
X112825400Y-74327418D01*
X112774600Y-74327418D01*
X112726771Y-74086964D01*
X112632950Y-73860461D01*
X112496744Y-73656614D01*
X112323386Y-73483256D01*
X112119539Y-73347050D01*
X111893036Y-73253229D01*
X111652582Y-73205400D01*
X111407418Y-73205400D01*
X111166964Y-73253229D01*
X110940461Y-73347050D01*
X110736614Y-73483256D01*
X110563256Y-73656614D01*
X110427050Y-73860461D01*
X110333229Y-74086964D01*
X110285400Y-74327418D01*
X110285400Y-74572582D01*
X110333229Y-74813036D01*
X110427050Y-75039539D01*
X110563256Y-75243386D01*
X110736614Y-75416744D01*
X110940461Y-75552950D01*
X111166964Y-75646771D01*
X111407418Y-75694600D01*
X111652582Y-75694600D01*
X111893036Y-75646771D01*
X111974576Y-75612996D01*
X115513579Y-79152000D01*
X114180420Y-79152000D01*
X111118481Y-76090061D01*
X111120457Y-76070000D01*
X111115178Y-76016405D01*
X111110649Y-75970415D01*
X111081601Y-75874657D01*
X111056876Y-75828400D01*
X111034429Y-75786404D01*
X110986850Y-75728429D01*
X110970948Y-75709052D01*
X110951571Y-75693150D01*
X110152996Y-74894576D01*
X110186771Y-74813036D01*
X110234600Y-74572582D01*
X110234600Y-74327418D01*
X110186771Y-74086964D01*
X110092950Y-73860461D01*
X109956744Y-73656614D01*
X109783386Y-73483256D01*
X109579539Y-73347050D01*
X109353036Y-73253229D01*
X109112582Y-73205400D01*
X108867418Y-73205400D01*
X108626964Y-73253229D01*
X108400461Y-73347050D01*
X108196614Y-73483256D01*
X108023256Y-73656614D01*
X107887050Y-73860461D01*
X107793229Y-74086964D01*
X107745400Y-74327418D01*
X107696443Y-74327418D01*
X107696443Y-73586400D01*
X107689087Y-73511711D01*
X107667301Y-73439892D01*
X107631922Y-73373704D01*
X107584311Y-73315689D01*
X107526296Y-73268078D01*
X107460108Y-73232699D01*
X107388289Y-73210913D01*
X107313600Y-73203557D01*
X105586400Y-73203557D01*
X105511711Y-73210913D01*
X105439892Y-73232699D01*
X105373704Y-73268078D01*
X105315689Y-73315689D01*
X105268078Y-73373704D01*
X105232699Y-73439892D01*
X105210913Y-73511711D01*
X105203557Y-73586400D01*
X104646000Y-73586400D01*
X104646000Y-71787418D01*
X105205400Y-71787418D01*
X105205400Y-72032582D01*
X105253229Y-72273036D01*
X105347050Y-72499539D01*
X105483256Y-72703386D01*
X105656614Y-72876744D01*
X105860461Y-73012950D01*
X106086964Y-73106771D01*
X106327418Y-73154600D01*
X106572582Y-73154600D01*
X106813036Y-73106771D01*
X107039539Y-73012950D01*
X107243386Y-72876744D01*
X107416744Y-72703386D01*
X107552950Y-72499539D01*
X107646771Y-72273036D01*
X107694600Y-72032582D01*
X107694600Y-71787418D01*
X107745400Y-71787418D01*
X107745400Y-72032582D01*
X107793229Y-72273036D01*
X107887050Y-72499539D01*
X108023256Y-72703386D01*
X108196614Y-72876744D01*
X108400461Y-73012950D01*
X108626964Y-73106771D01*
X108867418Y-73154600D01*
X109112582Y-73154600D01*
X109353036Y-73106771D01*
X109579539Y-73012950D01*
X109783386Y-72876744D01*
X109956744Y-72703386D01*
X110092950Y-72499539D01*
X110186771Y-72273036D01*
X110234600Y-72032582D01*
X110234600Y-71787418D01*
X112825400Y-71787418D01*
X112825400Y-72032582D01*
X112873229Y-72273036D01*
X112967050Y-72499539D01*
X113103256Y-72703386D01*
X113276614Y-72876744D01*
X113480461Y-73012950D01*
X113706964Y-73106771D01*
X113947418Y-73154600D01*
X114192582Y-73154600D01*
X114433036Y-73106771D01*
X114659539Y-73012950D01*
X114863386Y-72876744D01*
X115036744Y-72703386D01*
X115172950Y-72499539D01*
X115266771Y-72273036D01*
X115314600Y-72032582D01*
X115314600Y-71787418D01*
X115365400Y-71787418D01*
X115365400Y-72032582D01*
X115413229Y-72273036D01*
X115507050Y-72499539D01*
X115643256Y-72703386D01*
X115816614Y-72876744D01*
X116020461Y-73012950D01*
X116246964Y-73106771D01*
X116487418Y-73154600D01*
X116732582Y-73154600D01*
X116973036Y-73106771D01*
X117199539Y-73012950D01*
X117403386Y-72876744D01*
X117576744Y-72703386D01*
X117712950Y-72499539D01*
X117806771Y-72273036D01*
X117854600Y-72032582D01*
X117854600Y-71787418D01*
X117905400Y-71787418D01*
X117905400Y-72032582D01*
X117953229Y-72273036D01*
X118047050Y-72499539D01*
X118183256Y-72703386D01*
X118356614Y-72876744D01*
X118560461Y-73012950D01*
X118786964Y-73106771D01*
X119027418Y-73154600D01*
X119272582Y-73154600D01*
X119513036Y-73106771D01*
X119739539Y-73012950D01*
X119943386Y-72876744D01*
X120116744Y-72703386D01*
X120252950Y-72499539D01*
X120346771Y-72273036D01*
X120394600Y-72032582D01*
X120394600Y-71787418D01*
X122985400Y-71787418D01*
X122985400Y-72032582D01*
X123033229Y-72273036D01*
X123127050Y-72499539D01*
X123263256Y-72703386D01*
X123436614Y-72876744D01*
X123640461Y-73012950D01*
X123866964Y-73106771D01*
X124107418Y-73154600D01*
X124352582Y-73154600D01*
X124593036Y-73106771D01*
X124819539Y-73012950D01*
X125023386Y-72876744D01*
X125196744Y-72703386D01*
X125332950Y-72499539D01*
X125426771Y-72273036D01*
X125474600Y-72032582D01*
X125474600Y-71787418D01*
X125525400Y-71787418D01*
X125525400Y-72032582D01*
X125573229Y-72273036D01*
X125667050Y-72499539D01*
X125803256Y-72703386D01*
X125976614Y-72876744D01*
X126180461Y-73012950D01*
X126406964Y-73106771D01*
X126647418Y-73154600D01*
X126892582Y-73154600D01*
X127133036Y-73106771D01*
X127359539Y-73012950D01*
X127563386Y-72876744D01*
X127736744Y-72703386D01*
X127872950Y-72499539D01*
X127966771Y-72273036D01*
X128014600Y-72032582D01*
X128014600Y-71787418D01*
X130605400Y-71787418D01*
X130605400Y-72032582D01*
X130653229Y-72273036D01*
X130747050Y-72499539D01*
X130883256Y-72703386D01*
X131056614Y-72876744D01*
X131260461Y-73012950D01*
X131486964Y-73106771D01*
X131727418Y-73154600D01*
X131972582Y-73154600D01*
X132213036Y-73106771D01*
X132439539Y-73012950D01*
X132643386Y-72876744D01*
X132816744Y-72703386D01*
X132952950Y-72499539D01*
X133046771Y-72273036D01*
X133094600Y-72032582D01*
X133094600Y-71787418D01*
X133145400Y-71787418D01*
X133145400Y-72032582D01*
X133193229Y-72273036D01*
X133287050Y-72499539D01*
X133423256Y-72703386D01*
X133596614Y-72876744D01*
X133800461Y-73012950D01*
X134026964Y-73106771D01*
X134267418Y-73154600D01*
X134512582Y-73154600D01*
X134753036Y-73106771D01*
X134979539Y-73012950D01*
X135183386Y-72876744D01*
X135356744Y-72703386D01*
X135492950Y-72499539D01*
X135586771Y-72273036D01*
X135634600Y-72032582D01*
X135634600Y-71787418D01*
X135685400Y-71787418D01*
X135685400Y-72032582D01*
X135733229Y-72273036D01*
X135827050Y-72499539D01*
X135963256Y-72703386D01*
X136136614Y-72876744D01*
X136340461Y-73012950D01*
X136566964Y-73106771D01*
X136807418Y-73154600D01*
X137052582Y-73154600D01*
X137293036Y-73106771D01*
X137519539Y-73012950D01*
X137723386Y-72876744D01*
X137896744Y-72703386D01*
X138032950Y-72499539D01*
X138126771Y-72273036D01*
X138174600Y-72032582D01*
X138174600Y-71787418D01*
X138126771Y-71546964D01*
X138032950Y-71320461D01*
X137896744Y-71116614D01*
X137723386Y-70943256D01*
X137519539Y-70807050D01*
X137293036Y-70713229D01*
X137052582Y-70665400D01*
X136807418Y-70665400D01*
X136566964Y-70713229D01*
X136340461Y-70807050D01*
X136136614Y-70943256D01*
X135963256Y-71116614D01*
X135827050Y-71320461D01*
X135733229Y-71546964D01*
X135685400Y-71787418D01*
X135634600Y-71787418D01*
X135586771Y-71546964D01*
X135492950Y-71320461D01*
X135356744Y-71116614D01*
X135183386Y-70943256D01*
X134979539Y-70807050D01*
X134753036Y-70713229D01*
X134512582Y-70665400D01*
X134267418Y-70665400D01*
X134026964Y-70713229D01*
X133800461Y-70807050D01*
X133596614Y-70943256D01*
X133423256Y-71116614D01*
X133287050Y-71320461D01*
X133193229Y-71546964D01*
X133145400Y-71787418D01*
X133094600Y-71787418D01*
X133046771Y-71546964D01*
X132952950Y-71320461D01*
X132816744Y-71116614D01*
X132643386Y-70943256D01*
X132439539Y-70807050D01*
X132213036Y-70713229D01*
X131972582Y-70665400D01*
X131727418Y-70665400D01*
X131486964Y-70713229D01*
X131260461Y-70807050D01*
X131056614Y-70943256D01*
X130883256Y-71116614D01*
X130747050Y-71320461D01*
X130653229Y-71546964D01*
X130605400Y-71787418D01*
X128014600Y-71787418D01*
X127966771Y-71546964D01*
X127872950Y-71320461D01*
X127736744Y-71116614D01*
X127563386Y-70943256D01*
X127359539Y-70807050D01*
X127133036Y-70713229D01*
X126892582Y-70665400D01*
X126647418Y-70665400D01*
X126406964Y-70713229D01*
X126180461Y-70807050D01*
X125976614Y-70943256D01*
X125803256Y-71116614D01*
X125667050Y-71320461D01*
X125573229Y-71546964D01*
X125525400Y-71787418D01*
X125474600Y-71787418D01*
X125426771Y-71546964D01*
X125332950Y-71320461D01*
X125196744Y-71116614D01*
X125023386Y-70943256D01*
X124819539Y-70807050D01*
X124593036Y-70713229D01*
X124352582Y-70665400D01*
X124107418Y-70665400D01*
X123866964Y-70713229D01*
X123640461Y-70807050D01*
X123436614Y-70943256D01*
X123263256Y-71116614D01*
X123127050Y-71320461D01*
X123033229Y-71546964D01*
X122985400Y-71787418D01*
X120394600Y-71787418D01*
X120346771Y-71546964D01*
X120252950Y-71320461D01*
X120116744Y-71116614D01*
X119943386Y-70943256D01*
X119739539Y-70807050D01*
X119513036Y-70713229D01*
X119272582Y-70665400D01*
X119027418Y-70665400D01*
X118786964Y-70713229D01*
X118560461Y-70807050D01*
X118356614Y-70943256D01*
X118183256Y-71116614D01*
X118047050Y-71320461D01*
X117953229Y-71546964D01*
X117905400Y-71787418D01*
X117854600Y-71787418D01*
X117806771Y-71546964D01*
X117712950Y-71320461D01*
X117576744Y-71116614D01*
X117403386Y-70943256D01*
X117199539Y-70807050D01*
X116973036Y-70713229D01*
X116732582Y-70665400D01*
X116487418Y-70665400D01*
X116246964Y-70713229D01*
X116020461Y-70807050D01*
X115816614Y-70943256D01*
X115643256Y-71116614D01*
X115507050Y-71320461D01*
X115413229Y-71546964D01*
X115365400Y-71787418D01*
X115314600Y-71787418D01*
X115266771Y-71546964D01*
X115172950Y-71320461D01*
X115036744Y-71116614D01*
X114863386Y-70943256D01*
X114659539Y-70807050D01*
X114433036Y-70713229D01*
X114192582Y-70665400D01*
X113947418Y-70665400D01*
X113706964Y-70713229D01*
X113480461Y-70807050D01*
X113276614Y-70943256D01*
X113103256Y-71116614D01*
X112967050Y-71320461D01*
X112873229Y-71546964D01*
X112825400Y-71787418D01*
X110234600Y-71787418D01*
X110186771Y-71546964D01*
X110092950Y-71320461D01*
X109956744Y-71116614D01*
X109783386Y-70943256D01*
X109579539Y-70807050D01*
X109353036Y-70713229D01*
X109112582Y-70665400D01*
X108867418Y-70665400D01*
X108626964Y-70713229D01*
X108400461Y-70807050D01*
X108196614Y-70943256D01*
X108023256Y-71116614D01*
X107887050Y-71320461D01*
X107793229Y-71546964D01*
X107745400Y-71787418D01*
X107694600Y-71787418D01*
X107646771Y-71546964D01*
X107552950Y-71320461D01*
X107416744Y-71116614D01*
X107243386Y-70943256D01*
X107039539Y-70807050D01*
X106813036Y-70713229D01*
X106572582Y-70665400D01*
X106327418Y-70665400D01*
X106086964Y-70713229D01*
X105860461Y-70807050D01*
X105656614Y-70943256D01*
X105483256Y-71116614D01*
X105347050Y-71320461D01*
X105253229Y-71546964D01*
X105205400Y-71787418D01*
X104646000Y-71787418D01*
X104646000Y-69626000D01*
X142724001Y-69626000D01*
X142724000Y-83137601D01*
%TA.AperFunction,Conductor*%
D15*
G36*
X142724000Y-83137601D02*
G01*
X142721794Y-83160000D01*
X142730598Y-83249392D01*
X142756673Y-83335348D01*
X142799016Y-83414566D01*
X142848144Y-83474429D01*
X142855999Y-83484001D01*
X142925434Y-83540984D01*
X143004652Y-83583327D01*
X143090608Y-83609402D01*
X143180000Y-83618206D01*
X143202399Y-83616000D01*
X155157601Y-83616000D01*
X155180000Y-83618206D01*
X155202399Y-83616000D01*
X155269392Y-83609402D01*
X155355348Y-83583327D01*
X155434566Y-83540984D01*
X155504001Y-83484001D01*
X155560984Y-83414566D01*
X155603327Y-83335348D01*
X155629402Y-83249392D01*
X155638206Y-83160000D01*
X155636000Y-83137601D01*
X155636000Y-69626000D01*
X160714001Y-69626000D01*
X160714000Y-82147601D01*
X160711794Y-82170000D01*
X160720598Y-82259392D01*
X160746673Y-82345348D01*
X160789016Y-82424566D01*
X160845999Y-82494001D01*
X160915434Y-82550984D01*
X160994652Y-82593327D01*
X161080608Y-82619402D01*
X161170000Y-82628206D01*
X161192399Y-82626000D01*
X175157601Y-82626000D01*
X175180000Y-82628206D01*
X175202399Y-82626000D01*
X175269392Y-82619402D01*
X175355348Y-82593327D01*
X175434566Y-82550984D01*
X175504001Y-82494001D01*
X175560984Y-82424566D01*
X175603327Y-82345348D01*
X175629402Y-82259392D01*
X175638206Y-82170000D01*
X175636000Y-82147601D01*
X175636000Y-69626000D01*
X188734001Y-69626000D01*
X188734000Y-85714000D01*
X178212399Y-85714000D01*
X178190000Y-85711794D01*
X178167601Y-85714000D01*
X178100608Y-85720598D01*
X178014652Y-85746673D01*
X177935434Y-85789016D01*
X177865999Y-85845999D01*
X177809016Y-85915434D01*
X177766673Y-85994652D01*
X177740598Y-86080608D01*
X177731794Y-86170000D01*
X177734001Y-86192409D01*
X177734000Y-101147601D01*
X177731794Y-101170000D01*
X177740598Y-101259392D01*
X177766673Y-101345348D01*
X177809016Y-101424566D01*
X177865999Y-101494001D01*
X177935434Y-101550984D01*
X178014652Y-101593327D01*
X178100608Y-101619402D01*
X178190000Y-101628206D01*
X178212399Y-101626000D01*
X188734001Y-101626000D01*
X188734000Y-105714000D01*
X168212399Y-105714000D01*
X168190000Y-105711794D01*
X168167601Y-105714000D01*
X168100608Y-105720598D01*
X168014652Y-105746673D01*
X167935434Y-105789016D01*
X167865999Y-105845999D01*
X167809016Y-105915434D01*
X167766673Y-105994652D01*
X167740598Y-106080608D01*
X167731794Y-106170000D01*
X167734001Y-106192409D01*
X167734000Y-124714000D01*
X104646000Y-124714000D01*
X104646000Y-113658304D01*
X112839000Y-113658304D01*
X112839000Y-113841696D01*
X112874778Y-114021563D01*
X112944958Y-114190994D01*
X113046845Y-114343478D01*
X113176522Y-114473155D01*
X113329006Y-114575042D01*
X113498437Y-114645222D01*
X113678304Y-114681000D01*
X113861696Y-114681000D01*
X114041563Y-114645222D01*
X114210994Y-114575042D01*
X114363478Y-114473155D01*
X114493155Y-114343478D01*
X114595042Y-114190994D01*
X114665222Y-114021563D01*
X114701000Y-113841696D01*
X114701000Y-113658304D01*
X114665222Y-113478437D01*
X114595042Y-113309006D01*
X114511807Y-113184436D01*
X160139000Y-113184436D01*
X160139000Y-113515564D01*
X160203600Y-113840330D01*
X160330317Y-114146252D01*
X160514282Y-114421575D01*
X160748425Y-114655718D01*
X161023748Y-114839683D01*
X161329670Y-114966400D01*
X161654436Y-115031000D01*
X161985564Y-115031000D01*
X162310330Y-114966400D01*
X162616252Y-114839683D01*
X162891575Y-114655718D01*
X163125718Y-114421575D01*
X163309683Y-114146252D01*
X163436400Y-113840330D01*
X163501000Y-113515564D01*
X163501000Y-113184436D01*
X163436400Y-112859670D01*
X163309683Y-112553748D01*
X163125718Y-112278425D01*
X162891575Y-112044282D01*
X162616252Y-111860317D01*
X162310330Y-111733600D01*
X161985564Y-111669000D01*
X161654436Y-111669000D01*
X161329670Y-111733600D01*
X161023748Y-111860317D01*
X160748425Y-112044282D01*
X160514282Y-112278425D01*
X160330317Y-112553748D01*
X160203600Y-112859670D01*
X160139000Y-113184436D01*
X114511807Y-113184436D01*
X114493155Y-113156522D01*
X114363478Y-113026845D01*
X114210994Y-112924958D01*
X114041563Y-112854778D01*
X113861696Y-112819000D01*
X113678304Y-112819000D01*
X113498437Y-112854778D01*
X113329006Y-112924958D01*
X113176522Y-113026845D01*
X113046845Y-113156522D01*
X112944958Y-113309006D01*
X112874778Y-113478437D01*
X112839000Y-113658304D01*
X104646000Y-113658304D01*
X104646000Y-110193078D01*
X111729000Y-110193078D01*
X111729000Y-110346922D01*
X111759013Y-110497809D01*
X111817887Y-110639942D01*
X111903358Y-110767859D01*
X112012141Y-110876642D01*
X112140058Y-110962113D01*
X112282191Y-111020987D01*
X112433078Y-111051000D01*
X112586922Y-111051000D01*
X112737809Y-111020987D01*
X112879942Y-110962113D01*
X113007859Y-110876642D01*
X113116642Y-110767859D01*
X113202113Y-110639942D01*
X113260987Y-110497809D01*
X113291000Y-110346922D01*
X113291000Y-110193078D01*
X113260987Y-110042191D01*
X113202113Y-109900058D01*
X113116642Y-109772141D01*
X113018000Y-109673499D01*
X113018000Y-106120420D01*
X113792352Y-105346068D01*
X114369816Y-105346068D01*
X114369816Y-105499912D01*
X114399829Y-105650799D01*
X114458703Y-105792932D01*
X114544174Y-105920849D01*
X114652957Y-106029632D01*
X114780874Y-106115103D01*
X114923007Y-106173977D01*
X115073894Y-106203990D01*
X115227738Y-106203990D01*
X115378625Y-106173977D01*
X115520758Y-106115103D01*
X115621185Y-106048000D01*
X126493499Y-106048000D01*
X126592141Y-106146642D01*
X126720058Y-106232113D01*
X126862191Y-106290987D01*
X127013078Y-106321000D01*
X127166922Y-106321000D01*
X127317809Y-106290987D01*
X127459942Y-106232113D01*
X127587859Y-106146642D01*
X127696642Y-106037859D01*
X127782113Y-105909942D01*
X127840987Y-105767809D01*
X127871000Y-105616922D01*
X127871000Y-105463078D01*
X127840987Y-105312191D01*
X127782113Y-105170058D01*
X127696642Y-105042141D01*
X127587859Y-104933358D01*
X127459942Y-104847887D01*
X127317809Y-104789013D01*
X127166922Y-104759000D01*
X127013078Y-104759000D01*
X126862191Y-104789013D01*
X126720058Y-104847887D01*
X126592141Y-104933358D01*
X126493499Y-105032000D01*
X115828865Y-105032000D01*
X115757458Y-104925131D01*
X115648675Y-104816348D01*
X115520758Y-104730877D01*
X115378625Y-104672003D01*
X115227738Y-104641990D01*
X115073894Y-104641990D01*
X114923007Y-104672003D01*
X114780874Y-104730877D01*
X114652957Y-104816348D01*
X114544174Y-104925131D01*
X114458703Y-105053048D01*
X114399829Y-105195181D01*
X114369816Y-105346068D01*
X113792352Y-105346068D01*
X114267420Y-104871000D01*
X114406922Y-104871000D01*
X114557809Y-104840987D01*
X114699942Y-104782113D01*
X114827859Y-104696642D01*
X114936642Y-104587859D01*
X115022113Y-104459942D01*
X115080987Y-104317809D01*
X115111000Y-104166922D01*
X115111000Y-104013078D01*
X115080987Y-103862191D01*
X115022113Y-103720058D01*
X114936642Y-103592141D01*
X114827859Y-103483358D01*
X114699942Y-103397887D01*
X114557809Y-103339013D01*
X114406922Y-103309000D01*
X114253078Y-103309000D01*
X114102191Y-103339013D01*
X113960058Y-103397887D01*
X113832141Y-103483358D01*
X113723358Y-103592141D01*
X113637887Y-103720058D01*
X113579013Y-103862191D01*
X113549000Y-104013078D01*
X113549000Y-104152580D01*
X112168430Y-105533150D01*
X112149053Y-105549052D01*
X112133151Y-105568429D01*
X112133150Y-105568430D01*
X112085571Y-105626405D01*
X112042715Y-105706585D01*
X112038400Y-105714657D01*
X112014656Y-105792932D01*
X112009352Y-105810416D01*
X111999543Y-105910000D01*
X112002001Y-105934954D01*
X112002000Y-109673499D01*
X111903358Y-109772141D01*
X111817887Y-109900058D01*
X111759013Y-110042191D01*
X111729000Y-110193078D01*
X104646000Y-110193078D01*
X104646000Y-101773078D01*
X111179000Y-101773078D01*
X111179000Y-101926922D01*
X111209013Y-102077809D01*
X111267887Y-102219942D01*
X111353358Y-102347859D01*
X111462141Y-102456642D01*
X111590058Y-102542113D01*
X111732191Y-102600987D01*
X111883078Y-102631000D01*
X112036922Y-102631000D01*
X112187809Y-102600987D01*
X112329942Y-102542113D01*
X112457859Y-102456642D01*
X112566642Y-102347859D01*
X112652113Y-102219942D01*
X112710987Y-102077809D01*
X112741000Y-101926922D01*
X112741000Y-101813078D01*
X119299000Y-101813078D01*
X119299000Y-101966922D01*
X119329013Y-102117809D01*
X119387887Y-102259942D01*
X119473358Y-102387859D01*
X119582141Y-102496642D01*
X119710058Y-102582113D01*
X119852191Y-102640987D01*
X120003078Y-102671000D01*
X120156922Y-102671000D01*
X120307809Y-102640987D01*
X120449942Y-102582113D01*
X120577859Y-102496642D01*
X120686642Y-102387859D01*
X120772113Y-102259942D01*
X120830987Y-102117809D01*
X120861000Y-101966922D01*
X120861000Y-101813078D01*
X120830987Y-101662191D01*
X120772113Y-101520058D01*
X120715000Y-101434582D01*
X120715000Y-100253078D01*
X121879000Y-100253078D01*
X121879000Y-100406922D01*
X121909013Y-100557809D01*
X121967887Y-100699942D01*
X122053358Y-100827859D01*
X122162141Y-100936642D01*
X122290058Y-101022113D01*
X122432191Y-101080987D01*
X122583078Y-101111000D01*
X122736922Y-101111000D01*
X122887809Y-101080987D01*
X123029942Y-101022113D01*
X123157859Y-100936642D01*
X123266642Y-100827859D01*
X123352113Y-100699942D01*
X123410987Y-100557809D01*
X123441000Y-100406922D01*
X123441000Y-100267421D01*
X123570421Y-100138000D01*
X130513499Y-100138000D01*
X130612141Y-100236642D01*
X130740058Y-100322113D01*
X130882191Y-100380987D01*
X131033078Y-100411000D01*
X131186922Y-100411000D01*
X131337809Y-100380987D01*
X131479942Y-100322113D01*
X131607859Y-100236642D01*
X131716642Y-100127859D01*
X131802113Y-99999942D01*
X131860987Y-99857809D01*
X131891000Y-99706922D01*
X131891000Y-99553078D01*
X131860987Y-99402191D01*
X131802113Y-99260058D01*
X131716642Y-99132141D01*
X131607859Y-99023358D01*
X131479942Y-98937887D01*
X131337809Y-98879013D01*
X131186922Y-98849000D01*
X131033078Y-98849000D01*
X130882191Y-98879013D01*
X130740058Y-98937887D01*
X130612141Y-99023358D01*
X130513499Y-99122000D01*
X128059545Y-99122000D01*
X128110987Y-98997809D01*
X128141000Y-98846922D01*
X128141000Y-98693078D01*
X128110987Y-98542191D01*
X128052113Y-98400058D01*
X127966642Y-98272141D01*
X127868000Y-98173499D01*
X127868000Y-97984944D01*
X127870457Y-97960000D01*
X127865786Y-97912577D01*
X127860649Y-97860415D01*
X127831601Y-97764657D01*
X127784429Y-97676405D01*
X127720948Y-97599052D01*
X127701565Y-97583145D01*
X127238000Y-97119580D01*
X127238000Y-93360420D01*
X127471570Y-93126851D01*
X127490948Y-93110948D01*
X127518103Y-93077859D01*
X127554429Y-93033596D01*
X127601600Y-92945345D01*
X127601601Y-92945343D01*
X127630649Y-92849585D01*
X127638000Y-92774947D01*
X127638000Y-92774945D01*
X127640457Y-92750001D01*
X127638000Y-92725057D01*
X127638000Y-92126501D01*
X127736642Y-92027859D01*
X127822113Y-91899942D01*
X127880987Y-91757809D01*
X127911000Y-91606922D01*
X127911000Y-91453078D01*
X127880987Y-91302191D01*
X127822113Y-91160058D01*
X127736642Y-91032141D01*
X127627859Y-90923358D01*
X127499942Y-90837887D01*
X127357809Y-90779013D01*
X127206922Y-90749000D01*
X127053078Y-90749000D01*
X126902191Y-90779013D01*
X126760058Y-90837887D01*
X126632141Y-90923358D01*
X126523358Y-91032141D01*
X126437887Y-91160058D01*
X126379013Y-91302191D01*
X126349000Y-91453078D01*
X126349000Y-91486552D01*
X126330799Y-91479013D01*
X126179912Y-91449000D01*
X126026068Y-91449000D01*
X125875181Y-91479013D01*
X125733048Y-91537887D01*
X125605131Y-91623358D01*
X125496348Y-91732141D01*
X125410877Y-91860058D01*
X125352003Y-92002191D01*
X125321990Y-92153078D01*
X125321990Y-92306922D01*
X125352003Y-92457809D01*
X125410877Y-92599942D01*
X125496348Y-92727859D01*
X125594990Y-92826501D01*
X125594991Y-98171218D01*
X125592533Y-98196172D01*
X125599278Y-98264648D01*
X125602342Y-98295757D01*
X125621993Y-98360537D01*
X125626355Y-98374916D01*
X125618275Y-98415535D01*
X125618275Y-98569379D01*
X125648288Y-98720266D01*
X125707162Y-98862399D01*
X125792633Y-98990316D01*
X125901416Y-99099099D01*
X125935690Y-99122000D01*
X123384943Y-99122000D01*
X123359999Y-99119543D01*
X123335055Y-99122000D01*
X123335053Y-99122000D01*
X123260415Y-99129351D01*
X123164657Y-99158399D01*
X123164655Y-99158400D01*
X123076404Y-99205571D01*
X123030256Y-99243444D01*
X122999052Y-99269052D01*
X122983149Y-99288430D01*
X122722579Y-99549000D01*
X122583078Y-99549000D01*
X122432191Y-99579013D01*
X122290058Y-99637887D01*
X122162141Y-99723358D01*
X122053358Y-99832141D01*
X121967887Y-99960058D01*
X121909013Y-100102191D01*
X121879000Y-100253078D01*
X120715000Y-100253078D01*
X120715000Y-98093024D01*
X124736955Y-94071070D01*
X124761185Y-94051185D01*
X124798574Y-94005627D01*
X124840537Y-93954495D01*
X124861076Y-93916069D01*
X124899502Y-93844180D01*
X124935812Y-93724482D01*
X124945000Y-93631192D01*
X124945000Y-93631182D01*
X124948071Y-93600001D01*
X124945000Y-93568820D01*
X124945000Y-90105418D01*
X125002113Y-90019942D01*
X125060987Y-89877809D01*
X125091000Y-89726922D01*
X125091000Y-89573078D01*
X125060987Y-89422191D01*
X125002113Y-89280058D01*
X124916642Y-89152141D01*
X124807859Y-89043358D01*
X124719676Y-88984436D01*
X160139000Y-88984436D01*
X160139000Y-89315564D01*
X160203600Y-89640330D01*
X160330317Y-89946252D01*
X160514282Y-90221575D01*
X160748425Y-90455718D01*
X161023748Y-90639683D01*
X161329670Y-90766400D01*
X161654436Y-90831000D01*
X161985564Y-90831000D01*
X162310330Y-90766400D01*
X162616252Y-90639683D01*
X162891575Y-90455718D01*
X163125718Y-90221575D01*
X163309683Y-89946252D01*
X163436400Y-89640330D01*
X163501000Y-89315564D01*
X163501000Y-88984436D01*
X163436400Y-88659670D01*
X163309683Y-88353748D01*
X163125718Y-88078425D01*
X162891575Y-87844282D01*
X162616252Y-87660317D01*
X162310330Y-87533600D01*
X161985564Y-87469000D01*
X161654436Y-87469000D01*
X161329670Y-87533600D01*
X161023748Y-87660317D01*
X160748425Y-87844282D01*
X160514282Y-88078425D01*
X160330317Y-88353748D01*
X160203600Y-88659670D01*
X160139000Y-88984436D01*
X124719676Y-88984436D01*
X124679942Y-88957887D01*
X124537809Y-88899013D01*
X124386922Y-88869000D01*
X124233078Y-88869000D01*
X124082191Y-88899013D01*
X123940058Y-88957887D01*
X123812141Y-89043358D01*
X123703358Y-89152141D01*
X123617887Y-89280058D01*
X123579803Y-89372000D01*
X122576501Y-89372000D01*
X122477859Y-89273358D01*
X122349942Y-89187887D01*
X122207809Y-89129013D01*
X122056922Y-89099000D01*
X121903078Y-89099000D01*
X121752191Y-89129013D01*
X121610058Y-89187887D01*
X121482141Y-89273358D01*
X121373358Y-89382141D01*
X121287887Y-89510058D01*
X121229013Y-89652191D01*
X121199000Y-89803078D01*
X121199000Y-89956922D01*
X121229013Y-90107809D01*
X121287887Y-90249942D01*
X121373358Y-90377859D01*
X121482141Y-90486642D01*
X121610058Y-90572113D01*
X121752191Y-90630987D01*
X121903078Y-90661000D01*
X122056922Y-90661000D01*
X122207809Y-90630987D01*
X122349942Y-90572113D01*
X122477859Y-90486642D01*
X122576501Y-90388000D01*
X123675000Y-90388000D01*
X123675001Y-93336974D01*
X119653050Y-97358926D01*
X119628815Y-97378815D01*
X119549463Y-97475507D01*
X119490498Y-97585821D01*
X119454188Y-97705519D01*
X119445000Y-97798809D01*
X119445000Y-97798819D01*
X119441929Y-97830000D01*
X119445000Y-97861181D01*
X119445001Y-101434581D01*
X119387887Y-101520058D01*
X119329013Y-101662191D01*
X119299000Y-101813078D01*
X112741000Y-101813078D01*
X112741000Y-101787420D01*
X118095645Y-96432776D01*
X118115022Y-96416874D01*
X118133698Y-96394116D01*
X118178503Y-96339522D01*
X118225674Y-96251270D01*
X118225675Y-96251269D01*
X118254723Y-96155511D01*
X118262074Y-96080873D01*
X118262074Y-96080871D01*
X118264531Y-96055927D01*
X118262074Y-96030983D01*
X118262074Y-81720575D01*
X118360716Y-81621933D01*
X118446187Y-81494016D01*
X118505061Y-81351883D01*
X118535074Y-81200996D01*
X118535074Y-81047152D01*
X118505061Y-80896265D01*
X118446187Y-80754132D01*
X118360716Y-80626215D01*
X118251933Y-80517432D01*
X118124016Y-80431961D01*
X117981883Y-80373087D01*
X117830996Y-80343074D01*
X117677152Y-80343074D01*
X117526265Y-80373087D01*
X117384132Y-80431961D01*
X117256215Y-80517432D01*
X117147432Y-80626215D01*
X117061961Y-80754132D01*
X117003087Y-80896265D01*
X116973074Y-81047152D01*
X116973074Y-81200996D01*
X117003087Y-81351883D01*
X117061961Y-81494016D01*
X117147432Y-81621933D01*
X117246075Y-81720576D01*
X117246074Y-95845505D01*
X112022580Y-101069000D01*
X111883078Y-101069000D01*
X111732191Y-101099013D01*
X111590058Y-101157887D01*
X111462141Y-101243358D01*
X111353358Y-101352141D01*
X111267887Y-101480058D01*
X111209013Y-101622191D01*
X111179000Y-101773078D01*
X104646000Y-101773078D01*
X104646000Y-94213078D01*
X111449000Y-94213078D01*
X111449000Y-94366922D01*
X111479013Y-94517809D01*
X111537887Y-94659942D01*
X111623358Y-94787859D01*
X111732141Y-94896642D01*
X111860058Y-94982113D01*
X112002191Y-95040987D01*
X112153078Y-95071000D01*
X112306922Y-95071000D01*
X112457809Y-95040987D01*
X112599942Y-94982113D01*
X112727859Y-94896642D01*
X112836642Y-94787859D01*
X112922113Y-94659942D01*
X112930822Y-94638916D01*
X112936855Y-94631565D01*
X115641571Y-91926850D01*
X115660948Y-91910948D01*
X115702712Y-91860058D01*
X115724429Y-91833596D01*
X115771600Y-91745345D01*
X115771601Y-91745342D01*
X115800649Y-91649585D01*
X115808000Y-91574947D01*
X115808000Y-91574945D01*
X115810457Y-91550001D01*
X115808000Y-91525057D01*
X115808000Y-82283320D01*
X115877859Y-82236642D01*
X115986642Y-82127859D01*
X116072113Y-81999942D01*
X116130987Y-81857809D01*
X116161000Y-81706922D01*
X116161000Y-81553078D01*
X116130987Y-81402191D01*
X116072113Y-81260058D01*
X115986642Y-81132141D01*
X115877859Y-81023358D01*
X115749942Y-80937887D01*
X115607809Y-80879013D01*
X115456922Y-80849000D01*
X115303078Y-80849000D01*
X115152191Y-80879013D01*
X115010058Y-80937887D01*
X114882141Y-81023358D01*
X114773358Y-81132141D01*
X114687887Y-81260058D01*
X114629013Y-81402191D01*
X114599000Y-81553078D01*
X114599000Y-81706922D01*
X114629013Y-81857809D01*
X114687887Y-81999942D01*
X114773358Y-82127859D01*
X114792001Y-82146502D01*
X114792000Y-88153789D01*
X114687342Y-87997157D01*
X114522843Y-87832658D01*
X114329413Y-87703412D01*
X114114485Y-87614386D01*
X113886318Y-87569000D01*
X113653682Y-87569000D01*
X113425515Y-87614386D01*
X113210587Y-87703412D01*
X113017157Y-87832658D01*
X112878000Y-87971815D01*
X112878000Y-86050420D01*
X113277421Y-85651000D01*
X113416922Y-85651000D01*
X113567809Y-85620987D01*
X113709942Y-85562113D01*
X113837859Y-85476642D01*
X113946642Y-85367859D01*
X114032113Y-85239942D01*
X114090987Y-85097809D01*
X114121000Y-84946922D01*
X114121000Y-84793078D01*
X114090987Y-84642191D01*
X114032113Y-84500058D01*
X113946642Y-84372141D01*
X113837859Y-84263358D01*
X113709942Y-84177887D01*
X113567809Y-84119013D01*
X113416922Y-84089000D01*
X113263078Y-84089000D01*
X113112191Y-84119013D01*
X112970058Y-84177887D01*
X112842141Y-84263358D01*
X112733358Y-84372141D01*
X112647887Y-84500058D01*
X112589013Y-84642191D01*
X112559000Y-84793078D01*
X112559000Y-84932579D01*
X112028430Y-85463150D01*
X112009053Y-85479052D01*
X111993151Y-85498429D01*
X111993150Y-85498430D01*
X111945571Y-85556405D01*
X111911052Y-85620987D01*
X111898400Y-85644657D01*
X111875364Y-85720598D01*
X111869352Y-85740416D01*
X111859543Y-85840000D01*
X111862001Y-85864954D01*
X111862000Y-91919998D01*
X111782141Y-91973358D01*
X111673358Y-92082141D01*
X111587887Y-92210058D01*
X111529013Y-92352191D01*
X111499000Y-92503078D01*
X111499000Y-92656922D01*
X111529013Y-92807809D01*
X111587887Y-92949942D01*
X111673358Y-93077859D01*
X111782141Y-93186642D01*
X111910058Y-93272113D01*
X112052191Y-93330987D01*
X112203078Y-93361000D01*
X112356922Y-93361000D01*
X112507809Y-93330987D01*
X112649942Y-93272113D01*
X112777859Y-93186642D01*
X112886642Y-93077859D01*
X112972113Y-92949942D01*
X113030987Y-92807809D01*
X113061000Y-92656922D01*
X113061000Y-92503078D01*
X113030987Y-92352191D01*
X112972113Y-92210058D01*
X112886642Y-92082141D01*
X112878000Y-92073499D01*
X112878000Y-89528185D01*
X113017157Y-89667342D01*
X113210587Y-89796588D01*
X113425515Y-89885614D01*
X113653682Y-89931000D01*
X113886318Y-89931000D01*
X114114485Y-89885614D01*
X114329413Y-89796588D01*
X114522843Y-89667342D01*
X114687342Y-89502843D01*
X114792000Y-89346211D01*
X114792000Y-91339579D01*
X112553097Y-93578483D01*
X112457809Y-93539013D01*
X112306922Y-93509000D01*
X112153078Y-93509000D01*
X112002191Y-93539013D01*
X111860058Y-93597887D01*
X111732141Y-93683358D01*
X111623358Y-93792141D01*
X111537887Y-93920058D01*
X111479013Y-94062191D01*
X111449000Y-94213078D01*
X104646000Y-94213078D01*
X104646000Y-73586400D01*
X105203557Y-73586400D01*
X105203557Y-75313600D01*
X105210913Y-75388289D01*
X105232699Y-75460108D01*
X105268078Y-75526296D01*
X105315689Y-75584311D01*
X105373704Y-75631922D01*
X105439892Y-75667301D01*
X105511711Y-75689087D01*
X105586400Y-75696443D01*
X107313600Y-75696443D01*
X107388289Y-75689087D01*
X107460108Y-75667301D01*
X107526296Y-75631922D01*
X107584311Y-75584311D01*
X107631922Y-75526296D01*
X107667301Y-75460108D01*
X107689087Y-75388289D01*
X107696443Y-75313600D01*
X107696443Y-74327418D01*
X107745400Y-74327418D01*
X107745400Y-74572582D01*
X107793229Y-74813036D01*
X107887050Y-75039539D01*
X108023256Y-75243386D01*
X108196614Y-75416744D01*
X108400461Y-75552950D01*
X108626964Y-75646771D01*
X108867418Y-75694600D01*
X109112582Y-75694600D01*
X109353036Y-75646771D01*
X109434576Y-75612996D01*
X110101519Y-76279940D01*
X110099543Y-76300000D01*
X110102000Y-76324944D01*
X110102000Y-76324947D01*
X110109351Y-76399585D01*
X110138399Y-76495343D01*
X110185571Y-76583595D01*
X110233150Y-76641570D01*
X110249053Y-76660948D01*
X110268430Y-76676850D01*
X113593145Y-80001565D01*
X113609052Y-80020948D01*
X113686405Y-80084429D01*
X113774657Y-80131601D01*
X113870415Y-80160649D01*
X113945053Y-80168000D01*
X113945056Y-80168000D01*
X113970000Y-80170457D01*
X113994944Y-80168000D01*
X123289580Y-80168000D01*
X126207400Y-83085821D01*
X126197887Y-83100058D01*
X126139013Y-83242191D01*
X126109000Y-83393078D01*
X126109000Y-83546922D01*
X126139013Y-83697809D01*
X126197887Y-83839942D01*
X126283358Y-83967859D01*
X126392141Y-84076642D01*
X126520058Y-84162113D01*
X126662191Y-84220987D01*
X126713814Y-84231255D01*
X126687887Y-84270058D01*
X126629013Y-84412191D01*
X126599000Y-84563078D01*
X126599000Y-84716922D01*
X126629013Y-84867809D01*
X126687887Y-85009942D01*
X126773358Y-85137859D01*
X126882141Y-85246642D01*
X127010058Y-85332113D01*
X127152191Y-85390987D01*
X127303078Y-85421000D01*
X127456922Y-85421000D01*
X127607809Y-85390987D01*
X127749942Y-85332113D01*
X127877859Y-85246642D01*
X127986642Y-85137859D01*
X128072113Y-85009942D01*
X128130987Y-84867809D01*
X128161000Y-84716922D01*
X128161000Y-84576514D01*
X128204428Y-84523597D01*
X128229642Y-84476425D01*
X128251600Y-84435344D01*
X128280648Y-84339586D01*
X128287999Y-84264948D01*
X128287999Y-84264946D01*
X128290456Y-84240002D01*
X128287999Y-84215058D01*
X128287999Y-83308979D01*
X128290456Y-83284035D01*
X128286645Y-83245343D01*
X128280648Y-83184450D01*
X128251600Y-83088692D01*
X128204428Y-83000440D01*
X128140947Y-82923087D01*
X128121564Y-82907180D01*
X124072819Y-78858435D01*
X124056912Y-78839052D01*
X123979559Y-78775571D01*
X123891307Y-78728399D01*
X123795549Y-78699351D01*
X123720911Y-78692000D01*
X123720908Y-78692000D01*
X123695964Y-78689543D01*
X123671020Y-78692000D01*
X116490421Y-78692000D01*
X112692996Y-74894576D01*
X112726771Y-74813036D01*
X112774600Y-74572582D01*
X112774600Y-74327418D01*
X112825400Y-74327418D01*
X112825400Y-74572582D01*
X112873229Y-74813036D01*
X112967050Y-75039539D01*
X113103256Y-75243386D01*
X113276614Y-75416744D01*
X113480461Y-75552950D01*
X113706964Y-75646771D01*
X113947418Y-75694600D01*
X114192582Y-75694600D01*
X114433036Y-75646771D01*
X114659539Y-75552950D01*
X114863386Y-75416744D01*
X115036744Y-75243386D01*
X115172950Y-75039539D01*
X115266771Y-74813036D01*
X115314600Y-74572582D01*
X115314600Y-74327418D01*
X117905400Y-74327418D01*
X117905400Y-74572582D01*
X117953229Y-74813036D01*
X118047050Y-75039539D01*
X118183256Y-75243386D01*
X118356614Y-75416744D01*
X118560461Y-75552950D01*
X118786964Y-75646771D01*
X119027418Y-75694600D01*
X119272582Y-75694600D01*
X119513036Y-75646771D01*
X119739539Y-75552950D01*
X119943386Y-75416744D01*
X120116744Y-75243386D01*
X120252950Y-75039539D01*
X120346771Y-74813036D01*
X120394600Y-74572582D01*
X120394600Y-74327418D01*
X120445400Y-74327418D01*
X120445400Y-74572582D01*
X120493229Y-74813036D01*
X120587050Y-75039539D01*
X120723256Y-75243386D01*
X120896614Y-75416744D01*
X121100461Y-75552950D01*
X121326964Y-75646771D01*
X121567418Y-75694600D01*
X121812582Y-75694600D01*
X122053036Y-75646771D01*
X122279539Y-75552950D01*
X122483386Y-75416744D01*
X122656744Y-75243386D01*
X122792950Y-75039539D01*
X122886771Y-74813036D01*
X122934600Y-74572582D01*
X122934600Y-74327418D01*
X122985400Y-74327418D01*
X122985400Y-74572582D01*
X123033229Y-74813036D01*
X123127050Y-75039539D01*
X123263256Y-75243386D01*
X123436614Y-75416744D01*
X123640461Y-75552950D01*
X123866964Y-75646771D01*
X124107418Y-75694600D01*
X124352582Y-75694600D01*
X124593036Y-75646771D01*
X124819539Y-75552950D01*
X125023386Y-75416744D01*
X125196744Y-75243386D01*
X125332950Y-75039539D01*
X125426771Y-74813036D01*
X125474600Y-74572582D01*
X125474600Y-74327418D01*
X125525400Y-74327418D01*
X125525400Y-74572582D01*
X125573229Y-74813036D01*
X125667050Y-75039539D01*
X125803256Y-75243386D01*
X125976614Y-75416744D01*
X126180461Y-75552950D01*
X126406964Y-75646771D01*
X126647418Y-75694600D01*
X126892582Y-75694600D01*
X127133036Y-75646771D01*
X127359539Y-75552950D01*
X127563386Y-75416744D01*
X127736744Y-75243386D01*
X127872950Y-75039539D01*
X127966771Y-74813036D01*
X128014600Y-74572582D01*
X128014600Y-74327418D01*
X128065400Y-74327418D01*
X128065400Y-74572582D01*
X128113229Y-74813036D01*
X128207050Y-75039539D01*
X128343256Y-75243386D01*
X128516614Y-75416744D01*
X128720461Y-75552950D01*
X128946964Y-75646771D01*
X129187418Y-75694600D01*
X129432582Y-75694600D01*
X129673036Y-75646771D01*
X129899539Y-75552950D01*
X130103386Y-75416744D01*
X130276744Y-75243386D01*
X130412950Y-75039539D01*
X130506771Y-74813036D01*
X130554600Y-74572582D01*
X130554600Y-74327418D01*
X130605400Y-74327418D01*
X130605400Y-74572582D01*
X130653229Y-74813036D01*
X130747050Y-75039539D01*
X130883256Y-75243386D01*
X131056614Y-75416744D01*
X131260461Y-75552950D01*
X131486964Y-75646771D01*
X131727418Y-75694600D01*
X131972582Y-75694600D01*
X132213036Y-75646771D01*
X132439539Y-75552950D01*
X132643386Y-75416744D01*
X132816744Y-75243386D01*
X132952950Y-75039539D01*
X133046771Y-74813036D01*
X133094600Y-74572582D01*
X133094600Y-74327418D01*
X133145400Y-74327418D01*
X133145400Y-74572582D01*
X133193229Y-74813036D01*
X133287050Y-75039539D01*
X133423256Y-75243386D01*
X133596614Y-75416744D01*
X133800461Y-75552950D01*
X134026964Y-75646771D01*
X134267418Y-75694600D01*
X134512582Y-75694600D01*
X134753036Y-75646771D01*
X134979539Y-75552950D01*
X135183386Y-75416744D01*
X135356744Y-75243386D01*
X135492950Y-75039539D01*
X135586771Y-74813036D01*
X135634600Y-74572582D01*
X135634600Y-74327418D01*
X135586771Y-74086964D01*
X135492950Y-73860461D01*
X135356744Y-73656614D01*
X135183386Y-73483256D01*
X134979539Y-73347050D01*
X134753036Y-73253229D01*
X134512582Y-73205400D01*
X134267418Y-73205400D01*
X134026964Y-73253229D01*
X133800461Y-73347050D01*
X133596614Y-73483256D01*
X133423256Y-73656614D01*
X133287050Y-73860461D01*
X133193229Y-74086964D01*
X133145400Y-74327418D01*
X133094600Y-74327418D01*
X133046771Y-74086964D01*
X132952950Y-73860461D01*
X132816744Y-73656614D01*
X132643386Y-73483256D01*
X132439539Y-73347050D01*
X132213036Y-73253229D01*
X131972582Y-73205400D01*
X131727418Y-73205400D01*
X131486964Y-73253229D01*
X131260461Y-73347050D01*
X131056614Y-73483256D01*
X130883256Y-73656614D01*
X130747050Y-73860461D01*
X130653229Y-74086964D01*
X130605400Y-74327418D01*
X130554600Y-74327418D01*
X130506771Y-74086964D01*
X130412950Y-73860461D01*
X130276744Y-73656614D01*
X130103386Y-73483256D01*
X129899539Y-73347050D01*
X129673036Y-73253229D01*
X129432582Y-73205400D01*
X129187418Y-73205400D01*
X128946964Y-73253229D01*
X128720461Y-73347050D01*
X128516614Y-73483256D01*
X128343256Y-73656614D01*
X128207050Y-73860461D01*
X128113229Y-74086964D01*
X128065400Y-74327418D01*
X128014600Y-74327418D01*
X127966771Y-74086964D01*
X127872950Y-73860461D01*
X127736744Y-73656614D01*
X127563386Y-73483256D01*
X127359539Y-73347050D01*
X127133036Y-73253229D01*
X126892582Y-73205400D01*
X126647418Y-73205400D01*
X126406964Y-73253229D01*
X126180461Y-73347050D01*
X125976614Y-73483256D01*
X125803256Y-73656614D01*
X125667050Y-73860461D01*
X125573229Y-74086964D01*
X125525400Y-74327418D01*
X125474600Y-74327418D01*
X125426771Y-74086964D01*
X125332950Y-73860461D01*
X125196744Y-73656614D01*
X125023386Y-73483256D01*
X124819539Y-73347050D01*
X124593036Y-73253229D01*
X124352582Y-73205400D01*
X124107418Y-73205400D01*
X123866964Y-73253229D01*
X123640461Y-73347050D01*
X123436614Y-73483256D01*
X123263256Y-73656614D01*
X123127050Y-73860461D01*
X123033229Y-74086964D01*
X122985400Y-74327418D01*
X122934600Y-74327418D01*
X122886771Y-74086964D01*
X122792950Y-73860461D01*
X122656744Y-73656614D01*
X122483386Y-73483256D01*
X122279539Y-73347050D01*
X122053036Y-73253229D01*
X121812582Y-73205400D01*
X121567418Y-73205400D01*
X121326964Y-73253229D01*
X121100461Y-73347050D01*
X120896614Y-73483256D01*
X120723256Y-73656614D01*
X120587050Y-73860461D01*
X120493229Y-74086964D01*
X120445400Y-74327418D01*
X120394600Y-74327418D01*
X120346771Y-74086964D01*
X120252950Y-73860461D01*
X120116744Y-73656614D01*
X119943386Y-73483256D01*
X119739539Y-73347050D01*
X119513036Y-73253229D01*
X119272582Y-73205400D01*
X119027418Y-73205400D01*
X118786964Y-73253229D01*
X118560461Y-73347050D01*
X118356614Y-73483256D01*
X118183256Y-73656614D01*
X118047050Y-73860461D01*
X117953229Y-74086964D01*
X117905400Y-74327418D01*
X115314600Y-74327418D01*
X115266771Y-74086964D01*
X115172950Y-73860461D01*
X115036744Y-73656614D01*
X114863386Y-73483256D01*
X114659539Y-73347050D01*
X114433036Y-73253229D01*
X114192582Y-73205400D01*
X113947418Y-73205400D01*
X113706964Y-73253229D01*
X113480461Y-73347050D01*
X113276614Y-73483256D01*
X113103256Y-73656614D01*
X112967050Y-73860461D01*
X112873229Y-74086964D01*
X112825400Y-74327418D01*
X112774600Y-74327418D01*
X112726771Y-74086964D01*
X112632950Y-73860461D01*
X112496744Y-73656614D01*
X112323386Y-73483256D01*
X112119539Y-73347050D01*
X111893036Y-73253229D01*
X111652582Y-73205400D01*
X111407418Y-73205400D01*
X111166964Y-73253229D01*
X110940461Y-73347050D01*
X110736614Y-73483256D01*
X110563256Y-73656614D01*
X110427050Y-73860461D01*
X110333229Y-74086964D01*
X110285400Y-74327418D01*
X110285400Y-74572582D01*
X110333229Y-74813036D01*
X110427050Y-75039539D01*
X110563256Y-75243386D01*
X110736614Y-75416744D01*
X110940461Y-75552950D01*
X111166964Y-75646771D01*
X111407418Y-75694600D01*
X111652582Y-75694600D01*
X111893036Y-75646771D01*
X111974576Y-75612996D01*
X115513579Y-79152000D01*
X114180420Y-79152000D01*
X111118481Y-76090061D01*
X111120457Y-76070000D01*
X111115178Y-76016405D01*
X111110649Y-75970415D01*
X111081601Y-75874657D01*
X111056876Y-75828400D01*
X111034429Y-75786404D01*
X110986850Y-75728429D01*
X110970948Y-75709052D01*
X110951571Y-75693150D01*
X110152996Y-74894576D01*
X110186771Y-74813036D01*
X110234600Y-74572582D01*
X110234600Y-74327418D01*
X110186771Y-74086964D01*
X110092950Y-73860461D01*
X109956744Y-73656614D01*
X109783386Y-73483256D01*
X109579539Y-73347050D01*
X109353036Y-73253229D01*
X109112582Y-73205400D01*
X108867418Y-73205400D01*
X108626964Y-73253229D01*
X108400461Y-73347050D01*
X108196614Y-73483256D01*
X108023256Y-73656614D01*
X107887050Y-73860461D01*
X107793229Y-74086964D01*
X107745400Y-74327418D01*
X107696443Y-74327418D01*
X107696443Y-73586400D01*
X107689087Y-73511711D01*
X107667301Y-73439892D01*
X107631922Y-73373704D01*
X107584311Y-73315689D01*
X107526296Y-73268078D01*
X107460108Y-73232699D01*
X107388289Y-73210913D01*
X107313600Y-73203557D01*
X105586400Y-73203557D01*
X105511711Y-73210913D01*
X105439892Y-73232699D01*
X105373704Y-73268078D01*
X105315689Y-73315689D01*
X105268078Y-73373704D01*
X105232699Y-73439892D01*
X105210913Y-73511711D01*
X105203557Y-73586400D01*
X104646000Y-73586400D01*
X104646000Y-71787418D01*
X105205400Y-71787418D01*
X105205400Y-72032582D01*
X105253229Y-72273036D01*
X105347050Y-72499539D01*
X105483256Y-72703386D01*
X105656614Y-72876744D01*
X105860461Y-73012950D01*
X106086964Y-73106771D01*
X106327418Y-73154600D01*
X106572582Y-73154600D01*
X106813036Y-73106771D01*
X107039539Y-73012950D01*
X107243386Y-72876744D01*
X107416744Y-72703386D01*
X107552950Y-72499539D01*
X107646771Y-72273036D01*
X107694600Y-72032582D01*
X107694600Y-71787418D01*
X107745400Y-71787418D01*
X107745400Y-72032582D01*
X107793229Y-72273036D01*
X107887050Y-72499539D01*
X108023256Y-72703386D01*
X108196614Y-72876744D01*
X108400461Y-73012950D01*
X108626964Y-73106771D01*
X108867418Y-73154600D01*
X109112582Y-73154600D01*
X109353036Y-73106771D01*
X109579539Y-73012950D01*
X109783386Y-72876744D01*
X109956744Y-72703386D01*
X110092950Y-72499539D01*
X110186771Y-72273036D01*
X110234600Y-72032582D01*
X110234600Y-71787418D01*
X112825400Y-71787418D01*
X112825400Y-72032582D01*
X112873229Y-72273036D01*
X112967050Y-72499539D01*
X113103256Y-72703386D01*
X113276614Y-72876744D01*
X113480461Y-73012950D01*
X113706964Y-73106771D01*
X113947418Y-73154600D01*
X114192582Y-73154600D01*
X114433036Y-73106771D01*
X114659539Y-73012950D01*
X114863386Y-72876744D01*
X115036744Y-72703386D01*
X115172950Y-72499539D01*
X115266771Y-72273036D01*
X115314600Y-72032582D01*
X115314600Y-71787418D01*
X115365400Y-71787418D01*
X115365400Y-72032582D01*
X115413229Y-72273036D01*
X115507050Y-72499539D01*
X115643256Y-72703386D01*
X115816614Y-72876744D01*
X116020461Y-73012950D01*
X116246964Y-73106771D01*
X116487418Y-73154600D01*
X116732582Y-73154600D01*
X116973036Y-73106771D01*
X117199539Y-73012950D01*
X117403386Y-72876744D01*
X117576744Y-72703386D01*
X117712950Y-72499539D01*
X117806771Y-72273036D01*
X117854600Y-72032582D01*
X117854600Y-71787418D01*
X117905400Y-71787418D01*
X117905400Y-72032582D01*
X117953229Y-72273036D01*
X118047050Y-72499539D01*
X118183256Y-72703386D01*
X118356614Y-72876744D01*
X118560461Y-73012950D01*
X118786964Y-73106771D01*
X119027418Y-73154600D01*
X119272582Y-73154600D01*
X119513036Y-73106771D01*
X119739539Y-73012950D01*
X119943386Y-72876744D01*
X120116744Y-72703386D01*
X120252950Y-72499539D01*
X120346771Y-72273036D01*
X120394600Y-72032582D01*
X120394600Y-71787418D01*
X122985400Y-71787418D01*
X122985400Y-72032582D01*
X123033229Y-72273036D01*
X123127050Y-72499539D01*
X123263256Y-72703386D01*
X123436614Y-72876744D01*
X123640461Y-73012950D01*
X123866964Y-73106771D01*
X124107418Y-73154600D01*
X124352582Y-73154600D01*
X124593036Y-73106771D01*
X124819539Y-73012950D01*
X125023386Y-72876744D01*
X125196744Y-72703386D01*
X125332950Y-72499539D01*
X125426771Y-72273036D01*
X125474600Y-72032582D01*
X125474600Y-71787418D01*
X125525400Y-71787418D01*
X125525400Y-72032582D01*
X125573229Y-72273036D01*
X125667050Y-72499539D01*
X125803256Y-72703386D01*
X125976614Y-72876744D01*
X126180461Y-73012950D01*
X126406964Y-73106771D01*
X126647418Y-73154600D01*
X126892582Y-73154600D01*
X127133036Y-73106771D01*
X127359539Y-73012950D01*
X127563386Y-72876744D01*
X127736744Y-72703386D01*
X127872950Y-72499539D01*
X127966771Y-72273036D01*
X128014600Y-72032582D01*
X128014600Y-71787418D01*
X130605400Y-71787418D01*
X130605400Y-72032582D01*
X130653229Y-72273036D01*
X130747050Y-72499539D01*
X130883256Y-72703386D01*
X131056614Y-72876744D01*
X131260461Y-73012950D01*
X131486964Y-73106771D01*
X131727418Y-73154600D01*
X131972582Y-73154600D01*
X132213036Y-73106771D01*
X132439539Y-73012950D01*
X132643386Y-72876744D01*
X132816744Y-72703386D01*
X132952950Y-72499539D01*
X133046771Y-72273036D01*
X133094600Y-72032582D01*
X133094600Y-71787418D01*
X133145400Y-71787418D01*
X133145400Y-72032582D01*
X133193229Y-72273036D01*
X133287050Y-72499539D01*
X133423256Y-72703386D01*
X133596614Y-72876744D01*
X133800461Y-73012950D01*
X134026964Y-73106771D01*
X134267418Y-73154600D01*
X134512582Y-73154600D01*
X134753036Y-73106771D01*
X134979539Y-73012950D01*
X135183386Y-72876744D01*
X135356744Y-72703386D01*
X135492950Y-72499539D01*
X135586771Y-72273036D01*
X135634600Y-72032582D01*
X135634600Y-71787418D01*
X135685400Y-71787418D01*
X135685400Y-72032582D01*
X135733229Y-72273036D01*
X135827050Y-72499539D01*
X135963256Y-72703386D01*
X136136614Y-72876744D01*
X136340461Y-73012950D01*
X136566964Y-73106771D01*
X136807418Y-73154600D01*
X137052582Y-73154600D01*
X137293036Y-73106771D01*
X137519539Y-73012950D01*
X137723386Y-72876744D01*
X137896744Y-72703386D01*
X138032950Y-72499539D01*
X138126771Y-72273036D01*
X138174600Y-72032582D01*
X138174600Y-71787418D01*
X138126771Y-71546964D01*
X138032950Y-71320461D01*
X137896744Y-71116614D01*
X137723386Y-70943256D01*
X137519539Y-70807050D01*
X137293036Y-70713229D01*
X137052582Y-70665400D01*
X136807418Y-70665400D01*
X136566964Y-70713229D01*
X136340461Y-70807050D01*
X136136614Y-70943256D01*
X135963256Y-71116614D01*
X135827050Y-71320461D01*
X135733229Y-71546964D01*
X135685400Y-71787418D01*
X135634600Y-71787418D01*
X135586771Y-71546964D01*
X135492950Y-71320461D01*
X135356744Y-71116614D01*
X135183386Y-70943256D01*
X134979539Y-70807050D01*
X134753036Y-70713229D01*
X134512582Y-70665400D01*
X134267418Y-70665400D01*
X134026964Y-70713229D01*
X133800461Y-70807050D01*
X133596614Y-70943256D01*
X133423256Y-71116614D01*
X133287050Y-71320461D01*
X133193229Y-71546964D01*
X133145400Y-71787418D01*
X133094600Y-71787418D01*
X133046771Y-71546964D01*
X132952950Y-71320461D01*
X132816744Y-71116614D01*
X132643386Y-70943256D01*
X132439539Y-70807050D01*
X132213036Y-70713229D01*
X131972582Y-70665400D01*
X131727418Y-70665400D01*
X131486964Y-70713229D01*
X131260461Y-70807050D01*
X131056614Y-70943256D01*
X130883256Y-71116614D01*
X130747050Y-71320461D01*
X130653229Y-71546964D01*
X130605400Y-71787418D01*
X128014600Y-71787418D01*
X127966771Y-71546964D01*
X127872950Y-71320461D01*
X127736744Y-71116614D01*
X127563386Y-70943256D01*
X127359539Y-70807050D01*
X127133036Y-70713229D01*
X126892582Y-70665400D01*
X126647418Y-70665400D01*
X126406964Y-70713229D01*
X126180461Y-70807050D01*
X125976614Y-70943256D01*
X125803256Y-71116614D01*
X125667050Y-71320461D01*
X125573229Y-71546964D01*
X125525400Y-71787418D01*
X125474600Y-71787418D01*
X125426771Y-71546964D01*
X125332950Y-71320461D01*
X125196744Y-71116614D01*
X125023386Y-70943256D01*
X124819539Y-70807050D01*
X124593036Y-70713229D01*
X124352582Y-70665400D01*
X124107418Y-70665400D01*
X123866964Y-70713229D01*
X123640461Y-70807050D01*
X123436614Y-70943256D01*
X123263256Y-71116614D01*
X123127050Y-71320461D01*
X123033229Y-71546964D01*
X122985400Y-71787418D01*
X120394600Y-71787418D01*
X120346771Y-71546964D01*
X120252950Y-71320461D01*
X120116744Y-71116614D01*
X119943386Y-70943256D01*
X119739539Y-70807050D01*
X119513036Y-70713229D01*
X119272582Y-70665400D01*
X119027418Y-70665400D01*
X118786964Y-70713229D01*
X118560461Y-70807050D01*
X118356614Y-70943256D01*
X118183256Y-71116614D01*
X118047050Y-71320461D01*
X117953229Y-71546964D01*
X117905400Y-71787418D01*
X117854600Y-71787418D01*
X117806771Y-71546964D01*
X117712950Y-71320461D01*
X117576744Y-71116614D01*
X117403386Y-70943256D01*
X117199539Y-70807050D01*
X116973036Y-70713229D01*
X116732582Y-70665400D01*
X116487418Y-70665400D01*
X116246964Y-70713229D01*
X116020461Y-70807050D01*
X115816614Y-70943256D01*
X115643256Y-71116614D01*
X115507050Y-71320461D01*
X115413229Y-71546964D01*
X115365400Y-71787418D01*
X115314600Y-71787418D01*
X115266771Y-71546964D01*
X115172950Y-71320461D01*
X115036744Y-71116614D01*
X114863386Y-70943256D01*
X114659539Y-70807050D01*
X114433036Y-70713229D01*
X114192582Y-70665400D01*
X113947418Y-70665400D01*
X113706964Y-70713229D01*
X113480461Y-70807050D01*
X113276614Y-70943256D01*
X113103256Y-71116614D01*
X112967050Y-71320461D01*
X112873229Y-71546964D01*
X112825400Y-71787418D01*
X110234600Y-71787418D01*
X110186771Y-71546964D01*
X110092950Y-71320461D01*
X109956744Y-71116614D01*
X109783386Y-70943256D01*
X109579539Y-70807050D01*
X109353036Y-70713229D01*
X109112582Y-70665400D01*
X108867418Y-70665400D01*
X108626964Y-70713229D01*
X108400461Y-70807050D01*
X108196614Y-70943256D01*
X108023256Y-71116614D01*
X107887050Y-71320461D01*
X107793229Y-71546964D01*
X107745400Y-71787418D01*
X107694600Y-71787418D01*
X107646771Y-71546964D01*
X107552950Y-71320461D01*
X107416744Y-71116614D01*
X107243386Y-70943256D01*
X107039539Y-70807050D01*
X106813036Y-70713229D01*
X106572582Y-70665400D01*
X106327418Y-70665400D01*
X106086964Y-70713229D01*
X105860461Y-70807050D01*
X105656614Y-70943256D01*
X105483256Y-71116614D01*
X105347050Y-71320461D01*
X105253229Y-71546964D01*
X105205400Y-71787418D01*
X104646000Y-71787418D01*
X104646000Y-69626000D01*
X142724001Y-69626000D01*
X142724000Y-83137601D01*
G37*
%TD.AperFunction*%
%TD*%
M02*
