%TF.GenerationSoftware,KiCad,Pcbnew,(5.99.0-9004-gab34d94f36)*%
%TF.CreationDate,2021-02-18T22:09:59+01:00*%
%TF.ProjectId,pi-hat-lorawan-gateway-minipci,70692d68-6174-42d6-9c6f-726177616e2d,rev?*%
%TF.SameCoordinates,PX88da2e0PYac9d740*%
%TF.FileFunction,Copper,L2,Bot*%
%TF.FilePolarity,Positive*%
%FSLAX46Y46*%
G04 Gerber Fmt 4.6, Leading zero omitted, Abs format (unit mm)*
G04 Created by KiCad (PCBNEW (5.99.0-9004-gab34d94f36)) date 2021-02-18 22:09:59*
%MOMM*%
%LPD*%
G01*
G04 APERTURE LIST*
%TA.AperFunction,ComponentPad*%
%ADD10R,1.727200X1.727200*%
%TD*%
%TA.AperFunction,ComponentPad*%
%ADD11O,1.727200X1.727200*%
%TD*%
%TA.AperFunction,ViaPad*%
%ADD12C,0.800000*%
%TD*%
%TA.AperFunction,Conductor*%
%ADD13C,0.254000*%
%TD*%
G04 APERTURE END LIST*
D10*
%TO.P,Con1,1,1*%
%TO.N,3V3*%
X-37050000Y106550000D03*
D11*
%TO.P,Con1,2,2*%
%TO.N,5V*%
X-37050000Y109090000D03*
%TO.P,Con1,3,3*%
%TO.N,/GPIO0(SDA)*%
X-34510000Y106550000D03*
%TO.P,Con1,4,4*%
%TO.N,5V*%
X-34510000Y109090000D03*
%TO.P,Con1,5,5*%
%TO.N,/GPIO1(SCL)*%
X-31970000Y106550000D03*
%TO.P,Con1,6,6*%
%TO.N,GND*%
X-31970000Y109090000D03*
%TO.P,Con1,7,7*%
%TO.N,N/C*%
X-29430000Y106550000D03*
%TO.P,Con1,8,8*%
X-29430000Y109090000D03*
%TO.P,Con1,9,9*%
%TO.N,GND*%
X-26890000Y106550000D03*
%TO.P,Con1,10,10*%
%TO.N,N/C*%
X-26890000Y109090000D03*
%TO.P,Con1,11,11*%
X-24350000Y106550000D03*
%TO.P,Con1,12,12*%
X-24350000Y109090000D03*
%TO.P,Con1,13,13*%
X-21810000Y106550000D03*
%TO.P,Con1,14,14*%
%TO.N,GND*%
X-21810000Y109090000D03*
%TO.P,Con1,15,15*%
%TO.N,N/C*%
X-19270000Y106550000D03*
%TO.P,Con1,16,16*%
%TO.N,/GPIO23*%
X-19270000Y109090000D03*
%TO.P,Con1,17,17*%
%TO.N,3V3*%
X-16730000Y106550000D03*
%TO.P,Con1,18,18*%
%TO.N,N/C*%
X-16730000Y109090000D03*
%TO.P,Con1,19,19*%
%TO.N,/GPIO10(MOSI)*%
X-14190000Y106550000D03*
%TO.P,Con1,20,20*%
%TO.N,GND*%
X-14190000Y109090000D03*
%TO.P,Con1,21,21*%
%TO.N,/GPIO9(MISO)*%
X-11650000Y106550000D03*
%TO.P,Con1,22,22*%
%TO.N,/GPIO25*%
X-11650000Y109090000D03*
%TO.P,Con1,23,23*%
%TO.N,/GPIO11(SCLK)*%
X-9110000Y106550000D03*
%TO.P,Con1,24,24*%
%TO.N,/GPIO8(CE0)*%
X-9110000Y109090000D03*
%TO.P,Con1,25,25*%
%TO.N,GND*%
X-6570000Y106550000D03*
%TO.P,Con1,26,26*%
%TO.N,N/C*%
X-6570000Y109090000D03*
%TD*%
D12*
%TO.N,GND*%
X-30190000Y95610000D03*
X-31110000Y96640000D03*
X-27490000Y65560000D03*
X-22760000Y67040000D03*
X-22140000Y65770000D03*
X-22670000Y73170000D03*
X-22520000Y75760000D03*
X-22320000Y78330000D03*
X-15680000Y88980000D03*
X-23150000Y83860000D03*
X-21840000Y85280000D03*
X-21100000Y88350000D03*
X-29490000Y101670000D03*
X-28900000Y97280000D03*
X-31730000Y90370000D03*
X-34250000Y83900000D03*
X-28720000Y86700000D03*
X-29100000Y88350000D03*
X-21740000Y68390000D03*
X-12960000Y92170000D03*
X-13380000Y86530000D03*
X-8630000Y89220000D03*
X-8780000Y96940000D03*
X-19350000Y95990000D03*
%TO.N,/GPIO11(SCLK)*%
X-17890000Y70240000D03*
X-31880000Y70990000D03*
%TO.N,/GPIO8(CE0)*%
X-30830000Y68380000D03*
X-18620000Y69410000D03*
%TO.N,/GPIO9(MISO)*%
X-19420000Y70270000D03*
X-30755595Y70372929D03*
%TO.N,/GPIO10(MOSI)*%
X-20487506Y70145655D03*
X-29840000Y69800000D03*
%TO.N,GND*%
X-27420000Y81590000D03*
X-31500224Y75500211D03*
X-14047010Y99047681D03*
X-30920000Y79040000D03*
X-23110000Y90010000D03*
X-19930000Y103080000D03*
X-23250000Y96700000D03*
X-21730000Y99710000D03*
X-18970000Y103840000D03*
X-16450000Y93140000D03*
X-26030000Y103220000D03*
X-24980000Y104130000D03*
X-22260000Y93780000D03*
X-30990000Y76790000D03*
X-29140000Y93760000D03*
%TD*%
D13*
%TO.N,/GPIO11(SCLK)*%
X-17890000Y70240000D02*
X-18340000Y70240000D01*
X-31140000Y70990000D02*
X-31880000Y70990000D01*
X-18340000Y70240000D02*
X-19580000Y71480000D01*
X-19580000Y71480000D02*
X-30650000Y71480000D01*
X-30650000Y71480000D02*
X-31140000Y70990000D01*
%TO.N,/GPIO9(MISO)*%
X-19420000Y70270000D02*
X-20100000Y70950000D01*
X-20100000Y70950000D02*
X-29860000Y70950000D01*
X-29860000Y70950000D02*
X-30437071Y70372929D01*
X-30437071Y70372929D02*
X-30755595Y70372929D01*
%TO.N,/GPIO8(CE0)*%
X-30830000Y68380000D02*
X-30120000Y68380000D01*
X-30120000Y68380000D02*
X-28670000Y69830000D01*
X-28670000Y69830000D02*
X-21200000Y69830000D01*
X-21200000Y69830000D02*
X-20780000Y69410000D01*
X-20780000Y69410000D02*
X-18620000Y69410000D01*
%TO.N,/GPIO10(MOSI)*%
X-20751851Y70410000D02*
X-20487506Y70145655D01*
X-29840000Y69800000D02*
X-29230000Y70410000D01*
X-29230000Y70410000D02*
X-20751851Y70410000D01*
%TO.N,/GPIO9(MISO)*%
X-11670000Y106530000D02*
X-11650000Y106550000D01*
%TD*%
%TA.AperFunction,Conductor*%
%TO.N,GND*%
G36*
X13929382Y111579555D02*
G01*
X15139618Y111578405D01*
X17290122Y111576361D01*
X17358221Y111556294D01*
X17404663Y111502594D01*
X17416000Y111450361D01*
X17416000Y98867547D01*
X17413579Y98842967D01*
X17411000Y98830000D01*
X17416000Y98804863D01*
X17430715Y98730885D01*
X17437609Y98720567D01*
X17437610Y98720565D01*
X17479966Y98657175D01*
X17486859Y98646859D01*
X17497175Y98639966D01*
X17560565Y98597610D01*
X17560567Y98597609D01*
X17570885Y98590715D01*
X17670000Y98571000D01*
X17682171Y98573421D01*
X17682173Y98573421D01*
X17682967Y98573579D01*
X17707547Y98576000D01*
X31642453Y98576000D01*
X31667033Y98573579D01*
X31667827Y98573421D01*
X31667829Y98573421D01*
X31680000Y98571000D01*
X31779115Y98590715D01*
X31789433Y98597609D01*
X31789435Y98597610D01*
X31852825Y98639966D01*
X31863141Y98646859D01*
X31870034Y98657175D01*
X31912390Y98720565D01*
X31912391Y98720567D01*
X31919285Y98730885D01*
X31934000Y98804863D01*
X31939000Y98830000D01*
X31936421Y98842967D01*
X31934000Y98867547D01*
X31934000Y111450000D01*
X31954002Y111518121D01*
X32007658Y111564614D01*
X32060000Y111576000D01*
X45310000Y111576000D01*
X45378121Y111555998D01*
X45424614Y111502342D01*
X45436000Y111450000D01*
X45436000Y95210000D01*
X45415998Y95141879D01*
X45362342Y95095386D01*
X45310000Y95084000D01*
X34727547Y95084000D01*
X34702967Y95086421D01*
X34702173Y95086579D01*
X34702171Y95086579D01*
X34690000Y95089000D01*
X34664863Y95084000D01*
X34590885Y95069285D01*
X34580567Y95062391D01*
X34580565Y95062390D01*
X34517175Y95020034D01*
X34506859Y95013141D01*
X34499966Y95002825D01*
X34457610Y94939435D01*
X34457609Y94939433D01*
X34450715Y94929115D01*
X34431000Y94830000D01*
X34433421Y94817829D01*
X34433421Y94817827D01*
X34433579Y94817033D01*
X34436000Y94792453D01*
X34436000Y79337547D01*
X34433579Y79312967D01*
X34431000Y79300000D01*
X34436000Y79274863D01*
X34450715Y79200885D01*
X34457609Y79190567D01*
X34457610Y79190565D01*
X34499966Y79127175D01*
X34506859Y79116859D01*
X34517175Y79109966D01*
X34580565Y79067610D01*
X34580567Y79067609D01*
X34590885Y79060715D01*
X34690000Y79041000D01*
X34702171Y79043421D01*
X34702173Y79043421D01*
X34702967Y79043579D01*
X34727547Y79046000D01*
X45310000Y79046000D01*
X45378121Y79025998D01*
X45424614Y78972342D01*
X45436000Y78920000D01*
X45436000Y75210000D01*
X45415998Y75141879D01*
X45362342Y75095386D01*
X45310000Y75084000D01*
X24727547Y75084000D01*
X24702967Y75086421D01*
X24702173Y75086579D01*
X24702171Y75086579D01*
X24690000Y75089000D01*
X24664863Y75084000D01*
X24590885Y75069285D01*
X24580567Y75062391D01*
X24580565Y75062390D01*
X24517175Y75020034D01*
X24506859Y75013141D01*
X24499966Y75002825D01*
X24457610Y74939435D01*
X24457609Y74939433D01*
X24450715Y74929115D01*
X24431000Y74830000D01*
X24433421Y74817829D01*
X24433421Y74817827D01*
X24433579Y74817033D01*
X24436000Y74792453D01*
X24436000Y56210000D01*
X24415998Y56141879D01*
X24362342Y56095386D01*
X24310000Y56084000D01*
X-38930000Y56084000D01*
X-38998121Y56104002D01*
X-39044614Y56157658D01*
X-39056000Y56210000D01*
X-39056000Y71072657D01*
X-32534300Y71072657D01*
X-32534300Y70907343D01*
X-32493188Y70747222D01*
X-32413547Y70602356D01*
X-32408123Y70596580D01*
X-32353620Y70538541D01*
X-32300381Y70481847D01*
X-32160801Y70393267D01*
X-32153262Y70390817D01*
X-32153259Y70390816D01*
X-32011116Y70344631D01*
X-32011114Y70344631D01*
X-32003578Y70342182D01*
X-31995669Y70341684D01*
X-31995667Y70341684D01*
X-31921084Y70336991D01*
X-31838590Y70331801D01*
X-31830806Y70333286D01*
X-31830804Y70333286D01*
X-31683987Y70361293D01*
X-31683986Y70361293D01*
X-31676203Y70362778D01*
X-31589456Y70403598D01*
X-31519304Y70414504D01*
X-31454391Y70385752D01*
X-31415327Y70326468D01*
X-31410803Y70305384D01*
X-31409895Y70298199D01*
X-31409895Y70290272D01*
X-31368783Y70130151D01*
X-31289142Y69985285D01*
X-31175976Y69864776D01*
X-31036396Y69776196D01*
X-31028857Y69773746D01*
X-31028854Y69773745D01*
X-30886711Y69727560D01*
X-30886709Y69727560D01*
X-30879173Y69725111D01*
X-30871264Y69724613D01*
X-30871262Y69724613D01*
X-30796679Y69719921D01*
X-30714185Y69714730D01*
X-30620152Y69732668D01*
X-30549491Y69725785D01*
X-30493768Y69681792D01*
X-30474503Y69640240D01*
X-30453188Y69557222D01*
X-30373547Y69412356D01*
X-30260381Y69291847D01*
X-30120801Y69203267D01*
X-30101586Y69197024D01*
X-30042981Y69156952D01*
X-30015344Y69091556D01*
X-30027449Y69021599D01*
X-30051427Y68988096D01*
X-30190911Y68848612D01*
X-30253223Y68814586D01*
X-30324038Y68819651D01*
X-30360321Y68840622D01*
X-30470513Y68931781D01*
X-30470517Y68931784D01*
X-30476622Y68936834D01*
X-30626203Y69007222D01*
X-30633986Y69008707D01*
X-30633987Y69008707D01*
X-30780804Y69036714D01*
X-30780806Y69036714D01*
X-30788590Y69038199D01*
X-30871084Y69033008D01*
X-30945667Y69028316D01*
X-30945669Y69028316D01*
X-30953578Y69027818D01*
X-30961114Y69025369D01*
X-30961116Y69025369D01*
X-31103259Y68979184D01*
X-31103262Y68979183D01*
X-31110801Y68976733D01*
X-31250381Y68888153D01*
X-31255808Y68882374D01*
X-31255809Y68882373D01*
X-31314709Y68819651D01*
X-31363547Y68767644D01*
X-31443188Y68622778D01*
X-31484300Y68462657D01*
X-31484300Y68297343D01*
X-31443188Y68137222D01*
X-31363547Y67992356D01*
X-31358123Y67986580D01*
X-31303620Y67928541D01*
X-31250381Y67871847D01*
X-31110801Y67783267D01*
X-31103262Y67780817D01*
X-31103259Y67780816D01*
X-30961116Y67734631D01*
X-30961114Y67734631D01*
X-30953578Y67732182D01*
X-30945669Y67731684D01*
X-30945667Y67731684D01*
X-30871084Y67726992D01*
X-30788590Y67721801D01*
X-30780806Y67723286D01*
X-30780804Y67723286D01*
X-30633990Y67751292D01*
X-30633986Y67751293D01*
X-30626203Y67752778D01*
X-30619030Y67756153D01*
X-30618425Y67756350D01*
X-30547458Y67758378D01*
X-30486660Y67721715D01*
X-30455334Y67658003D01*
X-30461088Y67593423D01*
X-30514392Y67446971D01*
X-30514393Y67446966D01*
X-30516802Y67440348D01*
X-30539421Y67261302D01*
X-30521810Y67081695D01*
X-30519586Y67075010D01*
X-30519586Y67075009D01*
X-30508639Y67042100D01*
X-30464846Y66910454D01*
X-30461199Y66904432D01*
X-30461198Y66904430D01*
X-30442833Y66874107D01*
X-30371358Y66756087D01*
X-30245995Y66626270D01*
X-30094985Y66527452D01*
X-29925836Y66464546D01*
X-29918855Y66463615D01*
X-29918853Y66463614D01*
X-29753934Y66441609D01*
X-29753930Y66441609D01*
X-29746953Y66440678D01*
X-29739942Y66441316D01*
X-29739938Y66441316D01*
X-29574248Y66456395D01*
X-29567227Y66457034D01*
X-29417302Y66505748D01*
X-29402292Y66510625D01*
X-29395592Y66512802D01*
X-29364541Y66531312D01*
X-29246629Y66601601D01*
X-29246627Y66601602D01*
X-29240577Y66605209D01*
X-29109887Y66729663D01*
X-29044044Y66828764D01*
X-29013918Y66874107D01*
X-29013917Y66874109D01*
X-29010017Y66879979D01*
X-28945932Y67048686D01*
X-28920816Y67227397D01*
X-28920500Y67250000D01*
X-28940617Y67429344D01*
X-28977831Y67536208D01*
X-28979575Y67541215D01*
X16764299Y67541215D01*
X16801704Y67293887D01*
X16803253Y67289063D01*
X16803254Y67289058D01*
X16814417Y67254290D01*
X16878170Y67055721D01*
X16880468Y67051211D01*
X16880470Y67051206D01*
X16885110Y67042100D01*
X16991732Y66832844D01*
X17139466Y66630991D01*
X17317573Y66455354D01*
X17321698Y66452422D01*
X17321701Y66452420D01*
X17336914Y66441609D01*
X17521469Y66310452D01*
X17745910Y66200014D01*
X17750749Y66198535D01*
X17750753Y66198533D01*
X17980272Y66128362D01*
X17980274Y66128362D01*
X17985120Y66126880D01*
X17990141Y66126192D01*
X17990142Y66126192D01*
X18227923Y66093620D01*
X18232946Y66092932D01*
X18305588Y66094707D01*
X18477951Y66098919D01*
X18477955Y66098919D01*
X18483012Y66099043D01*
X18728884Y66145057D01*
X18964236Y66229789D01*
X19183014Y66351059D01*
X19186992Y66354189D01*
X19186996Y66354192D01*
X19375613Y66502619D01*
X19375614Y66502620D01*
X19379589Y66505748D01*
X19548903Y66689876D01*
X19686600Y66898705D01*
X19754005Y67048686D01*
X19787065Y67122247D01*
X19787067Y67122253D01*
X19789139Y67126863D01*
X19790447Y67131744D01*
X19790449Y67131750D01*
X19852572Y67363598D01*
X19852572Y67363599D01*
X19853880Y67368480D01*
X19879158Y67617340D01*
X19879500Y67650000D01*
X19871231Y67752778D01*
X19859845Y67894294D01*
X19859844Y67894299D01*
X19859439Y67899335D01*
X19852266Y67928541D01*
X19800979Y68137341D01*
X19799772Y68142255D01*
X19749035Y68261785D01*
X19704011Y68367853D01*
X19704010Y68367855D01*
X19702034Y68372510D01*
X19568741Y68584177D01*
X19403320Y68771810D01*
X19210028Y68930582D01*
X19045144Y69026547D01*
X18998206Y69053866D01*
X18998204Y69053867D01*
X18993838Y69056408D01*
X18984673Y69059926D01*
X18765036Y69144237D01*
X18765032Y69144238D01*
X18760312Y69146050D01*
X18755362Y69147084D01*
X18755359Y69147085D01*
X18520408Y69196169D01*
X18520404Y69196169D01*
X18515457Y69197203D01*
X18265574Y69208550D01*
X18260554Y69207969D01*
X18260550Y69207969D01*
X18022122Y69180382D01*
X18017092Y69179800D01*
X18012221Y69178422D01*
X18012218Y69178421D01*
X17919493Y69152182D01*
X17776402Y69111691D01*
X17549698Y69005977D01*
X17545518Y69003136D01*
X17545514Y69003134D01*
X17347003Y68868227D01*
X17342811Y68865378D01*
X17339134Y68861901D01*
X17339128Y68861896D01*
X17180095Y68711504D01*
X17161066Y68693509D01*
X17009136Y68494794D01*
X16890932Y68274344D01*
X16809495Y68037832D01*
X16808634Y68032849D01*
X16808633Y68032844D01*
X16786420Y67904246D01*
X16766918Y67791342D01*
X16764299Y67541215D01*
X-28979575Y67541215D01*
X-28997648Y67593115D01*
X-28997650Y67593118D01*
X-28999967Y67599773D01*
X-29095600Y67752819D01*
X-29104347Y67761628D01*
X-29165458Y67823166D01*
X-29222764Y67880874D01*
X-29243910Y67894294D01*
X-29297875Y67928541D01*
X-29375139Y67977574D01*
X-29462961Y68008846D01*
X-29538515Y68035750D01*
X-29538520Y68035751D01*
X-29545150Y68038112D01*
X-29552138Y68038945D01*
X-29552141Y68038946D01*
X-29624516Y68047576D01*
X-29689789Y68075504D01*
X-29729602Y68134287D01*
X-29731314Y68205263D01*
X-29698692Y68261785D01*
X-28548882Y69411595D01*
X-28486570Y69445621D01*
X-28459787Y69448500D01*
X-21410213Y69448500D01*
X-21342092Y69428498D01*
X-21321118Y69411595D01*
X-21087130Y69177607D01*
X-21074068Y69161434D01*
X-21071515Y69158629D01*
X-21065867Y69149881D01*
X-21057692Y69143436D01*
X-21057690Y69143434D01*
X-21041161Y69130404D01*
X-21036194Y69125990D01*
X-21036159Y69126031D01*
X-21032195Y69122672D01*
X-21028520Y69118997D01*
X-21024295Y69115977D01*
X-21024293Y69115976D01*
X-21011394Y69106758D01*
X-21006648Y69103195D01*
X-20974377Y69077754D01*
X-20974374Y69077752D01*
X-20966198Y69071307D01*
X-20957518Y69068259D01*
X-20950036Y69062912D01*
X-20940056Y69059927D01*
X-20940053Y69059926D01*
X-20900692Y69048155D01*
X-20895044Y69046320D01*
X-20853930Y69031881D01*
X-20853926Y69031880D01*
X-20846451Y69029255D01*
X-20837733Y69028500D01*
X-20834992Y69028500D01*
X-20834967Y69028499D01*
X-20828441Y69026547D01*
X-20781205Y69028403D01*
X-20776259Y69028500D01*
X-19213842Y69028500D01*
X-19145721Y69008498D01*
X-19121992Y68988753D01*
X-19073236Y68936834D01*
X-19040381Y68901847D01*
X-18900801Y68813267D01*
X-18893262Y68810817D01*
X-18893259Y68810816D01*
X-18751116Y68764631D01*
X-18751114Y68764631D01*
X-18743578Y68762182D01*
X-18735669Y68761684D01*
X-18735667Y68761684D01*
X-18661084Y68756991D01*
X-18578590Y68751801D01*
X-18570806Y68753286D01*
X-18570804Y68753286D01*
X-18423987Y68781293D01*
X-18423986Y68781293D01*
X-18416203Y68782778D01*
X-18266622Y68853166D01*
X-18260517Y68858216D01*
X-18260513Y68858219D01*
X-18145353Y68953488D01*
X-18139245Y68958541D01*
X-18088912Y69027818D01*
X-18046735Y69085870D01*
X-18046734Y69085872D01*
X-18042076Y69092283D01*
X-18037755Y69103195D01*
X-17984136Y69238621D01*
X-17984136Y69238623D01*
X-17981219Y69245989D01*
X-17975962Y69287598D01*
X-17961494Y69402132D01*
X-17960500Y69410000D01*
X-17964458Y69441331D01*
X-17953152Y69511422D01*
X-17905746Y69564273D01*
X-17850377Y69581913D01*
X-17848590Y69581801D01*
X-17727886Y69604827D01*
X-17693987Y69611293D01*
X-17693986Y69611293D01*
X-17686203Y69612778D01*
X-17536622Y69683166D01*
X-17530517Y69688216D01*
X-17530513Y69688219D01*
X-17415353Y69783488D01*
X-17409245Y69788541D01*
X-17349658Y69870556D01*
X-17316735Y69915870D01*
X-17316734Y69915872D01*
X-17312076Y69922283D01*
X-17287131Y69985285D01*
X-17254136Y70068621D01*
X-17254136Y70068623D01*
X-17251219Y70075989D01*
X-17243406Y70137832D01*
X-17231494Y70232132D01*
X-17230500Y70240000D01*
X-17242160Y70332299D01*
X-17250225Y70396146D01*
X-17250226Y70396149D01*
X-17251219Y70404011D01*
X-17254136Y70411379D01*
X-17309158Y70550348D01*
X-17309159Y70550350D01*
X-17312076Y70557717D01*
X-17340311Y70596580D01*
X-17404585Y70685045D01*
X-17409245Y70691459D01*
X-17415353Y70696512D01*
X-17530513Y70791781D01*
X-17530517Y70791784D01*
X-17536622Y70796834D01*
X-17686203Y70867222D01*
X-17693986Y70868707D01*
X-17693987Y70868707D01*
X-17840804Y70896714D01*
X-17840806Y70896714D01*
X-17848590Y70898199D01*
X-17931084Y70893009D01*
X-18005667Y70888316D01*
X-18005669Y70888316D01*
X-18013578Y70887818D01*
X-18021114Y70885369D01*
X-18021116Y70885369D01*
X-18163259Y70839184D01*
X-18163262Y70839183D01*
X-18170801Y70836733D01*
X-18177496Y70832484D01*
X-18224081Y70802921D01*
X-18292315Y70783309D01*
X-18360320Y70803701D01*
X-18380689Y70820212D01*
X-19272870Y71712393D01*
X-19285932Y71728566D01*
X-19288485Y71731371D01*
X-19294133Y71740119D01*
X-19302308Y71746564D01*
X-19302310Y71746566D01*
X-19318839Y71759596D01*
X-19323805Y71764009D01*
X-19323840Y71763968D01*
X-19327803Y71767326D01*
X-19331480Y71771003D01*
X-19348630Y71783258D01*
X-19353353Y71786804D01*
X-19353975Y71787295D01*
X-19369643Y71799647D01*
X-19385625Y71812247D01*
X-19385627Y71812248D01*
X-19393802Y71818693D01*
X-19402480Y71821740D01*
X-19409963Y71827088D01*
X-19419941Y71830072D01*
X-19419945Y71830074D01*
X-19459306Y71841845D01*
X-19464954Y71843680D01*
X-19506067Y71858118D01*
X-19506070Y71858119D01*
X-19513549Y71860745D01*
X-19522267Y71861500D01*
X-19525008Y71861500D01*
X-19525032Y71861501D01*
X-19531559Y71863453D01*
X-19578794Y71861597D01*
X-19583741Y71861500D01*
X-30597150Y71861500D01*
X-30617840Y71863702D01*
X-30621616Y71863880D01*
X-30631793Y71866071D01*
X-30662269Y71862464D01*
X-30663038Y71862373D01*
X-30669665Y71861982D01*
X-30669661Y71861928D01*
X-30674840Y71861500D01*
X-30680040Y71861500D01*
X-30685166Y71860647D01*
X-30685175Y71860646D01*
X-30700795Y71858046D01*
X-30706671Y71857209D01*
X-30747490Y71852378D01*
X-30747491Y71852378D01*
X-30757830Y71851154D01*
X-30766123Y71847172D01*
X-30775194Y71845662D01*
X-30784359Y71840717D01*
X-30784364Y71840715D01*
X-30820516Y71821208D01*
X-30825809Y71818511D01*
X-30865095Y71799647D01*
X-30865099Y71799645D01*
X-30872239Y71796216D01*
X-30878938Y71790585D01*
X-30880876Y71788647D01*
X-30880895Y71788629D01*
X-30886889Y71785395D01*
X-30893957Y71777749D01*
X-30893958Y71777748D01*
X-30918980Y71750679D01*
X-30922410Y71747113D01*
X-31225108Y71444415D01*
X-31287420Y71410389D01*
X-31358235Y71415454D01*
X-31398567Y71442279D01*
X-31399245Y71441459D01*
X-31520513Y71541781D01*
X-31520517Y71541784D01*
X-31526622Y71546834D01*
X-31676203Y71617222D01*
X-31683986Y71618707D01*
X-31683987Y71618707D01*
X-31830804Y71646714D01*
X-31830806Y71646714D01*
X-31838590Y71648199D01*
X-31921084Y71643009D01*
X-31995667Y71638316D01*
X-31995669Y71638316D01*
X-32003578Y71637818D01*
X-32011114Y71635369D01*
X-32011116Y71635369D01*
X-32153259Y71589184D01*
X-32153262Y71589183D01*
X-32160801Y71586733D01*
X-32300381Y71498153D01*
X-32305808Y71492374D01*
X-32305809Y71492373D01*
X-32378041Y71415454D01*
X-32413547Y71377644D01*
X-32493188Y71232778D01*
X-32534300Y71072657D01*
X-39056000Y71072657D01*
X-39056000Y92264793D01*
X-30789397Y92264793D01*
X-30772094Y92058740D01*
X-30715098Y91859972D01*
X-30712280Y91854490D01*
X-30712279Y91854486D01*
X-30623401Y91681548D01*
X-30623398Y91681544D01*
X-30620580Y91676060D01*
X-30492141Y91514009D01*
X-30334671Y91379992D01*
X-30154170Y91279114D01*
X-29957512Y91215216D01*
X-29752188Y91190732D01*
X-29746053Y91191204D01*
X-29746051Y91191204D01*
X-29552162Y91206123D01*
X-29552158Y91206124D01*
X-29546020Y91206596D01*
X-29346859Y91262203D01*
X-29162292Y91355435D01*
X-28999348Y91482740D01*
X-28864235Y91639270D01*
X-28806323Y91741215D01*
X16764299Y91741215D01*
X16765056Y91736211D01*
X16765056Y91736208D01*
X16779717Y91639270D01*
X16801704Y91493887D01*
X16803253Y91489063D01*
X16803254Y91489058D01*
X16806501Y91478946D01*
X16878170Y91255721D01*
X16880468Y91251211D01*
X16880470Y91251206D01*
X16941721Y91130996D01*
X16991732Y91032844D01*
X17139466Y90830991D01*
X17317573Y90655354D01*
X17321698Y90652422D01*
X17321701Y90652420D01*
X17404709Y90593429D01*
X17521469Y90510452D01*
X17745910Y90400014D01*
X17750749Y90398535D01*
X17750753Y90398533D01*
X17980272Y90328362D01*
X17980274Y90328362D01*
X17985120Y90326880D01*
X17990141Y90326192D01*
X17990142Y90326192D01*
X18227923Y90293620D01*
X18232946Y90292932D01*
X18305588Y90294707D01*
X18477951Y90298919D01*
X18477955Y90298919D01*
X18483012Y90299043D01*
X18728884Y90345057D01*
X18964236Y90429789D01*
X19183014Y90551059D01*
X19186992Y90554189D01*
X19186996Y90554192D01*
X19375613Y90702619D01*
X19375614Y90702620D01*
X19379589Y90705748D01*
X19548903Y90889876D01*
X19686600Y91098705D01*
X19728171Y91191204D01*
X19787065Y91322247D01*
X19787067Y91322253D01*
X19789139Y91326863D01*
X19790447Y91331744D01*
X19790449Y91331750D01*
X19852572Y91563598D01*
X19852572Y91563599D01*
X19853880Y91568480D01*
X19879158Y91817340D01*
X19879500Y91850000D01*
X19866203Y92015269D01*
X19859845Y92094294D01*
X19859844Y92094299D01*
X19859439Y92099335D01*
X19799772Y92342255D01*
X19749074Y92461693D01*
X19704011Y92567853D01*
X19704010Y92567855D01*
X19702034Y92572510D01*
X19568741Y92784177D01*
X19522773Y92836318D01*
X19406664Y92968017D01*
X19403320Y92971810D01*
X19210028Y93130582D01*
X19076817Y93208113D01*
X18998206Y93253866D01*
X18998204Y93253867D01*
X18993838Y93256408D01*
X18910225Y93288504D01*
X18765036Y93344237D01*
X18765032Y93344238D01*
X18760312Y93346050D01*
X18755362Y93347084D01*
X18755359Y93347085D01*
X18520408Y93396169D01*
X18520404Y93396169D01*
X18515457Y93397203D01*
X18265574Y93408550D01*
X18260554Y93407969D01*
X18260550Y93407969D01*
X18022122Y93380382D01*
X18017092Y93379800D01*
X18012221Y93378422D01*
X18012218Y93378421D01*
X17901674Y93347140D01*
X17776402Y93311691D01*
X17549698Y93205977D01*
X17545518Y93203136D01*
X17545514Y93203134D01*
X17435494Y93128365D01*
X17342811Y93065378D01*
X17339134Y93061901D01*
X17339128Y93061896D01*
X17243866Y92971810D01*
X17161066Y92893509D01*
X17009136Y92694794D01*
X16890932Y92474344D01*
X16809495Y92237832D01*
X16808634Y92232849D01*
X16808633Y92232844D01*
X16786420Y92104246D01*
X16766918Y91991342D01*
X16764299Y91741215D01*
X-28806323Y91741215D01*
X-28762099Y91819063D01*
X-28752757Y91847144D01*
X-28729579Y91916819D01*
X-28696829Y92015269D01*
X-28670913Y92220417D01*
X-28670500Y92250000D01*
X-28690678Y92455791D01*
X-28750443Y92653744D01*
X-28847520Y92836318D01*
X-28897001Y92896988D01*
X-28974315Y92991785D01*
X-28974318Y92991788D01*
X-28978210Y92996560D01*
X-28995475Y93010843D01*
X-29132785Y93124436D01*
X-29132789Y93124438D01*
X-29137535Y93128365D01*
X-29319427Y93226714D01*
X-29516958Y93287860D01*
X-29523083Y93288504D01*
X-29523084Y93288504D01*
X-29716475Y93308830D01*
X-29716476Y93308830D01*
X-29722603Y93309474D01*
X-29808571Y93301650D01*
X-29922392Y93291292D01*
X-29922395Y93291291D01*
X-29928531Y93290733D01*
X-29934437Y93288995D01*
X-29934441Y93288994D01*
X-30080384Y93246040D01*
X-30126896Y93232351D01*
X-30310143Y93136552D01*
X-30471293Y93006984D01*
X-30475252Y93002266D01*
X-30475253Y93002265D01*
X-30569884Y92889489D01*
X-30604208Y92848583D01*
X-30607171Y92843194D01*
X-30607174Y92843189D01*
X-30686546Y92698810D01*
X-30703824Y92667381D01*
X-30766347Y92470282D01*
X-30767033Y92464163D01*
X-30767034Y92464160D01*
X-30780186Y92346911D01*
X-30789397Y92264793D01*
X-39056000Y92264793D01*
X-39056000Y107413600D01*
X-38173100Y107413600D01*
X-38173100Y105686400D01*
X-38153347Y105587094D01*
X-38097094Y105502906D01*
X-38012906Y105446653D01*
X-37913600Y105426900D01*
X-36186400Y105426900D01*
X-36087094Y105446653D01*
X-36002906Y105502906D01*
X-35946653Y105587094D01*
X-35926900Y105686400D01*
X-35926900Y106446259D01*
X-35628298Y106446259D01*
X-35588506Y106236665D01*
X-35509798Y106038378D01*
X-35395015Y105858551D01*
X-35248298Y105703673D01*
X-35243433Y105700183D01*
X-35243430Y105700181D01*
X-35079812Y105582826D01*
X-35074942Y105579333D01*
X-35069497Y105576823D01*
X-34894207Y105496013D01*
X-34881201Y105490017D01*
X-34875385Y105488583D01*
X-34875382Y105488582D01*
X-34757080Y105459415D01*
X-34674066Y105438948D01*
X-34668076Y105438639D01*
X-34668074Y105438639D01*
X-34593288Y105434785D01*
X-34461011Y105427969D01*
X-34455076Y105428798D01*
X-34455072Y105428798D01*
X-34277845Y105453548D01*
X-34249724Y105457475D01*
X-34047828Y105526403D01*
X-33955220Y105579333D01*
X-33867813Y105629290D01*
X-33867808Y105629293D01*
X-33862609Y105632265D01*
X-33700749Y105771240D01*
X-33568089Y105938316D01*
X-33469416Y106127463D01*
X-33408289Y106331855D01*
X-33397361Y106440372D01*
X-33396768Y106446259D01*
X-33088298Y106446259D01*
X-33048506Y106236665D01*
X-32969798Y106038378D01*
X-32855015Y105858551D01*
X-32708298Y105703673D01*
X-32703433Y105700183D01*
X-32703430Y105700181D01*
X-32539812Y105582826D01*
X-32534942Y105579333D01*
X-32529497Y105576823D01*
X-32354207Y105496013D01*
X-32341201Y105490017D01*
X-32335385Y105488583D01*
X-32335382Y105488582D01*
X-32217080Y105459415D01*
X-32134066Y105438948D01*
X-32128076Y105438639D01*
X-32128074Y105438639D01*
X-32053288Y105434785D01*
X-31921011Y105427969D01*
X-31915076Y105428798D01*
X-31915072Y105428798D01*
X-31737845Y105453548D01*
X-31709724Y105457475D01*
X-31507828Y105526403D01*
X-31415220Y105579333D01*
X-31327813Y105629290D01*
X-31327808Y105629293D01*
X-31322609Y105632265D01*
X-31160749Y105771240D01*
X-31028089Y105938316D01*
X-30929416Y106127463D01*
X-30868289Y106331855D01*
X-30857361Y106440372D01*
X-30856768Y106446259D01*
X-30548298Y106446259D01*
X-30508506Y106236665D01*
X-30429798Y106038378D01*
X-30315015Y105858551D01*
X-30168298Y105703673D01*
X-30163433Y105700183D01*
X-30163430Y105700181D01*
X-29999812Y105582826D01*
X-29994942Y105579333D01*
X-29989497Y105576823D01*
X-29814207Y105496013D01*
X-29801201Y105490017D01*
X-29795385Y105488583D01*
X-29795382Y105488582D01*
X-29677080Y105459415D01*
X-29594066Y105438948D01*
X-29588076Y105438639D01*
X-29588074Y105438639D01*
X-29513288Y105434785D01*
X-29381011Y105427969D01*
X-29375076Y105428798D01*
X-29375072Y105428798D01*
X-29197845Y105453548D01*
X-29169724Y105457475D01*
X-28967828Y105526403D01*
X-28875220Y105579333D01*
X-28787813Y105629290D01*
X-28787808Y105629293D01*
X-28782609Y105632265D01*
X-28620749Y105771240D01*
X-28488089Y105938316D01*
X-28389416Y106127463D01*
X-28328289Y106331855D01*
X-28317361Y106440372D01*
X-28316768Y106446259D01*
X-25468298Y106446259D01*
X-25428506Y106236665D01*
X-25349798Y106038378D01*
X-25235015Y105858551D01*
X-25088298Y105703673D01*
X-25083433Y105700183D01*
X-25083430Y105700181D01*
X-24919812Y105582826D01*
X-24914942Y105579333D01*
X-24909497Y105576823D01*
X-24734207Y105496013D01*
X-24721201Y105490017D01*
X-24715385Y105488583D01*
X-24715382Y105488582D01*
X-24597080Y105459415D01*
X-24514066Y105438948D01*
X-24508076Y105438639D01*
X-24508074Y105438639D01*
X-24433288Y105434785D01*
X-24301011Y105427969D01*
X-24295076Y105428798D01*
X-24295072Y105428798D01*
X-24117845Y105453548D01*
X-24089724Y105457475D01*
X-23887828Y105526403D01*
X-23795220Y105579333D01*
X-23707813Y105629290D01*
X-23707808Y105629293D01*
X-23702609Y105632265D01*
X-23540749Y105771240D01*
X-23408089Y105938316D01*
X-23309416Y106127463D01*
X-23248289Y106331855D01*
X-23237361Y106440372D01*
X-23236768Y106446259D01*
X-22928298Y106446259D01*
X-22888506Y106236665D01*
X-22809798Y106038378D01*
X-22695015Y105858551D01*
X-22548298Y105703673D01*
X-22543433Y105700183D01*
X-22543430Y105700181D01*
X-22379812Y105582826D01*
X-22374942Y105579333D01*
X-22369497Y105576823D01*
X-22194207Y105496013D01*
X-22181201Y105490017D01*
X-22175385Y105488583D01*
X-22175382Y105488582D01*
X-22057080Y105459415D01*
X-21974066Y105438948D01*
X-21968076Y105438639D01*
X-21968074Y105438639D01*
X-21893288Y105434785D01*
X-21761011Y105427969D01*
X-21755076Y105428798D01*
X-21755072Y105428798D01*
X-21577845Y105453548D01*
X-21549724Y105457475D01*
X-21347828Y105526403D01*
X-21255220Y105579333D01*
X-21167813Y105629290D01*
X-21167808Y105629293D01*
X-21162609Y105632265D01*
X-21000749Y105771240D01*
X-20868089Y105938316D01*
X-20769416Y106127463D01*
X-20708289Y106331855D01*
X-20697361Y106440372D01*
X-20696768Y106446259D01*
X-20388298Y106446259D01*
X-20348506Y106236665D01*
X-20269798Y106038378D01*
X-20155015Y105858551D01*
X-20008298Y105703673D01*
X-20003433Y105700183D01*
X-20003430Y105700181D01*
X-19839812Y105582826D01*
X-19834942Y105579333D01*
X-19829497Y105576823D01*
X-19654207Y105496013D01*
X-19641201Y105490017D01*
X-19635385Y105488583D01*
X-19635382Y105488582D01*
X-19517080Y105459415D01*
X-19434066Y105438948D01*
X-19428076Y105438639D01*
X-19428074Y105438639D01*
X-19353288Y105434785D01*
X-19221011Y105427969D01*
X-19215076Y105428798D01*
X-19215072Y105428798D01*
X-19037845Y105453548D01*
X-19009724Y105457475D01*
X-18807828Y105526403D01*
X-18715220Y105579333D01*
X-18627813Y105629290D01*
X-18627808Y105629293D01*
X-18622609Y105632265D01*
X-18460749Y105771240D01*
X-18328089Y105938316D01*
X-18229416Y106127463D01*
X-18168289Y106331855D01*
X-18157361Y106440372D01*
X-18156768Y106446259D01*
X-17848298Y106446259D01*
X-17808506Y106236665D01*
X-17729798Y106038378D01*
X-17615015Y105858551D01*
X-17468298Y105703673D01*
X-17463433Y105700183D01*
X-17463430Y105700181D01*
X-17299812Y105582826D01*
X-17294942Y105579333D01*
X-17289497Y105576823D01*
X-17114207Y105496013D01*
X-17101201Y105490017D01*
X-17095385Y105488583D01*
X-17095382Y105488582D01*
X-16977080Y105459415D01*
X-16894066Y105438948D01*
X-16888076Y105438639D01*
X-16888074Y105438639D01*
X-16813288Y105434785D01*
X-16681011Y105427969D01*
X-16675076Y105428798D01*
X-16675072Y105428798D01*
X-16497845Y105453548D01*
X-16469724Y105457475D01*
X-16267828Y105526403D01*
X-16175220Y105579333D01*
X-16087813Y105629290D01*
X-16087808Y105629293D01*
X-16082609Y105632265D01*
X-15920749Y105771240D01*
X-15788089Y105938316D01*
X-15689416Y106127463D01*
X-15628289Y106331855D01*
X-15617361Y106440372D01*
X-15616768Y106446259D01*
X-15308298Y106446259D01*
X-15268506Y106236665D01*
X-15189798Y106038378D01*
X-15075015Y105858551D01*
X-14928298Y105703673D01*
X-14923433Y105700183D01*
X-14923430Y105700181D01*
X-14759812Y105582826D01*
X-14754942Y105579333D01*
X-14749497Y105576823D01*
X-14574207Y105496013D01*
X-14561201Y105490017D01*
X-14555385Y105488583D01*
X-14555382Y105488582D01*
X-14437080Y105459415D01*
X-14354066Y105438948D01*
X-14348076Y105438639D01*
X-14348074Y105438639D01*
X-14273288Y105434785D01*
X-14141011Y105427969D01*
X-14135076Y105428798D01*
X-14135072Y105428798D01*
X-13957845Y105453548D01*
X-13929724Y105457475D01*
X-13727828Y105526403D01*
X-13635220Y105579333D01*
X-13547813Y105629290D01*
X-13547808Y105629293D01*
X-13542609Y105632265D01*
X-13380749Y105771240D01*
X-13248089Y105938316D01*
X-13149416Y106127463D01*
X-13088289Y106331855D01*
X-13077361Y106440372D01*
X-13076768Y106446259D01*
X-12768298Y106446259D01*
X-12728506Y106236665D01*
X-12649798Y106038378D01*
X-12535015Y105858551D01*
X-12388298Y105703673D01*
X-12383433Y105700183D01*
X-12383430Y105700181D01*
X-12219812Y105582826D01*
X-12214942Y105579333D01*
X-12209497Y105576823D01*
X-12034207Y105496013D01*
X-12021201Y105490017D01*
X-12015385Y105488583D01*
X-12015382Y105488582D01*
X-11897080Y105459415D01*
X-11814066Y105438948D01*
X-11808076Y105438639D01*
X-11808074Y105438639D01*
X-11733288Y105434785D01*
X-11601011Y105427969D01*
X-11595076Y105428798D01*
X-11595072Y105428798D01*
X-11417845Y105453548D01*
X-11389724Y105457475D01*
X-11187828Y105526403D01*
X-11095220Y105579333D01*
X-11007813Y105629290D01*
X-11007808Y105629293D01*
X-11002609Y105632265D01*
X-10840749Y105771240D01*
X-10708089Y105938316D01*
X-10609416Y106127463D01*
X-10548289Y106331855D01*
X-10537361Y106440372D01*
X-10536768Y106446259D01*
X-10228298Y106446259D01*
X-10188506Y106236665D01*
X-10109798Y106038378D01*
X-9995015Y105858551D01*
X-9848298Y105703673D01*
X-9843433Y105700183D01*
X-9843430Y105700181D01*
X-9679812Y105582826D01*
X-9674942Y105579333D01*
X-9669497Y105576823D01*
X-9494207Y105496013D01*
X-9481201Y105490017D01*
X-9475385Y105488583D01*
X-9475382Y105488582D01*
X-9357080Y105459415D01*
X-9274066Y105438948D01*
X-9268076Y105438639D01*
X-9268074Y105438639D01*
X-9193288Y105434785D01*
X-9061011Y105427969D01*
X-9055076Y105428798D01*
X-9055072Y105428798D01*
X-8877845Y105453548D01*
X-8849724Y105457475D01*
X-8647828Y105526403D01*
X-8555220Y105579333D01*
X-8467813Y105629290D01*
X-8467808Y105629293D01*
X-8462609Y105632265D01*
X-8300749Y105771240D01*
X-8168089Y105938316D01*
X-8069416Y106127463D01*
X-8008289Y106331855D01*
X-7997361Y106440372D01*
X-7987223Y106541056D01*
X-7987223Y106541065D01*
X-7986915Y106544119D01*
X-7986900Y106550000D01*
X-8007162Y106762373D01*
X-8067218Y106967083D01*
X-8069968Y106972423D01*
X-8162153Y107151413D01*
X-8162155Y107151416D01*
X-8164899Y107156744D01*
X-8296683Y107324512D01*
X-8457813Y107464333D01*
X-8642475Y107571163D01*
X-8717148Y107597094D01*
X-8838333Y107639177D01*
X-8838336Y107639178D01*
X-8844007Y107641147D01*
X-8987112Y107661896D01*
X-9049197Y107670898D01*
X-9049200Y107670898D01*
X-9055137Y107671759D01*
X-9268246Y107661896D01*
X-9274070Y107660492D01*
X-9274073Y107660492D01*
X-9469813Y107613318D01*
X-9469815Y107613317D01*
X-9475646Y107611912D01*
X-9481104Y107609430D01*
X-9481108Y107609429D01*
X-9560934Y107573134D01*
X-9669852Y107523612D01*
X-9758963Y107460401D01*
X-9816385Y107419668D01*
X-9843857Y107400181D01*
X-9847999Y107395854D01*
X-9987234Y107250408D01*
X-9987238Y107250403D01*
X-9991382Y107246074D01*
X-9994636Y107241035D01*
X-9994638Y107241032D01*
X-10052504Y107151413D01*
X-10107105Y107066850D01*
X-10186850Y106868978D01*
X-10187998Y106863097D01*
X-10188000Y106863092D01*
X-10206544Y106768134D01*
X-10227740Y106659595D01*
X-10228298Y106446259D01*
X-10536768Y106446259D01*
X-10527223Y106541056D01*
X-10527223Y106541065D01*
X-10526915Y106544119D01*
X-10526900Y106550000D01*
X-10547162Y106762373D01*
X-10607218Y106967083D01*
X-10609968Y106972423D01*
X-10702153Y107151413D01*
X-10702155Y107151416D01*
X-10704899Y107156744D01*
X-10836683Y107324512D01*
X-10997813Y107464333D01*
X-11182475Y107571163D01*
X-11257148Y107597094D01*
X-11378333Y107639177D01*
X-11378336Y107639178D01*
X-11384007Y107641147D01*
X-11527112Y107661896D01*
X-11589197Y107670898D01*
X-11589200Y107670898D01*
X-11595137Y107671759D01*
X-11808246Y107661896D01*
X-11814070Y107660492D01*
X-11814073Y107660492D01*
X-12009813Y107613318D01*
X-12009815Y107613317D01*
X-12015646Y107611912D01*
X-12021104Y107609430D01*
X-12021108Y107609429D01*
X-12100934Y107573134D01*
X-12209852Y107523612D01*
X-12298963Y107460401D01*
X-12356385Y107419668D01*
X-12383857Y107400181D01*
X-12387999Y107395854D01*
X-12527234Y107250408D01*
X-12527238Y107250403D01*
X-12531382Y107246074D01*
X-12534636Y107241035D01*
X-12534638Y107241032D01*
X-12592504Y107151413D01*
X-12647105Y107066850D01*
X-12726850Y106868978D01*
X-12727998Y106863097D01*
X-12728000Y106863092D01*
X-12746544Y106768134D01*
X-12767740Y106659595D01*
X-12768298Y106446259D01*
X-13076768Y106446259D01*
X-13067223Y106541056D01*
X-13067223Y106541065D01*
X-13066915Y106544119D01*
X-13066900Y106550000D01*
X-13087162Y106762373D01*
X-13147218Y106967083D01*
X-13149968Y106972423D01*
X-13242153Y107151413D01*
X-13242155Y107151416D01*
X-13244899Y107156744D01*
X-13376683Y107324512D01*
X-13537813Y107464333D01*
X-13722475Y107571163D01*
X-13797148Y107597094D01*
X-13918333Y107639177D01*
X-13918336Y107639178D01*
X-13924007Y107641147D01*
X-14067112Y107661896D01*
X-14129197Y107670898D01*
X-14129200Y107670898D01*
X-14135137Y107671759D01*
X-14348246Y107661896D01*
X-14354070Y107660492D01*
X-14354073Y107660492D01*
X-14549813Y107613318D01*
X-14549815Y107613317D01*
X-14555646Y107611912D01*
X-14561104Y107609430D01*
X-14561108Y107609429D01*
X-14640934Y107573134D01*
X-14749852Y107523612D01*
X-14838963Y107460401D01*
X-14896385Y107419668D01*
X-14923857Y107400181D01*
X-14927999Y107395854D01*
X-15067234Y107250408D01*
X-15067238Y107250403D01*
X-15071382Y107246074D01*
X-15074636Y107241035D01*
X-15074638Y107241032D01*
X-15132504Y107151413D01*
X-15187105Y107066850D01*
X-15266850Y106868978D01*
X-15267998Y106863097D01*
X-15268000Y106863092D01*
X-15286544Y106768134D01*
X-15307740Y106659595D01*
X-15308298Y106446259D01*
X-15616768Y106446259D01*
X-15607223Y106541056D01*
X-15607223Y106541065D01*
X-15606915Y106544119D01*
X-15606900Y106550000D01*
X-15627162Y106762373D01*
X-15687218Y106967083D01*
X-15689968Y106972423D01*
X-15782153Y107151413D01*
X-15782155Y107151416D01*
X-15784899Y107156744D01*
X-15916683Y107324512D01*
X-16077813Y107464333D01*
X-16262475Y107571163D01*
X-16337148Y107597094D01*
X-16458333Y107639177D01*
X-16458336Y107639178D01*
X-16464007Y107641147D01*
X-16607112Y107661896D01*
X-16669197Y107670898D01*
X-16669200Y107670898D01*
X-16675137Y107671759D01*
X-16888246Y107661896D01*
X-16894070Y107660492D01*
X-16894073Y107660492D01*
X-17089813Y107613318D01*
X-17089815Y107613317D01*
X-17095646Y107611912D01*
X-17101104Y107609430D01*
X-17101108Y107609429D01*
X-17180934Y107573134D01*
X-17289852Y107523612D01*
X-17378963Y107460401D01*
X-17436385Y107419668D01*
X-17463857Y107400181D01*
X-17467999Y107395854D01*
X-17607234Y107250408D01*
X-17607238Y107250403D01*
X-17611382Y107246074D01*
X-17614636Y107241035D01*
X-17614638Y107241032D01*
X-17672504Y107151413D01*
X-17727105Y107066850D01*
X-17806850Y106868978D01*
X-17807998Y106863097D01*
X-17808000Y106863092D01*
X-17826544Y106768134D01*
X-17847740Y106659595D01*
X-17848298Y106446259D01*
X-18156768Y106446259D01*
X-18147223Y106541056D01*
X-18147223Y106541065D01*
X-18146915Y106544119D01*
X-18146900Y106550000D01*
X-18167162Y106762373D01*
X-18227218Y106967083D01*
X-18229968Y106972423D01*
X-18322153Y107151413D01*
X-18322155Y107151416D01*
X-18324899Y107156744D01*
X-18456683Y107324512D01*
X-18617813Y107464333D01*
X-18802475Y107571163D01*
X-18877148Y107597094D01*
X-18998333Y107639177D01*
X-18998336Y107639178D01*
X-19004007Y107641147D01*
X-19147112Y107661896D01*
X-19209197Y107670898D01*
X-19209200Y107670898D01*
X-19215137Y107671759D01*
X-19428246Y107661896D01*
X-19434070Y107660492D01*
X-19434073Y107660492D01*
X-19629813Y107613318D01*
X-19629815Y107613317D01*
X-19635646Y107611912D01*
X-19641104Y107609430D01*
X-19641108Y107609429D01*
X-19720934Y107573134D01*
X-19829852Y107523612D01*
X-19918963Y107460401D01*
X-19976385Y107419668D01*
X-20003857Y107400181D01*
X-20007999Y107395854D01*
X-20147234Y107250408D01*
X-20147238Y107250403D01*
X-20151382Y107246074D01*
X-20154636Y107241035D01*
X-20154638Y107241032D01*
X-20212504Y107151413D01*
X-20267105Y107066850D01*
X-20346850Y106868978D01*
X-20347998Y106863097D01*
X-20348000Y106863092D01*
X-20366544Y106768134D01*
X-20387740Y106659595D01*
X-20388298Y106446259D01*
X-20696768Y106446259D01*
X-20687223Y106541056D01*
X-20687223Y106541065D01*
X-20686915Y106544119D01*
X-20686900Y106550000D01*
X-20707162Y106762373D01*
X-20767218Y106967083D01*
X-20769968Y106972423D01*
X-20862153Y107151413D01*
X-20862155Y107151416D01*
X-20864899Y107156744D01*
X-20996683Y107324512D01*
X-21157813Y107464333D01*
X-21342475Y107571163D01*
X-21417148Y107597094D01*
X-21538333Y107639177D01*
X-21538336Y107639178D01*
X-21544007Y107641147D01*
X-21687112Y107661896D01*
X-21749197Y107670898D01*
X-21749200Y107670898D01*
X-21755137Y107671759D01*
X-21968246Y107661896D01*
X-21974070Y107660492D01*
X-21974073Y107660492D01*
X-22169813Y107613318D01*
X-22169815Y107613317D01*
X-22175646Y107611912D01*
X-22181104Y107609430D01*
X-22181108Y107609429D01*
X-22260934Y107573134D01*
X-22369852Y107523612D01*
X-22458963Y107460401D01*
X-22516385Y107419668D01*
X-22543857Y107400181D01*
X-22547999Y107395854D01*
X-22687234Y107250408D01*
X-22687238Y107250403D01*
X-22691382Y107246074D01*
X-22694636Y107241035D01*
X-22694638Y107241032D01*
X-22752504Y107151413D01*
X-22807105Y107066850D01*
X-22886850Y106868978D01*
X-22887998Y106863097D01*
X-22888000Y106863092D01*
X-22906544Y106768134D01*
X-22927740Y106659595D01*
X-22928298Y106446259D01*
X-23236768Y106446259D01*
X-23227223Y106541056D01*
X-23227223Y106541065D01*
X-23226915Y106544119D01*
X-23226900Y106550000D01*
X-23247162Y106762373D01*
X-23307218Y106967083D01*
X-23309968Y106972423D01*
X-23402153Y107151413D01*
X-23402155Y107151416D01*
X-23404899Y107156744D01*
X-23536683Y107324512D01*
X-23697813Y107464333D01*
X-23882475Y107571163D01*
X-23957148Y107597094D01*
X-24078333Y107639177D01*
X-24078336Y107639178D01*
X-24084007Y107641147D01*
X-24227112Y107661896D01*
X-24289197Y107670898D01*
X-24289200Y107670898D01*
X-24295137Y107671759D01*
X-24508246Y107661896D01*
X-24514070Y107660492D01*
X-24514073Y107660492D01*
X-24709813Y107613318D01*
X-24709815Y107613317D01*
X-24715646Y107611912D01*
X-24721104Y107609430D01*
X-24721108Y107609429D01*
X-24800934Y107573134D01*
X-24909852Y107523612D01*
X-24998963Y107460401D01*
X-25056385Y107419668D01*
X-25083857Y107400181D01*
X-25087999Y107395854D01*
X-25227234Y107250408D01*
X-25227238Y107250403D01*
X-25231382Y107246074D01*
X-25234636Y107241035D01*
X-25234638Y107241032D01*
X-25292504Y107151413D01*
X-25347105Y107066850D01*
X-25426850Y106868978D01*
X-25427998Y106863097D01*
X-25428000Y106863092D01*
X-25446544Y106768134D01*
X-25467740Y106659595D01*
X-25468298Y106446259D01*
X-28316768Y106446259D01*
X-28307223Y106541056D01*
X-28307223Y106541065D01*
X-28306915Y106544119D01*
X-28306900Y106550000D01*
X-28327162Y106762373D01*
X-28387218Y106967083D01*
X-28389968Y106972423D01*
X-28482153Y107151413D01*
X-28482155Y107151416D01*
X-28484899Y107156744D01*
X-28616683Y107324512D01*
X-28777813Y107464333D01*
X-28962475Y107571163D01*
X-29037148Y107597094D01*
X-29158333Y107639177D01*
X-29158336Y107639178D01*
X-29164007Y107641147D01*
X-29307112Y107661896D01*
X-29369197Y107670898D01*
X-29369200Y107670898D01*
X-29375137Y107671759D01*
X-29588246Y107661896D01*
X-29594070Y107660492D01*
X-29594073Y107660492D01*
X-29789813Y107613318D01*
X-29789815Y107613317D01*
X-29795646Y107611912D01*
X-29801104Y107609430D01*
X-29801108Y107609429D01*
X-29880934Y107573134D01*
X-29989852Y107523612D01*
X-30078963Y107460401D01*
X-30136385Y107419668D01*
X-30163857Y107400181D01*
X-30167999Y107395854D01*
X-30307234Y107250408D01*
X-30307238Y107250403D01*
X-30311382Y107246074D01*
X-30314636Y107241035D01*
X-30314638Y107241032D01*
X-30372504Y107151413D01*
X-30427105Y107066850D01*
X-30506850Y106868978D01*
X-30507998Y106863097D01*
X-30508000Y106863092D01*
X-30526544Y106768134D01*
X-30547740Y106659595D01*
X-30548298Y106446259D01*
X-30856768Y106446259D01*
X-30847223Y106541056D01*
X-30847223Y106541065D01*
X-30846915Y106544119D01*
X-30846900Y106550000D01*
X-30867162Y106762373D01*
X-30927218Y106967083D01*
X-30929968Y106972423D01*
X-31022153Y107151413D01*
X-31022155Y107151416D01*
X-31024899Y107156744D01*
X-31156683Y107324512D01*
X-31317813Y107464333D01*
X-31502475Y107571163D01*
X-31577148Y107597094D01*
X-31698333Y107639177D01*
X-31698336Y107639178D01*
X-31704007Y107641147D01*
X-31847112Y107661896D01*
X-31909197Y107670898D01*
X-31909200Y107670898D01*
X-31915137Y107671759D01*
X-32128246Y107661896D01*
X-32134070Y107660492D01*
X-32134073Y107660492D01*
X-32329813Y107613318D01*
X-32329815Y107613317D01*
X-32335646Y107611912D01*
X-32341104Y107609430D01*
X-32341108Y107609429D01*
X-32420934Y107573134D01*
X-32529852Y107523612D01*
X-32618963Y107460401D01*
X-32676385Y107419668D01*
X-32703857Y107400181D01*
X-32707999Y107395854D01*
X-32847234Y107250408D01*
X-32847238Y107250403D01*
X-32851382Y107246074D01*
X-32854636Y107241035D01*
X-32854638Y107241032D01*
X-32912504Y107151413D01*
X-32967105Y107066850D01*
X-33046850Y106868978D01*
X-33047998Y106863097D01*
X-33048000Y106863092D01*
X-33066544Y106768134D01*
X-33087740Y106659595D01*
X-33088298Y106446259D01*
X-33396768Y106446259D01*
X-33387223Y106541056D01*
X-33387223Y106541065D01*
X-33386915Y106544119D01*
X-33386900Y106550000D01*
X-33407162Y106762373D01*
X-33467218Y106967083D01*
X-33469968Y106972423D01*
X-33562153Y107151413D01*
X-33562155Y107151416D01*
X-33564899Y107156744D01*
X-33696683Y107324512D01*
X-33857813Y107464333D01*
X-34042475Y107571163D01*
X-34117148Y107597094D01*
X-34238333Y107639177D01*
X-34238336Y107639178D01*
X-34244007Y107641147D01*
X-34387112Y107661896D01*
X-34449197Y107670898D01*
X-34449200Y107670898D01*
X-34455137Y107671759D01*
X-34668246Y107661896D01*
X-34674070Y107660492D01*
X-34674073Y107660492D01*
X-34869813Y107613318D01*
X-34869815Y107613317D01*
X-34875646Y107611912D01*
X-34881104Y107609430D01*
X-34881108Y107609429D01*
X-34960934Y107573134D01*
X-35069852Y107523612D01*
X-35158963Y107460401D01*
X-35216385Y107419668D01*
X-35243857Y107400181D01*
X-35247999Y107395854D01*
X-35387234Y107250408D01*
X-35387238Y107250403D01*
X-35391382Y107246074D01*
X-35394636Y107241035D01*
X-35394638Y107241032D01*
X-35452504Y107151413D01*
X-35507105Y107066850D01*
X-35586850Y106868978D01*
X-35587998Y106863097D01*
X-35588000Y106863092D01*
X-35606544Y106768134D01*
X-35627740Y106659595D01*
X-35628298Y106446259D01*
X-35926900Y106446259D01*
X-35926900Y107413600D01*
X-35946653Y107512906D01*
X-36002906Y107597094D01*
X-36021366Y107609429D01*
X-36076775Y107646452D01*
X-36087094Y107653347D01*
X-36186400Y107673100D01*
X-37913600Y107673100D01*
X-38012906Y107653347D01*
X-38023225Y107646452D01*
X-38078633Y107609429D01*
X-38097094Y107597094D01*
X-38153347Y107512906D01*
X-38173100Y107413600D01*
X-39056000Y107413600D01*
X-39056000Y108986259D01*
X-38168298Y108986259D01*
X-38128506Y108776665D01*
X-38049798Y108578378D01*
X-37935015Y108398551D01*
X-37788298Y108243673D01*
X-37783433Y108240183D01*
X-37783430Y108240181D01*
X-37684593Y108169290D01*
X-37614942Y108119333D01*
X-37421201Y108030017D01*
X-37415385Y108028583D01*
X-37415382Y108028582D01*
X-37297080Y107999415D01*
X-37214066Y107978948D01*
X-37208076Y107978639D01*
X-37208074Y107978639D01*
X-37133288Y107974785D01*
X-37001011Y107967969D01*
X-36995076Y107968798D01*
X-36995072Y107968798D01*
X-36828221Y107992099D01*
X-36789724Y107997475D01*
X-36587828Y108066403D01*
X-36495220Y108119333D01*
X-36407813Y108169290D01*
X-36407808Y108169293D01*
X-36402609Y108172265D01*
X-36240749Y108311240D01*
X-36108089Y108478316D01*
X-36009416Y108667463D01*
X-35948289Y108871855D01*
X-35937361Y108980372D01*
X-35936768Y108986259D01*
X-35628298Y108986259D01*
X-35588506Y108776665D01*
X-35509798Y108578378D01*
X-35395015Y108398551D01*
X-35248298Y108243673D01*
X-35243433Y108240183D01*
X-35243430Y108240181D01*
X-35144593Y108169290D01*
X-35074942Y108119333D01*
X-34881201Y108030017D01*
X-34875385Y108028583D01*
X-34875382Y108028582D01*
X-34757080Y107999415D01*
X-34674066Y107978948D01*
X-34668076Y107978639D01*
X-34668074Y107978639D01*
X-34593288Y107974785D01*
X-34461011Y107967969D01*
X-34455076Y107968798D01*
X-34455072Y107968798D01*
X-34288221Y107992099D01*
X-34249724Y107997475D01*
X-34047828Y108066403D01*
X-33955220Y108119333D01*
X-33867813Y108169290D01*
X-33867808Y108169293D01*
X-33862609Y108172265D01*
X-33700749Y108311240D01*
X-33568089Y108478316D01*
X-33469416Y108667463D01*
X-33408289Y108871855D01*
X-33397361Y108980372D01*
X-33396768Y108986259D01*
X-30548298Y108986259D01*
X-30508506Y108776665D01*
X-30429798Y108578378D01*
X-30315015Y108398551D01*
X-30168298Y108243673D01*
X-30163433Y108240183D01*
X-30163430Y108240181D01*
X-30064593Y108169290D01*
X-29994942Y108119333D01*
X-29801201Y108030017D01*
X-29795385Y108028583D01*
X-29795382Y108028582D01*
X-29677080Y107999415D01*
X-29594066Y107978948D01*
X-29588076Y107978639D01*
X-29588074Y107978639D01*
X-29513288Y107974785D01*
X-29381011Y107967969D01*
X-29375076Y107968798D01*
X-29375072Y107968798D01*
X-29208221Y107992099D01*
X-29169724Y107997475D01*
X-28967828Y108066403D01*
X-28875220Y108119333D01*
X-28787813Y108169290D01*
X-28787808Y108169293D01*
X-28782609Y108172265D01*
X-28620749Y108311240D01*
X-28488089Y108478316D01*
X-28389416Y108667463D01*
X-28328289Y108871855D01*
X-28317361Y108980372D01*
X-28316768Y108986259D01*
X-28008298Y108986259D01*
X-27968506Y108776665D01*
X-27889798Y108578378D01*
X-27775015Y108398551D01*
X-27628298Y108243673D01*
X-27623433Y108240183D01*
X-27623430Y108240181D01*
X-27524593Y108169290D01*
X-27454942Y108119333D01*
X-27261201Y108030017D01*
X-27255385Y108028583D01*
X-27255382Y108028582D01*
X-27137080Y107999415D01*
X-27054066Y107978948D01*
X-27048076Y107978639D01*
X-27048074Y107978639D01*
X-26973288Y107974785D01*
X-26841011Y107967969D01*
X-26835076Y107968798D01*
X-26835072Y107968798D01*
X-26668221Y107992099D01*
X-26629724Y107997475D01*
X-26427828Y108066403D01*
X-26335220Y108119333D01*
X-26247813Y108169290D01*
X-26247808Y108169293D01*
X-26242609Y108172265D01*
X-26080749Y108311240D01*
X-25948089Y108478316D01*
X-25849416Y108667463D01*
X-25788289Y108871855D01*
X-25777361Y108980372D01*
X-25776768Y108986259D01*
X-25468298Y108986259D01*
X-25428506Y108776665D01*
X-25349798Y108578378D01*
X-25235015Y108398551D01*
X-25088298Y108243673D01*
X-25083433Y108240183D01*
X-25083430Y108240181D01*
X-24984593Y108169290D01*
X-24914942Y108119333D01*
X-24721201Y108030017D01*
X-24715385Y108028583D01*
X-24715382Y108028582D01*
X-24597080Y107999415D01*
X-24514066Y107978948D01*
X-24508076Y107978639D01*
X-24508074Y107978639D01*
X-24433288Y107974785D01*
X-24301011Y107967969D01*
X-24295076Y107968798D01*
X-24295072Y107968798D01*
X-24128221Y107992099D01*
X-24089724Y107997475D01*
X-23887828Y108066403D01*
X-23795220Y108119333D01*
X-23707813Y108169290D01*
X-23707808Y108169293D01*
X-23702609Y108172265D01*
X-23540749Y108311240D01*
X-23408089Y108478316D01*
X-23309416Y108667463D01*
X-23248289Y108871855D01*
X-23237361Y108980372D01*
X-23236768Y108986259D01*
X-20388298Y108986259D01*
X-20348506Y108776665D01*
X-20269798Y108578378D01*
X-20155015Y108398551D01*
X-20008298Y108243673D01*
X-20003433Y108240183D01*
X-20003430Y108240181D01*
X-19904593Y108169290D01*
X-19834942Y108119333D01*
X-19641201Y108030017D01*
X-19635385Y108028583D01*
X-19635382Y108028582D01*
X-19517080Y107999415D01*
X-19434066Y107978948D01*
X-19428076Y107978639D01*
X-19428074Y107978639D01*
X-19353288Y107974785D01*
X-19221011Y107967969D01*
X-19215076Y107968798D01*
X-19215072Y107968798D01*
X-19048221Y107992099D01*
X-19009724Y107997475D01*
X-18807828Y108066403D01*
X-18715220Y108119333D01*
X-18627813Y108169290D01*
X-18627808Y108169293D01*
X-18622609Y108172265D01*
X-18460749Y108311240D01*
X-18328089Y108478316D01*
X-18229416Y108667463D01*
X-18168289Y108871855D01*
X-18157361Y108980372D01*
X-18156768Y108986259D01*
X-17848298Y108986259D01*
X-17808506Y108776665D01*
X-17729798Y108578378D01*
X-17615015Y108398551D01*
X-17468298Y108243673D01*
X-17463433Y108240183D01*
X-17463430Y108240181D01*
X-17364593Y108169290D01*
X-17294942Y108119333D01*
X-17101201Y108030017D01*
X-17095385Y108028583D01*
X-17095382Y108028582D01*
X-16977080Y107999415D01*
X-16894066Y107978948D01*
X-16888076Y107978639D01*
X-16888074Y107978639D01*
X-16813288Y107974785D01*
X-16681011Y107967969D01*
X-16675076Y107968798D01*
X-16675072Y107968798D01*
X-16508221Y107992099D01*
X-16469724Y107997475D01*
X-16267828Y108066403D01*
X-16175220Y108119333D01*
X-16087813Y108169290D01*
X-16087808Y108169293D01*
X-16082609Y108172265D01*
X-15920749Y108311240D01*
X-15788089Y108478316D01*
X-15689416Y108667463D01*
X-15628289Y108871855D01*
X-15617361Y108980372D01*
X-15616768Y108986259D01*
X-12768298Y108986259D01*
X-12728506Y108776665D01*
X-12649798Y108578378D01*
X-12535015Y108398551D01*
X-12388298Y108243673D01*
X-12383433Y108240183D01*
X-12383430Y108240181D01*
X-12284593Y108169290D01*
X-12214942Y108119333D01*
X-12021201Y108030017D01*
X-12015385Y108028583D01*
X-12015382Y108028582D01*
X-11897080Y107999415D01*
X-11814066Y107978948D01*
X-11808076Y107978639D01*
X-11808074Y107978639D01*
X-11733288Y107974785D01*
X-11601011Y107967969D01*
X-11595076Y107968798D01*
X-11595072Y107968798D01*
X-11428221Y107992099D01*
X-11389724Y107997475D01*
X-11187828Y108066403D01*
X-11095220Y108119333D01*
X-11007813Y108169290D01*
X-11007808Y108169293D01*
X-11002609Y108172265D01*
X-10840749Y108311240D01*
X-10708089Y108478316D01*
X-10609416Y108667463D01*
X-10548289Y108871855D01*
X-10537361Y108980372D01*
X-10536768Y108986259D01*
X-10228298Y108986259D01*
X-10188506Y108776665D01*
X-10109798Y108578378D01*
X-9995015Y108398551D01*
X-9848298Y108243673D01*
X-9843433Y108240183D01*
X-9843430Y108240181D01*
X-9744593Y108169290D01*
X-9674942Y108119333D01*
X-9481201Y108030017D01*
X-9475385Y108028583D01*
X-9475382Y108028582D01*
X-9357080Y107999415D01*
X-9274066Y107978948D01*
X-9268076Y107978639D01*
X-9268074Y107978639D01*
X-9193288Y107974785D01*
X-9061011Y107967969D01*
X-9055076Y107968798D01*
X-9055072Y107968798D01*
X-8888221Y107992099D01*
X-8849724Y107997475D01*
X-8647828Y108066403D01*
X-8555220Y108119333D01*
X-8467813Y108169290D01*
X-8467808Y108169293D01*
X-8462609Y108172265D01*
X-8300749Y108311240D01*
X-8168089Y108478316D01*
X-8069416Y108667463D01*
X-8008289Y108871855D01*
X-7997361Y108980372D01*
X-7996768Y108986259D01*
X-7688298Y108986259D01*
X-7648506Y108776665D01*
X-7569798Y108578378D01*
X-7455015Y108398551D01*
X-7308298Y108243673D01*
X-7303433Y108240183D01*
X-7303430Y108240181D01*
X-7204593Y108169290D01*
X-7134942Y108119333D01*
X-6941201Y108030017D01*
X-6935385Y108028583D01*
X-6935382Y108028582D01*
X-6817080Y107999415D01*
X-6734066Y107978948D01*
X-6728076Y107978639D01*
X-6728074Y107978639D01*
X-6653288Y107974785D01*
X-6521011Y107967969D01*
X-6515076Y107968798D01*
X-6515072Y107968798D01*
X-6348221Y107992099D01*
X-6309724Y107997475D01*
X-6107828Y108066403D01*
X-6015220Y108119333D01*
X-5927813Y108169290D01*
X-5927808Y108169293D01*
X-5922609Y108172265D01*
X-5760749Y108311240D01*
X-5628089Y108478316D01*
X-5529416Y108667463D01*
X-5468289Y108871855D01*
X-5457361Y108980372D01*
X-5447223Y109081056D01*
X-5447223Y109081065D01*
X-5446915Y109084119D01*
X-5446900Y109090000D01*
X-5467162Y109302373D01*
X-5527218Y109507083D01*
X-5529968Y109512423D01*
X-5622153Y109691413D01*
X-5622155Y109691416D01*
X-5624899Y109696744D01*
X-5756683Y109864512D01*
X-5917813Y110004333D01*
X-6102475Y110111163D01*
X-6223868Y110153318D01*
X-6298333Y110179177D01*
X-6298336Y110179178D01*
X-6304007Y110181147D01*
X-6447112Y110201896D01*
X-6509197Y110210898D01*
X-6509200Y110210898D01*
X-6515137Y110211759D01*
X-6728246Y110201896D01*
X-6734070Y110200492D01*
X-6734073Y110200492D01*
X-6929813Y110153318D01*
X-6929815Y110153317D01*
X-6935646Y110151912D01*
X-6941104Y110149430D01*
X-6941108Y110149429D01*
X-7020934Y110113134D01*
X-7129852Y110063612D01*
X-7303857Y109940181D01*
X-7307999Y109935854D01*
X-7447234Y109790408D01*
X-7447238Y109790403D01*
X-7451382Y109786074D01*
X-7454636Y109781035D01*
X-7454638Y109781032D01*
X-7512504Y109691413D01*
X-7567105Y109606850D01*
X-7646850Y109408978D01*
X-7647998Y109403097D01*
X-7648000Y109403092D01*
X-7666544Y109308134D01*
X-7687740Y109199595D01*
X-7688298Y108986259D01*
X-7996768Y108986259D01*
X-7987223Y109081056D01*
X-7987223Y109081065D01*
X-7986915Y109084119D01*
X-7986900Y109090000D01*
X-8007162Y109302373D01*
X-8067218Y109507083D01*
X-8069968Y109512423D01*
X-8162153Y109691413D01*
X-8162155Y109691416D01*
X-8164899Y109696744D01*
X-8296683Y109864512D01*
X-8457813Y110004333D01*
X-8642475Y110111163D01*
X-8763868Y110153318D01*
X-8838333Y110179177D01*
X-8838336Y110179178D01*
X-8844007Y110181147D01*
X-8987112Y110201896D01*
X-9049197Y110210898D01*
X-9049200Y110210898D01*
X-9055137Y110211759D01*
X-9268246Y110201896D01*
X-9274070Y110200492D01*
X-9274073Y110200492D01*
X-9469813Y110153318D01*
X-9469815Y110153317D01*
X-9475646Y110151912D01*
X-9481104Y110149430D01*
X-9481108Y110149429D01*
X-9560934Y110113134D01*
X-9669852Y110063612D01*
X-9843857Y109940181D01*
X-9847999Y109935854D01*
X-9987234Y109790408D01*
X-9987238Y109790403D01*
X-9991382Y109786074D01*
X-9994636Y109781035D01*
X-9994638Y109781032D01*
X-10052504Y109691413D01*
X-10107105Y109606850D01*
X-10186850Y109408978D01*
X-10187998Y109403097D01*
X-10188000Y109403092D01*
X-10206544Y109308134D01*
X-10227740Y109199595D01*
X-10228298Y108986259D01*
X-10536768Y108986259D01*
X-10527223Y109081056D01*
X-10527223Y109081065D01*
X-10526915Y109084119D01*
X-10526900Y109090000D01*
X-10547162Y109302373D01*
X-10607218Y109507083D01*
X-10609968Y109512423D01*
X-10702153Y109691413D01*
X-10702155Y109691416D01*
X-10704899Y109696744D01*
X-10836683Y109864512D01*
X-10997813Y110004333D01*
X-11182475Y110111163D01*
X-11303868Y110153318D01*
X-11378333Y110179177D01*
X-11378336Y110179178D01*
X-11384007Y110181147D01*
X-11527112Y110201896D01*
X-11589197Y110210898D01*
X-11589200Y110210898D01*
X-11595137Y110211759D01*
X-11808246Y110201896D01*
X-11814070Y110200492D01*
X-11814073Y110200492D01*
X-12009813Y110153318D01*
X-12009815Y110153317D01*
X-12015646Y110151912D01*
X-12021104Y110149430D01*
X-12021108Y110149429D01*
X-12100934Y110113134D01*
X-12209852Y110063612D01*
X-12383857Y109940181D01*
X-12387999Y109935854D01*
X-12527234Y109790408D01*
X-12527238Y109790403D01*
X-12531382Y109786074D01*
X-12534636Y109781035D01*
X-12534638Y109781032D01*
X-12592504Y109691413D01*
X-12647105Y109606850D01*
X-12726850Y109408978D01*
X-12727998Y109403097D01*
X-12728000Y109403092D01*
X-12746544Y109308134D01*
X-12767740Y109199595D01*
X-12768298Y108986259D01*
X-15616768Y108986259D01*
X-15607223Y109081056D01*
X-15607223Y109081065D01*
X-15606915Y109084119D01*
X-15606900Y109090000D01*
X-15627162Y109302373D01*
X-15687218Y109507083D01*
X-15689968Y109512423D01*
X-15782153Y109691413D01*
X-15782155Y109691416D01*
X-15784899Y109696744D01*
X-15916683Y109864512D01*
X-16077813Y110004333D01*
X-16262475Y110111163D01*
X-16383868Y110153318D01*
X-16458333Y110179177D01*
X-16458336Y110179178D01*
X-16464007Y110181147D01*
X-16607112Y110201896D01*
X-16669197Y110210898D01*
X-16669200Y110210898D01*
X-16675137Y110211759D01*
X-16888246Y110201896D01*
X-16894070Y110200492D01*
X-16894073Y110200492D01*
X-17089813Y110153318D01*
X-17089815Y110153317D01*
X-17095646Y110151912D01*
X-17101104Y110149430D01*
X-17101108Y110149429D01*
X-17180934Y110113134D01*
X-17289852Y110063612D01*
X-17463857Y109940181D01*
X-17467999Y109935854D01*
X-17607234Y109790408D01*
X-17607238Y109790403D01*
X-17611382Y109786074D01*
X-17614636Y109781035D01*
X-17614638Y109781032D01*
X-17672504Y109691413D01*
X-17727105Y109606850D01*
X-17806850Y109408978D01*
X-17807998Y109403097D01*
X-17808000Y109403092D01*
X-17826544Y109308134D01*
X-17847740Y109199595D01*
X-17848298Y108986259D01*
X-18156768Y108986259D01*
X-18147223Y109081056D01*
X-18147223Y109081065D01*
X-18146915Y109084119D01*
X-18146900Y109090000D01*
X-18167162Y109302373D01*
X-18227218Y109507083D01*
X-18229968Y109512423D01*
X-18322153Y109691413D01*
X-18322155Y109691416D01*
X-18324899Y109696744D01*
X-18456683Y109864512D01*
X-18617813Y110004333D01*
X-18802475Y110111163D01*
X-18923868Y110153318D01*
X-18998333Y110179177D01*
X-18998336Y110179178D01*
X-19004007Y110181147D01*
X-19147112Y110201896D01*
X-19209197Y110210898D01*
X-19209200Y110210898D01*
X-19215137Y110211759D01*
X-19428246Y110201896D01*
X-19434070Y110200492D01*
X-19434073Y110200492D01*
X-19629813Y110153318D01*
X-19629815Y110153317D01*
X-19635646Y110151912D01*
X-19641104Y110149430D01*
X-19641108Y110149429D01*
X-19720934Y110113134D01*
X-19829852Y110063612D01*
X-20003857Y109940181D01*
X-20007999Y109935854D01*
X-20147234Y109790408D01*
X-20147238Y109790403D01*
X-20151382Y109786074D01*
X-20154636Y109781035D01*
X-20154638Y109781032D01*
X-20212504Y109691413D01*
X-20267105Y109606850D01*
X-20346850Y109408978D01*
X-20347998Y109403097D01*
X-20348000Y109403092D01*
X-20366544Y109308134D01*
X-20387740Y109199595D01*
X-20388298Y108986259D01*
X-23236768Y108986259D01*
X-23227223Y109081056D01*
X-23227223Y109081065D01*
X-23226915Y109084119D01*
X-23226900Y109090000D01*
X-23247162Y109302373D01*
X-23307218Y109507083D01*
X-23309968Y109512423D01*
X-23402153Y109691413D01*
X-23402155Y109691416D01*
X-23404899Y109696744D01*
X-23536683Y109864512D01*
X-23697813Y110004333D01*
X-23882475Y110111163D01*
X-24003868Y110153318D01*
X-24078333Y110179177D01*
X-24078336Y110179178D01*
X-24084007Y110181147D01*
X-24227112Y110201896D01*
X-24289197Y110210898D01*
X-24289200Y110210898D01*
X-24295137Y110211759D01*
X-24508246Y110201896D01*
X-24514070Y110200492D01*
X-24514073Y110200492D01*
X-24709813Y110153318D01*
X-24709815Y110153317D01*
X-24715646Y110151912D01*
X-24721104Y110149430D01*
X-24721108Y110149429D01*
X-24800934Y110113134D01*
X-24909852Y110063612D01*
X-25083857Y109940181D01*
X-25087999Y109935854D01*
X-25227234Y109790408D01*
X-25227238Y109790403D01*
X-25231382Y109786074D01*
X-25234636Y109781035D01*
X-25234638Y109781032D01*
X-25292504Y109691413D01*
X-25347105Y109606850D01*
X-25426850Y109408978D01*
X-25427998Y109403097D01*
X-25428000Y109403092D01*
X-25446544Y109308134D01*
X-25467740Y109199595D01*
X-25468298Y108986259D01*
X-25776768Y108986259D01*
X-25767223Y109081056D01*
X-25767223Y109081065D01*
X-25766915Y109084119D01*
X-25766900Y109090000D01*
X-25787162Y109302373D01*
X-25847218Y109507083D01*
X-25849968Y109512423D01*
X-25942153Y109691413D01*
X-25942155Y109691416D01*
X-25944899Y109696744D01*
X-26076683Y109864512D01*
X-26237813Y110004333D01*
X-26422475Y110111163D01*
X-26543868Y110153318D01*
X-26618333Y110179177D01*
X-26618336Y110179178D01*
X-26624007Y110181147D01*
X-26767112Y110201896D01*
X-26829197Y110210898D01*
X-26829200Y110210898D01*
X-26835137Y110211759D01*
X-27048246Y110201896D01*
X-27054070Y110200492D01*
X-27054073Y110200492D01*
X-27249813Y110153318D01*
X-27249815Y110153317D01*
X-27255646Y110151912D01*
X-27261104Y110149430D01*
X-27261108Y110149429D01*
X-27340934Y110113134D01*
X-27449852Y110063612D01*
X-27623857Y109940181D01*
X-27627999Y109935854D01*
X-27767234Y109790408D01*
X-27767238Y109790403D01*
X-27771382Y109786074D01*
X-27774636Y109781035D01*
X-27774638Y109781032D01*
X-27832504Y109691413D01*
X-27887105Y109606850D01*
X-27966850Y109408978D01*
X-27967998Y109403097D01*
X-27968000Y109403092D01*
X-27986544Y109308134D01*
X-28007740Y109199595D01*
X-28008298Y108986259D01*
X-28316768Y108986259D01*
X-28307223Y109081056D01*
X-28307223Y109081065D01*
X-28306915Y109084119D01*
X-28306900Y109090000D01*
X-28327162Y109302373D01*
X-28387218Y109507083D01*
X-28389968Y109512423D01*
X-28482153Y109691413D01*
X-28482155Y109691416D01*
X-28484899Y109696744D01*
X-28616683Y109864512D01*
X-28777813Y110004333D01*
X-28962475Y110111163D01*
X-29083868Y110153318D01*
X-29158333Y110179177D01*
X-29158336Y110179178D01*
X-29164007Y110181147D01*
X-29307112Y110201896D01*
X-29369197Y110210898D01*
X-29369200Y110210898D01*
X-29375137Y110211759D01*
X-29588246Y110201896D01*
X-29594070Y110200492D01*
X-29594073Y110200492D01*
X-29789813Y110153318D01*
X-29789815Y110153317D01*
X-29795646Y110151912D01*
X-29801104Y110149430D01*
X-29801108Y110149429D01*
X-29880934Y110113134D01*
X-29989852Y110063612D01*
X-30163857Y109940181D01*
X-30167999Y109935854D01*
X-30307234Y109790408D01*
X-30307238Y109790403D01*
X-30311382Y109786074D01*
X-30314636Y109781035D01*
X-30314638Y109781032D01*
X-30372504Y109691413D01*
X-30427105Y109606850D01*
X-30506850Y109408978D01*
X-30507998Y109403097D01*
X-30508000Y109403092D01*
X-30526544Y109308134D01*
X-30547740Y109199595D01*
X-30548298Y108986259D01*
X-33396768Y108986259D01*
X-33387223Y109081056D01*
X-33387223Y109081065D01*
X-33386915Y109084119D01*
X-33386900Y109090000D01*
X-33407162Y109302373D01*
X-33467218Y109507083D01*
X-33469968Y109512423D01*
X-33562153Y109691413D01*
X-33562155Y109691416D01*
X-33564899Y109696744D01*
X-33696683Y109864512D01*
X-33857813Y110004333D01*
X-34042475Y110111163D01*
X-34163868Y110153318D01*
X-34238333Y110179177D01*
X-34238336Y110179178D01*
X-34244007Y110181147D01*
X-34387112Y110201896D01*
X-34449197Y110210898D01*
X-34449200Y110210898D01*
X-34455137Y110211759D01*
X-34668246Y110201896D01*
X-34674070Y110200492D01*
X-34674073Y110200492D01*
X-34869813Y110153318D01*
X-34869815Y110153317D01*
X-34875646Y110151912D01*
X-34881104Y110149430D01*
X-34881108Y110149429D01*
X-34960934Y110113134D01*
X-35069852Y110063612D01*
X-35243857Y109940181D01*
X-35247999Y109935854D01*
X-35387234Y109790408D01*
X-35387238Y109790403D01*
X-35391382Y109786074D01*
X-35394636Y109781035D01*
X-35394638Y109781032D01*
X-35452504Y109691413D01*
X-35507105Y109606850D01*
X-35586850Y109408978D01*
X-35587998Y109403097D01*
X-35588000Y109403092D01*
X-35606544Y109308134D01*
X-35627740Y109199595D01*
X-35628298Y108986259D01*
X-35936768Y108986259D01*
X-35927223Y109081056D01*
X-35927223Y109081065D01*
X-35926915Y109084119D01*
X-35926900Y109090000D01*
X-35947162Y109302373D01*
X-36007218Y109507083D01*
X-36009968Y109512423D01*
X-36102153Y109691413D01*
X-36102155Y109691416D01*
X-36104899Y109696744D01*
X-36236683Y109864512D01*
X-36397813Y110004333D01*
X-36582475Y110111163D01*
X-36703868Y110153318D01*
X-36778333Y110179177D01*
X-36778336Y110179178D01*
X-36784007Y110181147D01*
X-36927112Y110201896D01*
X-36989197Y110210898D01*
X-36989200Y110210898D01*
X-36995137Y110211759D01*
X-37208246Y110201896D01*
X-37214070Y110200492D01*
X-37214073Y110200492D01*
X-37409813Y110153318D01*
X-37409815Y110153317D01*
X-37415646Y110151912D01*
X-37421104Y110149430D01*
X-37421108Y110149429D01*
X-37500934Y110113134D01*
X-37609852Y110063612D01*
X-37783857Y109940181D01*
X-37787999Y109935854D01*
X-37927234Y109790408D01*
X-37927238Y109790403D01*
X-37931382Y109786074D01*
X-37934636Y109781035D01*
X-37934638Y109781032D01*
X-37992504Y109691413D01*
X-38047105Y109606850D01*
X-38126850Y109408978D01*
X-38127998Y109403097D01*
X-38128000Y109403092D01*
X-38146544Y109308134D01*
X-38167740Y109199595D01*
X-38168298Y108986259D01*
X-39056000Y108986259D01*
X-39056000Y111450000D01*
X-39035998Y111518121D01*
X-38982342Y111564614D01*
X-38930000Y111576000D01*
X-700000Y111576000D01*
X-631879Y111555998D01*
X-585386Y111502342D01*
X-574000Y111450000D01*
X-574000Y97877473D01*
X-576411Y97852941D01*
X-579000Y97839898D01*
X-569129Y97790377D01*
X-559285Y97740885D01*
X-559256Y97740842D01*
X-559246Y97740791D01*
X-552292Y97730392D01*
X-552290Y97730388D01*
X-531235Y97698904D01*
X-531206Y97698862D01*
X-509822Y97666857D01*
X-509820Y97666855D01*
X-503141Y97656859D01*
X-503098Y97656830D01*
X-503069Y97656787D01*
X-493099Y97650131D01*
X-493098Y97650130D01*
X-468628Y97633794D01*
X-460972Y97628683D01*
X-419115Y97600715D01*
X-419064Y97600705D01*
X-419021Y97600676D01*
X-406705Y97598231D01*
X-406704Y97598231D01*
X-394673Y97595843D01*
X-369257Y97590798D01*
X-320000Y97581000D01*
X-307829Y97583421D01*
X-307828Y97583421D01*
X-306963Y97583593D01*
X-282431Y97586015D01*
X2091117Y97586947D01*
X4413319Y97587859D01*
X7046080Y97588893D01*
X12372480Y97590985D01*
X12397109Y97588564D01*
X12410000Y97586000D01*
X12422171Y97588421D01*
X12435187Y97591010D01*
X12435237Y97591010D01*
X12459485Y97595843D01*
X12496809Y97603267D01*
X12496810Y97603267D01*
X12509115Y97605715D01*
X12509158Y97605744D01*
X12509209Y97605754D01*
X12519605Y97612706D01*
X12519609Y97612708D01*
X12551096Y97633765D01*
X12551138Y97633794D01*
X12583143Y97655178D01*
X12583145Y97655180D01*
X12593141Y97661859D01*
X12593170Y97661902D01*
X12593213Y97661931D01*
X12621317Y97704028D01*
X12649285Y97745885D01*
X12649295Y97745936D01*
X12649324Y97745979D01*
X12659162Y97795541D01*
X12664000Y97819863D01*
X12664000Y97819913D01*
X12669000Y97845102D01*
X12666431Y97857991D01*
X12664000Y97882621D01*
X12664000Y111454638D01*
X12684002Y111522759D01*
X12737658Y111569252D01*
X12790120Y111580638D01*
X13929382Y111579555D01*
G37*
%TD.AperFunction*%
%TD*%
M02*
