%TF.GenerationSoftware,KiCad,Pcbnew,(5.99.0-9004-gab34d94f36)*%
%TF.CreationDate,2021-02-18T22:09:59+01:00*%
%TF.ProjectId,pi-hat-lorawan-gateway-minipci,70692d68-6174-42d6-9c6f-726177616e2d,rev?*%
%TF.SameCoordinates,PX88da2e0PYac9d740*%
%TF.FileFunction,Legend,Top*%
%TF.FilePolarity,Positive*%
%FSLAX46Y46*%
G04 Gerber Fmt 4.6, Leading zero omitted, Abs format (unit mm)*
G04 Created by KiCad (PCBNEW (5.99.0-9004-gab34d94f36)) date 2021-02-18 22:09:59*
%MOMM*%
%LPD*%
G01*
G04 APERTURE LIST*
%ADD10C,0.127000*%
%ADD11C,0.150000*%
%ADD12R,1.727200X1.727200*%
%ADD13O,1.727200X1.727200*%
G04 APERTURE END LIST*
D10*
%TO.C,C1*%
X-37583215Y71484167D02*
X-37552977Y71453929D01*
X-37522739Y71363215D01*
X-37522739Y71302739D01*
X-37552977Y71212024D01*
X-37613453Y71151548D01*
X-37673929Y71121310D01*
X-37794881Y71091072D01*
X-37885596Y71091072D01*
X-38006548Y71121310D01*
X-38067024Y71151548D01*
X-38127500Y71212024D01*
X-38157739Y71302739D01*
X-38157739Y71363215D01*
X-38127500Y71453929D01*
X-38097262Y71484167D01*
X-37522739Y72088929D02*
X-37522739Y71726072D01*
X-37522739Y71907500D02*
X-38157739Y71907500D01*
X-38067024Y71847024D01*
X-38006548Y71786548D01*
X-37976310Y71726072D01*
D11*
%TO.C,Con1*%
X-22801429Y104002858D02*
X-22849048Y103955239D01*
X-22991905Y103907620D01*
X-23087143Y103907620D01*
X-23230000Y103955239D01*
X-23325239Y104050477D01*
X-23372858Y104145715D01*
X-23420477Y104336191D01*
X-23420477Y104479048D01*
X-23372858Y104669524D01*
X-23325239Y104764762D01*
X-23230000Y104860000D01*
X-23087143Y104907620D01*
X-22991905Y104907620D01*
X-22849048Y104860000D01*
X-22801429Y104812381D01*
X-22230000Y103907620D02*
X-22325239Y103955239D01*
X-22372858Y104002858D01*
X-22420477Y104098096D01*
X-22420477Y104383810D01*
X-22372858Y104479048D01*
X-22325239Y104526667D01*
X-22230000Y104574286D01*
X-22087143Y104574286D01*
X-21991905Y104526667D01*
X-21944286Y104479048D01*
X-21896667Y104383810D01*
X-21896667Y104098096D01*
X-21944286Y104002858D01*
X-21991905Y103955239D01*
X-22087143Y103907620D01*
X-22230000Y103907620D01*
X-21468096Y104574286D02*
X-21468096Y103907620D01*
X-21468096Y104479048D02*
X-21420477Y104526667D01*
X-21325239Y104574286D01*
X-21182381Y104574286D01*
X-21087143Y104526667D01*
X-21039524Y104431429D01*
X-21039524Y103907620D01*
X-20039524Y103907620D02*
X-20610953Y103907620D01*
X-20325239Y103907620D02*
X-20325239Y104907620D01*
X-20420477Y104764762D01*
X-20515715Y104669524D01*
X-20610953Y104621905D01*
X-7818096Y102987620D02*
X-7818096Y103987620D01*
X-7437143Y103987620D01*
X-7341905Y103940000D01*
X-7294286Y103892381D01*
X-7246667Y103797143D01*
X-7246667Y103654286D01*
X-7294286Y103559048D01*
X-7341905Y103511429D01*
X-7437143Y103463810D01*
X-7818096Y103463810D01*
X-6294286Y102987620D02*
X-6865715Y102987620D01*
X-6580000Y102987620D02*
X-6580000Y103987620D01*
X-6675239Y103844762D01*
X-6770477Y103749524D01*
X-6865715Y103701905D01*
%TO.C,Con2*%
X-35272858Y78678572D02*
X-35225239Y78630953D01*
X-35177620Y78488096D01*
X-35177620Y78392858D01*
X-35225239Y78250000D01*
X-35320477Y78154762D01*
X-35415715Y78107143D01*
X-35606191Y78059524D01*
X-35749048Y78059524D01*
X-35939524Y78107143D01*
X-36034762Y78154762D01*
X-36130000Y78250000D01*
X-36177620Y78392858D01*
X-36177620Y78488096D01*
X-36130000Y78630953D01*
X-36082381Y78678572D01*
X-35177620Y79250000D02*
X-35225239Y79154762D01*
X-35272858Y79107143D01*
X-35368096Y79059524D01*
X-35653810Y79059524D01*
X-35749048Y79107143D01*
X-35796667Y79154762D01*
X-35844286Y79250000D01*
X-35844286Y79392858D01*
X-35796667Y79488096D01*
X-35749048Y79535715D01*
X-35653810Y79583334D01*
X-35368096Y79583334D01*
X-35272858Y79535715D01*
X-35225239Y79488096D01*
X-35177620Y79392858D01*
X-35177620Y79250000D01*
X-35844286Y80011905D02*
X-35177620Y80011905D01*
X-35749048Y80011905D02*
X-35796667Y80059524D01*
X-35844286Y80154762D01*
X-35844286Y80297620D01*
X-35796667Y80392858D01*
X-35701429Y80440477D01*
X-35177620Y80440477D01*
X-36082381Y80869048D02*
X-36130000Y80916667D01*
X-36177620Y81011905D01*
X-36177620Y81250000D01*
X-36130000Y81345239D01*
X-36082381Y81392858D01*
X-35987143Y81440477D01*
X-35891905Y81440477D01*
X-35749048Y81392858D01*
X-35177620Y80821429D01*
X-35177620Y81440477D01*
X-24477620Y67511905D02*
X-24477620Y67035715D01*
X-24001429Y66988096D01*
X-24049048Y67035715D01*
X-24096667Y67130953D01*
X-24096667Y67369048D01*
X-24049048Y67464286D01*
X-24001429Y67511905D01*
X-23906191Y67559524D01*
X-23668096Y67559524D01*
X-23572858Y67511905D01*
X-23525239Y67464286D01*
X-23477620Y67369048D01*
X-23477620Y67130953D01*
X-23525239Y67035715D01*
X-23572858Y66988096D01*
X-24382381Y67940477D02*
X-24430000Y67988096D01*
X-24477620Y68083334D01*
X-24477620Y68321429D01*
X-24430000Y68416667D01*
X-24382381Y68464286D01*
X-24287143Y68511905D01*
X-24191905Y68511905D01*
X-24049048Y68464286D01*
X-23477620Y67892858D01*
X-23477620Y68511905D01*
X-34177620Y92735715D02*
X-34177620Y92164286D01*
X-34177620Y92450000D02*
X-35177620Y92450000D01*
X-35034762Y92354762D01*
X-34939524Y92259524D01*
X-34891905Y92164286D01*
D10*
%TO.C,C2*%
X-37543215Y74034167D02*
X-37512977Y74003929D01*
X-37482739Y73913215D01*
X-37482739Y73852739D01*
X-37512977Y73762024D01*
X-37573453Y73701548D01*
X-37633929Y73671310D01*
X-37754881Y73641072D01*
X-37845596Y73641072D01*
X-37966548Y73671310D01*
X-38027024Y73701548D01*
X-38087500Y73762024D01*
X-38117739Y73852739D01*
X-38117739Y73913215D01*
X-38087500Y74003929D01*
X-38057262Y74034167D01*
X-38057262Y74276072D02*
X-38087500Y74306310D01*
X-38117739Y74366786D01*
X-38117739Y74517977D01*
X-38087500Y74578453D01*
X-38057262Y74608691D01*
X-37996786Y74638929D01*
X-37936310Y74638929D01*
X-37845596Y74608691D01*
X-37482739Y74245834D01*
X-37482739Y74638929D01*
%TO.C,D1*%
X-16078691Y100022739D02*
X-16078691Y100657739D01*
X-15927500Y100657739D01*
X-15836786Y100627500D01*
X-15776310Y100567024D01*
X-15746072Y100506548D01*
X-15715834Y100385596D01*
X-15715834Y100294881D01*
X-15746072Y100173929D01*
X-15776310Y100113453D01*
X-15836786Y100052977D01*
X-15927500Y100022739D01*
X-16078691Y100022739D01*
X-15111072Y100022739D02*
X-15473929Y100022739D01*
X-15292500Y100022739D02*
X-15292500Y100657739D01*
X-15352977Y100567024D01*
X-15413453Y100506548D01*
X-15473929Y100476310D01*
%TO.C,R3*%
X-18345834Y100002739D02*
X-18557500Y100305120D01*
X-18708691Y100002739D02*
X-18708691Y100637739D01*
X-18466786Y100637739D01*
X-18406310Y100607500D01*
X-18376072Y100577262D01*
X-18345834Y100516786D01*
X-18345834Y100426072D01*
X-18376072Y100365596D01*
X-18406310Y100335358D01*
X-18466786Y100305120D01*
X-18708691Y100305120D01*
X-18134167Y100637739D02*
X-17741072Y100637739D01*
X-17952739Y100395834D01*
X-17862024Y100395834D01*
X-17801548Y100365596D01*
X-17771310Y100335358D01*
X-17741072Y100274881D01*
X-17741072Y100123691D01*
X-17771310Y100063215D01*
X-17801548Y100032977D01*
X-17862024Y100002739D01*
X-18043453Y100002739D01*
X-18103929Y100032977D01*
X-18134167Y100063215D01*
%TO.C,C3*%
X-32715834Y103153215D02*
X-32746072Y103122977D01*
X-32836786Y103092739D01*
X-32897262Y103092739D01*
X-32987977Y103122977D01*
X-33048453Y103183453D01*
X-33078691Y103243929D01*
X-33108929Y103364881D01*
X-33108929Y103455596D01*
X-33078691Y103576548D01*
X-33048453Y103637024D01*
X-32987977Y103697500D01*
X-32897262Y103727739D01*
X-32836786Y103727739D01*
X-32746072Y103697500D01*
X-32715834Y103667262D01*
X-32504167Y103727739D02*
X-32111072Y103727739D01*
X-32322739Y103485834D01*
X-32232024Y103485834D01*
X-32171548Y103455596D01*
X-32141310Y103425358D01*
X-32111072Y103364881D01*
X-32111072Y103213691D01*
X-32141310Y103153215D01*
X-32171548Y103122977D01*
X-32232024Y103092739D01*
X-32413453Y103092739D01*
X-32473929Y103122977D01*
X-32504167Y103153215D01*
%TO.C,C4*%
X-32465834Y97363215D02*
X-32496072Y97332977D01*
X-32586786Y97302739D01*
X-32647262Y97302739D01*
X-32737977Y97332977D01*
X-32798453Y97393453D01*
X-32828691Y97453929D01*
X-32858929Y97574881D01*
X-32858929Y97665596D01*
X-32828691Y97786548D01*
X-32798453Y97847024D01*
X-32737977Y97907500D01*
X-32647262Y97937739D01*
X-32586786Y97937739D01*
X-32496072Y97907500D01*
X-32465834Y97877262D01*
X-31921548Y97726072D02*
X-31921548Y97302739D01*
X-32072739Y97967977D02*
X-32223929Y97514405D01*
X-31830834Y97514405D01*
D11*
%TO.C,U1*%
X-32521905Y101037620D02*
X-32521905Y100228096D01*
X-32474286Y100132858D01*
X-32426667Y100085239D01*
X-32331429Y100037620D01*
X-32140953Y100037620D01*
X-32045715Y100085239D01*
X-31998096Y100132858D01*
X-31950477Y100228096D01*
X-31950477Y101037620D01*
X-30950477Y100037620D02*
X-31521905Y100037620D01*
X-31236191Y100037620D02*
X-31236191Y101037620D01*
X-31331429Y100894762D01*
X-31426667Y100799524D01*
X-31521905Y100751905D01*
%TO.C,C1*%
X-37220000Y70400000D02*
X-37220000Y71100000D01*
X-37220000Y72700000D02*
X-37220000Y72000000D01*
X-36020000Y72700000D02*
X-37220000Y72700000D01*
X-36020000Y70400000D02*
X-37220000Y70400000D01*
X-36020000Y71100000D02*
X-36020000Y70400000D01*
X-36020000Y72000000D02*
X-36020000Y72700000D01*
%TO.C,Con1*%
X-38600000Y105000000D02*
X-37050000Y105000000D01*
X-38600000Y106550000D02*
X-38600000Y105000000D01*
X-5300000Y110360000D02*
X-5300000Y105280000D01*
X-35780000Y107820000D02*
X-35780000Y105280000D01*
X-38320000Y110360000D02*
X-5300000Y110360000D01*
X-38320000Y107820000D02*
X-35780000Y107820000D01*
X-38320000Y110360000D02*
X-38320000Y107820000D01*
X-35780000Y105280000D02*
X-5300000Y105280000D01*
%TO.C,Con2*%
X-24230000Y64700000D02*
X-24230000Y66700000D01*
X21370000Y94800000D02*
X21370000Y64700000D01*
X-31530000Y64700000D02*
X-24230000Y64700000D01*
X-33430000Y67950000D02*
X-33430000Y66350000D01*
X-25330000Y92800000D02*
X-25330000Y91600000D01*
X-33430000Y85550000D02*
X-33430000Y82350000D01*
X21370000Y64700000D02*
X-24230000Y64700000D01*
X-25330000Y66700000D02*
X-24230000Y66700000D01*
X-33430000Y93150000D02*
X-33430000Y91950000D01*
X-25330000Y85150000D02*
X-25330000Y81950000D01*
X-24230000Y92800000D02*
X-25330000Y92800000D01*
X-24230000Y94800000D02*
X-24230000Y92800000D01*
X-31530000Y94800000D02*
X-24230000Y94800000D01*
X-25330000Y67550000D02*
X-25330000Y66700000D01*
X21370000Y94800000D02*
X-24230000Y94800000D01*
X20820000Y91850000D02*
G75*
G03*
X20820000Y91850000I-2500000J0D01*
G01*
X20820000Y67650000D02*
G75*
G03*
X20820000Y67650000I-2500000J0D01*
G01*
%TO.C,C2*%
X-37220000Y73620000D02*
X-37220000Y72920000D01*
X-36020000Y72920000D02*
X-36020000Y73620000D01*
X-36020000Y75220000D02*
X-36020000Y74520000D01*
X-37220000Y74520000D02*
X-37220000Y75220000D01*
X-37220000Y72920000D02*
X-36020000Y72920000D01*
X-37220000Y75220000D02*
X-36020000Y75220000D01*
%TO.C,D1*%
X-15850000Y99460000D02*
X-15850000Y98860000D01*
X-15350000Y99160000D02*
X-15850000Y98860000D01*
X-16750000Y98560000D02*
X-16050000Y98560000D01*
X-16750000Y99760000D02*
X-16750000Y98560000D01*
X-14450000Y98560000D02*
X-15150000Y98560000D01*
X-16050000Y99760000D02*
X-16750000Y99760000D01*
X-15150000Y99760000D02*
X-14450000Y99760000D01*
X-15850000Y99460000D02*
X-15350000Y99160000D01*
X-14450000Y99760000D02*
X-14450000Y98560000D01*
X-15350000Y99560000D02*
X-15350000Y98760000D01*
%TO.C,R3*%
X-19440000Y98560000D02*
X-19440000Y99760000D01*
X-17140000Y99760000D02*
X-17840000Y99760000D01*
X-18740000Y98560000D02*
X-19440000Y98560000D01*
X-19440000Y99760000D02*
X-18740000Y99760000D01*
X-17840000Y98560000D02*
X-17140000Y98560000D01*
X-17140000Y98560000D02*
X-17140000Y99760000D01*
%TO.C,C3*%
X-33380000Y102790000D02*
X-34080000Y102790000D01*
X-34080000Y103990000D02*
X-33380000Y103990000D01*
X-35680000Y103990000D02*
X-35680000Y102790000D01*
X-35680000Y102790000D02*
X-34980000Y102790000D01*
X-33380000Y103990000D02*
X-33380000Y102790000D01*
X-34980000Y103990000D02*
X-35680000Y103990000D01*
%TO.C,C4*%
X-35480000Y96980000D02*
X-34780000Y96980000D01*
X-33180000Y96980000D02*
X-33880000Y96980000D01*
X-33180000Y98180000D02*
X-33180000Y96980000D01*
X-33880000Y98180000D02*
X-33180000Y98180000D01*
X-34780000Y98180000D02*
X-35480000Y98180000D01*
X-35480000Y98180000D02*
X-35480000Y96980000D01*
%TO.C,U1*%
X-32920000Y99030000D02*
X-32920000Y102030000D01*
X-36220000Y100530000D02*
X-36220000Y102030000D01*
%TD*%
D12*
%TO.C,Con1*%
X-37050000Y106550000D03*
D13*
X-37050000Y109090000D03*
X-34510000Y106550000D03*
X-34510000Y109090000D03*
X-31970000Y106550000D03*
X-31970000Y109090000D03*
X-29430000Y106550000D03*
X-29430000Y109090000D03*
X-26890000Y106550000D03*
X-26890000Y109090000D03*
X-24350000Y106550000D03*
X-24350000Y109090000D03*
X-21810000Y106550000D03*
X-21810000Y109090000D03*
X-19270000Y106550000D03*
X-19270000Y109090000D03*
X-16730000Y106550000D03*
X-16730000Y109090000D03*
X-14190000Y106550000D03*
X-14190000Y109090000D03*
X-11650000Y106550000D03*
X-11650000Y109090000D03*
X-9110000Y106550000D03*
X-9110000Y109090000D03*
X-6570000Y106550000D03*
X-6570000Y109090000D03*
%TD*%
M02*
