M48
; DRILL file {KiCad 5.1.9-73d0e3b20d~88~ubuntu20.04.1} date Thu Jan 21 22:18:50 2021
; FORMAT={-:-/ absolute / inch / decimal}
; #@! TF.CreationDate,2021-01-21T22:18:50+01:00
; #@! TF.GenerationSoftware,Kicad,Pcbnew,5.1.9-73d0e3b20d~88~ubuntu20.04.1
; #@! TF.FileFunction,Plated,1,2,PTH
FMAT,2
INCH
T1C0.0157
T2C0.0400
%
G90
G05
T1
X4.2161Y-4.1189
X4.4079Y-4.0098
X4.4185Y-3.7122
X4.4205Y-3.6449
X4.4295Y-4.1028
X4.4295Y-4.3413
X4.4622Y-3.3413
X4.4724Y-4.0181
X4.4791Y-4.224
X4.5012Y-4.098
X4.5024Y-3.4346
X4.5335Y-4.1505
X4.5339Y-4.0106
X4.5421Y-3.9539
X4.5425Y-3.2138
X4.6248Y-3.0622
X4.636Y-3.1939
X4.6661Y-3.0264
X4.7276Y-4.0114
X4.7343Y-3.3189
X4.7398Y-3.5823
X4.7732Y-3.4339
X4.7941Y-3.2004
X4.8024Y-3.5386
X4.8291Y-3.95
X4.865Y-3.0677
X4.8941Y-3.5295
X4.9028Y-3.0378
X4.9647Y-3.6311
X4.9763Y-3.8777
X4.9957Y-3.2862
X5.002Y-3.4591
X5.0035Y-4.1551
X5.0051Y-3.6035
X5.0142Y-3.8886
X5.015Y-3.3323
X5.0966Y-3.2265
X5.1618Y-3.9224
T2
X4.1909Y-2.8311
X4.1909Y-2.9311
X4.2909Y-2.8311
X4.2909Y-2.9311
X4.3909Y-2.8311
X4.3909Y-2.9311
X4.4909Y-2.8311
X4.4909Y-2.9311
X4.5909Y-2.8311
X4.5909Y-2.9311
X4.6909Y-2.8311
X4.6909Y-2.9311
X4.7909Y-2.8311
X4.7909Y-2.9311
X4.8909Y-2.8311
X4.8909Y-2.9311
X4.9909Y-2.8311
X4.9909Y-2.9311
X5.0909Y-2.8311
X5.0909Y-2.9311
X5.1909Y-2.8311
X5.1909Y-2.9311
X5.2909Y-2.8311
X5.2909Y-2.9311
X5.3909Y-2.8311
X5.3909Y-2.9311
T0
M30
