%TF.GenerationSoftware,KiCad,Pcbnew,5.99.0-unknown-140f4a8d21~125~ubuntu20.04.1*%
%TF.CreationDate,2021-04-01T23:20:44+02:00*%
%TF.ProjectId,pi-hat-lorawan-gateway-minipci,70692d68-6174-42d6-9c6f-726177616e2d,rev?*%
%TF.SameCoordinates,Original*%
%TF.FileFunction,Soldermask,Top*%
%TF.FilePolarity,Negative*%
%FSLAX46Y46*%
G04 Gerber Fmt 4.6, Leading zero omitted, Abs format (unit mm)*
G04 Created by KiCad (PCBNEW 5.99.0-unknown-140f4a8d21~125~ubuntu20.04.1) date 2021-04-01 23:20:44*
%MOMM*%
%LPD*%
G01*
G04 APERTURE LIST*
G04 Aperture macros list*
%AMRoundRect*
0 Rectangle with rounded corners*
0 $1 Rounding radius*
0 $2 $3 $4 $5 $6 $7 $8 $9 X,Y pos of 4 corners*
0 Add a 4 corners polygon primitive as box body*
4,1,4,$2,$3,$4,$5,$6,$7,$8,$9,$2,$3,0*
0 Add four circle primitives for the rounded corners*
1,1,$1+$1,$2,$3*
1,1,$1+$1,$4,$5*
1,1,$1+$1,$6,$7*
1,1,$1+$1,$8,$9*
0 Add four rect primitives between the rounded corners*
20,1,$1+$1,$2,$3,$4,$5,0*
20,1,$1+$1,$4,$5,$6,$7,0*
20,1,$1+$1,$6,$7,$8,$9,0*
20,1,$1+$1,$8,$9,$2,$3,0*%
G04 Aperture macros list end*
%ADD10R,1.727200X1.727200*%
%ADD11O,1.727200X1.727200*%
%ADD12C,1.600000*%
%ADD13C,2.600000*%
%ADD14C,1.100000*%
%ADD15RoundRect,0.010000X-1.600000X1.150000X-1.600000X-1.150000X1.600000X-1.150000X1.600000X1.150000X0*%
%ADD16RoundRect,0.010000X-1.000000X0.265000X-1.000000X-0.265000X1.000000X-0.265000X1.000000X0.265000X0*%
%ADD17RoundRect,0.010000X-0.500000X0.300000X-0.500000X-0.300000X0.500000X-0.300000X0.500000X0.300000X0*%
%ADD18RoundRect,0.010000X0.500000X-0.300000X0.500000X0.300000X-0.500000X0.300000X-0.500000X-0.300000X0*%
%ADD19RoundRect,0.010000X-0.300000X-0.500000X0.300000X-0.500000X0.300000X0.500000X-0.300000X0.500000X0*%
%ADD20RoundRect,0.010000X0.300000X0.500000X-0.300000X0.500000X-0.300000X-0.500000X0.300000X-0.500000X0*%
%ADD21RoundRect,0.050000X0.225000X-0.315000X0.225000X0.315000X-0.225000X0.315000X-0.225000X-0.315000X0*%
%ADD22RoundRect,0.050000X1.300000X-0.850000X1.300000X0.850000X-1.300000X0.850000X-1.300000X-0.850000X0*%
G04 APERTURE END LIST*
D10*
%TO.C,Con1*%
X106450000Y-74450000D03*
D11*
X106450000Y-71910000D03*
X108990000Y-74450000D03*
X108990000Y-71910000D03*
X111530000Y-74450000D03*
X111530000Y-71910000D03*
X114070000Y-74450000D03*
X114070000Y-71910000D03*
X116610000Y-74450000D03*
X116610000Y-71910000D03*
X119150000Y-74450000D03*
X119150000Y-71910000D03*
X121690000Y-74450000D03*
X121690000Y-71910000D03*
X124230000Y-74450000D03*
X124230000Y-71910000D03*
X126770000Y-74450000D03*
X126770000Y-71910000D03*
X129310000Y-74450000D03*
X129310000Y-71910000D03*
X131850000Y-74450000D03*
X131850000Y-71910000D03*
X134390000Y-74450000D03*
X134390000Y-71910000D03*
X136930000Y-74450000D03*
X136930000Y-71910000D03*
%TD*%
D12*
%TO.C,Con2*%
X113770000Y-88750000D03*
D13*
X161820000Y-89150000D03*
D14*
X113770000Y-113750000D03*
D13*
X161820000Y-113350000D03*
D15*
X110270000Y-115900000D03*
X110270000Y-86600000D03*
D16*
X109670000Y-89450000D03*
X117870000Y-89850000D03*
X109670000Y-90250000D03*
X117870000Y-90650000D03*
X109670000Y-91050000D03*
X117870000Y-91450000D03*
X109670000Y-91850000D03*
X117870000Y-92250000D03*
X109670000Y-92650000D03*
X117870000Y-93050000D03*
X109670000Y-93450000D03*
X117870000Y-93850000D03*
X109670000Y-94250000D03*
X117870000Y-94650000D03*
X109670000Y-95050000D03*
X117870000Y-95450000D03*
X109670000Y-99050000D03*
X117870000Y-99450000D03*
X109670000Y-99850000D03*
X117870000Y-100250000D03*
X109670000Y-100650000D03*
X117870000Y-101050000D03*
X109670000Y-101450000D03*
X117870000Y-101850000D03*
X109670000Y-102250000D03*
X117870000Y-102650000D03*
X109670000Y-103050000D03*
X117870000Y-103450000D03*
X109670000Y-103850000D03*
X117870000Y-104250000D03*
X109670000Y-104650000D03*
X117870000Y-105050000D03*
X109670000Y-105450000D03*
X117870000Y-105850000D03*
X109670000Y-106250000D03*
X117870000Y-106650000D03*
X109670000Y-107050000D03*
X117870000Y-107450000D03*
X109670000Y-107850000D03*
X117870000Y-108250000D03*
X109670000Y-108650000D03*
X117870000Y-109050000D03*
X109670000Y-109450000D03*
X117870000Y-109850000D03*
X109670000Y-110250000D03*
X117870000Y-110650000D03*
X109670000Y-111050000D03*
X117870000Y-111450000D03*
X109670000Y-111850000D03*
X117870000Y-112250000D03*
X109670000Y-112650000D03*
X117870000Y-113050000D03*
%TD*%
D17*
%TO.C,C1*%
X106880000Y-108750000D03*
X106880000Y-110150000D03*
%TD*%
D18*
%TO.C,C2*%
X106880000Y-107630000D03*
X106880000Y-106230000D03*
%TD*%
D19*
%TO.C,D1*%
X127200000Y-81840000D03*
X128600000Y-81840000D03*
%TD*%
D20*
%TO.C,R3*%
X125910000Y-81840000D03*
X124510000Y-81840000D03*
%TD*%
D19*
%TO.C,C3*%
X108270000Y-77610000D03*
X109670000Y-77610000D03*
%TD*%
%TO.C,C4*%
X108470000Y-83420000D03*
X109870000Y-83420000D03*
%TD*%
D21*
%TO.C,U1*%
X107980000Y-81810000D03*
X108930000Y-81810000D03*
X109880000Y-81810000D03*
X109880000Y-79130000D03*
X108930000Y-79130000D03*
X107980000Y-79130000D03*
D22*
X108930000Y-80470000D03*
%TD*%
M02*
