%TF.GenerationSoftware,KiCad,Pcbnew,(5.99.0-9801-g46d71f0d23)*%
%TF.CreationDate,2021-03-17T00:26:50+01:00*%
%TF.ProjectId,pi-hat-lorawan-gateway-minipci,70692d68-6174-42d6-9c6f-726177616e2d,rev?*%
%TF.SameCoordinates,Original*%
%TF.FileFunction,Copper,L1,Top*%
%TF.FilePolarity,Positive*%
%FSLAX46Y46*%
G04 Gerber Fmt 4.6, Leading zero omitted, Abs format (unit mm)*
G04 Created by KiCad (PCBNEW (5.99.0-9801-g46d71f0d23)) date 2021-03-17 00:26:50*
%MOMM*%
%LPD*%
G01*
G04 APERTURE LIST*
%TA.AperFunction,SMDPad,CuDef*%
%ADD10R,2.300000X3.200000*%
%TD*%
%TA.AperFunction,SMDPad,CuDef*%
%ADD11R,0.530000X2.000000*%
%TD*%
%TA.AperFunction,SMDPad,CuDef*%
%ADD12R,1.000000X0.600000*%
%TD*%
%TA.AperFunction,SMDPad,CuDef*%
%ADD13R,0.600000X1.000000*%
%TD*%
%TA.AperFunction,SMDPad,CuDef*%
%ADD14R,0.450000X0.630000*%
%TD*%
%TA.AperFunction,SMDPad,CuDef*%
%ADD15R,2.600000X1.700000*%
%TD*%
%TA.AperFunction,SMDPad,CuDef*%
%ADD16R,1.800000X4.000000*%
%TD*%
%TA.AperFunction,ViaPad*%
%ADD17C,0.900000*%
%TD*%
%TA.AperFunction,Conductor*%
%ADD18C,0.254000*%
%TD*%
G04 APERTURE END LIST*
D10*
%TO.P,Con2,0*%
%TO.N,N/C*%
X195300000Y-84782500D03*
X224600000Y-84782500D03*
D11*
%TO.P,Con2,1,1*%
X221750000Y-84182500D03*
%TO.P,Con2,2,2*%
%TO.N,3V3*%
X221350000Y-92382500D03*
%TO.P,Con2,3,3*%
%TO.N,N/C*%
X220950000Y-84182500D03*
%TO.P,Con2,4,4*%
%TO.N,GND*%
X220550000Y-92382500D03*
%TO.P,Con2,5,5*%
%TO.N,N/C*%
X220150000Y-84182500D03*
%TO.P,Con2,6,6*%
X219750000Y-92382500D03*
%TO.P,Con2,7,7*%
X219350000Y-84182500D03*
%TO.P,Con2,8,8*%
X218950000Y-92382500D03*
%TO.P,Con2,9,9*%
%TO.N,GND*%
X218550000Y-84182500D03*
%TO.P,Con2,10,10*%
%TO.N,N/C*%
X218150000Y-92382500D03*
%TO.P,Con2,11,11*%
X217750000Y-84182500D03*
%TO.P,Con2,12,12*%
X217350000Y-92382500D03*
%TO.P,Con2,13,13*%
X216950000Y-84182500D03*
%TO.P,Con2,14,14*%
X216550000Y-92382500D03*
%TO.P,Con2,15,15*%
%TO.N,GND*%
X216150000Y-84182500D03*
%TO.P,Con2,16,16*%
%TO.N,N/C*%
X215750000Y-92382500D03*
%TO.P,Con2,17,17*%
X212150000Y-84182500D03*
%TO.P,Con2,18,18*%
%TO.N,GND*%
X211750000Y-92382500D03*
%TO.P,Con2,19,19*%
%TO.N,/GPIO23*%
X211350000Y-84182500D03*
%TO.P,Con2,20,20*%
%TO.N,GND*%
X210950000Y-92382500D03*
%TO.P,Con2,21,21*%
X210550000Y-84182500D03*
%TO.P,Con2,22,22*%
%TO.N,/GPIO25*%
X210150000Y-92382500D03*
%TO.P,Con2,23,23*%
%TO.N,N/C*%
X209750000Y-84182500D03*
%TO.P,Con2,24,24*%
%TO.N,3V3*%
X209350000Y-92382500D03*
%TO.P,Con2,25,25*%
%TO.N,N/C*%
X208950000Y-84182500D03*
%TO.P,Con2,26,26*%
%TO.N,GND*%
X208550000Y-92382500D03*
%TO.P,Con2,27,27*%
X208150000Y-84182500D03*
%TO.P,Con2,28,28*%
%TO.N,N/C*%
X207750000Y-92382500D03*
%TO.P,Con2,29,29*%
%TO.N,GND*%
X207350000Y-84182500D03*
%TO.P,Con2,30,30*%
%TO.N,N/C*%
X206950000Y-92382500D03*
%TO.P,Con2,31,31*%
X206550000Y-84182500D03*
%TO.P,Con2,32,32*%
X206150000Y-92382500D03*
%TO.P,Con2,33,33*%
X205750000Y-84182500D03*
%TO.P,Con2,34,34*%
%TO.N,GND*%
X205350000Y-92382500D03*
%TO.P,Con2,35,35*%
X204950000Y-84182500D03*
%TO.P,Con2,36,36*%
%TO.N,N/C*%
X204550000Y-92382500D03*
%TO.P,Con2,37,37*%
%TO.N,GND*%
X204150000Y-84182500D03*
%TO.P,Con2,38,38*%
%TO.N,N/C*%
X203750000Y-92382500D03*
%TO.P,Con2,39,39*%
%TO.N,3V3*%
X203350000Y-84182500D03*
%TO.P,Con2,40,40*%
%TO.N,GND*%
X202950000Y-92382500D03*
%TO.P,Con2,41,41*%
%TO.N,3V3*%
X202550000Y-84182500D03*
%TO.P,Con2,42,42*%
%TO.N,N/C*%
X202150000Y-92382500D03*
%TO.P,Con2,43,43*%
%TO.N,GND*%
X201750000Y-84182500D03*
%TO.P,Con2,44,44*%
%TO.N,N/C*%
X201350000Y-92382500D03*
%TO.P,Con2,45,45*%
%TO.N,/GPIO11(SCLK)*%
X200950000Y-84182500D03*
%TO.P,Con2,46,46*%
%TO.N,N/C*%
X200550000Y-92382500D03*
%TO.P,Con2,47,47*%
%TO.N,/GPIO9(MISO)*%
X200150000Y-84182500D03*
%TO.P,Con2,48,48*%
%TO.N,N/C*%
X199750000Y-92382500D03*
%TO.P,Con2,49,49*%
%TO.N,/GPIO10(MOSI)*%
X199350000Y-84182500D03*
%TO.P,Con2,50,50*%
%TO.N,GND*%
X198950000Y-92382500D03*
%TO.P,Con2,51,51*%
%TO.N,/GPIO8(CE0)*%
X198550000Y-84182500D03*
%TO.P,Con2,52,52*%
%TO.N,3V3*%
X198150000Y-92382500D03*
%TD*%
D12*
%TO.P,C1,1*%
%TO.N,3V3*%
X187570000Y-71560000D03*
%TO.P,C1,2*%
%TO.N,GND*%
X187570000Y-72960000D03*
%TD*%
%TO.P,C2,1*%
%TO.N,3V3*%
X187570000Y-70440000D03*
%TO.P,C2,2*%
%TO.N,GND*%
X187570000Y-69040000D03*
%TD*%
D13*
%TO.P,D1,1,A*%
%TO.N,Net-(D1-Pad1)*%
X216440000Y-67840000D03*
%TO.P,D1,2,K*%
%TO.N,GND*%
X217840000Y-67840000D03*
%TD*%
%TO.P,R3,1*%
%TO.N,Net-(D1-Pad1)*%
X215150000Y-67840000D03*
%TO.P,R3,2*%
%TO.N,3V3*%
X213750000Y-67840000D03*
%TD*%
%TO.P,C3,1*%
%TO.N,5V*%
X189790000Y-68160000D03*
%TO.P,C3,2*%
%TO.N,GND*%
X191190000Y-68160000D03*
%TD*%
%TO.P,C4,1*%
%TO.N,3V3*%
X189990000Y-73970000D03*
%TO.P,C4,2*%
%TO.N,GND*%
X191390000Y-73970000D03*
%TD*%
D14*
%TO.P,U1,1,VOUT*%
%TO.N,3V3*%
X189500000Y-72360000D03*
%TO.P,U1,2,ADJ/SENSE*%
X190450000Y-72360000D03*
%TO.P,U1,3,GND*%
%TO.N,GND*%
X191400000Y-72360000D03*
%TO.P,U1,4,PG*%
%TO.N,N/C*%
X191400000Y-69680000D03*
%TO.P,U1,5,EN*%
%TO.N,5V*%
X190450000Y-69680000D03*
%TO.P,U1,6,VIN*%
X189500000Y-69680000D03*
D15*
%TO.P,U1,EP,EP*%
%TO.N,GND*%
X190450000Y-71020000D03*
%TD*%
D16*
%TO.P,Con1,1,1*%
%TO.N,5V*%
X185550000Y-60110000D03*
%TO.P,Con1,3,3*%
X188090000Y-60110000D03*
%TO.P,Con1,5,5*%
%TO.N,GND*%
X190630000Y-60110000D03*
%TO.P,Con1,7,7*%
%TO.N,N/C*%
X193170000Y-60110000D03*
%TO.P,Con1,9,9*%
X195710000Y-60110000D03*
%TO.P,Con1,11,11*%
X198250000Y-60110000D03*
%TO.P,Con1,13,13*%
%TO.N,GND*%
X200790000Y-60110000D03*
%TO.P,Con1,15,15*%
%TO.N,/GPIO23*%
X203330000Y-60110000D03*
%TO.P,Con1,17,17*%
%TO.N,N/C*%
X205870000Y-60110000D03*
%TO.P,Con1,19,19*%
%TO.N,GND*%
X208410000Y-60110000D03*
%TO.P,Con1,21,21*%
%TO.N,/GPIO25*%
X210950000Y-60110000D03*
%TO.P,Con1,23,23*%
%TO.N,/GPIO8(CE0)*%
X213490000Y-60110000D03*
%TO.P,Con1,25,25*%
%TO.N,N/C*%
X216030000Y-60110000D03*
%TO.P,Con1,27,27*%
X218570000Y-60110000D03*
%TO.P,Con1,29,29*%
%TO.N,GND*%
X221110000Y-60110000D03*
%TO.P,Con1,31,31*%
%TO.N,N/C*%
X223650000Y-60110000D03*
%TO.P,Con1,33,33*%
%TO.N,GND*%
X226190000Y-60110000D03*
%TO.P,Con1,35,35*%
%TO.N,N/C*%
X228730000Y-60110000D03*
%TO.P,Con1,37,37*%
X231270000Y-60110000D03*
%TO.P,Con1,39,39*%
X233810000Y-60110000D03*
%TD*%
D17*
%TO.N,GND*%
X200750000Y-63900000D03*
X195690000Y-63880000D03*
%TO.N,/GPIO8(CE0)*%
X203190000Y-80550000D03*
X212530000Y-64210000D03*
%TO.N,3V3*%
X205870000Y-63600000D03*
X205870000Y-65250000D03*
X205870000Y-66880000D03*
X204880000Y-67870000D03*
%TO.N,GND*%
X192610000Y-72360000D03*
X192470000Y-73960000D03*
X185800000Y-73040000D03*
X185740000Y-69330000D03*
%TO.N,3V3*%
X185550000Y-62990000D03*
X185550000Y-64980000D03*
X185550000Y-66680000D03*
X186635000Y-67835000D03*
X187470000Y-74160000D03*
X187770000Y-75630000D03*
X189460000Y-75630000D03*
X191230000Y-75630000D03*
%TO.N,GND*%
X199060000Y-94560000D03*
X202950000Y-94610000D03*
X205490000Y-94610000D03*
X208280000Y-94860000D03*
X212410000Y-94660000D03*
X210470000Y-94950000D03*
X210590000Y-86180000D03*
X208180000Y-86200000D03*
X207330000Y-82030000D03*
X201700000Y-86210000D03*
X205000000Y-86150000D03*
X204120000Y-82240000D03*
%TO.N,/GPIO23*%
X205720000Y-70890000D03*
X203340000Y-63780000D03*
%TO.N,/GPIO25*%
X209960000Y-63640000D03*
X208758169Y-69708169D03*
%TO.N,/GPIO11(SCLK)*%
X202180000Y-81610000D03*
%TO.N,/GPIO9(MISO)*%
X200760000Y-81630000D03*
%TO.N,/GPIO10(MOSI)*%
X199597613Y-81647613D03*
%TD*%
D18*
%TO.N,GND*%
X200790000Y-63860000D02*
X200750000Y-63900000D01*
X200790000Y-60110000D02*
X200790000Y-63860000D01*
%TO.N,/GPIO25*%
X210150000Y-92382500D02*
X210150000Y-89970000D01*
X210150000Y-89970000D02*
X213292989Y-86827011D01*
X213292989Y-86827011D02*
X213292989Y-74242989D01*
X213292989Y-74242989D02*
X208758169Y-69708169D01*
%TO.N,/GPIO9(MISO)*%
X200428614Y-82046494D02*
X200150000Y-82325108D01*
%TO.N,/GPIO10(MOSI)*%
X199350000Y-81895226D02*
X199597613Y-81647613D01*
%TO.N,/GPIO8(CE0)*%
X213490000Y-60110000D02*
X213490000Y-63250000D01*
%TO.N,/GPIO9(MISO)*%
X200150000Y-82325108D02*
X200150000Y-84182500D01*
X200760000Y-81630000D02*
X200428614Y-81961386D01*
%TO.N,/GPIO10(MOSI)*%
X199350000Y-84182500D02*
X199350000Y-81895226D01*
%TO.N,/GPIO9(MISO)*%
X200428614Y-81961386D02*
X200428614Y-82046494D01*
%TO.N,/GPIO8(CE0)*%
X199520000Y-80550000D02*
X198550000Y-81520000D01*
X213490000Y-63250000D02*
X212530000Y-64210000D01*
X198550000Y-81520000D02*
X198550000Y-84182500D01*
X203190000Y-80550000D02*
X199520000Y-80550000D01*
%TO.N,Net-(D1-Pad1)*%
X216440000Y-67840000D02*
X215150000Y-67840000D01*
%TO.N,GND*%
X191400000Y-72360000D02*
X192610000Y-72360000D01*
X192460000Y-73970000D02*
X192470000Y-73960000D01*
X191390000Y-73970000D02*
X192460000Y-73970000D01*
X191400000Y-72360000D02*
X191400000Y-73960000D01*
X191400000Y-73960000D02*
X191390000Y-73970000D01*
X185880000Y-72960000D02*
X185800000Y-73040000D01*
X187570000Y-72960000D02*
X185880000Y-72960000D01*
X186030000Y-69040000D02*
X185740000Y-69330000D01*
X187570000Y-69040000D02*
X186030000Y-69040000D01*
%TO.N,3V3*%
X187570000Y-71560000D02*
X188370000Y-72360000D01*
X188370000Y-72360000D02*
X189500000Y-72360000D01*
X189990000Y-73200000D02*
X189990000Y-73970000D01*
X190450000Y-72360000D02*
X190450000Y-72740000D01*
X190450000Y-72740000D02*
X189990000Y-73200000D01*
X190450000Y-72360000D02*
X189500000Y-72360000D01*
X187570000Y-70440000D02*
X187570000Y-71560000D01*
%TO.N,GND*%
X198950000Y-94450000D02*
X199060000Y-94560000D01*
X198950000Y-92382500D02*
X198950000Y-94450000D01*
X202950000Y-92382500D02*
X202950000Y-94610000D01*
X205350000Y-92382500D02*
X205350000Y-94470000D01*
X205350000Y-94470000D02*
X205490000Y-94610000D01*
X208550000Y-94590000D02*
X208280000Y-94860000D01*
X208550000Y-92382500D02*
X208550000Y-94590000D01*
X211750000Y-94000000D02*
X212410000Y-94660000D01*
X211750000Y-92382500D02*
X211750000Y-94000000D01*
X210950000Y-94470000D02*
X210470000Y-94950000D01*
X210950000Y-92382500D02*
X210950000Y-94470000D01*
X210550000Y-84182500D02*
X210550000Y-86140000D01*
X210550000Y-86140000D02*
X210590000Y-86180000D01*
X208150000Y-86170000D02*
X208180000Y-86200000D01*
X208150000Y-84182500D02*
X208150000Y-86170000D01*
X207350000Y-82050000D02*
X207330000Y-82030000D01*
X207350000Y-84182500D02*
X207350000Y-82050000D01*
X201750000Y-84182500D02*
X201750000Y-86160000D01*
X201750000Y-86160000D02*
X201700000Y-86210000D01*
X204950000Y-86100000D02*
X205000000Y-86150000D01*
X204950000Y-84182500D02*
X204950000Y-86100000D01*
X204150000Y-82270000D02*
X204120000Y-82240000D01*
X204150000Y-84182500D02*
X204150000Y-82270000D01*
%TO.N,/GPIO23*%
X211350000Y-84182500D02*
X211350000Y-76520000D01*
X203330000Y-63770000D02*
X203330000Y-60110000D01*
X211350000Y-76520000D02*
X205720000Y-70890000D01*
X203340000Y-63780000D02*
X203330000Y-63770000D01*
%TO.N,/GPIO25*%
X209960000Y-63640000D02*
X210950000Y-62650000D01*
X210950000Y-62650000D02*
X210950000Y-60110000D01*
%TO.N,/GPIO11(SCLK)*%
X200950000Y-82840000D02*
X200950000Y-84182500D01*
X202180000Y-81610000D02*
X200950000Y-82840000D01*
%TD*%
%TA.AperFunction,Conductor*%
%TO.N,3V3*%
G36*
X204641918Y-62081511D02*
G01*
X204699504Y-62123036D01*
X204723579Y-62175753D01*
X204730253Y-62209306D01*
X204786506Y-62293494D01*
X204870694Y-62349747D01*
X204970000Y-62369500D01*
X206770000Y-62369500D01*
X206869306Y-62349747D01*
X206925388Y-62312274D01*
X206947354Y-62297597D01*
X207015107Y-62276382D01*
X207083574Y-62295165D01*
X207131017Y-62347982D01*
X207143316Y-62405533D01*
X207088981Y-64564143D01*
X207040000Y-66510000D01*
X208403777Y-66515426D01*
X214266692Y-66538754D01*
X214291307Y-66541282D01*
X214369432Y-66557174D01*
X214414849Y-66576237D01*
X214470407Y-66613769D01*
X214505044Y-66648786D01*
X214541969Y-66704750D01*
X214560536Y-66750368D01*
X214575578Y-66828661D01*
X214577838Y-66853303D01*
X214439193Y-86947703D01*
X214430000Y-88280000D01*
X218227538Y-88296559D01*
X221004266Y-88308667D01*
X221028500Y-88311127D01*
X221105471Y-88326568D01*
X221150285Y-88345072D01*
X221205330Y-88381546D01*
X221239838Y-88415601D01*
X221277036Y-88470163D01*
X221296129Y-88514729D01*
X221312583Y-88591491D01*
X221315363Y-88615685D01*
X221330000Y-89450000D01*
X221630057Y-89450000D01*
X221640632Y-89451557D01*
X221722483Y-89467740D01*
X221767682Y-89486340D01*
X221823147Y-89523123D01*
X221857867Y-89557523D01*
X221895160Y-89612643D01*
X221914177Y-89657670D01*
X221914781Y-89660579D01*
X221930241Y-89735148D01*
X221932860Y-89759562D01*
X221943197Y-90878553D01*
X221946149Y-91198052D01*
X221967059Y-93461625D01*
X221964808Y-93486526D01*
X221949638Y-93565610D01*
X221930802Y-93611660D01*
X221896167Y-93663724D01*
X221893296Y-93668040D01*
X221858099Y-93703209D01*
X221801693Y-93740672D01*
X221755624Y-93759475D01*
X221676529Y-93774584D01*
X221651628Y-93776816D01*
X221278299Y-93773083D01*
X221253950Y-93770459D01*
X221243360Y-93768261D01*
X221176675Y-93754418D01*
X221131764Y-93735465D01*
X221076754Y-93698310D01*
X221042397Y-93663724D01*
X221034468Y-93651815D01*
X221013365Y-93584027D01*
X221034582Y-93511985D01*
X221047852Y-93492125D01*
X221054747Y-93481806D01*
X221074500Y-93382500D01*
X221074500Y-91382500D01*
X221054747Y-91283194D01*
X220998494Y-91199006D01*
X220995147Y-91196769D01*
X220963902Y-91139551D01*
X220961818Y-91120469D01*
X220961650Y-91120486D01*
X220961028Y-91114358D01*
X220961007Y-91108186D01*
X220960000Y-90810000D01*
X220655651Y-90809184D01*
X220655650Y-90809184D01*
X210657162Y-90782378D01*
X210589095Y-90762193D01*
X210542746Y-90708413D01*
X210531500Y-90656378D01*
X210531500Y-90180213D01*
X210551502Y-90112092D01*
X210568405Y-90091118D01*
X213525382Y-87134141D01*
X213541555Y-87121079D01*
X213544360Y-87118526D01*
X213553108Y-87112878D01*
X213559553Y-87104703D01*
X213559555Y-87104701D01*
X213572585Y-87088172D01*
X213576999Y-87083205D01*
X213576958Y-87083170D01*
X213580317Y-87079206D01*
X213583992Y-87075531D01*
X213596231Y-87058405D01*
X213599794Y-87053659D01*
X213625235Y-87021388D01*
X213625237Y-87021385D01*
X213631682Y-87013209D01*
X213634730Y-87004529D01*
X213640077Y-86997047D01*
X213654834Y-86947703D01*
X213656669Y-86942055D01*
X213671108Y-86900941D01*
X213671109Y-86900937D01*
X213673734Y-86893462D01*
X213674489Y-86884744D01*
X213674489Y-86882003D01*
X213674490Y-86881978D01*
X213676442Y-86875452D01*
X213674586Y-86828216D01*
X213674489Y-86823270D01*
X213674489Y-74295834D01*
X213676689Y-74275161D01*
X213676867Y-74271376D01*
X213679059Y-74261196D01*
X213675362Y-74229957D01*
X213674971Y-74223326D01*
X213674917Y-74223330D01*
X213674489Y-74218154D01*
X213674489Y-74212949D01*
X213671035Y-74192195D01*
X213670198Y-74186319D01*
X213665367Y-74145499D01*
X213665367Y-74145498D01*
X213664143Y-74135159D01*
X213660161Y-74126866D01*
X213658651Y-74117795D01*
X213653708Y-74108634D01*
X213653707Y-74108631D01*
X213634191Y-74072463D01*
X213631514Y-74067210D01*
X213609204Y-74020750D01*
X213603574Y-74014051D01*
X213601638Y-74012115D01*
X213601618Y-74012093D01*
X213598384Y-74006100D01*
X213563667Y-73974008D01*
X213560102Y-73970579D01*
X209492725Y-69903202D01*
X209458699Y-69840890D01*
X209457077Y-69796353D01*
X209466932Y-69727111D01*
X209466932Y-69727109D01*
X209467513Y-69723028D01*
X209467669Y-69708169D01*
X209447189Y-69538930D01*
X209386930Y-69379460D01*
X209359810Y-69340000D01*
X209294675Y-69245227D01*
X209294674Y-69245225D01*
X209290373Y-69238968D01*
X209163090Y-69125564D01*
X209148566Y-69117874D01*
X209019144Y-69049348D01*
X209019142Y-69049347D01*
X209012431Y-69045794D01*
X209005066Y-69043944D01*
X208854464Y-69006115D01*
X208854460Y-69006115D01*
X208847093Y-69004264D01*
X208839494Y-69004224D01*
X208839492Y-69004224D01*
X208768926Y-69003855D01*
X208676621Y-69003371D01*
X208669241Y-69005143D01*
X208669239Y-69005143D01*
X208518236Y-69041395D01*
X208518232Y-69041396D01*
X208510857Y-69043167D01*
X208359371Y-69121355D01*
X208230908Y-69233421D01*
X208132884Y-69372894D01*
X208113253Y-69423245D01*
X208077521Y-69514894D01*
X208070959Y-69531724D01*
X208069967Y-69539257D01*
X208069967Y-69539258D01*
X208054281Y-69658410D01*
X208048708Y-69700739D01*
X208051169Y-69723028D01*
X208060798Y-69810244D01*
X208067415Y-69870184D01*
X208070024Y-69877315D01*
X208070025Y-69877317D01*
X208112778Y-69994143D01*
X208126000Y-70030275D01*
X208130236Y-70036578D01*
X208130236Y-70036579D01*
X208184017Y-70116613D01*
X208221081Y-70171771D01*
X208226700Y-70176884D01*
X208226701Y-70176885D01*
X208341553Y-70281392D01*
X208347169Y-70286502D01*
X208496985Y-70367845D01*
X208661879Y-70411105D01*
X208748839Y-70412471D01*
X208824733Y-70413663D01*
X208824736Y-70413663D01*
X208832332Y-70413782D01*
X208839738Y-70412086D01*
X208847291Y-70411292D01*
X208847440Y-70412712D01*
X208910050Y-70416499D01*
X208956413Y-70445936D01*
X212874584Y-74364107D01*
X212908610Y-74426419D01*
X212911489Y-74453202D01*
X212911489Y-83094624D01*
X212891487Y-83162745D01*
X212837831Y-83209238D01*
X212767557Y-83219342D01*
X212702977Y-83189848D01*
X212664593Y-83130122D01*
X212661910Y-83119205D01*
X212657168Y-83095367D01*
X212657168Y-83095366D01*
X212654747Y-83083194D01*
X212598494Y-82999006D01*
X212514306Y-82942753D01*
X212415000Y-82923000D01*
X211885000Y-82923000D01*
X211878932Y-82924207D01*
X211872769Y-82924814D01*
X211872563Y-82922726D01*
X211811382Y-82917259D01*
X211755309Y-82873711D01*
X211731500Y-82800002D01*
X211731500Y-76572844D01*
X211733700Y-76552166D01*
X211733878Y-76548386D01*
X211736070Y-76538206D01*
X211732373Y-76506967D01*
X211731982Y-76500335D01*
X211731928Y-76500339D01*
X211731500Y-76495163D01*
X211731500Y-76489960D01*
X211728040Y-76469172D01*
X211727207Y-76463318D01*
X211722378Y-76422513D01*
X211721154Y-76412169D01*
X211717172Y-76403876D01*
X211715662Y-76394806D01*
X211691205Y-76349477D01*
X211688512Y-76344192D01*
X211669646Y-76304905D01*
X211666215Y-76297760D01*
X211660584Y-76291062D01*
X211658653Y-76289131D01*
X211658630Y-76289105D01*
X211655395Y-76283111D01*
X211620665Y-76251007D01*
X211617100Y-76247578D01*
X206454556Y-71085033D01*
X206420530Y-71022721D01*
X206418908Y-70978184D01*
X206428763Y-70908942D01*
X206428763Y-70908940D01*
X206429344Y-70904859D01*
X206429500Y-70890000D01*
X206409020Y-70720761D01*
X206348761Y-70561291D01*
X206252204Y-70420799D01*
X206241534Y-70411292D01*
X206130592Y-70312448D01*
X206124921Y-70307395D01*
X206075810Y-70281392D01*
X205980975Y-70231179D01*
X205980973Y-70231178D01*
X205974262Y-70227625D01*
X205966897Y-70225775D01*
X205816295Y-70187946D01*
X205816291Y-70187946D01*
X205808924Y-70186095D01*
X205801325Y-70186055D01*
X205801323Y-70186055D01*
X205730757Y-70185686D01*
X205638452Y-70185202D01*
X205631072Y-70186974D01*
X205631070Y-70186974D01*
X205480067Y-70223226D01*
X205480063Y-70223227D01*
X205472688Y-70224998D01*
X205321202Y-70303186D01*
X205192739Y-70415252D01*
X205094715Y-70554725D01*
X205032790Y-70713555D01*
X205010539Y-70882570D01*
X205029246Y-71052015D01*
X205087831Y-71212106D01*
X205182912Y-71353602D01*
X205309000Y-71468333D01*
X205458816Y-71549676D01*
X205623710Y-71592936D01*
X205710670Y-71594302D01*
X205786564Y-71595494D01*
X205786567Y-71595494D01*
X205794163Y-71595613D01*
X205801569Y-71593917D01*
X205809122Y-71593123D01*
X205809271Y-71594543D01*
X205871881Y-71598330D01*
X205918244Y-71627767D01*
X210931595Y-76641117D01*
X210965621Y-76703429D01*
X210968500Y-76730212D01*
X210968500Y-82800002D01*
X210948498Y-82868123D01*
X210894842Y-82914616D01*
X210827462Y-82922465D01*
X210827231Y-82924814D01*
X210821068Y-82924207D01*
X210815000Y-82923000D01*
X210285000Y-82923000D01*
X210185694Y-82942753D01*
X210185456Y-82941558D01*
X210127627Y-82947775D01*
X210117271Y-82944734D01*
X210114306Y-82942753D01*
X210015000Y-82923000D01*
X209485000Y-82923000D01*
X209385694Y-82942753D01*
X209385456Y-82941558D01*
X209327627Y-82947775D01*
X209317271Y-82944734D01*
X209314306Y-82942753D01*
X209215000Y-82923000D01*
X208685000Y-82923000D01*
X208585694Y-82942753D01*
X208585456Y-82941558D01*
X208527627Y-82947775D01*
X208517271Y-82944734D01*
X208514306Y-82942753D01*
X208415000Y-82923000D01*
X207885000Y-82923000D01*
X207878932Y-82924207D01*
X207872769Y-82924814D01*
X207872563Y-82922726D01*
X207811382Y-82917259D01*
X207755309Y-82873711D01*
X207731500Y-82800002D01*
X207731500Y-82671469D01*
X207751502Y-82603348D01*
X207775665Y-82575663D01*
X207852261Y-82510244D01*
X207951740Y-82371804D01*
X208015324Y-82213632D01*
X208033762Y-82084079D01*
X208038763Y-82048942D01*
X208038763Y-82048941D01*
X208039344Y-82044859D01*
X208039500Y-82030000D01*
X208019020Y-81860761D01*
X207958761Y-81701291D01*
X207896019Y-81610000D01*
X207866506Y-81567058D01*
X207866505Y-81567056D01*
X207862204Y-81560799D01*
X207734921Y-81447395D01*
X207644097Y-81399306D01*
X207590975Y-81371179D01*
X207590973Y-81371178D01*
X207584262Y-81367625D01*
X207576897Y-81365775D01*
X207426295Y-81327946D01*
X207426291Y-81327946D01*
X207418924Y-81326095D01*
X207411325Y-81326055D01*
X207411323Y-81326055D01*
X207340757Y-81325686D01*
X207248452Y-81325202D01*
X207241072Y-81326974D01*
X207241070Y-81326974D01*
X207090067Y-81363226D01*
X207090063Y-81363227D01*
X207082688Y-81364998D01*
X206931202Y-81443186D01*
X206802739Y-81555252D01*
X206704715Y-81694725D01*
X206701955Y-81701805D01*
X206662210Y-81803746D01*
X206642790Y-81853555D01*
X206620539Y-82022570D01*
X206639246Y-82192015D01*
X206641855Y-82199146D01*
X206641856Y-82199148D01*
X206683856Y-82313917D01*
X206697831Y-82352106D01*
X206792912Y-82493602D01*
X206798531Y-82498715D01*
X206798532Y-82498716D01*
X206896625Y-82587973D01*
X206916659Y-82606203D01*
X206916660Y-82606204D01*
X206919000Y-82608333D01*
X206918645Y-82608723D01*
X206959431Y-82660486D01*
X206968500Y-82707425D01*
X206968500Y-82800002D01*
X206948498Y-82868123D01*
X206894842Y-82914616D01*
X206827462Y-82922465D01*
X206827231Y-82924814D01*
X206821068Y-82924207D01*
X206815000Y-82923000D01*
X206285000Y-82923000D01*
X206185694Y-82942753D01*
X206185456Y-82941558D01*
X206127627Y-82947775D01*
X206117271Y-82944734D01*
X206114306Y-82942753D01*
X206015000Y-82923000D01*
X205485000Y-82923000D01*
X205385694Y-82942753D01*
X205385456Y-82941558D01*
X205327627Y-82947775D01*
X205317271Y-82944734D01*
X205314306Y-82942753D01*
X205215000Y-82923000D01*
X204741614Y-82923000D01*
X204673493Y-82902998D01*
X204627000Y-82849342D01*
X204616896Y-82779068D01*
X204644166Y-82721613D01*
X204642261Y-82720244D01*
X204678391Y-82669963D01*
X204741740Y-82581804D01*
X204805324Y-82423632D01*
X204826114Y-82277555D01*
X204828763Y-82258942D01*
X204828763Y-82258941D01*
X204829344Y-82254859D01*
X204829500Y-82240000D01*
X204809020Y-82070761D01*
X204748761Y-81911291D01*
X204709080Y-81853555D01*
X204656506Y-81777058D01*
X204656505Y-81777056D01*
X204652204Y-81770799D01*
X204524921Y-81657395D01*
X204471183Y-81628942D01*
X204380975Y-81581179D01*
X204380973Y-81581178D01*
X204374262Y-81577625D01*
X204366897Y-81575775D01*
X204216295Y-81537946D01*
X204216291Y-81537946D01*
X204208924Y-81536095D01*
X204201325Y-81536055D01*
X204201323Y-81536055D01*
X204130757Y-81535686D01*
X204038452Y-81535202D01*
X204031072Y-81536974D01*
X204031070Y-81536974D01*
X203880067Y-81573226D01*
X203880063Y-81573227D01*
X203872688Y-81574998D01*
X203721202Y-81653186D01*
X203592739Y-81765252D01*
X203494715Y-81904725D01*
X203491955Y-81911805D01*
X203441688Y-82040734D01*
X203432790Y-82063555D01*
X203431798Y-82071088D01*
X203431798Y-82071089D01*
X203411785Y-82223107D01*
X203410539Y-82232570D01*
X203419268Y-82311640D01*
X203426592Y-82377973D01*
X203429246Y-82402015D01*
X203431855Y-82409146D01*
X203431856Y-82409148D01*
X203480603Y-82542354D01*
X203487831Y-82562106D01*
X203492067Y-82568409D01*
X203492067Y-82568410D01*
X203561320Y-82671469D01*
X203582912Y-82703602D01*
X203703775Y-82813579D01*
X203740696Y-82874218D01*
X203738973Y-82945193D01*
X203709351Y-82993764D01*
X203701506Y-82999006D01*
X203645253Y-83083194D01*
X203625500Y-83182500D01*
X203625500Y-85182500D01*
X203645253Y-85281806D01*
X203701506Y-85365994D01*
X203785694Y-85422247D01*
X203885000Y-85442000D01*
X204404013Y-85442000D01*
X204472134Y-85462002D01*
X204518627Y-85515658D01*
X204528731Y-85585932D01*
X204499237Y-85650512D01*
X204486843Y-85662948D01*
X204472739Y-85675252D01*
X204468374Y-85681462D01*
X204468371Y-85681466D01*
X204405329Y-85771165D01*
X204374715Y-85814725D01*
X204312790Y-85973555D01*
X204311798Y-85981088D01*
X204311798Y-85981089D01*
X204302950Y-86048301D01*
X204290539Y-86142570D01*
X204309246Y-86312015D01*
X204311855Y-86319146D01*
X204311856Y-86319148D01*
X204341692Y-86400677D01*
X204367831Y-86472106D01*
X204372067Y-86478409D01*
X204372067Y-86478410D01*
X204421386Y-86551804D01*
X204462912Y-86613602D01*
X204468531Y-86618715D01*
X204468532Y-86618716D01*
X204552561Y-86695176D01*
X204589000Y-86728333D01*
X204644253Y-86758333D01*
X204710628Y-86794371D01*
X204738816Y-86809676D01*
X204903710Y-86852936D01*
X204990670Y-86854302D01*
X205066564Y-86855494D01*
X205066567Y-86855494D01*
X205074163Y-86855613D01*
X205081568Y-86853917D01*
X205081569Y-86853917D01*
X205159567Y-86836053D01*
X205240335Y-86817555D01*
X205392631Y-86740958D01*
X205459228Y-86684079D01*
X205516487Y-86635176D01*
X205516489Y-86635173D01*
X205522261Y-86630244D01*
X205621740Y-86491804D01*
X205685324Y-86333632D01*
X205702902Y-86210120D01*
X205708763Y-86168942D01*
X205708763Y-86168941D01*
X205709344Y-86164859D01*
X205709500Y-86150000D01*
X205689020Y-85980761D01*
X205628761Y-85821291D01*
X205569966Y-85735743D01*
X205536506Y-85687058D01*
X205536505Y-85687056D01*
X205532204Y-85680799D01*
X205526538Y-85675750D01*
X205526531Y-85675743D01*
X205511191Y-85662076D01*
X205473635Y-85601826D01*
X205474616Y-85530836D01*
X205513820Y-85471645D01*
X205578802Y-85443047D01*
X205595010Y-85442000D01*
X206015000Y-85442000D01*
X206114306Y-85422247D01*
X206114544Y-85423442D01*
X206172373Y-85417225D01*
X206182729Y-85420266D01*
X206185694Y-85422247D01*
X206285000Y-85442000D01*
X206815000Y-85442000D01*
X206914306Y-85422247D01*
X206914544Y-85423442D01*
X206972373Y-85417225D01*
X206982729Y-85420266D01*
X206985694Y-85422247D01*
X207085000Y-85442000D01*
X207615000Y-85442000D01*
X207621068Y-85440793D01*
X207627231Y-85440186D01*
X207627437Y-85442274D01*
X207688618Y-85447741D01*
X207744691Y-85491289D01*
X207768500Y-85564998D01*
X207768500Y-85566979D01*
X207748498Y-85635100D01*
X207725331Y-85661926D01*
X207652739Y-85725252D01*
X207648374Y-85731462D01*
X207648371Y-85731466D01*
X207589856Y-85814725D01*
X207554715Y-85864725D01*
X207548056Y-85881805D01*
X207500588Y-86003555D01*
X207492790Y-86023555D01*
X207491798Y-86031088D01*
X207491798Y-86031089D01*
X207472194Y-86180000D01*
X207470539Y-86192570D01*
X207489246Y-86362015D01*
X207491855Y-86369146D01*
X207491856Y-86369148D01*
X207539000Y-86497973D01*
X207547831Y-86522106D01*
X207552067Y-86528409D01*
X207552067Y-86528410D01*
X207629473Y-86643602D01*
X207642912Y-86663602D01*
X207648531Y-86668715D01*
X207648532Y-86668716D01*
X207718032Y-86731956D01*
X207769000Y-86778333D01*
X207801581Y-86796023D01*
X207911114Y-86855494D01*
X207918816Y-86859676D01*
X208083710Y-86902936D01*
X208170670Y-86904302D01*
X208246564Y-86905494D01*
X208246567Y-86905494D01*
X208254163Y-86905613D01*
X208261568Y-86903917D01*
X208261569Y-86903917D01*
X208339598Y-86886046D01*
X208420335Y-86867555D01*
X208572631Y-86790958D01*
X208684778Y-86695176D01*
X208696487Y-86685176D01*
X208696489Y-86685173D01*
X208702261Y-86680244D01*
X208801740Y-86541804D01*
X208865324Y-86383632D01*
X208889344Y-86214859D01*
X208889500Y-86200000D01*
X208869020Y-86030761D01*
X208808761Y-85871291D01*
X208795015Y-85851291D01*
X208716506Y-85737058D01*
X208716505Y-85737056D01*
X208712204Y-85730799D01*
X208706533Y-85725747D01*
X208706531Y-85725744D01*
X208635072Y-85662077D01*
X208597516Y-85601827D01*
X208598495Y-85530837D01*
X208637699Y-85471646D01*
X208702681Y-85443047D01*
X208718890Y-85442000D01*
X209215000Y-85442000D01*
X209314306Y-85422247D01*
X209314544Y-85423442D01*
X209372373Y-85417225D01*
X209382729Y-85420266D01*
X209385694Y-85422247D01*
X209485000Y-85442000D01*
X210015000Y-85442000D01*
X210018613Y-85441281D01*
X210087509Y-85454347D01*
X210139038Y-85503187D01*
X210155982Y-85572132D01*
X210132961Y-85639293D01*
X210112937Y-85661461D01*
X210111231Y-85662949D01*
X210062739Y-85705252D01*
X209964715Y-85844725D01*
X209902790Y-86003555D01*
X209901798Y-86011088D01*
X209901798Y-86011089D01*
X209883495Y-86150120D01*
X209880539Y-86172570D01*
X209886312Y-86224859D01*
X209898321Y-86333632D01*
X209899246Y-86342015D01*
X209901855Y-86349146D01*
X209901856Y-86349148D01*
X209951482Y-86484756D01*
X209957831Y-86502106D01*
X209962067Y-86508409D01*
X209962067Y-86508410D01*
X210044867Y-86631629D01*
X210052912Y-86643602D01*
X210058531Y-86648715D01*
X210058532Y-86648716D01*
X210159905Y-86740958D01*
X210179000Y-86758333D01*
X210328816Y-86839676D01*
X210493710Y-86882936D01*
X210580670Y-86884302D01*
X210656564Y-86885494D01*
X210656567Y-86885494D01*
X210664163Y-86885613D01*
X210671568Y-86883917D01*
X210671569Y-86883917D01*
X210757907Y-86864143D01*
X210830335Y-86847555D01*
X210982631Y-86770958D01*
X211071361Y-86695176D01*
X211106487Y-86665176D01*
X211106489Y-86665173D01*
X211112261Y-86660244D01*
X211211740Y-86521804D01*
X211275324Y-86363632D01*
X211295074Y-86224859D01*
X211298763Y-86198942D01*
X211298763Y-86198941D01*
X211299344Y-86194859D01*
X211299500Y-86180000D01*
X211279020Y-86010761D01*
X211218761Y-85851291D01*
X211143281Y-85741466D01*
X211126506Y-85717058D01*
X211126505Y-85717056D01*
X211122204Y-85710799D01*
X211116533Y-85705747D01*
X211116531Y-85705744D01*
X211067520Y-85662077D01*
X211029964Y-85601827D01*
X211030943Y-85530837D01*
X211070147Y-85471646D01*
X211135129Y-85443047D01*
X211151338Y-85442000D01*
X211615000Y-85442000D01*
X211714306Y-85422247D01*
X211714544Y-85423442D01*
X211772373Y-85417225D01*
X211782729Y-85420266D01*
X211785694Y-85422247D01*
X211885000Y-85442000D01*
X212415000Y-85442000D01*
X212514306Y-85422247D01*
X212598494Y-85365994D01*
X212654747Y-85281806D01*
X212661910Y-85245795D01*
X212694817Y-85182885D01*
X212756512Y-85147753D01*
X212827407Y-85151553D01*
X212884993Y-85193079D01*
X212910987Y-85259145D01*
X212911489Y-85270376D01*
X212911489Y-86616798D01*
X212891487Y-86684919D01*
X212874584Y-86705893D01*
X209917607Y-89662870D01*
X209901434Y-89675932D01*
X209898629Y-89678485D01*
X209889881Y-89684133D01*
X209883436Y-89692308D01*
X209883434Y-89692310D01*
X209870404Y-89708839D01*
X209865991Y-89713805D01*
X209866032Y-89713840D01*
X209862674Y-89717803D01*
X209858997Y-89721480D01*
X209846742Y-89738630D01*
X209843203Y-89743343D01*
X209811307Y-89783802D01*
X209808260Y-89792480D01*
X209802912Y-89799963D01*
X209799928Y-89809941D01*
X209799926Y-89809945D01*
X209788155Y-89849306D01*
X209786320Y-89854954D01*
X209769255Y-89903549D01*
X209768500Y-89912267D01*
X209768500Y-89915008D01*
X209768499Y-89915032D01*
X209766547Y-89921559D01*
X209766956Y-89931965D01*
X209768403Y-89968794D01*
X209768500Y-89973741D01*
X209768500Y-91086894D01*
X209748498Y-91155015D01*
X209712500Y-91191660D01*
X209701506Y-91199006D01*
X209645253Y-91283194D01*
X209625500Y-91382500D01*
X209625500Y-93382500D01*
X209645253Y-93481806D01*
X209652148Y-93492125D01*
X209699315Y-93562715D01*
X209720530Y-93630468D01*
X209700596Y-93700763D01*
X209700442Y-93701003D01*
X209667636Y-93735485D01*
X209614835Y-93773202D01*
X209571559Y-93793058D01*
X209496648Y-93811395D01*
X209472984Y-93814851D01*
X209443781Y-93816311D01*
X209297771Y-93823611D01*
X209272322Y-93822303D01*
X209191239Y-93809830D01*
X209143700Y-93792195D01*
X209135845Y-93787294D01*
X209085190Y-93755689D01*
X209048453Y-93720743D01*
X209019288Y-93678816D01*
X208996808Y-93611473D01*
X209017959Y-93536863D01*
X209047852Y-93492125D01*
X209054747Y-93481806D01*
X209074500Y-93382500D01*
X209074500Y-91382500D01*
X209054747Y-91283194D01*
X208998494Y-91199006D01*
X208999922Y-91198052D01*
X208972879Y-91148528D01*
X208970000Y-91121745D01*
X208970000Y-90790000D01*
X198560000Y-90790000D01*
X198561988Y-91098150D01*
X198561562Y-91102763D01*
X198535378Y-91168755D01*
X198520152Y-91182891D01*
X198520598Y-91183337D01*
X198511822Y-91192113D01*
X198501506Y-91199006D01*
X198445253Y-91283194D01*
X198425500Y-91382500D01*
X198425500Y-93382500D01*
X198445253Y-93481806D01*
X198501506Y-93565994D01*
X198511822Y-93572887D01*
X198518000Y-93579065D01*
X198552026Y-93641377D01*
X198546961Y-93712192D01*
X198534066Y-93737566D01*
X198526276Y-93749369D01*
X198510548Y-93773200D01*
X198505168Y-93781351D01*
X198470550Y-93816346D01*
X198415018Y-93853866D01*
X198369634Y-93872925D01*
X198291554Y-93888832D01*
X198266951Y-93891367D01*
X194838055Y-93906340D01*
X194311114Y-93908641D01*
X194286588Y-93906340D01*
X194208664Y-93891236D01*
X194163263Y-93872718D01*
X194107537Y-93835960D01*
X194072643Y-93801514D01*
X194035167Y-93746267D01*
X194016063Y-93701111D01*
X193999951Y-93623387D01*
X193997333Y-93598891D01*
X193997262Y-93590533D01*
X193975793Y-91085833D01*
X193970097Y-90421309D01*
X193970096Y-90419173D01*
X193970155Y-90412131D01*
X193970264Y-90407845D01*
X193970560Y-90400870D01*
X193970669Y-90398743D01*
X193982729Y-90195648D01*
X194013809Y-89672249D01*
X193989421Y-88603455D01*
X193981839Y-88271198D01*
X196640579Y-88271198D01*
X196658190Y-88450805D01*
X196660414Y-88457490D01*
X196660414Y-88457491D01*
X196671361Y-88490400D01*
X196715154Y-88622046D01*
X196718801Y-88628068D01*
X196718802Y-88628070D01*
X196737167Y-88658393D01*
X196808642Y-88776413D01*
X196934005Y-88906230D01*
X197085015Y-89005048D01*
X197254164Y-89067954D01*
X197261145Y-89068885D01*
X197261147Y-89068886D01*
X197426066Y-89090891D01*
X197426070Y-89090891D01*
X197433047Y-89091822D01*
X197440058Y-89091184D01*
X197440062Y-89091184D01*
X197605752Y-89076105D01*
X197612773Y-89075466D01*
X197784408Y-89019698D01*
X197815459Y-89001188D01*
X197933371Y-88930899D01*
X197933373Y-88930898D01*
X197939423Y-88927291D01*
X198070113Y-88802837D01*
X198091671Y-88770390D01*
X198166082Y-88658393D01*
X198166083Y-88658391D01*
X198169983Y-88652521D01*
X198234068Y-88483814D01*
X198253567Y-88345072D01*
X198258633Y-88309027D01*
X198258634Y-88309019D01*
X198259184Y-88305103D01*
X198259500Y-88282500D01*
X198239383Y-88103156D01*
X198180033Y-87932727D01*
X198146309Y-87878756D01*
X198088133Y-87785655D01*
X198084400Y-87779681D01*
X198075653Y-87770872D01*
X197962198Y-87656623D01*
X197957236Y-87651626D01*
X197804861Y-87554926D01*
X197751542Y-87535940D01*
X197641485Y-87496750D01*
X197641480Y-87496749D01*
X197634850Y-87494388D01*
X197627864Y-87493555D01*
X197627860Y-87493554D01*
X197499279Y-87478222D01*
X197455651Y-87473020D01*
X197448648Y-87473756D01*
X197448647Y-87473756D01*
X197400007Y-87478868D01*
X197276172Y-87491884D01*
X197269506Y-87494153D01*
X197269503Y-87494154D01*
X197111999Y-87547773D01*
X197111996Y-87547774D01*
X197105332Y-87550043D01*
X196951622Y-87644605D01*
X196946591Y-87649531D01*
X196946588Y-87649534D01*
X196911478Y-87683917D01*
X196822682Y-87770872D01*
X196724921Y-87922568D01*
X196722510Y-87929191D01*
X196722510Y-87929192D01*
X196665608Y-88085529D01*
X196665607Y-88085534D01*
X196663198Y-88092152D01*
X196640579Y-88271198D01*
X193981839Y-88271198D01*
X193947312Y-86758080D01*
X193965754Y-86689523D01*
X194018335Y-86641818D01*
X194088360Y-86630114D01*
X194097858Y-86631629D01*
X194143929Y-86640793D01*
X194143935Y-86640794D01*
X194150000Y-86642000D01*
X196450000Y-86642000D01*
X196549306Y-86622247D01*
X196633494Y-86565994D01*
X196689747Y-86481806D01*
X196709500Y-86382500D01*
X196709500Y-83182500D01*
X198025500Y-83182500D01*
X198025500Y-85182500D01*
X198045253Y-85281806D01*
X198101506Y-85365994D01*
X198185694Y-85422247D01*
X198285000Y-85442000D01*
X198815000Y-85442000D01*
X198914306Y-85422247D01*
X198914544Y-85423442D01*
X198972373Y-85417225D01*
X198982729Y-85420266D01*
X198985694Y-85422247D01*
X199085000Y-85442000D01*
X199615000Y-85442000D01*
X199714306Y-85422247D01*
X199714544Y-85423442D01*
X199772373Y-85417225D01*
X199782729Y-85420266D01*
X199785694Y-85422247D01*
X199885000Y-85442000D01*
X200415000Y-85442000D01*
X200514306Y-85422247D01*
X200514544Y-85423442D01*
X200572373Y-85417225D01*
X200582729Y-85420266D01*
X200585694Y-85422247D01*
X200685000Y-85442000D01*
X201172791Y-85442000D01*
X201240912Y-85462002D01*
X201287405Y-85515658D01*
X201297509Y-85585932D01*
X201268015Y-85650512D01*
X201255622Y-85662948D01*
X201172739Y-85735252D01*
X201074715Y-85874725D01*
X201071955Y-85881805D01*
X201016649Y-86023658D01*
X201012790Y-86033555D01*
X201011798Y-86041088D01*
X201011798Y-86041089D01*
X200991856Y-86192570D01*
X200990539Y-86202570D01*
X200993000Y-86224859D01*
X201008321Y-86363632D01*
X201009246Y-86372015D01*
X201011855Y-86379146D01*
X201011856Y-86379148D01*
X201064172Y-86522106D01*
X201067831Y-86532106D01*
X201072067Y-86538409D01*
X201072067Y-86538410D01*
X201151956Y-86657297D01*
X201162912Y-86673602D01*
X201168531Y-86678715D01*
X201168532Y-86678716D01*
X201269905Y-86770958D01*
X201289000Y-86788333D01*
X201336536Y-86814143D01*
X201430289Y-86865046D01*
X201438816Y-86869676D01*
X201603710Y-86912936D01*
X201690670Y-86914302D01*
X201766564Y-86915494D01*
X201766567Y-86915494D01*
X201774163Y-86915613D01*
X201781568Y-86913917D01*
X201781569Y-86913917D01*
X201842919Y-86899866D01*
X201940335Y-86877555D01*
X202092631Y-86800958D01*
X202158886Y-86744371D01*
X202216487Y-86695176D01*
X202216489Y-86695173D01*
X202222261Y-86690244D01*
X202321740Y-86551804D01*
X202385324Y-86393632D01*
X202409344Y-86224859D01*
X202409500Y-86210000D01*
X202389020Y-86040761D01*
X202328761Y-85881291D01*
X202287524Y-85821291D01*
X202236506Y-85747058D01*
X202236505Y-85747056D01*
X202232204Y-85740799D01*
X202226538Y-85735750D01*
X202226531Y-85735743D01*
X202173681Y-85688656D01*
X202136125Y-85628406D01*
X202131500Y-85594580D01*
X202131500Y-85478106D01*
X202151502Y-85409985D01*
X202187500Y-85373340D01*
X202188178Y-85372887D01*
X202198494Y-85365994D01*
X202254747Y-85281806D01*
X202274500Y-85182500D01*
X202274500Y-83182500D01*
X202254747Y-83083194D01*
X202198494Y-82999006D01*
X202114306Y-82942753D01*
X202015000Y-82923000D01*
X201710713Y-82923000D01*
X201642592Y-82902998D01*
X201596099Y-82849342D01*
X201585995Y-82779068D01*
X201615489Y-82714488D01*
X201621618Y-82707905D01*
X201981256Y-82348267D01*
X202043568Y-82314241D01*
X202082834Y-82312706D01*
X202083710Y-82312936D01*
X202167122Y-82314246D01*
X202246564Y-82315494D01*
X202246567Y-82315494D01*
X202254163Y-82315613D01*
X202261568Y-82313917D01*
X202261569Y-82313917D01*
X202326761Y-82298986D01*
X202420335Y-82277555D01*
X202572631Y-82200958D01*
X202602467Y-82175475D01*
X202696487Y-82095176D01*
X202696489Y-82095173D01*
X202702261Y-82090244D01*
X202801740Y-81951804D01*
X202865324Y-81793632D01*
X202885220Y-81653839D01*
X202888763Y-81628942D01*
X202888763Y-81628941D01*
X202889344Y-81624859D01*
X202889500Y-81610000D01*
X202869020Y-81440761D01*
X202851802Y-81395195D01*
X202846434Y-81324403D01*
X202880191Y-81261946D01*
X202942357Y-81227654D01*
X203001642Y-81228782D01*
X203047230Y-81240742D01*
X203093710Y-81252936D01*
X203180670Y-81254302D01*
X203256564Y-81255494D01*
X203256567Y-81255494D01*
X203264163Y-81255613D01*
X203271568Y-81253917D01*
X203271569Y-81253917D01*
X203332919Y-81239866D01*
X203430335Y-81217555D01*
X203582631Y-81140958D01*
X203612467Y-81115475D01*
X203706487Y-81035176D01*
X203706489Y-81035173D01*
X203712261Y-81030244D01*
X203811740Y-80891804D01*
X203875324Y-80733632D01*
X203899344Y-80564859D01*
X203899500Y-80550000D01*
X203879020Y-80380761D01*
X203818761Y-80221291D01*
X203791329Y-80181377D01*
X203726506Y-80087058D01*
X203726505Y-80087056D01*
X203722204Y-80080799D01*
X203594921Y-79967395D01*
X203580397Y-79959705D01*
X203450975Y-79891179D01*
X203450973Y-79891178D01*
X203444262Y-79887625D01*
X203436897Y-79885775D01*
X203286295Y-79847946D01*
X203286291Y-79847946D01*
X203278924Y-79846095D01*
X203271325Y-79846055D01*
X203271323Y-79846055D01*
X203200757Y-79845686D01*
X203108452Y-79845202D01*
X203101072Y-79846974D01*
X203101070Y-79846974D01*
X202950067Y-79883226D01*
X202950063Y-79883227D01*
X202942688Y-79884998D01*
X202791202Y-79963186D01*
X202662739Y-80075252D01*
X202658372Y-80081466D01*
X202634838Y-80114951D01*
X202579303Y-80159182D01*
X202531751Y-80168500D01*
X199572844Y-80168500D01*
X199552171Y-80166300D01*
X199548386Y-80166122D01*
X199538206Y-80163930D01*
X199506966Y-80167627D01*
X199500336Y-80168018D01*
X199500340Y-80168072D01*
X199495163Y-80168500D01*
X199489960Y-80168500D01*
X199469190Y-80171957D01*
X199463329Y-80172791D01*
X199422510Y-80177622D01*
X199422509Y-80177622D01*
X199412170Y-80178846D01*
X199403877Y-80182828D01*
X199394806Y-80184338D01*
X199353147Y-80206816D01*
X199349486Y-80208791D01*
X199344197Y-80211486D01*
X199304904Y-80230354D01*
X199304901Y-80230356D01*
X199297760Y-80233785D01*
X199291062Y-80239415D01*
X199289132Y-80241345D01*
X199289103Y-80241372D01*
X199283111Y-80244605D01*
X199276043Y-80252251D01*
X199251020Y-80279321D01*
X199247590Y-80282887D01*
X198317607Y-81212870D01*
X198301434Y-81225932D01*
X198298629Y-81228485D01*
X198289881Y-81234133D01*
X198283436Y-81242308D01*
X198283434Y-81242310D01*
X198270404Y-81258839D01*
X198265991Y-81263805D01*
X198266032Y-81263840D01*
X198262674Y-81267803D01*
X198258997Y-81271480D01*
X198246742Y-81288630D01*
X198243203Y-81293343D01*
X198231917Y-81307659D01*
X198218087Y-81325202D01*
X198211307Y-81333802D01*
X198208260Y-81342480D01*
X198202912Y-81349963D01*
X198199928Y-81359941D01*
X198199926Y-81359945D01*
X198188155Y-81399306D01*
X198186320Y-81404954D01*
X198172665Y-81443839D01*
X198169255Y-81453549D01*
X198168500Y-81462267D01*
X198168500Y-81465008D01*
X198168499Y-81465032D01*
X198166547Y-81471559D01*
X198166956Y-81481965D01*
X198168403Y-81518794D01*
X198168500Y-81523741D01*
X198168500Y-82886894D01*
X198148498Y-82955015D01*
X198112500Y-82991660D01*
X198101506Y-82999006D01*
X198045253Y-83083194D01*
X198025500Y-83182500D01*
X196709500Y-83182500D01*
X196689747Y-83083194D01*
X196633494Y-82999006D01*
X196549306Y-82942753D01*
X196450000Y-82923000D01*
X194150000Y-82923000D01*
X194050694Y-82942753D01*
X194040375Y-82949648D01*
X194032080Y-82953084D01*
X193961490Y-82960673D01*
X193898003Y-82928894D01*
X193861776Y-82867836D01*
X193857895Y-82839549D01*
X193843921Y-82227158D01*
X193843903Y-82226240D01*
X193843855Y-82223107D01*
X193843841Y-82221339D01*
X193843839Y-82218257D01*
X193843842Y-82217323D01*
X193845108Y-82030120D01*
X193877916Y-77178263D01*
X193877916Y-77178261D01*
X193880000Y-76870000D01*
X189224450Y-76965113D01*
X184896412Y-77053535D01*
X184871583Y-77051580D01*
X184792618Y-77037410D01*
X184746504Y-77019229D01*
X184689836Y-76982623D01*
X184654303Y-76948061D01*
X184616139Y-76892428D01*
X184596687Y-76846837D01*
X184580333Y-76768297D01*
X184577690Y-76743532D01*
X184557941Y-74037971D01*
X184550603Y-73032570D01*
X185090539Y-73032570D01*
X185094187Y-73065613D01*
X185108055Y-73191226D01*
X185109246Y-73202015D01*
X185111855Y-73209146D01*
X185111856Y-73209148D01*
X185159978Y-73340646D01*
X185167831Y-73362106D01*
X185172067Y-73368409D01*
X185172067Y-73368410D01*
X185258515Y-73497058D01*
X185262912Y-73503602D01*
X185268531Y-73508715D01*
X185268532Y-73508716D01*
X185356214Y-73588500D01*
X185389000Y-73618333D01*
X185538816Y-73699676D01*
X185703710Y-73742936D01*
X185790670Y-73744302D01*
X185866564Y-73745494D01*
X185866567Y-73745494D01*
X185874163Y-73745613D01*
X185881568Y-73743917D01*
X185881569Y-73743917D01*
X185942919Y-73729866D01*
X186040335Y-73707555D01*
X186192631Y-73630958D01*
X186242343Y-73588500D01*
X186316487Y-73525176D01*
X186316489Y-73525173D01*
X186322261Y-73520244D01*
X186412995Y-73393974D01*
X186468990Y-73350326D01*
X186515318Y-73341500D01*
X187600040Y-73341500D01*
X187695194Y-73325662D01*
X187704360Y-73320716D01*
X187704364Y-73320715D01*
X187723088Y-73310612D01*
X187782919Y-73295500D01*
X188070000Y-73295500D01*
X188083585Y-73292798D01*
X188095102Y-73285102D01*
X188102798Y-73273585D01*
X188105500Y-73260000D01*
X188105500Y-72660000D01*
X188102798Y-72646415D01*
X188095102Y-72634898D01*
X188083585Y-72627202D01*
X188070000Y-72624500D01*
X187786772Y-72624500D01*
X187745024Y-72617383D01*
X187636451Y-72579255D01*
X187627733Y-72578500D01*
X186388837Y-72578500D01*
X186320716Y-72558498D01*
X186305019Y-72546577D01*
X186210597Y-72462451D01*
X186210591Y-72462447D01*
X186204921Y-72457395D01*
X186136323Y-72421074D01*
X186060975Y-72381179D01*
X186060973Y-72381178D01*
X186054262Y-72377625D01*
X186046897Y-72375775D01*
X185896295Y-72337946D01*
X185896291Y-72337946D01*
X185888924Y-72336095D01*
X185881325Y-72336055D01*
X185881323Y-72336055D01*
X185810757Y-72335686D01*
X185718452Y-72335202D01*
X185711072Y-72336974D01*
X185711070Y-72336974D01*
X185560067Y-72373226D01*
X185560063Y-72373227D01*
X185552688Y-72374998D01*
X185401202Y-72453186D01*
X185272739Y-72565252D01*
X185174715Y-72704725D01*
X185171955Y-72711805D01*
X185119956Y-72845176D01*
X185112790Y-72863555D01*
X185111798Y-72871088D01*
X185111798Y-72871089D01*
X185092237Y-73019676D01*
X185090539Y-73032570D01*
X184550603Y-73032570D01*
X184540408Y-71635867D01*
X184523522Y-69322570D01*
X185030539Y-69322570D01*
X185049246Y-69492015D01*
X185051855Y-69499146D01*
X185051856Y-69499148D01*
X185069174Y-69546470D01*
X185107831Y-69652106D01*
X185112067Y-69658409D01*
X185112067Y-69658410D01*
X185152717Y-69718903D01*
X185202912Y-69793602D01*
X185208531Y-69798715D01*
X185208532Y-69798716D01*
X185254881Y-69840890D01*
X185329000Y-69908333D01*
X185478816Y-69989676D01*
X185643710Y-70032936D01*
X185730670Y-70034302D01*
X185806564Y-70035494D01*
X185806567Y-70035494D01*
X185814163Y-70035613D01*
X185821568Y-70033917D01*
X185821569Y-70033917D01*
X185882919Y-70019866D01*
X185980335Y-69997555D01*
X186132631Y-69920958D01*
X186226379Y-69840890D01*
X186256487Y-69815176D01*
X186256489Y-69815173D01*
X186262261Y-69810244D01*
X186361740Y-69671804D01*
X186425324Y-69513632D01*
X186425481Y-69512532D01*
X186460990Y-69454270D01*
X186524849Y-69423245D01*
X186545749Y-69421500D01*
X187600040Y-69421500D01*
X187695194Y-69405662D01*
X187704360Y-69400716D01*
X187704364Y-69400715D01*
X187723088Y-69390612D01*
X187782919Y-69375500D01*
X188070000Y-69375500D01*
X188083585Y-69372798D01*
X188095102Y-69365102D01*
X188102798Y-69353585D01*
X188105500Y-69340000D01*
X188105500Y-68740000D01*
X188102798Y-68726415D01*
X188095102Y-68714898D01*
X188083585Y-68707202D01*
X188070000Y-68704500D01*
X187786772Y-68704500D01*
X187745024Y-68697383D01*
X187731968Y-68692798D01*
X187636451Y-68659255D01*
X187627733Y-68658500D01*
X186082845Y-68658500D01*
X186062172Y-68656300D01*
X186058387Y-68656122D01*
X186048207Y-68653930D01*
X186016968Y-68657627D01*
X186010338Y-68658018D01*
X186010342Y-68658072D01*
X186005165Y-68658500D01*
X185999960Y-68658500D01*
X185994821Y-68659355D01*
X185990446Y-68659717D01*
X185949370Y-68656349D01*
X185828924Y-68626095D01*
X185821326Y-68626055D01*
X185821324Y-68626055D01*
X185749669Y-68625680D01*
X185658452Y-68625202D01*
X185651072Y-68626974D01*
X185651070Y-68626974D01*
X185500067Y-68663226D01*
X185500063Y-68663227D01*
X185492688Y-68664998D01*
X185341202Y-68743186D01*
X185212739Y-68855252D01*
X185114715Y-68994725D01*
X185083752Y-69074140D01*
X185065090Y-69122008D01*
X185052790Y-69153555D01*
X185051798Y-69161088D01*
X185051798Y-69161089D01*
X185031982Y-69311613D01*
X185030539Y-69322570D01*
X184523522Y-69322570D01*
X184473641Y-62488870D01*
X184493146Y-62420606D01*
X184546461Y-62373722D01*
X184616659Y-62363106D01*
X184624219Y-62364372D01*
X184642072Y-62367923D01*
X184650000Y-62369500D01*
X186450000Y-62369500D01*
X186549306Y-62349747D01*
X186605394Y-62312270D01*
X186673144Y-62291056D01*
X186741611Y-62309839D01*
X186789055Y-62362656D01*
X186801369Y-62414519D01*
X186860000Y-65350000D01*
X187108978Y-65388574D01*
X187114419Y-65389417D01*
X187114423Y-65389418D01*
X187692215Y-65478935D01*
X188028683Y-65531064D01*
X188049519Y-65536139D01*
X188115252Y-65558227D01*
X188152880Y-65578524D01*
X188198837Y-65614572D01*
X188227512Y-65646282D01*
X188258773Y-65695628D01*
X188275193Y-65735101D01*
X188290577Y-65802706D01*
X188293539Y-65823955D01*
X188581127Y-71218410D01*
X188610000Y-71760000D01*
X188949394Y-71758546D01*
X189017599Y-71778256D01*
X189064322Y-71831713D01*
X189074500Y-71869158D01*
X189074500Y-71870000D01*
X189075708Y-71876071D01*
X189075708Y-71876075D01*
X189077826Y-71886723D01*
X189080247Y-71898893D01*
X189096613Y-71923387D01*
X189106928Y-71930279D01*
X189110790Y-71932860D01*
X189110792Y-71932861D01*
X189121107Y-71939753D01*
X189133276Y-71942173D01*
X189133277Y-71942174D01*
X189142810Y-71944070D01*
X189150000Y-71945500D01*
X190973500Y-71945500D01*
X191041621Y-71965502D01*
X191088114Y-72019158D01*
X191099500Y-72071500D01*
X191099500Y-72078922D01*
X191079828Y-72144701D01*
X191076960Y-72147803D01*
X191072749Y-72157328D01*
X191070084Y-72161385D01*
X191067753Y-72165626D01*
X191061307Y-72173802D01*
X191048489Y-72210301D01*
X191046883Y-72214875D01*
X191043242Y-72224070D01*
X191029855Y-72254352D01*
X191029854Y-72254355D01*
X191025643Y-72263881D01*
X191024744Y-72274254D01*
X191022764Y-72281965D01*
X191021879Y-72286076D01*
X191019255Y-72293549D01*
X191018500Y-72302267D01*
X191018500Y-72340901D01*
X191018030Y-72351774D01*
X191014691Y-72390324D01*
X191017202Y-72400433D01*
X191018019Y-72410815D01*
X191017251Y-72410875D01*
X191018500Y-72421074D01*
X191018500Y-73853711D01*
X191016075Y-73872903D01*
X191015643Y-73873881D01*
X191014970Y-73881656D01*
X191014969Y-73881660D01*
X191014652Y-73885321D01*
X191009841Y-73910544D01*
X191006547Y-73921559D01*
X191006956Y-73931963D01*
X191007786Y-73953081D01*
X191007413Y-73968897D01*
X191004691Y-74000324D01*
X191007460Y-74011470D01*
X191011079Y-74036899D01*
X191011530Y-74048378D01*
X191022915Y-74077807D01*
X191027684Y-74092885D01*
X191035288Y-74123498D01*
X191040939Y-74132250D01*
X191044137Y-74139639D01*
X191054500Y-74189681D01*
X191054500Y-74470000D01*
X191057202Y-74483585D01*
X191064898Y-74495102D01*
X191076415Y-74502798D01*
X191090000Y-74505500D01*
X191690000Y-74505500D01*
X191703585Y-74502798D01*
X191715102Y-74495102D01*
X191722798Y-74483585D01*
X191725219Y-74471412D01*
X191728115Y-74464421D01*
X191772663Y-74409139D01*
X191840026Y-74386718D01*
X191908817Y-74404276D01*
X191932473Y-74424084D01*
X191932912Y-74423602D01*
X192014720Y-74498041D01*
X192059000Y-74538333D01*
X192208816Y-74619676D01*
X192373710Y-74662936D01*
X192460670Y-74664302D01*
X192536564Y-74665494D01*
X192536567Y-74665494D01*
X192544163Y-74665613D01*
X192551568Y-74663917D01*
X192551569Y-74663917D01*
X192612919Y-74649866D01*
X192710335Y-74627555D01*
X192862631Y-74550958D01*
X192916904Y-74504605D01*
X192986487Y-74445176D01*
X192986489Y-74445173D01*
X192992261Y-74440244D01*
X193091740Y-74301804D01*
X193144531Y-74170481D01*
X193152492Y-74150677D01*
X193155324Y-74143632D01*
X193174044Y-74012097D01*
X193178763Y-73978942D01*
X193178763Y-73978941D01*
X193179344Y-73974859D01*
X193179500Y-73960000D01*
X193159020Y-73790761D01*
X193098761Y-73631291D01*
X193014518Y-73508716D01*
X193006506Y-73497058D01*
X193006505Y-73497056D01*
X193002204Y-73490799D01*
X192874921Y-73377395D01*
X192846045Y-73362106D01*
X192730977Y-73301180D01*
X192730974Y-73301179D01*
X192724262Y-73297625D01*
X192716893Y-73295774D01*
X192715090Y-73295082D01*
X192658662Y-73251996D01*
X192634485Y-73185243D01*
X192650236Y-73116016D01*
X192700914Y-73066294D01*
X192732114Y-73054631D01*
X192842935Y-73029250D01*
X192842936Y-73029249D01*
X192850335Y-73027555D01*
X193002631Y-72950958D01*
X193096146Y-72871089D01*
X193126487Y-72845176D01*
X193126489Y-72845173D01*
X193132261Y-72840244D01*
X193231740Y-72701804D01*
X193295324Y-72543632D01*
X193319344Y-72374859D01*
X193319500Y-72360000D01*
X193299020Y-72190761D01*
X193238761Y-72031291D01*
X193234462Y-72025036D01*
X193234460Y-72025032D01*
X193174213Y-71937372D01*
X193152113Y-71869902D01*
X193169999Y-71801195D01*
X193222191Y-71753065D01*
X193277513Y-71740006D01*
X193763564Y-71737924D01*
X196694502Y-71725370D01*
X196694506Y-71725370D01*
X196700717Y-71725343D01*
X196700719Y-71725343D01*
X197002689Y-71724049D01*
X196995759Y-71085033D01*
X196900609Y-62312274D01*
X196919871Y-62243940D01*
X196973020Y-62196868D01*
X197043180Y-62186002D01*
X197108077Y-62214793D01*
X197131367Y-62240905D01*
X197166506Y-62293494D01*
X197250694Y-62349747D01*
X197350000Y-62369500D01*
X199150000Y-62369500D01*
X199249306Y-62349747D01*
X199333494Y-62293494D01*
X199389747Y-62209306D01*
X199396421Y-62175753D01*
X199429328Y-62112843D01*
X199491023Y-62077711D01*
X199561918Y-62081511D01*
X199619504Y-62123036D01*
X199643579Y-62175753D01*
X199650253Y-62209306D01*
X199706506Y-62293494D01*
X199790694Y-62349747D01*
X199890000Y-62369500D01*
X200282500Y-62369500D01*
X200350621Y-62389502D01*
X200397114Y-62443158D01*
X200408500Y-62495500D01*
X200408500Y-63208636D01*
X200388498Y-63276757D01*
X200354805Y-63311326D01*
X200351202Y-63313186D01*
X200222739Y-63425252D01*
X200124715Y-63564725D01*
X200103827Y-63618301D01*
X200070588Y-63703555D01*
X200062790Y-63723555D01*
X200061798Y-63731088D01*
X200061798Y-63731089D01*
X200042194Y-63880000D01*
X200040539Y-63892570D01*
X200059246Y-64062015D01*
X200061855Y-64069146D01*
X200061856Y-64069148D01*
X200081126Y-64121804D01*
X200117831Y-64222106D01*
X200122067Y-64228409D01*
X200122067Y-64228410D01*
X200205938Y-64353223D01*
X200212912Y-64363602D01*
X200218531Y-64368715D01*
X200218532Y-64368716D01*
X200305175Y-64447555D01*
X200339000Y-64478333D01*
X200488816Y-64559676D01*
X200653710Y-64602936D01*
X200740670Y-64604302D01*
X200816564Y-64605494D01*
X200816567Y-64605494D01*
X200824163Y-64605613D01*
X200831568Y-64603917D01*
X200831569Y-64603917D01*
X200892919Y-64589866D01*
X200990335Y-64567555D01*
X201142631Y-64490958D01*
X201256586Y-64393632D01*
X201266487Y-64385176D01*
X201266489Y-64385173D01*
X201272261Y-64380244D01*
X201371740Y-64241804D01*
X201435324Y-64083632D01*
X201459344Y-63914859D01*
X201459500Y-63900000D01*
X201439020Y-63730761D01*
X201378761Y-63571291D01*
X201315311Y-63478970D01*
X201286506Y-63437058D01*
X201286505Y-63437056D01*
X201282204Y-63430799D01*
X201276533Y-63425747D01*
X201276531Y-63425744D01*
X201213682Y-63369748D01*
X201176126Y-63309498D01*
X201171500Y-63275671D01*
X201171500Y-62495500D01*
X201191502Y-62427379D01*
X201245158Y-62380886D01*
X201297500Y-62369500D01*
X201690000Y-62369500D01*
X201789306Y-62349747D01*
X201873494Y-62293494D01*
X201929747Y-62209306D01*
X201936421Y-62175753D01*
X201969328Y-62112843D01*
X202031023Y-62077711D01*
X202101918Y-62081511D01*
X202159504Y-62123036D01*
X202183579Y-62175753D01*
X202190253Y-62209306D01*
X202246506Y-62293494D01*
X202330694Y-62349747D01*
X202430000Y-62369500D01*
X202822500Y-62369500D01*
X202890621Y-62389502D01*
X202937114Y-62443158D01*
X202948500Y-62495500D01*
X202948500Y-63129530D01*
X202928498Y-63197651D01*
X202905330Y-63224479D01*
X202812739Y-63305252D01*
X202714715Y-63444725D01*
X202697698Y-63488371D01*
X202670353Y-63558509D01*
X202652790Y-63603555D01*
X202651798Y-63611088D01*
X202651798Y-63611089D01*
X202635051Y-63738301D01*
X202630539Y-63772570D01*
X202639893Y-63857293D01*
X202646699Y-63918942D01*
X202649246Y-63942015D01*
X202651855Y-63949146D01*
X202651856Y-63949148D01*
X202703649Y-64090677D01*
X202707831Y-64102106D01*
X202712067Y-64108409D01*
X202712067Y-64108410D01*
X202794416Y-64230958D01*
X202802912Y-64243602D01*
X202808531Y-64248715D01*
X202808532Y-64248716D01*
X202912079Y-64342936D01*
X202929000Y-64358333D01*
X203078816Y-64439676D01*
X203243710Y-64482936D01*
X203330670Y-64484302D01*
X203406564Y-64485494D01*
X203406567Y-64485494D01*
X203414163Y-64485613D01*
X203421568Y-64483917D01*
X203421569Y-64483917D01*
X203533275Y-64458333D01*
X203580335Y-64447555D01*
X203732631Y-64370958D01*
X203816092Y-64299676D01*
X203856487Y-64265176D01*
X203856489Y-64265173D01*
X203862261Y-64260244D01*
X203961740Y-64121804D01*
X204025324Y-63963632D01*
X204049344Y-63794859D01*
X204049500Y-63780000D01*
X204029020Y-63610761D01*
X203968761Y-63451291D01*
X203940932Y-63410799D01*
X203876506Y-63317058D01*
X203876505Y-63317056D01*
X203872204Y-63310799D01*
X203852436Y-63293186D01*
X203817324Y-63261903D01*
X203753681Y-63205200D01*
X203716126Y-63144950D01*
X203711500Y-63111123D01*
X203711500Y-62495500D01*
X203731502Y-62427379D01*
X203785158Y-62380886D01*
X203837500Y-62369500D01*
X204230000Y-62369500D01*
X204329306Y-62349747D01*
X204413494Y-62293494D01*
X204469747Y-62209306D01*
X204476421Y-62175753D01*
X204509328Y-62112843D01*
X204571023Y-62077711D01*
X204641918Y-62081511D01*
G37*
%TD.AperFunction*%
%TD*%
%TA.AperFunction,Conductor*%
%TO.N,5V*%
G36*
X186531328Y-57834002D02*
G01*
X186532046Y-57834005D01*
X186533308Y-57834012D01*
X186534521Y-57834024D01*
X186536669Y-57834056D01*
X186537306Y-57834067D01*
X189039501Y-57884003D01*
X189063426Y-57886783D01*
X189139345Y-57903076D01*
X189183456Y-57921874D01*
X189237583Y-57958452D01*
X189271478Y-57992371D01*
X189308017Y-58046520D01*
X189326785Y-58090646D01*
X189343024Y-58166574D01*
X189345788Y-58190499D01*
X189454507Y-63834853D01*
X189454508Y-63834860D01*
X189460000Y-64120000D01*
X190049238Y-64150781D01*
X190291682Y-64163446D01*
X190509099Y-64174804D01*
X190532437Y-64178234D01*
X190606346Y-64196295D01*
X190649096Y-64215755D01*
X190701404Y-64252678D01*
X190734055Y-64286442D01*
X190769206Y-64339957D01*
X190787224Y-64383333D01*
X190802803Y-64457812D01*
X190805449Y-64481243D01*
X190855655Y-67164990D01*
X190863960Y-67608955D01*
X190856885Y-67646352D01*
X190857202Y-67646415D01*
X190854500Y-67660000D01*
X190854500Y-68660000D01*
X190857202Y-68673585D01*
X190864097Y-68683903D01*
X190864120Y-68683938D01*
X190864148Y-68684026D01*
X190868848Y-68695374D01*
X190867838Y-68695792D01*
X190885336Y-68751588D01*
X190904115Y-69755411D01*
X190902134Y-69780145D01*
X190887937Y-69858813D01*
X190869814Y-69904748D01*
X190833361Y-69961239D01*
X190798973Y-69996680D01*
X190743610Y-70034818D01*
X190698241Y-70054320D01*
X190620043Y-70070884D01*
X190595379Y-70073611D01*
X188896404Y-70093109D01*
X188828058Y-70073890D01*
X188780953Y-70020771D01*
X188769137Y-69973825D01*
X188547252Y-65811795D01*
X188547251Y-65811777D01*
X188547179Y-65810433D01*
X188545107Y-65788888D01*
X188542145Y-65767639D01*
X188538246Y-65746347D01*
X188522862Y-65678742D01*
X188509712Y-65637546D01*
X188493292Y-65598073D01*
X188473340Y-65559698D01*
X188442079Y-65510352D01*
X188415906Y-65475919D01*
X188387231Y-65444209D01*
X188355599Y-65414718D01*
X188353484Y-65413059D01*
X188311763Y-65380333D01*
X188311753Y-65380326D01*
X188309642Y-65378670D01*
X188287113Y-65363912D01*
X188275723Y-65356451D01*
X188275716Y-65356447D01*
X188273466Y-65354973D01*
X188235838Y-65334676D01*
X188196157Y-65317457D01*
X188130424Y-65295369D01*
X188129139Y-65294997D01*
X188129122Y-65294992D01*
X188116277Y-65291277D01*
X188109628Y-65289354D01*
X188108326Y-65289037D01*
X188108319Y-65289035D01*
X188090107Y-65284599D01*
X188090094Y-65284596D01*
X188088792Y-65284279D01*
X188077896Y-65282112D01*
X188068920Y-65280327D01*
X188068908Y-65280325D01*
X188067571Y-65280059D01*
X188066222Y-65279850D01*
X188066205Y-65279847D01*
X187731103Y-65227930D01*
X187641425Y-65214036D01*
X187577172Y-65183842D01*
X187568632Y-65175522D01*
X187133472Y-64709497D01*
X187101600Y-64646057D01*
X187099590Y-64626020D01*
X187055385Y-62412797D01*
X187055385Y-62412795D01*
X187055318Y-62409447D01*
X187048499Y-62355842D01*
X187036185Y-62303979D01*
X187028586Y-62278151D01*
X186978014Y-62192919D01*
X186940334Y-62150971D01*
X186932446Y-62142190D01*
X186932441Y-62142185D01*
X186930570Y-62140102D01*
X186897433Y-62109251D01*
X186878533Y-62099790D01*
X186814347Y-62067660D01*
X186814341Y-62067658D01*
X186808810Y-62064889D01*
X186740343Y-62046106D01*
X186695783Y-62038067D01*
X186597245Y-62048661D01*
X186591337Y-62050511D01*
X186591332Y-62050512D01*
X186552291Y-62062737D01*
X186529495Y-62069875D01*
X186464279Y-62101077D01*
X186463879Y-62100240D01*
X186406239Y-62115500D01*
X184766019Y-62115500D01*
X184697898Y-62095498D01*
X184673926Y-62075494D01*
X184537244Y-61929118D01*
X184523102Y-61910874D01*
X184483051Y-61848072D01*
X184465818Y-61805453D01*
X184450962Y-61732465D01*
X184448449Y-61709519D01*
X184434049Y-60879148D01*
X184434041Y-60878601D01*
X184434019Y-60876909D01*
X184434009Y-60875816D01*
X184434001Y-60873967D01*
X184434000Y-60873422D01*
X184434000Y-58146410D01*
X184436421Y-58121829D01*
X184438351Y-58112124D01*
X184451947Y-58043775D01*
X184470759Y-57998358D01*
X184507945Y-57942705D01*
X184542705Y-57907945D01*
X184598358Y-57870759D01*
X184643775Y-57851947D01*
X184721828Y-57836421D01*
X184746410Y-57834000D01*
X186530747Y-57834000D01*
X186531328Y-57834002D01*
G37*
%TD.AperFunction*%
%TD*%
%TA.AperFunction,Conductor*%
%TO.N,GND*%
G36*
X209765611Y-57854002D02*
G01*
X209812104Y-57907658D01*
X209822208Y-57977932D01*
X209815286Y-58003162D01*
X209810253Y-58010694D01*
X209807833Y-58022863D01*
X209807832Y-58022864D01*
X209801725Y-58053567D01*
X209790500Y-58110000D01*
X209790500Y-62110000D01*
X209810253Y-62209306D01*
X209866506Y-62293494D01*
X209950694Y-62349747D01*
X210050000Y-62369500D01*
X210386788Y-62369500D01*
X210454909Y-62389502D01*
X210501402Y-62443158D01*
X210511506Y-62513432D01*
X210482012Y-62578012D01*
X210475883Y-62584595D01*
X210158751Y-62901727D01*
X210096439Y-62935753D01*
X210054891Y-62937594D01*
X210048924Y-62936095D01*
X210041330Y-62936055D01*
X210041328Y-62936055D01*
X209965584Y-62935658D01*
X209878452Y-62935202D01*
X209871072Y-62936974D01*
X209871070Y-62936974D01*
X209720067Y-62973226D01*
X209720063Y-62973227D01*
X209712688Y-62974998D01*
X209561202Y-63053186D01*
X209432739Y-63165252D01*
X209334715Y-63304725D01*
X209315583Y-63353797D01*
X209276499Y-63454043D01*
X209272790Y-63463555D01*
X209271798Y-63471088D01*
X209271798Y-63471089D01*
X209252233Y-63619705D01*
X209250539Y-63632570D01*
X209253000Y-63654859D01*
X209267609Y-63787185D01*
X209269246Y-63802015D01*
X209271855Y-63809146D01*
X209271856Y-63809148D01*
X209316629Y-63931494D01*
X209327831Y-63962106D01*
X209332067Y-63968409D01*
X209332067Y-63968410D01*
X209414871Y-64091635D01*
X209422912Y-64103602D01*
X209428531Y-64108715D01*
X209428532Y-64108716D01*
X209535342Y-64205905D01*
X209549000Y-64218333D01*
X209698816Y-64299676D01*
X209863710Y-64342936D01*
X209950670Y-64344302D01*
X210026564Y-64345494D01*
X210026567Y-64345494D01*
X210034163Y-64345613D01*
X210041568Y-64343917D01*
X210041569Y-64343917D01*
X210108800Y-64328519D01*
X210200335Y-64307555D01*
X210352631Y-64230958D01*
X210394687Y-64195039D01*
X210476487Y-64125176D01*
X210476489Y-64125173D01*
X210482261Y-64120244D01*
X210581740Y-63981804D01*
X210645324Y-63823632D01*
X210662943Y-63699836D01*
X210668763Y-63658942D01*
X210668763Y-63658941D01*
X210669344Y-63654859D01*
X210669500Y-63640000D01*
X210658517Y-63549244D01*
X210670190Y-63479215D01*
X210694509Y-63445013D01*
X211182389Y-62957133D01*
X211198575Y-62944060D01*
X211201373Y-62941515D01*
X211210119Y-62935867D01*
X211216564Y-62927692D01*
X211216566Y-62927690D01*
X211229600Y-62911156D01*
X211234010Y-62906194D01*
X211233968Y-62906158D01*
X211237321Y-62902201D01*
X211241002Y-62898520D01*
X211253236Y-62881401D01*
X211256799Y-62876655D01*
X211282246Y-62844376D01*
X211288693Y-62836198D01*
X211291741Y-62827517D01*
X211297087Y-62820037D01*
X211311838Y-62770714D01*
X211313673Y-62765066D01*
X211328118Y-62723933D01*
X211328119Y-62723930D01*
X211330745Y-62716451D01*
X211331500Y-62707733D01*
X211331500Y-62705024D01*
X211331503Y-62704959D01*
X211333452Y-62698441D01*
X211331597Y-62651230D01*
X211331500Y-62646284D01*
X211331500Y-62495500D01*
X211351502Y-62427379D01*
X211405158Y-62380886D01*
X211457500Y-62369500D01*
X211850000Y-62369500D01*
X211949306Y-62349747D01*
X212033494Y-62293494D01*
X212089747Y-62209306D01*
X212096421Y-62175753D01*
X212129328Y-62112843D01*
X212191023Y-62077711D01*
X212261918Y-62081511D01*
X212319504Y-62123036D01*
X212343579Y-62175753D01*
X212350253Y-62209306D01*
X212406506Y-62293494D01*
X212490694Y-62349747D01*
X212590000Y-62369500D01*
X212982500Y-62369500D01*
X213050621Y-62389502D01*
X213097114Y-62443158D01*
X213108500Y-62495500D01*
X213108500Y-63039787D01*
X213088498Y-63107908D01*
X213071595Y-63128882D01*
X212728750Y-63471727D01*
X212666438Y-63505753D01*
X212624890Y-63507594D01*
X212618924Y-63506095D01*
X212611328Y-63506055D01*
X212611326Y-63506055D01*
X212537575Y-63505669D01*
X212448452Y-63505202D01*
X212441072Y-63506974D01*
X212441070Y-63506974D01*
X212290067Y-63543226D01*
X212290063Y-63543227D01*
X212282688Y-63544998D01*
X212131202Y-63623186D01*
X212002739Y-63735252D01*
X211904715Y-63874725D01*
X211873752Y-63954140D01*
X211851993Y-64009951D01*
X211842790Y-64033555D01*
X211841798Y-64041088D01*
X211841798Y-64041089D01*
X211821578Y-64194679D01*
X211820539Y-64202570D01*
X211823451Y-64228942D01*
X211836944Y-64351162D01*
X211839246Y-64372015D01*
X211841855Y-64379146D01*
X211841856Y-64379148D01*
X211878020Y-64477969D01*
X211897831Y-64532106D01*
X211992912Y-64673602D01*
X211998531Y-64678715D01*
X211998532Y-64678716D01*
X212113384Y-64783223D01*
X212119000Y-64788333D01*
X212268816Y-64869676D01*
X212433710Y-64912936D01*
X212520670Y-64914302D01*
X212596564Y-64915494D01*
X212596567Y-64915494D01*
X212604163Y-64915613D01*
X212611568Y-64913917D01*
X212611569Y-64913917D01*
X212672919Y-64899866D01*
X212770335Y-64877555D01*
X212922631Y-64800958D01*
X212952467Y-64775475D01*
X213046487Y-64695176D01*
X213046489Y-64695173D01*
X213052261Y-64690244D01*
X213151740Y-64551804D01*
X213215324Y-64393632D01*
X213236441Y-64245257D01*
X213238763Y-64228942D01*
X213238763Y-64228941D01*
X213239344Y-64224859D01*
X213239500Y-64210000D01*
X213228517Y-64119243D01*
X213240191Y-64049214D01*
X213264510Y-64015013D01*
X213722393Y-63557130D01*
X213738566Y-63544068D01*
X213741371Y-63541515D01*
X213750119Y-63535867D01*
X213756564Y-63527692D01*
X213756566Y-63527690D01*
X213769596Y-63511161D01*
X213774009Y-63506195D01*
X213773968Y-63506160D01*
X213777326Y-63502197D01*
X213781003Y-63498520D01*
X213793258Y-63481370D01*
X213796804Y-63476647D01*
X213822247Y-63444375D01*
X213822248Y-63444373D01*
X213828693Y-63436198D01*
X213831740Y-63427520D01*
X213837088Y-63420037D01*
X213840072Y-63410059D01*
X213840074Y-63410055D01*
X213851845Y-63370694D01*
X213853680Y-63365046D01*
X213868118Y-63323933D01*
X213868119Y-63323930D01*
X213870745Y-63316451D01*
X213871500Y-63307733D01*
X213871500Y-63304992D01*
X213871501Y-63304968D01*
X213873453Y-63298441D01*
X213871597Y-63251205D01*
X213871500Y-63246259D01*
X213871500Y-62495500D01*
X213891502Y-62427379D01*
X213945158Y-62380886D01*
X213997500Y-62369500D01*
X214390000Y-62369500D01*
X214489306Y-62349747D01*
X214573494Y-62293494D01*
X214629747Y-62209306D01*
X214636421Y-62175753D01*
X214669328Y-62112843D01*
X214731023Y-62077711D01*
X214801918Y-62081511D01*
X214859504Y-62123036D01*
X214883579Y-62175753D01*
X214890253Y-62209306D01*
X214946506Y-62293494D01*
X215030694Y-62349747D01*
X215130000Y-62369500D01*
X216930000Y-62369500D01*
X217029306Y-62349747D01*
X217113494Y-62293494D01*
X217169747Y-62209306D01*
X217176421Y-62175753D01*
X217209328Y-62112843D01*
X217271023Y-62077711D01*
X217341918Y-62081511D01*
X217399504Y-62123036D01*
X217423579Y-62175753D01*
X217430253Y-62209306D01*
X217486506Y-62293494D01*
X217570694Y-62349747D01*
X217670000Y-62369500D01*
X219470000Y-62369500D01*
X219569306Y-62349747D01*
X219653494Y-62293494D01*
X219709747Y-62209306D01*
X219729500Y-62110000D01*
X219729500Y-58110000D01*
X219718275Y-58053567D01*
X219712168Y-58022864D01*
X219712167Y-58022863D01*
X219709747Y-58010694D01*
X219705719Y-58004666D01*
X219698512Y-57937627D01*
X219730292Y-57874140D01*
X219791351Y-57837914D01*
X219822510Y-57834000D01*
X222397490Y-57834000D01*
X222465611Y-57854002D01*
X222512104Y-57907658D01*
X222522208Y-57977932D01*
X222515286Y-58003162D01*
X222510253Y-58010694D01*
X222507833Y-58022863D01*
X222507832Y-58022864D01*
X222501725Y-58053567D01*
X222490500Y-58110000D01*
X222490500Y-62110000D01*
X222510253Y-62209306D01*
X222566506Y-62293494D01*
X222650694Y-62349747D01*
X222750000Y-62369500D01*
X224550000Y-62369500D01*
X224649306Y-62349747D01*
X224733494Y-62293494D01*
X224789747Y-62209306D01*
X224809500Y-62110000D01*
X224809500Y-58110000D01*
X224798275Y-58053567D01*
X224792168Y-58022864D01*
X224792167Y-58022863D01*
X224789747Y-58010694D01*
X224785719Y-58004666D01*
X224778512Y-57937627D01*
X224810292Y-57874140D01*
X224871351Y-57837914D01*
X224902510Y-57834000D01*
X227477490Y-57834000D01*
X227545611Y-57854002D01*
X227592104Y-57907658D01*
X227602208Y-57977932D01*
X227595286Y-58003162D01*
X227590253Y-58010694D01*
X227587833Y-58022863D01*
X227587832Y-58022864D01*
X227581725Y-58053567D01*
X227570500Y-58110000D01*
X227570500Y-62110000D01*
X227590253Y-62209306D01*
X227646506Y-62293494D01*
X227730694Y-62349747D01*
X227830000Y-62369500D01*
X229630000Y-62369500D01*
X229729306Y-62349747D01*
X229813494Y-62293494D01*
X229869747Y-62209306D01*
X229876421Y-62175753D01*
X229909328Y-62112843D01*
X229971023Y-62077711D01*
X230041918Y-62081511D01*
X230099504Y-62123036D01*
X230123579Y-62175753D01*
X230130253Y-62209306D01*
X230186506Y-62293494D01*
X230270694Y-62349747D01*
X230370000Y-62369500D01*
X232170000Y-62369500D01*
X232269306Y-62349747D01*
X232353494Y-62293494D01*
X232409747Y-62209306D01*
X232416421Y-62175753D01*
X232449328Y-62112843D01*
X232511023Y-62077711D01*
X232581918Y-62081511D01*
X232639504Y-62123036D01*
X232663579Y-62175753D01*
X232670253Y-62209306D01*
X232726506Y-62293494D01*
X232810694Y-62349747D01*
X232910000Y-62369500D01*
X234710000Y-62369500D01*
X234775420Y-62356487D01*
X234846132Y-62362815D01*
X234902200Y-62406369D01*
X234926000Y-62480066D01*
X234926000Y-141817742D01*
X234924922Y-141834188D01*
X234911128Y-141938963D01*
X234902615Y-141970735D01*
X234865361Y-142060674D01*
X234848914Y-142089160D01*
X234789651Y-142166393D01*
X234766393Y-142189651D01*
X234689160Y-142248914D01*
X234660674Y-142265361D01*
X234570735Y-142302615D01*
X234538963Y-142311128D01*
X234434188Y-142324922D01*
X234417742Y-142326000D01*
X184942258Y-142326000D01*
X184925812Y-142324922D01*
X184821037Y-142311128D01*
X184789265Y-142302615D01*
X184699326Y-142265361D01*
X184670840Y-142248914D01*
X184593607Y-142189651D01*
X184570349Y-142166393D01*
X184511086Y-142089160D01*
X184494639Y-142060674D01*
X184457385Y-141970735D01*
X184448872Y-141938963D01*
X184435078Y-141834188D01*
X184434000Y-141817742D01*
X184434000Y-136441285D01*
X196294299Y-136441285D01*
X196331704Y-136688613D01*
X196408170Y-136926779D01*
X196410468Y-136931289D01*
X196410470Y-136931294D01*
X196471721Y-137051504D01*
X196521732Y-137149656D01*
X196669466Y-137351509D01*
X196847573Y-137527146D01*
X196851698Y-137530078D01*
X196851701Y-137530080D01*
X196934709Y-137589071D01*
X197051469Y-137672048D01*
X197275910Y-137782486D01*
X197280749Y-137783965D01*
X197280753Y-137783967D01*
X197510272Y-137854138D01*
X197510274Y-137854138D01*
X197515120Y-137855620D01*
X197520141Y-137856308D01*
X197520142Y-137856308D01*
X197757923Y-137888880D01*
X197762946Y-137889568D01*
X197835588Y-137887793D01*
X198007951Y-137883581D01*
X198007955Y-137883581D01*
X198013012Y-137883457D01*
X198258884Y-137837443D01*
X198494236Y-137752711D01*
X198713014Y-137631441D01*
X198716992Y-137628311D01*
X198716996Y-137628308D01*
X198905613Y-137479881D01*
X198905614Y-137479880D01*
X198909589Y-137476752D01*
X199078903Y-137292624D01*
X199216600Y-137083795D01*
X199218676Y-137079176D01*
X199317065Y-136860253D01*
X199317067Y-136860247D01*
X199319139Y-136855637D01*
X199320447Y-136850756D01*
X199320449Y-136850750D01*
X199382572Y-136618902D01*
X199382572Y-136618901D01*
X199383880Y-136614020D01*
X199401426Y-136441285D01*
X220494299Y-136441285D01*
X220531704Y-136688613D01*
X220608170Y-136926779D01*
X220610468Y-136931289D01*
X220610470Y-136931294D01*
X220671721Y-137051504D01*
X220721732Y-137149656D01*
X220869466Y-137351509D01*
X221047573Y-137527146D01*
X221051698Y-137530078D01*
X221051701Y-137530080D01*
X221134709Y-137589071D01*
X221251469Y-137672048D01*
X221475910Y-137782486D01*
X221480749Y-137783965D01*
X221480753Y-137783967D01*
X221710272Y-137854138D01*
X221710274Y-137854138D01*
X221715120Y-137855620D01*
X221720141Y-137856308D01*
X221720142Y-137856308D01*
X221957923Y-137888880D01*
X221962946Y-137889568D01*
X222035588Y-137887793D01*
X222207951Y-137883581D01*
X222207955Y-137883581D01*
X222213012Y-137883457D01*
X222458884Y-137837443D01*
X222694236Y-137752711D01*
X222913014Y-137631441D01*
X222916992Y-137628311D01*
X222916996Y-137628308D01*
X223105613Y-137479881D01*
X223105614Y-137479880D01*
X223109589Y-137476752D01*
X223278903Y-137292624D01*
X223416600Y-137083795D01*
X223418676Y-137079176D01*
X223517065Y-136860253D01*
X223517067Y-136860247D01*
X223519139Y-136855637D01*
X223520447Y-136850756D01*
X223520449Y-136850750D01*
X223582572Y-136618902D01*
X223582572Y-136618901D01*
X223583880Y-136614020D01*
X223609158Y-136365160D01*
X223609500Y-136332500D01*
X223589439Y-136083165D01*
X223529772Y-135840245D01*
X223473704Y-135708156D01*
X223434011Y-135614647D01*
X223434010Y-135614645D01*
X223432034Y-135609990D01*
X223298741Y-135398323D01*
X223133320Y-135210690D01*
X222940028Y-135051918D01*
X222723838Y-134926092D01*
X222585388Y-134872946D01*
X222495036Y-134838263D01*
X222495032Y-134838262D01*
X222490312Y-134836450D01*
X222485362Y-134835416D01*
X222485359Y-134835415D01*
X222250408Y-134786331D01*
X222250404Y-134786331D01*
X222245457Y-134785297D01*
X221995574Y-134773950D01*
X221990554Y-134774531D01*
X221990550Y-134774531D01*
X221752122Y-134802118D01*
X221747092Y-134802700D01*
X221742221Y-134804078D01*
X221742218Y-134804079D01*
X221631674Y-134835360D01*
X221506402Y-134870809D01*
X221279698Y-134976523D01*
X221275518Y-134979364D01*
X221275514Y-134979366D01*
X221164030Y-135055130D01*
X221072811Y-135117122D01*
X221069134Y-135120599D01*
X221069128Y-135120604D01*
X220973866Y-135210690D01*
X220891066Y-135288991D01*
X220739136Y-135487706D01*
X220620932Y-135708156D01*
X220539495Y-135944668D01*
X220496918Y-136191158D01*
X220494299Y-136441285D01*
X199401426Y-136441285D01*
X199409158Y-136365160D01*
X199409500Y-136332500D01*
X199389439Y-136083165D01*
X199329772Y-135840245D01*
X199273704Y-135708156D01*
X199234011Y-135614647D01*
X199234010Y-135614645D01*
X199232034Y-135609990D01*
X199098741Y-135398323D01*
X198933320Y-135210690D01*
X198740028Y-135051918D01*
X198523838Y-134926092D01*
X198385388Y-134872946D01*
X198295036Y-134838263D01*
X198295032Y-134838262D01*
X198290312Y-134836450D01*
X198285362Y-134835416D01*
X198285359Y-134835415D01*
X198050408Y-134786331D01*
X198050404Y-134786331D01*
X198045457Y-134785297D01*
X197795574Y-134773950D01*
X197790554Y-134774531D01*
X197790550Y-134774531D01*
X197552122Y-134802118D01*
X197547092Y-134802700D01*
X197542221Y-134804078D01*
X197542218Y-134804079D01*
X197431674Y-134835360D01*
X197306402Y-134870809D01*
X197079698Y-134976523D01*
X197075518Y-134979364D01*
X197075514Y-134979366D01*
X196964030Y-135055130D01*
X196872811Y-135117122D01*
X196869134Y-135120599D01*
X196869128Y-135120604D01*
X196773866Y-135210690D01*
X196691066Y-135288991D01*
X196539136Y-135487706D01*
X196420932Y-135708156D01*
X196339495Y-135944668D01*
X196296918Y-136191158D01*
X196294299Y-136441285D01*
X184434000Y-136441285D01*
X184434000Y-77349229D01*
X184454002Y-77281108D01*
X184507658Y-77234615D01*
X184577932Y-77224511D01*
X184617571Y-77237151D01*
X184653341Y-77255527D01*
X184699455Y-77273708D01*
X184702445Y-77274557D01*
X184702452Y-77274559D01*
X184744748Y-77286564D01*
X184744757Y-77286566D01*
X184747755Y-77287417D01*
X184826720Y-77301587D01*
X184828265Y-77301786D01*
X184828272Y-77301787D01*
X184850096Y-77304597D01*
X184850113Y-77304599D01*
X184851645Y-77304796D01*
X184853208Y-77304919D01*
X184853217Y-77304920D01*
X184873950Y-77306552D01*
X184876474Y-77306751D01*
X184889666Y-77307135D01*
X184900045Y-77307437D01*
X184900055Y-77307437D01*
X184901600Y-77307482D01*
X189229638Y-77219060D01*
X193494795Y-77131923D01*
X193563310Y-77150530D01*
X193610890Y-77203225D01*
X193623366Y-77258749D01*
X193622754Y-77349229D01*
X193591114Y-82028402D01*
X193589848Y-82215605D01*
X193589843Y-82216507D01*
X193589840Y-82217441D01*
X193589839Y-82218422D01*
X193589841Y-82221504D01*
X193589849Y-82223350D01*
X193589863Y-82225118D01*
X193589885Y-82226998D01*
X193589933Y-82230131D01*
X193589952Y-82231219D01*
X193589970Y-82232137D01*
X193589987Y-82232952D01*
X193603961Y-82845343D01*
X193604103Y-82847126D01*
X193604104Y-82847142D01*
X193606109Y-82872287D01*
X193606252Y-82874075D01*
X193610133Y-82902362D01*
X193643332Y-82997444D01*
X193679559Y-83058502D01*
X193681199Y-83060776D01*
X193700774Y-83087923D01*
X193700776Y-83087926D01*
X193706043Y-83095229D01*
X193784309Y-83156028D01*
X193789842Y-83158798D01*
X193789849Y-83158802D01*
X193820898Y-83174343D01*
X193872861Y-83222720D01*
X193890500Y-83287016D01*
X193890500Y-86359272D01*
X193870498Y-86427393D01*
X193846799Y-86452750D01*
X193847664Y-86453703D01*
X193806640Y-86490923D01*
X193795083Y-86501408D01*
X193764394Y-86534700D01*
X193760401Y-86542777D01*
X193760399Y-86542780D01*
X193723217Y-86617993D01*
X193720474Y-86623542D01*
X193702032Y-86692099D01*
X193693378Y-86763874D01*
X193727905Y-88276992D01*
X193735487Y-88609249D01*
X193755946Y-89505837D01*
X193759519Y-89662443D01*
X193759330Y-89672786D01*
X193729176Y-90180592D01*
X193717116Y-90383687D01*
X193717002Y-90385744D01*
X193716893Y-90387871D01*
X193716788Y-90390101D01*
X193716492Y-90397076D01*
X193716346Y-90401387D01*
X193716237Y-90405673D01*
X193716164Y-90410003D01*
X193716105Y-90417045D01*
X193716096Y-90419292D01*
X193716097Y-90421428D01*
X193716106Y-90423486D01*
X193721802Y-91088010D01*
X193743271Y-93592691D01*
X193743342Y-93601049D01*
X193744771Y-93625883D01*
X193744935Y-93627416D01*
X193746365Y-93640793D01*
X193747389Y-93650379D01*
X193751239Y-93674944D01*
X193767351Y-93752668D01*
X193782136Y-93800078D01*
X193801240Y-93845234D01*
X193824965Y-93888854D01*
X193862441Y-93944101D01*
X193864420Y-93946479D01*
X193864421Y-93946481D01*
X193892227Y-93979903D01*
X193892234Y-93979911D01*
X193894202Y-93982276D01*
X193896397Y-93984443D01*
X193896399Y-93984445D01*
X193905524Y-93993453D01*
X193929096Y-94016722D01*
X193967679Y-94047988D01*
X193970257Y-94049688D01*
X193970259Y-94049690D01*
X194020821Y-94083042D01*
X194020828Y-94083046D01*
X194023405Y-94084746D01*
X194026133Y-94086184D01*
X194026141Y-94086189D01*
X194064614Y-94106473D01*
X194064623Y-94106477D01*
X194067335Y-94107907D01*
X194112736Y-94126425D01*
X194115687Y-94127303D01*
X194115691Y-94127305D01*
X194157375Y-94139715D01*
X194160331Y-94140595D01*
X194238255Y-94155699D01*
X194239778Y-94155917D01*
X194239787Y-94155919D01*
X194250854Y-94157506D01*
X194262862Y-94159229D01*
X194264406Y-94159374D01*
X194264424Y-94159376D01*
X194285837Y-94161385D01*
X194285858Y-94161386D01*
X194287388Y-94161530D01*
X194288930Y-94161599D01*
X194288932Y-94161599D01*
X194299805Y-94162084D01*
X194312223Y-94162639D01*
X194839164Y-94160338D01*
X198266506Y-94145372D01*
X198266515Y-94145372D01*
X198268060Y-94145365D01*
X198292984Y-94144029D01*
X198317587Y-94141494D01*
X198342259Y-94137720D01*
X198378130Y-94130412D01*
X198417312Y-94122430D01*
X198417318Y-94122428D01*
X198420339Y-94121813D01*
X198467981Y-94107113D01*
X198470826Y-94105918D01*
X198470835Y-94105915D01*
X198510512Y-94089252D01*
X198513365Y-94088054D01*
X198546748Y-94069994D01*
X198554490Y-94065806D01*
X198554493Y-94065804D01*
X198557218Y-94064330D01*
X198559779Y-94062599D01*
X198559785Y-94062596D01*
X198606840Y-94030803D01*
X198612750Y-94026810D01*
X198651125Y-93994976D01*
X198675163Y-93970676D01*
X198683568Y-93962180D01*
X198683571Y-93962177D01*
X198685743Y-93959981D01*
X198692011Y-93952257D01*
X198715207Y-93923672D01*
X198715210Y-93923668D01*
X198717155Y-93921271D01*
X198722535Y-93913120D01*
X198722541Y-93913111D01*
X198722565Y-93913076D01*
X198738266Y-93889285D01*
X198738267Y-93889283D01*
X198745081Y-93878959D01*
X198745083Y-93878955D01*
X198746057Y-93877480D01*
X198760503Y-93852641D01*
X198761882Y-93849929D01*
X198770549Y-93832873D01*
X198773398Y-93827267D01*
X198792283Y-93759242D01*
X198798632Y-93736373D01*
X198798633Y-93736370D01*
X198800314Y-93730313D01*
X198800837Y-93723008D01*
X198804374Y-93673545D01*
X198805379Y-93659498D01*
X198805270Y-93653367D01*
X198804731Y-93623228D01*
X198804731Y-93623227D01*
X198804570Y-93614222D01*
X198785041Y-93551856D01*
X198776803Y-93525546D01*
X198776802Y-93525544D01*
X198774955Y-93519645D01*
X198770928Y-93512269D01*
X198743085Y-93461281D01*
X198743084Y-93461279D01*
X198740929Y-93457333D01*
X198738232Y-93453731D01*
X198738228Y-93453724D01*
X198704633Y-93408847D01*
X198679821Y-93342327D01*
X198679500Y-93333337D01*
X198679500Y-91435977D01*
X198699502Y-91367856D01*
X198708793Y-91356466D01*
X198708202Y-91355983D01*
X198712642Y-91350551D01*
X198717653Y-91345650D01*
X198726900Y-91331353D01*
X198768109Y-91267633D01*
X198771473Y-91262432D01*
X198797657Y-91196440D01*
X198811003Y-91140674D01*
X198846311Y-91079079D01*
X198909314Y-91046351D01*
X198933543Y-91044000D01*
X199169348Y-91044000D01*
X199237469Y-91064002D01*
X199283962Y-91117658D01*
X199294066Y-91187932D01*
X199274113Y-91240002D01*
X199261854Y-91258349D01*
X199245253Y-91283194D01*
X199225500Y-91382500D01*
X199225500Y-93382500D01*
X199245253Y-93481806D01*
X199301506Y-93565994D01*
X199385694Y-93622247D01*
X199485000Y-93642000D01*
X200015000Y-93642000D01*
X200114306Y-93622247D01*
X200114544Y-93623442D01*
X200172373Y-93617225D01*
X200182729Y-93620266D01*
X200185694Y-93622247D01*
X200285000Y-93642000D01*
X200815000Y-93642000D01*
X200914306Y-93622247D01*
X200914544Y-93623442D01*
X200972373Y-93617225D01*
X200982729Y-93620266D01*
X200985694Y-93622247D01*
X201085000Y-93642000D01*
X201615000Y-93642000D01*
X201714306Y-93622247D01*
X201714544Y-93623442D01*
X201772373Y-93617225D01*
X201782729Y-93620266D01*
X201785694Y-93622247D01*
X201885000Y-93642000D01*
X202415000Y-93642000D01*
X202514306Y-93622247D01*
X202598494Y-93565994D01*
X202654747Y-93481806D01*
X202674500Y-93382500D01*
X202674500Y-91382500D01*
X202654747Y-91283194D01*
X202638146Y-91258349D01*
X202625887Y-91240002D01*
X202604672Y-91172249D01*
X202623455Y-91103782D01*
X202676272Y-91056339D01*
X202730652Y-91044000D01*
X203169348Y-91044000D01*
X203237469Y-91064002D01*
X203283962Y-91117658D01*
X203294066Y-91187932D01*
X203274113Y-91240002D01*
X203261854Y-91258349D01*
X203245253Y-91283194D01*
X203225500Y-91382500D01*
X203225500Y-93382500D01*
X203245253Y-93481806D01*
X203301506Y-93565994D01*
X203385694Y-93622247D01*
X203485000Y-93642000D01*
X204015000Y-93642000D01*
X204114306Y-93622247D01*
X204114544Y-93623442D01*
X204172373Y-93617225D01*
X204182729Y-93620266D01*
X204185694Y-93622247D01*
X204285000Y-93642000D01*
X204815000Y-93642000D01*
X204914306Y-93622247D01*
X204998494Y-93565994D01*
X205054747Y-93481806D01*
X205074500Y-93382500D01*
X205074500Y-91382500D01*
X205054747Y-91283194D01*
X205038146Y-91258349D01*
X205025887Y-91240002D01*
X205004672Y-91172249D01*
X205023455Y-91103782D01*
X205076272Y-91056339D01*
X205130652Y-91044000D01*
X205569348Y-91044000D01*
X205637469Y-91064002D01*
X205683962Y-91117658D01*
X205694066Y-91187932D01*
X205674113Y-91240002D01*
X205661854Y-91258349D01*
X205645253Y-91283194D01*
X205625500Y-91382500D01*
X205625500Y-93382500D01*
X205645253Y-93481806D01*
X205701506Y-93565994D01*
X205785694Y-93622247D01*
X205885000Y-93642000D01*
X206415000Y-93642000D01*
X206514306Y-93622247D01*
X206514544Y-93623442D01*
X206572373Y-93617225D01*
X206582729Y-93620266D01*
X206585694Y-93622247D01*
X206685000Y-93642000D01*
X207215000Y-93642000D01*
X207314306Y-93622247D01*
X207314544Y-93623442D01*
X207372373Y-93617225D01*
X207382729Y-93620266D01*
X207385694Y-93622247D01*
X207485000Y-93642000D01*
X208015000Y-93642000D01*
X208114306Y-93622247D01*
X208198494Y-93565994D01*
X208254747Y-93481806D01*
X208274500Y-93382500D01*
X208274500Y-91382500D01*
X208254747Y-91283194D01*
X208238146Y-91258349D01*
X208225887Y-91240002D01*
X208204672Y-91172249D01*
X208223455Y-91103782D01*
X208276272Y-91056339D01*
X208330652Y-91044000D01*
X208592998Y-91044000D01*
X208661119Y-91064002D01*
X208707612Y-91117658D01*
X208718276Y-91156531D01*
X208720334Y-91175675D01*
X208749950Y-91270260D01*
X208752916Y-91275692D01*
X208752917Y-91275694D01*
X208776993Y-91319784D01*
X208775758Y-91320458D01*
X208781582Y-91329174D01*
X208782014Y-91328943D01*
X208784357Y-91333327D01*
X208784696Y-91333834D01*
X208784930Y-91334398D01*
X208784932Y-91334403D01*
X208787301Y-91340121D01*
X208790736Y-91345262D01*
X208790741Y-91345271D01*
X208799264Y-91358026D01*
X208820500Y-91428029D01*
X208820500Y-93339130D01*
X208805830Y-93395316D01*
X208806766Y-93395748D01*
X208777426Y-93459279D01*
X208773589Y-93467587D01*
X208752438Y-93542197D01*
X208751879Y-93545389D01*
X208751878Y-93545393D01*
X208747063Y-93572887D01*
X208743439Y-93593577D01*
X208755877Y-93691899D01*
X208757836Y-93697767D01*
X208757837Y-93697772D01*
X208776929Y-93754964D01*
X208778357Y-93759242D01*
X208785906Y-93774290D01*
X208799777Y-93801939D01*
X208810774Y-93823861D01*
X208839939Y-93865788D01*
X208873390Y-93904778D01*
X208910127Y-93939724D01*
X208950737Y-93971184D01*
X208953445Y-93972874D01*
X208953447Y-93972875D01*
X208964685Y-93979887D01*
X209001391Y-94002789D01*
X209009246Y-94007690D01*
X209055359Y-94030338D01*
X209058345Y-94031446D01*
X209058348Y-94031447D01*
X209078143Y-94038790D01*
X209102898Y-94047973D01*
X209152620Y-94060877D01*
X209155766Y-94061361D01*
X209155771Y-94061362D01*
X209225700Y-94072119D01*
X209233703Y-94073350D01*
X209235309Y-94073514D01*
X209235314Y-94073515D01*
X209257701Y-94075806D01*
X209259284Y-94075968D01*
X209279904Y-94077028D01*
X209283156Y-94077195D01*
X209283158Y-94077195D01*
X209284733Y-94077276D01*
X209296951Y-94077285D01*
X209308856Y-94077293D01*
X209308861Y-94077293D01*
X209310454Y-94077294D01*
X209456464Y-94069994D01*
X209485667Y-94068534D01*
X209509690Y-94066185D01*
X209511193Y-94065965D01*
X209511197Y-94065965D01*
X209522392Y-94064330D01*
X209533354Y-94062729D01*
X209534847Y-94062438D01*
X209555544Y-94058403D01*
X209555557Y-94058400D01*
X209557040Y-94058111D01*
X209598395Y-94047988D01*
X209629051Y-94040484D01*
X209629053Y-94040483D01*
X209631951Y-94039774D01*
X209677483Y-94023918D01*
X209720759Y-94004062D01*
X209723336Y-94002569D01*
X209723341Y-94002566D01*
X209759885Y-93981388D01*
X209759886Y-93981387D01*
X209762475Y-93979887D01*
X209766485Y-93977023D01*
X209801155Y-93952257D01*
X209815276Y-93942170D01*
X209851658Y-93910562D01*
X209874889Y-93886144D01*
X209882398Y-93878252D01*
X209882402Y-93878247D01*
X209884464Y-93876080D01*
X209914217Y-93838175D01*
X209914371Y-93837935D01*
X209916653Y-93832873D01*
X209943054Y-93774290D01*
X209944961Y-93770059D01*
X209955293Y-93733624D01*
X209993121Y-93673545D01*
X210057426Y-93643454D01*
X210076513Y-93642000D01*
X210415000Y-93642000D01*
X210514306Y-93622247D01*
X210598494Y-93565994D01*
X210654747Y-93481806D01*
X210674500Y-93382500D01*
X210674500Y-91382500D01*
X210654747Y-91283194D01*
X210647852Y-91272875D01*
X210647852Y-91272874D01*
X210620918Y-91232565D01*
X210599703Y-91164812D01*
X210618486Y-91096345D01*
X210671304Y-91048902D01*
X210726019Y-91036563D01*
X214489529Y-91046653D01*
X215166700Y-91048469D01*
X215234767Y-91068654D01*
X215281116Y-91122434D01*
X215291031Y-91192735D01*
X215271127Y-91244471D01*
X215245253Y-91283194D01*
X215225500Y-91382500D01*
X215225500Y-93382500D01*
X215245253Y-93481806D01*
X215301506Y-93565994D01*
X215385694Y-93622247D01*
X215485000Y-93642000D01*
X216015000Y-93642000D01*
X216114306Y-93622247D01*
X216114544Y-93623442D01*
X216172373Y-93617225D01*
X216182729Y-93620266D01*
X216185694Y-93622247D01*
X216285000Y-93642000D01*
X216815000Y-93642000D01*
X216914306Y-93622247D01*
X216914544Y-93623442D01*
X216972373Y-93617225D01*
X216982729Y-93620266D01*
X216985694Y-93622247D01*
X217085000Y-93642000D01*
X217615000Y-93642000D01*
X217714306Y-93622247D01*
X217714544Y-93623442D01*
X217772373Y-93617225D01*
X217782729Y-93620266D01*
X217785694Y-93622247D01*
X217885000Y-93642000D01*
X218415000Y-93642000D01*
X218514306Y-93622247D01*
X218514544Y-93623442D01*
X218572373Y-93617225D01*
X218582729Y-93620266D01*
X218585694Y-93622247D01*
X218685000Y-93642000D01*
X219215000Y-93642000D01*
X219314306Y-93622247D01*
X219314544Y-93623442D01*
X219372373Y-93617225D01*
X219382729Y-93620266D01*
X219385694Y-93622247D01*
X219485000Y-93642000D01*
X220015000Y-93642000D01*
X220114306Y-93622247D01*
X220198494Y-93565994D01*
X220254747Y-93481806D01*
X220274500Y-93382500D01*
X220274500Y-91382500D01*
X220254747Y-91283194D01*
X220238146Y-91258349D01*
X220216931Y-91190596D01*
X220235714Y-91122129D01*
X220288531Y-91074686D01*
X220343248Y-91062347D01*
X220588204Y-91063004D01*
X220656271Y-91083189D01*
X220702620Y-91136969D01*
X220710861Y-91162166D01*
X220711403Y-91167127D01*
X220713250Y-91173008D01*
X220713251Y-91173013D01*
X220721920Y-91200616D01*
X220740974Y-91261285D01*
X220772219Y-91318503D01*
X220783936Y-91337857D01*
X220788630Y-91342552D01*
X220792438Y-91347808D01*
X220799266Y-91358027D01*
X220820500Y-91428028D01*
X220820500Y-93345072D01*
X220818078Y-93369658D01*
X220816713Y-93376519D01*
X220807255Y-93405342D01*
X220792954Y-93435899D01*
X220792952Y-93435905D01*
X220790929Y-93440227D01*
X220789581Y-93444805D01*
X220789580Y-93444807D01*
X220775645Y-93492125D01*
X220769712Y-93512269D01*
X220769137Y-93515281D01*
X220769136Y-93515285D01*
X220763998Y-93542197D01*
X220760414Y-93560970D01*
X220761391Y-93570199D01*
X220770166Y-93653107D01*
X220770845Y-93659526D01*
X220791948Y-93727314D01*
X220823043Y-93792582D01*
X220830972Y-93804491D01*
X220862196Y-93842732D01*
X220896553Y-93877318D01*
X220934587Y-93908796D01*
X220989597Y-93945951D01*
X221033007Y-93969480D01*
X221077918Y-93988433D01*
X221125048Y-94003116D01*
X221128043Y-94003738D01*
X221128048Y-94003739D01*
X221147082Y-94007690D01*
X221191732Y-94016959D01*
X221191750Y-94016963D01*
X221194859Y-94017608D01*
X221202331Y-94019159D01*
X221203842Y-94019397D01*
X221203855Y-94019399D01*
X221213848Y-94020970D01*
X221226735Y-94022997D01*
X221228245Y-94023160D01*
X221228247Y-94023160D01*
X221249578Y-94025459D01*
X221249590Y-94025460D01*
X221251084Y-94025621D01*
X221252594Y-94025710D01*
X221252610Y-94025711D01*
X221274236Y-94026981D01*
X221274254Y-94026982D01*
X221275759Y-94027070D01*
X221649088Y-94030803D01*
X221674304Y-94029802D01*
X221675855Y-94029663D01*
X221675870Y-94029662D01*
X221689581Y-94028433D01*
X221699205Y-94027570D01*
X221700744Y-94027355D01*
X221700749Y-94027354D01*
X221705661Y-94026666D01*
X221724187Y-94024073D01*
X221725747Y-94023775D01*
X221725753Y-94023774D01*
X221800212Y-94009551D01*
X221800223Y-94009548D01*
X221803282Y-94008964D01*
X221815625Y-94005306D01*
X221848592Y-93995536D01*
X221848600Y-93995533D01*
X221851607Y-93994642D01*
X221897676Y-93975839D01*
X221900439Y-93974376D01*
X221900446Y-93974373D01*
X221939457Y-93953720D01*
X221939461Y-93953718D01*
X221942220Y-93952257D01*
X221998626Y-93914794D01*
X222001047Y-93912814D01*
X222035207Y-93884871D01*
X222035213Y-93884866D01*
X222037633Y-93882886D01*
X222072830Y-93847717D01*
X222104780Y-93808719D01*
X222106515Y-93806111D01*
X222106520Y-93806104D01*
X222107645Y-93804412D01*
X222107647Y-93804409D01*
X222127683Y-93774290D01*
X222142282Y-93752345D01*
X222165896Y-93707821D01*
X222184732Y-93661771D01*
X222199090Y-93613460D01*
X222206873Y-93572887D01*
X222213965Y-93535915D01*
X222213966Y-93535907D01*
X222214260Y-93534376D01*
X222215503Y-93525546D01*
X222217555Y-93510967D01*
X222217557Y-93510952D01*
X222217776Y-93509394D01*
X222220027Y-93484493D01*
X222221048Y-93459279D01*
X222200138Y-91195706D01*
X222197186Y-90876207D01*
X222186849Y-89757216D01*
X222185411Y-89732470D01*
X222182792Y-89708056D01*
X222178952Y-89683584D01*
X222176713Y-89672786D01*
X222163497Y-89609037D01*
X222163495Y-89609029D01*
X222163492Y-89609015D01*
X222163477Y-89608942D01*
X222162873Y-89606033D01*
X222148164Y-89558846D01*
X222129147Y-89513819D01*
X222124815Y-89505837D01*
X222109901Y-89436424D01*
X222134883Y-89369968D01*
X222191827Y-89327567D01*
X222250475Y-89320621D01*
X222427812Y-89341768D01*
X222433947Y-89341296D01*
X222433949Y-89341296D01*
X222627838Y-89326377D01*
X222627842Y-89326376D01*
X222633980Y-89325904D01*
X222833141Y-89270297D01*
X223017708Y-89177065D01*
X223180652Y-89049760D01*
X223315765Y-88893230D01*
X223417901Y-88713437D01*
X223483171Y-88517231D01*
X223509087Y-88312083D01*
X223509500Y-88282500D01*
X223489322Y-88076709D01*
X223429557Y-87878756D01*
X223332480Y-87696182D01*
X223283944Y-87636671D01*
X223205685Y-87540715D01*
X223205682Y-87540712D01*
X223201790Y-87535940D01*
X223184525Y-87521657D01*
X223047215Y-87408064D01*
X223047211Y-87408062D01*
X223042465Y-87404135D01*
X222860573Y-87305786D01*
X222663042Y-87244640D01*
X222656917Y-87243996D01*
X222656916Y-87243996D01*
X222463525Y-87223670D01*
X222463524Y-87223670D01*
X222457397Y-87223026D01*
X222371429Y-87230850D01*
X222257608Y-87241208D01*
X222257605Y-87241209D01*
X222251469Y-87241767D01*
X222245563Y-87243505D01*
X222245559Y-87243506D01*
X222099616Y-87286460D01*
X222053104Y-87300149D01*
X221869857Y-87395948D01*
X221708707Y-87525516D01*
X221575792Y-87683917D01*
X221572829Y-87689306D01*
X221572826Y-87689311D01*
X221569049Y-87696182D01*
X221476176Y-87865119D01*
X221474314Y-87870989D01*
X221422240Y-88035148D01*
X221382577Y-88094032D01*
X221317375Y-88122124D01*
X221248698Y-88111081D01*
X221247225Y-88110298D01*
X221202411Y-88091794D01*
X221155430Y-88077530D01*
X221152459Y-88076934D01*
X221152451Y-88076932D01*
X221079946Y-88062387D01*
X221079934Y-88062385D01*
X221078459Y-88062089D01*
X221058944Y-88059148D01*
X221055659Y-88058653D01*
X221055655Y-88058652D01*
X221054152Y-88058426D01*
X221029918Y-88055966D01*
X221005374Y-88054669D01*
X221003873Y-88054662D01*
X221003857Y-88054662D01*
X218228646Y-88042561D01*
X214812070Y-88027663D01*
X214744038Y-88007364D01*
X214697779Y-87953506D01*
X214686623Y-87900795D01*
X214693187Y-86949455D01*
X214697110Y-86380932D01*
X214719178Y-83182500D01*
X216425500Y-83182500D01*
X216425500Y-85182500D01*
X216445253Y-85281806D01*
X216501506Y-85365994D01*
X216511822Y-85372887D01*
X216519396Y-85377948D01*
X216585694Y-85422247D01*
X216685000Y-85442000D01*
X217215000Y-85442000D01*
X217314306Y-85422247D01*
X217314544Y-85423442D01*
X217372373Y-85417225D01*
X217382729Y-85420266D01*
X217385694Y-85422247D01*
X217485000Y-85442000D01*
X218015000Y-85442000D01*
X218114306Y-85422247D01*
X218180604Y-85377948D01*
X218188178Y-85372887D01*
X218198494Y-85365994D01*
X218254747Y-85281806D01*
X218274500Y-85182500D01*
X218274500Y-83182500D01*
X218825500Y-83182500D01*
X218825500Y-85182500D01*
X218845253Y-85281806D01*
X218901506Y-85365994D01*
X218911822Y-85372887D01*
X218919396Y-85377948D01*
X218985694Y-85422247D01*
X219085000Y-85442000D01*
X219615000Y-85442000D01*
X219714306Y-85422247D01*
X219714544Y-85423442D01*
X219772373Y-85417225D01*
X219782729Y-85420266D01*
X219785694Y-85422247D01*
X219885000Y-85442000D01*
X220415000Y-85442000D01*
X220514306Y-85422247D01*
X220514544Y-85423442D01*
X220572373Y-85417225D01*
X220582729Y-85420266D01*
X220585694Y-85422247D01*
X220685000Y-85442000D01*
X221215000Y-85442000D01*
X221314306Y-85422247D01*
X221314544Y-85423442D01*
X221372373Y-85417225D01*
X221382729Y-85420266D01*
X221385694Y-85422247D01*
X221485000Y-85442000D01*
X222015000Y-85442000D01*
X222114306Y-85422247D01*
X222180604Y-85377948D01*
X222188178Y-85372887D01*
X222198494Y-85365994D01*
X222254747Y-85281806D01*
X222274500Y-85182500D01*
X222274500Y-83182500D01*
X223190500Y-83182500D01*
X223190500Y-86382500D01*
X223210253Y-86481806D01*
X223266506Y-86565994D01*
X223276822Y-86572887D01*
X223303815Y-86590923D01*
X223350694Y-86622247D01*
X223450000Y-86642000D01*
X225750000Y-86642000D01*
X225849306Y-86622247D01*
X225896185Y-86590923D01*
X225923178Y-86572887D01*
X225933494Y-86565994D01*
X225989747Y-86481806D01*
X226009500Y-86382500D01*
X226009500Y-83182500D01*
X225989747Y-83083194D01*
X225933494Y-82999006D01*
X225921194Y-82990787D01*
X225859625Y-82949648D01*
X225849306Y-82942753D01*
X225750000Y-82923000D01*
X223450000Y-82923000D01*
X223350694Y-82942753D01*
X223340375Y-82949648D01*
X223278807Y-82990787D01*
X223266506Y-82999006D01*
X223210253Y-83083194D01*
X223190500Y-83182500D01*
X222274500Y-83182500D01*
X222254747Y-83083194D01*
X222198494Y-82999006D01*
X222186194Y-82990787D01*
X222124625Y-82949648D01*
X222114306Y-82942753D01*
X222015000Y-82923000D01*
X221485000Y-82923000D01*
X221385694Y-82942753D01*
X221385456Y-82941558D01*
X221327627Y-82947775D01*
X221317271Y-82944734D01*
X221314306Y-82942753D01*
X221215000Y-82923000D01*
X220685000Y-82923000D01*
X220585694Y-82942753D01*
X220585456Y-82941558D01*
X220527627Y-82947775D01*
X220517271Y-82944734D01*
X220514306Y-82942753D01*
X220415000Y-82923000D01*
X219885000Y-82923000D01*
X219785694Y-82942753D01*
X219785456Y-82941558D01*
X219727627Y-82947775D01*
X219717271Y-82944734D01*
X219714306Y-82942753D01*
X219615000Y-82923000D01*
X219085000Y-82923000D01*
X218985694Y-82942753D01*
X218975375Y-82949648D01*
X218913807Y-82990787D01*
X218901506Y-82999006D01*
X218845253Y-83083194D01*
X218825500Y-83182500D01*
X218274500Y-83182500D01*
X218254747Y-83083194D01*
X218198494Y-82999006D01*
X218186194Y-82990787D01*
X218124625Y-82949648D01*
X218114306Y-82942753D01*
X218015000Y-82923000D01*
X217485000Y-82923000D01*
X217385694Y-82942753D01*
X217385456Y-82941558D01*
X217327627Y-82947775D01*
X217317271Y-82944734D01*
X217314306Y-82942753D01*
X217215000Y-82923000D01*
X216685000Y-82923000D01*
X216585694Y-82942753D01*
X216575375Y-82949648D01*
X216513807Y-82990787D01*
X216501506Y-82999006D01*
X216445253Y-83083194D01*
X216425500Y-83182500D01*
X214719178Y-83182500D01*
X214820478Y-68500630D01*
X214840950Y-68432650D01*
X214894925Y-68386528D01*
X214946475Y-68375500D01*
X215450000Y-68375500D01*
X215463585Y-68372798D01*
X215475102Y-68365102D01*
X215482798Y-68353585D01*
X215485500Y-68340000D01*
X215485500Y-68334824D01*
X215511950Y-68269318D01*
X215569904Y-68228308D01*
X215610761Y-68221500D01*
X215979239Y-68221500D01*
X216047360Y-68241502D01*
X216093853Y-68295158D01*
X216104500Y-68334661D01*
X216104500Y-68340000D01*
X216107202Y-68353585D01*
X216114898Y-68365102D01*
X216126415Y-68372798D01*
X216140000Y-68375500D01*
X216740000Y-68375500D01*
X216753585Y-68372798D01*
X216765102Y-68365102D01*
X216772798Y-68353585D01*
X216775500Y-68340000D01*
X216775500Y-68050623D01*
X216786259Y-67999676D01*
X216810146Y-67945644D01*
X216814357Y-67936119D01*
X216825309Y-67809676D01*
X216794712Y-67686502D01*
X216789063Y-67677754D01*
X216785863Y-67670358D01*
X216775500Y-67620317D01*
X216775500Y-67340000D01*
X216772798Y-67326415D01*
X216765102Y-67314898D01*
X216753585Y-67307202D01*
X216740000Y-67304500D01*
X216140000Y-67304500D01*
X216126415Y-67307202D01*
X216114898Y-67314898D01*
X216107202Y-67326415D01*
X216104500Y-67340000D01*
X216104500Y-67345176D01*
X216078050Y-67410682D01*
X216020096Y-67451692D01*
X215979239Y-67458500D01*
X215610761Y-67458500D01*
X215542640Y-67438498D01*
X215496147Y-67384842D01*
X215485500Y-67345339D01*
X215485500Y-67340000D01*
X215482798Y-67326415D01*
X215475102Y-67314898D01*
X215463585Y-67307202D01*
X215450000Y-67304500D01*
X214955604Y-67304500D01*
X214887483Y-67284498D01*
X214840990Y-67230842D01*
X214829607Y-67177631D01*
X214831821Y-66856601D01*
X214831832Y-66855055D01*
X214830776Y-66830105D01*
X214828516Y-66805463D01*
X214825016Y-66780738D01*
X214809974Y-66702445D01*
X214795796Y-66654615D01*
X214794635Y-66651763D01*
X214794631Y-66651751D01*
X214778393Y-66611856D01*
X214778390Y-66611850D01*
X214777229Y-66608997D01*
X214753979Y-66564866D01*
X214717054Y-66508902D01*
X214685626Y-66470163D01*
X214650989Y-66435146D01*
X214612592Y-66403295D01*
X214610023Y-66401560D01*
X214610017Y-66401555D01*
X214559606Y-66367500D01*
X214559599Y-66367496D01*
X214557034Y-66365763D01*
X214513153Y-66342031D01*
X214467736Y-66322968D01*
X214464773Y-66322055D01*
X214464766Y-66322052D01*
X214438844Y-66314061D01*
X214420063Y-66308271D01*
X214417025Y-66307653D01*
X214417021Y-66307652D01*
X214393471Y-66302862D01*
X214341938Y-66292379D01*
X214317257Y-66288611D01*
X214315743Y-66288456D01*
X214315739Y-66288455D01*
X214307087Y-66287566D01*
X214292642Y-66286083D01*
X214276750Y-66285237D01*
X214269267Y-66284839D01*
X214269258Y-66284839D01*
X214267703Y-66284756D01*
X208404788Y-66261428D01*
X207429147Y-66257546D01*
X207361106Y-66237273D01*
X207314827Y-66183433D01*
X207303688Y-66128376D01*
X207342901Y-64570534D01*
X207397143Y-62415635D01*
X207397143Y-62415628D01*
X207397236Y-62411924D01*
X207392671Y-62362815D01*
X207392051Y-62356148D01*
X207392050Y-62356144D01*
X207391707Y-62352450D01*
X207379408Y-62294899D01*
X207370549Y-62263480D01*
X207338406Y-62209306D01*
X207323135Y-62183567D01*
X207323132Y-62183563D01*
X207319978Y-62178247D01*
X207272535Y-62125430D01*
X207239396Y-62094577D01*
X207213294Y-62081511D01*
X207156310Y-62052986D01*
X207156304Y-62052984D01*
X207150773Y-62050215D01*
X207122163Y-62042366D01*
X207061764Y-62005057D01*
X207031123Y-61941013D01*
X207029500Y-61920857D01*
X207029500Y-58110000D01*
X207018275Y-58053567D01*
X207012168Y-58022864D01*
X207012167Y-58022863D01*
X207009747Y-58010694D01*
X207005719Y-58004666D01*
X206998512Y-57937627D01*
X207030292Y-57874140D01*
X207091351Y-57837914D01*
X207122510Y-57834000D01*
X209697490Y-57834000D01*
X209765611Y-57854002D01*
G37*
%TD.AperFunction*%
%TA.AperFunction,Conductor*%
G36*
X201630419Y-83164570D02*
G01*
X201630437Y-83164486D01*
X201634830Y-83165442D01*
X201639153Y-83166711D01*
X201643612Y-83167352D01*
X201643616Y-83167353D01*
X201674933Y-83171855D01*
X201710713Y-83177000D01*
X201894500Y-83177000D01*
X201962621Y-83197002D01*
X202009114Y-83250658D01*
X202020500Y-83303000D01*
X202020500Y-85129355D01*
X202000498Y-85197476D01*
X201984390Y-85217648D01*
X201970304Y-85231987D01*
X201953727Y-85250608D01*
X201907791Y-85338425D01*
X201887789Y-85406546D01*
X201887148Y-85411005D01*
X201887147Y-85411009D01*
X201885196Y-85424578D01*
X201877500Y-85478106D01*
X201877500Y-85594580D01*
X201879841Y-85628989D01*
X201880131Y-85631109D01*
X201880132Y-85631120D01*
X201882974Y-85651905D01*
X201884466Y-85662815D01*
X201920572Y-85762768D01*
X201958128Y-85823018D01*
X201961026Y-85826457D01*
X201983917Y-85853622D01*
X202004714Y-85878303D01*
X202028904Y-85899856D01*
X202048920Y-85922561D01*
X202078195Y-85965157D01*
X202078196Y-85965159D01*
X202093388Y-85987264D01*
X202107410Y-86014085D01*
X202122108Y-86052980D01*
X202135164Y-86087532D01*
X202142385Y-86116932D01*
X202151115Y-86189066D01*
X202152230Y-86198283D01*
X202151886Y-86231174D01*
X202146583Y-86268438D01*
X202140338Y-86312315D01*
X202132502Y-86341558D01*
X202103219Y-86414402D01*
X202088634Y-86440933D01*
X202042826Y-86504681D01*
X202022334Y-86526965D01*
X201993929Y-86551225D01*
X201993926Y-86551228D01*
X201962638Y-86577950D01*
X201937423Y-86594702D01*
X201867288Y-86629977D01*
X201838804Y-86640232D01*
X201786214Y-86652277D01*
X201786213Y-86652277D01*
X201762280Y-86657758D01*
X201732174Y-86660922D01*
X201694660Y-86660333D01*
X201694659Y-86660333D01*
X201693178Y-86660310D01*
X201653679Y-86659689D01*
X201623689Y-86655581D01*
X201547745Y-86635657D01*
X201519602Y-86624514D01*
X201457736Y-86590924D01*
X201457735Y-86590924D01*
X201457733Y-86590923D01*
X201450609Y-86587055D01*
X201425941Y-86569524D01*
X201367866Y-86516681D01*
X201348090Y-86493770D01*
X201304303Y-86428608D01*
X201290560Y-86401635D01*
X201263580Y-86327909D01*
X201256667Y-86298436D01*
X201251716Y-86253593D01*
X201248051Y-86220402D01*
X201248368Y-86190130D01*
X201248508Y-86189071D01*
X201258614Y-86112303D01*
X201266143Y-86082980D01*
X201283997Y-86037186D01*
X201294661Y-86009834D01*
X201308967Y-85983153D01*
X201354111Y-85918922D01*
X201374366Y-85896426D01*
X201422596Y-85854352D01*
X201435538Y-85842242D01*
X201447931Y-85829806D01*
X201499060Y-85756031D01*
X201528554Y-85691451D01*
X201536450Y-85669068D01*
X201540622Y-85657244D01*
X201540623Y-85657240D01*
X201543619Y-85648747D01*
X201548924Y-85549784D01*
X201548042Y-85543648D01*
X201539222Y-85482303D01*
X201539220Y-85482294D01*
X201538820Y-85479510D01*
X201528407Y-85435445D01*
X201479366Y-85349324D01*
X201479684Y-85349143D01*
X201457777Y-85285240D01*
X201460072Y-85255035D01*
X201460605Y-85252358D01*
X201474500Y-85182500D01*
X201474500Y-83286681D01*
X201494502Y-83218560D01*
X201548158Y-83172067D01*
X201618432Y-83161963D01*
X201630419Y-83164570D01*
G37*
%TD.AperFunction*%
%TA.AperFunction,Conductor*%
G36*
X207339410Y-81579683D02*
G01*
X207339429Y-81579683D01*
X207371614Y-81579851D01*
X207401645Y-81583644D01*
X207471713Y-81601244D01*
X207477784Y-81602769D01*
X207506045Y-81613618D01*
X207525238Y-81623780D01*
X207525240Y-81623781D01*
X207525243Y-81623782D01*
X207575431Y-81650355D01*
X207600286Y-81667631D01*
X207658901Y-81719855D01*
X207678922Y-81742564D01*
X207686689Y-81753865D01*
X207686690Y-81753866D01*
X207723386Y-81807260D01*
X207737410Y-81834087D01*
X207765162Y-81907528D01*
X207772385Y-81936929D01*
X207782105Y-82017257D01*
X207782230Y-82018290D01*
X207781885Y-82051178D01*
X207772314Y-82118432D01*
X207770338Y-82132314D01*
X207762503Y-82161556D01*
X207733897Y-82232717D01*
X207733220Y-82234402D01*
X207718634Y-82260932D01*
X207672827Y-82324679D01*
X207652335Y-82346965D01*
X207610705Y-82382520D01*
X207609064Y-82384144D01*
X207609058Y-82384149D01*
X207585942Y-82407018D01*
X207585935Y-82407026D01*
X207584300Y-82408643D01*
X207582785Y-82410379D01*
X207582782Y-82410382D01*
X207569231Y-82425909D01*
X207560137Y-82436328D01*
X207559768Y-82436768D01*
X207558100Y-82438756D01*
X207558097Y-82438760D01*
X207553727Y-82443971D01*
X207507791Y-82531788D01*
X207487789Y-82599909D01*
X207477500Y-82671469D01*
X207477500Y-82800002D01*
X207489797Y-82878075D01*
X207491311Y-82882763D01*
X207491312Y-82882766D01*
X207510689Y-82942753D01*
X207513606Y-82951784D01*
X207514906Y-82954735D01*
X207514908Y-82954739D01*
X207520137Y-82966603D01*
X207534602Y-82999427D01*
X207599512Y-83074318D01*
X207610941Y-83083194D01*
X207642220Y-83107486D01*
X207655585Y-83117866D01*
X207657951Y-83119386D01*
X207686101Y-83137473D01*
X207686104Y-83137474D01*
X207693680Y-83142342D01*
X207702323Y-83144879D01*
X207702324Y-83144879D01*
X207782835Y-83168508D01*
X207782838Y-83168509D01*
X207788775Y-83170251D01*
X207802233Y-83171454D01*
X207840876Y-83174907D01*
X207840879Y-83174907D01*
X207849956Y-83175718D01*
X207850069Y-83174455D01*
X207860572Y-83173938D01*
X207885000Y-83176344D01*
X207884829Y-83178083D01*
X207885000Y-83178073D01*
X207885000Y-83177000D01*
X207891664Y-83177000D01*
X207897665Y-83177591D01*
X207903666Y-83177000D01*
X208299500Y-83177000D01*
X208367621Y-83197002D01*
X208414114Y-83250658D01*
X208425500Y-83303000D01*
X208425500Y-85182500D01*
X208438253Y-85246613D01*
X208431925Y-85317325D01*
X208419723Y-85340768D01*
X208412947Y-85350999D01*
X208395098Y-85377948D01*
X208386731Y-85390580D01*
X208385399Y-85393042D01*
X208385393Y-85393053D01*
X208380435Y-85402222D01*
X208365192Y-85430409D01*
X208363313Y-85439220D01*
X208363312Y-85439222D01*
X208362017Y-85445294D01*
X208344519Y-85527335D01*
X208343540Y-85598325D01*
X208344462Y-85610520D01*
X208346274Y-85634485D01*
X208346953Y-85643473D01*
X208350135Y-85651900D01*
X208378548Y-85727144D01*
X208381963Y-85736189D01*
X208419519Y-85796439D01*
X208466104Y-85851724D01*
X208469462Y-85854716D01*
X208469468Y-85854722D01*
X208508902Y-85889857D01*
X208528923Y-85912566D01*
X208573386Y-85977260D01*
X208587412Y-86004089D01*
X208615164Y-86077532D01*
X208622385Y-86106932D01*
X208631610Y-86183157D01*
X208632230Y-86188283D01*
X208631886Y-86221174D01*
X208620965Y-86297911D01*
X208620338Y-86302315D01*
X208612502Y-86331558D01*
X208583219Y-86404402D01*
X208568635Y-86430932D01*
X208525527Y-86490923D01*
X208522826Y-86494682D01*
X208502338Y-86516962D01*
X208442634Y-86567954D01*
X208417422Y-86584704D01*
X208347288Y-86619977D01*
X208318805Y-86630232D01*
X208314745Y-86631162D01*
X208282893Y-86638457D01*
X208242282Y-86647758D01*
X208212175Y-86650922D01*
X208174660Y-86650333D01*
X208174659Y-86650333D01*
X208173322Y-86650312D01*
X208133682Y-86649689D01*
X208103689Y-86645581D01*
X208027750Y-86625659D01*
X207999601Y-86614514D01*
X207983292Y-86605659D01*
X207930607Y-86577053D01*
X207905930Y-86559516D01*
X207904104Y-86557854D01*
X207888977Y-86544090D01*
X207887537Y-86542780D01*
X207847869Y-86506684D01*
X207828088Y-86483767D01*
X207784304Y-86418610D01*
X207770560Y-86391637D01*
X207743579Y-86317911D01*
X207736665Y-86288434D01*
X207735990Y-86282314D01*
X207728051Y-86210403D01*
X207728368Y-86180131D01*
X207729132Y-86174332D01*
X207738615Y-86102302D01*
X207746143Y-86072981D01*
X207774661Y-85999833D01*
X207788969Y-85973149D01*
X207791305Y-85969826D01*
X207797665Y-85960777D01*
X207797667Y-85960776D01*
X207800141Y-85957257D01*
X207834108Y-85908926D01*
X207854366Y-85886427D01*
X207890628Y-85854794D01*
X207890642Y-85854781D01*
X207892304Y-85853331D01*
X207917567Y-85827942D01*
X207933449Y-85809552D01*
X207936338Y-85806207D01*
X207936340Y-85806203D01*
X207940734Y-85801116D01*
X207992209Y-85706660D01*
X208012211Y-85638539D01*
X208013893Y-85626845D01*
X208021858Y-85571442D01*
X208022500Y-85566979D01*
X208022500Y-85564998D01*
X208010203Y-85486925D01*
X208007355Y-85478106D01*
X207987385Y-85416284D01*
X207986394Y-85413216D01*
X207985092Y-85410261D01*
X207969206Y-85374213D01*
X207969205Y-85374211D01*
X207965398Y-85365573D01*
X207900488Y-85290682D01*
X207857717Y-85257465D01*
X207846639Y-85248861D01*
X207846636Y-85248859D01*
X207844415Y-85247134D01*
X207835465Y-85241383D01*
X207813899Y-85227527D01*
X207813896Y-85227526D01*
X207806320Y-85222658D01*
X207797676Y-85220121D01*
X207717165Y-85196492D01*
X207717162Y-85196491D01*
X207711225Y-85194749D01*
X207697767Y-85193546D01*
X207659124Y-85190093D01*
X207659121Y-85190093D01*
X207650044Y-85189282D01*
X207649931Y-85190545D01*
X207639428Y-85191062D01*
X207615000Y-85188656D01*
X207615171Y-85186917D01*
X207615000Y-85186927D01*
X207615000Y-85188000D01*
X207608336Y-85188000D01*
X207602335Y-85187409D01*
X207596334Y-85188000D01*
X207200500Y-85188000D01*
X207132379Y-85167998D01*
X207085886Y-85114342D01*
X207074500Y-85062000D01*
X207074500Y-83182500D01*
X207073293Y-83176432D01*
X207072686Y-83170269D01*
X207074808Y-83170060D01*
X207080281Y-83108989D01*
X207110847Y-83063689D01*
X207112714Y-83061919D01*
X207114832Y-83060084D01*
X207146273Y-83027500D01*
X207192209Y-82939683D01*
X207212211Y-82871562D01*
X207222500Y-82800002D01*
X207222500Y-82707425D01*
X207219206Y-82673009D01*
X207218175Y-82662235D01*
X207218174Y-82662226D01*
X207217888Y-82659241D01*
X207208819Y-82612302D01*
X207208514Y-82611015D01*
X207205646Y-82598914D01*
X207205645Y-82598911D01*
X207203912Y-82591600D01*
X207193945Y-82572026D01*
X207161749Y-82508801D01*
X207161748Y-82508800D01*
X207158940Y-82503285D01*
X207143060Y-82483131D01*
X207125754Y-82461167D01*
X207125752Y-82461166D01*
X207118154Y-82451522D01*
X207116920Y-82452494D01*
X207104840Y-82440634D01*
X207095234Y-82427630D01*
X207095452Y-82427469D01*
X207095425Y-82427439D01*
X207096265Y-82426599D01*
X207096264Y-82426598D01*
X207090193Y-82420806D01*
X207089935Y-82420457D01*
X207087595Y-82418328D01*
X207067573Y-82400109D01*
X207067557Y-82400095D01*
X206997872Y-82336687D01*
X206978090Y-82313769D01*
X206934304Y-82248609D01*
X206920560Y-82221635D01*
X206893579Y-82147908D01*
X206886665Y-82118432D01*
X206886064Y-82112980D01*
X206878051Y-82040403D01*
X206878368Y-82010131D01*
X206880042Y-81997420D01*
X206888615Y-81932300D01*
X206896143Y-81902980D01*
X206898858Y-81896016D01*
X206898860Y-81896012D01*
X206924662Y-81829834D01*
X206938968Y-81803153D01*
X206984109Y-81738924D01*
X207004367Y-81716426D01*
X207063524Y-81664820D01*
X207088559Y-81647806D01*
X207158325Y-81611796D01*
X207186699Y-81601244D01*
X207263029Y-81582919D01*
X207293104Y-81579440D01*
X207339410Y-81579683D01*
G37*
%TD.AperFunction*%
%TA.AperFunction,Conductor*%
G36*
X210767621Y-83197002D02*
G01*
X210814114Y-83250658D01*
X210825500Y-83303000D01*
X210825500Y-85182500D01*
X210832619Y-85218291D01*
X210845253Y-85281806D01*
X210841320Y-85282588D01*
X210846488Y-85330778D01*
X210827545Y-85377948D01*
X210820736Y-85388229D01*
X210819179Y-85390580D01*
X210817847Y-85393042D01*
X210817841Y-85393053D01*
X210812883Y-85402222D01*
X210797640Y-85430409D01*
X210795761Y-85439220D01*
X210795760Y-85439222D01*
X210794465Y-85445294D01*
X210776967Y-85527335D01*
X210775988Y-85598325D01*
X210776910Y-85610520D01*
X210778722Y-85634485D01*
X210779401Y-85643473D01*
X210782583Y-85651900D01*
X210810996Y-85727144D01*
X210814411Y-85736189D01*
X210851967Y-85796439D01*
X210898552Y-85851723D01*
X210901909Y-85854714D01*
X210901911Y-85854716D01*
X210918902Y-85869855D01*
X210938921Y-85892562D01*
X210983389Y-85957265D01*
X210997411Y-85984088D01*
X211025164Y-86057535D01*
X211032385Y-86086934D01*
X211032973Y-86091793D01*
X211040814Y-86156579D01*
X211042230Y-86168282D01*
X211041886Y-86201170D01*
X211030338Y-86282314D01*
X211022503Y-86311557D01*
X210993220Y-86384402D01*
X210978634Y-86410933D01*
X210936453Y-86469634D01*
X210932826Y-86474681D01*
X210912332Y-86496967D01*
X210906402Y-86502032D01*
X210852638Y-86547951D01*
X210827420Y-86564705D01*
X210757288Y-86599977D01*
X210728807Y-86610232D01*
X210701202Y-86616554D01*
X210652282Y-86627758D01*
X210622175Y-86630922D01*
X210584660Y-86630333D01*
X210584659Y-86630333D01*
X210583322Y-86630312D01*
X210543682Y-86629689D01*
X210513689Y-86625581D01*
X210437750Y-86605659D01*
X210409601Y-86594514D01*
X210398457Y-86588463D01*
X210340610Y-86557055D01*
X210315933Y-86539518D01*
X210311089Y-86535110D01*
X210257867Y-86486682D01*
X210238094Y-86463775D01*
X210194298Y-86398601D01*
X210180558Y-86371633D01*
X210179430Y-86368549D01*
X210165893Y-86331558D01*
X210153580Y-86297911D01*
X210146667Y-86268438D01*
X210140740Y-86214754D01*
X210138778Y-86196985D01*
X210138052Y-86190408D01*
X210138110Y-86184848D01*
X210138017Y-86183158D01*
X210138017Y-86183157D01*
X210138128Y-86183157D01*
X210138368Y-86160133D01*
X210148614Y-86082303D01*
X210156143Y-86052980D01*
X210184661Y-85979836D01*
X210198967Y-85953156D01*
X210244108Y-85888926D01*
X210264367Y-85866426D01*
X210278115Y-85854433D01*
X210278206Y-85854353D01*
X210278488Y-85854107D01*
X210278490Y-85854105D01*
X210279895Y-85852879D01*
X210285225Y-85847641D01*
X210300077Y-85833046D01*
X210300082Y-85833041D01*
X210301426Y-85831720D01*
X210321450Y-85809552D01*
X210324683Y-85804064D01*
X210324687Y-85804059D01*
X210370002Y-85727144D01*
X210370002Y-85727143D01*
X210373237Y-85721653D01*
X210378376Y-85706660D01*
X210395345Y-85657157D01*
X210395348Y-85657147D01*
X210396258Y-85654492D01*
X210407064Y-85610520D01*
X210402642Y-85511513D01*
X210385698Y-85442568D01*
X210375637Y-85413216D01*
X210373939Y-85408263D01*
X210373939Y-85408262D01*
X210371016Y-85399736D01*
X210364537Y-85390579D01*
X210335215Y-85349143D01*
X210313769Y-85318836D01*
X210308384Y-85313732D01*
X210308059Y-85313173D01*
X210305222Y-85309899D01*
X210305843Y-85309361D01*
X210272699Y-85252358D01*
X210271477Y-85197696D01*
X210271521Y-85197476D01*
X210274500Y-85182500D01*
X210274500Y-83303000D01*
X210294502Y-83234879D01*
X210348158Y-83188386D01*
X210400500Y-83177000D01*
X210699500Y-83177000D01*
X210767621Y-83197002D01*
G37*
%TD.AperFunction*%
%TA.AperFunction,Conductor*%
G36*
X204129410Y-81789683D02*
G01*
X204129429Y-81789683D01*
X204161613Y-81789851D01*
X204191647Y-81793645D01*
X204267788Y-81812771D01*
X204296046Y-81823618D01*
X204352328Y-81853418D01*
X204352330Y-81853419D01*
X204365429Y-81860355D01*
X204390285Y-81877631D01*
X204448902Y-81929856D01*
X204468925Y-81952567D01*
X204499751Y-81997420D01*
X204499752Y-81997423D01*
X204513390Y-82017267D01*
X204527410Y-82044085D01*
X204530091Y-82051179D01*
X204555164Y-82117532D01*
X204562385Y-82146932D01*
X204572030Y-82226628D01*
X204572230Y-82228284D01*
X204571886Y-82261175D01*
X204561086Y-82337062D01*
X204560338Y-82342316D01*
X204552502Y-82371559D01*
X204523220Y-82444400D01*
X204508635Y-82470929D01*
X204472127Y-82521735D01*
X204472123Y-82521741D01*
X204472121Y-82521745D01*
X204435991Y-82572026D01*
X204433430Y-82577659D01*
X204422329Y-82602072D01*
X204415656Y-82613154D01*
X204414701Y-82612701D01*
X204387431Y-82670156D01*
X204370786Y-82716253D01*
X204365481Y-82815216D01*
X204366363Y-82821350D01*
X204366363Y-82821352D01*
X204374851Y-82880382D01*
X204375585Y-82885490D01*
X204385998Y-82929555D01*
X204390459Y-82937389D01*
X204431976Y-83010298D01*
X204431979Y-83010302D01*
X204435039Y-83015676D01*
X204439092Y-83020353D01*
X204473519Y-83060084D01*
X204481532Y-83069332D01*
X204514116Y-83100773D01*
X204601933Y-83146709D01*
X204670054Y-83166711D01*
X204674513Y-83167352D01*
X204674517Y-83167353D01*
X204705834Y-83171855D01*
X204741614Y-83177000D01*
X205099500Y-83177000D01*
X205167621Y-83197002D01*
X205214114Y-83250658D01*
X205225500Y-83303000D01*
X205225500Y-85182500D01*
X205245253Y-85281806D01*
X205252148Y-85292125D01*
X205256897Y-85303590D01*
X205252694Y-85305331D01*
X205266523Y-85350172D01*
X205251367Y-85411815D01*
X205245933Y-85421864D01*
X205241316Y-85430401D01*
X205220640Y-85527326D01*
X205219659Y-85598316D01*
X205223072Y-85643472D01*
X205226256Y-85651903D01*
X205226256Y-85651905D01*
X205255895Y-85730397D01*
X205255896Y-85730399D01*
X205258082Y-85736188D01*
X205295638Y-85796438D01*
X205334166Y-85842160D01*
X205341644Y-85851975D01*
X205360637Y-85879609D01*
X205390157Y-85922561D01*
X205393386Y-85927260D01*
X205407411Y-85954088D01*
X205435164Y-86027533D01*
X205442385Y-86056934D01*
X205452229Y-86138283D01*
X205452038Y-86156575D01*
X205452693Y-86156575D01*
X205452693Y-86156579D01*
X205451924Y-86167439D01*
X205451885Y-86171173D01*
X205451436Y-86174328D01*
X205451436Y-86174332D01*
X205443347Y-86231174D01*
X205440338Y-86252315D01*
X205432502Y-86281558D01*
X205403219Y-86354402D01*
X205388635Y-86380932D01*
X205352707Y-86430932D01*
X205342827Y-86444681D01*
X205322332Y-86466968D01*
X205294283Y-86490923D01*
X205294271Y-86490934D01*
X205294269Y-86490936D01*
X205263680Y-86517062D01*
X205262641Y-86517949D01*
X205237424Y-86534703D01*
X205202359Y-86552339D01*
X205188089Y-86559516D01*
X205167293Y-86569975D01*
X205138810Y-86580230D01*
X205102862Y-86588463D01*
X205102861Y-86588464D01*
X205102860Y-86588464D01*
X205062281Y-86597758D01*
X205032173Y-86600922D01*
X204994661Y-86600333D01*
X204994659Y-86600333D01*
X204953680Y-86599689D01*
X204923688Y-86595581D01*
X204847746Y-86575657D01*
X204819609Y-86564517D01*
X204765451Y-86535112D01*
X204765444Y-86535110D01*
X204764695Y-86534703D01*
X204752077Y-86527852D01*
X204750606Y-86527053D01*
X204725948Y-86509532D01*
X204725634Y-86509246D01*
X204723521Y-86507324D01*
X204723507Y-86507308D01*
X204723506Y-86507309D01*
X204667870Y-86456685D01*
X204648086Y-86433765D01*
X204646183Y-86430932D01*
X204632210Y-86410138D01*
X204632209Y-86410136D01*
X204632192Y-86410110D01*
X204604301Y-86368604D01*
X204590556Y-86341628D01*
X204581877Y-86317911D01*
X204580222Y-86313388D01*
X204580221Y-86313386D01*
X204563579Y-86267910D01*
X204556666Y-86238437D01*
X204552090Y-86196986D01*
X204548051Y-86160404D01*
X204548368Y-86130133D01*
X204554777Y-86081455D01*
X204554777Y-86081450D01*
X204558614Y-86052304D01*
X204566143Y-86022980D01*
X204594663Y-85949831D01*
X204608962Y-85923161D01*
X204613133Y-85917225D01*
X204613139Y-85917216D01*
X204618214Y-85909995D01*
X204657402Y-85854236D01*
X204671238Y-85837748D01*
X204679146Y-85829813D01*
X204730282Y-85756031D01*
X204759776Y-85691451D01*
X204767672Y-85669068D01*
X204771844Y-85657244D01*
X204771845Y-85657240D01*
X204774841Y-85648747D01*
X204780146Y-85549784D01*
X204779264Y-85543648D01*
X204770444Y-85482303D01*
X204770442Y-85482294D01*
X204770042Y-85479510D01*
X204759629Y-85435445D01*
X204752794Y-85423442D01*
X204713651Y-85354702D01*
X204713648Y-85354698D01*
X204710588Y-85349324D01*
X204671216Y-85303886D01*
X204665935Y-85297791D01*
X204665930Y-85297786D01*
X204664095Y-85295668D01*
X204631511Y-85264227D01*
X204543694Y-85218291D01*
X204475573Y-85198289D01*
X204471114Y-85197648D01*
X204471110Y-85197647D01*
X204432410Y-85192083D01*
X204404013Y-85188000D01*
X204005500Y-85188000D01*
X203937379Y-85167998D01*
X203890886Y-85114342D01*
X203879500Y-85062000D01*
X203879500Y-83228028D01*
X203900733Y-83158029D01*
X203905879Y-83150327D01*
X203917941Y-83134993D01*
X203922010Y-83130572D01*
X203926204Y-83126016D01*
X203929426Y-83120733D01*
X203929429Y-83120729D01*
X203954753Y-83079204D01*
X203955826Y-83077445D01*
X203965971Y-83058067D01*
X203967382Y-83055373D01*
X203967382Y-83055372D01*
X203971210Y-83048061D01*
X203984055Y-82990787D01*
X203991543Y-82957401D01*
X203991544Y-82957396D01*
X203992898Y-82951357D01*
X203993943Y-82908298D01*
X203994553Y-82883195D01*
X203994553Y-82883189D01*
X203994621Y-82880382D01*
X203991682Y-82835203D01*
X203957646Y-82742125D01*
X203941894Y-82716253D01*
X203923060Y-82685321D01*
X203920725Y-82681486D01*
X203874720Y-82625713D01*
X203787871Y-82546686D01*
X203768090Y-82523769D01*
X203724304Y-82458609D01*
X203710559Y-82431634D01*
X203683580Y-82357910D01*
X203676667Y-82328438D01*
X203671734Y-82283765D01*
X203671734Y-82283764D01*
X203668051Y-82250407D01*
X203668368Y-82220133D01*
X203668583Y-82218504D01*
X203677876Y-82147908D01*
X203678614Y-82142304D01*
X203686143Y-82112980D01*
X203714662Y-82039834D01*
X203728968Y-82013154D01*
X203774107Y-81948927D01*
X203794362Y-81926431D01*
X203853529Y-81874816D01*
X203878559Y-81857806D01*
X203948325Y-81821796D01*
X203976699Y-81811244D01*
X204053029Y-81792919D01*
X204083104Y-81789440D01*
X204129410Y-81789683D01*
G37*
%TD.AperFunction*%
%TA.AperFunction,Conductor*%
G36*
X191985611Y-57854002D02*
G01*
X192032104Y-57907658D01*
X192042208Y-57977932D01*
X192035286Y-58003162D01*
X192030253Y-58010694D01*
X192027833Y-58022863D01*
X192027832Y-58022864D01*
X192021725Y-58053567D01*
X192010500Y-58110000D01*
X192010500Y-62110000D01*
X192030253Y-62209306D01*
X192086506Y-62293494D01*
X192170694Y-62349747D01*
X192270000Y-62369500D01*
X194070000Y-62369500D01*
X194169306Y-62349747D01*
X194253494Y-62293494D01*
X194309747Y-62209306D01*
X194316421Y-62175753D01*
X194349328Y-62112843D01*
X194411023Y-62077711D01*
X194481918Y-62081511D01*
X194539504Y-62123036D01*
X194563579Y-62175753D01*
X194570253Y-62209306D01*
X194626506Y-62293494D01*
X194710694Y-62349747D01*
X194810000Y-62369500D01*
X196522574Y-62369500D01*
X196590695Y-62389502D01*
X196637188Y-62443158D01*
X196648567Y-62494132D01*
X196732868Y-70266665D01*
X196741774Y-71087787D01*
X196744556Y-71344324D01*
X196725294Y-71412658D01*
X196672145Y-71459730D01*
X196619103Y-71471690D01*
X193762476Y-71483926D01*
X193276425Y-71486008D01*
X193219159Y-71492800D01*
X193215684Y-71493620D01*
X193215680Y-71493621D01*
X193165665Y-71505427D01*
X193165650Y-71505431D01*
X193163837Y-71505859D01*
X193162048Y-71506397D01*
X193162036Y-71506400D01*
X193142941Y-71512140D01*
X193134563Y-71514659D01*
X193127658Y-71518879D01*
X193127656Y-71518880D01*
X193102522Y-71534241D01*
X193049999Y-71566341D01*
X192997807Y-71614471D01*
X192983956Y-71629743D01*
X192973444Y-71641334D01*
X192973442Y-71641336D01*
X192967390Y-71648010D01*
X192924191Y-71737206D01*
X192906305Y-71805913D01*
X192898849Y-71850576D01*
X192899930Y-71859525D01*
X192909522Y-71938945D01*
X192910732Y-71948967D01*
X192912659Y-71954851D01*
X192912660Y-71954854D01*
X192916580Y-71966822D01*
X192932832Y-72016437D01*
X192934825Y-72020467D01*
X192934827Y-72020471D01*
X192958410Y-72068149D01*
X192964885Y-72081239D01*
X192967433Y-72084947D01*
X192967434Y-72084948D01*
X193003384Y-72137256D01*
X193017410Y-72164085D01*
X193045164Y-72237534D01*
X193052385Y-72266934D01*
X193056268Y-72299022D01*
X193061337Y-72340901D01*
X193062230Y-72348283D01*
X193061886Y-72381174D01*
X193060504Y-72390888D01*
X193050338Y-72462315D01*
X193042504Y-72491554D01*
X193013220Y-72564403D01*
X192998636Y-72590930D01*
X192976456Y-72621797D01*
X192952826Y-72654681D01*
X192935585Y-72673430D01*
X192935874Y-72673736D01*
X192935856Y-72673753D01*
X192932598Y-72676679D01*
X192932338Y-72676962D01*
X192931221Y-72677916D01*
X192931206Y-72677929D01*
X192931189Y-72677944D01*
X192931187Y-72677946D01*
X192872639Y-72727951D01*
X192847428Y-72744700D01*
X192777291Y-72779976D01*
X192748805Y-72790232D01*
X192738777Y-72792528D01*
X192677458Y-72806571D01*
X192677437Y-72806576D01*
X192675409Y-72807041D01*
X192673412Y-72807640D01*
X192673401Y-72807643D01*
X192645613Y-72815980D01*
X192643176Y-72816711D01*
X192615255Y-72827148D01*
X192544447Y-72832265D01*
X192506100Y-72817042D01*
X192496625Y-72811332D01*
X192493345Y-72809355D01*
X192493092Y-72809775D01*
X192483627Y-72805603D01*
X192469871Y-72796719D01*
X192471141Y-72794752D01*
X192468024Y-72793328D01*
X192467454Y-72794435D01*
X192466849Y-72794123D01*
X192466555Y-72794578D01*
X192461941Y-72791598D01*
X192461939Y-72791597D01*
X192456747Y-72788244D01*
X192450998Y-72785968D01*
X192446492Y-72783649D01*
X192444019Y-72782342D01*
X192360610Y-72737055D01*
X192335933Y-72719518D01*
X192273639Y-72662835D01*
X192261554Y-72650198D01*
X192253076Y-72640002D01*
X192232947Y-72615793D01*
X192230655Y-72613547D01*
X192230650Y-72613542D01*
X192197577Y-72581139D01*
X192196486Y-72580070D01*
X192178103Y-72563727D01*
X192090286Y-72517791D01*
X192022165Y-72497789D01*
X192017706Y-72497148D01*
X192017702Y-72497147D01*
X191978828Y-72491558D01*
X191950605Y-72487500D01*
X191907500Y-72487500D01*
X191904153Y-72487860D01*
X191904149Y-72487860D01*
X191856874Y-72492942D01*
X191856867Y-72492943D01*
X191853510Y-72493304D01*
X191850210Y-72494022D01*
X191850209Y-72494022D01*
X191802822Y-72504330D01*
X191802815Y-72504332D01*
X191801168Y-72504690D01*
X191774945Y-72511884D01*
X191734180Y-72535097D01*
X191694202Y-72557862D01*
X191694198Y-72557865D01*
X191688824Y-72560925D01*
X191668485Y-72578549D01*
X191654192Y-72590934D01*
X191635168Y-72607418D01*
X191603727Y-72640002D01*
X191557791Y-72727819D01*
X191537789Y-72795940D01*
X191537148Y-72800399D01*
X191537147Y-72800403D01*
X191534755Y-72817042D01*
X191527500Y-72867500D01*
X191527500Y-73348787D01*
X191537909Y-73420754D01*
X191539191Y-73425093D01*
X191557062Y-73485581D01*
X191558139Y-73489228D01*
X191560621Y-73495490D01*
X191571167Y-73522099D01*
X191574977Y-73531713D01*
X191636037Y-73609775D01*
X191640736Y-73613819D01*
X191687714Y-73654253D01*
X191687723Y-73654260D01*
X191689848Y-73656089D01*
X191726663Y-73682450D01*
X191735165Y-73685418D01*
X191735168Y-73685419D01*
X191781377Y-73701547D01*
X191820233Y-73715109D01*
X191890540Y-73724978D01*
X191893359Y-73725120D01*
X191893363Y-73725120D01*
X191926762Y-73726798D01*
X191926763Y-73726798D01*
X191935763Y-73727250D01*
X192032136Y-73704136D01*
X192037753Y-73701548D01*
X192037756Y-73701547D01*
X192092535Y-73676308D01*
X192096618Y-73674427D01*
X192157305Y-73635139D01*
X192203521Y-73594822D01*
X192228555Y-73577808D01*
X192298325Y-73541796D01*
X192326699Y-73531244D01*
X192341140Y-73527777D01*
X192359210Y-73523439D01*
X192408062Y-73511711D01*
X192451839Y-73496876D01*
X192454961Y-73495490D01*
X192455067Y-73495476D01*
X192457141Y-73494666D01*
X192457339Y-73495174D01*
X192525337Y-73486125D01*
X192567526Y-73500637D01*
X192605530Y-73521859D01*
X192605512Y-73521893D01*
X192603168Y-73526090D01*
X192603268Y-73526131D01*
X192605403Y-73522099D01*
X192612115Y-73525653D01*
X192612120Y-73525655D01*
X192612129Y-73525660D01*
X192614888Y-73527121D01*
X192617347Y-73528458D01*
X192624074Y-73532214D01*
X192623597Y-73533068D01*
X192624911Y-73534229D01*
X192625656Y-73532822D01*
X192715429Y-73580355D01*
X192740284Y-73597629D01*
X192798907Y-73649861D01*
X192818922Y-73672563D01*
X192848754Y-73715969D01*
X192863386Y-73737259D01*
X192877412Y-73764088D01*
X192905163Y-73837528D01*
X192912384Y-73866928D01*
X192921980Y-73946225D01*
X192922230Y-73948290D01*
X192921885Y-73981177D01*
X192913692Y-74038750D01*
X192910338Y-74062315D01*
X192902503Y-74091557D01*
X192879946Y-74147672D01*
X192873219Y-74164405D01*
X192858636Y-74190930D01*
X192812829Y-74254678D01*
X192792337Y-74276962D01*
X192751945Y-74311460D01*
X192732640Y-74327948D01*
X192707425Y-74344701D01*
X192637288Y-74379977D01*
X192608804Y-74390232D01*
X192556214Y-74402277D01*
X192556213Y-74402277D01*
X192532280Y-74407758D01*
X192502174Y-74410922D01*
X192464660Y-74410333D01*
X192464659Y-74410333D01*
X192463322Y-74410312D01*
X192423682Y-74409689D01*
X192393689Y-74405581D01*
X192317750Y-74385659D01*
X192289605Y-74374516D01*
X192220607Y-74337053D01*
X192195934Y-74319518D01*
X192185666Y-74310175D01*
X192185662Y-74310172D01*
X192124674Y-74254678D01*
X192103856Y-74235735D01*
X192100981Y-74234003D01*
X192095849Y-74228970D01*
X192095539Y-74229340D01*
X192072562Y-74210100D01*
X192072538Y-74210080D01*
X192071883Y-74209532D01*
X192071218Y-74209005D01*
X192071198Y-74208989D01*
X192066561Y-74205316D01*
X192066557Y-74205313D01*
X192061034Y-74200939D01*
X192014236Y-74178549D01*
X191977217Y-74160837D01*
X191977212Y-74160835D01*
X191971633Y-74158166D01*
X191902842Y-74140608D01*
X191900069Y-74140159D01*
X191900066Y-74140158D01*
X191867038Y-74134806D01*
X191867037Y-74134806D01*
X191858145Y-74133365D01*
X191759811Y-74145717D01*
X191692448Y-74168138D01*
X191670155Y-74177842D01*
X191659196Y-74182612D01*
X191659194Y-74182613D01*
X191650931Y-74186210D01*
X191644017Y-74191988D01*
X191644011Y-74191992D01*
X191607889Y-74222181D01*
X191542793Y-74250518D01*
X191527089Y-74251500D01*
X191428584Y-74251500D01*
X191360463Y-74231498D01*
X191313970Y-74177842D01*
X191304914Y-74144421D01*
X191304042Y-74144556D01*
X191303551Y-74141375D01*
X191303223Y-74138174D01*
X191292860Y-74088132D01*
X191277241Y-74038750D01*
X191275955Y-74035779D01*
X191275328Y-74034100D01*
X191272095Y-74024217D01*
X191269859Y-74016288D01*
X191267349Y-74008352D01*
X191261519Y-73967389D01*
X191261692Y-73960056D01*
X191261692Y-73960040D01*
X191261715Y-73959070D01*
X191261707Y-73958088D01*
X191261715Y-73957093D01*
X191261841Y-73957094D01*
X191263746Y-73936114D01*
X191263590Y-73936088D01*
X191263852Y-73934494D01*
X191264154Y-73932911D01*
X191267705Y-73907232D01*
X191267728Y-73906966D01*
X191268075Y-73904745D01*
X191268071Y-73904744D01*
X191270247Y-73887526D01*
X191270248Y-73887513D01*
X191270496Y-73885552D01*
X191272500Y-73853711D01*
X191272500Y-72421074D01*
X191272385Y-72419181D01*
X191272384Y-72419163D01*
X191270946Y-72395593D01*
X191270906Y-72393672D01*
X191271236Y-72390888D01*
X191270750Y-72384717D01*
X191270861Y-72379091D01*
X191271101Y-72373417D01*
X191271438Y-72368224D01*
X191271793Y-72362743D01*
X191272135Y-72354824D01*
X191280869Y-72313875D01*
X191282815Y-72308961D01*
X191283042Y-72308388D01*
X191286540Y-72299022D01*
X191286733Y-72298471D01*
X191286761Y-72298395D01*
X191288095Y-72294593D01*
X191296330Y-72276059D01*
X191303820Y-72262308D01*
X191303826Y-72262296D01*
X191305059Y-72260032D01*
X191309270Y-72250507D01*
X191309104Y-72250434D01*
X191314219Y-72234402D01*
X191320279Y-72222957D01*
X191320282Y-72222949D01*
X191323179Y-72217478D01*
X191342851Y-72151699D01*
X191353500Y-72078922D01*
X191353500Y-72071500D01*
X191347696Y-72017510D01*
X191336310Y-71965168D01*
X191329116Y-71938945D01*
X191283891Y-71859525D01*
X191283138Y-71858202D01*
X191283135Y-71858198D01*
X191280075Y-71852824D01*
X191239427Y-71805913D01*
X191235422Y-71801291D01*
X191235417Y-71801286D01*
X191233582Y-71799168D01*
X191200998Y-71767727D01*
X191113181Y-71721791D01*
X191045060Y-71701789D01*
X191040601Y-71701148D01*
X191040597Y-71701147D01*
X191009280Y-71696645D01*
X190973500Y-71691500D01*
X189336332Y-71691500D01*
X189268211Y-71671498D01*
X189241462Y-71648419D01*
X189241105Y-71648010D01*
X189208845Y-71611101D01*
X189206806Y-71609150D01*
X189182641Y-71586031D01*
X189182637Y-71586028D01*
X189176128Y-71579801D01*
X189088115Y-71534241D01*
X189082170Y-71532523D01*
X189082165Y-71532521D01*
X189024239Y-71515782D01*
X189019910Y-71514531D01*
X188952904Y-71505189D01*
X188888197Y-71475972D01*
X188849559Y-71416411D01*
X188844481Y-71387104D01*
X188842201Y-71344324D01*
X188834767Y-71204888D01*
X188796098Y-70479549D01*
X188812445Y-70410460D01*
X188863549Y-70361176D01*
X188920472Y-70346849D01*
X189572426Y-70339367D01*
X190596757Y-70327612D01*
X190596772Y-70327611D01*
X190598294Y-70327594D01*
X190599833Y-70327500D01*
X190599843Y-70327500D01*
X190621748Y-70326167D01*
X190623293Y-70326073D01*
X190640002Y-70324226D01*
X190646402Y-70323518D01*
X190646405Y-70323518D01*
X190647957Y-70323346D01*
X190649498Y-70323098D01*
X190649507Y-70323097D01*
X190665294Y-70320558D01*
X190672678Y-70319371D01*
X190674174Y-70319054D01*
X190674180Y-70319053D01*
X190747838Y-70303451D01*
X190747847Y-70303449D01*
X190750876Y-70302807D01*
X190753826Y-70301871D01*
X190753832Y-70301869D01*
X190795592Y-70288613D01*
X190795598Y-70288611D01*
X190798549Y-70287674D01*
X190805233Y-70284801D01*
X190841053Y-70269404D01*
X190841061Y-70269400D01*
X190843918Y-70268172D01*
X190887703Y-70243991D01*
X190943066Y-70205853D01*
X190945438Y-70203847D01*
X190945444Y-70203843D01*
X190978894Y-70175562D01*
X190981266Y-70173557D01*
X191015654Y-70138116D01*
X191017585Y-70135686D01*
X191017592Y-70135679D01*
X191035996Y-70112529D01*
X191094044Y-70071652D01*
X191159204Y-70067358D01*
X191175000Y-70070500D01*
X191625000Y-70070500D01*
X191632190Y-70069070D01*
X191641723Y-70067174D01*
X191641724Y-70067173D01*
X191653893Y-70064753D01*
X191664208Y-70057861D01*
X191664210Y-70057860D01*
X191668072Y-70055279D01*
X191678387Y-70048387D01*
X191694753Y-70023893D01*
X191700500Y-69995000D01*
X191700500Y-69365000D01*
X191694753Y-69336107D01*
X191678387Y-69311613D01*
X191667317Y-69304217D01*
X191664210Y-69302140D01*
X191664208Y-69302139D01*
X191653893Y-69295247D01*
X191641724Y-69292827D01*
X191641723Y-69292826D01*
X191631068Y-69290707D01*
X191625000Y-69289500D01*
X191273109Y-69289500D01*
X191204988Y-69269498D01*
X191158495Y-69215842D01*
X191147131Y-69165857D01*
X191147040Y-69161003D01*
X191139292Y-68746837D01*
X191127697Y-68675582D01*
X191126354Y-68671299D01*
X191126351Y-68671287D01*
X191114274Y-68632777D01*
X191108500Y-68595073D01*
X191108500Y-67694589D01*
X191110696Y-67671167D01*
X191112929Y-67659364D01*
X191112929Y-67659362D01*
X191113533Y-67656171D01*
X191117916Y-67604204D01*
X191115191Y-67458500D01*
X191109611Y-67160239D01*
X191059433Y-64477969D01*
X191059432Y-64477953D01*
X191059405Y-64476492D01*
X191057845Y-64452741D01*
X191055199Y-64429310D01*
X191051422Y-64405808D01*
X191048875Y-64393632D01*
X191036446Y-64334210D01*
X191036444Y-64334202D01*
X191035843Y-64331329D01*
X191034451Y-64326828D01*
X191022666Y-64288720D01*
X191022662Y-64288708D01*
X191021792Y-64285896D01*
X191020659Y-64283169D01*
X191020656Y-64283160D01*
X191004911Y-64245257D01*
X191004910Y-64245256D01*
X191003774Y-64242520D01*
X190981504Y-64200510D01*
X190978820Y-64196424D01*
X190947976Y-64149465D01*
X190947970Y-64149456D01*
X190946353Y-64146995D01*
X190916644Y-64109872D01*
X190883993Y-64076108D01*
X190859698Y-64055293D01*
X190850120Y-64047086D01*
X190850116Y-64047083D01*
X190847881Y-64045168D01*
X190795573Y-64008245D01*
X190754328Y-63984579D01*
X190711578Y-63965119D01*
X190702879Y-63962106D01*
X190669431Y-63950521D01*
X190669425Y-63950519D01*
X190666641Y-63949555D01*
X190592732Y-63931494D01*
X190591294Y-63931213D01*
X190591288Y-63931212D01*
X190570827Y-63927218D01*
X190570818Y-63927217D01*
X190569371Y-63926934D01*
X190559277Y-63925450D01*
X190547477Y-63923716D01*
X190547468Y-63923715D01*
X190546033Y-63923504D01*
X190544584Y-63923360D01*
X190544576Y-63923359D01*
X190536550Y-63922561D01*
X190522350Y-63921150D01*
X190304933Y-63909792D01*
X190062489Y-63897127D01*
X189826544Y-63884801D01*
X189759559Y-63861273D01*
X189715929Y-63805265D01*
X189707140Y-63761400D01*
X189599770Y-58187105D01*
X189599770Y-58187099D01*
X189599741Y-58185607D01*
X189598110Y-58161349D01*
X189595346Y-58137424D01*
X189591407Y-58113451D01*
X189587949Y-58097280D01*
X189575799Y-58040473D01*
X189575799Y-58040472D01*
X189575168Y-58037523D01*
X189566679Y-58010694D01*
X189562666Y-57998009D01*
X189561187Y-57927028D01*
X189598317Y-57866515D01*
X189662270Y-57835683D01*
X189682796Y-57834000D01*
X191917490Y-57834000D01*
X191985611Y-57854002D01*
G37*
%TD.AperFunction*%
%TA.AperFunction,Conductor*%
G36*
X185809410Y-72589683D02*
G01*
X185809429Y-72589683D01*
X185841613Y-72589851D01*
X185871647Y-72593645D01*
X185947788Y-72612771D01*
X185976046Y-72623618D01*
X186017468Y-72645550D01*
X186045433Y-72660357D01*
X186070288Y-72677631D01*
X186133281Y-72733755D01*
X186136052Y-72736224D01*
X186136996Y-72737001D01*
X186137003Y-72737007D01*
X186138030Y-72737852D01*
X186151399Y-72748856D01*
X186167096Y-72760777D01*
X186249156Y-72802209D01*
X186317277Y-72822211D01*
X186321736Y-72822852D01*
X186321740Y-72822853D01*
X186351614Y-72827148D01*
X186388837Y-72832500D01*
X187569516Y-72832500D01*
X187611271Y-72839620D01*
X187616783Y-72841556D01*
X187674426Y-72883002D01*
X187700511Y-72949033D01*
X187686756Y-73018684D01*
X187637528Y-73069842D01*
X187595709Y-73084727D01*
X187590813Y-73085541D01*
X187589313Y-73085791D01*
X187568633Y-73087500D01*
X186515318Y-73087500D01*
X186512376Y-73087778D01*
X186512371Y-73087778D01*
X186486450Y-73090226D01*
X186467783Y-73091988D01*
X186464887Y-73092540D01*
X186464878Y-73092541D01*
X186444696Y-73096386D01*
X186421455Y-73100814D01*
X186401383Y-73105489D01*
X186312834Y-73149998D01*
X186307952Y-73153803D01*
X186307948Y-73153806D01*
X186302686Y-73157908D01*
X186256839Y-73193646D01*
X186206726Y-73245755D01*
X186204106Y-73249402D01*
X186204097Y-73249412D01*
X186142825Y-73334683D01*
X186122333Y-73356968D01*
X186077385Y-73395356D01*
X186077381Y-73395358D01*
X186077382Y-73395358D01*
X186062638Y-73407950D01*
X186037425Y-73424701D01*
X185967288Y-73459977D01*
X185938804Y-73470232D01*
X185886214Y-73482277D01*
X185886213Y-73482277D01*
X185862280Y-73487758D01*
X185832174Y-73490922D01*
X185794660Y-73490333D01*
X185794659Y-73490333D01*
X185793322Y-73490312D01*
X185753682Y-73489689D01*
X185723689Y-73485581D01*
X185647750Y-73465659D01*
X185619602Y-73454514D01*
X185550612Y-73417056D01*
X185525936Y-73399520D01*
X185467867Y-73346681D01*
X185448086Y-73323765D01*
X185404303Y-73258609D01*
X185390560Y-73231638D01*
X185363578Y-73157908D01*
X185356665Y-73128432D01*
X185354133Y-73105489D01*
X185348051Y-73050403D01*
X185348368Y-73020132D01*
X185358614Y-72942305D01*
X185366143Y-72912981D01*
X185394662Y-72839834D01*
X185408968Y-72813153D01*
X185454109Y-72748924D01*
X185474367Y-72726426D01*
X185482960Y-72718930D01*
X185533526Y-72674819D01*
X185558559Y-72657806D01*
X185628325Y-72621796D01*
X185656699Y-72611244D01*
X185733029Y-72592919D01*
X185763104Y-72589440D01*
X185809410Y-72589683D01*
G37*
%TD.AperFunction*%
%TA.AperFunction,Conductor*%
G36*
X185748332Y-68879677D02*
G01*
X185748340Y-68879677D01*
X185781612Y-68879851D01*
X185811646Y-68883645D01*
X185887492Y-68902696D01*
X185890044Y-68903118D01*
X185890043Y-68903118D01*
X185926053Y-68909076D01*
X185926065Y-68909078D01*
X185928613Y-68909499D01*
X185945289Y-68910866D01*
X185967110Y-68912656D01*
X185967121Y-68912656D01*
X185969689Y-68912867D01*
X185990637Y-68912859D01*
X186008797Y-68912853D01*
X186008799Y-68912853D01*
X186011391Y-68912852D01*
X186014196Y-68912620D01*
X186014488Y-68912596D01*
X186014500Y-68912595D01*
X186015766Y-68912490D01*
X186017023Y-68912334D01*
X186018345Y-68912197D01*
X186023489Y-68911771D01*
X186024800Y-68911689D01*
X186026093Y-68911636D01*
X186027407Y-68911527D01*
X186027411Y-68911527D01*
X186029297Y-68911371D01*
X186030458Y-68911280D01*
X186030994Y-68911240D01*
X186031922Y-68911186D01*
X186033074Y-68911084D01*
X186033699Y-68911029D01*
X186054684Y-68910938D01*
X186055966Y-68911074D01*
X186074269Y-68912045D01*
X186081166Y-68912411D01*
X186081169Y-68912411D01*
X186082845Y-68912500D01*
X187569518Y-68912500D01*
X187611280Y-68919622D01*
X187616791Y-68921558D01*
X187674431Y-68963007D01*
X187700513Y-69029040D01*
X187686754Y-69098691D01*
X187637523Y-69149846D01*
X187595709Y-69164727D01*
X187589306Y-69165792D01*
X187568633Y-69167500D01*
X186545749Y-69167500D01*
X186544465Y-69167554D01*
X186544442Y-69167554D01*
X186531209Y-69168106D01*
X186524615Y-69168381D01*
X186523290Y-69168492D01*
X186523284Y-69168492D01*
X186509508Y-69169642D01*
X186509505Y-69169643D01*
X186503715Y-69170126D01*
X186498115Y-69171663D01*
X186498112Y-69171663D01*
X186450036Y-69184854D01*
X186413853Y-69194781D01*
X186408635Y-69197316D01*
X186408630Y-69197318D01*
X186352525Y-69224576D01*
X186352519Y-69224579D01*
X186349994Y-69225806D01*
X186311195Y-69249142D01*
X186244098Y-69322081D01*
X186240876Y-69327368D01*
X186240875Y-69327369D01*
X186211918Y-69374880D01*
X186211916Y-69374884D01*
X186208589Y-69380343D01*
X186206429Y-69386362D01*
X186206427Y-69386366D01*
X186201961Y-69398812D01*
X186191392Y-69419593D01*
X186189653Y-69418894D01*
X186184601Y-69431460D01*
X186184601Y-69431461D01*
X186143220Y-69534402D01*
X186128636Y-69560930D01*
X186116918Y-69577238D01*
X186082826Y-69624681D01*
X186065793Y-69643205D01*
X186066107Y-69643537D01*
X186066089Y-69643554D01*
X186062544Y-69646738D01*
X186062339Y-69646961D01*
X186061457Y-69647714D01*
X186061436Y-69647733D01*
X186061422Y-69647745D01*
X186061420Y-69647747D01*
X186002637Y-69697952D01*
X185977426Y-69714702D01*
X185907289Y-69749977D01*
X185878804Y-69760232D01*
X185826214Y-69772277D01*
X185826213Y-69772277D01*
X185802280Y-69777758D01*
X185772174Y-69780922D01*
X185734660Y-69780333D01*
X185734659Y-69780333D01*
X185733322Y-69780312D01*
X185693682Y-69779689D01*
X185663689Y-69775581D01*
X185587750Y-69755659D01*
X185559601Y-69744514D01*
X185490608Y-69707054D01*
X185465930Y-69689516D01*
X185425825Y-69653023D01*
X185407870Y-69636685D01*
X185388091Y-69613771D01*
X185363541Y-69577237D01*
X185363539Y-69577235D01*
X185344302Y-69548608D01*
X185330557Y-69521631D01*
X185307704Y-69459181D01*
X185307702Y-69459175D01*
X185303579Y-69447908D01*
X185296666Y-69418435D01*
X185290766Y-69365000D01*
X185288051Y-69340404D01*
X185288368Y-69310132D01*
X185289081Y-69304721D01*
X185298614Y-69232304D01*
X185306142Y-69202984D01*
X185320400Y-69166411D01*
X185320401Y-69166406D01*
X185320641Y-69165792D01*
X185334660Y-69129835D01*
X185348965Y-69103157D01*
X185394109Y-69038924D01*
X185414367Y-69016426D01*
X185473524Y-68964820D01*
X185498559Y-68947806D01*
X185568325Y-68911796D01*
X185596700Y-68901244D01*
X185673031Y-68882919D01*
X185703104Y-68879440D01*
X185748332Y-68879677D01*
G37*
%TD.AperFunction*%
%TA.AperFunction,Conductor*%
G36*
X201608647Y-57854002D02*
G01*
X201655140Y-57907658D01*
X201666503Y-57958791D01*
X201665967Y-57964777D01*
X201666629Y-57970932D01*
X201672212Y-58022864D01*
X201673174Y-58031816D01*
X201676601Y-58054225D01*
X201679506Y-58061240D01*
X201681551Y-58068564D01*
X201681168Y-58068671D01*
X201684466Y-58079542D01*
X201686378Y-58089154D01*
X201687301Y-58093796D01*
X201705374Y-58149762D01*
X201729449Y-58202479D01*
X201744401Y-58230452D01*
X201749964Y-58236427D01*
X201749966Y-58236430D01*
X201783615Y-58272570D01*
X201811934Y-58302987D01*
X201816953Y-58306606D01*
X201816955Y-58306608D01*
X201839693Y-58323004D01*
X201869520Y-58344512D01*
X201908460Y-58367615D01*
X202004487Y-58392125D01*
X202010669Y-58392456D01*
X202010673Y-58392457D01*
X202041239Y-58394095D01*
X202051243Y-58394631D01*
X202118196Y-58418250D01*
X202161751Y-58474317D01*
X202170500Y-58520450D01*
X202170500Y-61698194D01*
X202150498Y-61766315D01*
X202096842Y-61812808D01*
X202044613Y-61823926D01*
X202044618Y-61824075D01*
X202043772Y-61824105D01*
X202043771Y-61824105D01*
X202041817Y-61824175D01*
X202041816Y-61824175D01*
X202008374Y-61825369D01*
X202008371Y-61825369D01*
X201999368Y-61825691D01*
X201990818Y-61828537D01*
X201990817Y-61828537D01*
X201911204Y-61855035D01*
X201911202Y-61855036D01*
X201905334Y-61856989D01*
X201899961Y-61860049D01*
X201899958Y-61860050D01*
X201864000Y-61880526D01*
X201843639Y-61892121D01*
X201841347Y-61893713D01*
X201841335Y-61893720D01*
X201827704Y-61903185D01*
X201806445Y-61917946D01*
X201744259Y-61995114D01*
X201741388Y-62000602D01*
X201741387Y-62000604D01*
X201716647Y-62047901D01*
X201667349Y-62098992D01*
X201604999Y-62115500D01*
X201297500Y-62115500D01*
X201294153Y-62115860D01*
X201294149Y-62115860D01*
X201246874Y-62120942D01*
X201246867Y-62120943D01*
X201243510Y-62121304D01*
X201240210Y-62122022D01*
X201240209Y-62122022D01*
X201192822Y-62132330D01*
X201192815Y-62132332D01*
X201191168Y-62132690D01*
X201164945Y-62139884D01*
X201124180Y-62163097D01*
X201084202Y-62185862D01*
X201084198Y-62185865D01*
X201078824Y-62188925D01*
X201068372Y-62197982D01*
X201041555Y-62221219D01*
X201025168Y-62235418D01*
X200993727Y-62268002D01*
X200947791Y-62355819D01*
X200927789Y-62423940D01*
X200917500Y-62495500D01*
X200917500Y-63275671D01*
X200919842Y-63310086D01*
X200924468Y-63343913D01*
X200926724Y-63350158D01*
X200956287Y-63431994D01*
X200960573Y-63443860D01*
X200964083Y-63449491D01*
X200964085Y-63449495D01*
X200995754Y-63500300D01*
X200998129Y-63504110D01*
X201044714Y-63559395D01*
X201048071Y-63562386D01*
X201048072Y-63562387D01*
X201078903Y-63589857D01*
X201098920Y-63612562D01*
X201103830Y-63619705D01*
X201105982Y-63622836D01*
X201143387Y-63677261D01*
X201157411Y-63704088D01*
X201185164Y-63777535D01*
X201192385Y-63806934D01*
X201197767Y-63851405D01*
X201201809Y-63884801D01*
X201202230Y-63888283D01*
X201201886Y-63921174D01*
X201193037Y-63983354D01*
X201190338Y-64002315D01*
X201182502Y-64031558D01*
X201153219Y-64104402D01*
X201138634Y-64130932D01*
X201092827Y-64194679D01*
X201072334Y-64216965D01*
X201012637Y-64267950D01*
X200987423Y-64284702D01*
X200917288Y-64319977D01*
X200888804Y-64330232D01*
X200836214Y-64342277D01*
X200836213Y-64342277D01*
X200812280Y-64347758D01*
X200782174Y-64350922D01*
X200744660Y-64350333D01*
X200744659Y-64350333D01*
X200743322Y-64350312D01*
X200703682Y-64349689D01*
X200673689Y-64345581D01*
X200597750Y-64325659D01*
X200569601Y-64314514D01*
X200500607Y-64277053D01*
X200475930Y-64259516D01*
X200474072Y-64257826D01*
X200417867Y-64206683D01*
X200398091Y-64183771D01*
X200354302Y-64118608D01*
X200340559Y-64091635D01*
X200319656Y-64034515D01*
X200319654Y-64034509D01*
X200313579Y-64017908D01*
X200306666Y-63988435D01*
X200299481Y-63923359D01*
X200298051Y-63910403D01*
X200298368Y-63880131D01*
X200305807Y-63823632D01*
X200308615Y-63802300D01*
X200316144Y-63772978D01*
X200340477Y-63710566D01*
X200344812Y-63712256D01*
X200344813Y-63712252D01*
X200340478Y-63710562D01*
X200344660Y-63699836D01*
X200358966Y-63673156D01*
X200404109Y-63608924D01*
X200424367Y-63586426D01*
X200518176Y-63504591D01*
X200518648Y-63505132D01*
X200528153Y-63494941D01*
X200536700Y-63488612D01*
X200553779Y-63471089D01*
X200569343Y-63455121D01*
X200569357Y-63455106D01*
X200570393Y-63454043D01*
X200586273Y-63436134D01*
X200632209Y-63348317D01*
X200652211Y-63280196D01*
X200662500Y-63208636D01*
X200662500Y-62495500D01*
X200662140Y-62492149D01*
X200657058Y-62444874D01*
X200657057Y-62444867D01*
X200656696Y-62441510D01*
X200652874Y-62423940D01*
X200645670Y-62390822D01*
X200645668Y-62390815D01*
X200645310Y-62389168D01*
X200638116Y-62362945D01*
X200598257Y-62292948D01*
X200592138Y-62282202D01*
X200592135Y-62282198D01*
X200589075Y-62276824D01*
X200553197Y-62235418D01*
X200544422Y-62225291D01*
X200544417Y-62225286D01*
X200542582Y-62223168D01*
X200509998Y-62191727D01*
X200422181Y-62145791D01*
X200354060Y-62125789D01*
X200349601Y-62125148D01*
X200349597Y-62125147D01*
X200318280Y-62120644D01*
X200282500Y-62115500D01*
X199976272Y-62115500D01*
X199908151Y-62095498D01*
X199861658Y-62041842D01*
X199851365Y-62019303D01*
X199851363Y-62019298D01*
X199850551Y-62017521D01*
X199835599Y-61989548D01*
X199830036Y-61983573D01*
X199830034Y-61983570D01*
X199784808Y-61934995D01*
X199768066Y-61917013D01*
X199763047Y-61913394D01*
X199763045Y-61913392D01*
X199731623Y-61890734D01*
X199710480Y-61875488D01*
X199671540Y-61852385D01*
X199575513Y-61827875D01*
X199569331Y-61827544D01*
X199569327Y-61827543D01*
X199538761Y-61825905D01*
X199528757Y-61825369D01*
X199461804Y-61801750D01*
X199418249Y-61745683D01*
X199409500Y-61699550D01*
X199409500Y-58521806D01*
X199429502Y-58453685D01*
X199483158Y-58407192D01*
X199535386Y-58396074D01*
X199535381Y-58395925D01*
X199536229Y-58395895D01*
X199536231Y-58395895D01*
X199538182Y-58395825D01*
X199538184Y-58395825D01*
X199571625Y-58394631D01*
X199571628Y-58394631D01*
X199580631Y-58394309D01*
X199629361Y-58378090D01*
X199668795Y-58364965D01*
X199668797Y-58364964D01*
X199674665Y-58363011D01*
X199680038Y-58359951D01*
X199680041Y-58359950D01*
X199733919Y-58329269D01*
X199736360Y-58327879D01*
X199773551Y-58302058D01*
X199835737Y-58224890D01*
X199868645Y-58161981D01*
X199869649Y-58159835D01*
X199875025Y-58148335D01*
X199878244Y-58141450D01*
X199883533Y-58114860D01*
X199890277Y-58093321D01*
X199892698Y-58093802D01*
X199898961Y-58062318D01*
X199900455Y-58054104D01*
X199901796Y-58045975D01*
X199902149Y-57965490D01*
X199902896Y-57965493D01*
X199916880Y-57900030D01*
X199966893Y-57849640D01*
X200027693Y-57834000D01*
X201540526Y-57834000D01*
X201608647Y-57854002D01*
G37*
%TD.AperFunction*%
%TD*%
M02*
