%TF.GenerationSoftware,KiCad,Pcbnew,5.99.0-unknown-140f4a8d21~125~ubuntu20.04.1*%
%TF.CreationDate,2021-04-01T23:04:02+02:00*%
%TF.ProjectId,pi-hat-lorawan-gateway-minipci,70692d68-6174-42d6-9c6f-726177616e2d,rev?*%
%TF.SameCoordinates,Original*%
%TF.FileFunction,Copper,L2,Bot*%
%TF.FilePolarity,Positive*%
%FSLAX46Y46*%
G04 Gerber Fmt 4.6, Leading zero omitted, Abs format (unit mm)*
G04 Created by KiCad (PCBNEW 5.99.0-unknown-140f4a8d21~125~ubuntu20.04.1) date 2021-04-01 23:04:02*
%MOMM*%
%LPD*%
G01*
G04 APERTURE LIST*
%TA.AperFunction,ComponentPad*%
%ADD10C,1.998980*%
%TD*%
%TA.AperFunction,SMDPad,CuDef*%
%ADD11R,1.800000X4.000000*%
%TD*%
%TA.AperFunction,ViaPad*%
%ADD12C,0.900000*%
%TD*%
%TA.AperFunction,Conductor*%
%ADD13C,0.254000*%
%TD*%
G04 APERTURE END LIST*
D10*
%TO.P,P1,2,2*%
%TO.N,GND*%
X130180000Y-67189980D03*
%TO.P,P1,1,1*%
%TO.N,5V*%
X127640000Y-67189980D03*
%TD*%
D11*
%TO.P,Con1,2,2*%
%TO.N,N/C*%
X123510000Y-61630000D03*
%TO.P,Con1,4,4*%
X126050000Y-61630000D03*
%TO.P,Con1,6,6*%
X128590000Y-61630000D03*
%TO.P,Con1,8,8*%
X131130000Y-61630000D03*
%TO.P,Con1,10,10*%
%TO.N,GND*%
X133670000Y-61630000D03*
%TO.P,Con1,12,12*%
%TO.N,N/C*%
X136210000Y-61630000D03*
%TO.P,Con1,14,14*%
X138750000Y-61630000D03*
%TO.P,Con1,16,16*%
X141290000Y-61630000D03*
%TO.P,Con1,18,18*%
X143830000Y-61630000D03*
%TO.P,Con1,20,20*%
%TO.N,/GPIO10(MOSI)*%
X146370000Y-61630000D03*
%TO.P,Con1,22,22*%
%TO.N,/GPIO9(MISO)*%
X148910000Y-61630000D03*
%TO.P,Con1,24,24*%
%TO.N,/GPIO11(SCLK)*%
X151450000Y-61630000D03*
%TO.P,Con1,26,26*%
%TO.N,GND*%
X153990000Y-61630000D03*
%TO.P,Con1,28,28*%
%TO.N,N/C*%
X156530000Y-61630000D03*
%TO.P,Con1,30,30*%
X159070000Y-61630000D03*
%TO.P,Con1,32,32*%
X161610000Y-61630000D03*
%TO.P,Con1,34,34*%
X164150000Y-61630000D03*
%TO.P,Con1,36,36*%
X166690000Y-61630000D03*
%TO.P,Con1,38,38*%
X169230000Y-61630000D03*
%TO.P,Con1,40,40*%
%TO.N,GND*%
X171770000Y-61630000D03*
%TD*%
D12*
%TO.N,GND*%
X123700000Y-70850000D03*
X146240000Y-96380000D03*
X143450000Y-96130000D03*
X150370000Y-96180000D03*
X138710000Y-65420000D03*
X148430000Y-96470000D03*
X142080000Y-83760000D03*
X133650000Y-65400000D03*
X130570000Y-73880000D03*
X142960000Y-87670000D03*
X145290000Y-83550000D03*
X123760000Y-74560000D03*
X146140000Y-87720000D03*
X137020000Y-96080000D03*
X148550000Y-87700000D03*
X140910000Y-96130000D03*
X139660000Y-87730000D03*
X130430000Y-75480000D03*
%TO.N,/GPIO8(CE0)*%
X141150000Y-82070000D03*
X150490000Y-65730000D03*
%TO.N,/GPIO11(SCLK)*%
X140140000Y-83130000D03*
%TO.N,/GPIO25*%
X146718169Y-71228169D03*
X147920000Y-65160000D03*
%TO.N,/GPIO9(MISO)*%
X138720000Y-83150000D03*
%TO.N,/GPIO10(MOSI)*%
X137557613Y-83167613D03*
%TD*%
D13*
%TO.N,GND*%
X133670000Y-65380000D02*
X133650000Y-65400000D01*
X133670000Y-61630000D02*
X133670000Y-65380000D01*
%TO.N,/GPIO8(CE0)*%
X141150000Y-82070000D02*
X141150000Y-80930000D01*
X150200000Y-71880000D02*
X150200000Y-66020000D01*
X150200000Y-66020000D02*
X150490000Y-65730000D01*
X141150000Y-80930000D02*
X150200000Y-71880000D01*
%TO.N,/GPIO11(SCLK)*%
X149101980Y-71368020D02*
X140140000Y-80330000D01*
X149658989Y-65842563D02*
X149101980Y-66399572D01*
X149658989Y-65331114D02*
X149658989Y-65842563D01*
X149101980Y-66399572D02*
X149101980Y-71368020D01*
X140140000Y-80330000D02*
X140140000Y-83130000D01*
X151450000Y-61630000D02*
X151450000Y-63540103D01*
X151450000Y-63540103D02*
X149658989Y-65331114D01*
%TO.N,/GPIO25*%
X147270000Y-65810000D02*
X147270000Y-70676338D01*
X147920000Y-65160000D02*
X147270000Y-65810000D01*
X147270000Y-70676338D02*
X146718169Y-71228169D01*
%TO.N,/GPIO9(MISO)*%
X148910000Y-65873116D02*
X148210000Y-66573116D01*
X148910000Y-61630000D02*
X148910000Y-65873116D01*
X148210000Y-66573116D02*
X148210000Y-70911564D01*
X138720000Y-80401564D02*
X138720000Y-83150000D01*
X148210000Y-70911564D02*
X138720000Y-80401564D01*
%TO.N,/GPIO10(MOSI)*%
X145887168Y-72212832D02*
X137557613Y-80542387D01*
X137557613Y-80542387D02*
X137557613Y-83167613D01*
X145887168Y-70397168D02*
X145887168Y-72212832D01*
X146370000Y-61630000D02*
X146370000Y-69914336D01*
X146370000Y-69914336D02*
X145887168Y-70397168D01*
%TD*%
%TA.AperFunction,Conductor*%
%TO.N,GND*%
G36*
X135025611Y-59374002D02*
G01*
X135072104Y-59427658D01*
X135082208Y-59497932D01*
X135075286Y-59523162D01*
X135070253Y-59530694D01*
X135050500Y-59630000D01*
X135050500Y-63630000D01*
X135070253Y-63729306D01*
X135126506Y-63813494D01*
X135210694Y-63869747D01*
X135310000Y-63889500D01*
X137110000Y-63889500D01*
X137209306Y-63869747D01*
X137293494Y-63813494D01*
X137349747Y-63729306D01*
X137356421Y-63695753D01*
X137389328Y-63632843D01*
X137451023Y-63597711D01*
X137521918Y-63601511D01*
X137579504Y-63643036D01*
X137603579Y-63695753D01*
X137610253Y-63729306D01*
X137666506Y-63813494D01*
X137750694Y-63869747D01*
X137850000Y-63889500D01*
X139650000Y-63889500D01*
X139749306Y-63869747D01*
X139833494Y-63813494D01*
X139889747Y-63729306D01*
X139896421Y-63695753D01*
X139929328Y-63632843D01*
X139991023Y-63597711D01*
X140061918Y-63601511D01*
X140119504Y-63643036D01*
X140143579Y-63695753D01*
X140150253Y-63729306D01*
X140206506Y-63813494D01*
X140290694Y-63869747D01*
X140390000Y-63889500D01*
X142190000Y-63889500D01*
X142289306Y-63869747D01*
X142373494Y-63813494D01*
X142429747Y-63729306D01*
X142436421Y-63695753D01*
X142469328Y-63632843D01*
X142531023Y-63597711D01*
X142601918Y-63601511D01*
X142659504Y-63643036D01*
X142683579Y-63695753D01*
X142690253Y-63729306D01*
X142746506Y-63813494D01*
X142830694Y-63869747D01*
X142930000Y-63889500D01*
X144730000Y-63889500D01*
X144829306Y-63869747D01*
X144913494Y-63813494D01*
X144969747Y-63729306D01*
X144976421Y-63695753D01*
X145009328Y-63632843D01*
X145071023Y-63597711D01*
X145141918Y-63601511D01*
X145199504Y-63643036D01*
X145223579Y-63695753D01*
X145230253Y-63729306D01*
X145286506Y-63813494D01*
X145370694Y-63869747D01*
X145470000Y-63889500D01*
X145862500Y-63889500D01*
X145930621Y-63909502D01*
X145977114Y-63963158D01*
X145988500Y-64015500D01*
X145988500Y-69704123D01*
X145968498Y-69772244D01*
X145951595Y-69793218D01*
X145654775Y-70090038D01*
X145638602Y-70103100D01*
X145635797Y-70105653D01*
X145627049Y-70111301D01*
X145620604Y-70119476D01*
X145620602Y-70119478D01*
X145607572Y-70136007D01*
X145603159Y-70140973D01*
X145603200Y-70141008D01*
X145599842Y-70144971D01*
X145596165Y-70148648D01*
X145583910Y-70165798D01*
X145580371Y-70170511D01*
X145548475Y-70210970D01*
X145545428Y-70219648D01*
X145540080Y-70227131D01*
X145537096Y-70237109D01*
X145537094Y-70237113D01*
X145525323Y-70276474D01*
X145523488Y-70282122D01*
X145506423Y-70330717D01*
X145505668Y-70339435D01*
X145505668Y-70342176D01*
X145505667Y-70342200D01*
X145503715Y-70348727D01*
X145504124Y-70359133D01*
X145505571Y-70395962D01*
X145505668Y-70400909D01*
X145505668Y-72002619D01*
X145485666Y-72070740D01*
X145468763Y-72091714D01*
X137325220Y-80235257D01*
X137309048Y-80248318D01*
X137306241Y-80250872D01*
X137297494Y-80256520D01*
X137291049Y-80264695D01*
X137291047Y-80264697D01*
X137278017Y-80281226D01*
X137273604Y-80286192D01*
X137273645Y-80286227D01*
X137270287Y-80290190D01*
X137266610Y-80293867D01*
X137254355Y-80311017D01*
X137250809Y-80315740D01*
X137228663Y-80343831D01*
X137218920Y-80356189D01*
X137215873Y-80364867D01*
X137210525Y-80372350D01*
X137207541Y-80382328D01*
X137207539Y-80382332D01*
X137195768Y-80421693D01*
X137193933Y-80427341D01*
X137176868Y-80475936D01*
X137176113Y-80484654D01*
X137176113Y-80487395D01*
X137176112Y-80487419D01*
X137174160Y-80493946D01*
X137174569Y-80504352D01*
X137176016Y-80541181D01*
X137176113Y-80546128D01*
X137176113Y-82508420D01*
X137156111Y-82576541D01*
X137132942Y-82603369D01*
X137036078Y-82687869D01*
X137036074Y-82687873D01*
X137030352Y-82692865D01*
X136932328Y-82832338D01*
X136929568Y-82839418D01*
X136874461Y-82980761D01*
X136870403Y-82991168D01*
X136869411Y-82998701D01*
X136869411Y-82998702D01*
X136849493Y-83150000D01*
X136848152Y-83160183D01*
X136848986Y-83167733D01*
X136865871Y-83320677D01*
X136866859Y-83329628D01*
X136869468Y-83336759D01*
X136869469Y-83336761D01*
X136921146Y-83477973D01*
X136925444Y-83489719D01*
X136929680Y-83496022D01*
X136929680Y-83496023D01*
X137008690Y-83613602D01*
X137020525Y-83631215D01*
X137026144Y-83636328D01*
X137026145Y-83636329D01*
X137131238Y-83731956D01*
X137146613Y-83745946D01*
X137296429Y-83827289D01*
X137461323Y-83870549D01*
X137548283Y-83871915D01*
X137624177Y-83873107D01*
X137624180Y-83873107D01*
X137631776Y-83873226D01*
X137639181Y-83871530D01*
X137639182Y-83871530D01*
X137709199Y-83855494D01*
X137797948Y-83835168D01*
X137950244Y-83758571D01*
X138067975Y-83658019D01*
X138132763Y-83628989D01*
X138202963Y-83639594D01*
X138234600Y-83660634D01*
X138309000Y-83728333D01*
X138341439Y-83745946D01*
X138439614Y-83799250D01*
X138458816Y-83809676D01*
X138623710Y-83852936D01*
X138710670Y-83854302D01*
X138786564Y-83855494D01*
X138786567Y-83855494D01*
X138794163Y-83855613D01*
X138801568Y-83853917D01*
X138801569Y-83853917D01*
X138876031Y-83836863D01*
X138960335Y-83817555D01*
X139112631Y-83740958D01*
X139156813Y-83703223D01*
X139236487Y-83635176D01*
X139236489Y-83635173D01*
X139242261Y-83630244D01*
X139246695Y-83624074D01*
X139335564Y-83500401D01*
X139391558Y-83456753D01*
X139462262Y-83450307D01*
X139525226Y-83483110D01*
X139542468Y-83503652D01*
X139598673Y-83587294D01*
X139602912Y-83593602D01*
X139608531Y-83598715D01*
X139608532Y-83598716D01*
X139723384Y-83703223D01*
X139729000Y-83708333D01*
X139878816Y-83789676D01*
X140043710Y-83832936D01*
X140130670Y-83834302D01*
X140206564Y-83835494D01*
X140206567Y-83835494D01*
X140214163Y-83835613D01*
X140221568Y-83833917D01*
X140221569Y-83833917D01*
X140307907Y-83814143D01*
X140380335Y-83797555D01*
X140532631Y-83720958D01*
X140603258Y-83660637D01*
X140656487Y-83615176D01*
X140656489Y-83615173D01*
X140662261Y-83610244D01*
X140761740Y-83471804D01*
X140825324Y-83313632D01*
X140849344Y-83144859D01*
X140849500Y-83130000D01*
X140829020Y-82960761D01*
X140811802Y-82915195D01*
X140806434Y-82844403D01*
X140840191Y-82781946D01*
X140902357Y-82747654D01*
X140961642Y-82748782D01*
X141053710Y-82772936D01*
X141140670Y-82774302D01*
X141216564Y-82775494D01*
X141216567Y-82775494D01*
X141224163Y-82775613D01*
X141231568Y-82773917D01*
X141231569Y-82773917D01*
X141292919Y-82759866D01*
X141390335Y-82737555D01*
X141542631Y-82660958D01*
X141572467Y-82635475D01*
X141666487Y-82555176D01*
X141666489Y-82555173D01*
X141672261Y-82550244D01*
X141771740Y-82411804D01*
X141835324Y-82253632D01*
X141859344Y-82084859D01*
X141859500Y-82070000D01*
X141839020Y-81900761D01*
X141778761Y-81741291D01*
X141682204Y-81600799D01*
X141573681Y-81504109D01*
X141536125Y-81443858D01*
X141531500Y-81410032D01*
X141531500Y-81140213D01*
X141551502Y-81072092D01*
X141568405Y-81051118D01*
X150432393Y-72187130D01*
X150448566Y-72174068D01*
X150451371Y-72171515D01*
X150460119Y-72165867D01*
X150466564Y-72157692D01*
X150466566Y-72157690D01*
X150479596Y-72141161D01*
X150484010Y-72136194D01*
X150483969Y-72136159D01*
X150487328Y-72132195D01*
X150491003Y-72128520D01*
X150503242Y-72111394D01*
X150506805Y-72106648D01*
X150532246Y-72074377D01*
X150532248Y-72074374D01*
X150538693Y-72066198D01*
X150541741Y-72057518D01*
X150547088Y-72050036D01*
X150556618Y-72018172D01*
X150561845Y-72000692D01*
X150563680Y-71995044D01*
X150578119Y-71953930D01*
X150578120Y-71953926D01*
X150580745Y-71946451D01*
X150581500Y-71937733D01*
X150581500Y-71934992D01*
X150581501Y-71934967D01*
X150583453Y-71928441D01*
X150581597Y-71881205D01*
X150581500Y-71876259D01*
X150581500Y-66532047D01*
X150601502Y-66463926D01*
X150655158Y-66417433D01*
X150679371Y-66409227D01*
X150706215Y-66403079D01*
X150730335Y-66397555D01*
X150882631Y-66320958D01*
X150954202Y-66259831D01*
X151006487Y-66215176D01*
X151006489Y-66215173D01*
X151012261Y-66210244D01*
X151111740Y-66071804D01*
X151175324Y-65913632D01*
X151199344Y-65744859D01*
X151199500Y-65730000D01*
X151179020Y-65560761D01*
X151118761Y-65401291D01*
X151022204Y-65260799D01*
X150894921Y-65147395D01*
X150809457Y-65102144D01*
X150750975Y-65071179D01*
X150750973Y-65071178D01*
X150744262Y-65067625D01*
X150734219Y-65065102D01*
X150732480Y-65064079D01*
X150729801Y-65063051D01*
X150729972Y-65062604D01*
X150673025Y-65029107D01*
X150641005Y-64965741D01*
X150648326Y-64895123D01*
X150675822Y-64853804D01*
X151603221Y-63926405D01*
X151665533Y-63892379D01*
X151692316Y-63889500D01*
X152350000Y-63889500D01*
X152449306Y-63869747D01*
X152533494Y-63813494D01*
X152589747Y-63729306D01*
X152609500Y-63630000D01*
X152609500Y-59630000D01*
X152589747Y-59530694D01*
X152585719Y-59524666D01*
X152578512Y-59457627D01*
X152610292Y-59394140D01*
X152671351Y-59357914D01*
X152702510Y-59354000D01*
X155277490Y-59354000D01*
X155345611Y-59374002D01*
X155392104Y-59427658D01*
X155402208Y-59497932D01*
X155395286Y-59523162D01*
X155390253Y-59530694D01*
X155370500Y-59630000D01*
X155370500Y-63630000D01*
X155390253Y-63729306D01*
X155446506Y-63813494D01*
X155530694Y-63869747D01*
X155630000Y-63889500D01*
X157430000Y-63889500D01*
X157529306Y-63869747D01*
X157613494Y-63813494D01*
X157669747Y-63729306D01*
X157676421Y-63695753D01*
X157709328Y-63632843D01*
X157771023Y-63597711D01*
X157841918Y-63601511D01*
X157899504Y-63643036D01*
X157923579Y-63695753D01*
X157930253Y-63729306D01*
X157986506Y-63813494D01*
X158070694Y-63869747D01*
X158170000Y-63889500D01*
X159970000Y-63889500D01*
X160069306Y-63869747D01*
X160153494Y-63813494D01*
X160209747Y-63729306D01*
X160216421Y-63695753D01*
X160249328Y-63632843D01*
X160311023Y-63597711D01*
X160381918Y-63601511D01*
X160439504Y-63643036D01*
X160463579Y-63695753D01*
X160470253Y-63729306D01*
X160526506Y-63813494D01*
X160610694Y-63869747D01*
X160710000Y-63889500D01*
X162510000Y-63889500D01*
X162609306Y-63869747D01*
X162693494Y-63813494D01*
X162749747Y-63729306D01*
X162756421Y-63695753D01*
X162789328Y-63632843D01*
X162851023Y-63597711D01*
X162921918Y-63601511D01*
X162979504Y-63643036D01*
X163003579Y-63695753D01*
X163010253Y-63729306D01*
X163066506Y-63813494D01*
X163150694Y-63869747D01*
X163250000Y-63889500D01*
X165050000Y-63889500D01*
X165149306Y-63869747D01*
X165233494Y-63813494D01*
X165289747Y-63729306D01*
X165296421Y-63695753D01*
X165329328Y-63632843D01*
X165391023Y-63597711D01*
X165461918Y-63601511D01*
X165519504Y-63643036D01*
X165543579Y-63695753D01*
X165550253Y-63729306D01*
X165606506Y-63813494D01*
X165690694Y-63869747D01*
X165790000Y-63889500D01*
X167590000Y-63889500D01*
X167689306Y-63869747D01*
X167773494Y-63813494D01*
X167829747Y-63729306D01*
X167836421Y-63695753D01*
X167869328Y-63632843D01*
X167931023Y-63597711D01*
X168001918Y-63601511D01*
X168059504Y-63643036D01*
X168083579Y-63695753D01*
X168090253Y-63729306D01*
X168146506Y-63813494D01*
X168230694Y-63869747D01*
X168330000Y-63889500D01*
X170130000Y-63889500D01*
X170229306Y-63869747D01*
X170313494Y-63813494D01*
X170369747Y-63729306D01*
X170389500Y-63630000D01*
X170389500Y-59630000D01*
X170369747Y-59530694D01*
X170365719Y-59524666D01*
X170358512Y-59457627D01*
X170390292Y-59394140D01*
X170451351Y-59357914D01*
X170482510Y-59354000D01*
X172377742Y-59354000D01*
X172394188Y-59355078D01*
X172498963Y-59368872D01*
X172530735Y-59377385D01*
X172620674Y-59414639D01*
X172649160Y-59431086D01*
X172726393Y-59490349D01*
X172749651Y-59513607D01*
X172808914Y-59590840D01*
X172825361Y-59619326D01*
X172862615Y-59709265D01*
X172871128Y-59741037D01*
X172884922Y-59845812D01*
X172886000Y-59862258D01*
X172886000Y-143337742D01*
X172884922Y-143354188D01*
X172871128Y-143458963D01*
X172862615Y-143490735D01*
X172825361Y-143580674D01*
X172808914Y-143609160D01*
X172749651Y-143686393D01*
X172726393Y-143709651D01*
X172649160Y-143768914D01*
X172620674Y-143785361D01*
X172530735Y-143822615D01*
X172498963Y-143831128D01*
X172394188Y-143844922D01*
X172377742Y-143846000D01*
X122902258Y-143846000D01*
X122885812Y-143844922D01*
X122781037Y-143831128D01*
X122749265Y-143822615D01*
X122659326Y-143785361D01*
X122630840Y-143768914D01*
X122553607Y-143709651D01*
X122530349Y-143686393D01*
X122471086Y-143609160D01*
X122454639Y-143580674D01*
X122417385Y-143490735D01*
X122408872Y-143458963D01*
X122395078Y-143354188D01*
X122394000Y-143337742D01*
X122394000Y-137961285D01*
X134254299Y-137961285D01*
X134291704Y-138208613D01*
X134368170Y-138446779D01*
X134370468Y-138451289D01*
X134370470Y-138451294D01*
X134431721Y-138571504D01*
X134481732Y-138669656D01*
X134629466Y-138871509D01*
X134807573Y-139047146D01*
X134811698Y-139050078D01*
X134811701Y-139050080D01*
X134894709Y-139109071D01*
X135011469Y-139192048D01*
X135235910Y-139302486D01*
X135240749Y-139303965D01*
X135240753Y-139303967D01*
X135470272Y-139374138D01*
X135470274Y-139374138D01*
X135475120Y-139375620D01*
X135480141Y-139376308D01*
X135480142Y-139376308D01*
X135717923Y-139408880D01*
X135722946Y-139409568D01*
X135795588Y-139407793D01*
X135967951Y-139403581D01*
X135967955Y-139403581D01*
X135973012Y-139403457D01*
X136218884Y-139357443D01*
X136454236Y-139272711D01*
X136673014Y-139151441D01*
X136676992Y-139148311D01*
X136676996Y-139148308D01*
X136865613Y-138999881D01*
X136865614Y-138999880D01*
X136869589Y-138996752D01*
X137038903Y-138812624D01*
X137176600Y-138603795D01*
X137178676Y-138599176D01*
X137277065Y-138380253D01*
X137277067Y-138380247D01*
X137279139Y-138375637D01*
X137280447Y-138370756D01*
X137280449Y-138370750D01*
X137342572Y-138138902D01*
X137342572Y-138138901D01*
X137343880Y-138134020D01*
X137361426Y-137961285D01*
X158454299Y-137961285D01*
X158491704Y-138208613D01*
X158568170Y-138446779D01*
X158570468Y-138451289D01*
X158570470Y-138451294D01*
X158631721Y-138571504D01*
X158681732Y-138669656D01*
X158829466Y-138871509D01*
X159007573Y-139047146D01*
X159011698Y-139050078D01*
X159011701Y-139050080D01*
X159094709Y-139109071D01*
X159211469Y-139192048D01*
X159435910Y-139302486D01*
X159440749Y-139303965D01*
X159440753Y-139303967D01*
X159670272Y-139374138D01*
X159670274Y-139374138D01*
X159675120Y-139375620D01*
X159680141Y-139376308D01*
X159680142Y-139376308D01*
X159917923Y-139408880D01*
X159922946Y-139409568D01*
X159995588Y-139407793D01*
X160167951Y-139403581D01*
X160167955Y-139403581D01*
X160173012Y-139403457D01*
X160418884Y-139357443D01*
X160654236Y-139272711D01*
X160873014Y-139151441D01*
X160876992Y-139148311D01*
X160876996Y-139148308D01*
X161065613Y-138999881D01*
X161065614Y-138999880D01*
X161069589Y-138996752D01*
X161238903Y-138812624D01*
X161376600Y-138603795D01*
X161378676Y-138599176D01*
X161477065Y-138380253D01*
X161477067Y-138380247D01*
X161479139Y-138375637D01*
X161480447Y-138370756D01*
X161480449Y-138370750D01*
X161542572Y-138138902D01*
X161542572Y-138138901D01*
X161543880Y-138134020D01*
X161569158Y-137885160D01*
X161569500Y-137852500D01*
X161549439Y-137603165D01*
X161489772Y-137360245D01*
X161433704Y-137228156D01*
X161394011Y-137134647D01*
X161394010Y-137134645D01*
X161392034Y-137129990D01*
X161258741Y-136918323D01*
X161093320Y-136730690D01*
X160900028Y-136571918D01*
X160683838Y-136446092D01*
X160545388Y-136392946D01*
X160455036Y-136358263D01*
X160455032Y-136358262D01*
X160450312Y-136356450D01*
X160445362Y-136355416D01*
X160445359Y-136355415D01*
X160210408Y-136306331D01*
X160210404Y-136306331D01*
X160205457Y-136305297D01*
X159955574Y-136293950D01*
X159950554Y-136294531D01*
X159950550Y-136294531D01*
X159712122Y-136322118D01*
X159707092Y-136322700D01*
X159702221Y-136324078D01*
X159702218Y-136324079D01*
X159591674Y-136355360D01*
X159466402Y-136390809D01*
X159239698Y-136496523D01*
X159235518Y-136499364D01*
X159235514Y-136499366D01*
X159124030Y-136575130D01*
X159032811Y-136637122D01*
X159029134Y-136640599D01*
X159029128Y-136640604D01*
X158933866Y-136730690D01*
X158851066Y-136808991D01*
X158699136Y-137007706D01*
X158580932Y-137228156D01*
X158499495Y-137464668D01*
X158456918Y-137711158D01*
X158454299Y-137961285D01*
X137361426Y-137961285D01*
X137369158Y-137885160D01*
X137369500Y-137852500D01*
X137349439Y-137603165D01*
X137289772Y-137360245D01*
X137233704Y-137228156D01*
X137194011Y-137134647D01*
X137194010Y-137134645D01*
X137192034Y-137129990D01*
X137058741Y-136918323D01*
X136893320Y-136730690D01*
X136700028Y-136571918D01*
X136483838Y-136446092D01*
X136345388Y-136392946D01*
X136255036Y-136358263D01*
X136255032Y-136358262D01*
X136250312Y-136356450D01*
X136245362Y-136355416D01*
X136245359Y-136355415D01*
X136010408Y-136306331D01*
X136010404Y-136306331D01*
X136005457Y-136305297D01*
X135755574Y-136293950D01*
X135750554Y-136294531D01*
X135750550Y-136294531D01*
X135512122Y-136322118D01*
X135507092Y-136322700D01*
X135502221Y-136324078D01*
X135502218Y-136324079D01*
X135391674Y-136355360D01*
X135266402Y-136390809D01*
X135039698Y-136496523D01*
X135035518Y-136499364D01*
X135035514Y-136499366D01*
X134924030Y-136575130D01*
X134832811Y-136637122D01*
X134829134Y-136640599D01*
X134829128Y-136640604D01*
X134733866Y-136730690D01*
X134651066Y-136808991D01*
X134499136Y-137007706D01*
X134380932Y-137228156D01*
X134299495Y-137464668D01*
X134256918Y-137711158D01*
X134254299Y-137961285D01*
X122394000Y-137961285D01*
X122394000Y-89791198D01*
X134600579Y-89791198D01*
X134618190Y-89970805D01*
X134620414Y-89977490D01*
X134620414Y-89977491D01*
X134631361Y-90010400D01*
X134675154Y-90142046D01*
X134678801Y-90148068D01*
X134678802Y-90148070D01*
X134733747Y-90238794D01*
X134768642Y-90296413D01*
X134894005Y-90426230D01*
X135045015Y-90525048D01*
X135214164Y-90587954D01*
X135221145Y-90588885D01*
X135221147Y-90588886D01*
X135386066Y-90610891D01*
X135386070Y-90610891D01*
X135393047Y-90611822D01*
X135400058Y-90611184D01*
X135400062Y-90611184D01*
X135565752Y-90596105D01*
X135572773Y-90595466D01*
X135687335Y-90558242D01*
X135737708Y-90541875D01*
X135744408Y-90539698D01*
X135775459Y-90521188D01*
X135893371Y-90450899D01*
X135893373Y-90450898D01*
X135899423Y-90447291D01*
X136030113Y-90322837D01*
X136051671Y-90290390D01*
X136126082Y-90178393D01*
X136126083Y-90178391D01*
X136129983Y-90172521D01*
X136194068Y-90003814D01*
X136219184Y-89825103D01*
X136219500Y-89802500D01*
X136217841Y-89787707D01*
X159350603Y-89787707D01*
X159367906Y-89993760D01*
X159424902Y-90192528D01*
X159427720Y-90198010D01*
X159427721Y-90198014D01*
X159516599Y-90370952D01*
X159516602Y-90370956D01*
X159519420Y-90376440D01*
X159647859Y-90538491D01*
X159805329Y-90672508D01*
X159985830Y-90773386D01*
X160182488Y-90837284D01*
X160387812Y-90861768D01*
X160393947Y-90861296D01*
X160393949Y-90861296D01*
X160587838Y-90846377D01*
X160587842Y-90846376D01*
X160593980Y-90845904D01*
X160793141Y-90790297D01*
X160977708Y-90697065D01*
X161087632Y-90611184D01*
X161135796Y-90573554D01*
X161135797Y-90573553D01*
X161140652Y-90569760D01*
X161275765Y-90413230D01*
X161377901Y-90233437D01*
X161443171Y-90037231D01*
X161469087Y-89832083D01*
X161469500Y-89802500D01*
X161449322Y-89596709D01*
X161389557Y-89398756D01*
X161336878Y-89299681D01*
X161295376Y-89221628D01*
X161295375Y-89221626D01*
X161292480Y-89216182D01*
X161177275Y-89074926D01*
X161165685Y-89060715D01*
X161165682Y-89060712D01*
X161161790Y-89055940D01*
X161144525Y-89041657D01*
X161007215Y-88928064D01*
X161007211Y-88928062D01*
X161002465Y-88924135D01*
X160820573Y-88825786D01*
X160623042Y-88764640D01*
X160616917Y-88763996D01*
X160616916Y-88763996D01*
X160423525Y-88743670D01*
X160423524Y-88743670D01*
X160417397Y-88743026D01*
X160331429Y-88750850D01*
X160217608Y-88761208D01*
X160217605Y-88761209D01*
X160211469Y-88761767D01*
X160205563Y-88763505D01*
X160205559Y-88763506D01*
X160059616Y-88806460D01*
X160013104Y-88820149D01*
X159829857Y-88915948D01*
X159668707Y-89045516D01*
X159664748Y-89050234D01*
X159664747Y-89050235D01*
X159539750Y-89199200D01*
X159535792Y-89203917D01*
X159532829Y-89209306D01*
X159532826Y-89209311D01*
X159479861Y-89305655D01*
X159436176Y-89385119D01*
X159373653Y-89582218D01*
X159372967Y-89588337D01*
X159372966Y-89588340D01*
X159371038Y-89605529D01*
X159350603Y-89787707D01*
X136217841Y-89787707D01*
X136199383Y-89623156D01*
X136140033Y-89452727D01*
X136106309Y-89398756D01*
X136048133Y-89305655D01*
X136044400Y-89299681D01*
X136035653Y-89290872D01*
X135922198Y-89176623D01*
X135917236Y-89171626D01*
X135764861Y-89074926D01*
X135700508Y-89052011D01*
X135601485Y-89016750D01*
X135601480Y-89016749D01*
X135594850Y-89014388D01*
X135587864Y-89013555D01*
X135587860Y-89013554D01*
X135459279Y-88998222D01*
X135415651Y-88993020D01*
X135408648Y-88993756D01*
X135408647Y-88993756D01*
X135360007Y-88998868D01*
X135236172Y-89011884D01*
X135229506Y-89014153D01*
X135229503Y-89014154D01*
X135071999Y-89067773D01*
X135071996Y-89067774D01*
X135065332Y-89070043D01*
X134911622Y-89164605D01*
X134906591Y-89169531D01*
X134906588Y-89169534D01*
X134863833Y-89211403D01*
X134782682Y-89290872D01*
X134778867Y-89296792D01*
X134709354Y-89404656D01*
X134684921Y-89442568D01*
X134682510Y-89449191D01*
X134682510Y-89449192D01*
X134625608Y-89605529D01*
X134625607Y-89605534D01*
X134623198Y-89612152D01*
X134600579Y-89791198D01*
X122394000Y-89791198D01*
X122394000Y-67269033D01*
X126383494Y-67269033D01*
X126384343Y-67274579D01*
X126416205Y-67482793D01*
X126417352Y-67490291D01*
X126489855Y-67702057D01*
X126598714Y-67897637D01*
X126602265Y-67901975D01*
X126602268Y-67901980D01*
X126702431Y-68024355D01*
X126740486Y-68070849D01*
X126910691Y-68216218D01*
X126915536Y-68219049D01*
X127099101Y-68326316D01*
X127099104Y-68326317D01*
X127103948Y-68329148D01*
X127109218Y-68331077D01*
X127109219Y-68331077D01*
X127308885Y-68404145D01*
X127308889Y-68404146D01*
X127314149Y-68406071D01*
X127319665Y-68407034D01*
X127319670Y-68407035D01*
X127498601Y-68438263D01*
X127534650Y-68444555D01*
X127540256Y-68444526D01*
X127540260Y-68444526D01*
X127642973Y-68443988D01*
X127758481Y-68443383D01*
X127978567Y-68402592D01*
X128187952Y-68323472D01*
X128380016Y-68208524D01*
X128548689Y-68061381D01*
X128676394Y-67901980D01*
X128685134Y-67891071D01*
X128685137Y-67891066D01*
X128688640Y-67886694D01*
X128795444Y-67689985D01*
X128865726Y-67477471D01*
X128895392Y-67269033D01*
X128896754Y-67259461D01*
X128896754Y-67259460D01*
X128897265Y-67255870D01*
X128898990Y-67189980D01*
X128879092Y-66967032D01*
X128820029Y-66751131D01*
X128810494Y-66731139D01*
X128726083Y-66554169D01*
X128726082Y-66554168D01*
X128723666Y-66549102D01*
X128707615Y-66526765D01*
X128596326Y-66371890D01*
X128596324Y-66371888D01*
X128593049Y-66367330D01*
X128432308Y-66211561D01*
X128306438Y-66126980D01*
X128251176Y-66089845D01*
X128251170Y-66089842D01*
X128246523Y-66086719D01*
X128041567Y-65996749D01*
X127889129Y-65960152D01*
X127829374Y-65945806D01*
X127829373Y-65945806D01*
X127823917Y-65944496D01*
X127737157Y-65939493D01*
X127606061Y-65931934D01*
X127606058Y-65931934D01*
X127600454Y-65931611D01*
X127378241Y-65958502D01*
X127164302Y-66024318D01*
X126965399Y-66126980D01*
X126787820Y-66263241D01*
X126706220Y-66352918D01*
X126643809Y-66421508D01*
X126637177Y-66428796D01*
X126634200Y-66433542D01*
X126634196Y-66433547D01*
X126620569Y-66455271D01*
X126518232Y-66618411D01*
X126434744Y-66826092D01*
X126389354Y-67045275D01*
X126383494Y-67269033D01*
X122394000Y-67269033D01*
X122394000Y-64000066D01*
X122414002Y-63931945D01*
X122467658Y-63885452D01*
X122544580Y-63876487D01*
X122610000Y-63889500D01*
X124410000Y-63889500D01*
X124509306Y-63869747D01*
X124593494Y-63813494D01*
X124649747Y-63729306D01*
X124656421Y-63695753D01*
X124689328Y-63632843D01*
X124751023Y-63597711D01*
X124821918Y-63601511D01*
X124879504Y-63643036D01*
X124903579Y-63695753D01*
X124910253Y-63729306D01*
X124966506Y-63813494D01*
X125050694Y-63869747D01*
X125150000Y-63889500D01*
X126950000Y-63889500D01*
X127049306Y-63869747D01*
X127133494Y-63813494D01*
X127189747Y-63729306D01*
X127196421Y-63695753D01*
X127229328Y-63632843D01*
X127291023Y-63597711D01*
X127361918Y-63601511D01*
X127419504Y-63643036D01*
X127443579Y-63695753D01*
X127450253Y-63729306D01*
X127506506Y-63813494D01*
X127590694Y-63869747D01*
X127690000Y-63889500D01*
X129490000Y-63889500D01*
X129589306Y-63869747D01*
X129673494Y-63813494D01*
X129729747Y-63729306D01*
X129736421Y-63695753D01*
X129769328Y-63632843D01*
X129831023Y-63597711D01*
X129901918Y-63601511D01*
X129959504Y-63643036D01*
X129983579Y-63695753D01*
X129990253Y-63729306D01*
X130046506Y-63813494D01*
X130130694Y-63869747D01*
X130230000Y-63889500D01*
X132030000Y-63889500D01*
X132129306Y-63869747D01*
X132213494Y-63813494D01*
X132269747Y-63729306D01*
X132289500Y-63630000D01*
X132289500Y-59630000D01*
X132269747Y-59530694D01*
X132265719Y-59524666D01*
X132258512Y-59457627D01*
X132290292Y-59394140D01*
X132351351Y-59357914D01*
X132382510Y-59354000D01*
X134957490Y-59354000D01*
X135025611Y-59374002D01*
G37*
%TD.AperFunction*%
%TD*%
M02*
