%TF.GenerationSoftware,KiCad,Pcbnew,5.99.0-unknown-140f4a8d21~125~ubuntu20.04.1*%
%TF.CreationDate,2021-04-01T23:20:43+02:00*%
%TF.ProjectId,pi-hat-lorawan-gateway-minipci,70692d68-6174-42d6-9c6f-726177616e2d,rev?*%
%TF.SameCoordinates,Original*%
%TF.FileFunction,Copper,L1,Top*%
%TF.FilePolarity,Positive*%
%FSLAX46Y46*%
G04 Gerber Fmt 4.6, Leading zero omitted, Abs format (unit mm)*
G04 Created by KiCad (PCBNEW 5.99.0-unknown-140f4a8d21~125~ubuntu20.04.1) date 2021-04-01 23:20:43*
%MOMM*%
%LPD*%
G01*
G04 APERTURE LIST*
%TA.AperFunction,ComponentPad*%
%ADD10R,1.727200X1.727200*%
%TD*%
%TA.AperFunction,ComponentPad*%
%ADD11O,1.727200X1.727200*%
%TD*%
%TA.AperFunction,SMDPad,CuDef*%
%ADD12R,3.200000X2.300000*%
%TD*%
%TA.AperFunction,SMDPad,CuDef*%
%ADD13R,2.000000X0.530000*%
%TD*%
%TA.AperFunction,SMDPad,CuDef*%
%ADD14R,1.000000X0.600000*%
%TD*%
%TA.AperFunction,SMDPad,CuDef*%
%ADD15R,0.600000X1.000000*%
%TD*%
%TA.AperFunction,SMDPad,CuDef*%
%ADD16R,0.450000X0.630000*%
%TD*%
%TA.AperFunction,SMDPad,CuDef*%
%ADD17R,2.600000X1.700000*%
%TD*%
%TA.AperFunction,ViaPad*%
%ADD18C,0.800000*%
%TD*%
%TA.AperFunction,Conductor*%
%ADD19C,0.254000*%
%TD*%
%TA.AperFunction,Conductor*%
%ADD20C,0.200000*%
%TD*%
%TA.AperFunction,Conductor*%
%ADD21C,0.508000*%
%TD*%
G04 APERTURE END LIST*
D10*
%TO.P,Con1,1,1*%
%TO.N,N/C*%
X106450000Y-74450000D03*
D11*
%TO.P,Con1,2,2*%
%TO.N,5V*%
X106450000Y-71910000D03*
%TO.P,Con1,3,3*%
%TO.N,N/C*%
X108990000Y-74450000D03*
%TO.P,Con1,4,4*%
%TO.N,5V*%
X108990000Y-71910000D03*
%TO.P,Con1,5,5*%
%TO.N,N/C*%
X111530000Y-74450000D03*
%TO.P,Con1,6,6*%
%TO.N,GND*%
X111530000Y-71910000D03*
%TO.P,Con1,7,7*%
%TO.N,N/C*%
X114070000Y-74450000D03*
%TO.P,Con1,8,8*%
X114070000Y-71910000D03*
%TO.P,Con1,9,9*%
%TO.N,GND*%
X116610000Y-74450000D03*
%TO.P,Con1,10,10*%
%TO.N,N/C*%
X116610000Y-71910000D03*
%TO.P,Con1,11,11*%
X119150000Y-74450000D03*
%TO.P,Con1,12,12*%
X119150000Y-71910000D03*
%TO.P,Con1,13,13*%
X121690000Y-74450000D03*
%TO.P,Con1,14,14*%
%TO.N,GND*%
X121690000Y-71910000D03*
%TO.P,Con1,15,15*%
%TO.N,N/C*%
X124230000Y-74450000D03*
%TO.P,Con1,16,16*%
X124230000Y-71910000D03*
%TO.P,Con1,17,17*%
X126770000Y-74450000D03*
%TO.P,Con1,18,18*%
X126770000Y-71910000D03*
%TO.P,Con1,19,19*%
%TO.N,/GPIO10(MOSI)*%
X129310000Y-74450000D03*
%TO.P,Con1,20,20*%
%TO.N,GND*%
X129310000Y-71910000D03*
%TO.P,Con1,21,21*%
%TO.N,/GPIO9(MISO)*%
X131850000Y-74450000D03*
%TO.P,Con1,22,22*%
%TO.N,/GPIO25*%
X131850000Y-71910000D03*
%TO.P,Con1,23,23*%
%TO.N,/GPIO11(SCLK)*%
X134390000Y-74450000D03*
%TO.P,Con1,24,24*%
%TO.N,/GPIO8(CE0)*%
X134390000Y-71910000D03*
%TO.P,Con1,25,25*%
%TO.N,GND*%
X136930000Y-74450000D03*
%TO.P,Con1,26,26*%
%TO.N,N/C*%
X136930000Y-71910000D03*
%TD*%
D12*
%TO.P,Con2,0*%
%TO.N,N/C*%
X110270000Y-115900000D03*
X110270000Y-86600000D03*
D13*
%TO.P,Con2,1,1*%
X109670000Y-89450000D03*
%TO.P,Con2,2,2*%
%TO.N,3V3*%
X117870000Y-89850000D03*
%TO.P,Con2,3,3*%
%TO.N,N/C*%
X109670000Y-90250000D03*
%TO.P,Con2,4,4*%
%TO.N,GND*%
X117870000Y-90650000D03*
%TO.P,Con2,5,5*%
%TO.N,N/C*%
X109670000Y-91050000D03*
%TO.P,Con2,6,6*%
X117870000Y-91450000D03*
%TO.P,Con2,7,7*%
X109670000Y-91850000D03*
%TO.P,Con2,8,8*%
X117870000Y-92250000D03*
%TO.P,Con2,9,9*%
%TO.N,GND*%
X109670000Y-92650000D03*
%TO.P,Con2,10,10*%
%TO.N,N/C*%
X117870000Y-93050000D03*
%TO.P,Con2,11,11*%
X109670000Y-93450000D03*
%TO.P,Con2,12,12*%
X117870000Y-93850000D03*
%TO.P,Con2,13,13*%
X109670000Y-94250000D03*
%TO.P,Con2,14,14*%
X117870000Y-94650000D03*
%TO.P,Con2,15,15*%
%TO.N,GND*%
X109670000Y-95050000D03*
%TO.P,Con2,16,16*%
%TO.N,N/C*%
X117870000Y-95450000D03*
%TO.P,Con2,17,17*%
%TO.N,GND*%
X109670000Y-99050000D03*
%TO.P,Con2,18,18*%
%TO.N,N/C*%
X117870000Y-99450000D03*
%TO.P,Con2,19,19*%
X109670000Y-99850000D03*
%TO.P,Con2,20,20*%
X117870000Y-100250000D03*
%TO.P,Con2,21,21*%
%TO.N,GND*%
X109670000Y-100650000D03*
%TO.P,Con2,22,22*%
%TO.N,/GPIO25*%
X117870000Y-101050000D03*
%TO.P,Con2,23,23*%
%TO.N,N/C*%
X109670000Y-101450000D03*
%TO.P,Con2,24,24*%
%TO.N,3V3*%
X117870000Y-101850000D03*
%TO.P,Con2,25,25*%
%TO.N,N/C*%
X109670000Y-102250000D03*
%TO.P,Con2,26,26*%
%TO.N,GND*%
X117870000Y-102650000D03*
%TO.P,Con2,27,27*%
X109670000Y-103050000D03*
%TO.P,Con2,28,28*%
%TO.N,N/C*%
X117870000Y-103450000D03*
%TO.P,Con2,29,29*%
%TO.N,GND*%
X109670000Y-103850000D03*
%TO.P,Con2,30,30*%
%TO.N,N/C*%
X117870000Y-104250000D03*
%TO.P,Con2,31,31*%
X109670000Y-104650000D03*
%TO.P,Con2,32,32*%
X117870000Y-105050000D03*
%TO.P,Con2,33,33*%
X109670000Y-105450000D03*
%TO.P,Con2,34,34*%
%TO.N,GND*%
X117870000Y-105850000D03*
%TO.P,Con2,35,35*%
X109670000Y-106250000D03*
%TO.P,Con2,36,36*%
%TO.N,N/C*%
X117870000Y-106650000D03*
%TO.P,Con2,37,37*%
%TO.N,GND*%
X109670000Y-107050000D03*
%TO.P,Con2,38,38*%
%TO.N,N/C*%
X117870000Y-107450000D03*
%TO.P,Con2,39,39*%
%TO.N,3V3*%
X109670000Y-107850000D03*
%TO.P,Con2,40,40*%
%TO.N,GND*%
X117870000Y-108250000D03*
%TO.P,Con2,41,41*%
%TO.N,3V3*%
X109670000Y-108650000D03*
%TO.P,Con2,42,42*%
%TO.N,N/C*%
X117870000Y-109050000D03*
%TO.P,Con2,43,43*%
%TO.N,GND*%
X109670000Y-109450000D03*
%TO.P,Con2,44,44*%
%TO.N,N/C*%
X117870000Y-109850000D03*
%TO.P,Con2,45,45*%
%TO.N,/GPIO11(SCLK)*%
X109670000Y-110250000D03*
%TO.P,Con2,46,46*%
%TO.N,N/C*%
X117870000Y-110650000D03*
%TO.P,Con2,47,47*%
%TO.N,/GPIO9(MISO)*%
X109670000Y-111050000D03*
%TO.P,Con2,48,48*%
%TO.N,N/C*%
X117870000Y-111450000D03*
%TO.P,Con2,49,49*%
%TO.N,/GPIO10(MOSI)*%
X109670000Y-111850000D03*
%TO.P,Con2,50,50*%
%TO.N,GND*%
X117870000Y-112250000D03*
%TO.P,Con2,51,51*%
%TO.N,/GPIO8(CE0)*%
X109670000Y-112650000D03*
%TO.P,Con2,52,52*%
%TO.N,3V3*%
X117870000Y-113050000D03*
%TD*%
D14*
%TO.P,C1,1*%
%TO.N,3V3*%
X106880000Y-108750000D03*
%TO.P,C1,2*%
%TO.N,GND*%
X106880000Y-110150000D03*
%TD*%
%TO.P,C2,1*%
%TO.N,3V3*%
X106880000Y-107630000D03*
%TO.P,C2,2*%
%TO.N,GND*%
X106880000Y-106230000D03*
%TD*%
D15*
%TO.P,D1,1,A*%
%TO.N,Net-(D1-Pad1)*%
X127200000Y-81840000D03*
%TO.P,D1,2,K*%
%TO.N,GND*%
X128600000Y-81840000D03*
%TD*%
%TO.P,R3,1*%
%TO.N,Net-(D1-Pad1)*%
X125910000Y-81840000D03*
%TO.P,R3,2*%
%TO.N,3V3*%
X124510000Y-81840000D03*
%TD*%
%TO.P,C3,1*%
%TO.N,5V*%
X108270000Y-77610000D03*
%TO.P,C3,2*%
%TO.N,GND*%
X109670000Y-77610000D03*
%TD*%
%TO.P,C4,1*%
%TO.N,3V3*%
X108470000Y-83420000D03*
%TO.P,C4,2*%
%TO.N,GND*%
X109870000Y-83420000D03*
%TD*%
D16*
%TO.P,U1,1,VOUT*%
%TO.N,3V3*%
X107980000Y-81810000D03*
%TO.P,U1,2,ADJ/SENSE*%
X108930000Y-81810000D03*
%TO.P,U1,3,GND*%
%TO.N,GND*%
X109880000Y-81810000D03*
%TO.P,U1,4,PG*%
%TO.N,N/C*%
X109880000Y-79130000D03*
%TO.P,U1,5,EN*%
%TO.N,5V*%
X108930000Y-79130000D03*
%TO.P,U1,6,VIN*%
X107980000Y-79130000D03*
D17*
%TO.P,U1,EP,EP*%
%TO.N,GND*%
X108930000Y-80470000D03*
%TD*%
D18*
%TO.N,GND*%
X120740000Y-113960000D03*
X121760000Y-112610000D03*
X114600000Y-83720000D03*
X111770000Y-90630000D03*
X113310000Y-85390000D03*
X120830000Y-107830000D03*
X116080000Y-99410000D03*
X130540000Y-88830000D03*
X124150000Y-85010000D03*
X111999776Y-105499789D03*
X129452990Y-81952319D03*
X112580000Y-101960000D03*
X120390000Y-90990000D03*
X121660000Y-95720000D03*
X134870000Y-91780000D03*
X109250000Y-97100000D03*
X112390000Y-84360000D03*
X130120000Y-94470000D03*
X120350000Y-97140000D03*
X123570000Y-77920000D03*
X120250000Y-84300000D03*
X134720000Y-84060000D03*
X121770000Y-81290000D03*
X124530000Y-77160000D03*
X116010000Y-115440000D03*
X127050000Y-87860000D03*
X114010000Y-79330000D03*
X122400000Y-92650000D03*
X117470000Y-77780000D03*
X118520000Y-76870000D03*
X127820000Y-92020000D03*
X121240000Y-87220000D03*
X121360000Y-115230000D03*
X114780000Y-94300000D03*
X120980000Y-105240000D03*
X112510000Y-104210000D03*
X121180000Y-102670000D03*
X114360000Y-87240000D03*
X114400000Y-92650000D03*
%TO.N,/GPIO8(CE0)*%
X124880000Y-111590000D03*
X112670000Y-112630510D03*
%TO.N,/GPIO11(SCLK)*%
X125780000Y-110750000D03*
X111620000Y-110010000D03*
%TO.N,/GPIO9(MISO)*%
X112744405Y-110627071D03*
X124127903Y-110748538D03*
%TO.N,/GPIO10(MOSI)*%
X113660000Y-111200000D03*
X123012494Y-110854345D03*
%TD*%
D19*
%TO.N,/GPIO8(CE0)*%
X112650510Y-112650000D02*
X112670000Y-112630510D01*
%TO.N,/GPIO10(MOSI)*%
X113660000Y-111200000D02*
X113010000Y-111850000D01*
%TO.N,/GPIO8(CE0)*%
X109670000Y-112650000D02*
X112650510Y-112650000D01*
%TO.N,/GPIO10(MOSI)*%
X113010000Y-111850000D02*
X109670000Y-111850000D01*
X123012494Y-110854345D02*
X123390000Y-110476839D01*
X123390000Y-110476839D02*
X123390000Y-108817932D01*
X123390000Y-108817932D02*
X131990000Y-100217932D01*
X131990000Y-100217932D02*
X131990000Y-77130000D01*
X131990000Y-77130000D02*
X129310000Y-74450000D01*
%TO.N,/GPIO9(MISO)*%
X132580000Y-75180000D02*
X132580000Y-100490000D01*
X132580000Y-100490000D02*
X124127903Y-108942097D01*
%TO.N,/GPIO8(CE0)*%
X133145889Y-73154111D02*
X133145889Y-100804111D01*
%TO.N,/GPIO9(MISO)*%
X124127903Y-108942097D02*
X124127903Y-110748538D01*
%TO.N,/GPIO8(CE0)*%
X134390000Y-71910000D02*
X133145889Y-73154111D01*
X133145889Y-100804111D02*
X124908404Y-109041596D01*
X124908404Y-111561596D02*
X124880000Y-111590000D01*
%TO.N,/GPIO9(MISO)*%
X131850000Y-74450000D02*
X132580000Y-75180000D01*
%TO.N,/GPIO8(CE0)*%
X124908404Y-109041596D02*
X124908404Y-111561596D01*
%TO.N,/GPIO11(SCLK)*%
X125610000Y-109220000D02*
X125610000Y-110580000D01*
X125610000Y-110580000D02*
X125780000Y-110750000D01*
%TO.N,/GPIO25*%
X131850000Y-71910000D02*
X130580000Y-73180000D01*
X130580000Y-73180000D02*
X128817895Y-73180000D01*
X128817895Y-73180000D02*
X128030000Y-73967895D01*
X119820000Y-101050000D02*
X117870000Y-101050000D01*
X128030000Y-73967895D02*
X128030000Y-76580000D01*
X128030000Y-76580000D02*
X125190000Y-79420000D01*
X125190000Y-95680000D02*
X119820000Y-101050000D01*
X125190000Y-79420000D02*
X125190000Y-95680000D01*
D20*
%TO.N,GND*%
X109670000Y-99050000D02*
X109670000Y-97520000D01*
X109670000Y-97520000D02*
X109250000Y-97100000D01*
D19*
X117870000Y-90650000D02*
X120050000Y-90650000D01*
X109650000Y-106230000D02*
X106880000Y-106230000D01*
X129340671Y-81840000D02*
X129452990Y-81952319D01*
X108390000Y-109450000D02*
X107630000Y-110210000D01*
X107630000Y-110210000D02*
X106940000Y-110210000D01*
X128600000Y-81840000D02*
X129340671Y-81840000D01*
X106940000Y-110210000D02*
X106880000Y-110150000D01*
X109670000Y-106250000D02*
X109650000Y-106230000D01*
X109670000Y-109450000D02*
X108390000Y-109450000D01*
X120050000Y-90650000D02*
X120390000Y-90990000D01*
D21*
%TO.N,3V3*%
X106880000Y-108750000D02*
X106980000Y-108650000D01*
X108470000Y-83420000D02*
X108470000Y-83560000D01*
D19*
%TO.N,5V*%
X108990000Y-71910000D02*
X108990000Y-72570000D01*
X106450000Y-71910000D02*
X107020000Y-71910000D01*
%TO.N,/GPIO8(CE0)*%
X134390000Y-72120000D02*
X134390000Y-71910000D01*
%TO.N,/GPIO11(SCLK)*%
X134390000Y-74450000D02*
X133740000Y-75100000D01*
X133740000Y-75100000D02*
X133740000Y-101090000D01*
X109670000Y-110250000D02*
X111380000Y-110250000D01*
X133740000Y-101090000D02*
X125610000Y-109220000D01*
X111380000Y-110250000D02*
X111620000Y-110010000D01*
X109690000Y-110270000D02*
X109670000Y-110250000D01*
%TO.N,/GPIO9(MISO)*%
X112321476Y-111050000D02*
X112744405Y-110627071D01*
X109670000Y-111050000D02*
X112321476Y-111050000D01*
%TO.N,/GPIO10(MOSI)*%
X129250000Y-74510000D02*
X129310000Y-74450000D01*
%TO.N,Net-(D1-Pad1)*%
X127200000Y-81840000D02*
X125910000Y-81840000D01*
%TD*%
%TA.AperFunction,Conductor*%
%TO.N,GND*%
G36*
X157429382Y-69420445D02*
G01*
X158639618Y-69421595D01*
X160790122Y-69423639D01*
X160858221Y-69443706D01*
X160904663Y-69497406D01*
X160916000Y-69549639D01*
X160916000Y-82132453D01*
X160913579Y-82157033D01*
X160911000Y-82170000D01*
X160916000Y-82195137D01*
X160930715Y-82269115D01*
X160937609Y-82279433D01*
X160937610Y-82279435D01*
X160979966Y-82342825D01*
X160986859Y-82353141D01*
X160997175Y-82360034D01*
X161060565Y-82402390D01*
X161060567Y-82402391D01*
X161070885Y-82409285D01*
X161170000Y-82429000D01*
X161182171Y-82426579D01*
X161182173Y-82426579D01*
X161182967Y-82426421D01*
X161207547Y-82424000D01*
X175142453Y-82424000D01*
X175167033Y-82426421D01*
X175167827Y-82426579D01*
X175167829Y-82426579D01*
X175180000Y-82429000D01*
X175279115Y-82409285D01*
X175289433Y-82402391D01*
X175289435Y-82402390D01*
X175352825Y-82360034D01*
X175363141Y-82353141D01*
X175370034Y-82342825D01*
X175412390Y-82279435D01*
X175412391Y-82279433D01*
X175419285Y-82269115D01*
X175434000Y-82195137D01*
X175439000Y-82170000D01*
X175436421Y-82157033D01*
X175434000Y-82132453D01*
X175434000Y-69550000D01*
X175454002Y-69481879D01*
X175507658Y-69435386D01*
X175560000Y-69424000D01*
X188810000Y-69424000D01*
X188878121Y-69444002D01*
X188924614Y-69497658D01*
X188936000Y-69550000D01*
X188936000Y-85790000D01*
X188915998Y-85858121D01*
X188862342Y-85904614D01*
X188810000Y-85916000D01*
X178227547Y-85916000D01*
X178202967Y-85913579D01*
X178202173Y-85913421D01*
X178202171Y-85913421D01*
X178190000Y-85911000D01*
X178164863Y-85916000D01*
X178090885Y-85930715D01*
X178080567Y-85937609D01*
X178080565Y-85937610D01*
X178017175Y-85979966D01*
X178006859Y-85986859D01*
X177999966Y-85997175D01*
X177957610Y-86060565D01*
X177957609Y-86060567D01*
X177950715Y-86070885D01*
X177931000Y-86170000D01*
X177933421Y-86182171D01*
X177933421Y-86182173D01*
X177933579Y-86182967D01*
X177936000Y-86207547D01*
X177936000Y-101662453D01*
X177933579Y-101687033D01*
X177931000Y-101700000D01*
X177936000Y-101725137D01*
X177950715Y-101799115D01*
X177957609Y-101809433D01*
X177957610Y-101809435D01*
X177960865Y-101814306D01*
X178006859Y-101883141D01*
X178017175Y-101890034D01*
X178080565Y-101932390D01*
X178080567Y-101932391D01*
X178090885Y-101939285D01*
X178190000Y-101959000D01*
X178202171Y-101956579D01*
X178202173Y-101956579D01*
X178202967Y-101956421D01*
X178227547Y-101954000D01*
X188810000Y-101954000D01*
X188878121Y-101974002D01*
X188924614Y-102027658D01*
X188936000Y-102080000D01*
X188936000Y-105790000D01*
X188915998Y-105858121D01*
X188862342Y-105904614D01*
X188810000Y-105916000D01*
X168227547Y-105916000D01*
X168202967Y-105913579D01*
X168202173Y-105913421D01*
X168202171Y-105913421D01*
X168190000Y-105911000D01*
X168164863Y-105916000D01*
X168090885Y-105930715D01*
X168080567Y-105937609D01*
X168080565Y-105937610D01*
X168017175Y-105979966D01*
X168006859Y-105986859D01*
X167999966Y-105997175D01*
X167957610Y-106060565D01*
X167957609Y-106060567D01*
X167950715Y-106070885D01*
X167931000Y-106170000D01*
X167933421Y-106182171D01*
X167933421Y-106182173D01*
X167933579Y-106182967D01*
X167936000Y-106207547D01*
X167936000Y-124790000D01*
X167915998Y-124858121D01*
X167862342Y-124904614D01*
X167810000Y-124916000D01*
X104570000Y-124916000D01*
X104501879Y-124895998D01*
X104455386Y-124842342D01*
X104444000Y-124790000D01*
X104444000Y-114750000D01*
X108410500Y-114750000D01*
X108410500Y-117050000D01*
X108430253Y-117149306D01*
X108486506Y-117233494D01*
X108570694Y-117289747D01*
X108670000Y-117309500D01*
X111870000Y-117309500D01*
X111969306Y-117289747D01*
X112053494Y-117233494D01*
X112109747Y-117149306D01*
X112129500Y-117050000D01*
X112129500Y-114750000D01*
X112109747Y-114650694D01*
X112053494Y-114566506D01*
X111969306Y-114510253D01*
X111870000Y-114490500D01*
X108670000Y-114490500D01*
X108570694Y-114510253D01*
X108486506Y-114566506D01*
X108430253Y-114650694D01*
X108410500Y-114750000D01*
X104444000Y-114750000D01*
X104444000Y-81504924D01*
X104862041Y-81504924D01*
X104889978Y-95802630D01*
X104912812Y-107488676D01*
X104915755Y-108995201D01*
X104921514Y-109048487D01*
X104932710Y-109100164D01*
X104939657Y-109125713D01*
X104988383Y-109212013D01*
X105034679Y-109265838D01*
X105067148Y-109297398D01*
X105075116Y-109301603D01*
X105075117Y-109301604D01*
X105149316Y-109340763D01*
X105154796Y-109343655D01*
X105160734Y-109345422D01*
X105160736Y-109345423D01*
X105167514Y-109347440D01*
X105222843Y-109363906D01*
X105227288Y-109364562D01*
X105227294Y-109364563D01*
X105289915Y-109373800D01*
X105289921Y-109373800D01*
X105294365Y-109374456D01*
X107494591Y-109382506D01*
X108140167Y-109384868D01*
X108143727Y-109384881D01*
X108200584Y-109378649D01*
X108255584Y-109366234D01*
X108309601Y-109347440D01*
X108312806Y-109345901D01*
X108312811Y-109345899D01*
X108323811Y-109340617D01*
X108323835Y-109340605D01*
X108324148Y-109340455D01*
X108329494Y-109337810D01*
X108332373Y-109336343D01*
X108371808Y-109323874D01*
X108374973Y-109323424D01*
X108380893Y-109322510D01*
X108381378Y-109322429D01*
X108381529Y-109322405D01*
X108391918Y-109321190D01*
X108391918Y-109321187D01*
X108406828Y-109319866D01*
X108413535Y-109319072D01*
X108413535Y-109319073D01*
X108413548Y-109319070D01*
X108417182Y-109318640D01*
X108420089Y-109318296D01*
X108456572Y-109311244D01*
X108458779Y-109310647D01*
X108458792Y-109310644D01*
X108478945Y-109305192D01*
X108492052Y-109301647D01*
X108501627Y-109298854D01*
X108588611Y-109251358D01*
X108632716Y-109214499D01*
X108633520Y-109215460D01*
X108645423Y-109203557D01*
X108649649Y-109200733D01*
X108719647Y-109179500D01*
X110600285Y-109179500D01*
X110668406Y-109199502D01*
X110697744Y-109226898D01*
X110698304Y-109226435D01*
X110729107Y-109263709D01*
X110731213Y-109266258D01*
X110767470Y-109302004D01*
X110785697Y-109318320D01*
X110873345Y-109364577D01*
X110879283Y-109366344D01*
X110879285Y-109366345D01*
X110904336Y-109373800D01*
X110941392Y-109384828D01*
X110945837Y-109385484D01*
X110945843Y-109385485D01*
X110992620Y-109392385D01*
X111012914Y-109395378D01*
X111017411Y-109395394D01*
X111018149Y-109395450D01*
X111084577Y-109420506D01*
X111126914Y-109477498D01*
X111131718Y-109548332D01*
X111100545Y-109607349D01*
X111086453Y-109622356D01*
X111082635Y-109629301D01*
X111082632Y-109629305D01*
X111018023Y-109746827D01*
X110967678Y-109796886D01*
X110898261Y-109811779D01*
X110837609Y-109790892D01*
X110769306Y-109745253D01*
X110670000Y-109725500D01*
X108670000Y-109725500D01*
X108570694Y-109745253D01*
X108486506Y-109801506D01*
X108430253Y-109885694D01*
X108410500Y-109985000D01*
X108410500Y-110515000D01*
X108411707Y-110521068D01*
X108430253Y-110614306D01*
X108429058Y-110614544D01*
X108435275Y-110672373D01*
X108432234Y-110682729D01*
X108430253Y-110685694D01*
X108410500Y-110785000D01*
X108410500Y-111315000D01*
X108411707Y-111321068D01*
X108430253Y-111414306D01*
X108429058Y-111414544D01*
X108435275Y-111472373D01*
X108432234Y-111482729D01*
X108430253Y-111485694D01*
X108410500Y-111585000D01*
X108410500Y-112115000D01*
X108411707Y-112121068D01*
X108430253Y-112214306D01*
X108429058Y-112214544D01*
X108435275Y-112272373D01*
X108432234Y-112282729D01*
X108430253Y-112285694D01*
X108410500Y-112385000D01*
X108410500Y-112915000D01*
X108430253Y-113014306D01*
X108486506Y-113098494D01*
X108570694Y-113154747D01*
X108670000Y-113174500D01*
X110670000Y-113174500D01*
X110769306Y-113154747D01*
X110853494Y-113098494D01*
X110860840Y-113087500D01*
X110862210Y-113086355D01*
X110869164Y-113079401D01*
X110869786Y-113080023D01*
X110915316Y-113041971D01*
X110965606Y-113031500D01*
X112094461Y-113031500D01*
X112162582Y-113051502D01*
X112186311Y-113071247D01*
X112249619Y-113138663D01*
X112389199Y-113227243D01*
X112396738Y-113229693D01*
X112396741Y-113229694D01*
X112538884Y-113275879D01*
X112538886Y-113275879D01*
X112546422Y-113278328D01*
X112554331Y-113278826D01*
X112554333Y-113278826D01*
X112628916Y-113283518D01*
X112711410Y-113288709D01*
X112719194Y-113287224D01*
X112719196Y-113287224D01*
X112866009Y-113259218D01*
X112866012Y-113259217D01*
X112873797Y-113257732D01*
X112878468Y-113255534D01*
X112948207Y-113253543D01*
X113009004Y-113290207D01*
X113040328Y-113353920D01*
X113034574Y-113418497D01*
X112985608Y-113553029D01*
X112985607Y-113553034D01*
X112983198Y-113559652D01*
X112960579Y-113738698D01*
X112978190Y-113918305D01*
X113035154Y-114089546D01*
X113038801Y-114095568D01*
X113038802Y-114095570D01*
X113117995Y-114226332D01*
X113128642Y-114243913D01*
X113254005Y-114373730D01*
X113405015Y-114472548D01*
X113574164Y-114535454D01*
X113581145Y-114536385D01*
X113581147Y-114536386D01*
X113746066Y-114558391D01*
X113746070Y-114558391D01*
X113753047Y-114559322D01*
X113760058Y-114558684D01*
X113760062Y-114558684D01*
X113925752Y-114543605D01*
X113932773Y-114542966D01*
X114090531Y-114491707D01*
X114097708Y-114489375D01*
X114104408Y-114487198D01*
X114135459Y-114468688D01*
X114253371Y-114398399D01*
X114253373Y-114398398D01*
X114259423Y-114394791D01*
X114330109Y-114327478D01*
X114355736Y-114303074D01*
X114418861Y-114270582D01*
X114489532Y-114277376D01*
X114501028Y-114282672D01*
X114535759Y-114300839D01*
X114535769Y-114300843D01*
X114541248Y-114303709D01*
X114609369Y-114323711D01*
X114613828Y-114324352D01*
X114613832Y-114324353D01*
X114635568Y-114327478D01*
X114680929Y-114334000D01*
X119214000Y-114334000D01*
X119217347Y-114333640D01*
X119217351Y-114333640D01*
X119264626Y-114328558D01*
X119264633Y-114328557D01*
X119267990Y-114328196D01*
X119271291Y-114327478D01*
X119318678Y-114317170D01*
X119318685Y-114317168D01*
X119320332Y-114316810D01*
X119346555Y-114309616D01*
X119387320Y-114286403D01*
X119427298Y-114263638D01*
X119427302Y-114263635D01*
X119432676Y-114260575D01*
X119472195Y-114226332D01*
X119484209Y-114215922D01*
X119484214Y-114215917D01*
X119486332Y-114214082D01*
X119517773Y-114181498D01*
X119563709Y-114093681D01*
X119583711Y-114025560D01*
X119594000Y-113954000D01*
X119594000Y-113458785D01*
X160264299Y-113458785D01*
X160301704Y-113706113D01*
X160303253Y-113710937D01*
X160303254Y-113710942D01*
X160314417Y-113745710D01*
X160378170Y-113944279D01*
X160380468Y-113948789D01*
X160380470Y-113948794D01*
X160380827Y-113949494D01*
X160491732Y-114167156D01*
X160639466Y-114369009D01*
X160817573Y-114544646D01*
X160821698Y-114547578D01*
X160821701Y-114547580D01*
X160848333Y-114566506D01*
X161021469Y-114689548D01*
X161245910Y-114799986D01*
X161250749Y-114801465D01*
X161250753Y-114801467D01*
X161480272Y-114871638D01*
X161480274Y-114871638D01*
X161485120Y-114873120D01*
X161490141Y-114873808D01*
X161490142Y-114873808D01*
X161727923Y-114906380D01*
X161732946Y-114907068D01*
X161805588Y-114905293D01*
X161977951Y-114901081D01*
X161977955Y-114901081D01*
X161983012Y-114900957D01*
X162228884Y-114854943D01*
X162464236Y-114770211D01*
X162683014Y-114648941D01*
X162686992Y-114645811D01*
X162686996Y-114645808D01*
X162875613Y-114497381D01*
X162875614Y-114497380D01*
X162879589Y-114494252D01*
X163048903Y-114310124D01*
X163186600Y-114101295D01*
X163250792Y-113958463D01*
X163287065Y-113877753D01*
X163287067Y-113877747D01*
X163289139Y-113873137D01*
X163290447Y-113868256D01*
X163290449Y-113868250D01*
X163352572Y-113636402D01*
X163352572Y-113636401D01*
X163353880Y-113631520D01*
X163379158Y-113382660D01*
X163379500Y-113350000D01*
X163374449Y-113287224D01*
X163359845Y-113105706D01*
X163359844Y-113105701D01*
X163359439Y-113100665D01*
X163356206Y-113087500D01*
X163300979Y-112862659D01*
X163299772Y-112857745D01*
X163243704Y-112725656D01*
X163204011Y-112632147D01*
X163204010Y-112632145D01*
X163202034Y-112627490D01*
X163195175Y-112616597D01*
X163071433Y-112420098D01*
X163068741Y-112415823D01*
X163051378Y-112396128D01*
X162906664Y-112231983D01*
X162903320Y-112228190D01*
X162710028Y-112069418D01*
X162517164Y-111957168D01*
X162498206Y-111946134D01*
X162498204Y-111946133D01*
X162493838Y-111943592D01*
X162417087Y-111914130D01*
X162265036Y-111855763D01*
X162265032Y-111855762D01*
X162260312Y-111853950D01*
X162255362Y-111852916D01*
X162255359Y-111852915D01*
X162020408Y-111803831D01*
X162020404Y-111803831D01*
X162015457Y-111802797D01*
X161765574Y-111791450D01*
X161760554Y-111792031D01*
X161760550Y-111792031D01*
X161522122Y-111819618D01*
X161517092Y-111820200D01*
X161512221Y-111821578D01*
X161512218Y-111821579D01*
X161448096Y-111839724D01*
X161276402Y-111888309D01*
X161049698Y-111994023D01*
X161045518Y-111996864D01*
X161045514Y-111996866D01*
X160880788Y-112108813D01*
X160842811Y-112134622D01*
X160839134Y-112138099D01*
X160839128Y-112138104D01*
X160683058Y-112285694D01*
X160661066Y-112306491D01*
X160509136Y-112505206D01*
X160506746Y-112509664D01*
X160506745Y-112509665D01*
X160489031Y-112542702D01*
X160390932Y-112725656D01*
X160309495Y-112962168D01*
X160308634Y-112967151D01*
X160308633Y-112967156D01*
X160267779Y-113203672D01*
X160266918Y-113208658D01*
X160266865Y-113213717D01*
X160266183Y-113278826D01*
X160264299Y-113458785D01*
X119594000Y-113458785D01*
X119594000Y-112756000D01*
X119590738Y-112725656D01*
X119588558Y-112705374D01*
X119588557Y-112705367D01*
X119588196Y-112702010D01*
X119576810Y-112649668D01*
X119569616Y-112623445D01*
X119546403Y-112582680D01*
X119523638Y-112542702D01*
X119523635Y-112542698D01*
X119520575Y-112537324D01*
X119480522Y-112491100D01*
X119475922Y-112485791D01*
X119475917Y-112485786D01*
X119474082Y-112483668D01*
X119441498Y-112452227D01*
X119353681Y-112406291D01*
X119285560Y-112386289D01*
X119281101Y-112385648D01*
X119281097Y-112385647D01*
X119248789Y-112381002D01*
X119214000Y-112376000D01*
X119166609Y-112376000D01*
X119144440Y-112378283D01*
X119118043Y-112381002D01*
X119118036Y-112381003D01*
X119114833Y-112381333D01*
X119111679Y-112381990D01*
X119111677Y-112381990D01*
X119066021Y-112391496D01*
X119066011Y-112391498D01*
X119064543Y-112391804D01*
X119052702Y-112394883D01*
X119047911Y-112396128D01*
X119047910Y-112396128D01*
X119040419Y-112398076D01*
X118953436Y-112445573D01*
X118906543Y-112484763D01*
X118904376Y-112482170D01*
X118903542Y-112482920D01*
X118905644Y-112485099D01*
X118905559Y-112485181D01*
X118902728Y-112486662D01*
X118903363Y-112487422D01*
X118898962Y-112491100D01*
X118897526Y-112489382D01*
X118894707Y-112490856D01*
X118883131Y-112501255D01*
X118880975Y-112502383D01*
X118879190Y-112498971D01*
X118842646Y-112518082D01*
X118818078Y-112520500D01*
X116923671Y-112520500D01*
X116855550Y-112500498D01*
X116835375Y-112484388D01*
X116828659Y-112477791D01*
X116819508Y-112468802D01*
X116809550Y-112459937D01*
X116806671Y-112457374D01*
X116806670Y-112457373D01*
X116800889Y-112452227D01*
X116788169Y-112445573D01*
X116739467Y-112420098D01*
X116713072Y-112406291D01*
X116644951Y-112386289D01*
X116640492Y-112385648D01*
X116640488Y-112385647D01*
X116608180Y-112381002D01*
X116573391Y-112376000D01*
X115580000Y-112376000D01*
X115511879Y-112355998D01*
X115465386Y-112302342D01*
X115454000Y-112250000D01*
X115454000Y-108785000D01*
X116610500Y-108785000D01*
X116610500Y-109315000D01*
X116613949Y-109332337D01*
X116630253Y-109414306D01*
X116629058Y-109414544D01*
X116635275Y-109472373D01*
X116632234Y-109482729D01*
X116630253Y-109485694D01*
X116610500Y-109585000D01*
X116610500Y-110115000D01*
X116611707Y-110121068D01*
X116630253Y-110214306D01*
X116629058Y-110214544D01*
X116635275Y-110272373D01*
X116632234Y-110282729D01*
X116630253Y-110285694D01*
X116610500Y-110385000D01*
X116610500Y-110915000D01*
X116611707Y-110921068D01*
X116630253Y-111014306D01*
X116629058Y-111014544D01*
X116635275Y-111072373D01*
X116632234Y-111082729D01*
X116630253Y-111085694D01*
X116610500Y-111185000D01*
X116610500Y-111715000D01*
X116630253Y-111814306D01*
X116686506Y-111898494D01*
X116770694Y-111954747D01*
X116870000Y-111974500D01*
X118870000Y-111974500D01*
X118969306Y-111954747D01*
X119053494Y-111898494D01*
X119109747Y-111814306D01*
X119129500Y-111715000D01*
X119129500Y-111185000D01*
X119109747Y-111085694D01*
X119110942Y-111085456D01*
X119104725Y-111027627D01*
X119107766Y-111017271D01*
X119109747Y-111014306D01*
X119129500Y-110915000D01*
X119129500Y-110385000D01*
X119109747Y-110285694D01*
X119110942Y-110285456D01*
X119104725Y-110227627D01*
X119107766Y-110217271D01*
X119109747Y-110214306D01*
X119129500Y-110115000D01*
X119129500Y-109585000D01*
X119109747Y-109485694D01*
X119110942Y-109485456D01*
X119104725Y-109427627D01*
X119107766Y-109417271D01*
X119109747Y-109414306D01*
X119129500Y-109315000D01*
X119129500Y-108785000D01*
X119109747Y-108685694D01*
X119053494Y-108601506D01*
X118969306Y-108545253D01*
X118870000Y-108525500D01*
X116870000Y-108525500D01*
X116770694Y-108545253D01*
X116686506Y-108601506D01*
X116630253Y-108685694D01*
X116610500Y-108785000D01*
X115454000Y-108785000D01*
X115454000Y-106385000D01*
X116610500Y-106385000D01*
X116610500Y-106915000D01*
X116611707Y-106921068D01*
X116630253Y-107014306D01*
X116629058Y-107014544D01*
X116635275Y-107072373D01*
X116632234Y-107082729D01*
X116630253Y-107085694D01*
X116610500Y-107185000D01*
X116610500Y-107715000D01*
X116630253Y-107814306D01*
X116686506Y-107898494D01*
X116770694Y-107954747D01*
X116870000Y-107974500D01*
X118870000Y-107974500D01*
X118969306Y-107954747D01*
X119053494Y-107898494D01*
X119109747Y-107814306D01*
X119129500Y-107715000D01*
X119129500Y-107185000D01*
X119109747Y-107085694D01*
X119110942Y-107085456D01*
X119104725Y-107027627D01*
X119107766Y-107017271D01*
X119109747Y-107014306D01*
X119129500Y-106915000D01*
X119129500Y-106385000D01*
X119109747Y-106285694D01*
X119053494Y-106201506D01*
X118969306Y-106145253D01*
X118870000Y-106125500D01*
X116870000Y-106125500D01*
X116770694Y-106145253D01*
X116686506Y-106201506D01*
X116630253Y-106285694D01*
X116610500Y-106385000D01*
X115454000Y-106385000D01*
X115454000Y-103185000D01*
X116610500Y-103185000D01*
X116610500Y-103715000D01*
X116611707Y-103721068D01*
X116630253Y-103814306D01*
X116629058Y-103814544D01*
X116635275Y-103872373D01*
X116632234Y-103882729D01*
X116630253Y-103885694D01*
X116610500Y-103985000D01*
X116610500Y-104515000D01*
X116611707Y-104521068D01*
X116630253Y-104614306D01*
X116629058Y-104614544D01*
X116635275Y-104672373D01*
X116632234Y-104682729D01*
X116630253Y-104685694D01*
X116610500Y-104785000D01*
X116610500Y-105315000D01*
X116630253Y-105414306D01*
X116686506Y-105498494D01*
X116770694Y-105554747D01*
X116870000Y-105574500D01*
X118870000Y-105574500D01*
X118969306Y-105554747D01*
X119053494Y-105498494D01*
X119109747Y-105414306D01*
X119129500Y-105315000D01*
X119129500Y-104785000D01*
X119109747Y-104685694D01*
X119110942Y-104685456D01*
X119104725Y-104627627D01*
X119107766Y-104617271D01*
X119109747Y-104614306D01*
X119129500Y-104515000D01*
X119129500Y-103985000D01*
X119109747Y-103885694D01*
X119110942Y-103885456D01*
X119104725Y-103827627D01*
X119107766Y-103817271D01*
X119109747Y-103814306D01*
X119129500Y-103715000D01*
X119129500Y-103185000D01*
X119109747Y-103085694D01*
X119053494Y-103001506D01*
X118969306Y-102945253D01*
X118870000Y-102925500D01*
X116870000Y-102925500D01*
X116770694Y-102945253D01*
X116686506Y-103001506D01*
X116630253Y-103085694D01*
X116610500Y-103185000D01*
X115454000Y-103185000D01*
X115454000Y-102650000D01*
X115474002Y-102581879D01*
X115527658Y-102535386D01*
X115580000Y-102524000D01*
X116573391Y-102524000D01*
X116601857Y-102521068D01*
X116621957Y-102518998D01*
X116621964Y-102518997D01*
X116625167Y-102518667D01*
X116628321Y-102518010D01*
X116628323Y-102518010D01*
X116673979Y-102508504D01*
X116673989Y-102508502D01*
X116675457Y-102508196D01*
X116687298Y-102505117D01*
X116692089Y-102503872D01*
X116692090Y-102503872D01*
X116699581Y-102501924D01*
X116786564Y-102454427D01*
X116833457Y-102415237D01*
X116835624Y-102417830D01*
X116836458Y-102417080D01*
X116834356Y-102414901D01*
X116834441Y-102414819D01*
X116837272Y-102413338D01*
X116836637Y-102412578D01*
X116841038Y-102408900D01*
X116842474Y-102410618D01*
X116845293Y-102409144D01*
X116856869Y-102398745D01*
X116859025Y-102397617D01*
X116860810Y-102401029D01*
X116897354Y-102381918D01*
X116921922Y-102379500D01*
X118824472Y-102379500D01*
X118894472Y-102400734D01*
X118902056Y-102405801D01*
X118912373Y-102412695D01*
X118913008Y-102411745D01*
X118926649Y-102418574D01*
X118949780Y-102435254D01*
X119010547Y-102463007D01*
X119013195Y-102463941D01*
X119013202Y-102463944D01*
X119037816Y-102472627D01*
X119053253Y-102478073D01*
X119152216Y-102483378D01*
X119158350Y-102482496D01*
X119158352Y-102482496D01*
X119219697Y-102473676D01*
X119219706Y-102473674D01*
X119222490Y-102473274D01*
X119266555Y-102462861D01*
X119321393Y-102431634D01*
X119347298Y-102416883D01*
X119347302Y-102416880D01*
X119352676Y-102413820D01*
X119406332Y-102367327D01*
X119437773Y-102334743D01*
X119483709Y-102246926D01*
X119503711Y-102178805D01*
X119514000Y-102107245D01*
X119514000Y-101592755D01*
X119513838Y-101583690D01*
X119513517Y-101574701D01*
X119512894Y-101571567D01*
X119524783Y-101502111D01*
X119572694Y-101449718D01*
X119637956Y-101431500D01*
X119767155Y-101431500D01*
X119787828Y-101433700D01*
X119791613Y-101433878D01*
X119801793Y-101436070D01*
X119833032Y-101432373D01*
X119839663Y-101431982D01*
X119839659Y-101431928D01*
X119844835Y-101431500D01*
X119850040Y-101431500D01*
X119870792Y-101428046D01*
X119876670Y-101427209D01*
X119917490Y-101422378D01*
X119917491Y-101422378D01*
X119927830Y-101421154D01*
X119936123Y-101417172D01*
X119945194Y-101415662D01*
X119954355Y-101410719D01*
X119954358Y-101410718D01*
X119990526Y-101391202D01*
X119995779Y-101388525D01*
X120042239Y-101366215D01*
X120048938Y-101360585D01*
X120050874Y-101358649D01*
X120050896Y-101358629D01*
X120056889Y-101355395D01*
X120088981Y-101320678D01*
X120092410Y-101317113D01*
X125422393Y-95987130D01*
X125438566Y-95974068D01*
X125441371Y-95971515D01*
X125450119Y-95965867D01*
X125456564Y-95957692D01*
X125456566Y-95957690D01*
X125469596Y-95941161D01*
X125474010Y-95936194D01*
X125473969Y-95936159D01*
X125477328Y-95932195D01*
X125481003Y-95928520D01*
X125493242Y-95911394D01*
X125496805Y-95906648D01*
X125522246Y-95874377D01*
X125522248Y-95874374D01*
X125528693Y-95866198D01*
X125531741Y-95857518D01*
X125537088Y-95850036D01*
X125544688Y-95824625D01*
X125551845Y-95800692D01*
X125553680Y-95795044D01*
X125568119Y-95753930D01*
X125568120Y-95753926D01*
X125570745Y-95746451D01*
X125571500Y-95737733D01*
X125571500Y-95734992D01*
X125571501Y-95734967D01*
X125573453Y-95728441D01*
X125571597Y-95681205D01*
X125571500Y-95676259D01*
X125571500Y-82501500D01*
X125591502Y-82433379D01*
X125645158Y-82386886D01*
X125697500Y-82375500D01*
X126210000Y-82375500D01*
X126223585Y-82372798D01*
X126235102Y-82365102D01*
X126242798Y-82353585D01*
X126245500Y-82340000D01*
X126245500Y-82334824D01*
X126271950Y-82269318D01*
X126329904Y-82228308D01*
X126370761Y-82221500D01*
X126739239Y-82221500D01*
X126807360Y-82241502D01*
X126853853Y-82295158D01*
X126864500Y-82334661D01*
X126864500Y-82340000D01*
X126867202Y-82353585D01*
X126874898Y-82365102D01*
X126886415Y-82372798D01*
X126900000Y-82375500D01*
X127500000Y-82375500D01*
X127513585Y-82372798D01*
X127525102Y-82365102D01*
X127532798Y-82353585D01*
X127535500Y-82340000D01*
X127535500Y-82050623D01*
X127546259Y-81999676D01*
X127570146Y-81945644D01*
X127574357Y-81936119D01*
X127585309Y-81809676D01*
X127554712Y-81686502D01*
X127549063Y-81677754D01*
X127545863Y-81670358D01*
X127535500Y-81620317D01*
X127535500Y-81340000D01*
X127532798Y-81326415D01*
X127525102Y-81314898D01*
X127513585Y-81307202D01*
X127500000Y-81304500D01*
X126900000Y-81304500D01*
X126886415Y-81307202D01*
X126874898Y-81314898D01*
X126867202Y-81326415D01*
X126864500Y-81340000D01*
X126864500Y-81345176D01*
X126838050Y-81410682D01*
X126780096Y-81451692D01*
X126739239Y-81458500D01*
X126370761Y-81458500D01*
X126302640Y-81438498D01*
X126256147Y-81384842D01*
X126245500Y-81345339D01*
X126245500Y-81340000D01*
X126242798Y-81326415D01*
X126235102Y-81314898D01*
X126223585Y-81307202D01*
X126210000Y-81304500D01*
X125697500Y-81304500D01*
X125629379Y-81284498D01*
X125582886Y-81230842D01*
X125571500Y-81178500D01*
X125571500Y-79630213D01*
X125591502Y-79562092D01*
X125608405Y-79541118D01*
X128262389Y-76887133D01*
X128278575Y-76874060D01*
X128281373Y-76871515D01*
X128290119Y-76865867D01*
X128296564Y-76857692D01*
X128296566Y-76857690D01*
X128309600Y-76841156D01*
X128314011Y-76836193D01*
X128313969Y-76836157D01*
X128317323Y-76832199D01*
X128321003Y-76828519D01*
X128324025Y-76824291D01*
X128324032Y-76824282D01*
X128333250Y-76811383D01*
X128336812Y-76806639D01*
X128362245Y-76774377D01*
X128368693Y-76766198D01*
X128371741Y-76757518D01*
X128377088Y-76750036D01*
X128391845Y-76700692D01*
X128393680Y-76695044D01*
X128408119Y-76653930D01*
X128408120Y-76653926D01*
X128410745Y-76646451D01*
X128411500Y-76637733D01*
X128411500Y-76634992D01*
X128411501Y-76634967D01*
X128413453Y-76628441D01*
X128411597Y-76581205D01*
X128411500Y-76576259D01*
X128411500Y-75426855D01*
X128431502Y-75358734D01*
X128485158Y-75312241D01*
X128555432Y-75302137D01*
X128610937Y-75324469D01*
X128740180Y-75417169D01*
X128740182Y-75417170D01*
X128745058Y-75420667D01*
X128750503Y-75423177D01*
X128925793Y-75503987D01*
X128938799Y-75509983D01*
X128944615Y-75511417D01*
X128944618Y-75511418D01*
X129062920Y-75540585D01*
X129145934Y-75561052D01*
X129151924Y-75561361D01*
X129151926Y-75561361D01*
X129218317Y-75564782D01*
X129358989Y-75572031D01*
X129364924Y-75571202D01*
X129364928Y-75571202D01*
X129542155Y-75546452D01*
X129570276Y-75542525D01*
X129575952Y-75540587D01*
X129575961Y-75540585D01*
X129714208Y-75493387D01*
X129785137Y-75490307D01*
X129844012Y-75523534D01*
X131571595Y-77251117D01*
X131605621Y-77313429D01*
X131608500Y-77340212D01*
X131608500Y-100007719D01*
X131588498Y-100075840D01*
X131571595Y-100096814D01*
X123157607Y-108510802D01*
X123141434Y-108523864D01*
X123138629Y-108526417D01*
X123129881Y-108532065D01*
X123123436Y-108540240D01*
X123123434Y-108540242D01*
X123110404Y-108556771D01*
X123105991Y-108561737D01*
X123106032Y-108561772D01*
X123102674Y-108565735D01*
X123098997Y-108569412D01*
X123086742Y-108586562D01*
X123083203Y-108591275D01*
X123051307Y-108631734D01*
X123048260Y-108640412D01*
X123042912Y-108647895D01*
X123039928Y-108657873D01*
X123039926Y-108657877D01*
X123028155Y-108697238D01*
X123026320Y-108702886D01*
X123009255Y-108751481D01*
X123008500Y-108760199D01*
X123008500Y-108762940D01*
X123008499Y-108762964D01*
X123006547Y-108769491D01*
X123008403Y-108816726D01*
X123008500Y-108821673D01*
X123008500Y-110080682D01*
X122988498Y-110148803D01*
X122934842Y-110195296D01*
X122904309Y-110202949D01*
X122904613Y-110204544D01*
X122896826Y-110206029D01*
X122888916Y-110206527D01*
X122881380Y-110208976D01*
X122881378Y-110208976D01*
X122739235Y-110255161D01*
X122739232Y-110255162D01*
X122731693Y-110257612D01*
X122592113Y-110346192D01*
X122478947Y-110466701D01*
X122399306Y-110611567D01*
X122358194Y-110771688D01*
X122358194Y-110937002D01*
X122399306Y-111097123D01*
X122478947Y-111241989D01*
X122484371Y-111247765D01*
X122577309Y-111346733D01*
X122592113Y-111362498D01*
X122731693Y-111451078D01*
X122739232Y-111453528D01*
X122739235Y-111453529D01*
X122881378Y-111499714D01*
X122881380Y-111499714D01*
X122888916Y-111502163D01*
X122896825Y-111502661D01*
X122896827Y-111502661D01*
X122971243Y-111507343D01*
X123053904Y-111512544D01*
X123061688Y-111511059D01*
X123061690Y-111511059D01*
X123208507Y-111483052D01*
X123208508Y-111483052D01*
X123216291Y-111481567D01*
X123365872Y-111411179D01*
X123371977Y-111406129D01*
X123371981Y-111406126D01*
X123487141Y-111310857D01*
X123493249Y-111305804D01*
X123517694Y-111272158D01*
X123573916Y-111228804D01*
X123644652Y-111222728D01*
X123699942Y-111249132D01*
X123702100Y-111250917D01*
X123707522Y-111256691D01*
X123847102Y-111345271D01*
X123854641Y-111347721D01*
X123854644Y-111347722D01*
X123996787Y-111393907D01*
X123996789Y-111393907D01*
X124004325Y-111396356D01*
X124012234Y-111396854D01*
X124012236Y-111396854D01*
X124107612Y-111402855D01*
X124174343Y-111427095D01*
X124217374Y-111483564D01*
X124225700Y-111528606D01*
X124225700Y-111672657D01*
X124266812Y-111832778D01*
X124346453Y-111977644D01*
X124351877Y-111983420D01*
X124406380Y-112041459D01*
X124459619Y-112098153D01*
X124599199Y-112186733D01*
X124606738Y-112189183D01*
X124606741Y-112189184D01*
X124748884Y-112235369D01*
X124748886Y-112235369D01*
X124756422Y-112237818D01*
X124764331Y-112238316D01*
X124764333Y-112238316D01*
X124836651Y-112242866D01*
X124921410Y-112248199D01*
X124929194Y-112246714D01*
X124929196Y-112246714D01*
X125076013Y-112218707D01*
X125076014Y-112218707D01*
X125083797Y-112217222D01*
X125233378Y-112146834D01*
X125239483Y-112141784D01*
X125239487Y-112141781D01*
X125354647Y-112046512D01*
X125360755Y-112041459D01*
X125407119Y-111977644D01*
X125453265Y-111914130D01*
X125453266Y-111914128D01*
X125457924Y-111907717D01*
X125465609Y-111888309D01*
X125515864Y-111761379D01*
X125515864Y-111761377D01*
X125518781Y-111754011D01*
X125539500Y-111590000D01*
X125533179Y-111539966D01*
X125544486Y-111469879D01*
X125591892Y-111417028D01*
X125666098Y-111398427D01*
X125730676Y-111402490D01*
X125821410Y-111408199D01*
X125829194Y-111406714D01*
X125829196Y-111406714D01*
X125976013Y-111378707D01*
X125976014Y-111378707D01*
X125983797Y-111377222D01*
X126133378Y-111306834D01*
X126139483Y-111301784D01*
X126139487Y-111301781D01*
X126254647Y-111206512D01*
X126260755Y-111201459D01*
X126336348Y-111097414D01*
X126353265Y-111074130D01*
X126353266Y-111074128D01*
X126357924Y-111067717D01*
X126383712Y-111002586D01*
X126415864Y-110921379D01*
X126415864Y-110921377D01*
X126418781Y-110914011D01*
X126439500Y-110750000D01*
X126432857Y-110697414D01*
X126419775Y-110593854D01*
X126419774Y-110593851D01*
X126418781Y-110585989D01*
X126393077Y-110521068D01*
X126360842Y-110439652D01*
X126360841Y-110439650D01*
X126357924Y-110432283D01*
X126319163Y-110378932D01*
X126265415Y-110304955D01*
X126260755Y-110298541D01*
X126133378Y-110193166D01*
X126063851Y-110160449D01*
X126010730Y-110113346D01*
X125991500Y-110046441D01*
X125991500Y-109430213D01*
X126011502Y-109362092D01*
X126028405Y-109341118D01*
X133972393Y-101397130D01*
X133988566Y-101384068D01*
X133991371Y-101381515D01*
X134000119Y-101375867D01*
X134006564Y-101367692D01*
X134006566Y-101367690D01*
X134019596Y-101351161D01*
X134024011Y-101346193D01*
X134023969Y-101346158D01*
X134027322Y-101342201D01*
X134031003Y-101338520D01*
X134043244Y-101321391D01*
X134046807Y-101316645D01*
X134072245Y-101284378D01*
X134072246Y-101284375D01*
X134078693Y-101276198D01*
X134081741Y-101267518D01*
X134087087Y-101260037D01*
X134090071Y-101250061D01*
X134090072Y-101250058D01*
X134101841Y-101210704D01*
X134103676Y-101205058D01*
X134118118Y-101163933D01*
X134118119Y-101163930D01*
X134120745Y-101156451D01*
X134121500Y-101147733D01*
X134121500Y-101144992D01*
X134121501Y-101144968D01*
X134123453Y-101138441D01*
X134121597Y-101091205D01*
X134121500Y-101086259D01*
X134121500Y-89258785D01*
X160264299Y-89258785D01*
X160265056Y-89263789D01*
X160265056Y-89263792D01*
X160279717Y-89360730D01*
X160301704Y-89506113D01*
X160303253Y-89510937D01*
X160303254Y-89510942D01*
X160306501Y-89521054D01*
X160378170Y-89744279D01*
X160380468Y-89748789D01*
X160380470Y-89748794D01*
X160413972Y-89814544D01*
X160491732Y-89967156D01*
X160639466Y-90169009D01*
X160817573Y-90344646D01*
X160821698Y-90347578D01*
X160821701Y-90347580D01*
X160896161Y-90400496D01*
X161021469Y-90489548D01*
X161245910Y-90599986D01*
X161250749Y-90601465D01*
X161250753Y-90601467D01*
X161480272Y-90671638D01*
X161480274Y-90671638D01*
X161485120Y-90673120D01*
X161490141Y-90673808D01*
X161490142Y-90673808D01*
X161727923Y-90706380D01*
X161732946Y-90707068D01*
X161805588Y-90705293D01*
X161977951Y-90701081D01*
X161977955Y-90701081D01*
X161983012Y-90700957D01*
X162228884Y-90654943D01*
X162464236Y-90570211D01*
X162683014Y-90448941D01*
X162686992Y-90445811D01*
X162686996Y-90445808D01*
X162875613Y-90297381D01*
X162875614Y-90297380D01*
X162879589Y-90294252D01*
X163048903Y-90110124D01*
X163186600Y-89901295D01*
X163188676Y-89896676D01*
X163287065Y-89677753D01*
X163287067Y-89677747D01*
X163289139Y-89673137D01*
X163290447Y-89668256D01*
X163290449Y-89668250D01*
X163352572Y-89436402D01*
X163352572Y-89436401D01*
X163353880Y-89431520D01*
X163379158Y-89182660D01*
X163379500Y-89150000D01*
X163378221Y-89134102D01*
X163359845Y-88905706D01*
X163359844Y-88905701D01*
X163359439Y-88900665D01*
X163334296Y-88798299D01*
X163300979Y-88662659D01*
X163299772Y-88657745D01*
X163296485Y-88650000D01*
X163204011Y-88432147D01*
X163204010Y-88432145D01*
X163202034Y-88427490D01*
X163068741Y-88215823D01*
X163022773Y-88163682D01*
X162906664Y-88031983D01*
X162903320Y-88028190D01*
X162710028Y-87869418D01*
X162576817Y-87791887D01*
X162498206Y-87746134D01*
X162498204Y-87746133D01*
X162493838Y-87743592D01*
X162410225Y-87711496D01*
X162265036Y-87655763D01*
X162265032Y-87655762D01*
X162260312Y-87653950D01*
X162255362Y-87652916D01*
X162255359Y-87652915D01*
X162020408Y-87603831D01*
X162020404Y-87603831D01*
X162015457Y-87602797D01*
X161765574Y-87591450D01*
X161760554Y-87592031D01*
X161760550Y-87592031D01*
X161522122Y-87619618D01*
X161517092Y-87620200D01*
X161512221Y-87621578D01*
X161512218Y-87621579D01*
X161401674Y-87652860D01*
X161276402Y-87688309D01*
X161049698Y-87794023D01*
X161045518Y-87796864D01*
X161045514Y-87796866D01*
X160935494Y-87871635D01*
X160842811Y-87934622D01*
X160839134Y-87938099D01*
X160839128Y-87938104D01*
X160743866Y-88028190D01*
X160661066Y-88106491D01*
X160509136Y-88305206D01*
X160390932Y-88525656D01*
X160309495Y-88762168D01*
X160308634Y-88767151D01*
X160308633Y-88767156D01*
X160279621Y-88935118D01*
X160266918Y-89008658D01*
X160266865Y-89013717D01*
X160266111Y-89085694D01*
X160264299Y-89258785D01*
X134121500Y-89258785D01*
X134121500Y-75688330D01*
X134141502Y-75620209D01*
X134195158Y-75573716D01*
X134253983Y-75562497D01*
X134438989Y-75572031D01*
X134444924Y-75571202D01*
X134444928Y-75571202D01*
X134622155Y-75546452D01*
X134650276Y-75542525D01*
X134852172Y-75473597D01*
X134944780Y-75420667D01*
X135032187Y-75370710D01*
X135032192Y-75370707D01*
X135037391Y-75367735D01*
X135199251Y-75228760D01*
X135331911Y-75061684D01*
X135430584Y-74872537D01*
X135491711Y-74668145D01*
X135492892Y-74656424D01*
X135512777Y-74458944D01*
X135512777Y-74458935D01*
X135513085Y-74455881D01*
X135513100Y-74450000D01*
X135492838Y-74237627D01*
X135432782Y-74032917D01*
X135430032Y-74027577D01*
X135337847Y-73848587D01*
X135337845Y-73848584D01*
X135335101Y-73843256D01*
X135203317Y-73675488D01*
X135042187Y-73535667D01*
X134857525Y-73428837D01*
X134747331Y-73390571D01*
X134661667Y-73360823D01*
X134661664Y-73360822D01*
X134655993Y-73358853D01*
X134512888Y-73338104D01*
X134450803Y-73329102D01*
X134450800Y-73329102D01*
X134444863Y-73328241D01*
X134231754Y-73338104D01*
X134225930Y-73339508D01*
X134225927Y-73339508D01*
X134030187Y-73386682D01*
X134030185Y-73386683D01*
X134024354Y-73388088D01*
X134018896Y-73390570D01*
X134018892Y-73390571D01*
X133939066Y-73426866D01*
X133830148Y-73476388D01*
X133825259Y-73479856D01*
X133825254Y-73479859D01*
X133726289Y-73550060D01*
X133659155Y-73573159D01*
X133590190Y-73556295D01*
X133541291Y-73504824D01*
X133527389Y-73447291D01*
X133527389Y-73364324D01*
X133547391Y-73296203D01*
X133564294Y-73275229D01*
X133854541Y-72984982D01*
X133916853Y-72950956D01*
X133987668Y-72956021D01*
X133996387Y-72959651D01*
X134018799Y-72969983D01*
X134024615Y-72971417D01*
X134024618Y-72971418D01*
X134142920Y-73000585D01*
X134225934Y-73021052D01*
X134231924Y-73021361D01*
X134231926Y-73021361D01*
X134306712Y-73025215D01*
X134438989Y-73032031D01*
X134444924Y-73031202D01*
X134444928Y-73031202D01*
X134616097Y-73007298D01*
X134650276Y-73002525D01*
X134852172Y-72933597D01*
X134940388Y-72883177D01*
X135032187Y-72830710D01*
X135032192Y-72830707D01*
X135037391Y-72827735D01*
X135199251Y-72688760D01*
X135331911Y-72521684D01*
X135403286Y-72384866D01*
X135427813Y-72337849D01*
X135427813Y-72337848D01*
X135430584Y-72332537D01*
X135491711Y-72128145D01*
X135502639Y-72019628D01*
X135503232Y-72013741D01*
X135811702Y-72013741D01*
X135851494Y-72223335D01*
X135930202Y-72421622D01*
X136044985Y-72601449D01*
X136191702Y-72756327D01*
X136196567Y-72759817D01*
X136196570Y-72759819D01*
X136319499Y-72847990D01*
X136365058Y-72880667D01*
X136448109Y-72918954D01*
X136536572Y-72959736D01*
X136558799Y-72969983D01*
X136564615Y-72971417D01*
X136564618Y-72971418D01*
X136682920Y-73000585D01*
X136765934Y-73021052D01*
X136771924Y-73021361D01*
X136771926Y-73021361D01*
X136846712Y-73025215D01*
X136978989Y-73032031D01*
X136984924Y-73031202D01*
X136984928Y-73031202D01*
X137156097Y-73007298D01*
X137190276Y-73002525D01*
X137392172Y-72933597D01*
X137480388Y-72883177D01*
X137572187Y-72830710D01*
X137572192Y-72830707D01*
X137577391Y-72827735D01*
X137739251Y-72688760D01*
X137871911Y-72521684D01*
X137943286Y-72384866D01*
X137967813Y-72337849D01*
X137967813Y-72337848D01*
X137970584Y-72332537D01*
X138031711Y-72128145D01*
X138042639Y-72019628D01*
X138052777Y-71918944D01*
X138052777Y-71918935D01*
X138053085Y-71915881D01*
X138053100Y-71910000D01*
X138032838Y-71697627D01*
X137972782Y-71492917D01*
X137970032Y-71487577D01*
X137877847Y-71308587D01*
X137877845Y-71308584D01*
X137875101Y-71303256D01*
X137743317Y-71135488D01*
X137582187Y-70995667D01*
X137397525Y-70888837D01*
X137276132Y-70846682D01*
X137201667Y-70820823D01*
X137201664Y-70820822D01*
X137195993Y-70818853D01*
X137052888Y-70798104D01*
X136990803Y-70789102D01*
X136990800Y-70789102D01*
X136984863Y-70788241D01*
X136771754Y-70798104D01*
X136765930Y-70799508D01*
X136765927Y-70799508D01*
X136570187Y-70846682D01*
X136570185Y-70846683D01*
X136564354Y-70848088D01*
X136558896Y-70850570D01*
X136558892Y-70850571D01*
X136479066Y-70886866D01*
X136370148Y-70936388D01*
X136196143Y-71059819D01*
X136192001Y-71064146D01*
X136052766Y-71209592D01*
X136052762Y-71209597D01*
X136048618Y-71213926D01*
X136045364Y-71218965D01*
X136045362Y-71218968D01*
X135987496Y-71308587D01*
X135932895Y-71393150D01*
X135930651Y-71398719D01*
X135861570Y-71570130D01*
X135853150Y-71591022D01*
X135852002Y-71596903D01*
X135852000Y-71596908D01*
X135839696Y-71659914D01*
X135812260Y-71800405D01*
X135812244Y-71806390D01*
X135812244Y-71806394D01*
X135812195Y-71825304D01*
X135811702Y-72013741D01*
X135503232Y-72013741D01*
X135512777Y-71918944D01*
X135512777Y-71918935D01*
X135513085Y-71915881D01*
X135513100Y-71910000D01*
X135492838Y-71697627D01*
X135432782Y-71492917D01*
X135430032Y-71487577D01*
X135337847Y-71308587D01*
X135337845Y-71308584D01*
X135335101Y-71303256D01*
X135203317Y-71135488D01*
X135042187Y-70995667D01*
X134857525Y-70888837D01*
X134736132Y-70846682D01*
X134661667Y-70820823D01*
X134661664Y-70820822D01*
X134655993Y-70818853D01*
X134512888Y-70798104D01*
X134450803Y-70789102D01*
X134450800Y-70789102D01*
X134444863Y-70788241D01*
X134231754Y-70798104D01*
X134225930Y-70799508D01*
X134225927Y-70799508D01*
X134030187Y-70846682D01*
X134030185Y-70846683D01*
X134024354Y-70848088D01*
X134018896Y-70850570D01*
X134018892Y-70850571D01*
X133939066Y-70886866D01*
X133830148Y-70936388D01*
X133656143Y-71059819D01*
X133652001Y-71064146D01*
X133512766Y-71209592D01*
X133512762Y-71209597D01*
X133508618Y-71213926D01*
X133505364Y-71218965D01*
X133505362Y-71218968D01*
X133447496Y-71308587D01*
X133392895Y-71393150D01*
X133390651Y-71398719D01*
X133321570Y-71570130D01*
X133313150Y-71591022D01*
X133312002Y-71596903D01*
X133312000Y-71596908D01*
X133299696Y-71659914D01*
X133272260Y-71800405D01*
X133272244Y-71806390D01*
X133272244Y-71806394D01*
X133272195Y-71825304D01*
X133271702Y-72013741D01*
X133311494Y-72223335D01*
X133313706Y-72228907D01*
X133345047Y-72307865D01*
X133351588Y-72378560D01*
X133317031Y-72443446D01*
X132913496Y-72846981D01*
X132897323Y-72860043D01*
X132894518Y-72862596D01*
X132885770Y-72868244D01*
X132879325Y-72876419D01*
X132879323Y-72876421D01*
X132866293Y-72892950D01*
X132861880Y-72897916D01*
X132861921Y-72897951D01*
X132858563Y-72901914D01*
X132854886Y-72905591D01*
X132842631Y-72922741D01*
X132839092Y-72927454D01*
X132807196Y-72967913D01*
X132804149Y-72976591D01*
X132798801Y-72984074D01*
X132795817Y-72994052D01*
X132795815Y-72994056D01*
X132784044Y-73033417D01*
X132782209Y-73039065D01*
X132772634Y-73066332D01*
X132765144Y-73087660D01*
X132764389Y-73096378D01*
X132764389Y-73099119D01*
X132764388Y-73099143D01*
X132762436Y-73105670D01*
X132762845Y-73116076D01*
X132764292Y-73152905D01*
X132764389Y-73157852D01*
X132764389Y-73487032D01*
X132744387Y-73555153D01*
X132690731Y-73601646D01*
X132620457Y-73611750D01*
X132555808Y-73582197D01*
X132531957Y-73561500D01*
X132502187Y-73535667D01*
X132317525Y-73428837D01*
X132207331Y-73390571D01*
X132121667Y-73360823D01*
X132121664Y-73360822D01*
X132115993Y-73358853D01*
X131972888Y-73338104D01*
X131910803Y-73329102D01*
X131910800Y-73329102D01*
X131904863Y-73328241D01*
X131691754Y-73338104D01*
X131685930Y-73339508D01*
X131685927Y-73339508D01*
X131490187Y-73386682D01*
X131490185Y-73386683D01*
X131484354Y-73388088D01*
X131478896Y-73390570D01*
X131478892Y-73390571D01*
X131399066Y-73426866D01*
X131290148Y-73476388D01*
X131187047Y-73549523D01*
X131143615Y-73580332D01*
X131116143Y-73599819D01*
X131112001Y-73604146D01*
X130972766Y-73749592D01*
X130972762Y-73749597D01*
X130968618Y-73753926D01*
X130965364Y-73758965D01*
X130965362Y-73758968D01*
X130907496Y-73848587D01*
X130852895Y-73933150D01*
X130773150Y-74131022D01*
X130772002Y-74136903D01*
X130772000Y-74136908D01*
X130753456Y-74231866D01*
X130732260Y-74340405D01*
X130732244Y-74346390D01*
X130732244Y-74346394D01*
X130731981Y-74446926D01*
X130731702Y-74553741D01*
X130771494Y-74763335D01*
X130850202Y-74961622D01*
X130964985Y-75141449D01*
X131111702Y-75296327D01*
X131116567Y-75299817D01*
X131116570Y-75299819D01*
X131280181Y-75417169D01*
X131285058Y-75420667D01*
X131290503Y-75423177D01*
X131465793Y-75503987D01*
X131478799Y-75509983D01*
X131484615Y-75511417D01*
X131484618Y-75511418D01*
X131602920Y-75540585D01*
X131685934Y-75561052D01*
X131691924Y-75561361D01*
X131691926Y-75561361D01*
X131758317Y-75564782D01*
X131898989Y-75572031D01*
X131904924Y-75571202D01*
X131904928Y-75571202D01*
X132055073Y-75550234D01*
X132125306Y-75560622D01*
X132178773Y-75607332D01*
X132198500Y-75675023D01*
X132198500Y-76494788D01*
X132178498Y-76562909D01*
X132124842Y-76609402D01*
X132054568Y-76619506D01*
X131989988Y-76590012D01*
X131983405Y-76583883D01*
X130385671Y-74986148D01*
X130351645Y-74923836D01*
X130354049Y-74860950D01*
X130409994Y-74673888D01*
X130409995Y-74673883D01*
X130411711Y-74668145D01*
X130412892Y-74656424D01*
X130432777Y-74458944D01*
X130432777Y-74458935D01*
X130433085Y-74455881D01*
X130433100Y-74450000D01*
X130412838Y-74237627D01*
X130352782Y-74032917D01*
X130350032Y-74027577D01*
X130257847Y-73848587D01*
X130257845Y-73848584D01*
X130255101Y-73843256D01*
X130193890Y-73765331D01*
X130167541Y-73699408D01*
X130181016Y-73629702D01*
X130230037Y-73578346D01*
X130292977Y-73561500D01*
X130527155Y-73561500D01*
X130547828Y-73563700D01*
X130551613Y-73563878D01*
X130561793Y-73566070D01*
X130593032Y-73562373D01*
X130599663Y-73561982D01*
X130599659Y-73561928D01*
X130604835Y-73561500D01*
X130610040Y-73561500D01*
X130630792Y-73558046D01*
X130636670Y-73557209D01*
X130677490Y-73552378D01*
X130677491Y-73552378D01*
X130687830Y-73551154D01*
X130696123Y-73547172D01*
X130705194Y-73545662D01*
X130714355Y-73540719D01*
X130714358Y-73540718D01*
X130750526Y-73521202D01*
X130755779Y-73518525D01*
X130802239Y-73496215D01*
X130808938Y-73490585D01*
X130810874Y-73488649D01*
X130810896Y-73488629D01*
X130816889Y-73485395D01*
X130827508Y-73473908D01*
X130848980Y-73450679D01*
X130852410Y-73447113D01*
X131314541Y-72984982D01*
X131376853Y-72950956D01*
X131447668Y-72956021D01*
X131456387Y-72959651D01*
X131478799Y-72969983D01*
X131484615Y-72971417D01*
X131484618Y-72971418D01*
X131602920Y-73000585D01*
X131685934Y-73021052D01*
X131691924Y-73021361D01*
X131691926Y-73021361D01*
X131766712Y-73025215D01*
X131898989Y-73032031D01*
X131904924Y-73031202D01*
X131904928Y-73031202D01*
X132076097Y-73007298D01*
X132110276Y-73002525D01*
X132312172Y-72933597D01*
X132400388Y-72883177D01*
X132492187Y-72830710D01*
X132492192Y-72830707D01*
X132497391Y-72827735D01*
X132659251Y-72688760D01*
X132791911Y-72521684D01*
X132863286Y-72384866D01*
X132887813Y-72337849D01*
X132887813Y-72337848D01*
X132890584Y-72332537D01*
X132951711Y-72128145D01*
X132962639Y-72019628D01*
X132972777Y-71918944D01*
X132972777Y-71918935D01*
X132973085Y-71915881D01*
X132973100Y-71910000D01*
X132952838Y-71697627D01*
X132892782Y-71492917D01*
X132890032Y-71487577D01*
X132797847Y-71308587D01*
X132797845Y-71308584D01*
X132795101Y-71303256D01*
X132663317Y-71135488D01*
X132502187Y-70995667D01*
X132317525Y-70888837D01*
X132196132Y-70846682D01*
X132121667Y-70820823D01*
X132121664Y-70820822D01*
X132115993Y-70818853D01*
X131972888Y-70798104D01*
X131910803Y-70789102D01*
X131910800Y-70789102D01*
X131904863Y-70788241D01*
X131691754Y-70798104D01*
X131685930Y-70799508D01*
X131685927Y-70799508D01*
X131490187Y-70846682D01*
X131490185Y-70846683D01*
X131484354Y-70848088D01*
X131478896Y-70850570D01*
X131478892Y-70850571D01*
X131399066Y-70886866D01*
X131290148Y-70936388D01*
X131116143Y-71059819D01*
X131112001Y-71064146D01*
X130972766Y-71209592D01*
X130972762Y-71209597D01*
X130968618Y-71213926D01*
X130965364Y-71218965D01*
X130965362Y-71218968D01*
X130907496Y-71308587D01*
X130852895Y-71393150D01*
X130850651Y-71398719D01*
X130781570Y-71570130D01*
X130773150Y-71591022D01*
X130772002Y-71596903D01*
X130772000Y-71596908D01*
X130759696Y-71659914D01*
X130732260Y-71800405D01*
X130732244Y-71806390D01*
X130732244Y-71806394D01*
X130732195Y-71825304D01*
X130731702Y-72013741D01*
X130771494Y-72223335D01*
X130773706Y-72228907D01*
X130805047Y-72307865D01*
X130811588Y-72378560D01*
X130777032Y-72443446D01*
X130614676Y-72605801D01*
X130458881Y-72761596D01*
X130396569Y-72795621D01*
X130369786Y-72798500D01*
X128870745Y-72798500D01*
X128850055Y-72796298D01*
X128846279Y-72796120D01*
X128836102Y-72793929D01*
X128807189Y-72797351D01*
X128804857Y-72797627D01*
X128798230Y-72798018D01*
X128798234Y-72798072D01*
X128793055Y-72798500D01*
X128787855Y-72798500D01*
X128782729Y-72799353D01*
X128782720Y-72799354D01*
X128767100Y-72801954D01*
X128761224Y-72802791D01*
X128720405Y-72807622D01*
X128720404Y-72807622D01*
X128710065Y-72808846D01*
X128701772Y-72812828D01*
X128692701Y-72814338D01*
X128683540Y-72819281D01*
X128683537Y-72819282D01*
X128647369Y-72838798D01*
X128642116Y-72841475D01*
X128595656Y-72863785D01*
X128588957Y-72869415D01*
X128587021Y-72871351D01*
X128586999Y-72871371D01*
X128581006Y-72874605D01*
X128573938Y-72882251D01*
X128548915Y-72909321D01*
X128545485Y-72912887D01*
X127797607Y-73660765D01*
X127781434Y-73673827D01*
X127778629Y-73676379D01*
X127769881Y-73682028D01*
X127764351Y-73689043D01*
X127701280Y-73719718D01*
X127630781Y-73711323D01*
X127589083Y-73682368D01*
X127587019Y-73680200D01*
X127583317Y-73675488D01*
X127422187Y-73535667D01*
X127237525Y-73428837D01*
X127127331Y-73390571D01*
X127041667Y-73360823D01*
X127041664Y-73360822D01*
X127035993Y-73358853D01*
X126892888Y-73338104D01*
X126830803Y-73329102D01*
X126830800Y-73329102D01*
X126824863Y-73328241D01*
X126611754Y-73338104D01*
X126605930Y-73339508D01*
X126605927Y-73339508D01*
X126410187Y-73386682D01*
X126410185Y-73386683D01*
X126404354Y-73388088D01*
X126398896Y-73390570D01*
X126398892Y-73390571D01*
X126319066Y-73426866D01*
X126210148Y-73476388D01*
X126107047Y-73549523D01*
X126063615Y-73580332D01*
X126036143Y-73599819D01*
X126032001Y-73604146D01*
X125892766Y-73749592D01*
X125892762Y-73749597D01*
X125888618Y-73753926D01*
X125885364Y-73758965D01*
X125885362Y-73758968D01*
X125827496Y-73848587D01*
X125772895Y-73933150D01*
X125693150Y-74131022D01*
X125692002Y-74136903D01*
X125692000Y-74136908D01*
X125673456Y-74231866D01*
X125652260Y-74340405D01*
X125652244Y-74346390D01*
X125652244Y-74346394D01*
X125651981Y-74446926D01*
X125651702Y-74553741D01*
X125691494Y-74763335D01*
X125770202Y-74961622D01*
X125884985Y-75141449D01*
X126031702Y-75296327D01*
X126036567Y-75299817D01*
X126036570Y-75299819D01*
X126200181Y-75417169D01*
X126205058Y-75420667D01*
X126210503Y-75423177D01*
X126385793Y-75503987D01*
X126398799Y-75509983D01*
X126404615Y-75511417D01*
X126404618Y-75511418D01*
X126522920Y-75540585D01*
X126605934Y-75561052D01*
X126611924Y-75561361D01*
X126611926Y-75561361D01*
X126678317Y-75564782D01*
X126818989Y-75572031D01*
X126824924Y-75571202D01*
X126824928Y-75571202D01*
X127002155Y-75546452D01*
X127030276Y-75542525D01*
X127232172Y-75473597D01*
X127324780Y-75420667D01*
X127412187Y-75370710D01*
X127412192Y-75370707D01*
X127417391Y-75367735D01*
X127421939Y-75363830D01*
X127421945Y-75363826D01*
X127440420Y-75347963D01*
X127505133Y-75318763D01*
X127575361Y-75329185D01*
X127628805Y-75375920D01*
X127648500Y-75443560D01*
X127648500Y-76369788D01*
X127628498Y-76437909D01*
X127611595Y-76458883D01*
X124957607Y-79112870D01*
X124941434Y-79125932D01*
X124938629Y-79128485D01*
X124929881Y-79134133D01*
X124923436Y-79142308D01*
X124923434Y-79142310D01*
X124910404Y-79158839D01*
X124905991Y-79163805D01*
X124906032Y-79163840D01*
X124902674Y-79167803D01*
X124898997Y-79171480D01*
X124886742Y-79188630D01*
X124883203Y-79193343D01*
X124851307Y-79233802D01*
X124848260Y-79242480D01*
X124842912Y-79249963D01*
X124839928Y-79259941D01*
X124839926Y-79259945D01*
X124828155Y-79299306D01*
X124826320Y-79304954D01*
X124809255Y-79353549D01*
X124808500Y-79362267D01*
X124808500Y-79365008D01*
X124808499Y-79365032D01*
X124806547Y-79371559D01*
X124806956Y-79381965D01*
X124808403Y-79418794D01*
X124808500Y-79423741D01*
X124808500Y-79425403D01*
X124788498Y-79493524D01*
X124734842Y-79540017D01*
X124665485Y-79550249D01*
X124641207Y-79546940D01*
X124636706Y-79546973D01*
X124636705Y-79546973D01*
X123724416Y-79553681D01*
X123593174Y-79554646D01*
X123593171Y-79554646D01*
X123541616Y-79555025D01*
X123541608Y-79555026D01*
X123538013Y-79555052D01*
X123480309Y-79562130D01*
X123476797Y-79562977D01*
X123476788Y-79562979D01*
X123447953Y-79569936D01*
X123424608Y-79575569D01*
X123394937Y-79584679D01*
X123310726Y-79636933D01*
X123258862Y-79685416D01*
X123256995Y-79687503D01*
X123256991Y-79687507D01*
X123234682Y-79712444D01*
X123228673Y-79719161D01*
X123224800Y-79727297D01*
X123224800Y-79727298D01*
X123188742Y-79803056D01*
X123188740Y-79803061D01*
X123186081Y-79808648D01*
X123168662Y-79877474D01*
X123161079Y-79949371D01*
X123161249Y-79953876D01*
X123161249Y-79953877D01*
X123175910Y-80342396D01*
X123176000Y-80347147D01*
X123176000Y-81392600D01*
X123155998Y-81460721D01*
X123139095Y-81481695D01*
X122377300Y-82243490D01*
X122359135Y-82263712D01*
X122342232Y-82284686D01*
X122339361Y-82290175D01*
X122300166Y-82365102D01*
X122296291Y-82372509D01*
X122294548Y-82378447D01*
X122294547Y-82378448D01*
X122289312Y-82396278D01*
X122276289Y-82440630D01*
X122266000Y-82512190D01*
X122266000Y-88650000D01*
X122245998Y-88718121D01*
X122192342Y-88764614D01*
X122140000Y-88776000D01*
X115776000Y-88776000D01*
X115772653Y-88776360D01*
X115772649Y-88776360D01*
X115725374Y-88781442D01*
X115725367Y-88781443D01*
X115722010Y-88781804D01*
X115718710Y-88782522D01*
X115718709Y-88782522D01*
X115671322Y-88792830D01*
X115671315Y-88792832D01*
X115669668Y-88793190D01*
X115643445Y-88800384D01*
X115602680Y-88823597D01*
X115562702Y-88846362D01*
X115562698Y-88846365D01*
X115557324Y-88849425D01*
X115503668Y-88895918D01*
X115472227Y-88928502D01*
X115426291Y-89016319D01*
X115406289Y-89084440D01*
X115405648Y-89088899D01*
X115405647Y-89088903D01*
X115401145Y-89120220D01*
X115396000Y-89156000D01*
X115396000Y-95378791D01*
X115375998Y-95446912D01*
X115322342Y-95493405D01*
X115257073Y-95504126D01*
X114680773Y-95444687D01*
X113584748Y-95331644D01*
X113517729Y-95333628D01*
X113513625Y-95334299D01*
X113513621Y-95334299D01*
X113487862Y-95338508D01*
X113452655Y-95344261D01*
X113413812Y-95353799D01*
X113406258Y-95358084D01*
X113406257Y-95358084D01*
X113369750Y-95378791D01*
X113327607Y-95402694D01*
X113322928Y-95406735D01*
X113322923Y-95406738D01*
X113278778Y-95444859D01*
X113273873Y-95449095D01*
X113271918Y-95451114D01*
X113271915Y-95451117D01*
X113253839Y-95469787D01*
X113242378Y-95481624D01*
X113238190Y-95489597D01*
X113238188Y-95489600D01*
X113223032Y-95518455D01*
X113196292Y-95569363D01*
X113194538Y-95575299D01*
X113194536Y-95575304D01*
X113183458Y-95612799D01*
X113176174Y-95637449D01*
X113175527Y-95641895D01*
X113170166Y-95678737D01*
X113165763Y-95708992D01*
X113165755Y-95713491D01*
X113165755Y-95713496D01*
X113163802Y-96864062D01*
X113147255Y-106610895D01*
X113146640Y-106972821D01*
X113126522Y-107040908D01*
X113072788Y-107087309D01*
X113021509Y-107098604D01*
X111009611Y-107112479D01*
X111006421Y-107112501D01*
X110970620Y-107116376D01*
X110958699Y-107117666D01*
X110958697Y-107117666D01*
X110955540Y-107118008D01*
X110952435Y-107118666D01*
X110952433Y-107118666D01*
X110907581Y-107128166D01*
X110907566Y-107128170D01*
X110906124Y-107128475D01*
X110882860Y-107134566D01*
X110795877Y-107182062D01*
X110772046Y-107201978D01*
X110744854Y-107224702D01*
X110744850Y-107224705D01*
X110741400Y-107227589D01*
X110738389Y-107230941D01*
X110738388Y-107230942D01*
X110695488Y-107278700D01*
X110635086Y-107316011D01*
X110601753Y-107320500D01*
X108735553Y-107320500D01*
X108667432Y-107300498D01*
X108638651Y-107275036D01*
X108627475Y-107261589D01*
X108625374Y-107259061D01*
X108587997Y-107222598D01*
X108568640Y-107205544D01*
X108480508Y-107160214D01*
X108412252Y-107140682D01*
X108353097Y-107132592D01*
X108345082Y-107131496D01*
X108345081Y-107131496D01*
X108340621Y-107130886D01*
X108336120Y-107130917D01*
X108336119Y-107130917D01*
X107980869Y-107133367D01*
X107912612Y-107113835D01*
X107865750Y-107060501D01*
X107854000Y-107007370D01*
X107854000Y-106737500D01*
X107848196Y-106683510D01*
X107836810Y-106631168D01*
X107829616Y-106604945D01*
X107806403Y-106564180D01*
X107783638Y-106524202D01*
X107783635Y-106524198D01*
X107780575Y-106518824D01*
X107734082Y-106465168D01*
X107701498Y-106433727D01*
X107613681Y-106387791D01*
X107545560Y-106367789D01*
X107541101Y-106367148D01*
X107541097Y-106367147D01*
X107509780Y-106362645D01*
X107474000Y-106357500D01*
X106880484Y-106357500D01*
X106838729Y-106350380D01*
X106833217Y-106348444D01*
X106775574Y-106306998D01*
X106749489Y-106240967D01*
X106763244Y-106171316D01*
X106812472Y-106120158D01*
X106854291Y-106105273D01*
X106860686Y-106104209D01*
X106881367Y-106102500D01*
X107474000Y-106102500D01*
X107477347Y-106102140D01*
X107477351Y-106102140D01*
X107524626Y-106097058D01*
X107524633Y-106097057D01*
X107527990Y-106096696D01*
X107531291Y-106095978D01*
X107578678Y-106085670D01*
X107578685Y-106085668D01*
X107580332Y-106085310D01*
X107606555Y-106078116D01*
X107647320Y-106054903D01*
X107687298Y-106032138D01*
X107687302Y-106032135D01*
X107692676Y-106029075D01*
X107746332Y-105982582D01*
X107777773Y-105949998D01*
X107823709Y-105862181D01*
X107843711Y-105794060D01*
X107854000Y-105722500D01*
X107854000Y-104385000D01*
X108410500Y-104385000D01*
X108410500Y-104915000D01*
X108411707Y-104921068D01*
X108430253Y-105014306D01*
X108429058Y-105014544D01*
X108435275Y-105072373D01*
X108432234Y-105082729D01*
X108430253Y-105085694D01*
X108410500Y-105185000D01*
X108410500Y-105715000D01*
X108430253Y-105814306D01*
X108486506Y-105898494D01*
X108570694Y-105954747D01*
X108670000Y-105974500D01*
X110670000Y-105974500D01*
X110769306Y-105954747D01*
X110853494Y-105898494D01*
X110909747Y-105814306D01*
X110929500Y-105715000D01*
X110929500Y-105185000D01*
X110909747Y-105085694D01*
X110910942Y-105085456D01*
X110904725Y-105027627D01*
X110907766Y-105017271D01*
X110909747Y-105014306D01*
X110929500Y-104915000D01*
X110929500Y-104385000D01*
X110909747Y-104285694D01*
X110853494Y-104201506D01*
X110769306Y-104145253D01*
X110670000Y-104125500D01*
X108670000Y-104125500D01*
X108570694Y-104145253D01*
X108486506Y-104201506D01*
X108430253Y-104285694D01*
X108410500Y-104385000D01*
X107854000Y-104385000D01*
X107854000Y-101185000D01*
X108410500Y-101185000D01*
X108410500Y-101715000D01*
X108411707Y-101721068D01*
X108430253Y-101814306D01*
X108429058Y-101814544D01*
X108435275Y-101872373D01*
X108432234Y-101882729D01*
X108430253Y-101885694D01*
X108410500Y-101985000D01*
X108410500Y-102515000D01*
X108430253Y-102614306D01*
X108486506Y-102698494D01*
X108570694Y-102754747D01*
X108670000Y-102774500D01*
X110670000Y-102774500D01*
X110769306Y-102754747D01*
X110853494Y-102698494D01*
X110909747Y-102614306D01*
X110929500Y-102515000D01*
X110929500Y-101985000D01*
X110909747Y-101885694D01*
X110910942Y-101885456D01*
X110904725Y-101827627D01*
X110907766Y-101817271D01*
X110909747Y-101814306D01*
X110929500Y-101715000D01*
X110929500Y-101185000D01*
X110909747Y-101085694D01*
X110853494Y-101001506D01*
X110769306Y-100945253D01*
X110670000Y-100925500D01*
X108670000Y-100925500D01*
X108570694Y-100945253D01*
X108486506Y-101001506D01*
X108430253Y-101085694D01*
X108410500Y-101185000D01*
X107854000Y-101185000D01*
X107854000Y-99585000D01*
X108410500Y-99585000D01*
X108410500Y-100115000D01*
X108430253Y-100214306D01*
X108486506Y-100298494D01*
X108570694Y-100354747D01*
X108670000Y-100374500D01*
X110670000Y-100374500D01*
X110769306Y-100354747D01*
X110853494Y-100298494D01*
X110909747Y-100214306D01*
X110929500Y-100115000D01*
X110929500Y-99585000D01*
X110909747Y-99485694D01*
X110853494Y-99401506D01*
X110769306Y-99345253D01*
X110670000Y-99325500D01*
X108670000Y-99325500D01*
X108570694Y-99345253D01*
X108486506Y-99401506D01*
X108430253Y-99485694D01*
X108410500Y-99585000D01*
X107854000Y-99585000D01*
X107854000Y-93185000D01*
X108410500Y-93185000D01*
X108410500Y-93715000D01*
X108411707Y-93721068D01*
X108430253Y-93814306D01*
X108429058Y-93814544D01*
X108435275Y-93872373D01*
X108432234Y-93882729D01*
X108430253Y-93885694D01*
X108410500Y-93985000D01*
X108410500Y-94515000D01*
X108430253Y-94614306D01*
X108486506Y-94698494D01*
X108570694Y-94754747D01*
X108670000Y-94774500D01*
X110670000Y-94774500D01*
X110769306Y-94754747D01*
X110853494Y-94698494D01*
X110909747Y-94614306D01*
X110929500Y-94515000D01*
X110929500Y-93985000D01*
X110909747Y-93885694D01*
X110910942Y-93885456D01*
X110904725Y-93827627D01*
X110907766Y-93817271D01*
X110909747Y-93814306D01*
X110929500Y-93715000D01*
X110929500Y-93185000D01*
X110909747Y-93085694D01*
X110853494Y-93001506D01*
X110769306Y-92945253D01*
X110670000Y-92925500D01*
X108670000Y-92925500D01*
X108570694Y-92945253D01*
X108486506Y-93001506D01*
X108430253Y-93085694D01*
X108410500Y-93185000D01*
X107854000Y-93185000D01*
X107854000Y-89185000D01*
X108410500Y-89185000D01*
X108410500Y-89715000D01*
X108411707Y-89721068D01*
X108430253Y-89814306D01*
X108429058Y-89814544D01*
X108435275Y-89872373D01*
X108432234Y-89882729D01*
X108430253Y-89885694D01*
X108410500Y-89985000D01*
X108410500Y-90515000D01*
X108411707Y-90521068D01*
X108430253Y-90614306D01*
X108429058Y-90614544D01*
X108435275Y-90672373D01*
X108432234Y-90682729D01*
X108430253Y-90685694D01*
X108410500Y-90785000D01*
X108410500Y-91315000D01*
X108411707Y-91321068D01*
X108430253Y-91414306D01*
X108429058Y-91414544D01*
X108435275Y-91472373D01*
X108432234Y-91482729D01*
X108430253Y-91485694D01*
X108410500Y-91585000D01*
X108410500Y-92115000D01*
X108430253Y-92214306D01*
X108486506Y-92298494D01*
X108570694Y-92354747D01*
X108670000Y-92374500D01*
X110670000Y-92374500D01*
X110769306Y-92354747D01*
X110853494Y-92298494D01*
X110909747Y-92214306D01*
X110929500Y-92115000D01*
X110929500Y-91585000D01*
X110909747Y-91485694D01*
X110910942Y-91485456D01*
X110904725Y-91427627D01*
X110907766Y-91417271D01*
X110909747Y-91414306D01*
X110929500Y-91315000D01*
X110929500Y-90785000D01*
X110909747Y-90685694D01*
X110910942Y-90685456D01*
X110904725Y-90627627D01*
X110907766Y-90617271D01*
X110909747Y-90614306D01*
X110929500Y-90515000D01*
X110929500Y-89985000D01*
X110909747Y-89885694D01*
X110910942Y-89885456D01*
X110904725Y-89827627D01*
X110907766Y-89817271D01*
X110909747Y-89814306D01*
X110929500Y-89715000D01*
X110929500Y-89185000D01*
X110909747Y-89085694D01*
X110853494Y-89001506D01*
X110769306Y-88945253D01*
X110670000Y-88925500D01*
X108670000Y-88925500D01*
X108570694Y-88945253D01*
X108486506Y-89001506D01*
X108430253Y-89085694D01*
X108410500Y-89185000D01*
X107854000Y-89185000D01*
X107854000Y-88735207D01*
X112710603Y-88735207D01*
X112713286Y-88767156D01*
X112726835Y-88928502D01*
X112727906Y-88941260D01*
X112784902Y-89140028D01*
X112787720Y-89145510D01*
X112787721Y-89145514D01*
X112876599Y-89318452D01*
X112876602Y-89318456D01*
X112879420Y-89323940D01*
X113007859Y-89485991D01*
X113165329Y-89620008D01*
X113345830Y-89720886D01*
X113542488Y-89784784D01*
X113747812Y-89809268D01*
X113753947Y-89808796D01*
X113753949Y-89808796D01*
X113947838Y-89793877D01*
X113947842Y-89793876D01*
X113953980Y-89793404D01*
X114153141Y-89737797D01*
X114337708Y-89644565D01*
X114500652Y-89517260D01*
X114635765Y-89360730D01*
X114737901Y-89180937D01*
X114747243Y-89152856D01*
X114792663Y-89016319D01*
X114803171Y-88984731D01*
X114829087Y-88779583D01*
X114829500Y-88750000D01*
X114809322Y-88544209D01*
X114749557Y-88346256D01*
X114652480Y-88163682D01*
X114602999Y-88103012D01*
X114525685Y-88008215D01*
X114525682Y-88008212D01*
X114521790Y-88003440D01*
X114509190Y-87993016D01*
X114367215Y-87875564D01*
X114367211Y-87875562D01*
X114362465Y-87871635D01*
X114180573Y-87773286D01*
X113983042Y-87712140D01*
X113976917Y-87711496D01*
X113976916Y-87711496D01*
X113783525Y-87691170D01*
X113783524Y-87691170D01*
X113777397Y-87690526D01*
X113691429Y-87698350D01*
X113577608Y-87708708D01*
X113577605Y-87708709D01*
X113571469Y-87709267D01*
X113565563Y-87711005D01*
X113565559Y-87711006D01*
X113433070Y-87750000D01*
X113373104Y-87767649D01*
X113189857Y-87863448D01*
X113028707Y-87993016D01*
X113024748Y-87997734D01*
X113024747Y-87997735D01*
X112930116Y-88110511D01*
X112895792Y-88151417D01*
X112892829Y-88156806D01*
X112892826Y-88156811D01*
X112813454Y-88301190D01*
X112796176Y-88332619D01*
X112733653Y-88529718D01*
X112732967Y-88535837D01*
X112732966Y-88535840D01*
X112711290Y-88729082D01*
X112710603Y-88735207D01*
X107854000Y-88735207D01*
X107854000Y-85330000D01*
X107874002Y-85261879D01*
X107927658Y-85215386D01*
X107980000Y-85204000D01*
X108305901Y-85204000D01*
X108374022Y-85224002D01*
X108420515Y-85277658D01*
X108429480Y-85354580D01*
X108410500Y-85450000D01*
X108410500Y-87750000D01*
X108430253Y-87849306D01*
X108486506Y-87933494D01*
X108570694Y-87989747D01*
X108670000Y-88009500D01*
X111870000Y-88009500D01*
X111969306Y-87989747D01*
X112053494Y-87933494D01*
X112109747Y-87849306D01*
X112129500Y-87750000D01*
X112129500Y-85450000D01*
X112109747Y-85350694D01*
X112053494Y-85266506D01*
X111969306Y-85210253D01*
X111870000Y-85190500D01*
X109693169Y-85190500D01*
X109625048Y-85170498D01*
X109578555Y-85116842D01*
X109568451Y-85046568D01*
X109581521Y-85006098D01*
X109600843Y-84969161D01*
X109600845Y-84969157D01*
X109603709Y-84963681D01*
X109623711Y-84895560D01*
X109634000Y-84824000D01*
X109634000Y-81524067D01*
X109628605Y-81471995D01*
X109627940Y-81468818D01*
X109627938Y-81468808D01*
X109618334Y-81422958D01*
X109618333Y-81422952D01*
X109618014Y-81421431D01*
X109611623Y-81397027D01*
X109594137Y-81365184D01*
X109566895Y-81315577D01*
X109566894Y-81315576D01*
X109563919Y-81310158D01*
X109543021Y-81285273D01*
X109520063Y-81257934D01*
X109520057Y-81257927D01*
X109518262Y-81255790D01*
X109486168Y-81223848D01*
X109399071Y-81176559D01*
X109393164Y-81174725D01*
X109393162Y-81174724D01*
X109335561Y-81156839D01*
X109335557Y-81156838D01*
X109331267Y-81155506D01*
X109306936Y-81151623D01*
X109264326Y-81144822D01*
X109264323Y-81144822D01*
X109259876Y-81144112D01*
X109255378Y-81144042D01*
X109255373Y-81144042D01*
X109093898Y-81141545D01*
X109091926Y-81141523D01*
X109089978Y-81141508D01*
X109088022Y-81141500D01*
X107686617Y-81141500D01*
X107649570Y-81135930D01*
X107640934Y-81133273D01*
X107640908Y-81133266D01*
X107638082Y-81132397D01*
X107635184Y-81131797D01*
X107635179Y-81131796D01*
X107620174Y-81128691D01*
X107591813Y-81122822D01*
X107558134Y-81119110D01*
X107547211Y-81117906D01*
X107547208Y-81117906D01*
X107544270Y-81117582D01*
X107541311Y-81117536D01*
X107541308Y-81117536D01*
X107500996Y-81116912D01*
X107500967Y-81116912D01*
X107492394Y-81116780D01*
X107482592Y-81116628D01*
X107482586Y-81116628D01*
X107480246Y-81116592D01*
X107460314Y-81117764D01*
X107444986Y-81118665D01*
X107444975Y-81118666D01*
X107442663Y-81118802D01*
X107440365Y-81119109D01*
X107440357Y-81119110D01*
X107415027Y-81122497D01*
X107405745Y-81123738D01*
X107391733Y-81126682D01*
X107372911Y-81130636D01*
X107346457Y-81133327D01*
X105802697Y-81126615D01*
X105243692Y-81124185D01*
X105226685Y-81125966D01*
X105192288Y-81129568D01*
X105192283Y-81129569D01*
X105188891Y-81129924D01*
X105185552Y-81130646D01*
X105185547Y-81130647D01*
X105137469Y-81141046D01*
X105137460Y-81141048D01*
X105135778Y-81141412D01*
X105134129Y-81141865D01*
X105134117Y-81141868D01*
X105119575Y-81145864D01*
X105108793Y-81148826D01*
X105101905Y-81152766D01*
X105028137Y-81194962D01*
X105028135Y-81194963D01*
X105022767Y-81198034D01*
X105018099Y-81202095D01*
X104985789Y-81230202D01*
X104969202Y-81244631D01*
X104937824Y-81277278D01*
X104892059Y-81365184D01*
X104890326Y-81371129D01*
X104875218Y-81422958D01*
X104872190Y-81433344D01*
X104871558Y-81437804D01*
X104871557Y-81437807D01*
X104868623Y-81458500D01*
X104862041Y-81504924D01*
X104444000Y-81504924D01*
X104444000Y-70306000D01*
X104836000Y-70306000D01*
X104836000Y-72794000D01*
X104836360Y-72797347D01*
X104836360Y-72797351D01*
X104841106Y-72841495D01*
X104841804Y-72847990D01*
X104842522Y-72851290D01*
X104842522Y-72851291D01*
X104847989Y-72876421D01*
X104853190Y-72900332D01*
X104860384Y-72926555D01*
X104874279Y-72950956D01*
X104906362Y-73007298D01*
X104906365Y-73007302D01*
X104909425Y-73012676D01*
X104955918Y-73066332D01*
X104988502Y-73097773D01*
X105076319Y-73143709D01*
X105144440Y-73163711D01*
X105148899Y-73164352D01*
X105148903Y-73164353D01*
X105180220Y-73168856D01*
X105216000Y-73174000D01*
X105331045Y-73174000D01*
X105399166Y-73194002D01*
X105445659Y-73247658D01*
X105455763Y-73317932D01*
X105426269Y-73382512D01*
X105420140Y-73389095D01*
X105413222Y-73396013D01*
X105402906Y-73402906D01*
X105346653Y-73487094D01*
X105326900Y-73586400D01*
X105326900Y-75313600D01*
X105346653Y-75412906D01*
X105402906Y-75497094D01*
X105487094Y-75553347D01*
X105586400Y-75573100D01*
X107313600Y-75573100D01*
X107319666Y-75571893D01*
X107319670Y-75571893D01*
X107355420Y-75564782D01*
X107426134Y-75571110D01*
X107482200Y-75614665D01*
X107506000Y-75688361D01*
X107506000Y-79414000D01*
X107506360Y-79417347D01*
X107506360Y-79417351D01*
X107509333Y-79445000D01*
X107511804Y-79467990D01*
X107512522Y-79471290D01*
X107512522Y-79471291D01*
X107519916Y-79505279D01*
X107523190Y-79520332D01*
X107530384Y-79546555D01*
X107548303Y-79578023D01*
X107576362Y-79627298D01*
X107576365Y-79627302D01*
X107579425Y-79632676D01*
X107592686Y-79647980D01*
X107616898Y-79675922D01*
X107625918Y-79686332D01*
X107658502Y-79717773D01*
X107746319Y-79763709D01*
X107814440Y-79783711D01*
X107818899Y-79784352D01*
X107818903Y-79784353D01*
X107840639Y-79787478D01*
X107886000Y-79794000D01*
X109254000Y-79794000D01*
X109257347Y-79793640D01*
X109257351Y-79793640D01*
X109304626Y-79788558D01*
X109304633Y-79788557D01*
X109307990Y-79788196D01*
X109311291Y-79787478D01*
X109358678Y-79777170D01*
X109358685Y-79777168D01*
X109360332Y-79776810D01*
X109386555Y-79769616D01*
X109427320Y-79746403D01*
X109467298Y-79723638D01*
X109467302Y-79723635D01*
X109472676Y-79720575D01*
X109499458Y-79697368D01*
X109524209Y-79675922D01*
X109524214Y-79675917D01*
X109526332Y-79674082D01*
X109557773Y-79641498D01*
X109584566Y-79590278D01*
X109585706Y-79588098D01*
X109635004Y-79537008D01*
X109697354Y-79520500D01*
X110105000Y-79520500D01*
X110114160Y-79518678D01*
X110121723Y-79517174D01*
X110121724Y-79517173D01*
X110133893Y-79514753D01*
X110144208Y-79507861D01*
X110144210Y-79507860D01*
X110148072Y-79505279D01*
X110158387Y-79498387D01*
X110174753Y-79473893D01*
X110180500Y-79445000D01*
X110180500Y-78815000D01*
X110174753Y-78786107D01*
X110158387Y-78761613D01*
X110147317Y-78754217D01*
X110144210Y-78752140D01*
X110144208Y-78752139D01*
X110133893Y-78745247D01*
X110121724Y-78742827D01*
X110121723Y-78742826D01*
X110111068Y-78740707D01*
X110105000Y-78739500D01*
X109760000Y-78739500D01*
X109691879Y-78719498D01*
X109645386Y-78665842D01*
X109634000Y-78613500D01*
X109634000Y-78218973D01*
X109632545Y-78191826D01*
X109629666Y-78165043D01*
X109600051Y-78070459D01*
X109598282Y-78067219D01*
X109588500Y-78019166D01*
X109588500Y-77200748D01*
X109600319Y-77152661D01*
X109598522Y-77151935D01*
X109600843Y-77146187D01*
X109603709Y-77140708D01*
X109623711Y-77072587D01*
X109628099Y-77042068D01*
X109657592Y-76977487D01*
X109717318Y-76939104D01*
X109752816Y-76934000D01*
X110344000Y-76934000D01*
X110347347Y-76933640D01*
X110347351Y-76933640D01*
X110394626Y-76928558D01*
X110394633Y-76928557D01*
X110397990Y-76928196D01*
X110401291Y-76927478D01*
X110448678Y-76917170D01*
X110448685Y-76917168D01*
X110450332Y-76916810D01*
X110476555Y-76909616D01*
X110538995Y-76874060D01*
X110557298Y-76863638D01*
X110557302Y-76863635D01*
X110562676Y-76860575D01*
X110616332Y-76814082D01*
X110647773Y-76781498D01*
X110693709Y-76693681D01*
X110713711Y-76625560D01*
X110714582Y-76619506D01*
X110720443Y-76578737D01*
X110724000Y-76554000D01*
X110724000Y-75493201D01*
X110744002Y-75425080D01*
X110797658Y-75378587D01*
X110867932Y-75368483D01*
X110923437Y-75390815D01*
X110960180Y-75417170D01*
X110960193Y-75417178D01*
X110965058Y-75420667D01*
X110970503Y-75423177D01*
X111145793Y-75503987D01*
X111158799Y-75509983D01*
X111164615Y-75511417D01*
X111164618Y-75511418D01*
X111282920Y-75540585D01*
X111365934Y-75561052D01*
X111371924Y-75561361D01*
X111371926Y-75561361D01*
X111438317Y-75564782D01*
X111578989Y-75572031D01*
X111584924Y-75571202D01*
X111584928Y-75571202D01*
X111762155Y-75546452D01*
X111790276Y-75542525D01*
X111992172Y-75473597D01*
X112084780Y-75420667D01*
X112172187Y-75370710D01*
X112172192Y-75370707D01*
X112177391Y-75367735D01*
X112339251Y-75228760D01*
X112471911Y-75061684D01*
X112570584Y-74872537D01*
X112631711Y-74668145D01*
X112632892Y-74656424D01*
X112643232Y-74553741D01*
X112951702Y-74553741D01*
X112991494Y-74763335D01*
X113070202Y-74961622D01*
X113184985Y-75141449D01*
X113331702Y-75296327D01*
X113336567Y-75299817D01*
X113336570Y-75299819D01*
X113500181Y-75417169D01*
X113505058Y-75420667D01*
X113510503Y-75423177D01*
X113685793Y-75503987D01*
X113698799Y-75509983D01*
X113704615Y-75511417D01*
X113704618Y-75511418D01*
X113822920Y-75540585D01*
X113905934Y-75561052D01*
X113911924Y-75561361D01*
X113911926Y-75561361D01*
X113978317Y-75564782D01*
X114118989Y-75572031D01*
X114124924Y-75571202D01*
X114124928Y-75571202D01*
X114302155Y-75546452D01*
X114330276Y-75542525D01*
X114532172Y-75473597D01*
X114624780Y-75420667D01*
X114712187Y-75370710D01*
X114712192Y-75370707D01*
X114717391Y-75367735D01*
X114879251Y-75228760D01*
X115011911Y-75061684D01*
X115110584Y-74872537D01*
X115171711Y-74668145D01*
X115172892Y-74656424D01*
X115183232Y-74553741D01*
X118031702Y-74553741D01*
X118071494Y-74763335D01*
X118150202Y-74961622D01*
X118264985Y-75141449D01*
X118411702Y-75296327D01*
X118416567Y-75299817D01*
X118416570Y-75299819D01*
X118580181Y-75417169D01*
X118585058Y-75420667D01*
X118590503Y-75423177D01*
X118765793Y-75503987D01*
X118778799Y-75509983D01*
X118784615Y-75511417D01*
X118784618Y-75511418D01*
X118902920Y-75540585D01*
X118985934Y-75561052D01*
X118991924Y-75561361D01*
X118991926Y-75561361D01*
X119058317Y-75564782D01*
X119198989Y-75572031D01*
X119204924Y-75571202D01*
X119204928Y-75571202D01*
X119382155Y-75546452D01*
X119410276Y-75542525D01*
X119612172Y-75473597D01*
X119704780Y-75420667D01*
X119792187Y-75370710D01*
X119792192Y-75370707D01*
X119797391Y-75367735D01*
X119959251Y-75228760D01*
X120091911Y-75061684D01*
X120190584Y-74872537D01*
X120251711Y-74668145D01*
X120252892Y-74656424D01*
X120263232Y-74553741D01*
X120571702Y-74553741D01*
X120611494Y-74763335D01*
X120690202Y-74961622D01*
X120804985Y-75141449D01*
X120951702Y-75296327D01*
X120956567Y-75299817D01*
X120956570Y-75299819D01*
X121120181Y-75417169D01*
X121125058Y-75420667D01*
X121130503Y-75423177D01*
X121305793Y-75503987D01*
X121318799Y-75509983D01*
X121324615Y-75511417D01*
X121324618Y-75511418D01*
X121442920Y-75540585D01*
X121525934Y-75561052D01*
X121531924Y-75561361D01*
X121531926Y-75561361D01*
X121598317Y-75564782D01*
X121738989Y-75572031D01*
X121744924Y-75571202D01*
X121744928Y-75571202D01*
X121922155Y-75546452D01*
X121950276Y-75542525D01*
X122152172Y-75473597D01*
X122244780Y-75420667D01*
X122332187Y-75370710D01*
X122332192Y-75370707D01*
X122337391Y-75367735D01*
X122499251Y-75228760D01*
X122631911Y-75061684D01*
X122730584Y-74872537D01*
X122791711Y-74668145D01*
X122792892Y-74656424D01*
X122803232Y-74553741D01*
X123111702Y-74553741D01*
X123151494Y-74763335D01*
X123230202Y-74961622D01*
X123344985Y-75141449D01*
X123491702Y-75296327D01*
X123496567Y-75299817D01*
X123496570Y-75299819D01*
X123660181Y-75417169D01*
X123665058Y-75420667D01*
X123670503Y-75423177D01*
X123845793Y-75503987D01*
X123858799Y-75509983D01*
X123864615Y-75511417D01*
X123864618Y-75511418D01*
X123982920Y-75540585D01*
X124065934Y-75561052D01*
X124071924Y-75561361D01*
X124071926Y-75561361D01*
X124138317Y-75564782D01*
X124278989Y-75572031D01*
X124284924Y-75571202D01*
X124284928Y-75571202D01*
X124462155Y-75546452D01*
X124490276Y-75542525D01*
X124692172Y-75473597D01*
X124784780Y-75420667D01*
X124872187Y-75370710D01*
X124872192Y-75370707D01*
X124877391Y-75367735D01*
X125039251Y-75228760D01*
X125171911Y-75061684D01*
X125270584Y-74872537D01*
X125331711Y-74668145D01*
X125332892Y-74656424D01*
X125352777Y-74458944D01*
X125352777Y-74458935D01*
X125353085Y-74455881D01*
X125353100Y-74450000D01*
X125332838Y-74237627D01*
X125272782Y-74032917D01*
X125270032Y-74027577D01*
X125177847Y-73848587D01*
X125177845Y-73848584D01*
X125175101Y-73843256D01*
X125043317Y-73675488D01*
X124882187Y-73535667D01*
X124697525Y-73428837D01*
X124587331Y-73390571D01*
X124501667Y-73360823D01*
X124501664Y-73360822D01*
X124495993Y-73358853D01*
X124352888Y-73338104D01*
X124290803Y-73329102D01*
X124290800Y-73329102D01*
X124284863Y-73328241D01*
X124071754Y-73338104D01*
X124065930Y-73339508D01*
X124065927Y-73339508D01*
X123870187Y-73386682D01*
X123870185Y-73386683D01*
X123864354Y-73388088D01*
X123858896Y-73390570D01*
X123858892Y-73390571D01*
X123779066Y-73426866D01*
X123670148Y-73476388D01*
X123567047Y-73549523D01*
X123523615Y-73580332D01*
X123496143Y-73599819D01*
X123492001Y-73604146D01*
X123352766Y-73749592D01*
X123352762Y-73749597D01*
X123348618Y-73753926D01*
X123345364Y-73758965D01*
X123345362Y-73758968D01*
X123287496Y-73848587D01*
X123232895Y-73933150D01*
X123153150Y-74131022D01*
X123152002Y-74136903D01*
X123152000Y-74136908D01*
X123133456Y-74231866D01*
X123112260Y-74340405D01*
X123112244Y-74346390D01*
X123112244Y-74346394D01*
X123111981Y-74446926D01*
X123111702Y-74553741D01*
X122803232Y-74553741D01*
X122812777Y-74458944D01*
X122812777Y-74458935D01*
X122813085Y-74455881D01*
X122813100Y-74450000D01*
X122792838Y-74237627D01*
X122732782Y-74032917D01*
X122730032Y-74027577D01*
X122637847Y-73848587D01*
X122637845Y-73848584D01*
X122635101Y-73843256D01*
X122503317Y-73675488D01*
X122342187Y-73535667D01*
X122157525Y-73428837D01*
X122047331Y-73390571D01*
X121961667Y-73360823D01*
X121961664Y-73360822D01*
X121955993Y-73358853D01*
X121812888Y-73338104D01*
X121750803Y-73329102D01*
X121750800Y-73329102D01*
X121744863Y-73328241D01*
X121531754Y-73338104D01*
X121525930Y-73339508D01*
X121525927Y-73339508D01*
X121330187Y-73386682D01*
X121330185Y-73386683D01*
X121324354Y-73388088D01*
X121318896Y-73390570D01*
X121318892Y-73390571D01*
X121239066Y-73426866D01*
X121130148Y-73476388D01*
X121027047Y-73549523D01*
X120983615Y-73580332D01*
X120956143Y-73599819D01*
X120952001Y-73604146D01*
X120812766Y-73749592D01*
X120812762Y-73749597D01*
X120808618Y-73753926D01*
X120805364Y-73758965D01*
X120805362Y-73758968D01*
X120747496Y-73848587D01*
X120692895Y-73933150D01*
X120613150Y-74131022D01*
X120612002Y-74136903D01*
X120612000Y-74136908D01*
X120593456Y-74231866D01*
X120572260Y-74340405D01*
X120572244Y-74346390D01*
X120572244Y-74346394D01*
X120571981Y-74446926D01*
X120571702Y-74553741D01*
X120263232Y-74553741D01*
X120272777Y-74458944D01*
X120272777Y-74458935D01*
X120273085Y-74455881D01*
X120273100Y-74450000D01*
X120252838Y-74237627D01*
X120192782Y-74032917D01*
X120190032Y-74027577D01*
X120097847Y-73848587D01*
X120097845Y-73848584D01*
X120095101Y-73843256D01*
X119963317Y-73675488D01*
X119802187Y-73535667D01*
X119617525Y-73428837D01*
X119507331Y-73390571D01*
X119421667Y-73360823D01*
X119421664Y-73360822D01*
X119415993Y-73358853D01*
X119272888Y-73338104D01*
X119210803Y-73329102D01*
X119210800Y-73329102D01*
X119204863Y-73328241D01*
X118991754Y-73338104D01*
X118985930Y-73339508D01*
X118985927Y-73339508D01*
X118790187Y-73386682D01*
X118790185Y-73386683D01*
X118784354Y-73388088D01*
X118778896Y-73390570D01*
X118778892Y-73390571D01*
X118699066Y-73426866D01*
X118590148Y-73476388D01*
X118487047Y-73549523D01*
X118443615Y-73580332D01*
X118416143Y-73599819D01*
X118412001Y-73604146D01*
X118272766Y-73749592D01*
X118272762Y-73749597D01*
X118268618Y-73753926D01*
X118265364Y-73758965D01*
X118265362Y-73758968D01*
X118207496Y-73848587D01*
X118152895Y-73933150D01*
X118073150Y-74131022D01*
X118072002Y-74136903D01*
X118072000Y-74136908D01*
X118053456Y-74231866D01*
X118032260Y-74340405D01*
X118032244Y-74346390D01*
X118032244Y-74346394D01*
X118031981Y-74446926D01*
X118031702Y-74553741D01*
X115183232Y-74553741D01*
X115192777Y-74458944D01*
X115192777Y-74458935D01*
X115193085Y-74455881D01*
X115193100Y-74450000D01*
X115172838Y-74237627D01*
X115112782Y-74032917D01*
X115110032Y-74027577D01*
X115017847Y-73848587D01*
X115017845Y-73848584D01*
X115015101Y-73843256D01*
X114883317Y-73675488D01*
X114722187Y-73535667D01*
X114537525Y-73428837D01*
X114427331Y-73390571D01*
X114341667Y-73360823D01*
X114341664Y-73360822D01*
X114335993Y-73358853D01*
X114192888Y-73338104D01*
X114130803Y-73329102D01*
X114130800Y-73329102D01*
X114124863Y-73328241D01*
X113911754Y-73338104D01*
X113905930Y-73339508D01*
X113905927Y-73339508D01*
X113710187Y-73386682D01*
X113710185Y-73386683D01*
X113704354Y-73388088D01*
X113698896Y-73390570D01*
X113698892Y-73390571D01*
X113619066Y-73426866D01*
X113510148Y-73476388D01*
X113407047Y-73549523D01*
X113363615Y-73580332D01*
X113336143Y-73599819D01*
X113332001Y-73604146D01*
X113192766Y-73749592D01*
X113192762Y-73749597D01*
X113188618Y-73753926D01*
X113185364Y-73758965D01*
X113185362Y-73758968D01*
X113127496Y-73848587D01*
X113072895Y-73933150D01*
X112993150Y-74131022D01*
X112992002Y-74136903D01*
X112992000Y-74136908D01*
X112973456Y-74231866D01*
X112952260Y-74340405D01*
X112952244Y-74346390D01*
X112952244Y-74346394D01*
X112951981Y-74446926D01*
X112951702Y-74553741D01*
X112643232Y-74553741D01*
X112652777Y-74458944D01*
X112652777Y-74458935D01*
X112653085Y-74455881D01*
X112653100Y-74450000D01*
X112632838Y-74237627D01*
X112572782Y-74032917D01*
X112570032Y-74027577D01*
X112477847Y-73848587D01*
X112477845Y-73848584D01*
X112475101Y-73843256D01*
X112343317Y-73675488D01*
X112182187Y-73535667D01*
X111997525Y-73428837D01*
X111887331Y-73390571D01*
X111801667Y-73360823D01*
X111801664Y-73360822D01*
X111795993Y-73358853D01*
X111652888Y-73338104D01*
X111590803Y-73329102D01*
X111590800Y-73329102D01*
X111584863Y-73328241D01*
X111371754Y-73338104D01*
X111365930Y-73339508D01*
X111365927Y-73339508D01*
X111170187Y-73386682D01*
X111170185Y-73386683D01*
X111164354Y-73388088D01*
X111158896Y-73390570D01*
X111158892Y-73390571D01*
X111079066Y-73426866D01*
X110970148Y-73476388D01*
X110965259Y-73479856D01*
X110922901Y-73509903D01*
X110855767Y-73533002D01*
X110786802Y-73516139D01*
X110737902Y-73464667D01*
X110724000Y-73407134D01*
X110724000Y-72294049D01*
X110719480Y-72246344D01*
X110710591Y-72199858D01*
X110697866Y-72156163D01*
X110695054Y-72144446D01*
X110670239Y-72013741D01*
X112951702Y-72013741D01*
X112991494Y-72223335D01*
X113070202Y-72421622D01*
X113184985Y-72601449D01*
X113331702Y-72756327D01*
X113336567Y-72759817D01*
X113336570Y-72759819D01*
X113459499Y-72847990D01*
X113505058Y-72880667D01*
X113588109Y-72918954D01*
X113676572Y-72959736D01*
X113698799Y-72969983D01*
X113704615Y-72971417D01*
X113704618Y-72971418D01*
X113822920Y-73000585D01*
X113905934Y-73021052D01*
X113911924Y-73021361D01*
X113911926Y-73021361D01*
X113986712Y-73025215D01*
X114118989Y-73032031D01*
X114124924Y-73031202D01*
X114124928Y-73031202D01*
X114296097Y-73007298D01*
X114330276Y-73002525D01*
X114532172Y-72933597D01*
X114620388Y-72883177D01*
X114712187Y-72830710D01*
X114712192Y-72830707D01*
X114717391Y-72827735D01*
X114879251Y-72688760D01*
X115011911Y-72521684D01*
X115083286Y-72384866D01*
X115107813Y-72337849D01*
X115107813Y-72337848D01*
X115110584Y-72332537D01*
X115171711Y-72128145D01*
X115182639Y-72019628D01*
X115183232Y-72013741D01*
X115491702Y-72013741D01*
X115531494Y-72223335D01*
X115610202Y-72421622D01*
X115724985Y-72601449D01*
X115871702Y-72756327D01*
X115876567Y-72759817D01*
X115876570Y-72759819D01*
X115999499Y-72847990D01*
X116045058Y-72880667D01*
X116128109Y-72918954D01*
X116216572Y-72959736D01*
X116238799Y-72969983D01*
X116244615Y-72971417D01*
X116244618Y-72971418D01*
X116362920Y-73000585D01*
X116445934Y-73021052D01*
X116451924Y-73021361D01*
X116451926Y-73021361D01*
X116526712Y-73025215D01*
X116658989Y-73032031D01*
X116664924Y-73031202D01*
X116664928Y-73031202D01*
X116836097Y-73007298D01*
X116870276Y-73002525D01*
X117072172Y-72933597D01*
X117160388Y-72883177D01*
X117252187Y-72830710D01*
X117252192Y-72830707D01*
X117257391Y-72827735D01*
X117419251Y-72688760D01*
X117551911Y-72521684D01*
X117623286Y-72384866D01*
X117647813Y-72337849D01*
X117647813Y-72337848D01*
X117650584Y-72332537D01*
X117711711Y-72128145D01*
X117722639Y-72019628D01*
X117723232Y-72013741D01*
X118031702Y-72013741D01*
X118071494Y-72223335D01*
X118150202Y-72421622D01*
X118264985Y-72601449D01*
X118411702Y-72756327D01*
X118416567Y-72759817D01*
X118416570Y-72759819D01*
X118539499Y-72847990D01*
X118585058Y-72880667D01*
X118668109Y-72918954D01*
X118756572Y-72959736D01*
X118778799Y-72969983D01*
X118784615Y-72971417D01*
X118784618Y-72971418D01*
X118902920Y-73000585D01*
X118985934Y-73021052D01*
X118991924Y-73021361D01*
X118991926Y-73021361D01*
X119066712Y-73025215D01*
X119198989Y-73032031D01*
X119204924Y-73031202D01*
X119204928Y-73031202D01*
X119376097Y-73007298D01*
X119410276Y-73002525D01*
X119612172Y-72933597D01*
X119700388Y-72883177D01*
X119792187Y-72830710D01*
X119792192Y-72830707D01*
X119797391Y-72827735D01*
X119959251Y-72688760D01*
X120091911Y-72521684D01*
X120163286Y-72384866D01*
X120187813Y-72337849D01*
X120187813Y-72337848D01*
X120190584Y-72332537D01*
X120251711Y-72128145D01*
X120262639Y-72019628D01*
X120263232Y-72013741D01*
X123111702Y-72013741D01*
X123151494Y-72223335D01*
X123230202Y-72421622D01*
X123344985Y-72601449D01*
X123491702Y-72756327D01*
X123496567Y-72759817D01*
X123496570Y-72759819D01*
X123619499Y-72847990D01*
X123665058Y-72880667D01*
X123748109Y-72918954D01*
X123836572Y-72959736D01*
X123858799Y-72969983D01*
X123864615Y-72971417D01*
X123864618Y-72971418D01*
X123982920Y-73000585D01*
X124065934Y-73021052D01*
X124071924Y-73021361D01*
X124071926Y-73021361D01*
X124146712Y-73025215D01*
X124278989Y-73032031D01*
X124284924Y-73031202D01*
X124284928Y-73031202D01*
X124456097Y-73007298D01*
X124490276Y-73002525D01*
X124692172Y-72933597D01*
X124780388Y-72883177D01*
X124872187Y-72830710D01*
X124872192Y-72830707D01*
X124877391Y-72827735D01*
X125039251Y-72688760D01*
X125171911Y-72521684D01*
X125243286Y-72384866D01*
X125267813Y-72337849D01*
X125267813Y-72337848D01*
X125270584Y-72332537D01*
X125331711Y-72128145D01*
X125342639Y-72019628D01*
X125343232Y-72013741D01*
X125651702Y-72013741D01*
X125691494Y-72223335D01*
X125770202Y-72421622D01*
X125884985Y-72601449D01*
X126031702Y-72756327D01*
X126036567Y-72759817D01*
X126036570Y-72759819D01*
X126159499Y-72847990D01*
X126205058Y-72880667D01*
X126288109Y-72918954D01*
X126376572Y-72959736D01*
X126398799Y-72969983D01*
X126404615Y-72971417D01*
X126404618Y-72971418D01*
X126522920Y-73000585D01*
X126605934Y-73021052D01*
X126611924Y-73021361D01*
X126611926Y-73021361D01*
X126686712Y-73025215D01*
X126818989Y-73032031D01*
X126824924Y-73031202D01*
X126824928Y-73031202D01*
X126996097Y-73007298D01*
X127030276Y-73002525D01*
X127232172Y-72933597D01*
X127320388Y-72883177D01*
X127412187Y-72830710D01*
X127412192Y-72830707D01*
X127417391Y-72827735D01*
X127579251Y-72688760D01*
X127711911Y-72521684D01*
X127783286Y-72384866D01*
X127807813Y-72337849D01*
X127807813Y-72337848D01*
X127810584Y-72332537D01*
X127871711Y-72128145D01*
X127882639Y-72019628D01*
X127892777Y-71918944D01*
X127892777Y-71918935D01*
X127893085Y-71915881D01*
X127893100Y-71910000D01*
X127872838Y-71697627D01*
X127812782Y-71492917D01*
X127810032Y-71487577D01*
X127717847Y-71308587D01*
X127717845Y-71308584D01*
X127715101Y-71303256D01*
X127583317Y-71135488D01*
X127422187Y-70995667D01*
X127237525Y-70888837D01*
X127116132Y-70846682D01*
X127041667Y-70820823D01*
X127041664Y-70820822D01*
X127035993Y-70818853D01*
X126892888Y-70798104D01*
X126830803Y-70789102D01*
X126830800Y-70789102D01*
X126824863Y-70788241D01*
X126611754Y-70798104D01*
X126605930Y-70799508D01*
X126605927Y-70799508D01*
X126410187Y-70846682D01*
X126410185Y-70846683D01*
X126404354Y-70848088D01*
X126398896Y-70850570D01*
X126398892Y-70850571D01*
X126319066Y-70886866D01*
X126210148Y-70936388D01*
X126036143Y-71059819D01*
X126032001Y-71064146D01*
X125892766Y-71209592D01*
X125892762Y-71209597D01*
X125888618Y-71213926D01*
X125885364Y-71218965D01*
X125885362Y-71218968D01*
X125827496Y-71308587D01*
X125772895Y-71393150D01*
X125770651Y-71398719D01*
X125701570Y-71570130D01*
X125693150Y-71591022D01*
X125692002Y-71596903D01*
X125692000Y-71596908D01*
X125679696Y-71659914D01*
X125652260Y-71800405D01*
X125652244Y-71806390D01*
X125652244Y-71806394D01*
X125652195Y-71825304D01*
X125651702Y-72013741D01*
X125343232Y-72013741D01*
X125352777Y-71918944D01*
X125352777Y-71918935D01*
X125353085Y-71915881D01*
X125353100Y-71910000D01*
X125332838Y-71697627D01*
X125272782Y-71492917D01*
X125270032Y-71487577D01*
X125177847Y-71308587D01*
X125177845Y-71308584D01*
X125175101Y-71303256D01*
X125043317Y-71135488D01*
X124882187Y-70995667D01*
X124697525Y-70888837D01*
X124576132Y-70846682D01*
X124501667Y-70820823D01*
X124501664Y-70820822D01*
X124495993Y-70818853D01*
X124352888Y-70798104D01*
X124290803Y-70789102D01*
X124290800Y-70789102D01*
X124284863Y-70788241D01*
X124071754Y-70798104D01*
X124065930Y-70799508D01*
X124065927Y-70799508D01*
X123870187Y-70846682D01*
X123870185Y-70846683D01*
X123864354Y-70848088D01*
X123858896Y-70850570D01*
X123858892Y-70850571D01*
X123779066Y-70886866D01*
X123670148Y-70936388D01*
X123496143Y-71059819D01*
X123492001Y-71064146D01*
X123352766Y-71209592D01*
X123352762Y-71209597D01*
X123348618Y-71213926D01*
X123345364Y-71218965D01*
X123345362Y-71218968D01*
X123287496Y-71308587D01*
X123232895Y-71393150D01*
X123230651Y-71398719D01*
X123161570Y-71570130D01*
X123153150Y-71591022D01*
X123152002Y-71596903D01*
X123152000Y-71596908D01*
X123139696Y-71659914D01*
X123112260Y-71800405D01*
X123112244Y-71806390D01*
X123112244Y-71806394D01*
X123112195Y-71825304D01*
X123111702Y-72013741D01*
X120263232Y-72013741D01*
X120272777Y-71918944D01*
X120272777Y-71918935D01*
X120273085Y-71915881D01*
X120273100Y-71910000D01*
X120252838Y-71697627D01*
X120192782Y-71492917D01*
X120190032Y-71487577D01*
X120097847Y-71308587D01*
X120097845Y-71308584D01*
X120095101Y-71303256D01*
X119963317Y-71135488D01*
X119802187Y-70995667D01*
X119617525Y-70888837D01*
X119496132Y-70846682D01*
X119421667Y-70820823D01*
X119421664Y-70820822D01*
X119415993Y-70818853D01*
X119272888Y-70798104D01*
X119210803Y-70789102D01*
X119210800Y-70789102D01*
X119204863Y-70788241D01*
X118991754Y-70798104D01*
X118985930Y-70799508D01*
X118985927Y-70799508D01*
X118790187Y-70846682D01*
X118790185Y-70846683D01*
X118784354Y-70848088D01*
X118778896Y-70850570D01*
X118778892Y-70850571D01*
X118699066Y-70886866D01*
X118590148Y-70936388D01*
X118416143Y-71059819D01*
X118412001Y-71064146D01*
X118272766Y-71209592D01*
X118272762Y-71209597D01*
X118268618Y-71213926D01*
X118265364Y-71218965D01*
X118265362Y-71218968D01*
X118207496Y-71308587D01*
X118152895Y-71393150D01*
X118150651Y-71398719D01*
X118081570Y-71570130D01*
X118073150Y-71591022D01*
X118072002Y-71596903D01*
X118072000Y-71596908D01*
X118059696Y-71659914D01*
X118032260Y-71800405D01*
X118032244Y-71806390D01*
X118032244Y-71806394D01*
X118032195Y-71825304D01*
X118031702Y-72013741D01*
X117723232Y-72013741D01*
X117732777Y-71918944D01*
X117732777Y-71918935D01*
X117733085Y-71915881D01*
X117733100Y-71910000D01*
X117712838Y-71697627D01*
X117652782Y-71492917D01*
X117650032Y-71487577D01*
X117557847Y-71308587D01*
X117557845Y-71308584D01*
X117555101Y-71303256D01*
X117423317Y-71135488D01*
X117262187Y-70995667D01*
X117077525Y-70888837D01*
X116956132Y-70846682D01*
X116881667Y-70820823D01*
X116881664Y-70820822D01*
X116875993Y-70818853D01*
X116732888Y-70798104D01*
X116670803Y-70789102D01*
X116670800Y-70789102D01*
X116664863Y-70788241D01*
X116451754Y-70798104D01*
X116445930Y-70799508D01*
X116445927Y-70799508D01*
X116250187Y-70846682D01*
X116250185Y-70846683D01*
X116244354Y-70848088D01*
X116238896Y-70850570D01*
X116238892Y-70850571D01*
X116159066Y-70886866D01*
X116050148Y-70936388D01*
X115876143Y-71059819D01*
X115872001Y-71064146D01*
X115732766Y-71209592D01*
X115732762Y-71209597D01*
X115728618Y-71213926D01*
X115725364Y-71218965D01*
X115725362Y-71218968D01*
X115667496Y-71308587D01*
X115612895Y-71393150D01*
X115610651Y-71398719D01*
X115541570Y-71570130D01*
X115533150Y-71591022D01*
X115532002Y-71596903D01*
X115532000Y-71596908D01*
X115519696Y-71659914D01*
X115492260Y-71800405D01*
X115492244Y-71806390D01*
X115492244Y-71806394D01*
X115492195Y-71825304D01*
X115491702Y-72013741D01*
X115183232Y-72013741D01*
X115192777Y-71918944D01*
X115192777Y-71918935D01*
X115193085Y-71915881D01*
X115193100Y-71910000D01*
X115172838Y-71697627D01*
X115112782Y-71492917D01*
X115110032Y-71487577D01*
X115017847Y-71308587D01*
X115017845Y-71308584D01*
X115015101Y-71303256D01*
X114883317Y-71135488D01*
X114722187Y-70995667D01*
X114537525Y-70888837D01*
X114416132Y-70846682D01*
X114341667Y-70820823D01*
X114341664Y-70820822D01*
X114335993Y-70818853D01*
X114192888Y-70798104D01*
X114130803Y-70789102D01*
X114130800Y-70789102D01*
X114124863Y-70788241D01*
X113911754Y-70798104D01*
X113905930Y-70799508D01*
X113905927Y-70799508D01*
X113710187Y-70846682D01*
X113710185Y-70846683D01*
X113704354Y-70848088D01*
X113698896Y-70850570D01*
X113698892Y-70850571D01*
X113619066Y-70886866D01*
X113510148Y-70936388D01*
X113336143Y-71059819D01*
X113332001Y-71064146D01*
X113192766Y-71209592D01*
X113192762Y-71209597D01*
X113188618Y-71213926D01*
X113185364Y-71218965D01*
X113185362Y-71218968D01*
X113127496Y-71308587D01*
X113072895Y-71393150D01*
X113070651Y-71398719D01*
X113001570Y-71570130D01*
X112993150Y-71591022D01*
X112992002Y-71596903D01*
X112992000Y-71596908D01*
X112979696Y-71659914D01*
X112952260Y-71800405D01*
X112952244Y-71806390D01*
X112952244Y-71806394D01*
X112952195Y-71825304D01*
X112951702Y-72013741D01*
X110670239Y-72013741D01*
X110668005Y-72001976D01*
X110665795Y-71978149D01*
X110666165Y-71837321D01*
X110668501Y-71813504D01*
X110681622Y-71746311D01*
X110681622Y-71746308D01*
X110697353Y-71665757D01*
X110700182Y-71654201D01*
X110709367Y-71623119D01*
X110710220Y-71620234D01*
X110719354Y-71573136D01*
X110724000Y-71524777D01*
X110724000Y-70306000D01*
X110718196Y-70252010D01*
X110714374Y-70234440D01*
X110707170Y-70201322D01*
X110707168Y-70201315D01*
X110706810Y-70199668D01*
X110699616Y-70173445D01*
X110676403Y-70132680D01*
X110653638Y-70092702D01*
X110653635Y-70092698D01*
X110650575Y-70087324D01*
X110614697Y-70045918D01*
X110605922Y-70035791D01*
X110605917Y-70035786D01*
X110604082Y-70033668D01*
X110571498Y-70002227D01*
X110483681Y-69956291D01*
X110415560Y-69936289D01*
X110411101Y-69935648D01*
X110411097Y-69935647D01*
X110379780Y-69931145D01*
X110344000Y-69926000D01*
X105216000Y-69926000D01*
X105212653Y-69926360D01*
X105212649Y-69926360D01*
X105165374Y-69931442D01*
X105165367Y-69931443D01*
X105162010Y-69931804D01*
X105158710Y-69932522D01*
X105158709Y-69932522D01*
X105111322Y-69942830D01*
X105111315Y-69942832D01*
X105109668Y-69943190D01*
X105083445Y-69950384D01*
X105042680Y-69973597D01*
X105002702Y-69996362D01*
X105002698Y-69996365D01*
X104997324Y-69999425D01*
X104992647Y-70003478D01*
X104960055Y-70031719D01*
X104943668Y-70045918D01*
X104912227Y-70078502D01*
X104866291Y-70166319D01*
X104846289Y-70234440D01*
X104836000Y-70306000D01*
X104444000Y-70306000D01*
X104444000Y-69550000D01*
X104464002Y-69481879D01*
X104517658Y-69435386D01*
X104570000Y-69424000D01*
X142800000Y-69424000D01*
X142868121Y-69444002D01*
X142914614Y-69497658D01*
X142926000Y-69550000D01*
X142926000Y-83122527D01*
X142923589Y-83147059D01*
X142921000Y-83160102D01*
X142930871Y-83209623D01*
X142940715Y-83259115D01*
X142940744Y-83259158D01*
X142940754Y-83259209D01*
X142947708Y-83269608D01*
X142947710Y-83269612D01*
X142968765Y-83301096D01*
X142968794Y-83301138D01*
X142990178Y-83333143D01*
X142990180Y-83333145D01*
X142996859Y-83343141D01*
X142996902Y-83343170D01*
X142996931Y-83343213D01*
X143006901Y-83349869D01*
X143006902Y-83349870D01*
X143031372Y-83366206D01*
X143039028Y-83371317D01*
X143080885Y-83399285D01*
X143080936Y-83399295D01*
X143080979Y-83399324D01*
X143093295Y-83401769D01*
X143093296Y-83401769D01*
X143105327Y-83404157D01*
X143130743Y-83409202D01*
X143180000Y-83419000D01*
X143192171Y-83416579D01*
X143192172Y-83416579D01*
X143193037Y-83416407D01*
X143217569Y-83413985D01*
X145591117Y-83413053D01*
X147913319Y-83412141D01*
X150546080Y-83411107D01*
X155872480Y-83409015D01*
X155897109Y-83411436D01*
X155910000Y-83414000D01*
X155922171Y-83411579D01*
X155935187Y-83408990D01*
X155935237Y-83408990D01*
X155959485Y-83404157D01*
X155996809Y-83396733D01*
X155996810Y-83396733D01*
X156009115Y-83394285D01*
X156009158Y-83394256D01*
X156009209Y-83394246D01*
X156019605Y-83387294D01*
X156019609Y-83387292D01*
X156051096Y-83366235D01*
X156051138Y-83366206D01*
X156083143Y-83344822D01*
X156083145Y-83344820D01*
X156093141Y-83338141D01*
X156093170Y-83338098D01*
X156093213Y-83338069D01*
X156121317Y-83295972D01*
X156149285Y-83254115D01*
X156149295Y-83254064D01*
X156149324Y-83254021D01*
X156159162Y-83204459D01*
X156164000Y-83180137D01*
X156164000Y-83180087D01*
X156169000Y-83154898D01*
X156166431Y-83142009D01*
X156164000Y-83117379D01*
X156164000Y-69545362D01*
X156184002Y-69477241D01*
X156237658Y-69430748D01*
X156290120Y-69419362D01*
X157429382Y-69420445D01*
G37*
%TD.AperFunction*%
%TA.AperFunction,Conductor*%
G36*
X118891843Y-90399502D02*
G01*
X118893248Y-90400515D01*
X118893260Y-90400496D01*
X118898438Y-90403889D01*
X118903256Y-90407772D01*
X118911312Y-90411986D01*
X118911179Y-90412240D01*
X118912264Y-90412951D01*
X118912456Y-90412584D01*
X118975970Y-90445808D01*
X118991074Y-90453709D01*
X118997012Y-90455452D01*
X118997013Y-90455453D01*
X119014843Y-90460688D01*
X119059195Y-90473711D01*
X119063654Y-90474352D01*
X119063658Y-90474353D01*
X119091953Y-90478421D01*
X119130755Y-90484000D01*
X124565059Y-90484000D01*
X124568341Y-90483654D01*
X124568344Y-90483654D01*
X124614719Y-90478767D01*
X124614722Y-90478767D01*
X124618001Y-90478421D01*
X124621217Y-90477736D01*
X124621221Y-90477735D01*
X124632905Y-90475245D01*
X124656239Y-90470272D01*
X124727031Y-90475636D01*
X124783686Y-90518423D01*
X124808216Y-90585047D01*
X124808500Y-90593505D01*
X124808500Y-95469787D01*
X124788498Y-95537908D01*
X124771595Y-95558882D01*
X119698882Y-100631595D01*
X119636570Y-100665621D01*
X119609787Y-100668500D01*
X119252498Y-100668500D01*
X119184377Y-100648498D01*
X119137884Y-100594842D01*
X119130035Y-100527462D01*
X119127686Y-100527231D01*
X119128293Y-100521068D01*
X119129500Y-100515000D01*
X119129500Y-99985000D01*
X119109747Y-99885694D01*
X119110942Y-99885456D01*
X119104725Y-99827627D01*
X119107766Y-99817271D01*
X119109747Y-99814306D01*
X119129500Y-99715000D01*
X119129500Y-99185000D01*
X119109747Y-99085694D01*
X119053494Y-99001506D01*
X118969306Y-98945253D01*
X118870000Y-98925500D01*
X116870000Y-98925500D01*
X116770694Y-98945253D01*
X116686506Y-99001506D01*
X116630253Y-99085694D01*
X116610500Y-99185000D01*
X116610500Y-99715000D01*
X116611707Y-99721068D01*
X116630253Y-99814306D01*
X116629058Y-99814544D01*
X116635275Y-99872373D01*
X116632234Y-99882729D01*
X116630253Y-99885694D01*
X116610500Y-99985000D01*
X116610500Y-100515000D01*
X116611707Y-100521068D01*
X116630253Y-100614306D01*
X116629058Y-100614544D01*
X116635275Y-100672373D01*
X116632234Y-100682729D01*
X116630253Y-100685694D01*
X116610500Y-100785000D01*
X116610500Y-101076818D01*
X116590498Y-101144939D01*
X116536842Y-101191432D01*
X116484810Y-101202818D01*
X116005072Y-101203997D01*
X115570309Y-101205066D01*
X115502140Y-101185231D01*
X115455515Y-101131690D01*
X115444000Y-101079066D01*
X115444000Y-97242593D01*
X115464002Y-97174472D01*
X115517658Y-97127979D01*
X115570857Y-97116596D01*
X115607016Y-97116842D01*
X116528198Y-97123109D01*
X116528201Y-97123109D01*
X116531606Y-97123132D01*
X116586295Y-97117555D01*
X116589638Y-97116842D01*
X116589640Y-97116842D01*
X116637631Y-97106611D01*
X116637648Y-97106607D01*
X116639322Y-97106250D01*
X116666212Y-97098955D01*
X116752407Y-97050043D01*
X116757091Y-97045996D01*
X116757096Y-97045993D01*
X116803993Y-97005479D01*
X116803995Y-97005477D01*
X116806132Y-97003631D01*
X116837620Y-96971097D01*
X116861747Y-96925142D01*
X116880813Y-96888829D01*
X116880815Y-96888824D01*
X116883689Y-96883350D01*
X116903794Y-96815260D01*
X116914191Y-96743713D01*
X116915160Y-96100310D01*
X116935265Y-96032220D01*
X116988990Y-95985808D01*
X117041160Y-95974500D01*
X118870000Y-95974500D01*
X118969306Y-95954747D01*
X119053494Y-95898494D01*
X119109747Y-95814306D01*
X119129500Y-95715000D01*
X119129500Y-95185000D01*
X119109747Y-95085694D01*
X119110942Y-95085456D01*
X119104725Y-95027627D01*
X119107766Y-95017271D01*
X119109747Y-95014306D01*
X119129500Y-94915000D01*
X119129500Y-94385000D01*
X119109747Y-94285694D01*
X119110942Y-94285456D01*
X119104725Y-94227627D01*
X119107766Y-94217271D01*
X119109747Y-94214306D01*
X119129500Y-94115000D01*
X119129500Y-93585000D01*
X119109747Y-93485694D01*
X119110942Y-93485456D01*
X119104725Y-93427627D01*
X119107766Y-93417271D01*
X119109747Y-93414306D01*
X119129500Y-93315000D01*
X119129500Y-92785000D01*
X119109747Y-92685694D01*
X119110942Y-92685456D01*
X119104725Y-92627627D01*
X119107766Y-92617271D01*
X119109747Y-92614306D01*
X119129500Y-92515000D01*
X119129500Y-91985000D01*
X119109747Y-91885694D01*
X119110942Y-91885456D01*
X119104725Y-91827627D01*
X119107766Y-91817271D01*
X119109747Y-91814306D01*
X119129500Y-91715000D01*
X119129500Y-91185000D01*
X119109747Y-91085694D01*
X119053494Y-91001506D01*
X118969306Y-90945253D01*
X118870000Y-90925500D01*
X116990500Y-90925500D01*
X116922379Y-90905498D01*
X116875886Y-90851842D01*
X116864500Y-90799500D01*
X116864500Y-90505500D01*
X116884502Y-90437379D01*
X116938158Y-90390886D01*
X116990500Y-90379500D01*
X118823722Y-90379500D01*
X118891843Y-90399502D01*
G37*
%TD.AperFunction*%
%TA.AperFunction,Conductor*%
G36*
X124190973Y-84610298D02*
G01*
X124234416Y-84618585D01*
X124259047Y-84623284D01*
X124289078Y-84633041D01*
X124354945Y-84664035D01*
X124371131Y-84673557D01*
X124371190Y-84673461D01*
X124429243Y-84709549D01*
X124490573Y-84737026D01*
X124492978Y-84737876D01*
X124521273Y-84747878D01*
X124521275Y-84747878D01*
X124529532Y-84750797D01*
X124538273Y-84751340D01*
X124538275Y-84751340D01*
X124574418Y-84753583D01*
X124628447Y-84756937D01*
X124634576Y-84756109D01*
X124634591Y-84756108D01*
X124665622Y-84751913D01*
X124735808Y-84762609D01*
X124789069Y-84809554D01*
X124808500Y-84876777D01*
X124808500Y-85153688D01*
X124788498Y-85221809D01*
X124734842Y-85268302D01*
X124661723Y-85277963D01*
X124632283Y-85273041D01*
X124632280Y-85273041D01*
X124629513Y-85272578D01*
X124607951Y-85270927D01*
X124593356Y-85269809D01*
X124593354Y-85269809D01*
X124584368Y-85269121D01*
X124575555Y-85270992D01*
X124575552Y-85270992D01*
X124502503Y-85286499D01*
X124487423Y-85289700D01*
X124481741Y-85292139D01*
X124481739Y-85292140D01*
X124441804Y-85309285D01*
X124422185Y-85317708D01*
X124399278Y-85331700D01*
X124380848Y-85342957D01*
X124368822Y-85349435D01*
X124303863Y-85380002D01*
X124289083Y-85386957D01*
X124259047Y-85396716D01*
X124225010Y-85403209D01*
X124190974Y-85409702D01*
X124159452Y-85411685D01*
X124134290Y-85410102D01*
X124124868Y-85409509D01*
X124124864Y-85409509D01*
X124102188Y-85408083D01*
X124090277Y-85407333D01*
X124059257Y-85401416D01*
X123993340Y-85379999D01*
X123964773Y-85366556D01*
X123906248Y-85329415D01*
X123881916Y-85309285D01*
X123861538Y-85287584D01*
X123861534Y-85287580D01*
X123852503Y-85277963D01*
X123834473Y-85258764D01*
X123815908Y-85233211D01*
X123809640Y-85221809D01*
X123782518Y-85172474D01*
X123770893Y-85143111D01*
X123767675Y-85130575D01*
X123753659Y-85075989D01*
X123749700Y-85044654D01*
X123749700Y-84975346D01*
X123753659Y-84944011D01*
X123770893Y-84876889D01*
X123782519Y-84847524D01*
X123797929Y-84819494D01*
X123815908Y-84786789D01*
X123834473Y-84761236D01*
X123881914Y-84710717D01*
X123906250Y-84690585D01*
X123964770Y-84653447D01*
X123993348Y-84639999D01*
X124059254Y-84618585D01*
X124090277Y-84612667D01*
X124102188Y-84611917D01*
X124124864Y-84610491D01*
X124124868Y-84610491D01*
X124134290Y-84609898D01*
X124159452Y-84608315D01*
X124190973Y-84610298D01*
G37*
%TD.AperFunction*%
%TD*%
%TA.AperFunction,Conductor*%
%TO.N,5V*%
G36*
X110412121Y-70200002D02*
G01*
X110458614Y-70253658D01*
X110470000Y-70306000D01*
X110470000Y-71524777D01*
X110460866Y-71571875D01*
X110455393Y-71585454D01*
X110455390Y-71585463D01*
X110453150Y-71591022D01*
X110452002Y-71596903D01*
X110452000Y-71596908D01*
X110432331Y-71697627D01*
X110412260Y-71800405D01*
X110411702Y-72013741D01*
X110451494Y-72223335D01*
X110453706Y-72228907D01*
X110461111Y-72247563D01*
X110470000Y-72294049D01*
X110470000Y-74064777D01*
X110460866Y-74111875D01*
X110455393Y-74125454D01*
X110455390Y-74125463D01*
X110453150Y-74131022D01*
X110452002Y-74136903D01*
X110452000Y-74136908D01*
X110433456Y-74231866D01*
X110412260Y-74340405D01*
X110411702Y-74553741D01*
X110451494Y-74763335D01*
X110453706Y-74768907D01*
X110461111Y-74787563D01*
X110470000Y-74834049D01*
X110470000Y-76554000D01*
X110449998Y-76622121D01*
X110396342Y-76668614D01*
X110344000Y-76680000D01*
X109380000Y-76680000D01*
X109380000Y-77001027D01*
X109359998Y-77069148D01*
X109350114Y-77081413D01*
X109344898Y-77084898D01*
X109337202Y-77096415D01*
X109334500Y-77110000D01*
X109334500Y-78110000D01*
X109337202Y-78123585D01*
X109344898Y-78135102D01*
X109346551Y-78136206D01*
X109377121Y-78192190D01*
X109380000Y-78218973D01*
X109380000Y-79414000D01*
X109359998Y-79482121D01*
X109306342Y-79528614D01*
X109254000Y-79540000D01*
X107886000Y-79540000D01*
X107817879Y-79519998D01*
X107771386Y-79466342D01*
X107760000Y-79414000D01*
X107760000Y-75032557D01*
X107780002Y-74964436D01*
X107833658Y-74917943D01*
X107903932Y-74907839D01*
X107968512Y-74937333D01*
X107992208Y-74964765D01*
X108104985Y-75141449D01*
X108251702Y-75296327D01*
X108256567Y-75299817D01*
X108256570Y-75299819D01*
X108420188Y-75417174D01*
X108425058Y-75420667D01*
X108430503Y-75423177D01*
X108590841Y-75497094D01*
X108618799Y-75509983D01*
X108624615Y-75511417D01*
X108624618Y-75511418D01*
X108742920Y-75540585D01*
X108825934Y-75561052D01*
X108831924Y-75561361D01*
X108831926Y-75561361D01*
X108906712Y-75565215D01*
X109038989Y-75572031D01*
X109044924Y-75571202D01*
X109044928Y-75571202D01*
X109211779Y-75547901D01*
X109250276Y-75542525D01*
X109452172Y-75473597D01*
X109544780Y-75420667D01*
X109632187Y-75370710D01*
X109632192Y-75370707D01*
X109637391Y-75367735D01*
X109799251Y-75228760D01*
X109931911Y-75061684D01*
X110030584Y-74872537D01*
X110091711Y-74668145D01*
X110102639Y-74559628D01*
X110112777Y-74458944D01*
X110112777Y-74458935D01*
X110113085Y-74455881D01*
X110113100Y-74450000D01*
X110092838Y-74237627D01*
X110032782Y-74032917D01*
X110030032Y-74027577D01*
X109937847Y-73848587D01*
X109937845Y-73848584D01*
X109935101Y-73843256D01*
X109803317Y-73675488D01*
X109642187Y-73535667D01*
X109457525Y-73428837D01*
X109336132Y-73386682D01*
X109261667Y-73360823D01*
X109261664Y-73360822D01*
X109255993Y-73358853D01*
X109112888Y-73338104D01*
X109050803Y-73329102D01*
X109050800Y-73329102D01*
X109044863Y-73328241D01*
X108831754Y-73338104D01*
X108825930Y-73339508D01*
X108825927Y-73339508D01*
X108630187Y-73386682D01*
X108630185Y-73386683D01*
X108624354Y-73388088D01*
X108618896Y-73390570D01*
X108618892Y-73390571D01*
X108591763Y-73402906D01*
X108430148Y-73476388D01*
X108256143Y-73599819D01*
X108252001Y-73604146D01*
X108112766Y-73749592D01*
X108112762Y-73749597D01*
X108108618Y-73753926D01*
X108105364Y-73758965D01*
X108105362Y-73758968D01*
X108047496Y-73848587D01*
X107992895Y-73933150D01*
X107991025Y-73931943D01*
X107948754Y-73976076D01*
X107879721Y-73992658D01*
X107812682Y-73969287D01*
X107768920Y-73913381D01*
X107760000Y-73866815D01*
X107760000Y-72920000D01*
X105216000Y-72920000D01*
X105147879Y-72899998D01*
X105101386Y-72846342D01*
X105090000Y-72794000D01*
X105090000Y-70306000D01*
X105110002Y-70237879D01*
X105163658Y-70191386D01*
X105216000Y-70180000D01*
X110344000Y-70180000D01*
X110412121Y-70200002D01*
G37*
%TD.AperFunction*%
%TD*%
%TA.AperFunction,Conductor*%
%TO.N,3V3*%
G36*
X124711339Y-79820434D02*
G01*
X124758226Y-79873746D01*
X124770000Y-79926930D01*
X124770000Y-80759409D01*
X124769996Y-80760473D01*
X124739409Y-84381293D01*
X124739405Y-84381728D01*
X124718828Y-84449678D01*
X124664781Y-84495716D01*
X124594424Y-84505226D01*
X124533094Y-84477749D01*
X124509487Y-84458220D01*
X124503378Y-84453166D01*
X124353797Y-84382778D01*
X124346014Y-84381293D01*
X124346013Y-84381293D01*
X124199196Y-84353286D01*
X124199194Y-84353286D01*
X124191410Y-84351801D01*
X124108916Y-84356992D01*
X124034333Y-84361684D01*
X124034331Y-84361684D01*
X124026422Y-84362182D01*
X124018886Y-84364631D01*
X124018884Y-84364631D01*
X123876741Y-84410816D01*
X123876738Y-84410817D01*
X123869199Y-84413267D01*
X123729619Y-84501847D01*
X123724192Y-84507626D01*
X123724191Y-84507627D01*
X123634838Y-84602778D01*
X123616453Y-84622356D01*
X123536812Y-84767222D01*
X123495700Y-84927343D01*
X123495700Y-85092657D01*
X123536812Y-85252778D01*
X123616453Y-85397644D01*
X123621877Y-85403420D01*
X123676380Y-85461459D01*
X123729619Y-85518153D01*
X123869199Y-85606733D01*
X123876738Y-85609183D01*
X123876741Y-85609184D01*
X124018884Y-85655369D01*
X124018886Y-85655369D01*
X124026422Y-85657818D01*
X124034331Y-85658316D01*
X124034333Y-85658316D01*
X124108916Y-85663008D01*
X124191410Y-85668199D01*
X124199194Y-85666714D01*
X124199196Y-85666714D01*
X124346013Y-85638707D01*
X124346014Y-85638707D01*
X124353797Y-85637222D01*
X124503378Y-85566834D01*
X124510807Y-85560688D01*
X124522388Y-85551108D01*
X124587626Y-85523100D01*
X124657651Y-85534808D01*
X124710229Y-85582516D01*
X124728697Y-85649259D01*
X124728541Y-85667701D01*
X124691055Y-90105064D01*
X124670478Y-90173014D01*
X124616431Y-90219052D01*
X124565059Y-90230000D01*
X119130755Y-90230000D01*
X119062634Y-90209998D01*
X119055124Y-90203946D01*
X119053494Y-90201506D01*
X118969306Y-90145253D01*
X118870000Y-90125500D01*
X116870000Y-90125500D01*
X116770694Y-90145253D01*
X116686506Y-90201506D01*
X116630253Y-90285694D01*
X116610500Y-90385000D01*
X116610500Y-90915000D01*
X116611707Y-90921068D01*
X116630253Y-91014306D01*
X116629058Y-91014544D01*
X116635275Y-91072373D01*
X116632234Y-91082729D01*
X116630253Y-91085694D01*
X116610500Y-91185000D01*
X116610500Y-91715000D01*
X116611707Y-91721068D01*
X116630253Y-91814306D01*
X116629058Y-91814544D01*
X116635275Y-91872373D01*
X116632234Y-91882729D01*
X116630253Y-91885694D01*
X116610500Y-91985000D01*
X116610500Y-92515000D01*
X116611707Y-92521068D01*
X116630253Y-92614306D01*
X116629058Y-92614544D01*
X116635275Y-92672373D01*
X116632234Y-92682729D01*
X116630253Y-92685694D01*
X116610500Y-92785000D01*
X116610500Y-93315000D01*
X116611707Y-93321068D01*
X116630253Y-93414306D01*
X116629058Y-93414544D01*
X116635275Y-93472373D01*
X116632234Y-93482729D01*
X116630253Y-93485694D01*
X116610500Y-93585000D01*
X116610500Y-94115000D01*
X116611707Y-94121068D01*
X116630253Y-94214306D01*
X116629058Y-94214544D01*
X116635275Y-94272373D01*
X116632234Y-94282729D01*
X116630253Y-94285694D01*
X116610500Y-94385000D01*
X116610500Y-94915000D01*
X116611707Y-94921068D01*
X116630253Y-95014306D01*
X116629058Y-95014544D01*
X116635275Y-95072373D01*
X116632234Y-95082729D01*
X116630253Y-95085694D01*
X116610500Y-95185000D01*
X116610500Y-95715000D01*
X116630253Y-95814306D01*
X116637148Y-95824625D01*
X116640227Y-95829233D01*
X116661461Y-95899424D01*
X116660191Y-96743331D01*
X116640086Y-96811421D01*
X116586361Y-96857833D01*
X116533334Y-96869138D01*
X115208116Y-96860123D01*
X115208115Y-96860123D01*
X115190000Y-96860000D01*
X115190000Y-101460000D01*
X115203620Y-101459967D01*
X115203622Y-101459967D01*
X116595482Y-101456547D01*
X116663652Y-101476382D01*
X116681106Y-101490413D01*
X116686506Y-101498494D01*
X116770694Y-101554747D01*
X116870000Y-101574500D01*
X118870000Y-101574500D01*
X118969306Y-101554747D01*
X119053494Y-101498494D01*
X119053727Y-101498843D01*
X119107217Y-101469634D01*
X119178032Y-101474699D01*
X119234868Y-101517246D01*
X119259679Y-101583766D01*
X119260000Y-101592755D01*
X119260000Y-102107245D01*
X119239998Y-102175366D01*
X119186342Y-102221859D01*
X119116068Y-102231963D01*
X119055301Y-102204210D01*
X119053494Y-102201506D01*
X119043177Y-102194612D01*
X119007913Y-102171050D01*
X118969306Y-102145253D01*
X118870000Y-102125500D01*
X116870000Y-102125500D01*
X116770694Y-102145253D01*
X116686506Y-102201506D01*
X116679613Y-102211822D01*
X116679612Y-102211823D01*
X116678157Y-102214001D01*
X116673756Y-102217679D01*
X116670835Y-102220600D01*
X116670574Y-102220339D01*
X116623681Y-102259529D01*
X116573391Y-102270000D01*
X115200000Y-102270000D01*
X115200000Y-112630000D01*
X116573391Y-112630000D01*
X116641512Y-112650002D01*
X116678157Y-112685999D01*
X116686506Y-112698494D01*
X116770694Y-112754747D01*
X116870000Y-112774500D01*
X118870000Y-112774500D01*
X118969306Y-112754747D01*
X119053494Y-112698494D01*
X119061843Y-112685999D01*
X119066244Y-112682321D01*
X119069165Y-112679400D01*
X119069426Y-112679661D01*
X119116319Y-112640471D01*
X119166609Y-112630000D01*
X119214000Y-112630000D01*
X119282121Y-112650002D01*
X119328614Y-112703658D01*
X119340000Y-112756000D01*
X119340000Y-113954000D01*
X119319998Y-114022121D01*
X119266342Y-114068614D01*
X119214000Y-114080000D01*
X114680929Y-114080000D01*
X114612808Y-114059998D01*
X114566315Y-114006342D01*
X114556155Y-113936464D01*
X114578633Y-113776527D01*
X114578634Y-113776519D01*
X114579184Y-113772603D01*
X114579500Y-113750000D01*
X114559383Y-113570656D01*
X114500033Y-113400227D01*
X114439145Y-113302784D01*
X114420000Y-113236017D01*
X114420000Y-113070000D01*
X114374214Y-113069564D01*
X114232426Y-113068213D01*
X114166113Y-113048605D01*
X114139159Y-113031500D01*
X114124861Y-113022426D01*
X114055265Y-112997644D01*
X113961485Y-112964250D01*
X113961480Y-112964249D01*
X113954850Y-112961888D01*
X113947864Y-112961055D01*
X113947860Y-112961054D01*
X113819279Y-112945722D01*
X113775651Y-112940520D01*
X113768648Y-112941256D01*
X113768647Y-112941256D01*
X113720007Y-112946368D01*
X113596172Y-112959384D01*
X113589506Y-112961653D01*
X113589503Y-112961654D01*
X113536606Y-112979662D01*
X113465673Y-112982680D01*
X113404369Y-112946870D01*
X113372158Y-112883601D01*
X113370000Y-112860384D01*
X113370000Y-112081713D01*
X113390002Y-112013592D01*
X113406905Y-111992618D01*
X113510572Y-111888951D01*
X113572884Y-111854925D01*
X113607576Y-111852295D01*
X113701410Y-111858199D01*
X113709194Y-111856714D01*
X113709196Y-111856714D01*
X113856013Y-111828707D01*
X113856014Y-111828707D01*
X113863797Y-111827222D01*
X114013378Y-111756834D01*
X114019483Y-111751784D01*
X114019487Y-111751781D01*
X114134647Y-111656512D01*
X114140755Y-111651459D01*
X114153692Y-111633652D01*
X114233265Y-111524130D01*
X114233266Y-111524128D01*
X114237924Y-111517717D01*
X114242032Y-111507343D01*
X114295864Y-111371379D01*
X114295864Y-111371377D01*
X114298781Y-111364011D01*
X114299870Y-111355395D01*
X114318506Y-111207868D01*
X114319500Y-111200000D01*
X114298781Y-111035989D01*
X114237924Y-110882283D01*
X114140755Y-110748541D01*
X114044002Y-110668500D01*
X114019487Y-110648219D01*
X114019483Y-110648216D01*
X114013378Y-110643166D01*
X113863797Y-110572778D01*
X113856014Y-110571293D01*
X113856013Y-110571293D01*
X113709196Y-110543286D01*
X113709194Y-110543286D01*
X113701410Y-110541801D01*
X113591874Y-110548693D01*
X113544336Y-110551684D01*
X113536422Y-110552182D01*
X113528884Y-110554631D01*
X113527648Y-110554867D01*
X113456986Y-110547982D01*
X113401263Y-110503987D01*
X113383521Y-110465715D01*
X113383186Y-110463060D01*
X113378847Y-110452101D01*
X113370000Y-110405719D01*
X113370000Y-109150000D01*
X111013843Y-109141380D01*
X110945796Y-109121129D01*
X110909539Y-109085383D01*
X110908510Y-109083842D01*
X110853494Y-109001506D01*
X110769306Y-108945253D01*
X110670000Y-108925500D01*
X108670000Y-108925500D01*
X108570694Y-108945253D01*
X108486506Y-109001506D01*
X108479613Y-109011822D01*
X108470836Y-109020599D01*
X108469836Y-109019599D01*
X108425731Y-109056458D01*
X108390251Y-109066055D01*
X108383674Y-109066833D01*
X108376967Y-109067627D01*
X108370336Y-109068018D01*
X108370340Y-109068072D01*
X108365163Y-109068500D01*
X108359960Y-109068500D01*
X108339190Y-109071957D01*
X108333329Y-109072791D01*
X108292510Y-109077622D01*
X108292509Y-109077622D01*
X108282170Y-109078846D01*
X108273877Y-109082828D01*
X108264806Y-109084338D01*
X108219468Y-109108801D01*
X108214203Y-109111483D01*
X108199656Y-109118468D01*
X108144656Y-109130883D01*
X107495520Y-109128508D01*
X105295294Y-109120458D01*
X105227247Y-109100207D01*
X105180951Y-109046382D01*
X105169755Y-108994705D01*
X105166812Y-107488180D01*
X105143978Y-95802134D01*
X105116041Y-81504428D01*
X105135910Y-81436268D01*
X105189475Y-81389671D01*
X105242588Y-81378183D01*
X107415793Y-81387632D01*
X107427880Y-81378828D01*
X107439406Y-81375498D01*
X107476324Y-81370562D01*
X107497045Y-81370882D01*
X107540340Y-81371552D01*
X107586609Y-81381127D01*
X107590787Y-81382858D01*
X107601107Y-81389753D01*
X107630000Y-81395500D01*
X109088022Y-81395500D01*
X109089970Y-81395515D01*
X109255948Y-81398082D01*
X109323752Y-81419135D01*
X109369409Y-81473503D01*
X109380000Y-81524067D01*
X109380000Y-84824000D01*
X109359998Y-84892121D01*
X109306342Y-84938614D01*
X109254000Y-84950000D01*
X107600000Y-84950000D01*
X107600000Y-105722500D01*
X107579998Y-105790621D01*
X107526342Y-105837114D01*
X107474000Y-105848500D01*
X106849960Y-105848500D01*
X106754806Y-105864338D01*
X106745640Y-105869284D01*
X106745636Y-105869285D01*
X106726912Y-105879388D01*
X106667081Y-105894500D01*
X106380000Y-105894500D01*
X106366415Y-105897202D01*
X106354898Y-105904898D01*
X106347202Y-105916415D01*
X106344500Y-105930000D01*
X106344500Y-106530000D01*
X106347202Y-106543585D01*
X106354898Y-106555102D01*
X106366415Y-106562798D01*
X106380000Y-106565500D01*
X106663228Y-106565500D01*
X106704976Y-106572617D01*
X106813549Y-106610745D01*
X106822267Y-106611500D01*
X107474000Y-106611500D01*
X107542121Y-106631502D01*
X107588614Y-106685158D01*
X107600000Y-106737500D01*
X107600000Y-107390000D01*
X108342373Y-107384880D01*
X108410629Y-107404412D01*
X108448006Y-107440875D01*
X108486506Y-107498494D01*
X108570694Y-107554747D01*
X108670000Y-107574500D01*
X110670000Y-107574500D01*
X110769306Y-107554747D01*
X110853494Y-107498494D01*
X110904280Y-107422489D01*
X110958757Y-107376962D01*
X111008173Y-107366495D01*
X113054475Y-107352383D01*
X113381883Y-107350125D01*
X113400000Y-107350000D01*
X113401255Y-106611327D01*
X113417802Y-96864494D01*
X113419763Y-95709424D01*
X113439881Y-95641338D01*
X113493615Y-95594937D01*
X113558689Y-95584304D01*
X115650000Y-95800000D01*
X115650000Y-89156000D01*
X115670002Y-89087879D01*
X115723658Y-89041386D01*
X115776000Y-89030000D01*
X122520000Y-89030000D01*
X122520000Y-82512190D01*
X122540002Y-82444069D01*
X122556905Y-82423095D01*
X123430000Y-81550000D01*
X123430000Y-80340000D01*
X123414898Y-79939793D01*
X123432317Y-79870967D01*
X123484181Y-79822484D01*
X123539882Y-79809045D01*
X123595042Y-79808639D01*
X124643075Y-79800933D01*
X124711339Y-79820434D01*
G37*
%TD.AperFunction*%
%TD*%
M02*
