%TF.GenerationSoftware,KiCad,Pcbnew,5.1.9-73d0e3b20d~88~ubuntu20.04.1*%
%TF.CreationDate,2021-01-21T22:19:02+01:00*%
%TF.ProjectId,pi-hat-lorawan-gateway-minipci,70692d68-6174-42d6-9c6f-726177616e2d,rev?*%
%TF.SameCoordinates,Original*%
%TF.FileFunction,Copper,L1,Top*%
%TF.FilePolarity,Positive*%
%FSLAX46Y46*%
G04 Gerber Fmt 4.6, Leading zero omitted, Abs format (unit mm)*
G04 Created by KiCad (PCBNEW 5.1.9-73d0e3b20d~88~ubuntu20.04.1) date 2021-01-21 22:19:02*
%MOMM*%
%LPD*%
G01*
G04 APERTURE LIST*
%TA.AperFunction,ComponentPad*%
%ADD10R,1.727200X1.727200*%
%TD*%
%TA.AperFunction,ComponentPad*%
%ADD11O,1.727200X1.727200*%
%TD*%
%TA.AperFunction,SMDPad,CuDef*%
%ADD12R,3.200000X2.300000*%
%TD*%
%TA.AperFunction,SMDPad,CuDef*%
%ADD13R,2.000000X0.530000*%
%TD*%
%TA.AperFunction,SMDPad,CuDef*%
%ADD14R,0.600000X1.000000*%
%TD*%
%TA.AperFunction,SMDPad,CuDef*%
%ADD15R,1.000000X0.600000*%
%TD*%
%TA.AperFunction,SMDPad,CuDef*%
%ADD16R,0.450000X0.630000*%
%TD*%
%TA.AperFunction,SMDPad,CuDef*%
%ADD17R,2.600000X1.700000*%
%TD*%
%TA.AperFunction,ViaPad*%
%ADD18C,0.800000*%
%TD*%
%TA.AperFunction,Conductor*%
%ADD19C,0.254000*%
%TD*%
%TA.AperFunction,Conductor*%
%ADD20C,0.508000*%
%TD*%
%TA.AperFunction,Conductor*%
%ADD21C,0.150000*%
%TD*%
G04 APERTURE END LIST*
D10*
%TO.P,Con1,1*%
%TO.N,3V3*%
X106450000Y-74450000D03*
D11*
%TO.P,Con1,2*%
%TO.N,5V*%
X106450000Y-71910000D03*
%TO.P,Con1,6*%
%TO.N,GND*%
X111530000Y-71910000D03*
%TO.P,Con1,8*%
%TO.N,/GPIO14(TXD)*%
X114070000Y-71910000D03*
%TO.P,Con1,17*%
%TO.N,3V3*%
X126770000Y-74450000D03*
%TO.P,Con1,16*%
%TO.N,/GPIO23*%
X124230000Y-71910000D03*
%TO.P,Con1,15*%
%TO.N,/GPIO22*%
X124230000Y-74450000D03*
%TO.P,Con1,14*%
%TO.N,GND*%
X121690000Y-71910000D03*
%TO.P,Con1,13*%
%TO.N,/GPIO21*%
X121690000Y-74450000D03*
%TO.P,Con1,12*%
%TO.N,/GPIO18(PWM)*%
X119150000Y-71910000D03*
%TO.P,Con1,11*%
%TO.N,/GPIO17(RTS)*%
X119150000Y-74450000D03*
%TO.P,Con1,10*%
%TO.N,/GPIO15(RXD)*%
X116610000Y-71910000D03*
%TO.P,Con1,9*%
%TO.N,GND*%
X116610000Y-74450000D03*
%TO.P,Con1,5*%
%TO.N,/GPIO1(SCL)*%
X111530000Y-74450000D03*
%TO.P,Con1,4*%
%TO.N,5V*%
X108990000Y-71910000D03*
%TO.P,Con1,3*%
%TO.N,/GPIO0(SDA)*%
X108990000Y-74450000D03*
%TO.P,Con1,7*%
%TO.N,/GPIO4*%
X114070000Y-74450000D03*
%TO.P,Con1,26*%
%TO.N,/GPIO7(CE1)*%
X136930000Y-71910000D03*
%TO.P,Con1,25*%
%TO.N,GND*%
X136930000Y-74450000D03*
%TO.P,Con1,24*%
%TO.N,/GPIO8(CE0)*%
X134390000Y-71910000D03*
%TO.P,Con1,23*%
%TO.N,/GPIO11(SCLK)*%
X134390000Y-74450000D03*
%TO.P,Con1,22*%
%TO.N,/GPIO25*%
X131850000Y-71910000D03*
%TO.P,Con1,21*%
%TO.N,/GPIO9(MISO)*%
X131850000Y-74450000D03*
%TO.P,Con1,20*%
%TO.N,GND*%
X129310000Y-71910000D03*
%TO.P,Con1,19*%
%TO.N,/GPIO10(MOSI)*%
X129310000Y-74450000D03*
%TO.P,Con1,18*%
%TO.N,/GPIO24*%
X126770000Y-71910000D03*
%TD*%
D12*
%TO.P,Con2,0*%
%TO.N,N/C*%
X110270000Y-115900000D03*
D13*
%TO.P,Con2,51*%
X109670000Y-112650000D03*
%TO.P,Con2,49*%
X109670000Y-111850000D03*
%TO.P,Con2,47*%
X109670000Y-111050000D03*
%TO.P,Con2,45*%
%TO.N,/GPIO23*%
X109670000Y-110250000D03*
%TO.P,Con2,43*%
%TO.N,GND*%
X109670000Y-109450000D03*
%TO.P,Con2,41*%
%TO.N,3V3*%
X109670000Y-108650000D03*
%TO.P,Con2,39*%
X109670000Y-107850000D03*
%TO.P,Con2,37*%
%TO.N,GND*%
X109670000Y-107050000D03*
%TO.P,Con2,35*%
X109670000Y-106250000D03*
%TO.P,Con2,33*%
%TO.N,/GPIO7(CE1)*%
X109670000Y-105450000D03*
%TO.P,Con2,31*%
%TO.N,/GPIO18(PWM)*%
X109670000Y-104650000D03*
%TO.P,Con2,29*%
%TO.N,GND*%
X109670000Y-103850000D03*
%TO.P,Con2,27*%
X109670000Y-103050000D03*
%TO.P,Con2,25*%
%TO.N,/GPIO21*%
X109670000Y-102250000D03*
%TO.P,Con2,23*%
%TO.N,/GPIO17(RTS)*%
X109670000Y-101450000D03*
%TO.P,Con2,21*%
%TO.N,GND*%
X109670000Y-100650000D03*
%TO.P,Con2,19*%
%TO.N,N/C*%
X109670000Y-99850000D03*
%TO.P,Con2,52*%
%TO.N,3V3*%
X117870000Y-113050000D03*
%TO.P,Con2,50*%
%TO.N,GND*%
X117870000Y-112250000D03*
%TO.P,Con2,48*%
%TO.N,N/C*%
X117870000Y-111450000D03*
%TO.P,Con2,46*%
X117870000Y-110650000D03*
%TO.P,Con2,44*%
X117870000Y-109850000D03*
%TO.P,Con2,42*%
X117870000Y-109050000D03*
%TO.P,Con2,40*%
%TO.N,GND*%
X117870000Y-108250000D03*
%TO.P,Con2,38*%
%TO.N,N/C*%
X117870000Y-107450000D03*
%TO.P,Con2,36*%
X117870000Y-106650000D03*
%TO.P,Con2,34*%
%TO.N,GND*%
X117870000Y-105850000D03*
%TO.P,Con2,32*%
%TO.N,/GPIO0(SDA)*%
X117870000Y-105050000D03*
%TO.P,Con2,30*%
%TO.N,/GPIO1(SCL)*%
X117870000Y-104250000D03*
%TO.P,Con2,28*%
%TO.N,N/C*%
X117870000Y-103450000D03*
%TO.P,Con2,26*%
%TO.N,GND*%
X117870000Y-102650000D03*
%TO.P,Con2,24*%
%TO.N,3V3*%
X117870000Y-101850000D03*
%TO.P,Con2,22*%
%TO.N,/GPIO22*%
X117870000Y-101050000D03*
%TO.P,Con2,20*%
%TO.N,/GPIO8(CE0)*%
X117870000Y-100250000D03*
%TO.P,Con2,17*%
%TO.N,N/C*%
X109670000Y-99050000D03*
%TO.P,Con2,18*%
%TO.N,GND*%
X117870000Y-99450000D03*
%TO.P,Con2,16*%
%TO.N,/GPIO11(SCLK)*%
X117870000Y-95450000D03*
%TO.P,Con2,14*%
%TO.N,/GPIO9(MISO)*%
X117870000Y-94650000D03*
%TO.P,Con2,12*%
%TO.N,/GPIO10(MOSI)*%
X117870000Y-93850000D03*
%TO.P,Con2,10*%
%TO.N,/GPIO25*%
X117870000Y-93050000D03*
%TO.P,Con2,8*%
%TO.N,/GPIO24*%
X117870000Y-92250000D03*
%TO.P,Con2,6*%
%TO.N,N/C*%
X117870000Y-91450000D03*
%TO.P,Con2,4*%
%TO.N,GND*%
X117870000Y-90650000D03*
%TO.P,Con2,2*%
%TO.N,3V3*%
X117870000Y-89850000D03*
%TO.P,Con2,15*%
%TO.N,GND*%
X109670000Y-95050000D03*
%TO.P,Con2,13*%
%TO.N,/GPIO15(RXD)*%
X109670000Y-94250000D03*
%TO.P,Con2,11*%
%TO.N,/GPIO14(TXD)*%
X109670000Y-93450000D03*
%TO.P,Con2,9*%
%TO.N,GND*%
X109670000Y-92650000D03*
%TO.P,Con2,7*%
%TO.N,N/C*%
X109670000Y-91850000D03*
%TO.P,Con2,5*%
X109670000Y-91050000D03*
%TO.P,Con2,3*%
X109670000Y-90250000D03*
%TO.P,Con2,1*%
%TO.N,/GPIO4*%
X109670000Y-89450000D03*
D12*
%TO.P,Con2,0*%
%TO.N,N/C*%
X110270000Y-86600000D03*
%TD*%
D14*
%TO.P,R1,1*%
%TO.N,3V3*%
X124510000Y-84800000D03*
%TO.P,R1,2*%
%TO.N,/GPIO1(SCL)*%
X125910000Y-84800000D03*
%TD*%
%TO.P,R2,2*%
%TO.N,/GPIO0(SDA)*%
X125910000Y-83330000D03*
%TO.P,R2,1*%
%TO.N,3V3*%
X124510000Y-83330000D03*
%TD*%
D15*
%TO.P,C1,1*%
%TO.N,3V3*%
X106880000Y-108750000D03*
%TO.P,C1,2*%
%TO.N,GND*%
X106880000Y-110150000D03*
%TD*%
%TO.P,C2,1*%
%TO.N,3V3*%
X106880000Y-107630000D03*
%TO.P,C2,2*%
%TO.N,GND*%
X106880000Y-106230000D03*
%TD*%
D14*
%TO.P,D1,2*%
%TO.N,GND*%
X128600000Y-81840000D03*
%TO.P,D1,1*%
%TO.N,Net-(D1-Pad1)*%
X127200000Y-81840000D03*
%TD*%
%TO.P,R3,1*%
%TO.N,Net-(D1-Pad1)*%
X125910000Y-81840000D03*
%TO.P,R3,2*%
%TO.N,3V3*%
X124510000Y-81840000D03*
%TD*%
%TO.P,C3,2*%
%TO.N,GND*%
X109670000Y-77610000D03*
%TO.P,C3,1*%
%TO.N,5V*%
X108270000Y-77610000D03*
%TD*%
%TO.P,C4,1*%
%TO.N,3V3*%
X108470000Y-83420000D03*
%TO.P,C4,2*%
%TO.N,GND*%
X109870000Y-83420000D03*
%TD*%
D16*
%TO.P,U1,1*%
%TO.N,3V3*%
X107980000Y-81810000D03*
%TO.P,U1,2*%
X108930000Y-81810000D03*
%TO.P,U1,3*%
%TO.N,GND*%
X109880000Y-81810000D03*
%TO.P,U1,4*%
%TO.N,N/C*%
X109880000Y-79130000D03*
%TO.P,U1,5*%
%TO.N,5V*%
X108930000Y-79130000D03*
%TO.P,U1,6*%
X107980000Y-79130000D03*
D17*
%TO.P,U1,EP*%
%TO.N,GND*%
X108930000Y-80470000D03*
%TD*%
D18*
%TO.N,GND*%
X129452990Y-81952319D03*
X120390000Y-90990000D03*
X118520000Y-76870000D03*
X117470000Y-77780000D03*
X124530000Y-77160000D03*
X123570000Y-77920000D03*
X121770000Y-81290000D03*
X120250000Y-84300000D03*
X121240000Y-87220000D03*
X127050000Y-87860000D03*
X115370000Y-100430000D03*
X115160000Y-101870000D03*
X113600000Y-102060000D03*
X112510000Y-104210000D03*
X114360000Y-87240000D03*
X113770000Y-107290000D03*
X107090000Y-104620000D03*
%TO.N,3V3*%
X121980000Y-89880000D03*
X124310000Y-89650000D03*
X120080000Y-101890000D03*
%TO.N,/GPIO14(TXD)*%
X112280000Y-92580000D03*
X113340000Y-84870000D03*
%TO.N,/GPIO23*%
X112510000Y-110270000D03*
X114330000Y-104090000D03*
%TO.N,/GPIO21*%
X111960000Y-101850000D03*
X117754074Y-81124074D03*
%TO.N,/GPIO15(RXD)*%
X112230000Y-94290000D03*
X115380000Y-81630000D03*
%TO.N,/GPIO1(SCL)*%
X126102990Y-92230000D03*
X126399275Y-98492457D03*
X127380000Y-84640000D03*
%TO.N,/GPIO0(SDA)*%
X127130000Y-91530000D03*
X127360000Y-98770000D03*
X126890000Y-83470000D03*
%TO.N,/GPIO7(CE1)*%
X127090000Y-105540000D03*
X115150816Y-105422990D03*
%TO.N,/GPIO8(CE0)*%
X122660000Y-100330000D03*
X131110000Y-99630000D03*
%TD*%
D19*
%TO.N,GND*%
X129340671Y-81840000D02*
X129452990Y-81952319D01*
X128600000Y-81840000D02*
X129340671Y-81840000D01*
X120050000Y-90650000D02*
X120390000Y-90990000D01*
X117870000Y-90650000D02*
X120050000Y-90650000D01*
%TO.N,3V3*%
X124510000Y-84800000D02*
X124510000Y-81840000D01*
X121950000Y-89850000D02*
X121980000Y-89880000D01*
X117870000Y-89850000D02*
X121950000Y-89850000D01*
X109670000Y-108650000D02*
X111030000Y-108650000D01*
X111030000Y-108650000D02*
X111400000Y-108280000D01*
X111130000Y-107850000D02*
X109670000Y-107850000D01*
X116616000Y-113050000D02*
X113590000Y-110024000D01*
X117870000Y-113050000D02*
X116616000Y-113050000D01*
X113590000Y-110024000D02*
X113590000Y-109410000D01*
X112390000Y-108210000D02*
X111420000Y-108210000D01*
X113590000Y-109410000D02*
X112390000Y-108210000D01*
X111420000Y-108210000D02*
X111130000Y-107850000D01*
D20*
X108930000Y-81810000D02*
X107980000Y-81810000D01*
X108470000Y-83420000D02*
X108470000Y-83040000D01*
X107980000Y-82550000D02*
X107980000Y-81810000D01*
X108470000Y-83040000D02*
X107980000Y-82550000D01*
D19*
X113590000Y-109410000D02*
X113590000Y-109280000D01*
X113590000Y-109280000D02*
X115890000Y-106980000D01*
X115890000Y-106980000D02*
X115890000Y-102430000D01*
X116470000Y-101850000D02*
X117870000Y-101850000D01*
X115890000Y-102430000D02*
X116470000Y-101850000D01*
D20*
X108470000Y-83420000D02*
X108470000Y-83560000D01*
X108470000Y-83560000D02*
X105580000Y-86450000D01*
X105580000Y-86450000D02*
X105580000Y-107310000D01*
X105900000Y-107630000D02*
X106880000Y-107630000D01*
X105580000Y-107310000D02*
X105900000Y-107630000D01*
X106880000Y-108750000D02*
X106880000Y-107630000D01*
X106980000Y-108650000D02*
X109670000Y-108650000D01*
X106880000Y-108750000D02*
X106980000Y-108650000D01*
X107900000Y-107630000D02*
X108120000Y-107850000D01*
X106880000Y-107630000D02*
X107900000Y-107630000D01*
X108120000Y-107850000D02*
X109670000Y-107850000D01*
X117910000Y-101890000D02*
X117870000Y-101850000D01*
X120080000Y-101890000D02*
X117910000Y-101890000D01*
D19*
X123660000Y-89000000D02*
X124310000Y-89650000D01*
X123660000Y-85650000D02*
X123660000Y-89000000D01*
X124510000Y-84800000D02*
X123660000Y-85650000D01*
X124510000Y-79440000D02*
X124510000Y-81840000D01*
X126080000Y-77870000D02*
X124510000Y-79440000D01*
X126080000Y-75140000D02*
X126080000Y-77870000D01*
X126770000Y-74450000D02*
X126080000Y-75140000D01*
D20*
X106810000Y-81810000D02*
X106510000Y-81510000D01*
X107980000Y-81810000D02*
X106810000Y-81810000D01*
X106510000Y-74510000D02*
X106450000Y-74450000D01*
X106510000Y-81510000D02*
X106510000Y-74510000D01*
%TO.N,5V*%
X108930000Y-79130000D02*
X107980000Y-79130000D01*
X108270000Y-77610000D02*
X108270000Y-78180000D01*
X107980000Y-78470000D02*
X107980000Y-79130000D01*
X108270000Y-78180000D02*
X107980000Y-78470000D01*
X106450000Y-71910000D02*
X108990000Y-71910000D01*
D19*
X108270000Y-76900000D02*
X108270000Y-77610000D01*
X110210000Y-74960000D02*
X108270000Y-76900000D01*
X110210000Y-73790000D02*
X110210000Y-74960000D01*
X108990000Y-72570000D02*
X110210000Y-73790000D01*
X108990000Y-71910000D02*
X108990000Y-72570000D01*
X108270000Y-76760000D02*
X108270000Y-77610000D01*
X107740000Y-76230000D02*
X108270000Y-76760000D01*
X107740000Y-73200000D02*
X107740000Y-76230000D01*
X106450000Y-71910000D02*
X107740000Y-73200000D01*
%TO.N,/GPIO14(TXD)*%
X111410000Y-93450000D02*
X112280000Y-92580000D01*
X109670000Y-93450000D02*
X111410000Y-93450000D01*
X113615990Y-84594010D02*
X113340000Y-84870000D01*
X113615990Y-75758080D02*
X113615990Y-84594010D01*
X112879399Y-75021489D02*
X113615990Y-75758080D01*
X112879399Y-73100601D02*
X112879399Y-75021489D01*
X114070000Y-71910000D02*
X112879399Y-73100601D01*
%TO.N,/GPIO23*%
X109690000Y-110270000D02*
X109670000Y-110250000D01*
X112510000Y-110270000D02*
X109690000Y-110270000D01*
X114330000Y-99784136D02*
X114330000Y-104090000D01*
X116028020Y-98086116D02*
X114330000Y-99784136D01*
X116028020Y-83886092D02*
X116028020Y-98086116D01*
X118481076Y-81433036D02*
X116028020Y-83886092D01*
X118481076Y-80868924D02*
X118481076Y-81433036D01*
X122960000Y-76390000D02*
X118481076Y-80868924D01*
X122960000Y-73180000D02*
X122960000Y-76390000D01*
X124230000Y-71910000D02*
X122960000Y-73180000D01*
%TO.N,/GPIO22*%
X124230000Y-75671314D02*
X124230000Y-74450000D01*
X118935087Y-81234913D02*
X124230000Y-75940000D01*
X118935087Y-81661093D02*
X118935087Y-81234913D01*
X124230000Y-75940000D02*
X124230000Y-75671314D01*
X116484002Y-84112178D02*
X118935087Y-81661093D01*
X116484002Y-100918002D02*
X116484002Y-84112178D01*
X116616000Y-101050000D02*
X116484002Y-100918002D01*
X117870000Y-101050000D02*
X116616000Y-101050000D01*
%TO.N,/GPIO21*%
X111560000Y-102250000D02*
X111960000Y-101850000D01*
X109670000Y-102250000D02*
X111560000Y-102250000D01*
X117754074Y-80835926D02*
X117754074Y-81124074D01*
X121690000Y-76900000D02*
X117754074Y-80835926D01*
X121690000Y-74450000D02*
X121690000Y-76900000D01*
%TO.N,/GPIO18(PWM)*%
X110924000Y-104650000D02*
X109670000Y-104650000D01*
X115574010Y-97898058D02*
X112707002Y-100765066D01*
X115574010Y-83485990D02*
X115574010Y-97898058D01*
X116840000Y-82220000D02*
X115574010Y-83485990D01*
X120430000Y-77420000D02*
X116840000Y-81010000D01*
X120430000Y-73190000D02*
X120430000Y-77420000D01*
X112707002Y-102866998D02*
X110924000Y-104650000D01*
X112707002Y-100765066D02*
X112707002Y-102866998D01*
X116840000Y-81010000D02*
X116840000Y-82220000D01*
X119150000Y-71910000D02*
X120430000Y-73190000D01*
%TO.N,/GPIO17(RTS)*%
X115120000Y-97710000D02*
X111707002Y-101122998D01*
X111251002Y-101122998D02*
X110924000Y-101450000D01*
X115120000Y-83148030D02*
X115120000Y-97710000D01*
X116108987Y-82159043D02*
X115120000Y-83148030D01*
X111707002Y-101122998D02*
X111251002Y-101122998D01*
X110924000Y-101450000D02*
X109670000Y-101450000D01*
X119150000Y-74450000D02*
X116108987Y-77491013D01*
X116108987Y-77491013D02*
X116108987Y-82159043D01*
%TO.N,/GPIO15(RXD)*%
X112190000Y-94250000D02*
X112230000Y-94290000D01*
X109670000Y-94250000D02*
X112190000Y-94250000D01*
X114524010Y-80774010D02*
X115380000Y-81630000D01*
X114524010Y-75945990D02*
X114524010Y-80774010D01*
X115260601Y-73259399D02*
X115260601Y-75209399D01*
X115260601Y-75209399D02*
X114524010Y-75945990D01*
X116610000Y-71910000D02*
X115260601Y-73259399D01*
%TO.N,/GPIO1(SCL)*%
X126399275Y-99710725D02*
X126399275Y-98492457D01*
X121860000Y-104250000D02*
X126399275Y-99710725D01*
X117870000Y-104250000D02*
X121860000Y-104250000D01*
X125910000Y-92037010D02*
X126102990Y-92230000D01*
X125910000Y-84800000D02*
X125910000Y-92037010D01*
X127220000Y-84800000D02*
X127380000Y-84640000D01*
X125910000Y-84800000D02*
X127220000Y-84800000D01*
%TO.N,/GPIO0(SDA)*%
X121960000Y-105050000D02*
X117870000Y-105050000D01*
X127360000Y-99650000D02*
X121960000Y-105050000D01*
X127360000Y-98770000D02*
X127360000Y-99650000D01*
X126050000Y-83470000D02*
X125910000Y-83330000D01*
X126890000Y-83470000D02*
X126050000Y-83470000D01*
X127130000Y-91530000D02*
X128117002Y-90542998D01*
X128117002Y-90542998D02*
X128117002Y-84131317D01*
X128117002Y-84131317D02*
X127455685Y-83470000D01*
X127455685Y-83470000D02*
X126890000Y-83470000D01*
%TO.N,/GPIO4*%
X111050000Y-89450000D02*
X109670000Y-89450000D01*
X114070000Y-86430000D02*
X111050000Y-89450000D01*
X114070000Y-74450000D02*
X114070000Y-86430000D01*
%TO.N,/GPIO7(CE1)*%
X115123806Y-105450000D02*
X115150816Y-105422990D01*
X109670000Y-105450000D02*
X115123806Y-105450000D01*
X139890000Y-73330000D02*
X138470000Y-71910000D01*
X138470000Y-71910000D02*
X136930000Y-71910000D01*
X139890000Y-93760000D02*
X139890000Y-73330000D01*
X128110000Y-105540000D02*
X139890000Y-93760000D01*
X127090000Y-105540000D02*
X128110000Y-105540000D01*
%TO.N,/GPIO8(CE0)*%
X122580000Y-100250000D02*
X122660000Y-100330000D01*
X117870000Y-100250000D02*
X122580000Y-100250000D01*
X131110000Y-99630000D02*
X131800000Y-99630000D01*
X131800000Y-99630000D02*
X138630000Y-92800000D01*
X138630000Y-92800000D02*
X138630000Y-79150000D01*
X135739399Y-76259399D02*
X135739399Y-73469399D01*
X138630000Y-79150000D02*
X135739399Y-76259399D01*
X134390000Y-72120000D02*
X134390000Y-71910000D01*
X135739399Y-73469399D02*
X134390000Y-72120000D01*
%TO.N,/GPIO11(SCLK)*%
X134390000Y-89950000D02*
X134390000Y-74450000D01*
X128890000Y-95450000D02*
X134390000Y-89950000D01*
X117870000Y-95450000D02*
X128890000Y-95450000D01*
%TO.N,/GPIO25*%
X130630000Y-73130000D02*
X131850000Y-71910000D01*
X128760000Y-73130000D02*
X130630000Y-73130000D01*
X127960601Y-73929399D02*
X128760000Y-73130000D01*
X129310000Y-93050000D02*
X130270000Y-92090000D01*
X130270000Y-92090000D02*
X130270000Y-77340000D01*
X117870000Y-93050000D02*
X129310000Y-93050000D01*
X130270000Y-77340000D02*
X127960601Y-75030601D01*
X127960601Y-75030601D02*
X127960601Y-73929399D01*
%TO.N,/GPIO9(MISO)*%
X128994136Y-94650000D02*
X131850000Y-91794136D01*
X117870000Y-94650000D02*
X128994136Y-94650000D01*
X131850000Y-91794136D02*
X131850000Y-74450000D01*
%TO.N,/GPIO10(MOSI)*%
X129250000Y-74510000D02*
X129310000Y-74450000D01*
X129250000Y-75540000D02*
X129250000Y-74510000D01*
X130724011Y-92278057D02*
X130724011Y-77014011D01*
X129152068Y-93850000D02*
X130724011Y-92278057D01*
X130724011Y-77014011D02*
X129250000Y-75540000D01*
X117870000Y-93850000D02*
X129152068Y-93850000D01*
%TO.N,/GPIO24*%
X121800000Y-92250000D02*
X117870000Y-92250000D01*
X123190000Y-80110000D02*
X123190000Y-90860000D01*
X125500000Y-77800000D02*
X123190000Y-80110000D01*
X125500000Y-73180000D02*
X125500000Y-77800000D01*
X123190000Y-90860000D02*
X121800000Y-92250000D01*
X126770000Y-71910000D02*
X125500000Y-73180000D01*
%TO.N,Net-(D1-Pad1)*%
X127200000Y-81840000D02*
X125910000Y-81840000D01*
%TD*%
%TO.N,GND*%
X142724000Y-83137601D02*
X142721794Y-83160000D01*
X142730598Y-83249392D01*
X142756673Y-83335348D01*
X142799016Y-83414566D01*
X142829073Y-83451191D01*
X142855999Y-83484001D01*
X142925434Y-83540984D01*
X143004652Y-83583327D01*
X143090608Y-83609402D01*
X143180000Y-83618206D01*
X143202399Y-83616000D01*
X155157601Y-83616000D01*
X155180000Y-83618206D01*
X155202399Y-83616000D01*
X155269392Y-83609402D01*
X155355348Y-83583327D01*
X155434566Y-83540984D01*
X155504001Y-83484001D01*
X155560984Y-83414566D01*
X155603327Y-83335348D01*
X155629402Y-83249392D01*
X155638206Y-83160000D01*
X155636000Y-83137601D01*
X155636000Y-69626000D01*
X160714001Y-69626000D01*
X160714000Y-82147601D01*
X160711794Y-82170000D01*
X160720598Y-82259392D01*
X160746673Y-82345348D01*
X160789016Y-82424566D01*
X160805786Y-82445000D01*
X160845999Y-82494001D01*
X160915434Y-82550984D01*
X160994652Y-82593327D01*
X161080608Y-82619402D01*
X161170000Y-82628206D01*
X161192399Y-82626000D01*
X175157601Y-82626000D01*
X175180000Y-82628206D01*
X175202399Y-82626000D01*
X175269392Y-82619402D01*
X175355348Y-82593327D01*
X175434566Y-82550984D01*
X175504001Y-82494001D01*
X175560984Y-82424566D01*
X175603327Y-82345348D01*
X175629402Y-82259392D01*
X175638206Y-82170000D01*
X175636000Y-82147601D01*
X175636000Y-69626000D01*
X188734001Y-69626000D01*
X188734000Y-85714000D01*
X178212399Y-85714000D01*
X178190000Y-85711794D01*
X178167601Y-85714000D01*
X178100608Y-85720598D01*
X178014652Y-85746673D01*
X177935434Y-85789016D01*
X177865999Y-85845999D01*
X177809016Y-85915434D01*
X177766673Y-85994652D01*
X177740598Y-86080608D01*
X177731794Y-86170000D01*
X177734001Y-86192409D01*
X177734000Y-101147601D01*
X177731794Y-101170000D01*
X177740598Y-101259392D01*
X177766673Y-101345348D01*
X177809016Y-101424566D01*
X177857746Y-101483945D01*
X177865999Y-101494001D01*
X177935434Y-101550984D01*
X178014652Y-101593327D01*
X178100608Y-101619402D01*
X178190000Y-101628206D01*
X178212399Y-101626000D01*
X188734001Y-101626000D01*
X188734000Y-105714000D01*
X168212399Y-105714000D01*
X168190000Y-105711794D01*
X168167601Y-105714000D01*
X168100608Y-105720598D01*
X168014652Y-105746673D01*
X167935434Y-105789016D01*
X167865999Y-105845999D01*
X167809016Y-105915434D01*
X167766673Y-105994652D01*
X167740598Y-106080608D01*
X167731794Y-106170000D01*
X167734001Y-106192409D01*
X167734000Y-124714000D01*
X104646000Y-124714000D01*
X104646000Y-114750000D01*
X108287157Y-114750000D01*
X108287157Y-117050000D01*
X108294513Y-117124689D01*
X108316299Y-117196508D01*
X108351678Y-117262696D01*
X108399289Y-117320711D01*
X108457304Y-117368322D01*
X108523492Y-117403701D01*
X108595311Y-117425487D01*
X108670000Y-117432843D01*
X111870000Y-117432843D01*
X111944689Y-117425487D01*
X112016508Y-117403701D01*
X112082696Y-117368322D01*
X112140711Y-117320711D01*
X112188322Y-117262696D01*
X112223701Y-117196508D01*
X112245487Y-117124689D01*
X112252843Y-117050000D01*
X112252843Y-114750000D01*
X112245487Y-114675311D01*
X112223701Y-114603492D01*
X112188322Y-114537304D01*
X112140711Y-114479289D01*
X112082696Y-114431678D01*
X112016508Y-114396299D01*
X111944689Y-114374513D01*
X111870000Y-114367157D01*
X108670000Y-114367157D01*
X108595311Y-114374513D01*
X108523492Y-114396299D01*
X108457304Y-114431678D01*
X108399289Y-114479289D01*
X108351678Y-114537304D01*
X108316299Y-114603492D01*
X108294513Y-114675311D01*
X108287157Y-114750000D01*
X104646000Y-114750000D01*
X104646000Y-113658304D01*
X112839000Y-113658304D01*
X112839000Y-113841696D01*
X112874778Y-114021563D01*
X112944958Y-114190994D01*
X113046845Y-114343478D01*
X113176522Y-114473155D01*
X113329006Y-114575042D01*
X113498437Y-114645222D01*
X113678304Y-114681000D01*
X113861696Y-114681000D01*
X114041563Y-114645222D01*
X114210994Y-114575042D01*
X114363478Y-114473155D01*
X114493155Y-114343478D01*
X114595042Y-114190994D01*
X114665222Y-114021563D01*
X114701000Y-113841696D01*
X114701000Y-113658304D01*
X114665222Y-113478437D01*
X114595042Y-113309006D01*
X114493155Y-113156522D01*
X114363478Y-113026845D01*
X114210994Y-112924958D01*
X114041563Y-112854778D01*
X113861696Y-112819000D01*
X113678304Y-112819000D01*
X113498437Y-112854778D01*
X113329006Y-112924958D01*
X113176522Y-113026845D01*
X113046845Y-113156522D01*
X112944958Y-113309006D01*
X112874778Y-113478437D01*
X112839000Y-113658304D01*
X104646000Y-113658304D01*
X104646000Y-86450000D01*
X104941929Y-86450000D01*
X104945000Y-86481181D01*
X104945001Y-107278809D01*
X104941929Y-107310000D01*
X104945001Y-107341191D01*
X104945001Y-107341192D01*
X104954189Y-107434482D01*
X104959382Y-107451601D01*
X104990498Y-107554179D01*
X105049463Y-107664493D01*
X105049464Y-107664494D01*
X105128816Y-107761185D01*
X105153046Y-107781070D01*
X105428926Y-108056950D01*
X105448815Y-108081185D01*
X105545506Y-108160537D01*
X105655820Y-108219502D01*
X105775518Y-108255812D01*
X105868808Y-108265000D01*
X105868818Y-108265000D01*
X105899999Y-108268071D01*
X105931180Y-108265000D01*
X106046874Y-108265000D01*
X106026299Y-108303492D01*
X106004513Y-108375311D01*
X105997157Y-108450000D01*
X105997157Y-109050000D01*
X106004513Y-109124689D01*
X106026299Y-109196508D01*
X106061678Y-109262696D01*
X106109289Y-109320711D01*
X106167304Y-109368322D01*
X106233492Y-109403701D01*
X106305311Y-109425487D01*
X106380000Y-109432843D01*
X107380000Y-109432843D01*
X107454689Y-109425487D01*
X107526508Y-109403701D01*
X107592696Y-109368322D01*
X107650711Y-109320711D01*
X107680018Y-109285000D01*
X108577223Y-109285000D01*
X108595311Y-109290487D01*
X108670000Y-109297843D01*
X110670000Y-109297843D01*
X110744689Y-109290487D01*
X110816508Y-109268701D01*
X110882696Y-109233322D01*
X110940711Y-109185711D01*
X110963453Y-109158000D01*
X111005056Y-109158000D01*
X111030000Y-109160457D01*
X111054944Y-109158000D01*
X111054947Y-109158000D01*
X111129585Y-109150649D01*
X111225343Y-109121601D01*
X111313595Y-109074429D01*
X111390948Y-109010948D01*
X111406854Y-108991566D01*
X111680421Y-108718000D01*
X112179580Y-108718000D01*
X113082001Y-109620422D01*
X113082000Y-109737499D01*
X113007859Y-109663358D01*
X112879942Y-109577887D01*
X112737809Y-109519013D01*
X112586922Y-109489000D01*
X112433078Y-109489000D01*
X112282191Y-109519013D01*
X112140058Y-109577887D01*
X112012141Y-109663358D01*
X111913499Y-109762000D01*
X110979866Y-109762000D01*
X110940711Y-109714289D01*
X110882696Y-109666678D01*
X110816508Y-109631299D01*
X110744689Y-109609513D01*
X110670000Y-109602157D01*
X108670000Y-109602157D01*
X108595311Y-109609513D01*
X108523492Y-109631299D01*
X108457304Y-109666678D01*
X108399289Y-109714289D01*
X108351678Y-109772304D01*
X108316299Y-109838492D01*
X108294513Y-109910311D01*
X108287157Y-109985000D01*
X108287157Y-110515000D01*
X108294513Y-110589689D01*
X108312808Y-110650000D01*
X108294513Y-110710311D01*
X108287157Y-110785000D01*
X108287157Y-111315000D01*
X108294513Y-111389689D01*
X108312808Y-111450000D01*
X108294513Y-111510311D01*
X108287157Y-111585000D01*
X108287157Y-112115000D01*
X108294513Y-112189689D01*
X108312808Y-112250000D01*
X108294513Y-112310311D01*
X108287157Y-112385000D01*
X108287157Y-112915000D01*
X108294513Y-112989689D01*
X108316299Y-113061508D01*
X108351678Y-113127696D01*
X108399289Y-113185711D01*
X108457304Y-113233322D01*
X108523492Y-113268701D01*
X108595311Y-113290487D01*
X108670000Y-113297843D01*
X110670000Y-113297843D01*
X110744689Y-113290487D01*
X110816508Y-113268701D01*
X110882696Y-113233322D01*
X110940711Y-113185711D01*
X110988322Y-113127696D01*
X111023701Y-113061508D01*
X111045487Y-112989689D01*
X111052843Y-112915000D01*
X111052843Y-112385000D01*
X111045487Y-112310311D01*
X111027192Y-112250000D01*
X111045487Y-112189689D01*
X111052843Y-112115000D01*
X111052843Y-111585000D01*
X111045487Y-111510311D01*
X111027192Y-111450000D01*
X111045487Y-111389689D01*
X111052843Y-111315000D01*
X111052843Y-110785000D01*
X111052154Y-110778000D01*
X111913499Y-110778000D01*
X112012141Y-110876642D01*
X112140058Y-110962113D01*
X112282191Y-111020987D01*
X112433078Y-111051000D01*
X112586922Y-111051000D01*
X112737809Y-111020987D01*
X112879942Y-110962113D01*
X113007859Y-110876642D01*
X113116642Y-110767859D01*
X113202113Y-110639942D01*
X113260987Y-110497809D01*
X113274990Y-110427410D01*
X116239150Y-113391571D01*
X116255052Y-113410948D01*
X116274429Y-113426850D01*
X116332404Y-113474429D01*
X116420655Y-113521600D01*
X116420657Y-113521601D01*
X116516415Y-113550649D01*
X116575272Y-113556446D01*
X116599289Y-113585711D01*
X116657304Y-113633322D01*
X116723492Y-113668701D01*
X116795311Y-113690487D01*
X116870000Y-113697843D01*
X118870000Y-113697843D01*
X118944689Y-113690487D01*
X119016508Y-113668701D01*
X119082696Y-113633322D01*
X119140711Y-113585711D01*
X119188322Y-113527696D01*
X119223701Y-113461508D01*
X119245487Y-113389689D01*
X119252843Y-113315000D01*
X119252843Y-113184436D01*
X160139000Y-113184436D01*
X160139000Y-113515564D01*
X160203600Y-113840330D01*
X160330317Y-114146252D01*
X160514282Y-114421575D01*
X160748425Y-114655718D01*
X161023748Y-114839683D01*
X161329670Y-114966400D01*
X161654436Y-115031000D01*
X161985564Y-115031000D01*
X162310330Y-114966400D01*
X162616252Y-114839683D01*
X162891575Y-114655718D01*
X163125718Y-114421575D01*
X163309683Y-114146252D01*
X163436400Y-113840330D01*
X163501000Y-113515564D01*
X163501000Y-113184436D01*
X163436400Y-112859670D01*
X163309683Y-112553748D01*
X163125718Y-112278425D01*
X162891575Y-112044282D01*
X162616252Y-111860317D01*
X162310330Y-111733600D01*
X161985564Y-111669000D01*
X161654436Y-111669000D01*
X161329670Y-111733600D01*
X161023748Y-111860317D01*
X160748425Y-112044282D01*
X160514282Y-112278425D01*
X160330317Y-112553748D01*
X160203600Y-112859670D01*
X160139000Y-113184436D01*
X119252843Y-113184436D01*
X119252843Y-112785000D01*
X119245487Y-112710311D01*
X119223701Y-112638492D01*
X119188322Y-112572304D01*
X119140711Y-112514289D01*
X119082696Y-112466678D01*
X119016508Y-112431299D01*
X118944689Y-112409513D01*
X118870000Y-112402157D01*
X116870000Y-112402157D01*
X116795311Y-112409513D01*
X116723492Y-112431299D01*
X116718427Y-112434006D01*
X114098000Y-109813580D01*
X114098000Y-109490420D01*
X114803420Y-108785000D01*
X116487157Y-108785000D01*
X116487157Y-109315000D01*
X116494513Y-109389689D01*
X116512808Y-109450000D01*
X116494513Y-109510311D01*
X116487157Y-109585000D01*
X116487157Y-110115000D01*
X116494513Y-110189689D01*
X116512808Y-110250000D01*
X116494513Y-110310311D01*
X116487157Y-110385000D01*
X116487157Y-110915000D01*
X116494513Y-110989689D01*
X116512808Y-111050000D01*
X116494513Y-111110311D01*
X116487157Y-111185000D01*
X116487157Y-111715000D01*
X116494513Y-111789689D01*
X116516299Y-111861508D01*
X116551678Y-111927696D01*
X116599289Y-111985711D01*
X116657304Y-112033322D01*
X116723492Y-112068701D01*
X116795311Y-112090487D01*
X116870000Y-112097843D01*
X118870000Y-112097843D01*
X118944689Y-112090487D01*
X119016508Y-112068701D01*
X119082696Y-112033322D01*
X119140711Y-111985711D01*
X119188322Y-111927696D01*
X119223701Y-111861508D01*
X119245487Y-111789689D01*
X119252843Y-111715000D01*
X119252843Y-111185000D01*
X119245487Y-111110311D01*
X119227192Y-111050000D01*
X119245487Y-110989689D01*
X119252843Y-110915000D01*
X119252843Y-110385000D01*
X119245487Y-110310311D01*
X119227192Y-110250000D01*
X119245487Y-110189689D01*
X119252843Y-110115000D01*
X119252843Y-109585000D01*
X119245487Y-109510311D01*
X119227192Y-109450000D01*
X119245487Y-109389689D01*
X119252843Y-109315000D01*
X119252843Y-108785000D01*
X119245487Y-108710311D01*
X119223701Y-108638492D01*
X119188322Y-108572304D01*
X119140711Y-108514289D01*
X119082696Y-108466678D01*
X119016508Y-108431299D01*
X118944689Y-108409513D01*
X118870000Y-108402157D01*
X116870000Y-108402157D01*
X116795311Y-108409513D01*
X116723492Y-108431299D01*
X116657304Y-108466678D01*
X116599289Y-108514289D01*
X116551678Y-108572304D01*
X116516299Y-108638492D01*
X116494513Y-108710311D01*
X116487157Y-108785000D01*
X114803420Y-108785000D01*
X116231571Y-107356850D01*
X116250948Y-107340948D01*
X116292360Y-107290487D01*
X116314429Y-107263596D01*
X116361600Y-107175345D01*
X116366579Y-107158932D01*
X116390649Y-107079585D01*
X116398000Y-107004947D01*
X116398000Y-107004945D01*
X116400457Y-106980001D01*
X116398000Y-106955057D01*
X116398000Y-106385000D01*
X116487157Y-106385000D01*
X116487157Y-106915000D01*
X116494513Y-106989689D01*
X116512808Y-107050000D01*
X116494513Y-107110311D01*
X116487157Y-107185000D01*
X116487157Y-107715000D01*
X116494513Y-107789689D01*
X116516299Y-107861508D01*
X116551678Y-107927696D01*
X116599289Y-107985711D01*
X116657304Y-108033322D01*
X116723492Y-108068701D01*
X116795311Y-108090487D01*
X116870000Y-108097843D01*
X118870000Y-108097843D01*
X118944689Y-108090487D01*
X119016508Y-108068701D01*
X119082696Y-108033322D01*
X119140711Y-107985711D01*
X119188322Y-107927696D01*
X119223701Y-107861508D01*
X119245487Y-107789689D01*
X119252843Y-107715000D01*
X119252843Y-107185000D01*
X119245487Y-107110311D01*
X119227192Y-107050000D01*
X119245487Y-106989689D01*
X119252843Y-106915000D01*
X119252843Y-106385000D01*
X119245487Y-106310311D01*
X119223701Y-106238492D01*
X119188322Y-106172304D01*
X119140711Y-106114289D01*
X119082696Y-106066678D01*
X119016508Y-106031299D01*
X118944689Y-106009513D01*
X118870000Y-106002157D01*
X116870000Y-106002157D01*
X116795311Y-106009513D01*
X116723492Y-106031299D01*
X116657304Y-106066678D01*
X116599289Y-106114289D01*
X116551678Y-106172304D01*
X116516299Y-106238492D01*
X116494513Y-106310311D01*
X116487157Y-106385000D01*
X116398000Y-106385000D01*
X116398000Y-103185000D01*
X116487157Y-103185000D01*
X116487157Y-103715000D01*
X116494513Y-103789689D01*
X116512808Y-103850000D01*
X116494513Y-103910311D01*
X116487157Y-103985000D01*
X116487157Y-104515000D01*
X116494513Y-104589689D01*
X116512808Y-104650000D01*
X116494513Y-104710311D01*
X116487157Y-104785000D01*
X116487157Y-105315000D01*
X116494513Y-105389689D01*
X116516299Y-105461508D01*
X116551678Y-105527696D01*
X116599289Y-105585711D01*
X116657304Y-105633322D01*
X116723492Y-105668701D01*
X116795311Y-105690487D01*
X116870000Y-105697843D01*
X118870000Y-105697843D01*
X118944689Y-105690487D01*
X119016508Y-105668701D01*
X119082696Y-105633322D01*
X119140711Y-105585711D01*
X119163453Y-105558000D01*
X121935056Y-105558000D01*
X121960000Y-105560457D01*
X121984944Y-105558000D01*
X121984947Y-105558000D01*
X122059585Y-105550649D01*
X122155343Y-105521601D01*
X122243595Y-105474429D01*
X122257426Y-105463078D01*
X126309000Y-105463078D01*
X126309000Y-105616922D01*
X126339013Y-105767809D01*
X126397887Y-105909942D01*
X126483358Y-106037859D01*
X126592141Y-106146642D01*
X126720058Y-106232113D01*
X126862191Y-106290987D01*
X127013078Y-106321000D01*
X127166922Y-106321000D01*
X127317809Y-106290987D01*
X127459942Y-106232113D01*
X127587859Y-106146642D01*
X127686501Y-106048000D01*
X128085056Y-106048000D01*
X128110000Y-106050457D01*
X128134944Y-106048000D01*
X128134947Y-106048000D01*
X128209585Y-106040649D01*
X128305343Y-106011601D01*
X128393595Y-105964429D01*
X128470948Y-105900948D01*
X128486855Y-105881565D01*
X140231565Y-94136855D01*
X140250948Y-94120948D01*
X140314429Y-94043595D01*
X140361601Y-93955343D01*
X140390649Y-93859585D01*
X140398000Y-93784947D01*
X140398000Y-93784944D01*
X140400457Y-93760000D01*
X140398000Y-93735056D01*
X140398000Y-88984436D01*
X160139000Y-88984436D01*
X160139000Y-89315564D01*
X160203600Y-89640330D01*
X160330317Y-89946252D01*
X160514282Y-90221575D01*
X160748425Y-90455718D01*
X161023748Y-90639683D01*
X161329670Y-90766400D01*
X161654436Y-90831000D01*
X161985564Y-90831000D01*
X162310330Y-90766400D01*
X162616252Y-90639683D01*
X162891575Y-90455718D01*
X163125718Y-90221575D01*
X163309683Y-89946252D01*
X163436400Y-89640330D01*
X163501000Y-89315564D01*
X163501000Y-88984436D01*
X163436400Y-88659670D01*
X163309683Y-88353748D01*
X163125718Y-88078425D01*
X162891575Y-87844282D01*
X162616252Y-87660317D01*
X162310330Y-87533600D01*
X161985564Y-87469000D01*
X161654436Y-87469000D01*
X161329670Y-87533600D01*
X161023748Y-87660317D01*
X160748425Y-87844282D01*
X160514282Y-88078425D01*
X160330317Y-88353748D01*
X160203600Y-88659670D01*
X160139000Y-88984436D01*
X140398000Y-88984436D01*
X140398000Y-73354943D01*
X140400457Y-73329999D01*
X140396476Y-73289584D01*
X140390649Y-73230415D01*
X140361601Y-73134657D01*
X140337953Y-73090415D01*
X140314429Y-73046404D01*
X140266850Y-72988429D01*
X140250948Y-72969052D01*
X140231571Y-72953150D01*
X138846855Y-71568435D01*
X138830948Y-71549052D01*
X138753595Y-71485571D01*
X138665343Y-71438399D01*
X138569585Y-71409351D01*
X138494947Y-71402000D01*
X138494944Y-71402000D01*
X138470000Y-71399543D01*
X138445056Y-71402000D01*
X138066725Y-71402000D01*
X138032950Y-71320461D01*
X137896744Y-71116614D01*
X137723386Y-70943256D01*
X137519539Y-70807050D01*
X137293036Y-70713229D01*
X137052582Y-70665400D01*
X136807418Y-70665400D01*
X136566964Y-70713229D01*
X136340461Y-70807050D01*
X136136614Y-70943256D01*
X135963256Y-71116614D01*
X135827050Y-71320461D01*
X135733229Y-71546964D01*
X135685400Y-71787418D01*
X135685400Y-72032582D01*
X135733229Y-72273036D01*
X135827050Y-72499539D01*
X135963256Y-72703386D01*
X136136614Y-72876744D01*
X136340461Y-73012950D01*
X136566964Y-73106771D01*
X136807418Y-73154600D01*
X137052582Y-73154600D01*
X137293036Y-73106771D01*
X137519539Y-73012950D01*
X137723386Y-72876744D01*
X137896744Y-72703386D01*
X138032950Y-72499539D01*
X138066725Y-72418000D01*
X138259580Y-72418000D01*
X139382001Y-73540422D01*
X139382000Y-93549580D01*
X127899580Y-105032000D01*
X127686501Y-105032000D01*
X127587859Y-104933358D01*
X127459942Y-104847887D01*
X127317809Y-104789013D01*
X127166922Y-104759000D01*
X127013078Y-104759000D01*
X126862191Y-104789013D01*
X126720058Y-104847887D01*
X126592141Y-104933358D01*
X126483358Y-105042141D01*
X126397887Y-105170058D01*
X126339013Y-105312191D01*
X126309000Y-105463078D01*
X122257426Y-105463078D01*
X122320948Y-105410948D01*
X122336855Y-105391565D01*
X127701571Y-100026850D01*
X127720948Y-100010948D01*
X127762712Y-99960058D01*
X127784429Y-99933596D01*
X127831600Y-99845345D01*
X127833679Y-99838492D01*
X127860649Y-99749585D01*
X127868000Y-99674947D01*
X127868000Y-99674945D01*
X127870457Y-99650001D01*
X127868000Y-99625057D01*
X127868000Y-99366501D01*
X127966642Y-99267859D01*
X128052113Y-99139942D01*
X128110987Y-98997809D01*
X128141000Y-98846922D01*
X128141000Y-98693078D01*
X128110987Y-98542191D01*
X128052113Y-98400058D01*
X127966642Y-98272141D01*
X127857859Y-98163358D01*
X127729942Y-98077887D01*
X127587809Y-98019013D01*
X127436922Y-97989000D01*
X127283078Y-97989000D01*
X127132191Y-98019013D01*
X127046067Y-98054687D01*
X127005917Y-97994598D01*
X126897134Y-97885815D01*
X126769217Y-97800344D01*
X126627084Y-97741470D01*
X126476197Y-97711457D01*
X126322353Y-97711457D01*
X126171466Y-97741470D01*
X126029333Y-97800344D01*
X125901416Y-97885815D01*
X125792633Y-97994598D01*
X125707162Y-98122515D01*
X125648288Y-98264648D01*
X125618275Y-98415535D01*
X125618275Y-98569379D01*
X125648288Y-98720266D01*
X125707162Y-98862399D01*
X125792633Y-98990316D01*
X125891276Y-99088959D01*
X125891275Y-99500304D01*
X121649580Y-103742000D01*
X119250184Y-103742000D01*
X119252843Y-103715000D01*
X119252843Y-103185000D01*
X119245487Y-103110311D01*
X119223701Y-103038492D01*
X119188322Y-102972304D01*
X119140711Y-102914289D01*
X119082696Y-102866678D01*
X119016508Y-102831299D01*
X118944689Y-102809513D01*
X118870000Y-102802157D01*
X116870000Y-102802157D01*
X116795311Y-102809513D01*
X116723492Y-102831299D01*
X116657304Y-102866678D01*
X116599289Y-102914289D01*
X116551678Y-102972304D01*
X116516299Y-103038492D01*
X116494513Y-103110311D01*
X116487157Y-103185000D01*
X116398000Y-103185000D01*
X116398000Y-102640420D01*
X116628630Y-102409790D01*
X116657304Y-102433322D01*
X116723492Y-102468701D01*
X116795311Y-102490487D01*
X116870000Y-102497843D01*
X117726282Y-102497843D01*
X117785518Y-102515812D01*
X117878808Y-102525000D01*
X117878811Y-102525000D01*
X117910000Y-102528072D01*
X117941189Y-102525000D01*
X119624582Y-102525000D01*
X119710058Y-102582113D01*
X119852191Y-102640987D01*
X120003078Y-102671000D01*
X120156922Y-102671000D01*
X120307809Y-102640987D01*
X120449942Y-102582113D01*
X120577859Y-102496642D01*
X120686642Y-102387859D01*
X120772113Y-102259942D01*
X120830987Y-102117809D01*
X120861000Y-101966922D01*
X120861000Y-101813078D01*
X120830987Y-101662191D01*
X120772113Y-101520058D01*
X120686642Y-101392141D01*
X120577859Y-101283358D01*
X120449942Y-101197887D01*
X120307809Y-101139013D01*
X120156922Y-101109000D01*
X120003078Y-101109000D01*
X119852191Y-101139013D01*
X119710058Y-101197887D01*
X119624582Y-101255000D01*
X119252843Y-101255000D01*
X119252843Y-100785000D01*
X119250184Y-100758000D01*
X122006680Y-100758000D01*
X122053358Y-100827859D01*
X122162141Y-100936642D01*
X122290058Y-101022113D01*
X122432191Y-101080987D01*
X122583078Y-101111000D01*
X122736922Y-101111000D01*
X122887809Y-101080987D01*
X123029942Y-101022113D01*
X123157859Y-100936642D01*
X123266642Y-100827859D01*
X123352113Y-100699942D01*
X123410987Y-100557809D01*
X123441000Y-100406922D01*
X123441000Y-100253078D01*
X123410987Y-100102191D01*
X123352113Y-99960058D01*
X123266642Y-99832141D01*
X123157859Y-99723358D01*
X123029942Y-99637887D01*
X122887809Y-99579013D01*
X122736922Y-99549000D01*
X122583078Y-99549000D01*
X122432191Y-99579013D01*
X122290058Y-99637887D01*
X122162141Y-99723358D01*
X122143499Y-99742000D01*
X119163453Y-99742000D01*
X119140711Y-99714289D01*
X119082696Y-99666678D01*
X119016508Y-99631299D01*
X118944689Y-99609513D01*
X118870000Y-99602157D01*
X116992002Y-99602157D01*
X116992002Y-96097843D01*
X118870000Y-96097843D01*
X118944689Y-96090487D01*
X119016508Y-96068701D01*
X119082696Y-96033322D01*
X119140711Y-95985711D01*
X119163453Y-95958000D01*
X128865056Y-95958000D01*
X128890000Y-95960457D01*
X128914944Y-95958000D01*
X128914947Y-95958000D01*
X128989585Y-95950649D01*
X129085343Y-95921601D01*
X129173595Y-95874429D01*
X129250948Y-95810948D01*
X129266855Y-95791565D01*
X134731565Y-90326855D01*
X134750948Y-90310948D01*
X134814429Y-90233595D01*
X134861601Y-90145343D01*
X134890649Y-90049585D01*
X134898000Y-89974947D01*
X134898000Y-89974944D01*
X134900457Y-89950000D01*
X134898000Y-89925056D01*
X134898000Y-75586725D01*
X134979539Y-75552950D01*
X135183386Y-75416744D01*
X135231399Y-75368731D01*
X135231399Y-76234455D01*
X135228942Y-76259399D01*
X135231399Y-76284343D01*
X135231399Y-76284345D01*
X135238750Y-76358983D01*
X135267798Y-76454741D01*
X135314970Y-76542994D01*
X135378451Y-76620347D01*
X135397834Y-76636254D01*
X138122001Y-79360422D01*
X138122000Y-92589580D01*
X131648041Y-99063540D01*
X131607859Y-99023358D01*
X131479942Y-98937887D01*
X131337809Y-98879013D01*
X131186922Y-98849000D01*
X131033078Y-98849000D01*
X130882191Y-98879013D01*
X130740058Y-98937887D01*
X130612141Y-99023358D01*
X130503358Y-99132141D01*
X130417887Y-99260058D01*
X130359013Y-99402191D01*
X130329000Y-99553078D01*
X130329000Y-99706922D01*
X130359013Y-99857809D01*
X130417887Y-99999942D01*
X130503358Y-100127859D01*
X130612141Y-100236642D01*
X130740058Y-100322113D01*
X130882191Y-100380987D01*
X131033078Y-100411000D01*
X131186922Y-100411000D01*
X131337809Y-100380987D01*
X131479942Y-100322113D01*
X131607859Y-100236642D01*
X131706501Y-100138000D01*
X131775056Y-100138000D01*
X131800000Y-100140457D01*
X131824944Y-100138000D01*
X131824947Y-100138000D01*
X131899585Y-100130649D01*
X131995343Y-100101601D01*
X132083595Y-100054429D01*
X132160948Y-99990948D01*
X132176855Y-99971565D01*
X138971565Y-93176855D01*
X138990948Y-93160948D01*
X139054429Y-93083595D01*
X139101601Y-92995343D01*
X139130649Y-92899585D01*
X139138000Y-92824947D01*
X139138000Y-92824944D01*
X139140457Y-92800000D01*
X139138000Y-92775056D01*
X139138000Y-79174943D01*
X139140457Y-79149999D01*
X139136327Y-79108071D01*
X139130649Y-79050415D01*
X139101601Y-78954657D01*
X139101600Y-78954655D01*
X139054429Y-78866404D01*
X139006850Y-78808429D01*
X138990948Y-78789052D01*
X138971571Y-78773150D01*
X136247399Y-76048979D01*
X136247399Y-73494342D01*
X136249856Y-73469398D01*
X136246950Y-73439892D01*
X136240048Y-73369814D01*
X136211000Y-73274056D01*
X136188894Y-73232699D01*
X136163828Y-73185803D01*
X136116249Y-73127828D01*
X136100347Y-73108451D01*
X136080970Y-73092549D01*
X135490951Y-72502531D01*
X135492950Y-72499539D01*
X135586771Y-72273036D01*
X135634600Y-72032582D01*
X135634600Y-71787418D01*
X135586771Y-71546964D01*
X135492950Y-71320461D01*
X135356744Y-71116614D01*
X135183386Y-70943256D01*
X134979539Y-70807050D01*
X134753036Y-70713229D01*
X134512582Y-70665400D01*
X134267418Y-70665400D01*
X134026964Y-70713229D01*
X133800461Y-70807050D01*
X133596614Y-70943256D01*
X133423256Y-71116614D01*
X133287050Y-71320461D01*
X133193229Y-71546964D01*
X133145400Y-71787418D01*
X133145400Y-72032582D01*
X133193229Y-72273036D01*
X133287050Y-72499539D01*
X133423256Y-72703386D01*
X133596614Y-72876744D01*
X133800461Y-73012950D01*
X134026964Y-73106771D01*
X134267418Y-73154600D01*
X134512582Y-73154600D01*
X134674060Y-73122480D01*
X134841417Y-73289838D01*
X134753036Y-73253229D01*
X134512582Y-73205400D01*
X134267418Y-73205400D01*
X134026964Y-73253229D01*
X133800461Y-73347050D01*
X133596614Y-73483256D01*
X133423256Y-73656614D01*
X133287050Y-73860461D01*
X133193229Y-74086964D01*
X133145400Y-74327418D01*
X133145400Y-74572582D01*
X133193229Y-74813036D01*
X133287050Y-75039539D01*
X133423256Y-75243386D01*
X133596614Y-75416744D01*
X133800461Y-75552950D01*
X133882001Y-75586725D01*
X133882000Y-89739580D01*
X132358000Y-91263580D01*
X132358000Y-75586725D01*
X132439539Y-75552950D01*
X132643386Y-75416744D01*
X132816744Y-75243386D01*
X132952950Y-75039539D01*
X133046771Y-74813036D01*
X133094600Y-74572582D01*
X133094600Y-74327418D01*
X133046771Y-74086964D01*
X132952950Y-73860461D01*
X132816744Y-73656614D01*
X132643386Y-73483256D01*
X132439539Y-73347050D01*
X132213036Y-73253229D01*
X131972582Y-73205400D01*
X131727418Y-73205400D01*
X131486964Y-73253229D01*
X131260461Y-73347050D01*
X131056614Y-73483256D01*
X130883256Y-73656614D01*
X130747050Y-73860461D01*
X130653229Y-74086964D01*
X130605400Y-74327418D01*
X130605400Y-74572582D01*
X130653229Y-74813036D01*
X130747050Y-75039539D01*
X130883256Y-75243386D01*
X131056614Y-75416744D01*
X131260461Y-75552950D01*
X131342001Y-75586725D01*
X131342000Y-91583716D01*
X131232011Y-91693705D01*
X131232011Y-77038954D01*
X131234468Y-77014010D01*
X131229492Y-76963492D01*
X131224660Y-76914426D01*
X131195612Y-76818668D01*
X131185856Y-76800415D01*
X131148440Y-76730415D01*
X131100861Y-76672440D01*
X131084959Y-76653063D01*
X131065582Y-76637161D01*
X129948593Y-75520173D01*
X130103386Y-75416744D01*
X130276744Y-75243386D01*
X130412950Y-75039539D01*
X130506771Y-74813036D01*
X130554600Y-74572582D01*
X130554600Y-74327418D01*
X130506771Y-74086964D01*
X130412950Y-73860461D01*
X130276744Y-73656614D01*
X130258130Y-73638000D01*
X130605056Y-73638000D01*
X130630000Y-73640457D01*
X130654944Y-73638000D01*
X130654947Y-73638000D01*
X130729585Y-73630649D01*
X130825343Y-73601601D01*
X130913595Y-73554429D01*
X130990948Y-73490948D01*
X131006855Y-73471565D01*
X131405424Y-73072996D01*
X131486964Y-73106771D01*
X131727418Y-73154600D01*
X131972582Y-73154600D01*
X132213036Y-73106771D01*
X132439539Y-73012950D01*
X132643386Y-72876744D01*
X132816744Y-72703386D01*
X132952950Y-72499539D01*
X133046771Y-72273036D01*
X133094600Y-72032582D01*
X133094600Y-71787418D01*
X133046771Y-71546964D01*
X132952950Y-71320461D01*
X132816744Y-71116614D01*
X132643386Y-70943256D01*
X132439539Y-70807050D01*
X132213036Y-70713229D01*
X131972582Y-70665400D01*
X131727418Y-70665400D01*
X131486964Y-70713229D01*
X131260461Y-70807050D01*
X131056614Y-70943256D01*
X130883256Y-71116614D01*
X130747050Y-71320461D01*
X130653229Y-71546964D01*
X130605400Y-71787418D01*
X130605400Y-72032582D01*
X130653229Y-72273036D01*
X130687004Y-72354576D01*
X130419580Y-72622000D01*
X128784944Y-72622000D01*
X128760000Y-72619543D01*
X128735056Y-72622000D01*
X128735053Y-72622000D01*
X128660415Y-72629351D01*
X128564657Y-72658399D01*
X128543730Y-72669585D01*
X128476404Y-72705571D01*
X128448589Y-72728399D01*
X128399052Y-72769052D01*
X128383145Y-72788435D01*
X127625855Y-73545725D01*
X127563386Y-73483256D01*
X127359539Y-73347050D01*
X127133036Y-73253229D01*
X126892582Y-73205400D01*
X126647418Y-73205400D01*
X126406964Y-73253229D01*
X126180461Y-73347050D01*
X126008000Y-73462285D01*
X126008000Y-73390420D01*
X126325424Y-73072996D01*
X126406964Y-73106771D01*
X126647418Y-73154600D01*
X126892582Y-73154600D01*
X127133036Y-73106771D01*
X127359539Y-73012950D01*
X127563386Y-72876744D01*
X127736744Y-72703386D01*
X127872950Y-72499539D01*
X127966771Y-72273036D01*
X128014600Y-72032582D01*
X128014600Y-71787418D01*
X127966771Y-71546964D01*
X127872950Y-71320461D01*
X127736744Y-71116614D01*
X127563386Y-70943256D01*
X127359539Y-70807050D01*
X127133036Y-70713229D01*
X126892582Y-70665400D01*
X126647418Y-70665400D01*
X126406964Y-70713229D01*
X126180461Y-70807050D01*
X125976614Y-70943256D01*
X125803256Y-71116614D01*
X125667050Y-71320461D01*
X125573229Y-71546964D01*
X125525400Y-71787418D01*
X125525400Y-72032582D01*
X125573229Y-72273036D01*
X125607004Y-72354576D01*
X125158435Y-72803145D01*
X125139052Y-72819052D01*
X125075571Y-72896405D01*
X125028399Y-72984658D01*
X124999351Y-73080416D01*
X124994468Y-73130000D01*
X124989543Y-73180000D01*
X124992000Y-73204944D01*
X124992000Y-73462285D01*
X124819539Y-73347050D01*
X124593036Y-73253229D01*
X124352582Y-73205400D01*
X124107418Y-73205400D01*
X123866964Y-73253229D01*
X123640461Y-73347050D01*
X123468000Y-73462285D01*
X123468000Y-73390420D01*
X123785424Y-73072996D01*
X123866964Y-73106771D01*
X124107418Y-73154600D01*
X124352582Y-73154600D01*
X124593036Y-73106771D01*
X124819539Y-73012950D01*
X125023386Y-72876744D01*
X125196744Y-72703386D01*
X125332950Y-72499539D01*
X125426771Y-72273036D01*
X125474600Y-72032582D01*
X125474600Y-71787418D01*
X125426771Y-71546964D01*
X125332950Y-71320461D01*
X125196744Y-71116614D01*
X125023386Y-70943256D01*
X124819539Y-70807050D01*
X124593036Y-70713229D01*
X124352582Y-70665400D01*
X124107418Y-70665400D01*
X123866964Y-70713229D01*
X123640461Y-70807050D01*
X123436614Y-70943256D01*
X123263256Y-71116614D01*
X123127050Y-71320461D01*
X123033229Y-71546964D01*
X122985400Y-71787418D01*
X122985400Y-72032582D01*
X123033229Y-72273036D01*
X123067004Y-72354576D01*
X122618435Y-72803145D01*
X122599052Y-72819052D01*
X122535571Y-72896405D01*
X122488399Y-72984658D01*
X122459351Y-73080416D01*
X122454468Y-73130000D01*
X122449543Y-73180000D01*
X122452000Y-73204944D01*
X122452000Y-73462285D01*
X122279539Y-73347050D01*
X122053036Y-73253229D01*
X121812582Y-73205400D01*
X121567418Y-73205400D01*
X121326964Y-73253229D01*
X121100461Y-73347050D01*
X120938000Y-73455603D01*
X120938000Y-73214943D01*
X120940457Y-73189999D01*
X120935006Y-73134655D01*
X120930649Y-73090415D01*
X120901601Y-72994657D01*
X120898272Y-72988429D01*
X120854429Y-72906404D01*
X120806850Y-72848429D01*
X120790948Y-72829052D01*
X120771571Y-72813150D01*
X120312996Y-72354575D01*
X120346771Y-72273036D01*
X120394600Y-72032582D01*
X120394600Y-71787418D01*
X120346771Y-71546964D01*
X120252950Y-71320461D01*
X120116744Y-71116614D01*
X119943386Y-70943256D01*
X119739539Y-70807050D01*
X119513036Y-70713229D01*
X119272582Y-70665400D01*
X119027418Y-70665400D01*
X118786964Y-70713229D01*
X118560461Y-70807050D01*
X118356614Y-70943256D01*
X118183256Y-71116614D01*
X118047050Y-71320461D01*
X117953229Y-71546964D01*
X117905400Y-71787418D01*
X117905400Y-72032582D01*
X117953229Y-72273036D01*
X118047050Y-72499539D01*
X118183256Y-72703386D01*
X118356614Y-72876744D01*
X118560461Y-73012950D01*
X118786964Y-73106771D01*
X119027418Y-73154600D01*
X119272582Y-73154600D01*
X119513036Y-73106771D01*
X119594575Y-73072996D01*
X119922000Y-73400421D01*
X119922000Y-73468966D01*
X119739539Y-73347050D01*
X119513036Y-73253229D01*
X119272582Y-73205400D01*
X119027418Y-73205400D01*
X118786964Y-73253229D01*
X118560461Y-73347050D01*
X118356614Y-73483256D01*
X118183256Y-73656614D01*
X118047050Y-73860461D01*
X117953229Y-74086964D01*
X117905400Y-74327418D01*
X117905400Y-74572582D01*
X117953229Y-74813036D01*
X117987004Y-74894576D01*
X115767422Y-77114158D01*
X115748039Y-77130065D01*
X115684558Y-77207418D01*
X115637386Y-77295671D01*
X115608338Y-77391429D01*
X115603067Y-77444947D01*
X115598530Y-77491013D01*
X115600987Y-77515957D01*
X115600988Y-80877656D01*
X115456922Y-80849000D01*
X115317420Y-80849000D01*
X115032010Y-80563590D01*
X115032010Y-76156410D01*
X115602171Y-75586249D01*
X115621549Y-75570347D01*
X115640225Y-75547589D01*
X115685030Y-75492995D01*
X115722125Y-75423595D01*
X115732202Y-75404742D01*
X115761250Y-75308984D01*
X115768601Y-75234346D01*
X115768601Y-75234343D01*
X115771058Y-75209399D01*
X115768601Y-75184455D01*
X115768601Y-73469819D01*
X116165424Y-73072996D01*
X116246964Y-73106771D01*
X116487418Y-73154600D01*
X116732582Y-73154600D01*
X116973036Y-73106771D01*
X117199539Y-73012950D01*
X117403386Y-72876744D01*
X117576744Y-72703386D01*
X117712950Y-72499539D01*
X117806771Y-72273036D01*
X117854600Y-72032582D01*
X117854600Y-71787418D01*
X117806771Y-71546964D01*
X117712950Y-71320461D01*
X117576744Y-71116614D01*
X117403386Y-70943256D01*
X117199539Y-70807050D01*
X116973036Y-70713229D01*
X116732582Y-70665400D01*
X116487418Y-70665400D01*
X116246964Y-70713229D01*
X116020461Y-70807050D01*
X115816614Y-70943256D01*
X115643256Y-71116614D01*
X115507050Y-71320461D01*
X115413229Y-71546964D01*
X115365400Y-71787418D01*
X115365400Y-72032582D01*
X115413229Y-72273036D01*
X115447004Y-72354576D01*
X114919036Y-72882544D01*
X114899653Y-72898451D01*
X114836172Y-72975804D01*
X114789000Y-73064057D01*
X114759952Y-73159815D01*
X114752999Y-73230415D01*
X114750144Y-73259399D01*
X114752601Y-73284343D01*
X114752601Y-73409232D01*
X114659539Y-73347050D01*
X114433036Y-73253229D01*
X114192582Y-73205400D01*
X113947418Y-73205400D01*
X113706964Y-73253229D01*
X113480461Y-73347050D01*
X113387399Y-73409232D01*
X113387399Y-73311021D01*
X113625424Y-73072996D01*
X113706964Y-73106771D01*
X113947418Y-73154600D01*
X114192582Y-73154600D01*
X114433036Y-73106771D01*
X114659539Y-73012950D01*
X114863386Y-72876744D01*
X115036744Y-72703386D01*
X115172950Y-72499539D01*
X115266771Y-72273036D01*
X115314600Y-72032582D01*
X115314600Y-71787418D01*
X115266771Y-71546964D01*
X115172950Y-71320461D01*
X115036744Y-71116614D01*
X114863386Y-70943256D01*
X114659539Y-70807050D01*
X114433036Y-70713229D01*
X114192582Y-70665400D01*
X113947418Y-70665400D01*
X113706964Y-70713229D01*
X113480461Y-70807050D01*
X113276614Y-70943256D01*
X113103256Y-71116614D01*
X112967050Y-71320461D01*
X112873229Y-71546964D01*
X112825400Y-71787418D01*
X112825400Y-72032582D01*
X112873229Y-72273036D01*
X112907004Y-72354576D01*
X112537834Y-72723746D01*
X112518451Y-72739653D01*
X112454970Y-72817006D01*
X112407798Y-72905259D01*
X112378750Y-73001017D01*
X112371892Y-73070649D01*
X112368942Y-73100601D01*
X112371399Y-73125545D01*
X112371399Y-73531269D01*
X112323386Y-73483256D01*
X112119539Y-73347050D01*
X111893036Y-73253229D01*
X111652582Y-73205400D01*
X111407418Y-73205400D01*
X111166964Y-73253229D01*
X110940461Y-73347050D01*
X110736614Y-73483256D01*
X110661959Y-73557911D01*
X110634429Y-73506405D01*
X110570948Y-73429052D01*
X110551565Y-73413145D01*
X109899275Y-72760855D01*
X109956744Y-72703386D01*
X110092950Y-72499539D01*
X110186771Y-72273036D01*
X110234600Y-72032582D01*
X110234600Y-71787418D01*
X110186771Y-71546964D01*
X110092950Y-71320461D01*
X109956744Y-71116614D01*
X109783386Y-70943256D01*
X109579539Y-70807050D01*
X109353036Y-70713229D01*
X109112582Y-70665400D01*
X108867418Y-70665400D01*
X108626964Y-70713229D01*
X108400461Y-70807050D01*
X108196614Y-70943256D01*
X108023256Y-71116614D01*
X107917426Y-71275000D01*
X107522574Y-71275000D01*
X107416744Y-71116614D01*
X107243386Y-70943256D01*
X107039539Y-70807050D01*
X106813036Y-70713229D01*
X106572582Y-70665400D01*
X106327418Y-70665400D01*
X106086964Y-70713229D01*
X105860461Y-70807050D01*
X105656614Y-70943256D01*
X105483256Y-71116614D01*
X105347050Y-71320461D01*
X105253229Y-71546964D01*
X105205400Y-71787418D01*
X105205400Y-72032582D01*
X105253229Y-72273036D01*
X105347050Y-72499539D01*
X105483256Y-72703386D01*
X105656614Y-72876744D01*
X105860461Y-73012950D01*
X106086964Y-73106771D01*
X106327418Y-73154600D01*
X106572582Y-73154600D01*
X106813036Y-73106771D01*
X106894575Y-73072996D01*
X107025136Y-73203557D01*
X105586400Y-73203557D01*
X105511711Y-73210913D01*
X105439892Y-73232699D01*
X105373704Y-73268078D01*
X105315689Y-73315689D01*
X105268078Y-73373704D01*
X105232699Y-73439892D01*
X105210913Y-73511711D01*
X105203557Y-73586400D01*
X105203557Y-75313600D01*
X105210913Y-75388289D01*
X105232699Y-75460108D01*
X105268078Y-75526296D01*
X105315689Y-75584311D01*
X105373704Y-75631922D01*
X105439892Y-75667301D01*
X105511711Y-75689087D01*
X105586400Y-75696443D01*
X105875001Y-75696443D01*
X105875000Y-81478819D01*
X105871929Y-81510000D01*
X105875000Y-81541181D01*
X105875000Y-81541191D01*
X105884188Y-81634481D01*
X105920498Y-81754179D01*
X105979463Y-81864493D01*
X106058815Y-81961185D01*
X106083050Y-81981074D01*
X106338926Y-82236950D01*
X106358815Y-82261185D01*
X106455506Y-82340537D01*
X106565820Y-82399502D01*
X106685518Y-82435812D01*
X106778808Y-82445000D01*
X106778818Y-82445000D01*
X106809999Y-82448071D01*
X106841180Y-82445000D01*
X107345000Y-82445000D01*
X107345000Y-82518819D01*
X107341929Y-82550000D01*
X107345000Y-82581181D01*
X107345000Y-82581191D01*
X107354188Y-82674481D01*
X107390498Y-82794179D01*
X107449463Y-82904493D01*
X107528815Y-83001185D01*
X107553050Y-83021074D01*
X107787157Y-83255182D01*
X107787157Y-83344818D01*
X105153050Y-85978926D01*
X105128815Y-85998815D01*
X105049463Y-86095507D01*
X104990498Y-86205821D01*
X104954188Y-86325519D01*
X104945000Y-86418809D01*
X104945000Y-86418819D01*
X104941929Y-86450000D01*
X104646000Y-86450000D01*
X104646000Y-69626000D01*
X142724001Y-69626000D01*
X142724000Y-83137601D01*
%TA.AperFunction,Conductor*%
D21*
G36*
X142724000Y-83137601D02*
G01*
X142721794Y-83160000D01*
X142730598Y-83249392D01*
X142756673Y-83335348D01*
X142799016Y-83414566D01*
X142829073Y-83451191D01*
X142855999Y-83484001D01*
X142925434Y-83540984D01*
X143004652Y-83583327D01*
X143090608Y-83609402D01*
X143180000Y-83618206D01*
X143202399Y-83616000D01*
X155157601Y-83616000D01*
X155180000Y-83618206D01*
X155202399Y-83616000D01*
X155269392Y-83609402D01*
X155355348Y-83583327D01*
X155434566Y-83540984D01*
X155504001Y-83484001D01*
X155560984Y-83414566D01*
X155603327Y-83335348D01*
X155629402Y-83249392D01*
X155638206Y-83160000D01*
X155636000Y-83137601D01*
X155636000Y-69626000D01*
X160714001Y-69626000D01*
X160714000Y-82147601D01*
X160711794Y-82170000D01*
X160720598Y-82259392D01*
X160746673Y-82345348D01*
X160789016Y-82424566D01*
X160805786Y-82445000D01*
X160845999Y-82494001D01*
X160915434Y-82550984D01*
X160994652Y-82593327D01*
X161080608Y-82619402D01*
X161170000Y-82628206D01*
X161192399Y-82626000D01*
X175157601Y-82626000D01*
X175180000Y-82628206D01*
X175202399Y-82626000D01*
X175269392Y-82619402D01*
X175355348Y-82593327D01*
X175434566Y-82550984D01*
X175504001Y-82494001D01*
X175560984Y-82424566D01*
X175603327Y-82345348D01*
X175629402Y-82259392D01*
X175638206Y-82170000D01*
X175636000Y-82147601D01*
X175636000Y-69626000D01*
X188734001Y-69626000D01*
X188734000Y-85714000D01*
X178212399Y-85714000D01*
X178190000Y-85711794D01*
X178167601Y-85714000D01*
X178100608Y-85720598D01*
X178014652Y-85746673D01*
X177935434Y-85789016D01*
X177865999Y-85845999D01*
X177809016Y-85915434D01*
X177766673Y-85994652D01*
X177740598Y-86080608D01*
X177731794Y-86170000D01*
X177734001Y-86192409D01*
X177734000Y-101147601D01*
X177731794Y-101170000D01*
X177740598Y-101259392D01*
X177766673Y-101345348D01*
X177809016Y-101424566D01*
X177857746Y-101483945D01*
X177865999Y-101494001D01*
X177935434Y-101550984D01*
X178014652Y-101593327D01*
X178100608Y-101619402D01*
X178190000Y-101628206D01*
X178212399Y-101626000D01*
X188734001Y-101626000D01*
X188734000Y-105714000D01*
X168212399Y-105714000D01*
X168190000Y-105711794D01*
X168167601Y-105714000D01*
X168100608Y-105720598D01*
X168014652Y-105746673D01*
X167935434Y-105789016D01*
X167865999Y-105845999D01*
X167809016Y-105915434D01*
X167766673Y-105994652D01*
X167740598Y-106080608D01*
X167731794Y-106170000D01*
X167734001Y-106192409D01*
X167734000Y-124714000D01*
X104646000Y-124714000D01*
X104646000Y-114750000D01*
X108287157Y-114750000D01*
X108287157Y-117050000D01*
X108294513Y-117124689D01*
X108316299Y-117196508D01*
X108351678Y-117262696D01*
X108399289Y-117320711D01*
X108457304Y-117368322D01*
X108523492Y-117403701D01*
X108595311Y-117425487D01*
X108670000Y-117432843D01*
X111870000Y-117432843D01*
X111944689Y-117425487D01*
X112016508Y-117403701D01*
X112082696Y-117368322D01*
X112140711Y-117320711D01*
X112188322Y-117262696D01*
X112223701Y-117196508D01*
X112245487Y-117124689D01*
X112252843Y-117050000D01*
X112252843Y-114750000D01*
X112245487Y-114675311D01*
X112223701Y-114603492D01*
X112188322Y-114537304D01*
X112140711Y-114479289D01*
X112082696Y-114431678D01*
X112016508Y-114396299D01*
X111944689Y-114374513D01*
X111870000Y-114367157D01*
X108670000Y-114367157D01*
X108595311Y-114374513D01*
X108523492Y-114396299D01*
X108457304Y-114431678D01*
X108399289Y-114479289D01*
X108351678Y-114537304D01*
X108316299Y-114603492D01*
X108294513Y-114675311D01*
X108287157Y-114750000D01*
X104646000Y-114750000D01*
X104646000Y-113658304D01*
X112839000Y-113658304D01*
X112839000Y-113841696D01*
X112874778Y-114021563D01*
X112944958Y-114190994D01*
X113046845Y-114343478D01*
X113176522Y-114473155D01*
X113329006Y-114575042D01*
X113498437Y-114645222D01*
X113678304Y-114681000D01*
X113861696Y-114681000D01*
X114041563Y-114645222D01*
X114210994Y-114575042D01*
X114363478Y-114473155D01*
X114493155Y-114343478D01*
X114595042Y-114190994D01*
X114665222Y-114021563D01*
X114701000Y-113841696D01*
X114701000Y-113658304D01*
X114665222Y-113478437D01*
X114595042Y-113309006D01*
X114493155Y-113156522D01*
X114363478Y-113026845D01*
X114210994Y-112924958D01*
X114041563Y-112854778D01*
X113861696Y-112819000D01*
X113678304Y-112819000D01*
X113498437Y-112854778D01*
X113329006Y-112924958D01*
X113176522Y-113026845D01*
X113046845Y-113156522D01*
X112944958Y-113309006D01*
X112874778Y-113478437D01*
X112839000Y-113658304D01*
X104646000Y-113658304D01*
X104646000Y-86450000D01*
X104941929Y-86450000D01*
X104945000Y-86481181D01*
X104945001Y-107278809D01*
X104941929Y-107310000D01*
X104945001Y-107341191D01*
X104945001Y-107341192D01*
X104954189Y-107434482D01*
X104959382Y-107451601D01*
X104990498Y-107554179D01*
X105049463Y-107664493D01*
X105049464Y-107664494D01*
X105128816Y-107761185D01*
X105153046Y-107781070D01*
X105428926Y-108056950D01*
X105448815Y-108081185D01*
X105545506Y-108160537D01*
X105655820Y-108219502D01*
X105775518Y-108255812D01*
X105868808Y-108265000D01*
X105868818Y-108265000D01*
X105899999Y-108268071D01*
X105931180Y-108265000D01*
X106046874Y-108265000D01*
X106026299Y-108303492D01*
X106004513Y-108375311D01*
X105997157Y-108450000D01*
X105997157Y-109050000D01*
X106004513Y-109124689D01*
X106026299Y-109196508D01*
X106061678Y-109262696D01*
X106109289Y-109320711D01*
X106167304Y-109368322D01*
X106233492Y-109403701D01*
X106305311Y-109425487D01*
X106380000Y-109432843D01*
X107380000Y-109432843D01*
X107454689Y-109425487D01*
X107526508Y-109403701D01*
X107592696Y-109368322D01*
X107650711Y-109320711D01*
X107680018Y-109285000D01*
X108577223Y-109285000D01*
X108595311Y-109290487D01*
X108670000Y-109297843D01*
X110670000Y-109297843D01*
X110744689Y-109290487D01*
X110816508Y-109268701D01*
X110882696Y-109233322D01*
X110940711Y-109185711D01*
X110963453Y-109158000D01*
X111005056Y-109158000D01*
X111030000Y-109160457D01*
X111054944Y-109158000D01*
X111054947Y-109158000D01*
X111129585Y-109150649D01*
X111225343Y-109121601D01*
X111313595Y-109074429D01*
X111390948Y-109010948D01*
X111406854Y-108991566D01*
X111680421Y-108718000D01*
X112179580Y-108718000D01*
X113082001Y-109620422D01*
X113082000Y-109737499D01*
X113007859Y-109663358D01*
X112879942Y-109577887D01*
X112737809Y-109519013D01*
X112586922Y-109489000D01*
X112433078Y-109489000D01*
X112282191Y-109519013D01*
X112140058Y-109577887D01*
X112012141Y-109663358D01*
X111913499Y-109762000D01*
X110979866Y-109762000D01*
X110940711Y-109714289D01*
X110882696Y-109666678D01*
X110816508Y-109631299D01*
X110744689Y-109609513D01*
X110670000Y-109602157D01*
X108670000Y-109602157D01*
X108595311Y-109609513D01*
X108523492Y-109631299D01*
X108457304Y-109666678D01*
X108399289Y-109714289D01*
X108351678Y-109772304D01*
X108316299Y-109838492D01*
X108294513Y-109910311D01*
X108287157Y-109985000D01*
X108287157Y-110515000D01*
X108294513Y-110589689D01*
X108312808Y-110650000D01*
X108294513Y-110710311D01*
X108287157Y-110785000D01*
X108287157Y-111315000D01*
X108294513Y-111389689D01*
X108312808Y-111450000D01*
X108294513Y-111510311D01*
X108287157Y-111585000D01*
X108287157Y-112115000D01*
X108294513Y-112189689D01*
X108312808Y-112250000D01*
X108294513Y-112310311D01*
X108287157Y-112385000D01*
X108287157Y-112915000D01*
X108294513Y-112989689D01*
X108316299Y-113061508D01*
X108351678Y-113127696D01*
X108399289Y-113185711D01*
X108457304Y-113233322D01*
X108523492Y-113268701D01*
X108595311Y-113290487D01*
X108670000Y-113297843D01*
X110670000Y-113297843D01*
X110744689Y-113290487D01*
X110816508Y-113268701D01*
X110882696Y-113233322D01*
X110940711Y-113185711D01*
X110988322Y-113127696D01*
X111023701Y-113061508D01*
X111045487Y-112989689D01*
X111052843Y-112915000D01*
X111052843Y-112385000D01*
X111045487Y-112310311D01*
X111027192Y-112250000D01*
X111045487Y-112189689D01*
X111052843Y-112115000D01*
X111052843Y-111585000D01*
X111045487Y-111510311D01*
X111027192Y-111450000D01*
X111045487Y-111389689D01*
X111052843Y-111315000D01*
X111052843Y-110785000D01*
X111052154Y-110778000D01*
X111913499Y-110778000D01*
X112012141Y-110876642D01*
X112140058Y-110962113D01*
X112282191Y-111020987D01*
X112433078Y-111051000D01*
X112586922Y-111051000D01*
X112737809Y-111020987D01*
X112879942Y-110962113D01*
X113007859Y-110876642D01*
X113116642Y-110767859D01*
X113202113Y-110639942D01*
X113260987Y-110497809D01*
X113274990Y-110427410D01*
X116239150Y-113391571D01*
X116255052Y-113410948D01*
X116274429Y-113426850D01*
X116332404Y-113474429D01*
X116420655Y-113521600D01*
X116420657Y-113521601D01*
X116516415Y-113550649D01*
X116575272Y-113556446D01*
X116599289Y-113585711D01*
X116657304Y-113633322D01*
X116723492Y-113668701D01*
X116795311Y-113690487D01*
X116870000Y-113697843D01*
X118870000Y-113697843D01*
X118944689Y-113690487D01*
X119016508Y-113668701D01*
X119082696Y-113633322D01*
X119140711Y-113585711D01*
X119188322Y-113527696D01*
X119223701Y-113461508D01*
X119245487Y-113389689D01*
X119252843Y-113315000D01*
X119252843Y-113184436D01*
X160139000Y-113184436D01*
X160139000Y-113515564D01*
X160203600Y-113840330D01*
X160330317Y-114146252D01*
X160514282Y-114421575D01*
X160748425Y-114655718D01*
X161023748Y-114839683D01*
X161329670Y-114966400D01*
X161654436Y-115031000D01*
X161985564Y-115031000D01*
X162310330Y-114966400D01*
X162616252Y-114839683D01*
X162891575Y-114655718D01*
X163125718Y-114421575D01*
X163309683Y-114146252D01*
X163436400Y-113840330D01*
X163501000Y-113515564D01*
X163501000Y-113184436D01*
X163436400Y-112859670D01*
X163309683Y-112553748D01*
X163125718Y-112278425D01*
X162891575Y-112044282D01*
X162616252Y-111860317D01*
X162310330Y-111733600D01*
X161985564Y-111669000D01*
X161654436Y-111669000D01*
X161329670Y-111733600D01*
X161023748Y-111860317D01*
X160748425Y-112044282D01*
X160514282Y-112278425D01*
X160330317Y-112553748D01*
X160203600Y-112859670D01*
X160139000Y-113184436D01*
X119252843Y-113184436D01*
X119252843Y-112785000D01*
X119245487Y-112710311D01*
X119223701Y-112638492D01*
X119188322Y-112572304D01*
X119140711Y-112514289D01*
X119082696Y-112466678D01*
X119016508Y-112431299D01*
X118944689Y-112409513D01*
X118870000Y-112402157D01*
X116870000Y-112402157D01*
X116795311Y-112409513D01*
X116723492Y-112431299D01*
X116718427Y-112434006D01*
X114098000Y-109813580D01*
X114098000Y-109490420D01*
X114803420Y-108785000D01*
X116487157Y-108785000D01*
X116487157Y-109315000D01*
X116494513Y-109389689D01*
X116512808Y-109450000D01*
X116494513Y-109510311D01*
X116487157Y-109585000D01*
X116487157Y-110115000D01*
X116494513Y-110189689D01*
X116512808Y-110250000D01*
X116494513Y-110310311D01*
X116487157Y-110385000D01*
X116487157Y-110915000D01*
X116494513Y-110989689D01*
X116512808Y-111050000D01*
X116494513Y-111110311D01*
X116487157Y-111185000D01*
X116487157Y-111715000D01*
X116494513Y-111789689D01*
X116516299Y-111861508D01*
X116551678Y-111927696D01*
X116599289Y-111985711D01*
X116657304Y-112033322D01*
X116723492Y-112068701D01*
X116795311Y-112090487D01*
X116870000Y-112097843D01*
X118870000Y-112097843D01*
X118944689Y-112090487D01*
X119016508Y-112068701D01*
X119082696Y-112033322D01*
X119140711Y-111985711D01*
X119188322Y-111927696D01*
X119223701Y-111861508D01*
X119245487Y-111789689D01*
X119252843Y-111715000D01*
X119252843Y-111185000D01*
X119245487Y-111110311D01*
X119227192Y-111050000D01*
X119245487Y-110989689D01*
X119252843Y-110915000D01*
X119252843Y-110385000D01*
X119245487Y-110310311D01*
X119227192Y-110250000D01*
X119245487Y-110189689D01*
X119252843Y-110115000D01*
X119252843Y-109585000D01*
X119245487Y-109510311D01*
X119227192Y-109450000D01*
X119245487Y-109389689D01*
X119252843Y-109315000D01*
X119252843Y-108785000D01*
X119245487Y-108710311D01*
X119223701Y-108638492D01*
X119188322Y-108572304D01*
X119140711Y-108514289D01*
X119082696Y-108466678D01*
X119016508Y-108431299D01*
X118944689Y-108409513D01*
X118870000Y-108402157D01*
X116870000Y-108402157D01*
X116795311Y-108409513D01*
X116723492Y-108431299D01*
X116657304Y-108466678D01*
X116599289Y-108514289D01*
X116551678Y-108572304D01*
X116516299Y-108638492D01*
X116494513Y-108710311D01*
X116487157Y-108785000D01*
X114803420Y-108785000D01*
X116231571Y-107356850D01*
X116250948Y-107340948D01*
X116292360Y-107290487D01*
X116314429Y-107263596D01*
X116361600Y-107175345D01*
X116366579Y-107158932D01*
X116390649Y-107079585D01*
X116398000Y-107004947D01*
X116398000Y-107004945D01*
X116400457Y-106980001D01*
X116398000Y-106955057D01*
X116398000Y-106385000D01*
X116487157Y-106385000D01*
X116487157Y-106915000D01*
X116494513Y-106989689D01*
X116512808Y-107050000D01*
X116494513Y-107110311D01*
X116487157Y-107185000D01*
X116487157Y-107715000D01*
X116494513Y-107789689D01*
X116516299Y-107861508D01*
X116551678Y-107927696D01*
X116599289Y-107985711D01*
X116657304Y-108033322D01*
X116723492Y-108068701D01*
X116795311Y-108090487D01*
X116870000Y-108097843D01*
X118870000Y-108097843D01*
X118944689Y-108090487D01*
X119016508Y-108068701D01*
X119082696Y-108033322D01*
X119140711Y-107985711D01*
X119188322Y-107927696D01*
X119223701Y-107861508D01*
X119245487Y-107789689D01*
X119252843Y-107715000D01*
X119252843Y-107185000D01*
X119245487Y-107110311D01*
X119227192Y-107050000D01*
X119245487Y-106989689D01*
X119252843Y-106915000D01*
X119252843Y-106385000D01*
X119245487Y-106310311D01*
X119223701Y-106238492D01*
X119188322Y-106172304D01*
X119140711Y-106114289D01*
X119082696Y-106066678D01*
X119016508Y-106031299D01*
X118944689Y-106009513D01*
X118870000Y-106002157D01*
X116870000Y-106002157D01*
X116795311Y-106009513D01*
X116723492Y-106031299D01*
X116657304Y-106066678D01*
X116599289Y-106114289D01*
X116551678Y-106172304D01*
X116516299Y-106238492D01*
X116494513Y-106310311D01*
X116487157Y-106385000D01*
X116398000Y-106385000D01*
X116398000Y-103185000D01*
X116487157Y-103185000D01*
X116487157Y-103715000D01*
X116494513Y-103789689D01*
X116512808Y-103850000D01*
X116494513Y-103910311D01*
X116487157Y-103985000D01*
X116487157Y-104515000D01*
X116494513Y-104589689D01*
X116512808Y-104650000D01*
X116494513Y-104710311D01*
X116487157Y-104785000D01*
X116487157Y-105315000D01*
X116494513Y-105389689D01*
X116516299Y-105461508D01*
X116551678Y-105527696D01*
X116599289Y-105585711D01*
X116657304Y-105633322D01*
X116723492Y-105668701D01*
X116795311Y-105690487D01*
X116870000Y-105697843D01*
X118870000Y-105697843D01*
X118944689Y-105690487D01*
X119016508Y-105668701D01*
X119082696Y-105633322D01*
X119140711Y-105585711D01*
X119163453Y-105558000D01*
X121935056Y-105558000D01*
X121960000Y-105560457D01*
X121984944Y-105558000D01*
X121984947Y-105558000D01*
X122059585Y-105550649D01*
X122155343Y-105521601D01*
X122243595Y-105474429D01*
X122257426Y-105463078D01*
X126309000Y-105463078D01*
X126309000Y-105616922D01*
X126339013Y-105767809D01*
X126397887Y-105909942D01*
X126483358Y-106037859D01*
X126592141Y-106146642D01*
X126720058Y-106232113D01*
X126862191Y-106290987D01*
X127013078Y-106321000D01*
X127166922Y-106321000D01*
X127317809Y-106290987D01*
X127459942Y-106232113D01*
X127587859Y-106146642D01*
X127686501Y-106048000D01*
X128085056Y-106048000D01*
X128110000Y-106050457D01*
X128134944Y-106048000D01*
X128134947Y-106048000D01*
X128209585Y-106040649D01*
X128305343Y-106011601D01*
X128393595Y-105964429D01*
X128470948Y-105900948D01*
X128486855Y-105881565D01*
X140231565Y-94136855D01*
X140250948Y-94120948D01*
X140314429Y-94043595D01*
X140361601Y-93955343D01*
X140390649Y-93859585D01*
X140398000Y-93784947D01*
X140398000Y-93784944D01*
X140400457Y-93760000D01*
X140398000Y-93735056D01*
X140398000Y-88984436D01*
X160139000Y-88984436D01*
X160139000Y-89315564D01*
X160203600Y-89640330D01*
X160330317Y-89946252D01*
X160514282Y-90221575D01*
X160748425Y-90455718D01*
X161023748Y-90639683D01*
X161329670Y-90766400D01*
X161654436Y-90831000D01*
X161985564Y-90831000D01*
X162310330Y-90766400D01*
X162616252Y-90639683D01*
X162891575Y-90455718D01*
X163125718Y-90221575D01*
X163309683Y-89946252D01*
X163436400Y-89640330D01*
X163501000Y-89315564D01*
X163501000Y-88984436D01*
X163436400Y-88659670D01*
X163309683Y-88353748D01*
X163125718Y-88078425D01*
X162891575Y-87844282D01*
X162616252Y-87660317D01*
X162310330Y-87533600D01*
X161985564Y-87469000D01*
X161654436Y-87469000D01*
X161329670Y-87533600D01*
X161023748Y-87660317D01*
X160748425Y-87844282D01*
X160514282Y-88078425D01*
X160330317Y-88353748D01*
X160203600Y-88659670D01*
X160139000Y-88984436D01*
X140398000Y-88984436D01*
X140398000Y-73354943D01*
X140400457Y-73329999D01*
X140396476Y-73289584D01*
X140390649Y-73230415D01*
X140361601Y-73134657D01*
X140337953Y-73090415D01*
X140314429Y-73046404D01*
X140266850Y-72988429D01*
X140250948Y-72969052D01*
X140231571Y-72953150D01*
X138846855Y-71568435D01*
X138830948Y-71549052D01*
X138753595Y-71485571D01*
X138665343Y-71438399D01*
X138569585Y-71409351D01*
X138494947Y-71402000D01*
X138494944Y-71402000D01*
X138470000Y-71399543D01*
X138445056Y-71402000D01*
X138066725Y-71402000D01*
X138032950Y-71320461D01*
X137896744Y-71116614D01*
X137723386Y-70943256D01*
X137519539Y-70807050D01*
X137293036Y-70713229D01*
X137052582Y-70665400D01*
X136807418Y-70665400D01*
X136566964Y-70713229D01*
X136340461Y-70807050D01*
X136136614Y-70943256D01*
X135963256Y-71116614D01*
X135827050Y-71320461D01*
X135733229Y-71546964D01*
X135685400Y-71787418D01*
X135685400Y-72032582D01*
X135733229Y-72273036D01*
X135827050Y-72499539D01*
X135963256Y-72703386D01*
X136136614Y-72876744D01*
X136340461Y-73012950D01*
X136566964Y-73106771D01*
X136807418Y-73154600D01*
X137052582Y-73154600D01*
X137293036Y-73106771D01*
X137519539Y-73012950D01*
X137723386Y-72876744D01*
X137896744Y-72703386D01*
X138032950Y-72499539D01*
X138066725Y-72418000D01*
X138259580Y-72418000D01*
X139382001Y-73540422D01*
X139382000Y-93549580D01*
X127899580Y-105032000D01*
X127686501Y-105032000D01*
X127587859Y-104933358D01*
X127459942Y-104847887D01*
X127317809Y-104789013D01*
X127166922Y-104759000D01*
X127013078Y-104759000D01*
X126862191Y-104789013D01*
X126720058Y-104847887D01*
X126592141Y-104933358D01*
X126483358Y-105042141D01*
X126397887Y-105170058D01*
X126339013Y-105312191D01*
X126309000Y-105463078D01*
X122257426Y-105463078D01*
X122320948Y-105410948D01*
X122336855Y-105391565D01*
X127701571Y-100026850D01*
X127720948Y-100010948D01*
X127762712Y-99960058D01*
X127784429Y-99933596D01*
X127831600Y-99845345D01*
X127833679Y-99838492D01*
X127860649Y-99749585D01*
X127868000Y-99674947D01*
X127868000Y-99674945D01*
X127870457Y-99650001D01*
X127868000Y-99625057D01*
X127868000Y-99366501D01*
X127966642Y-99267859D01*
X128052113Y-99139942D01*
X128110987Y-98997809D01*
X128141000Y-98846922D01*
X128141000Y-98693078D01*
X128110987Y-98542191D01*
X128052113Y-98400058D01*
X127966642Y-98272141D01*
X127857859Y-98163358D01*
X127729942Y-98077887D01*
X127587809Y-98019013D01*
X127436922Y-97989000D01*
X127283078Y-97989000D01*
X127132191Y-98019013D01*
X127046067Y-98054687D01*
X127005917Y-97994598D01*
X126897134Y-97885815D01*
X126769217Y-97800344D01*
X126627084Y-97741470D01*
X126476197Y-97711457D01*
X126322353Y-97711457D01*
X126171466Y-97741470D01*
X126029333Y-97800344D01*
X125901416Y-97885815D01*
X125792633Y-97994598D01*
X125707162Y-98122515D01*
X125648288Y-98264648D01*
X125618275Y-98415535D01*
X125618275Y-98569379D01*
X125648288Y-98720266D01*
X125707162Y-98862399D01*
X125792633Y-98990316D01*
X125891276Y-99088959D01*
X125891275Y-99500304D01*
X121649580Y-103742000D01*
X119250184Y-103742000D01*
X119252843Y-103715000D01*
X119252843Y-103185000D01*
X119245487Y-103110311D01*
X119223701Y-103038492D01*
X119188322Y-102972304D01*
X119140711Y-102914289D01*
X119082696Y-102866678D01*
X119016508Y-102831299D01*
X118944689Y-102809513D01*
X118870000Y-102802157D01*
X116870000Y-102802157D01*
X116795311Y-102809513D01*
X116723492Y-102831299D01*
X116657304Y-102866678D01*
X116599289Y-102914289D01*
X116551678Y-102972304D01*
X116516299Y-103038492D01*
X116494513Y-103110311D01*
X116487157Y-103185000D01*
X116398000Y-103185000D01*
X116398000Y-102640420D01*
X116628630Y-102409790D01*
X116657304Y-102433322D01*
X116723492Y-102468701D01*
X116795311Y-102490487D01*
X116870000Y-102497843D01*
X117726282Y-102497843D01*
X117785518Y-102515812D01*
X117878808Y-102525000D01*
X117878811Y-102525000D01*
X117910000Y-102528072D01*
X117941189Y-102525000D01*
X119624582Y-102525000D01*
X119710058Y-102582113D01*
X119852191Y-102640987D01*
X120003078Y-102671000D01*
X120156922Y-102671000D01*
X120307809Y-102640987D01*
X120449942Y-102582113D01*
X120577859Y-102496642D01*
X120686642Y-102387859D01*
X120772113Y-102259942D01*
X120830987Y-102117809D01*
X120861000Y-101966922D01*
X120861000Y-101813078D01*
X120830987Y-101662191D01*
X120772113Y-101520058D01*
X120686642Y-101392141D01*
X120577859Y-101283358D01*
X120449942Y-101197887D01*
X120307809Y-101139013D01*
X120156922Y-101109000D01*
X120003078Y-101109000D01*
X119852191Y-101139013D01*
X119710058Y-101197887D01*
X119624582Y-101255000D01*
X119252843Y-101255000D01*
X119252843Y-100785000D01*
X119250184Y-100758000D01*
X122006680Y-100758000D01*
X122053358Y-100827859D01*
X122162141Y-100936642D01*
X122290058Y-101022113D01*
X122432191Y-101080987D01*
X122583078Y-101111000D01*
X122736922Y-101111000D01*
X122887809Y-101080987D01*
X123029942Y-101022113D01*
X123157859Y-100936642D01*
X123266642Y-100827859D01*
X123352113Y-100699942D01*
X123410987Y-100557809D01*
X123441000Y-100406922D01*
X123441000Y-100253078D01*
X123410987Y-100102191D01*
X123352113Y-99960058D01*
X123266642Y-99832141D01*
X123157859Y-99723358D01*
X123029942Y-99637887D01*
X122887809Y-99579013D01*
X122736922Y-99549000D01*
X122583078Y-99549000D01*
X122432191Y-99579013D01*
X122290058Y-99637887D01*
X122162141Y-99723358D01*
X122143499Y-99742000D01*
X119163453Y-99742000D01*
X119140711Y-99714289D01*
X119082696Y-99666678D01*
X119016508Y-99631299D01*
X118944689Y-99609513D01*
X118870000Y-99602157D01*
X116992002Y-99602157D01*
X116992002Y-96097843D01*
X118870000Y-96097843D01*
X118944689Y-96090487D01*
X119016508Y-96068701D01*
X119082696Y-96033322D01*
X119140711Y-95985711D01*
X119163453Y-95958000D01*
X128865056Y-95958000D01*
X128890000Y-95960457D01*
X128914944Y-95958000D01*
X128914947Y-95958000D01*
X128989585Y-95950649D01*
X129085343Y-95921601D01*
X129173595Y-95874429D01*
X129250948Y-95810948D01*
X129266855Y-95791565D01*
X134731565Y-90326855D01*
X134750948Y-90310948D01*
X134814429Y-90233595D01*
X134861601Y-90145343D01*
X134890649Y-90049585D01*
X134898000Y-89974947D01*
X134898000Y-89974944D01*
X134900457Y-89950000D01*
X134898000Y-89925056D01*
X134898000Y-75586725D01*
X134979539Y-75552950D01*
X135183386Y-75416744D01*
X135231399Y-75368731D01*
X135231399Y-76234455D01*
X135228942Y-76259399D01*
X135231399Y-76284343D01*
X135231399Y-76284345D01*
X135238750Y-76358983D01*
X135267798Y-76454741D01*
X135314970Y-76542994D01*
X135378451Y-76620347D01*
X135397834Y-76636254D01*
X138122001Y-79360422D01*
X138122000Y-92589580D01*
X131648041Y-99063540D01*
X131607859Y-99023358D01*
X131479942Y-98937887D01*
X131337809Y-98879013D01*
X131186922Y-98849000D01*
X131033078Y-98849000D01*
X130882191Y-98879013D01*
X130740058Y-98937887D01*
X130612141Y-99023358D01*
X130503358Y-99132141D01*
X130417887Y-99260058D01*
X130359013Y-99402191D01*
X130329000Y-99553078D01*
X130329000Y-99706922D01*
X130359013Y-99857809D01*
X130417887Y-99999942D01*
X130503358Y-100127859D01*
X130612141Y-100236642D01*
X130740058Y-100322113D01*
X130882191Y-100380987D01*
X131033078Y-100411000D01*
X131186922Y-100411000D01*
X131337809Y-100380987D01*
X131479942Y-100322113D01*
X131607859Y-100236642D01*
X131706501Y-100138000D01*
X131775056Y-100138000D01*
X131800000Y-100140457D01*
X131824944Y-100138000D01*
X131824947Y-100138000D01*
X131899585Y-100130649D01*
X131995343Y-100101601D01*
X132083595Y-100054429D01*
X132160948Y-99990948D01*
X132176855Y-99971565D01*
X138971565Y-93176855D01*
X138990948Y-93160948D01*
X139054429Y-93083595D01*
X139101601Y-92995343D01*
X139130649Y-92899585D01*
X139138000Y-92824947D01*
X139138000Y-92824944D01*
X139140457Y-92800000D01*
X139138000Y-92775056D01*
X139138000Y-79174943D01*
X139140457Y-79149999D01*
X139136327Y-79108071D01*
X139130649Y-79050415D01*
X139101601Y-78954657D01*
X139101600Y-78954655D01*
X139054429Y-78866404D01*
X139006850Y-78808429D01*
X138990948Y-78789052D01*
X138971571Y-78773150D01*
X136247399Y-76048979D01*
X136247399Y-73494342D01*
X136249856Y-73469398D01*
X136246950Y-73439892D01*
X136240048Y-73369814D01*
X136211000Y-73274056D01*
X136188894Y-73232699D01*
X136163828Y-73185803D01*
X136116249Y-73127828D01*
X136100347Y-73108451D01*
X136080970Y-73092549D01*
X135490951Y-72502531D01*
X135492950Y-72499539D01*
X135586771Y-72273036D01*
X135634600Y-72032582D01*
X135634600Y-71787418D01*
X135586771Y-71546964D01*
X135492950Y-71320461D01*
X135356744Y-71116614D01*
X135183386Y-70943256D01*
X134979539Y-70807050D01*
X134753036Y-70713229D01*
X134512582Y-70665400D01*
X134267418Y-70665400D01*
X134026964Y-70713229D01*
X133800461Y-70807050D01*
X133596614Y-70943256D01*
X133423256Y-71116614D01*
X133287050Y-71320461D01*
X133193229Y-71546964D01*
X133145400Y-71787418D01*
X133145400Y-72032582D01*
X133193229Y-72273036D01*
X133287050Y-72499539D01*
X133423256Y-72703386D01*
X133596614Y-72876744D01*
X133800461Y-73012950D01*
X134026964Y-73106771D01*
X134267418Y-73154600D01*
X134512582Y-73154600D01*
X134674060Y-73122480D01*
X134841417Y-73289838D01*
X134753036Y-73253229D01*
X134512582Y-73205400D01*
X134267418Y-73205400D01*
X134026964Y-73253229D01*
X133800461Y-73347050D01*
X133596614Y-73483256D01*
X133423256Y-73656614D01*
X133287050Y-73860461D01*
X133193229Y-74086964D01*
X133145400Y-74327418D01*
X133145400Y-74572582D01*
X133193229Y-74813036D01*
X133287050Y-75039539D01*
X133423256Y-75243386D01*
X133596614Y-75416744D01*
X133800461Y-75552950D01*
X133882001Y-75586725D01*
X133882000Y-89739580D01*
X132358000Y-91263580D01*
X132358000Y-75586725D01*
X132439539Y-75552950D01*
X132643386Y-75416744D01*
X132816744Y-75243386D01*
X132952950Y-75039539D01*
X133046771Y-74813036D01*
X133094600Y-74572582D01*
X133094600Y-74327418D01*
X133046771Y-74086964D01*
X132952950Y-73860461D01*
X132816744Y-73656614D01*
X132643386Y-73483256D01*
X132439539Y-73347050D01*
X132213036Y-73253229D01*
X131972582Y-73205400D01*
X131727418Y-73205400D01*
X131486964Y-73253229D01*
X131260461Y-73347050D01*
X131056614Y-73483256D01*
X130883256Y-73656614D01*
X130747050Y-73860461D01*
X130653229Y-74086964D01*
X130605400Y-74327418D01*
X130605400Y-74572582D01*
X130653229Y-74813036D01*
X130747050Y-75039539D01*
X130883256Y-75243386D01*
X131056614Y-75416744D01*
X131260461Y-75552950D01*
X131342001Y-75586725D01*
X131342000Y-91583716D01*
X131232011Y-91693705D01*
X131232011Y-77038954D01*
X131234468Y-77014010D01*
X131229492Y-76963492D01*
X131224660Y-76914426D01*
X131195612Y-76818668D01*
X131185856Y-76800415D01*
X131148440Y-76730415D01*
X131100861Y-76672440D01*
X131084959Y-76653063D01*
X131065582Y-76637161D01*
X129948593Y-75520173D01*
X130103386Y-75416744D01*
X130276744Y-75243386D01*
X130412950Y-75039539D01*
X130506771Y-74813036D01*
X130554600Y-74572582D01*
X130554600Y-74327418D01*
X130506771Y-74086964D01*
X130412950Y-73860461D01*
X130276744Y-73656614D01*
X130258130Y-73638000D01*
X130605056Y-73638000D01*
X130630000Y-73640457D01*
X130654944Y-73638000D01*
X130654947Y-73638000D01*
X130729585Y-73630649D01*
X130825343Y-73601601D01*
X130913595Y-73554429D01*
X130990948Y-73490948D01*
X131006855Y-73471565D01*
X131405424Y-73072996D01*
X131486964Y-73106771D01*
X131727418Y-73154600D01*
X131972582Y-73154600D01*
X132213036Y-73106771D01*
X132439539Y-73012950D01*
X132643386Y-72876744D01*
X132816744Y-72703386D01*
X132952950Y-72499539D01*
X133046771Y-72273036D01*
X133094600Y-72032582D01*
X133094600Y-71787418D01*
X133046771Y-71546964D01*
X132952950Y-71320461D01*
X132816744Y-71116614D01*
X132643386Y-70943256D01*
X132439539Y-70807050D01*
X132213036Y-70713229D01*
X131972582Y-70665400D01*
X131727418Y-70665400D01*
X131486964Y-70713229D01*
X131260461Y-70807050D01*
X131056614Y-70943256D01*
X130883256Y-71116614D01*
X130747050Y-71320461D01*
X130653229Y-71546964D01*
X130605400Y-71787418D01*
X130605400Y-72032582D01*
X130653229Y-72273036D01*
X130687004Y-72354576D01*
X130419580Y-72622000D01*
X128784944Y-72622000D01*
X128760000Y-72619543D01*
X128735056Y-72622000D01*
X128735053Y-72622000D01*
X128660415Y-72629351D01*
X128564657Y-72658399D01*
X128543730Y-72669585D01*
X128476404Y-72705571D01*
X128448589Y-72728399D01*
X128399052Y-72769052D01*
X128383145Y-72788435D01*
X127625855Y-73545725D01*
X127563386Y-73483256D01*
X127359539Y-73347050D01*
X127133036Y-73253229D01*
X126892582Y-73205400D01*
X126647418Y-73205400D01*
X126406964Y-73253229D01*
X126180461Y-73347050D01*
X126008000Y-73462285D01*
X126008000Y-73390420D01*
X126325424Y-73072996D01*
X126406964Y-73106771D01*
X126647418Y-73154600D01*
X126892582Y-73154600D01*
X127133036Y-73106771D01*
X127359539Y-73012950D01*
X127563386Y-72876744D01*
X127736744Y-72703386D01*
X127872950Y-72499539D01*
X127966771Y-72273036D01*
X128014600Y-72032582D01*
X128014600Y-71787418D01*
X127966771Y-71546964D01*
X127872950Y-71320461D01*
X127736744Y-71116614D01*
X127563386Y-70943256D01*
X127359539Y-70807050D01*
X127133036Y-70713229D01*
X126892582Y-70665400D01*
X126647418Y-70665400D01*
X126406964Y-70713229D01*
X126180461Y-70807050D01*
X125976614Y-70943256D01*
X125803256Y-71116614D01*
X125667050Y-71320461D01*
X125573229Y-71546964D01*
X125525400Y-71787418D01*
X125525400Y-72032582D01*
X125573229Y-72273036D01*
X125607004Y-72354576D01*
X125158435Y-72803145D01*
X125139052Y-72819052D01*
X125075571Y-72896405D01*
X125028399Y-72984658D01*
X124999351Y-73080416D01*
X124994468Y-73130000D01*
X124989543Y-73180000D01*
X124992000Y-73204944D01*
X124992000Y-73462285D01*
X124819539Y-73347050D01*
X124593036Y-73253229D01*
X124352582Y-73205400D01*
X124107418Y-73205400D01*
X123866964Y-73253229D01*
X123640461Y-73347050D01*
X123468000Y-73462285D01*
X123468000Y-73390420D01*
X123785424Y-73072996D01*
X123866964Y-73106771D01*
X124107418Y-73154600D01*
X124352582Y-73154600D01*
X124593036Y-73106771D01*
X124819539Y-73012950D01*
X125023386Y-72876744D01*
X125196744Y-72703386D01*
X125332950Y-72499539D01*
X125426771Y-72273036D01*
X125474600Y-72032582D01*
X125474600Y-71787418D01*
X125426771Y-71546964D01*
X125332950Y-71320461D01*
X125196744Y-71116614D01*
X125023386Y-70943256D01*
X124819539Y-70807050D01*
X124593036Y-70713229D01*
X124352582Y-70665400D01*
X124107418Y-70665400D01*
X123866964Y-70713229D01*
X123640461Y-70807050D01*
X123436614Y-70943256D01*
X123263256Y-71116614D01*
X123127050Y-71320461D01*
X123033229Y-71546964D01*
X122985400Y-71787418D01*
X122985400Y-72032582D01*
X123033229Y-72273036D01*
X123067004Y-72354576D01*
X122618435Y-72803145D01*
X122599052Y-72819052D01*
X122535571Y-72896405D01*
X122488399Y-72984658D01*
X122459351Y-73080416D01*
X122454468Y-73130000D01*
X122449543Y-73180000D01*
X122452000Y-73204944D01*
X122452000Y-73462285D01*
X122279539Y-73347050D01*
X122053036Y-73253229D01*
X121812582Y-73205400D01*
X121567418Y-73205400D01*
X121326964Y-73253229D01*
X121100461Y-73347050D01*
X120938000Y-73455603D01*
X120938000Y-73214943D01*
X120940457Y-73189999D01*
X120935006Y-73134655D01*
X120930649Y-73090415D01*
X120901601Y-72994657D01*
X120898272Y-72988429D01*
X120854429Y-72906404D01*
X120806850Y-72848429D01*
X120790948Y-72829052D01*
X120771571Y-72813150D01*
X120312996Y-72354575D01*
X120346771Y-72273036D01*
X120394600Y-72032582D01*
X120394600Y-71787418D01*
X120346771Y-71546964D01*
X120252950Y-71320461D01*
X120116744Y-71116614D01*
X119943386Y-70943256D01*
X119739539Y-70807050D01*
X119513036Y-70713229D01*
X119272582Y-70665400D01*
X119027418Y-70665400D01*
X118786964Y-70713229D01*
X118560461Y-70807050D01*
X118356614Y-70943256D01*
X118183256Y-71116614D01*
X118047050Y-71320461D01*
X117953229Y-71546964D01*
X117905400Y-71787418D01*
X117905400Y-72032582D01*
X117953229Y-72273036D01*
X118047050Y-72499539D01*
X118183256Y-72703386D01*
X118356614Y-72876744D01*
X118560461Y-73012950D01*
X118786964Y-73106771D01*
X119027418Y-73154600D01*
X119272582Y-73154600D01*
X119513036Y-73106771D01*
X119594575Y-73072996D01*
X119922000Y-73400421D01*
X119922000Y-73468966D01*
X119739539Y-73347050D01*
X119513036Y-73253229D01*
X119272582Y-73205400D01*
X119027418Y-73205400D01*
X118786964Y-73253229D01*
X118560461Y-73347050D01*
X118356614Y-73483256D01*
X118183256Y-73656614D01*
X118047050Y-73860461D01*
X117953229Y-74086964D01*
X117905400Y-74327418D01*
X117905400Y-74572582D01*
X117953229Y-74813036D01*
X117987004Y-74894576D01*
X115767422Y-77114158D01*
X115748039Y-77130065D01*
X115684558Y-77207418D01*
X115637386Y-77295671D01*
X115608338Y-77391429D01*
X115603067Y-77444947D01*
X115598530Y-77491013D01*
X115600987Y-77515957D01*
X115600988Y-80877656D01*
X115456922Y-80849000D01*
X115317420Y-80849000D01*
X115032010Y-80563590D01*
X115032010Y-76156410D01*
X115602171Y-75586249D01*
X115621549Y-75570347D01*
X115640225Y-75547589D01*
X115685030Y-75492995D01*
X115722125Y-75423595D01*
X115732202Y-75404742D01*
X115761250Y-75308984D01*
X115768601Y-75234346D01*
X115768601Y-75234343D01*
X115771058Y-75209399D01*
X115768601Y-75184455D01*
X115768601Y-73469819D01*
X116165424Y-73072996D01*
X116246964Y-73106771D01*
X116487418Y-73154600D01*
X116732582Y-73154600D01*
X116973036Y-73106771D01*
X117199539Y-73012950D01*
X117403386Y-72876744D01*
X117576744Y-72703386D01*
X117712950Y-72499539D01*
X117806771Y-72273036D01*
X117854600Y-72032582D01*
X117854600Y-71787418D01*
X117806771Y-71546964D01*
X117712950Y-71320461D01*
X117576744Y-71116614D01*
X117403386Y-70943256D01*
X117199539Y-70807050D01*
X116973036Y-70713229D01*
X116732582Y-70665400D01*
X116487418Y-70665400D01*
X116246964Y-70713229D01*
X116020461Y-70807050D01*
X115816614Y-70943256D01*
X115643256Y-71116614D01*
X115507050Y-71320461D01*
X115413229Y-71546964D01*
X115365400Y-71787418D01*
X115365400Y-72032582D01*
X115413229Y-72273036D01*
X115447004Y-72354576D01*
X114919036Y-72882544D01*
X114899653Y-72898451D01*
X114836172Y-72975804D01*
X114789000Y-73064057D01*
X114759952Y-73159815D01*
X114752999Y-73230415D01*
X114750144Y-73259399D01*
X114752601Y-73284343D01*
X114752601Y-73409232D01*
X114659539Y-73347050D01*
X114433036Y-73253229D01*
X114192582Y-73205400D01*
X113947418Y-73205400D01*
X113706964Y-73253229D01*
X113480461Y-73347050D01*
X113387399Y-73409232D01*
X113387399Y-73311021D01*
X113625424Y-73072996D01*
X113706964Y-73106771D01*
X113947418Y-73154600D01*
X114192582Y-73154600D01*
X114433036Y-73106771D01*
X114659539Y-73012950D01*
X114863386Y-72876744D01*
X115036744Y-72703386D01*
X115172950Y-72499539D01*
X115266771Y-72273036D01*
X115314600Y-72032582D01*
X115314600Y-71787418D01*
X115266771Y-71546964D01*
X115172950Y-71320461D01*
X115036744Y-71116614D01*
X114863386Y-70943256D01*
X114659539Y-70807050D01*
X114433036Y-70713229D01*
X114192582Y-70665400D01*
X113947418Y-70665400D01*
X113706964Y-70713229D01*
X113480461Y-70807050D01*
X113276614Y-70943256D01*
X113103256Y-71116614D01*
X112967050Y-71320461D01*
X112873229Y-71546964D01*
X112825400Y-71787418D01*
X112825400Y-72032582D01*
X112873229Y-72273036D01*
X112907004Y-72354576D01*
X112537834Y-72723746D01*
X112518451Y-72739653D01*
X112454970Y-72817006D01*
X112407798Y-72905259D01*
X112378750Y-73001017D01*
X112371892Y-73070649D01*
X112368942Y-73100601D01*
X112371399Y-73125545D01*
X112371399Y-73531269D01*
X112323386Y-73483256D01*
X112119539Y-73347050D01*
X111893036Y-73253229D01*
X111652582Y-73205400D01*
X111407418Y-73205400D01*
X111166964Y-73253229D01*
X110940461Y-73347050D01*
X110736614Y-73483256D01*
X110661959Y-73557911D01*
X110634429Y-73506405D01*
X110570948Y-73429052D01*
X110551565Y-73413145D01*
X109899275Y-72760855D01*
X109956744Y-72703386D01*
X110092950Y-72499539D01*
X110186771Y-72273036D01*
X110234600Y-72032582D01*
X110234600Y-71787418D01*
X110186771Y-71546964D01*
X110092950Y-71320461D01*
X109956744Y-71116614D01*
X109783386Y-70943256D01*
X109579539Y-70807050D01*
X109353036Y-70713229D01*
X109112582Y-70665400D01*
X108867418Y-70665400D01*
X108626964Y-70713229D01*
X108400461Y-70807050D01*
X108196614Y-70943256D01*
X108023256Y-71116614D01*
X107917426Y-71275000D01*
X107522574Y-71275000D01*
X107416744Y-71116614D01*
X107243386Y-70943256D01*
X107039539Y-70807050D01*
X106813036Y-70713229D01*
X106572582Y-70665400D01*
X106327418Y-70665400D01*
X106086964Y-70713229D01*
X105860461Y-70807050D01*
X105656614Y-70943256D01*
X105483256Y-71116614D01*
X105347050Y-71320461D01*
X105253229Y-71546964D01*
X105205400Y-71787418D01*
X105205400Y-72032582D01*
X105253229Y-72273036D01*
X105347050Y-72499539D01*
X105483256Y-72703386D01*
X105656614Y-72876744D01*
X105860461Y-73012950D01*
X106086964Y-73106771D01*
X106327418Y-73154600D01*
X106572582Y-73154600D01*
X106813036Y-73106771D01*
X106894575Y-73072996D01*
X107025136Y-73203557D01*
X105586400Y-73203557D01*
X105511711Y-73210913D01*
X105439892Y-73232699D01*
X105373704Y-73268078D01*
X105315689Y-73315689D01*
X105268078Y-73373704D01*
X105232699Y-73439892D01*
X105210913Y-73511711D01*
X105203557Y-73586400D01*
X105203557Y-75313600D01*
X105210913Y-75388289D01*
X105232699Y-75460108D01*
X105268078Y-75526296D01*
X105315689Y-75584311D01*
X105373704Y-75631922D01*
X105439892Y-75667301D01*
X105511711Y-75689087D01*
X105586400Y-75696443D01*
X105875001Y-75696443D01*
X105875000Y-81478819D01*
X105871929Y-81510000D01*
X105875000Y-81541181D01*
X105875000Y-81541191D01*
X105884188Y-81634481D01*
X105920498Y-81754179D01*
X105979463Y-81864493D01*
X106058815Y-81961185D01*
X106083050Y-81981074D01*
X106338926Y-82236950D01*
X106358815Y-82261185D01*
X106455506Y-82340537D01*
X106565820Y-82399502D01*
X106685518Y-82435812D01*
X106778808Y-82445000D01*
X106778818Y-82445000D01*
X106809999Y-82448071D01*
X106841180Y-82445000D01*
X107345000Y-82445000D01*
X107345000Y-82518819D01*
X107341929Y-82550000D01*
X107345000Y-82581181D01*
X107345000Y-82581191D01*
X107354188Y-82674481D01*
X107390498Y-82794179D01*
X107449463Y-82904493D01*
X107528815Y-83001185D01*
X107553050Y-83021074D01*
X107787157Y-83255182D01*
X107787157Y-83344818D01*
X105153050Y-85978926D01*
X105128815Y-85998815D01*
X105049463Y-86095507D01*
X104990498Y-86205821D01*
X104954188Y-86325519D01*
X104945000Y-86418809D01*
X104945000Y-86418819D01*
X104941929Y-86450000D01*
X104646000Y-86450000D01*
X104646000Y-69626000D01*
X142724001Y-69626000D01*
X142724000Y-83137601D01*
G37*
%TD.AperFunction*%
D19*
X110736614Y-75416744D02*
X110940461Y-75552950D01*
X111166964Y-75646771D01*
X111407418Y-75694600D01*
X111652582Y-75694600D01*
X111893036Y-75646771D01*
X112119539Y-75552950D01*
X112323386Y-75416744D01*
X112448030Y-75292100D01*
X112454970Y-75305084D01*
X112487447Y-75344657D01*
X112518452Y-75382437D01*
X112537829Y-75398339D01*
X113107990Y-75968501D01*
X113107991Y-84120753D01*
X112970058Y-84177887D01*
X112842141Y-84263358D01*
X112733358Y-84372141D01*
X112647887Y-84500058D01*
X112589013Y-84642191D01*
X112559000Y-84793078D01*
X112559000Y-84946922D01*
X112589013Y-85097809D01*
X112647887Y-85239942D01*
X112733358Y-85367859D01*
X112842141Y-85476642D01*
X112970058Y-85562113D01*
X113112191Y-85620987D01*
X113263078Y-85651000D01*
X113416922Y-85651000D01*
X113562001Y-85622142D01*
X113562001Y-86219578D01*
X112252843Y-87528736D01*
X112252843Y-85450000D01*
X112245487Y-85375311D01*
X112223701Y-85303492D01*
X112188322Y-85237304D01*
X112140711Y-85179289D01*
X112082696Y-85131678D01*
X112016508Y-85096299D01*
X111944689Y-85074513D01*
X111870000Y-85067157D01*
X108670000Y-85067157D01*
X108595311Y-85074513D01*
X108523492Y-85096299D01*
X108457304Y-85131678D01*
X108399289Y-85179289D01*
X108351678Y-85237304D01*
X108316299Y-85303492D01*
X108294513Y-85375311D01*
X108287157Y-85450000D01*
X108287157Y-87750000D01*
X108294513Y-87824689D01*
X108316299Y-87896508D01*
X108351678Y-87962696D01*
X108399289Y-88020711D01*
X108457304Y-88068322D01*
X108523492Y-88103701D01*
X108595311Y-88125487D01*
X108670000Y-88132843D01*
X111648737Y-88132843D01*
X110900385Y-88881195D01*
X110882696Y-88866678D01*
X110816508Y-88831299D01*
X110744689Y-88809513D01*
X110670000Y-88802157D01*
X108670000Y-88802157D01*
X108595311Y-88809513D01*
X108523492Y-88831299D01*
X108457304Y-88866678D01*
X108399289Y-88914289D01*
X108351678Y-88972304D01*
X108316299Y-89038492D01*
X108294513Y-89110311D01*
X108287157Y-89185000D01*
X108287157Y-89715000D01*
X108294513Y-89789689D01*
X108312808Y-89850000D01*
X108294513Y-89910311D01*
X108287157Y-89985000D01*
X108287157Y-90515000D01*
X108294513Y-90589689D01*
X108312808Y-90650000D01*
X108294513Y-90710311D01*
X108287157Y-90785000D01*
X108287157Y-91315000D01*
X108294513Y-91389689D01*
X108312808Y-91450000D01*
X108294513Y-91510311D01*
X108287157Y-91585000D01*
X108287157Y-92115000D01*
X108294513Y-92189689D01*
X108316299Y-92261508D01*
X108351678Y-92327696D01*
X108399289Y-92385711D01*
X108457304Y-92433322D01*
X108523492Y-92468701D01*
X108595311Y-92490487D01*
X108670000Y-92497843D01*
X110670000Y-92497843D01*
X110744689Y-92490487D01*
X110816508Y-92468701D01*
X110882696Y-92433322D01*
X110940711Y-92385711D01*
X110988322Y-92327696D01*
X111023701Y-92261508D01*
X111045487Y-92189689D01*
X111052843Y-92115000D01*
X111052843Y-91585000D01*
X111045487Y-91510311D01*
X111027192Y-91450000D01*
X111045487Y-91389689D01*
X111052843Y-91315000D01*
X111052843Y-90785000D01*
X111045487Y-90710311D01*
X111027192Y-90650000D01*
X111045487Y-90589689D01*
X111052843Y-90515000D01*
X111052843Y-89985000D01*
X111050422Y-89960415D01*
X111074944Y-89958000D01*
X111074947Y-89958000D01*
X111149585Y-89950649D01*
X111245343Y-89921601D01*
X111333595Y-89874429D01*
X111410948Y-89810948D01*
X111426855Y-89791565D01*
X112590058Y-88628362D01*
X112589000Y-88633682D01*
X112589000Y-88866318D01*
X112634386Y-89094485D01*
X112723412Y-89309413D01*
X112852658Y-89502843D01*
X113017157Y-89667342D01*
X113210587Y-89796588D01*
X113425515Y-89885614D01*
X113653682Y-89931000D01*
X113886318Y-89931000D01*
X114114485Y-89885614D01*
X114329413Y-89796588D01*
X114522843Y-89667342D01*
X114612000Y-89578185D01*
X114612001Y-97499578D01*
X111496582Y-100614998D01*
X111275946Y-100614998D01*
X111251002Y-100612541D01*
X111226058Y-100614998D01*
X111226055Y-100614998D01*
X111151417Y-100622349D01*
X111055659Y-100651397D01*
X110967407Y-100698569D01*
X110890054Y-100762050D01*
X110874143Y-100781438D01*
X110821574Y-100834007D01*
X110816508Y-100831299D01*
X110744689Y-100809513D01*
X110670000Y-100802157D01*
X108670000Y-100802157D01*
X108595311Y-100809513D01*
X108523492Y-100831299D01*
X108457304Y-100866678D01*
X108399289Y-100914289D01*
X108351678Y-100972304D01*
X108316299Y-101038492D01*
X108294513Y-101110311D01*
X108287157Y-101185000D01*
X108287157Y-101715000D01*
X108294513Y-101789689D01*
X108312808Y-101850000D01*
X108294513Y-101910311D01*
X108287157Y-101985000D01*
X108287157Y-102515000D01*
X108294513Y-102589689D01*
X108316299Y-102661508D01*
X108351678Y-102727696D01*
X108399289Y-102785711D01*
X108457304Y-102833322D01*
X108523492Y-102868701D01*
X108595311Y-102890487D01*
X108670000Y-102897843D01*
X110670000Y-102897843D01*
X110744689Y-102890487D01*
X110816508Y-102868701D01*
X110882696Y-102833322D01*
X110940711Y-102785711D01*
X110963453Y-102758000D01*
X111535056Y-102758000D01*
X111560000Y-102760457D01*
X111584944Y-102758000D01*
X111584947Y-102758000D01*
X111659585Y-102750649D01*
X111755343Y-102721601D01*
X111843595Y-102674429D01*
X111896514Y-102631000D01*
X112036922Y-102631000D01*
X112187809Y-102600987D01*
X112199003Y-102596350D01*
X112199003Y-102656577D01*
X110821573Y-104034007D01*
X110816508Y-104031299D01*
X110744689Y-104009513D01*
X110670000Y-104002157D01*
X108670000Y-104002157D01*
X108595311Y-104009513D01*
X108523492Y-104031299D01*
X108457304Y-104066678D01*
X108399289Y-104114289D01*
X108351678Y-104172304D01*
X108316299Y-104238492D01*
X108294513Y-104310311D01*
X108287157Y-104385000D01*
X108287157Y-104915000D01*
X108294513Y-104989689D01*
X108312808Y-105050000D01*
X108294513Y-105110311D01*
X108287157Y-105185000D01*
X108287157Y-105715000D01*
X108294513Y-105789689D01*
X108316299Y-105861508D01*
X108351678Y-105927696D01*
X108399289Y-105985711D01*
X108457304Y-106033322D01*
X108523492Y-106068701D01*
X108595311Y-106090487D01*
X108670000Y-106097843D01*
X110670000Y-106097843D01*
X110744689Y-106090487D01*
X110816508Y-106068701D01*
X110882696Y-106033322D01*
X110940711Y-105985711D01*
X110963453Y-105958000D01*
X114581325Y-105958000D01*
X114652957Y-106029632D01*
X114780874Y-106115103D01*
X114923007Y-106173977D01*
X115073894Y-106203990D01*
X115227738Y-106203990D01*
X115378625Y-106173977D01*
X115382000Y-106172579D01*
X115382000Y-106769579D01*
X113525000Y-108626580D01*
X112766855Y-107868435D01*
X112750948Y-107849052D01*
X112673595Y-107785571D01*
X112585343Y-107738399D01*
X112489585Y-107709351D01*
X112414947Y-107702000D01*
X112414944Y-107702000D01*
X112390000Y-107699543D01*
X112365056Y-107702000D01*
X111663101Y-107702000D01*
X111555529Y-107568464D01*
X111554429Y-107566405D01*
X111524119Y-107529471D01*
X111509956Y-107511890D01*
X111508339Y-107510243D01*
X111490948Y-107489052D01*
X111473348Y-107474608D01*
X111457409Y-107458376D01*
X111434775Y-107442952D01*
X111413595Y-107425571D01*
X111393521Y-107414841D01*
X111374716Y-107402027D01*
X111349509Y-107391316D01*
X111325343Y-107378399D01*
X111303556Y-107371790D01*
X111282618Y-107362893D01*
X111255807Y-107357305D01*
X111229585Y-107349351D01*
X111206936Y-107347120D01*
X111184656Y-107342477D01*
X111157261Y-107342228D01*
X111154947Y-107342000D01*
X111132206Y-107342000D01*
X111084594Y-107341567D01*
X111082309Y-107342000D01*
X110963453Y-107342000D01*
X110940711Y-107314289D01*
X110882696Y-107266678D01*
X110816508Y-107231299D01*
X110744689Y-107209513D01*
X110670000Y-107202157D01*
X108670000Y-107202157D01*
X108595311Y-107209513D01*
X108577223Y-107215000D01*
X108383024Y-107215000D01*
X108371074Y-107203050D01*
X108351185Y-107178815D01*
X108254494Y-107099463D01*
X108144180Y-107040498D01*
X108024482Y-107004188D01*
X107931192Y-106995000D01*
X107931181Y-106995000D01*
X107900000Y-106991929D01*
X107868819Y-106995000D01*
X107561494Y-106995000D01*
X107526508Y-106976299D01*
X107454689Y-106954513D01*
X107380000Y-106947157D01*
X106380000Y-106947157D01*
X106305311Y-106954513D01*
X106233492Y-106976299D01*
X106215000Y-106986183D01*
X106215000Y-98785000D01*
X108287157Y-98785000D01*
X108287157Y-99315000D01*
X108294513Y-99389689D01*
X108312808Y-99450000D01*
X108294513Y-99510311D01*
X108287157Y-99585000D01*
X108287157Y-100115000D01*
X108294513Y-100189689D01*
X108316299Y-100261508D01*
X108351678Y-100327696D01*
X108399289Y-100385711D01*
X108457304Y-100433322D01*
X108523492Y-100468701D01*
X108595311Y-100490487D01*
X108670000Y-100497843D01*
X110670000Y-100497843D01*
X110744689Y-100490487D01*
X110816508Y-100468701D01*
X110882696Y-100433322D01*
X110940711Y-100385711D01*
X110988322Y-100327696D01*
X111023701Y-100261508D01*
X111045487Y-100189689D01*
X111052843Y-100115000D01*
X111052843Y-99585000D01*
X111045487Y-99510311D01*
X111027192Y-99450000D01*
X111045487Y-99389689D01*
X111052843Y-99315000D01*
X111052843Y-98785000D01*
X111045487Y-98710311D01*
X111023701Y-98638492D01*
X110988322Y-98572304D01*
X110940711Y-98514289D01*
X110882696Y-98466678D01*
X110816508Y-98431299D01*
X110744689Y-98409513D01*
X110670000Y-98402157D01*
X108670000Y-98402157D01*
X108595311Y-98409513D01*
X108523492Y-98431299D01*
X108457304Y-98466678D01*
X108399289Y-98514289D01*
X108351678Y-98572304D01*
X108316299Y-98638492D01*
X108294513Y-98710311D01*
X108287157Y-98785000D01*
X106215000Y-98785000D01*
X106215000Y-93185000D01*
X108287157Y-93185000D01*
X108287157Y-93715000D01*
X108294513Y-93789689D01*
X108312808Y-93850000D01*
X108294513Y-93910311D01*
X108287157Y-93985000D01*
X108287157Y-94515000D01*
X108294513Y-94589689D01*
X108316299Y-94661508D01*
X108351678Y-94727696D01*
X108399289Y-94785711D01*
X108457304Y-94833322D01*
X108523492Y-94868701D01*
X108595311Y-94890487D01*
X108670000Y-94897843D01*
X110670000Y-94897843D01*
X110744689Y-94890487D01*
X110816508Y-94868701D01*
X110882696Y-94833322D01*
X110940711Y-94785711D01*
X110963453Y-94758000D01*
X111603407Y-94758000D01*
X111623358Y-94787859D01*
X111732141Y-94896642D01*
X111860058Y-94982113D01*
X112002191Y-95040987D01*
X112153078Y-95071000D01*
X112306922Y-95071000D01*
X112457809Y-95040987D01*
X112599942Y-94982113D01*
X112727859Y-94896642D01*
X112836642Y-94787859D01*
X112922113Y-94659942D01*
X112980987Y-94517809D01*
X113011000Y-94366922D01*
X113011000Y-94213078D01*
X112980987Y-94062191D01*
X112922113Y-93920058D01*
X112836642Y-93792141D01*
X112727859Y-93683358D01*
X112599942Y-93597887D01*
X112457809Y-93539013D01*
X112306922Y-93509000D01*
X112153078Y-93509000D01*
X112048648Y-93529772D01*
X112217420Y-93361000D01*
X112356922Y-93361000D01*
X112507809Y-93330987D01*
X112649942Y-93272113D01*
X112777859Y-93186642D01*
X112886642Y-93077859D01*
X112972113Y-92949942D01*
X113030987Y-92807809D01*
X113061000Y-92656922D01*
X113061000Y-92503078D01*
X113030987Y-92352191D01*
X112972113Y-92210058D01*
X112886642Y-92082141D01*
X112777859Y-91973358D01*
X112649942Y-91887887D01*
X112507809Y-91829013D01*
X112356922Y-91799000D01*
X112203078Y-91799000D01*
X112052191Y-91829013D01*
X111910058Y-91887887D01*
X111782141Y-91973358D01*
X111673358Y-92082141D01*
X111587887Y-92210058D01*
X111529013Y-92352191D01*
X111499000Y-92503078D01*
X111499000Y-92642580D01*
X111199580Y-92942000D01*
X110963453Y-92942000D01*
X110940711Y-92914289D01*
X110882696Y-92866678D01*
X110816508Y-92831299D01*
X110744689Y-92809513D01*
X110670000Y-92802157D01*
X108670000Y-92802157D01*
X108595311Y-92809513D01*
X108523492Y-92831299D01*
X108457304Y-92866678D01*
X108399289Y-92914289D01*
X108351678Y-92972304D01*
X108316299Y-93038492D01*
X108294513Y-93110311D01*
X108287157Y-93185000D01*
X106215000Y-93185000D01*
X106215000Y-86713024D01*
X108625182Y-84302843D01*
X108770000Y-84302843D01*
X108844689Y-84295487D01*
X108916508Y-84273701D01*
X108982696Y-84238322D01*
X109040711Y-84190711D01*
X109088322Y-84132696D01*
X109123701Y-84066508D01*
X109145487Y-83994689D01*
X109152843Y-83920000D01*
X109152843Y-82920000D01*
X109145487Y-82845311D01*
X109123701Y-82773492D01*
X109088322Y-82707304D01*
X109040711Y-82649289D01*
X108982696Y-82601678D01*
X108916508Y-82566299D01*
X108884665Y-82556640D01*
X108835869Y-82507843D01*
X109155000Y-82507843D01*
X109229689Y-82500487D01*
X109301508Y-82478701D01*
X109367696Y-82443322D01*
X109425711Y-82395711D01*
X109473322Y-82337696D01*
X109508701Y-82271508D01*
X109530487Y-82199689D01*
X109537843Y-82125000D01*
X109537843Y-81993718D01*
X109555812Y-81934482D01*
X109568072Y-81810000D01*
X109555812Y-81685518D01*
X109537843Y-81626282D01*
X109537843Y-81495000D01*
X109530487Y-81420311D01*
X109508701Y-81348492D01*
X109473322Y-81282304D01*
X109425711Y-81224289D01*
X109367696Y-81176678D01*
X109301508Y-81141299D01*
X109229689Y-81119513D01*
X109155000Y-81112157D01*
X108705000Y-81112157D01*
X108630311Y-81119513D01*
X108558492Y-81141299D01*
X108495443Y-81175000D01*
X108414557Y-81175000D01*
X108351508Y-81141299D01*
X108279689Y-81119513D01*
X108205000Y-81112157D01*
X107755000Y-81112157D01*
X107680311Y-81119513D01*
X107608492Y-81141299D01*
X107545443Y-81175000D01*
X107145000Y-81175000D01*
X107145000Y-75696443D01*
X107232001Y-75696443D01*
X107232001Y-76205046D01*
X107229543Y-76230000D01*
X107239352Y-76329584D01*
X107268400Y-76425343D01*
X107315571Y-76513595D01*
X107363150Y-76571570D01*
X107379053Y-76590948D01*
X107398430Y-76606850D01*
X107668448Y-76876869D01*
X107651678Y-76897304D01*
X107616299Y-76963492D01*
X107594513Y-77035311D01*
X107587157Y-77110000D01*
X107587157Y-77964819D01*
X107553050Y-77998926D01*
X107528815Y-78018815D01*
X107449463Y-78115507D01*
X107390498Y-78225821D01*
X107354188Y-78345519D01*
X107345000Y-78438809D01*
X107345000Y-78438819D01*
X107341929Y-78470000D01*
X107345000Y-78501181D01*
X107345000Y-79098808D01*
X107341928Y-79130000D01*
X107354188Y-79254482D01*
X107372157Y-79313718D01*
X107372157Y-79445000D01*
X107379513Y-79519689D01*
X107401299Y-79591508D01*
X107436678Y-79657696D01*
X107484289Y-79715711D01*
X107542304Y-79763322D01*
X107608492Y-79798701D01*
X107680311Y-79820487D01*
X107755000Y-79827843D01*
X108205000Y-79827843D01*
X108279689Y-79820487D01*
X108351508Y-79798701D01*
X108414557Y-79765000D01*
X108495443Y-79765000D01*
X108558492Y-79798701D01*
X108630311Y-79820487D01*
X108705000Y-79827843D01*
X109155000Y-79827843D01*
X109229689Y-79820487D01*
X109301508Y-79798701D01*
X109367696Y-79763322D01*
X109405000Y-79732708D01*
X109442304Y-79763322D01*
X109508492Y-79798701D01*
X109580311Y-79820487D01*
X109655000Y-79827843D01*
X110105000Y-79827843D01*
X110179689Y-79820487D01*
X110251508Y-79798701D01*
X110317696Y-79763322D01*
X110375711Y-79715711D01*
X110423322Y-79657696D01*
X110458701Y-79591508D01*
X110480487Y-79519689D01*
X110487843Y-79445000D01*
X110487843Y-78815000D01*
X110480487Y-78740311D01*
X110458701Y-78668492D01*
X110423322Y-78602304D01*
X110375711Y-78544289D01*
X110317696Y-78496678D01*
X110251508Y-78461299D01*
X110179689Y-78439513D01*
X110105000Y-78432157D01*
X109655000Y-78432157D01*
X109580311Y-78439513D01*
X109508492Y-78461299D01*
X109442304Y-78496678D01*
X109405000Y-78527292D01*
X109367696Y-78496678D01*
X109301508Y-78461299D01*
X109229689Y-78439513D01*
X109155000Y-78432157D01*
X108855238Y-78432157D01*
X108859502Y-78424180D01*
X108875740Y-78370649D01*
X108892865Y-78314197D01*
X108923701Y-78256508D01*
X108945487Y-78184689D01*
X108952843Y-78110000D01*
X108952843Y-77110000D01*
X108945487Y-77035311D01*
X108923987Y-76964434D01*
X110551571Y-75336850D01*
X110570948Y-75320948D01*
X110599236Y-75286479D01*
X110602442Y-75282572D01*
X110736614Y-75416744D01*
%TA.AperFunction,Conductor*%
D21*
G36*
X110736614Y-75416744D02*
G01*
X110940461Y-75552950D01*
X111166964Y-75646771D01*
X111407418Y-75694600D01*
X111652582Y-75694600D01*
X111893036Y-75646771D01*
X112119539Y-75552950D01*
X112323386Y-75416744D01*
X112448030Y-75292100D01*
X112454970Y-75305084D01*
X112487447Y-75344657D01*
X112518452Y-75382437D01*
X112537829Y-75398339D01*
X113107990Y-75968501D01*
X113107991Y-84120753D01*
X112970058Y-84177887D01*
X112842141Y-84263358D01*
X112733358Y-84372141D01*
X112647887Y-84500058D01*
X112589013Y-84642191D01*
X112559000Y-84793078D01*
X112559000Y-84946922D01*
X112589013Y-85097809D01*
X112647887Y-85239942D01*
X112733358Y-85367859D01*
X112842141Y-85476642D01*
X112970058Y-85562113D01*
X113112191Y-85620987D01*
X113263078Y-85651000D01*
X113416922Y-85651000D01*
X113562001Y-85622142D01*
X113562001Y-86219578D01*
X112252843Y-87528736D01*
X112252843Y-85450000D01*
X112245487Y-85375311D01*
X112223701Y-85303492D01*
X112188322Y-85237304D01*
X112140711Y-85179289D01*
X112082696Y-85131678D01*
X112016508Y-85096299D01*
X111944689Y-85074513D01*
X111870000Y-85067157D01*
X108670000Y-85067157D01*
X108595311Y-85074513D01*
X108523492Y-85096299D01*
X108457304Y-85131678D01*
X108399289Y-85179289D01*
X108351678Y-85237304D01*
X108316299Y-85303492D01*
X108294513Y-85375311D01*
X108287157Y-85450000D01*
X108287157Y-87750000D01*
X108294513Y-87824689D01*
X108316299Y-87896508D01*
X108351678Y-87962696D01*
X108399289Y-88020711D01*
X108457304Y-88068322D01*
X108523492Y-88103701D01*
X108595311Y-88125487D01*
X108670000Y-88132843D01*
X111648737Y-88132843D01*
X110900385Y-88881195D01*
X110882696Y-88866678D01*
X110816508Y-88831299D01*
X110744689Y-88809513D01*
X110670000Y-88802157D01*
X108670000Y-88802157D01*
X108595311Y-88809513D01*
X108523492Y-88831299D01*
X108457304Y-88866678D01*
X108399289Y-88914289D01*
X108351678Y-88972304D01*
X108316299Y-89038492D01*
X108294513Y-89110311D01*
X108287157Y-89185000D01*
X108287157Y-89715000D01*
X108294513Y-89789689D01*
X108312808Y-89850000D01*
X108294513Y-89910311D01*
X108287157Y-89985000D01*
X108287157Y-90515000D01*
X108294513Y-90589689D01*
X108312808Y-90650000D01*
X108294513Y-90710311D01*
X108287157Y-90785000D01*
X108287157Y-91315000D01*
X108294513Y-91389689D01*
X108312808Y-91450000D01*
X108294513Y-91510311D01*
X108287157Y-91585000D01*
X108287157Y-92115000D01*
X108294513Y-92189689D01*
X108316299Y-92261508D01*
X108351678Y-92327696D01*
X108399289Y-92385711D01*
X108457304Y-92433322D01*
X108523492Y-92468701D01*
X108595311Y-92490487D01*
X108670000Y-92497843D01*
X110670000Y-92497843D01*
X110744689Y-92490487D01*
X110816508Y-92468701D01*
X110882696Y-92433322D01*
X110940711Y-92385711D01*
X110988322Y-92327696D01*
X111023701Y-92261508D01*
X111045487Y-92189689D01*
X111052843Y-92115000D01*
X111052843Y-91585000D01*
X111045487Y-91510311D01*
X111027192Y-91450000D01*
X111045487Y-91389689D01*
X111052843Y-91315000D01*
X111052843Y-90785000D01*
X111045487Y-90710311D01*
X111027192Y-90650000D01*
X111045487Y-90589689D01*
X111052843Y-90515000D01*
X111052843Y-89985000D01*
X111050422Y-89960415D01*
X111074944Y-89958000D01*
X111074947Y-89958000D01*
X111149585Y-89950649D01*
X111245343Y-89921601D01*
X111333595Y-89874429D01*
X111410948Y-89810948D01*
X111426855Y-89791565D01*
X112590058Y-88628362D01*
X112589000Y-88633682D01*
X112589000Y-88866318D01*
X112634386Y-89094485D01*
X112723412Y-89309413D01*
X112852658Y-89502843D01*
X113017157Y-89667342D01*
X113210587Y-89796588D01*
X113425515Y-89885614D01*
X113653682Y-89931000D01*
X113886318Y-89931000D01*
X114114485Y-89885614D01*
X114329413Y-89796588D01*
X114522843Y-89667342D01*
X114612000Y-89578185D01*
X114612001Y-97499578D01*
X111496582Y-100614998D01*
X111275946Y-100614998D01*
X111251002Y-100612541D01*
X111226058Y-100614998D01*
X111226055Y-100614998D01*
X111151417Y-100622349D01*
X111055659Y-100651397D01*
X110967407Y-100698569D01*
X110890054Y-100762050D01*
X110874143Y-100781438D01*
X110821574Y-100834007D01*
X110816508Y-100831299D01*
X110744689Y-100809513D01*
X110670000Y-100802157D01*
X108670000Y-100802157D01*
X108595311Y-100809513D01*
X108523492Y-100831299D01*
X108457304Y-100866678D01*
X108399289Y-100914289D01*
X108351678Y-100972304D01*
X108316299Y-101038492D01*
X108294513Y-101110311D01*
X108287157Y-101185000D01*
X108287157Y-101715000D01*
X108294513Y-101789689D01*
X108312808Y-101850000D01*
X108294513Y-101910311D01*
X108287157Y-101985000D01*
X108287157Y-102515000D01*
X108294513Y-102589689D01*
X108316299Y-102661508D01*
X108351678Y-102727696D01*
X108399289Y-102785711D01*
X108457304Y-102833322D01*
X108523492Y-102868701D01*
X108595311Y-102890487D01*
X108670000Y-102897843D01*
X110670000Y-102897843D01*
X110744689Y-102890487D01*
X110816508Y-102868701D01*
X110882696Y-102833322D01*
X110940711Y-102785711D01*
X110963453Y-102758000D01*
X111535056Y-102758000D01*
X111560000Y-102760457D01*
X111584944Y-102758000D01*
X111584947Y-102758000D01*
X111659585Y-102750649D01*
X111755343Y-102721601D01*
X111843595Y-102674429D01*
X111896514Y-102631000D01*
X112036922Y-102631000D01*
X112187809Y-102600987D01*
X112199003Y-102596350D01*
X112199003Y-102656577D01*
X110821573Y-104034007D01*
X110816508Y-104031299D01*
X110744689Y-104009513D01*
X110670000Y-104002157D01*
X108670000Y-104002157D01*
X108595311Y-104009513D01*
X108523492Y-104031299D01*
X108457304Y-104066678D01*
X108399289Y-104114289D01*
X108351678Y-104172304D01*
X108316299Y-104238492D01*
X108294513Y-104310311D01*
X108287157Y-104385000D01*
X108287157Y-104915000D01*
X108294513Y-104989689D01*
X108312808Y-105050000D01*
X108294513Y-105110311D01*
X108287157Y-105185000D01*
X108287157Y-105715000D01*
X108294513Y-105789689D01*
X108316299Y-105861508D01*
X108351678Y-105927696D01*
X108399289Y-105985711D01*
X108457304Y-106033322D01*
X108523492Y-106068701D01*
X108595311Y-106090487D01*
X108670000Y-106097843D01*
X110670000Y-106097843D01*
X110744689Y-106090487D01*
X110816508Y-106068701D01*
X110882696Y-106033322D01*
X110940711Y-105985711D01*
X110963453Y-105958000D01*
X114581325Y-105958000D01*
X114652957Y-106029632D01*
X114780874Y-106115103D01*
X114923007Y-106173977D01*
X115073894Y-106203990D01*
X115227738Y-106203990D01*
X115378625Y-106173977D01*
X115382000Y-106172579D01*
X115382000Y-106769579D01*
X113525000Y-108626580D01*
X112766855Y-107868435D01*
X112750948Y-107849052D01*
X112673595Y-107785571D01*
X112585343Y-107738399D01*
X112489585Y-107709351D01*
X112414947Y-107702000D01*
X112414944Y-107702000D01*
X112390000Y-107699543D01*
X112365056Y-107702000D01*
X111663101Y-107702000D01*
X111555529Y-107568464D01*
X111554429Y-107566405D01*
X111524119Y-107529471D01*
X111509956Y-107511890D01*
X111508339Y-107510243D01*
X111490948Y-107489052D01*
X111473348Y-107474608D01*
X111457409Y-107458376D01*
X111434775Y-107442952D01*
X111413595Y-107425571D01*
X111393521Y-107414841D01*
X111374716Y-107402027D01*
X111349509Y-107391316D01*
X111325343Y-107378399D01*
X111303556Y-107371790D01*
X111282618Y-107362893D01*
X111255807Y-107357305D01*
X111229585Y-107349351D01*
X111206936Y-107347120D01*
X111184656Y-107342477D01*
X111157261Y-107342228D01*
X111154947Y-107342000D01*
X111132206Y-107342000D01*
X111084594Y-107341567D01*
X111082309Y-107342000D01*
X110963453Y-107342000D01*
X110940711Y-107314289D01*
X110882696Y-107266678D01*
X110816508Y-107231299D01*
X110744689Y-107209513D01*
X110670000Y-107202157D01*
X108670000Y-107202157D01*
X108595311Y-107209513D01*
X108577223Y-107215000D01*
X108383024Y-107215000D01*
X108371074Y-107203050D01*
X108351185Y-107178815D01*
X108254494Y-107099463D01*
X108144180Y-107040498D01*
X108024482Y-107004188D01*
X107931192Y-106995000D01*
X107931181Y-106995000D01*
X107900000Y-106991929D01*
X107868819Y-106995000D01*
X107561494Y-106995000D01*
X107526508Y-106976299D01*
X107454689Y-106954513D01*
X107380000Y-106947157D01*
X106380000Y-106947157D01*
X106305311Y-106954513D01*
X106233492Y-106976299D01*
X106215000Y-106986183D01*
X106215000Y-98785000D01*
X108287157Y-98785000D01*
X108287157Y-99315000D01*
X108294513Y-99389689D01*
X108312808Y-99450000D01*
X108294513Y-99510311D01*
X108287157Y-99585000D01*
X108287157Y-100115000D01*
X108294513Y-100189689D01*
X108316299Y-100261508D01*
X108351678Y-100327696D01*
X108399289Y-100385711D01*
X108457304Y-100433322D01*
X108523492Y-100468701D01*
X108595311Y-100490487D01*
X108670000Y-100497843D01*
X110670000Y-100497843D01*
X110744689Y-100490487D01*
X110816508Y-100468701D01*
X110882696Y-100433322D01*
X110940711Y-100385711D01*
X110988322Y-100327696D01*
X111023701Y-100261508D01*
X111045487Y-100189689D01*
X111052843Y-100115000D01*
X111052843Y-99585000D01*
X111045487Y-99510311D01*
X111027192Y-99450000D01*
X111045487Y-99389689D01*
X111052843Y-99315000D01*
X111052843Y-98785000D01*
X111045487Y-98710311D01*
X111023701Y-98638492D01*
X110988322Y-98572304D01*
X110940711Y-98514289D01*
X110882696Y-98466678D01*
X110816508Y-98431299D01*
X110744689Y-98409513D01*
X110670000Y-98402157D01*
X108670000Y-98402157D01*
X108595311Y-98409513D01*
X108523492Y-98431299D01*
X108457304Y-98466678D01*
X108399289Y-98514289D01*
X108351678Y-98572304D01*
X108316299Y-98638492D01*
X108294513Y-98710311D01*
X108287157Y-98785000D01*
X106215000Y-98785000D01*
X106215000Y-93185000D01*
X108287157Y-93185000D01*
X108287157Y-93715000D01*
X108294513Y-93789689D01*
X108312808Y-93850000D01*
X108294513Y-93910311D01*
X108287157Y-93985000D01*
X108287157Y-94515000D01*
X108294513Y-94589689D01*
X108316299Y-94661508D01*
X108351678Y-94727696D01*
X108399289Y-94785711D01*
X108457304Y-94833322D01*
X108523492Y-94868701D01*
X108595311Y-94890487D01*
X108670000Y-94897843D01*
X110670000Y-94897843D01*
X110744689Y-94890487D01*
X110816508Y-94868701D01*
X110882696Y-94833322D01*
X110940711Y-94785711D01*
X110963453Y-94758000D01*
X111603407Y-94758000D01*
X111623358Y-94787859D01*
X111732141Y-94896642D01*
X111860058Y-94982113D01*
X112002191Y-95040987D01*
X112153078Y-95071000D01*
X112306922Y-95071000D01*
X112457809Y-95040987D01*
X112599942Y-94982113D01*
X112727859Y-94896642D01*
X112836642Y-94787859D01*
X112922113Y-94659942D01*
X112980987Y-94517809D01*
X113011000Y-94366922D01*
X113011000Y-94213078D01*
X112980987Y-94062191D01*
X112922113Y-93920058D01*
X112836642Y-93792141D01*
X112727859Y-93683358D01*
X112599942Y-93597887D01*
X112457809Y-93539013D01*
X112306922Y-93509000D01*
X112153078Y-93509000D01*
X112048648Y-93529772D01*
X112217420Y-93361000D01*
X112356922Y-93361000D01*
X112507809Y-93330987D01*
X112649942Y-93272113D01*
X112777859Y-93186642D01*
X112886642Y-93077859D01*
X112972113Y-92949942D01*
X113030987Y-92807809D01*
X113061000Y-92656922D01*
X113061000Y-92503078D01*
X113030987Y-92352191D01*
X112972113Y-92210058D01*
X112886642Y-92082141D01*
X112777859Y-91973358D01*
X112649942Y-91887887D01*
X112507809Y-91829013D01*
X112356922Y-91799000D01*
X112203078Y-91799000D01*
X112052191Y-91829013D01*
X111910058Y-91887887D01*
X111782141Y-91973358D01*
X111673358Y-92082141D01*
X111587887Y-92210058D01*
X111529013Y-92352191D01*
X111499000Y-92503078D01*
X111499000Y-92642580D01*
X111199580Y-92942000D01*
X110963453Y-92942000D01*
X110940711Y-92914289D01*
X110882696Y-92866678D01*
X110816508Y-92831299D01*
X110744689Y-92809513D01*
X110670000Y-92802157D01*
X108670000Y-92802157D01*
X108595311Y-92809513D01*
X108523492Y-92831299D01*
X108457304Y-92866678D01*
X108399289Y-92914289D01*
X108351678Y-92972304D01*
X108316299Y-93038492D01*
X108294513Y-93110311D01*
X108287157Y-93185000D01*
X106215000Y-93185000D01*
X106215000Y-86713024D01*
X108625182Y-84302843D01*
X108770000Y-84302843D01*
X108844689Y-84295487D01*
X108916508Y-84273701D01*
X108982696Y-84238322D01*
X109040711Y-84190711D01*
X109088322Y-84132696D01*
X109123701Y-84066508D01*
X109145487Y-83994689D01*
X109152843Y-83920000D01*
X109152843Y-82920000D01*
X109145487Y-82845311D01*
X109123701Y-82773492D01*
X109088322Y-82707304D01*
X109040711Y-82649289D01*
X108982696Y-82601678D01*
X108916508Y-82566299D01*
X108884665Y-82556640D01*
X108835869Y-82507843D01*
X109155000Y-82507843D01*
X109229689Y-82500487D01*
X109301508Y-82478701D01*
X109367696Y-82443322D01*
X109425711Y-82395711D01*
X109473322Y-82337696D01*
X109508701Y-82271508D01*
X109530487Y-82199689D01*
X109537843Y-82125000D01*
X109537843Y-81993718D01*
X109555812Y-81934482D01*
X109568072Y-81810000D01*
X109555812Y-81685518D01*
X109537843Y-81626282D01*
X109537843Y-81495000D01*
X109530487Y-81420311D01*
X109508701Y-81348492D01*
X109473322Y-81282304D01*
X109425711Y-81224289D01*
X109367696Y-81176678D01*
X109301508Y-81141299D01*
X109229689Y-81119513D01*
X109155000Y-81112157D01*
X108705000Y-81112157D01*
X108630311Y-81119513D01*
X108558492Y-81141299D01*
X108495443Y-81175000D01*
X108414557Y-81175000D01*
X108351508Y-81141299D01*
X108279689Y-81119513D01*
X108205000Y-81112157D01*
X107755000Y-81112157D01*
X107680311Y-81119513D01*
X107608492Y-81141299D01*
X107545443Y-81175000D01*
X107145000Y-81175000D01*
X107145000Y-75696443D01*
X107232001Y-75696443D01*
X107232001Y-76205046D01*
X107229543Y-76230000D01*
X107239352Y-76329584D01*
X107268400Y-76425343D01*
X107315571Y-76513595D01*
X107363150Y-76571570D01*
X107379053Y-76590948D01*
X107398430Y-76606850D01*
X107668448Y-76876869D01*
X107651678Y-76897304D01*
X107616299Y-76963492D01*
X107594513Y-77035311D01*
X107587157Y-77110000D01*
X107587157Y-77964819D01*
X107553050Y-77998926D01*
X107528815Y-78018815D01*
X107449463Y-78115507D01*
X107390498Y-78225821D01*
X107354188Y-78345519D01*
X107345000Y-78438809D01*
X107345000Y-78438819D01*
X107341929Y-78470000D01*
X107345000Y-78501181D01*
X107345000Y-79098808D01*
X107341928Y-79130000D01*
X107354188Y-79254482D01*
X107372157Y-79313718D01*
X107372157Y-79445000D01*
X107379513Y-79519689D01*
X107401299Y-79591508D01*
X107436678Y-79657696D01*
X107484289Y-79715711D01*
X107542304Y-79763322D01*
X107608492Y-79798701D01*
X107680311Y-79820487D01*
X107755000Y-79827843D01*
X108205000Y-79827843D01*
X108279689Y-79820487D01*
X108351508Y-79798701D01*
X108414557Y-79765000D01*
X108495443Y-79765000D01*
X108558492Y-79798701D01*
X108630311Y-79820487D01*
X108705000Y-79827843D01*
X109155000Y-79827843D01*
X109229689Y-79820487D01*
X109301508Y-79798701D01*
X109367696Y-79763322D01*
X109405000Y-79732708D01*
X109442304Y-79763322D01*
X109508492Y-79798701D01*
X109580311Y-79820487D01*
X109655000Y-79827843D01*
X110105000Y-79827843D01*
X110179689Y-79820487D01*
X110251508Y-79798701D01*
X110317696Y-79763322D01*
X110375711Y-79715711D01*
X110423322Y-79657696D01*
X110458701Y-79591508D01*
X110480487Y-79519689D01*
X110487843Y-79445000D01*
X110487843Y-78815000D01*
X110480487Y-78740311D01*
X110458701Y-78668492D01*
X110423322Y-78602304D01*
X110375711Y-78544289D01*
X110317696Y-78496678D01*
X110251508Y-78461299D01*
X110179689Y-78439513D01*
X110105000Y-78432157D01*
X109655000Y-78432157D01*
X109580311Y-78439513D01*
X109508492Y-78461299D01*
X109442304Y-78496678D01*
X109405000Y-78527292D01*
X109367696Y-78496678D01*
X109301508Y-78461299D01*
X109229689Y-78439513D01*
X109155000Y-78432157D01*
X108855238Y-78432157D01*
X108859502Y-78424180D01*
X108875740Y-78370649D01*
X108892865Y-78314197D01*
X108923701Y-78256508D01*
X108945487Y-78184689D01*
X108952843Y-78110000D01*
X108952843Y-77110000D01*
X108945487Y-77035311D01*
X108923987Y-76964434D01*
X110551571Y-75336850D01*
X110570948Y-75320948D01*
X110599236Y-75286479D01*
X110602442Y-75282572D01*
X110736614Y-75416744D01*
G37*
%TD.AperFunction*%
D19*
X115976002Y-100893058D02*
X115973545Y-100918002D01*
X115976002Y-100942946D01*
X115976002Y-100942948D01*
X115983353Y-101017586D01*
X116012401Y-101113344D01*
X116059573Y-101201597D01*
X116123054Y-101278950D01*
X116142437Y-101294857D01*
X116239145Y-101391565D01*
X116242463Y-101395607D01*
X116186405Y-101425571D01*
X116109052Y-101489052D01*
X116093145Y-101508435D01*
X115548430Y-102053150D01*
X115529053Y-102069052D01*
X115513151Y-102088429D01*
X115513150Y-102088430D01*
X115465571Y-102146405D01*
X115418400Y-102234657D01*
X115389352Y-102330416D01*
X115379543Y-102430000D01*
X115382001Y-102454954D01*
X115382001Y-104673401D01*
X115378625Y-104672003D01*
X115227738Y-104641990D01*
X115073894Y-104641990D01*
X114923007Y-104672003D01*
X114780874Y-104730877D01*
X114652957Y-104816348D01*
X114544174Y-104925131D01*
X114532903Y-104942000D01*
X111350420Y-104942000D01*
X113048567Y-103243853D01*
X113067950Y-103227946D01*
X113131431Y-103150593D01*
X113178603Y-103062341D01*
X113207651Y-102966583D01*
X113215002Y-102891945D01*
X113215002Y-102891942D01*
X113217459Y-102866998D01*
X113215002Y-102842054D01*
X113215002Y-100975486D01*
X113822000Y-100368488D01*
X113822001Y-103493498D01*
X113723358Y-103592141D01*
X113637887Y-103720058D01*
X113579013Y-103862191D01*
X113549000Y-104013078D01*
X113549000Y-104166922D01*
X113579013Y-104317809D01*
X113637887Y-104459942D01*
X113723358Y-104587859D01*
X113832141Y-104696642D01*
X113960058Y-104782113D01*
X114102191Y-104840987D01*
X114253078Y-104871000D01*
X114406922Y-104871000D01*
X114557809Y-104840987D01*
X114699942Y-104782113D01*
X114827859Y-104696642D01*
X114936642Y-104587859D01*
X115022113Y-104459942D01*
X115080987Y-104317809D01*
X115111000Y-104166922D01*
X115111000Y-104013078D01*
X115080987Y-103862191D01*
X115022113Y-103720058D01*
X114936642Y-103592141D01*
X114838000Y-103493499D01*
X114838000Y-99994556D01*
X115976002Y-98856554D01*
X115976002Y-100893058D01*
%TA.AperFunction,Conductor*%
D21*
G36*
X115976002Y-100893058D02*
G01*
X115973545Y-100918002D01*
X115976002Y-100942946D01*
X115976002Y-100942948D01*
X115983353Y-101017586D01*
X116012401Y-101113344D01*
X116059573Y-101201597D01*
X116123054Y-101278950D01*
X116142437Y-101294857D01*
X116239145Y-101391565D01*
X116242463Y-101395607D01*
X116186405Y-101425571D01*
X116109052Y-101489052D01*
X116093145Y-101508435D01*
X115548430Y-102053150D01*
X115529053Y-102069052D01*
X115513151Y-102088429D01*
X115513150Y-102088430D01*
X115465571Y-102146405D01*
X115418400Y-102234657D01*
X115389352Y-102330416D01*
X115379543Y-102430000D01*
X115382001Y-102454954D01*
X115382001Y-104673401D01*
X115378625Y-104672003D01*
X115227738Y-104641990D01*
X115073894Y-104641990D01*
X114923007Y-104672003D01*
X114780874Y-104730877D01*
X114652957Y-104816348D01*
X114544174Y-104925131D01*
X114532903Y-104942000D01*
X111350420Y-104942000D01*
X113048567Y-103243853D01*
X113067950Y-103227946D01*
X113131431Y-103150593D01*
X113178603Y-103062341D01*
X113207651Y-102966583D01*
X113215002Y-102891945D01*
X113215002Y-102891942D01*
X113217459Y-102866998D01*
X113215002Y-102842054D01*
X113215002Y-100975486D01*
X113822000Y-100368488D01*
X113822001Y-103493498D01*
X113723358Y-103592141D01*
X113637887Y-103720058D01*
X113579013Y-103862191D01*
X113549000Y-104013078D01*
X113549000Y-104166922D01*
X113579013Y-104317809D01*
X113637887Y-104459942D01*
X113723358Y-104587859D01*
X113832141Y-104696642D01*
X113960058Y-104782113D01*
X114102191Y-104840987D01*
X114253078Y-104871000D01*
X114406922Y-104871000D01*
X114557809Y-104840987D01*
X114699942Y-104782113D01*
X114827859Y-104696642D01*
X114936642Y-104587859D01*
X115022113Y-104459942D01*
X115080987Y-104317809D01*
X115111000Y-104166922D01*
X115111000Y-104013078D01*
X115080987Y-103862191D01*
X115022113Y-103720058D01*
X114936642Y-103592141D01*
X114838000Y-103493499D01*
X114838000Y-99994556D01*
X115976002Y-98856554D01*
X115976002Y-100893058D01*
G37*
%TD.AperFunction*%
D19*
X127599653Y-75391549D02*
X127619036Y-75407456D01*
X129762001Y-77550422D01*
X129762000Y-91879579D01*
X129099580Y-92542000D01*
X126819104Y-92542000D01*
X126853977Y-92457809D01*
X126883990Y-92306922D01*
X126883990Y-92273448D01*
X126902191Y-92280987D01*
X127053078Y-92311000D01*
X127206922Y-92311000D01*
X127357809Y-92280987D01*
X127499942Y-92222113D01*
X127627859Y-92136642D01*
X127736642Y-92027859D01*
X127822113Y-91899942D01*
X127880987Y-91757809D01*
X127911000Y-91606922D01*
X127911000Y-91467420D01*
X128458567Y-90919853D01*
X128477950Y-90903946D01*
X128541431Y-90826593D01*
X128588603Y-90738341D01*
X128617651Y-90642583D01*
X128625002Y-90567945D01*
X128625002Y-90567942D01*
X128627459Y-90542998D01*
X128625002Y-90518054D01*
X128625002Y-84156260D01*
X128627459Y-84131316D01*
X128625002Y-84106370D01*
X128617651Y-84031732D01*
X128588603Y-83935974D01*
X128577121Y-83914493D01*
X128541431Y-83847721D01*
X128493852Y-83789746D01*
X128477950Y-83770369D01*
X128458572Y-83754466D01*
X127832540Y-83128435D01*
X127816633Y-83109052D01*
X127739280Y-83045571D01*
X127651028Y-82998399D01*
X127555270Y-82969351D01*
X127487142Y-82962641D01*
X127387859Y-82863358D01*
X127259942Y-82777887D01*
X127127055Y-82722843D01*
X127500000Y-82722843D01*
X127574689Y-82715487D01*
X127646508Y-82693701D01*
X127712696Y-82658322D01*
X127770711Y-82610711D01*
X127818322Y-82552696D01*
X127853701Y-82486508D01*
X127875487Y-82414689D01*
X127882843Y-82340000D01*
X127882843Y-81340000D01*
X127875487Y-81265311D01*
X127853701Y-81193492D01*
X127818322Y-81127304D01*
X127770711Y-81069289D01*
X127712696Y-81021678D01*
X127646508Y-80986299D01*
X127574689Y-80964513D01*
X127500000Y-80957157D01*
X126900000Y-80957157D01*
X126825311Y-80964513D01*
X126753492Y-80986299D01*
X126687304Y-81021678D01*
X126629289Y-81069289D01*
X126581678Y-81127304D01*
X126555000Y-81177214D01*
X126528322Y-81127304D01*
X126480711Y-81069289D01*
X126422696Y-81021678D01*
X126356508Y-80986299D01*
X126284689Y-80964513D01*
X126210000Y-80957157D01*
X125610000Y-80957157D01*
X125535311Y-80964513D01*
X125463492Y-80986299D01*
X125397304Y-81021678D01*
X125339289Y-81069289D01*
X125291678Y-81127304D01*
X125256299Y-81193492D01*
X125234513Y-81265311D01*
X125227157Y-81340000D01*
X125227157Y-82340000D01*
X125234513Y-82414689D01*
X125256299Y-82486508D01*
X125291678Y-82552696D01*
X125318189Y-82585000D01*
X125291678Y-82617304D01*
X125256299Y-82683492D01*
X125234513Y-82755311D01*
X125227157Y-82830000D01*
X125227157Y-83830000D01*
X125234513Y-83904689D01*
X125256299Y-83976508D01*
X125291678Y-84042696D01*
X125309982Y-84065000D01*
X125291678Y-84087304D01*
X125256299Y-84153492D01*
X125234513Y-84225311D01*
X125227157Y-84300000D01*
X125227157Y-85300000D01*
X125234513Y-85374689D01*
X125256299Y-85446508D01*
X125291678Y-85512696D01*
X125339289Y-85570711D01*
X125397304Y-85618322D01*
X125402000Y-85620832D01*
X125402001Y-91881486D01*
X125352003Y-92002191D01*
X125321990Y-92153078D01*
X125321990Y-92306922D01*
X125352003Y-92457809D01*
X125386876Y-92542000D01*
X122226420Y-92542000D01*
X123531565Y-91236855D01*
X123550948Y-91220948D01*
X123614429Y-91143595D01*
X123661601Y-91055343D01*
X123690649Y-90959585D01*
X123698000Y-90884947D01*
X123698000Y-90884944D01*
X123700457Y-90860000D01*
X123698000Y-90835056D01*
X123698000Y-90139840D01*
X123703358Y-90147859D01*
X123812141Y-90256642D01*
X123940058Y-90342113D01*
X124082191Y-90400987D01*
X124233078Y-90431000D01*
X124386922Y-90431000D01*
X124537809Y-90400987D01*
X124679942Y-90342113D01*
X124807859Y-90256642D01*
X124916642Y-90147859D01*
X125002113Y-90019942D01*
X125060987Y-89877809D01*
X125091000Y-89726922D01*
X125091000Y-89573078D01*
X125060987Y-89422191D01*
X125002113Y-89280058D01*
X124916642Y-89152141D01*
X124807859Y-89043358D01*
X124679942Y-88957887D01*
X124537809Y-88899013D01*
X124386922Y-88869000D01*
X124247420Y-88869000D01*
X124168000Y-88789580D01*
X124168000Y-85860420D01*
X124345577Y-85682843D01*
X124810000Y-85682843D01*
X124884689Y-85675487D01*
X124956508Y-85653701D01*
X125022696Y-85618322D01*
X125080711Y-85570711D01*
X125128322Y-85512696D01*
X125163701Y-85446508D01*
X125185487Y-85374689D01*
X125192843Y-85300000D01*
X125192843Y-84300000D01*
X125185487Y-84225311D01*
X125163701Y-84153492D01*
X125128322Y-84087304D01*
X125110018Y-84065000D01*
X125128322Y-84042696D01*
X125163701Y-83976508D01*
X125185487Y-83904689D01*
X125192843Y-83830000D01*
X125192843Y-82830000D01*
X125185487Y-82755311D01*
X125163701Y-82683492D01*
X125128322Y-82617304D01*
X125101811Y-82585000D01*
X125128322Y-82552696D01*
X125163701Y-82486508D01*
X125185487Y-82414689D01*
X125192843Y-82340000D01*
X125192843Y-81340000D01*
X125185487Y-81265311D01*
X125163701Y-81193492D01*
X125128322Y-81127304D01*
X125080711Y-81069289D01*
X125022696Y-81021678D01*
X125018000Y-81019168D01*
X125018000Y-79650420D01*
X126421571Y-78246850D01*
X126440948Y-78230948D01*
X126459624Y-78208190D01*
X126504429Y-78153596D01*
X126551600Y-78065345D01*
X126558365Y-78043044D01*
X126580649Y-77969585D01*
X126588000Y-77894947D01*
X126588000Y-77894945D01*
X126590457Y-77870001D01*
X126588000Y-77845057D01*
X126588000Y-75682781D01*
X126647418Y-75694600D01*
X126892582Y-75694600D01*
X127133036Y-75646771D01*
X127359539Y-75552950D01*
X127563386Y-75416744D01*
X127594662Y-75385468D01*
X127599653Y-75391549D01*
%TA.AperFunction,Conductor*%
D21*
G36*
X127599653Y-75391549D02*
G01*
X127619036Y-75407456D01*
X129762001Y-77550422D01*
X129762000Y-91879579D01*
X129099580Y-92542000D01*
X126819104Y-92542000D01*
X126853977Y-92457809D01*
X126883990Y-92306922D01*
X126883990Y-92273448D01*
X126902191Y-92280987D01*
X127053078Y-92311000D01*
X127206922Y-92311000D01*
X127357809Y-92280987D01*
X127499942Y-92222113D01*
X127627859Y-92136642D01*
X127736642Y-92027859D01*
X127822113Y-91899942D01*
X127880987Y-91757809D01*
X127911000Y-91606922D01*
X127911000Y-91467420D01*
X128458567Y-90919853D01*
X128477950Y-90903946D01*
X128541431Y-90826593D01*
X128588603Y-90738341D01*
X128617651Y-90642583D01*
X128625002Y-90567945D01*
X128625002Y-90567942D01*
X128627459Y-90542998D01*
X128625002Y-90518054D01*
X128625002Y-84156260D01*
X128627459Y-84131316D01*
X128625002Y-84106370D01*
X128617651Y-84031732D01*
X128588603Y-83935974D01*
X128577121Y-83914493D01*
X128541431Y-83847721D01*
X128493852Y-83789746D01*
X128477950Y-83770369D01*
X128458572Y-83754466D01*
X127832540Y-83128435D01*
X127816633Y-83109052D01*
X127739280Y-83045571D01*
X127651028Y-82998399D01*
X127555270Y-82969351D01*
X127487142Y-82962641D01*
X127387859Y-82863358D01*
X127259942Y-82777887D01*
X127127055Y-82722843D01*
X127500000Y-82722843D01*
X127574689Y-82715487D01*
X127646508Y-82693701D01*
X127712696Y-82658322D01*
X127770711Y-82610711D01*
X127818322Y-82552696D01*
X127853701Y-82486508D01*
X127875487Y-82414689D01*
X127882843Y-82340000D01*
X127882843Y-81340000D01*
X127875487Y-81265311D01*
X127853701Y-81193492D01*
X127818322Y-81127304D01*
X127770711Y-81069289D01*
X127712696Y-81021678D01*
X127646508Y-80986299D01*
X127574689Y-80964513D01*
X127500000Y-80957157D01*
X126900000Y-80957157D01*
X126825311Y-80964513D01*
X126753492Y-80986299D01*
X126687304Y-81021678D01*
X126629289Y-81069289D01*
X126581678Y-81127304D01*
X126555000Y-81177214D01*
X126528322Y-81127304D01*
X126480711Y-81069289D01*
X126422696Y-81021678D01*
X126356508Y-80986299D01*
X126284689Y-80964513D01*
X126210000Y-80957157D01*
X125610000Y-80957157D01*
X125535311Y-80964513D01*
X125463492Y-80986299D01*
X125397304Y-81021678D01*
X125339289Y-81069289D01*
X125291678Y-81127304D01*
X125256299Y-81193492D01*
X125234513Y-81265311D01*
X125227157Y-81340000D01*
X125227157Y-82340000D01*
X125234513Y-82414689D01*
X125256299Y-82486508D01*
X125291678Y-82552696D01*
X125318189Y-82585000D01*
X125291678Y-82617304D01*
X125256299Y-82683492D01*
X125234513Y-82755311D01*
X125227157Y-82830000D01*
X125227157Y-83830000D01*
X125234513Y-83904689D01*
X125256299Y-83976508D01*
X125291678Y-84042696D01*
X125309982Y-84065000D01*
X125291678Y-84087304D01*
X125256299Y-84153492D01*
X125234513Y-84225311D01*
X125227157Y-84300000D01*
X125227157Y-85300000D01*
X125234513Y-85374689D01*
X125256299Y-85446508D01*
X125291678Y-85512696D01*
X125339289Y-85570711D01*
X125397304Y-85618322D01*
X125402000Y-85620832D01*
X125402001Y-91881486D01*
X125352003Y-92002191D01*
X125321990Y-92153078D01*
X125321990Y-92306922D01*
X125352003Y-92457809D01*
X125386876Y-92542000D01*
X122226420Y-92542000D01*
X123531565Y-91236855D01*
X123550948Y-91220948D01*
X123614429Y-91143595D01*
X123661601Y-91055343D01*
X123690649Y-90959585D01*
X123698000Y-90884947D01*
X123698000Y-90884944D01*
X123700457Y-90860000D01*
X123698000Y-90835056D01*
X123698000Y-90139840D01*
X123703358Y-90147859D01*
X123812141Y-90256642D01*
X123940058Y-90342113D01*
X124082191Y-90400987D01*
X124233078Y-90431000D01*
X124386922Y-90431000D01*
X124537809Y-90400987D01*
X124679942Y-90342113D01*
X124807859Y-90256642D01*
X124916642Y-90147859D01*
X125002113Y-90019942D01*
X125060987Y-89877809D01*
X125091000Y-89726922D01*
X125091000Y-89573078D01*
X125060987Y-89422191D01*
X125002113Y-89280058D01*
X124916642Y-89152141D01*
X124807859Y-89043358D01*
X124679942Y-88957887D01*
X124537809Y-88899013D01*
X124386922Y-88869000D01*
X124247420Y-88869000D01*
X124168000Y-88789580D01*
X124168000Y-85860420D01*
X124345577Y-85682843D01*
X124810000Y-85682843D01*
X124884689Y-85675487D01*
X124956508Y-85653701D01*
X125022696Y-85618322D01*
X125080711Y-85570711D01*
X125128322Y-85512696D01*
X125163701Y-85446508D01*
X125185487Y-85374689D01*
X125192843Y-85300000D01*
X125192843Y-84300000D01*
X125185487Y-84225311D01*
X125163701Y-84153492D01*
X125128322Y-84087304D01*
X125110018Y-84065000D01*
X125128322Y-84042696D01*
X125163701Y-83976508D01*
X125185487Y-83904689D01*
X125192843Y-83830000D01*
X125192843Y-82830000D01*
X125185487Y-82755311D01*
X125163701Y-82683492D01*
X125128322Y-82617304D01*
X125101811Y-82585000D01*
X125128322Y-82552696D01*
X125163701Y-82486508D01*
X125185487Y-82414689D01*
X125192843Y-82340000D01*
X125192843Y-81340000D01*
X125185487Y-81265311D01*
X125163701Y-81193492D01*
X125128322Y-81127304D01*
X125080711Y-81069289D01*
X125022696Y-81021678D01*
X125018000Y-81019168D01*
X125018000Y-79650420D01*
X126421571Y-78246850D01*
X126440948Y-78230948D01*
X126459624Y-78208190D01*
X126504429Y-78153596D01*
X126551600Y-78065345D01*
X126558365Y-78043044D01*
X126580649Y-77969585D01*
X126588000Y-77894947D01*
X126588000Y-77894945D01*
X126590457Y-77870001D01*
X126588000Y-77845057D01*
X126588000Y-75682781D01*
X126647418Y-75694600D01*
X126892582Y-75694600D01*
X127133036Y-75646771D01*
X127359539Y-75552950D01*
X127563386Y-75416744D01*
X127594662Y-75385468D01*
X127599653Y-75391549D01*
G37*
%TD.AperFunction*%
D19*
X122682001Y-90649579D02*
X121589580Y-91742000D01*
X119250184Y-91742000D01*
X119252843Y-91715000D01*
X119252843Y-91185000D01*
X119245487Y-91110311D01*
X119223701Y-91038492D01*
X119188322Y-90972304D01*
X119140711Y-90914289D01*
X119082696Y-90866678D01*
X119016508Y-90831299D01*
X118944689Y-90809513D01*
X118870000Y-90802157D01*
X116992002Y-90802157D01*
X116992002Y-90497843D01*
X118870000Y-90497843D01*
X118944689Y-90490487D01*
X119016508Y-90468701D01*
X119082696Y-90433322D01*
X119140711Y-90385711D01*
X119163453Y-90358000D01*
X121360089Y-90358000D01*
X121373358Y-90377859D01*
X121482141Y-90486642D01*
X121610058Y-90572113D01*
X121752191Y-90630987D01*
X121903078Y-90661000D01*
X122056922Y-90661000D01*
X122207809Y-90630987D01*
X122349942Y-90572113D01*
X122477859Y-90486642D01*
X122586642Y-90377859D01*
X122672113Y-90249942D01*
X122682001Y-90226071D01*
X122682001Y-90649579D01*
%TA.AperFunction,Conductor*%
D21*
G36*
X122682001Y-90649579D02*
G01*
X121589580Y-91742000D01*
X119250184Y-91742000D01*
X119252843Y-91715000D01*
X119252843Y-91185000D01*
X119245487Y-91110311D01*
X119223701Y-91038492D01*
X119188322Y-90972304D01*
X119140711Y-90914289D01*
X119082696Y-90866678D01*
X119016508Y-90831299D01*
X118944689Y-90809513D01*
X118870000Y-90802157D01*
X116992002Y-90802157D01*
X116992002Y-90497843D01*
X118870000Y-90497843D01*
X118944689Y-90490487D01*
X119016508Y-90468701D01*
X119082696Y-90433322D01*
X119140711Y-90385711D01*
X119163453Y-90358000D01*
X121360089Y-90358000D01*
X121373358Y-90377859D01*
X121482141Y-90486642D01*
X121610058Y-90572113D01*
X121752191Y-90630987D01*
X121903078Y-90661000D01*
X122056922Y-90661000D01*
X122207809Y-90630987D01*
X122349942Y-90572113D01*
X122477859Y-90486642D01*
X122586642Y-90377859D01*
X122672113Y-90249942D01*
X122682001Y-90226071D01*
X122682001Y-90649579D01*
G37*
%TD.AperFunction*%
D19*
X127010058Y-85332113D02*
X127152191Y-85390987D01*
X127303078Y-85421000D01*
X127456922Y-85421000D01*
X127607809Y-85390987D01*
X127609003Y-85390493D01*
X127609002Y-90332578D01*
X127192580Y-90749000D01*
X127053078Y-90749000D01*
X126902191Y-90779013D01*
X126760058Y-90837887D01*
X126632141Y-90923358D01*
X126523358Y-91032141D01*
X126437887Y-91160058D01*
X126418000Y-91208069D01*
X126418000Y-85620832D01*
X126422696Y-85618322D01*
X126480711Y-85570711D01*
X126528322Y-85512696D01*
X126563701Y-85446508D01*
X126585487Y-85374689D01*
X126592055Y-85308000D01*
X126973970Y-85308000D01*
X127010058Y-85332113D01*
%TA.AperFunction,Conductor*%
D21*
G36*
X127010058Y-85332113D02*
G01*
X127152191Y-85390987D01*
X127303078Y-85421000D01*
X127456922Y-85421000D01*
X127607809Y-85390987D01*
X127609003Y-85390493D01*
X127609002Y-90332578D01*
X127192580Y-90749000D01*
X127053078Y-90749000D01*
X126902191Y-90779013D01*
X126760058Y-90837887D01*
X126632141Y-90923358D01*
X126523358Y-91032141D01*
X126437887Y-91160058D01*
X126418000Y-91208069D01*
X126418000Y-85620832D01*
X126422696Y-85618322D01*
X126480711Y-85570711D01*
X126528322Y-85512696D01*
X126563701Y-85446508D01*
X126585487Y-85374689D01*
X126592055Y-85308000D01*
X126973970Y-85308000D01*
X127010058Y-85332113D01*
G37*
%TD.AperFunction*%
D19*
X124992001Y-77589578D02*
X122848435Y-79733145D01*
X122829052Y-79749052D01*
X122765571Y-79826405D01*
X122718399Y-79914658D01*
X122689351Y-80010416D01*
X122682000Y-80085053D01*
X122679543Y-80110000D01*
X122682000Y-80134944D01*
X122682001Y-89533929D01*
X122672113Y-89510058D01*
X122586642Y-89382141D01*
X122477859Y-89273358D01*
X122349942Y-89187887D01*
X122207809Y-89129013D01*
X122056922Y-89099000D01*
X121903078Y-89099000D01*
X121752191Y-89129013D01*
X121610058Y-89187887D01*
X121482141Y-89273358D01*
X121413499Y-89342000D01*
X119163453Y-89342000D01*
X119140711Y-89314289D01*
X119082696Y-89266678D01*
X119016508Y-89231299D01*
X118944689Y-89209513D01*
X118870000Y-89202157D01*
X116992002Y-89202157D01*
X116992002Y-84322598D01*
X119276652Y-82037948D01*
X119296035Y-82022041D01*
X119359516Y-81944688D01*
X119406688Y-81856436D01*
X119435736Y-81760678D01*
X119443087Y-81686040D01*
X119443087Y-81686037D01*
X119445544Y-81661093D01*
X119443087Y-81636149D01*
X119443087Y-81445333D01*
X124571565Y-76316855D01*
X124590948Y-76300948D01*
X124654429Y-76223595D01*
X124701601Y-76135343D01*
X124730649Y-76039585D01*
X124738000Y-75964947D01*
X124738000Y-75964944D01*
X124740457Y-75940000D01*
X124738000Y-75915056D01*
X124738000Y-75586725D01*
X124819539Y-75552950D01*
X124992000Y-75437715D01*
X124992001Y-77589578D01*
%TA.AperFunction,Conductor*%
D21*
G36*
X124992001Y-77589578D02*
G01*
X122848435Y-79733145D01*
X122829052Y-79749052D01*
X122765571Y-79826405D01*
X122718399Y-79914658D01*
X122689351Y-80010416D01*
X122682000Y-80085053D01*
X122679543Y-80110000D01*
X122682000Y-80134944D01*
X122682001Y-89533929D01*
X122672113Y-89510058D01*
X122586642Y-89382141D01*
X122477859Y-89273358D01*
X122349942Y-89187887D01*
X122207809Y-89129013D01*
X122056922Y-89099000D01*
X121903078Y-89099000D01*
X121752191Y-89129013D01*
X121610058Y-89187887D01*
X121482141Y-89273358D01*
X121413499Y-89342000D01*
X119163453Y-89342000D01*
X119140711Y-89314289D01*
X119082696Y-89266678D01*
X119016508Y-89231299D01*
X118944689Y-89209513D01*
X118870000Y-89202157D01*
X116992002Y-89202157D01*
X116992002Y-84322598D01*
X119276652Y-82037948D01*
X119296035Y-82022041D01*
X119359516Y-81944688D01*
X119406688Y-81856436D01*
X119435736Y-81760678D01*
X119443087Y-81686040D01*
X119443087Y-81686037D01*
X119445544Y-81661093D01*
X119443087Y-81636149D01*
X119443087Y-81445333D01*
X124571565Y-76316855D01*
X124590948Y-76300948D01*
X124654429Y-76223595D01*
X124701601Y-76135343D01*
X124730649Y-76039585D01*
X124738000Y-75964947D01*
X124738000Y-75964944D01*
X124740457Y-75940000D01*
X124738000Y-75915056D01*
X124738000Y-75586725D01*
X124819539Y-75552950D01*
X124992000Y-75437715D01*
X124992001Y-77589578D01*
G37*
%TD.AperFunction*%
D19*
X114599000Y-81567420D02*
X114599000Y-81706922D01*
X114629013Y-81857809D01*
X114687887Y-81999942D01*
X114773358Y-82127859D01*
X114882141Y-82236642D01*
X115010058Y-82322113D01*
X115152191Y-82380987D01*
X115165897Y-82383713D01*
X114778435Y-82771175D01*
X114759052Y-82787082D01*
X114695571Y-82864435D01*
X114648399Y-82952688D01*
X114619351Y-83048446D01*
X114613382Y-83109052D01*
X114609543Y-83148030D01*
X114612000Y-83172974D01*
X114612000Y-87921815D01*
X114522843Y-87832658D01*
X114329413Y-87703412D01*
X114114485Y-87614386D01*
X113886318Y-87569000D01*
X113653682Y-87569000D01*
X113648363Y-87570058D01*
X114411571Y-86806850D01*
X114430948Y-86790948D01*
X114449624Y-86768190D01*
X114494429Y-86713596D01*
X114519643Y-86666424D01*
X114541601Y-86625343D01*
X114570649Y-86529585D01*
X114578000Y-86454947D01*
X114578000Y-86454944D01*
X114580457Y-86430000D01*
X114578000Y-86405056D01*
X114578000Y-81546420D01*
X114599000Y-81567420D01*
%TA.AperFunction,Conductor*%
D21*
G36*
X114599000Y-81567420D02*
G01*
X114599000Y-81706922D01*
X114629013Y-81857809D01*
X114687887Y-81999942D01*
X114773358Y-82127859D01*
X114882141Y-82236642D01*
X115010058Y-82322113D01*
X115152191Y-82380987D01*
X115165897Y-82383713D01*
X114778435Y-82771175D01*
X114759052Y-82787082D01*
X114695571Y-82864435D01*
X114648399Y-82952688D01*
X114619351Y-83048446D01*
X114613382Y-83109052D01*
X114609543Y-83148030D01*
X114612000Y-83172974D01*
X114612000Y-87921815D01*
X114522843Y-87832658D01*
X114329413Y-87703412D01*
X114114485Y-87614386D01*
X113886318Y-87569000D01*
X113653682Y-87569000D01*
X113648363Y-87570058D01*
X114411571Y-86806850D01*
X114430948Y-86790948D01*
X114449624Y-86768190D01*
X114494429Y-86713596D01*
X114519643Y-86666424D01*
X114541601Y-86625343D01*
X114570649Y-86529585D01*
X114578000Y-86454947D01*
X114578000Y-86454944D01*
X114580457Y-86430000D01*
X114578000Y-86405056D01*
X114578000Y-81546420D01*
X114599000Y-81567420D01*
G37*
%TD.AperFunction*%
D19*
X119922001Y-77209579D02*
X116616987Y-80514593D01*
X116616987Y-77701433D01*
X118705424Y-75612996D01*
X118786964Y-75646771D01*
X119027418Y-75694600D01*
X119272582Y-75694600D01*
X119513036Y-75646771D01*
X119739539Y-75552950D01*
X119922001Y-75431033D01*
X119922001Y-77209579D01*
%TA.AperFunction,Conductor*%
D21*
G36*
X119922001Y-77209579D02*
G01*
X116616987Y-80514593D01*
X116616987Y-77701433D01*
X118705424Y-75612996D01*
X118786964Y-75646771D01*
X119027418Y-75694600D01*
X119272582Y-75694600D01*
X119513036Y-75646771D01*
X119739539Y-75552950D01*
X119922001Y-75431033D01*
X119922001Y-77209579D01*
G37*
%TD.AperFunction*%
%TD*%
M02*
