%TF.GenerationSoftware,KiCad,Pcbnew,5.1.9-73d0e3b20d~88~ubuntu20.04.1*%
%TF.CreationDate,2021-01-21T22:19:02+01:00*%
%TF.ProjectId,pi-hat-lorawan-gateway-minipci,70692d68-6174-42d6-9c6f-726177616e2d,rev?*%
%TF.SameCoordinates,Original*%
%TF.FileFunction,Legend,Top*%
%TF.FilePolarity,Positive*%
%FSLAX46Y46*%
G04 Gerber Fmt 4.6, Leading zero omitted, Abs format (unit mm)*
G04 Created by KiCad (PCBNEW 5.1.9-73d0e3b20d~88~ubuntu20.04.1) date 2021-01-21 22:19:02*
%MOMM*%
%LPD*%
G01*
G04 APERTURE LIST*
%ADD10C,0.150000*%
%ADD11C,0.127000*%
G04 APERTURE END LIST*
D10*
%TO.C,Con1*%
X105180000Y-70640000D02*
X105180000Y-73180000D01*
X104900000Y-74450000D02*
X104900000Y-76000000D01*
X105180000Y-73180000D02*
X107720000Y-73180000D01*
X107720000Y-73180000D02*
X107720000Y-75720000D01*
X104900000Y-76000000D02*
X106450000Y-76000000D01*
X105180000Y-70640000D02*
X138200000Y-70640000D01*
X138200000Y-70640000D02*
X138200000Y-75720000D01*
X107720000Y-75720000D02*
X138200000Y-75720000D01*
%TO.C,Con2*%
X164320000Y-113350000D02*
G75*
G03*
X164320000Y-113350000I-2500000J0D01*
G01*
X164320000Y-89150000D02*
G75*
G03*
X164320000Y-89150000I-2500000J0D01*
G01*
X119270000Y-86200000D02*
X119270000Y-88200000D01*
X111970000Y-86200000D02*
X119270000Y-86200000D01*
X111970000Y-116300000D02*
X119270000Y-116300000D01*
X110070000Y-87850000D02*
X110070000Y-89050000D01*
X110070000Y-95450000D02*
X110070000Y-98650000D01*
X110070000Y-113050000D02*
X110070000Y-114650000D01*
X119270000Y-88200000D02*
X118170000Y-88200000D01*
X118170000Y-88200000D02*
X118170000Y-89400000D01*
X118170000Y-95850000D02*
X118170000Y-99050000D01*
X118170000Y-113450000D02*
X118170000Y-114300000D01*
X118170000Y-114300000D02*
X119270000Y-114300000D01*
X119270000Y-116300000D02*
X119270000Y-114300000D01*
X164870000Y-116300000D02*
X119270000Y-116300000D01*
X164870000Y-86200000D02*
X119270000Y-86200000D01*
X164870000Y-86200000D02*
X164870000Y-116300000D01*
%TO.C,R1*%
X126360000Y-85400000D02*
X125660000Y-85400000D01*
X126360000Y-84200000D02*
X126360000Y-85400000D01*
X125660000Y-84200000D02*
X126360000Y-84200000D01*
X124060000Y-85400000D02*
X124760000Y-85400000D01*
X124060000Y-84200000D02*
X124060000Y-85400000D01*
X124760000Y-84200000D02*
X124060000Y-84200000D01*
%TO.C,R2*%
X124760000Y-82730000D02*
X124060000Y-82730000D01*
X124060000Y-82730000D02*
X124060000Y-83930000D01*
X124060000Y-83930000D02*
X124760000Y-83930000D01*
X125660000Y-82730000D02*
X126360000Y-82730000D01*
X126360000Y-82730000D02*
X126360000Y-83930000D01*
X126360000Y-83930000D02*
X125660000Y-83930000D01*
%TO.C,C1*%
X107480000Y-109000000D02*
X107480000Y-108300000D01*
X107480000Y-108300000D02*
X106280000Y-108300000D01*
X106280000Y-108300000D02*
X106280000Y-109000000D01*
X107480000Y-109900000D02*
X107480000Y-110600000D01*
X107480000Y-110600000D02*
X106280000Y-110600000D01*
X106280000Y-110600000D02*
X106280000Y-109900000D01*
%TO.C,C2*%
X106280000Y-107380000D02*
X106280000Y-108080000D01*
X106280000Y-108080000D02*
X107480000Y-108080000D01*
X107480000Y-108080000D02*
X107480000Y-107380000D01*
X106280000Y-106480000D02*
X106280000Y-105780000D01*
X106280000Y-105780000D02*
X107480000Y-105780000D01*
X107480000Y-105780000D02*
X107480000Y-106480000D01*
%TO.C,D1*%
X129050000Y-82440000D02*
X128350000Y-82440000D01*
X129050000Y-81240000D02*
X129050000Y-82440000D01*
X128350000Y-81240000D02*
X129050000Y-81240000D01*
X126750000Y-82440000D02*
X127450000Y-82440000D01*
X126750000Y-81240000D02*
X126750000Y-82440000D01*
X127450000Y-81240000D02*
X126750000Y-81240000D01*
X127650000Y-81540000D02*
X127650000Y-82140000D01*
X127650000Y-81540000D02*
X128150000Y-81840000D01*
X128150000Y-81840000D02*
X127650000Y-82140000D01*
X128150000Y-81440000D02*
X128150000Y-82240000D01*
%TO.C,R3*%
X125660000Y-82440000D02*
X126360000Y-82440000D01*
X126360000Y-82440000D02*
X126360000Y-81240000D01*
X126360000Y-81240000D02*
X125660000Y-81240000D01*
X124760000Y-82440000D02*
X124060000Y-82440000D01*
X124060000Y-82440000D02*
X124060000Y-81240000D01*
X124060000Y-81240000D02*
X124760000Y-81240000D01*
%TO.C,C3*%
X108520000Y-77010000D02*
X107820000Y-77010000D01*
X107820000Y-77010000D02*
X107820000Y-78210000D01*
X107820000Y-78210000D02*
X108520000Y-78210000D01*
X109420000Y-77010000D02*
X110120000Y-77010000D01*
X110120000Y-77010000D02*
X110120000Y-78210000D01*
X110120000Y-78210000D02*
X109420000Y-78210000D01*
%TO.C,C4*%
X110320000Y-84020000D02*
X109620000Y-84020000D01*
X110320000Y-82820000D02*
X110320000Y-84020000D01*
X109620000Y-82820000D02*
X110320000Y-82820000D01*
X108020000Y-84020000D02*
X108720000Y-84020000D01*
X108020000Y-82820000D02*
X108020000Y-84020000D01*
X108720000Y-82820000D02*
X108020000Y-82820000D01*
%TO.C,U1*%
X107280000Y-80470000D02*
X107280000Y-78970000D01*
X110580000Y-81970000D02*
X110580000Y-78970000D01*
%TO.C,Con1*%
X120698571Y-76997142D02*
X120650952Y-77044761D01*
X120508095Y-77092380D01*
X120412857Y-77092380D01*
X120270000Y-77044761D01*
X120174761Y-76949523D01*
X120127142Y-76854285D01*
X120079523Y-76663809D01*
X120079523Y-76520952D01*
X120127142Y-76330476D01*
X120174761Y-76235238D01*
X120270000Y-76140000D01*
X120412857Y-76092380D01*
X120508095Y-76092380D01*
X120650952Y-76140000D01*
X120698571Y-76187619D01*
X121270000Y-77092380D02*
X121174761Y-77044761D01*
X121127142Y-76997142D01*
X121079523Y-76901904D01*
X121079523Y-76616190D01*
X121127142Y-76520952D01*
X121174761Y-76473333D01*
X121270000Y-76425714D01*
X121412857Y-76425714D01*
X121508095Y-76473333D01*
X121555714Y-76520952D01*
X121603333Y-76616190D01*
X121603333Y-76901904D01*
X121555714Y-76997142D01*
X121508095Y-77044761D01*
X121412857Y-77092380D01*
X121270000Y-77092380D01*
X122031904Y-76425714D02*
X122031904Y-77092380D01*
X122031904Y-76520952D02*
X122079523Y-76473333D01*
X122174761Y-76425714D01*
X122317619Y-76425714D01*
X122412857Y-76473333D01*
X122460476Y-76568571D01*
X122460476Y-77092380D01*
X123460476Y-77092380D02*
X122889047Y-77092380D01*
X123174761Y-77092380D02*
X123174761Y-76092380D01*
X123079523Y-76235238D01*
X122984285Y-76330476D01*
X122889047Y-76378095D01*
X139515980Y-73600595D02*
X138515980Y-73600595D01*
X138515980Y-73219642D01*
X138563600Y-73124404D01*
X138611219Y-73076785D01*
X138706457Y-73029166D01*
X138849314Y-73029166D01*
X138944552Y-73076785D01*
X138992171Y-73124404D01*
X139039790Y-73219642D01*
X139039790Y-73600595D01*
X139515980Y-72076785D02*
X139515980Y-72648214D01*
X139515980Y-72362500D02*
X138515980Y-72362500D01*
X138658838Y-72457738D01*
X138754076Y-72552976D01*
X138801695Y-72648214D01*
%TO.C,Con2*%
X108227142Y-102321428D02*
X108274761Y-102369047D01*
X108322380Y-102511904D01*
X108322380Y-102607142D01*
X108274761Y-102750000D01*
X108179523Y-102845238D01*
X108084285Y-102892857D01*
X107893809Y-102940476D01*
X107750952Y-102940476D01*
X107560476Y-102892857D01*
X107465238Y-102845238D01*
X107370000Y-102750000D01*
X107322380Y-102607142D01*
X107322380Y-102511904D01*
X107370000Y-102369047D01*
X107417619Y-102321428D01*
X108322380Y-101750000D02*
X108274761Y-101845238D01*
X108227142Y-101892857D01*
X108131904Y-101940476D01*
X107846190Y-101940476D01*
X107750952Y-101892857D01*
X107703333Y-101845238D01*
X107655714Y-101750000D01*
X107655714Y-101607142D01*
X107703333Y-101511904D01*
X107750952Y-101464285D01*
X107846190Y-101416666D01*
X108131904Y-101416666D01*
X108227142Y-101464285D01*
X108274761Y-101511904D01*
X108322380Y-101607142D01*
X108322380Y-101750000D01*
X107655714Y-100988095D02*
X108322380Y-100988095D01*
X107750952Y-100988095D02*
X107703333Y-100940476D01*
X107655714Y-100845238D01*
X107655714Y-100702380D01*
X107703333Y-100607142D01*
X107798571Y-100559523D01*
X108322380Y-100559523D01*
X107417619Y-100130952D02*
X107370000Y-100083333D01*
X107322380Y-99988095D01*
X107322380Y-99750000D01*
X107370000Y-99654761D01*
X107417619Y-99607142D01*
X107512857Y-99559523D01*
X107608095Y-99559523D01*
X107750952Y-99607142D01*
X108322380Y-100178571D01*
X108322380Y-99559523D01*
X119022380Y-113488095D02*
X119022380Y-113964285D01*
X119498571Y-114011904D01*
X119450952Y-113964285D01*
X119403333Y-113869047D01*
X119403333Y-113630952D01*
X119450952Y-113535714D01*
X119498571Y-113488095D01*
X119593809Y-113440476D01*
X119831904Y-113440476D01*
X119927142Y-113488095D01*
X119974761Y-113535714D01*
X120022380Y-113630952D01*
X120022380Y-113869047D01*
X119974761Y-113964285D01*
X119927142Y-114011904D01*
X119117619Y-113059523D02*
X119070000Y-113011904D01*
X119022380Y-112916666D01*
X119022380Y-112678571D01*
X119070000Y-112583333D01*
X119117619Y-112535714D01*
X119212857Y-112488095D01*
X119308095Y-112488095D01*
X119450952Y-112535714D01*
X120022380Y-113107142D01*
X120022380Y-112488095D01*
X109322380Y-88264285D02*
X109322380Y-88835714D01*
X109322380Y-88550000D02*
X108322380Y-88550000D01*
X108465238Y-88645238D01*
X108560476Y-88740476D01*
X108608095Y-88835714D01*
%TO.C,R1*%
D11*
X123284166Y-85067261D02*
X123072500Y-84764880D01*
X122921309Y-85067261D02*
X122921309Y-84432261D01*
X123163214Y-84432261D01*
X123223690Y-84462500D01*
X123253928Y-84492738D01*
X123284166Y-84553214D01*
X123284166Y-84643928D01*
X123253928Y-84704404D01*
X123223690Y-84734642D01*
X123163214Y-84764880D01*
X122921309Y-84764880D01*
X123888928Y-85067261D02*
X123526071Y-85067261D01*
X123707500Y-85067261D02*
X123707500Y-84432261D01*
X123647023Y-84522976D01*
X123586547Y-84583452D01*
X123526071Y-84613690D01*
%TO.C,R2*%
X123244166Y-83627261D02*
X123032500Y-83324880D01*
X122881309Y-83627261D02*
X122881309Y-82992261D01*
X123123214Y-82992261D01*
X123183690Y-83022500D01*
X123213928Y-83052738D01*
X123244166Y-83113214D01*
X123244166Y-83203928D01*
X123213928Y-83264404D01*
X123183690Y-83294642D01*
X123123214Y-83324880D01*
X122881309Y-83324880D01*
X123486071Y-83052738D02*
X123516309Y-83022500D01*
X123576785Y-82992261D01*
X123727976Y-82992261D01*
X123788452Y-83022500D01*
X123818690Y-83052738D01*
X123848928Y-83113214D01*
X123848928Y-83173690D01*
X123818690Y-83264404D01*
X123455833Y-83627261D01*
X123848928Y-83627261D01*
%TO.C,C1*%
X105916785Y-109515833D02*
X105947023Y-109546071D01*
X105977261Y-109636785D01*
X105977261Y-109697261D01*
X105947023Y-109787976D01*
X105886547Y-109848452D01*
X105826071Y-109878690D01*
X105705119Y-109908928D01*
X105614404Y-109908928D01*
X105493452Y-109878690D01*
X105432976Y-109848452D01*
X105372500Y-109787976D01*
X105342261Y-109697261D01*
X105342261Y-109636785D01*
X105372500Y-109546071D01*
X105402738Y-109515833D01*
X105977261Y-108911071D02*
X105977261Y-109273928D01*
X105977261Y-109092500D02*
X105342261Y-109092500D01*
X105432976Y-109152976D01*
X105493452Y-109213452D01*
X105523690Y-109273928D01*
%TO.C,C2*%
X105956785Y-106965833D02*
X105987023Y-106996071D01*
X106017261Y-107086785D01*
X106017261Y-107147261D01*
X105987023Y-107237976D01*
X105926547Y-107298452D01*
X105866071Y-107328690D01*
X105745119Y-107358928D01*
X105654404Y-107358928D01*
X105533452Y-107328690D01*
X105472976Y-107298452D01*
X105412500Y-107237976D01*
X105382261Y-107147261D01*
X105382261Y-107086785D01*
X105412500Y-106996071D01*
X105442738Y-106965833D01*
X105442738Y-106723928D02*
X105412500Y-106693690D01*
X105382261Y-106633214D01*
X105382261Y-106482023D01*
X105412500Y-106421547D01*
X105442738Y-106391309D01*
X105503214Y-106361071D01*
X105563690Y-106361071D01*
X105654404Y-106391309D01*
X106017261Y-106754166D01*
X106017261Y-106361071D01*
%TO.C,D1*%
X127421309Y-80977261D02*
X127421309Y-80342261D01*
X127572500Y-80342261D01*
X127663214Y-80372500D01*
X127723690Y-80432976D01*
X127753928Y-80493452D01*
X127784166Y-80614404D01*
X127784166Y-80705119D01*
X127753928Y-80826071D01*
X127723690Y-80886547D01*
X127663214Y-80947023D01*
X127572500Y-80977261D01*
X127421309Y-80977261D01*
X128388928Y-80977261D02*
X128026071Y-80977261D01*
X128207500Y-80977261D02*
X128207500Y-80342261D01*
X128147023Y-80432976D01*
X128086547Y-80493452D01*
X128026071Y-80523690D01*
%TO.C,R3*%
X125154166Y-80997261D02*
X124942500Y-80694880D01*
X124791309Y-80997261D02*
X124791309Y-80362261D01*
X125033214Y-80362261D01*
X125093690Y-80392500D01*
X125123928Y-80422738D01*
X125154166Y-80483214D01*
X125154166Y-80573928D01*
X125123928Y-80634404D01*
X125093690Y-80664642D01*
X125033214Y-80694880D01*
X124791309Y-80694880D01*
X125365833Y-80362261D02*
X125758928Y-80362261D01*
X125547261Y-80604166D01*
X125637976Y-80604166D01*
X125698452Y-80634404D01*
X125728690Y-80664642D01*
X125758928Y-80725119D01*
X125758928Y-80876309D01*
X125728690Y-80936785D01*
X125698452Y-80967023D01*
X125637976Y-80997261D01*
X125456547Y-80997261D01*
X125396071Y-80967023D01*
X125365833Y-80936785D01*
%TO.C,C3*%
X110784166Y-77846785D02*
X110753928Y-77877023D01*
X110663214Y-77907261D01*
X110602738Y-77907261D01*
X110512023Y-77877023D01*
X110451547Y-77816547D01*
X110421309Y-77756071D01*
X110391071Y-77635119D01*
X110391071Y-77544404D01*
X110421309Y-77423452D01*
X110451547Y-77362976D01*
X110512023Y-77302500D01*
X110602738Y-77272261D01*
X110663214Y-77272261D01*
X110753928Y-77302500D01*
X110784166Y-77332738D01*
X110995833Y-77272261D02*
X111388928Y-77272261D01*
X111177261Y-77514166D01*
X111267976Y-77514166D01*
X111328452Y-77544404D01*
X111358690Y-77574642D01*
X111388928Y-77635119D01*
X111388928Y-77786309D01*
X111358690Y-77846785D01*
X111328452Y-77877023D01*
X111267976Y-77907261D01*
X111086547Y-77907261D01*
X111026071Y-77877023D01*
X110995833Y-77846785D01*
%TO.C,C4*%
X111034166Y-83636785D02*
X111003928Y-83667023D01*
X110913214Y-83697261D01*
X110852738Y-83697261D01*
X110762023Y-83667023D01*
X110701547Y-83606547D01*
X110671309Y-83546071D01*
X110641071Y-83425119D01*
X110641071Y-83334404D01*
X110671309Y-83213452D01*
X110701547Y-83152976D01*
X110762023Y-83092500D01*
X110852738Y-83062261D01*
X110913214Y-83062261D01*
X111003928Y-83092500D01*
X111034166Y-83122738D01*
X111578452Y-83273928D02*
X111578452Y-83697261D01*
X111427261Y-83032023D02*
X111276071Y-83485595D01*
X111669166Y-83485595D01*
%TO.C,U1*%
D10*
X110978095Y-79962380D02*
X110978095Y-80771904D01*
X111025714Y-80867142D01*
X111073333Y-80914761D01*
X111168571Y-80962380D01*
X111359047Y-80962380D01*
X111454285Y-80914761D01*
X111501904Y-80867142D01*
X111549523Y-80771904D01*
X111549523Y-79962380D01*
X112549523Y-80962380D02*
X111978095Y-80962380D01*
X112263809Y-80962380D02*
X112263809Y-79962380D01*
X112168571Y-80105238D01*
X112073333Y-80200476D01*
X111978095Y-80248095D01*
%TD*%
M02*
