M48
; DRILL file {KiCad 5.99.0-unknown-140f4a8d21~125~ubuntu20.04.1} date Thu Apr  1 23:04:01 2021
; FORMAT={-:-/ absolute / inch / decimal}
; #@! TF.CreationDate,2021-04-01T23:04:01+02:00
; #@! TF.GenerationSoftware,Kicad,Pcbnew,5.99.0-unknown-140f4a8d21~125~ubuntu20.04.1
; #@! TF.FileFunction,Plated,1,2,PTH
FMAT,2
INCH
; #@! TA.AperFunction,ViaDrill
T1C0.0236
; #@! TA.AperFunction,ComponentDrill,Plated,PTH
T2C0.0433
%
G90
G05
T1
X4.8701Y-2.7894
X4.8724Y-2.9354
X5.135Y-2.9717
X5.1406Y-2.9087
X5.2618Y-2.5748
X5.3945Y-3.7827
X5.4157Y-3.2743
X5.461Y-2.5756
X5.4614Y-3.2736
X5.4984Y-3.4539
X5.5173Y-3.2728
X5.5476Y-3.7846
X5.5571Y-3.2311
X5.5937Y-3.2976
X5.6283Y-3.4516
X5.6476Y-3.7846
X5.7201Y-3.2894
X5.7535Y-3.4535
X5.7575Y-3.7945
X5.7763Y-2.8043
X5.8236Y-2.5654
X5.8437Y-3.798
X5.8484Y-3.4528
X5.9201Y-3.7866
X5.9248Y-2.5878
T2
X5.0252Y-2.6453
X5.1252Y-2.6453
T0
M30
