M48
; DRILL file {KiCad (5.99.0-9801-g46d71f0d23)} date 03/17/21 00:26:48
; FORMAT={-:-/ absolute / inch / decimal}
; #@! TF.CreationDate,2021-03-17T00:26:48+01:00
; #@! TF.GenerationSoftware,Kicad,Pcbnew,(5.99.0-9801-g46d71f0d23)
; #@! TF.FileFunction,Plated,1,2,PTH
FMAT,2
INCH
; #@! TA.AperFunction,ViaDrill
T1C0.0236
%
G90
G05
T1
; via hole
X7.3051Y-2.4799
X7.3051Y-2.5583
X7.3051Y-2.6252
X7.3126Y-2.7295
X7.315Y-2.8756
X7.3478Y-2.6707
X7.3807Y-2.9197
X7.3925Y-2.9776
X7.4591Y-2.9776
X7.5287Y-2.9776
X7.5776Y-2.9118
X7.5831Y-2.8488
X7.7043Y-2.515
X7.837Y-3.7228
X7.8582Y-3.2145
X7.9035Y-2.5157
X7.9039Y-3.2138
X7.9409Y-3.3941
X7.9598Y-3.213
X7.9902Y-3.7248
X7.9996Y-3.1713
X8.0055Y-2.511
X8.0362Y-3.2378
X8.0661Y-2.672
X8.0709Y-3.3917
X8.0902Y-3.7248
X8.0992Y-2.7909
X8.1051Y-2.5039
X8.1051Y-2.5689
X8.1051Y-2.6331
X8.1626Y-3.2295
X8.1961Y-3.3937
X8.2Y-3.7346
X8.2188Y-2.7444
X8.2661Y-2.5055
X8.2862Y-3.7382
X8.2909Y-3.3929
X8.3626Y-3.7268
X8.3673Y-2.528
T0
M30
