%TF.GenerationSoftware,KiCad,Pcbnew,5.99.0-unknown-140f4a8d21~125~ubuntu20.04.1*%
%TF.CreationDate,2021-04-01T23:20:43+02:00*%
%TF.ProjectId,pi-hat-lorawan-gateway-minipci,70692d68-6174-42d6-9c6f-726177616e2d,rev?*%
%TF.SameCoordinates,Original*%
%TF.FileFunction,Copper,L2,Bot*%
%TF.FilePolarity,Positive*%
%FSLAX46Y46*%
G04 Gerber Fmt 4.6, Leading zero omitted, Abs format (unit mm)*
G04 Created by KiCad (PCBNEW 5.99.0-unknown-140f4a8d21~125~ubuntu20.04.1) date 2021-04-01 23:20:43*
%MOMM*%
%LPD*%
G01*
G04 APERTURE LIST*
%TA.AperFunction,ComponentPad*%
%ADD10R,1.727200X1.727200*%
%TD*%
%TA.AperFunction,ComponentPad*%
%ADD11O,1.727200X1.727200*%
%TD*%
%TA.AperFunction,ViaPad*%
%ADD12C,0.800000*%
%TD*%
%TA.AperFunction,Conductor*%
%ADD13C,0.254000*%
%TD*%
G04 APERTURE END LIST*
D10*
%TO.P,Con1,1,1*%
%TO.N,N/C*%
X106450000Y-74450000D03*
D11*
%TO.P,Con1,2,2*%
%TO.N,5V*%
X106450000Y-71910000D03*
%TO.P,Con1,3,3*%
%TO.N,N/C*%
X108990000Y-74450000D03*
%TO.P,Con1,4,4*%
%TO.N,5V*%
X108990000Y-71910000D03*
%TO.P,Con1,5,5*%
%TO.N,N/C*%
X111530000Y-74450000D03*
%TO.P,Con1,6,6*%
%TO.N,GND*%
X111530000Y-71910000D03*
%TO.P,Con1,7,7*%
%TO.N,N/C*%
X114070000Y-74450000D03*
%TO.P,Con1,8,8*%
X114070000Y-71910000D03*
%TO.P,Con1,9,9*%
%TO.N,GND*%
X116610000Y-74450000D03*
%TO.P,Con1,10,10*%
%TO.N,N/C*%
X116610000Y-71910000D03*
%TO.P,Con1,11,11*%
X119150000Y-74450000D03*
%TO.P,Con1,12,12*%
X119150000Y-71910000D03*
%TO.P,Con1,13,13*%
X121690000Y-74450000D03*
%TO.P,Con1,14,14*%
%TO.N,GND*%
X121690000Y-71910000D03*
%TO.P,Con1,15,15*%
%TO.N,N/C*%
X124230000Y-74450000D03*
%TO.P,Con1,16,16*%
X124230000Y-71910000D03*
%TO.P,Con1,17,17*%
X126770000Y-74450000D03*
%TO.P,Con1,18,18*%
X126770000Y-71910000D03*
%TO.P,Con1,19,19*%
%TO.N,/GPIO10(MOSI)*%
X129310000Y-74450000D03*
%TO.P,Con1,20,20*%
%TO.N,GND*%
X129310000Y-71910000D03*
%TO.P,Con1,21,21*%
%TO.N,/GPIO9(MISO)*%
X131850000Y-74450000D03*
%TO.P,Con1,22,22*%
%TO.N,/GPIO25*%
X131850000Y-71910000D03*
%TO.P,Con1,23,23*%
%TO.N,/GPIO11(SCLK)*%
X134390000Y-74450000D03*
%TO.P,Con1,24,24*%
%TO.N,/GPIO8(CE0)*%
X134390000Y-71910000D03*
%TO.P,Con1,25,25*%
%TO.N,GND*%
X136930000Y-74450000D03*
%TO.P,Con1,26,26*%
%TO.N,N/C*%
X136930000Y-71910000D03*
%TD*%
D12*
%TO.N,GND*%
X120740000Y-113960000D03*
X121760000Y-112610000D03*
X114600000Y-83720000D03*
X111770000Y-90630000D03*
X113310000Y-85390000D03*
X120830000Y-107830000D03*
X116080000Y-99410000D03*
X130540000Y-88830000D03*
X124150000Y-85010000D03*
X111999776Y-105499789D03*
X129452990Y-81952319D03*
X112580000Y-101960000D03*
X120390000Y-90990000D03*
X121660000Y-95720000D03*
X134870000Y-91780000D03*
X109250000Y-97100000D03*
X112390000Y-84360000D03*
X130120000Y-94470000D03*
X120350000Y-97140000D03*
X123570000Y-77920000D03*
X120250000Y-84300000D03*
X134720000Y-84060000D03*
X121770000Y-81290000D03*
X124530000Y-77160000D03*
X116010000Y-115440000D03*
X127050000Y-87860000D03*
X114010000Y-79330000D03*
X122400000Y-92650000D03*
X117470000Y-77780000D03*
X118520000Y-76870000D03*
X127820000Y-92020000D03*
X121240000Y-87220000D03*
X121360000Y-115230000D03*
X114780000Y-94300000D03*
X120980000Y-105240000D03*
X112510000Y-104210000D03*
X121180000Y-102670000D03*
X114360000Y-87240000D03*
X114400000Y-92650000D03*
%TO.N,/GPIO8(CE0)*%
X124880000Y-111590000D03*
X112670000Y-112630510D03*
%TO.N,/GPIO11(SCLK)*%
X125780000Y-110750000D03*
X111620000Y-110010000D03*
%TO.N,/GPIO9(MISO)*%
X112744405Y-110627071D03*
X124127903Y-110748538D03*
%TO.N,/GPIO10(MOSI)*%
X113660000Y-111200000D03*
X123012494Y-110854345D03*
%TD*%
D13*
%TO.N,/GPIO8(CE0)*%
X114420000Y-111760000D02*
X113549490Y-112630510D01*
X114545144Y-111634856D02*
X114420000Y-111760000D01*
X115070000Y-111110000D02*
X122050000Y-111110000D01*
X122050000Y-111110000D02*
X122574856Y-111634856D01*
X114420000Y-111760000D02*
X115070000Y-111110000D01*
X124835144Y-111634856D02*
X123714856Y-111634856D01*
X123714856Y-111634856D02*
X122574856Y-111634856D01*
X113549490Y-112630510D02*
X112670000Y-112630510D01*
X124880000Y-111590000D02*
X124835144Y-111634856D01*
%TO.N,/GPIO9(MISO)*%
X113321476Y-110050000D02*
X123429365Y-110050000D01*
X123429365Y-110050000D02*
X124127903Y-110748538D01*
X112744405Y-110627071D02*
X113321476Y-110050000D01*
%TO.N,/GPIO11(SCLK)*%
X111620000Y-110010000D02*
X112110000Y-109520000D01*
X112110000Y-109520000D02*
X124090000Y-109520000D01*
X124090000Y-109520000D02*
X125330000Y-110760000D01*
X125330000Y-110760000D02*
X125610000Y-110760000D01*
%TO.N,/GPIO9(MISO)*%
X131830000Y-74470000D02*
X131850000Y-74450000D01*
%TO.N,/GPIO10(MOSI)*%
X113660000Y-111200000D02*
X114270000Y-110590000D01*
X114270000Y-110590000D02*
X122748149Y-110590000D01*
X122748149Y-110590000D02*
X123012494Y-110854345D01*
%TD*%
%TA.AperFunction,Conductor*%
%TO.N,GND*%
G36*
X157429382Y-69420445D02*
G01*
X158639618Y-69421595D01*
X160790122Y-69423639D01*
X160858221Y-69443706D01*
X160904663Y-69497406D01*
X160916000Y-69549639D01*
X160916000Y-82132453D01*
X160913579Y-82157033D01*
X160911000Y-82170000D01*
X160916000Y-82195137D01*
X160930715Y-82269115D01*
X160937609Y-82279433D01*
X160937610Y-82279435D01*
X160979966Y-82342825D01*
X160986859Y-82353141D01*
X160997175Y-82360034D01*
X161060565Y-82402390D01*
X161060567Y-82402391D01*
X161070885Y-82409285D01*
X161170000Y-82429000D01*
X161182171Y-82426579D01*
X161182173Y-82426579D01*
X161182967Y-82426421D01*
X161207547Y-82424000D01*
X175142453Y-82424000D01*
X175167033Y-82426421D01*
X175167827Y-82426579D01*
X175167829Y-82426579D01*
X175180000Y-82429000D01*
X175279115Y-82409285D01*
X175289433Y-82402391D01*
X175289435Y-82402390D01*
X175352825Y-82360034D01*
X175363141Y-82353141D01*
X175370034Y-82342825D01*
X175412390Y-82279435D01*
X175412391Y-82279433D01*
X175419285Y-82269115D01*
X175434000Y-82195137D01*
X175439000Y-82170000D01*
X175436421Y-82157033D01*
X175434000Y-82132453D01*
X175434000Y-69550000D01*
X175454002Y-69481879D01*
X175507658Y-69435386D01*
X175560000Y-69424000D01*
X188810000Y-69424000D01*
X188878121Y-69444002D01*
X188924614Y-69497658D01*
X188936000Y-69550000D01*
X188936000Y-85790000D01*
X188915998Y-85858121D01*
X188862342Y-85904614D01*
X188810000Y-85916000D01*
X178227547Y-85916000D01*
X178202967Y-85913579D01*
X178202173Y-85913421D01*
X178202171Y-85913421D01*
X178190000Y-85911000D01*
X178164863Y-85916000D01*
X178090885Y-85930715D01*
X178080567Y-85937609D01*
X178080565Y-85937610D01*
X178017175Y-85979966D01*
X178006859Y-85986859D01*
X177999966Y-85997175D01*
X177957610Y-86060565D01*
X177957609Y-86060567D01*
X177950715Y-86070885D01*
X177931000Y-86170000D01*
X177933421Y-86182171D01*
X177933421Y-86182173D01*
X177933579Y-86182967D01*
X177936000Y-86207547D01*
X177936000Y-101662453D01*
X177933579Y-101687033D01*
X177931000Y-101700000D01*
X177936000Y-101725137D01*
X177950715Y-101799115D01*
X177957609Y-101809433D01*
X177957610Y-101809435D01*
X177999966Y-101872825D01*
X178006859Y-101883141D01*
X178017175Y-101890034D01*
X178080565Y-101932390D01*
X178080567Y-101932391D01*
X178090885Y-101939285D01*
X178190000Y-101959000D01*
X178202171Y-101956579D01*
X178202173Y-101956579D01*
X178202967Y-101956421D01*
X178227547Y-101954000D01*
X188810000Y-101954000D01*
X188878121Y-101974002D01*
X188924614Y-102027658D01*
X188936000Y-102080000D01*
X188936000Y-105790000D01*
X188915998Y-105858121D01*
X188862342Y-105904614D01*
X188810000Y-105916000D01*
X168227547Y-105916000D01*
X168202967Y-105913579D01*
X168202173Y-105913421D01*
X168202171Y-105913421D01*
X168190000Y-105911000D01*
X168164863Y-105916000D01*
X168090885Y-105930715D01*
X168080567Y-105937609D01*
X168080565Y-105937610D01*
X168017175Y-105979966D01*
X168006859Y-105986859D01*
X167999966Y-105997175D01*
X167957610Y-106060565D01*
X167957609Y-106060567D01*
X167950715Y-106070885D01*
X167931000Y-106170000D01*
X167933421Y-106182171D01*
X167933421Y-106182173D01*
X167933579Y-106182967D01*
X167936000Y-106207547D01*
X167936000Y-124790000D01*
X167915998Y-124858121D01*
X167862342Y-124904614D01*
X167810000Y-124916000D01*
X104570000Y-124916000D01*
X104501879Y-124895998D01*
X104455386Y-124842342D01*
X104444000Y-124790000D01*
X104444000Y-109927343D01*
X110965700Y-109927343D01*
X110965700Y-110092657D01*
X111006812Y-110252778D01*
X111086453Y-110397644D01*
X111091877Y-110403420D01*
X111146380Y-110461459D01*
X111199619Y-110518153D01*
X111339199Y-110606733D01*
X111346738Y-110609183D01*
X111346741Y-110609184D01*
X111488884Y-110655369D01*
X111488886Y-110655369D01*
X111496422Y-110657818D01*
X111504331Y-110658316D01*
X111504333Y-110658316D01*
X111578916Y-110663009D01*
X111661410Y-110668199D01*
X111669194Y-110666714D01*
X111669196Y-110666714D01*
X111816013Y-110638707D01*
X111816014Y-110638707D01*
X111823797Y-110637222D01*
X111910544Y-110596402D01*
X111980696Y-110585496D01*
X112045609Y-110614248D01*
X112084673Y-110673532D01*
X112089197Y-110694616D01*
X112090105Y-110701801D01*
X112090105Y-110709728D01*
X112131217Y-110869849D01*
X112210858Y-111014715D01*
X112324024Y-111135224D01*
X112463604Y-111223804D01*
X112471143Y-111226254D01*
X112471146Y-111226255D01*
X112613289Y-111272440D01*
X112613291Y-111272440D01*
X112620827Y-111274889D01*
X112628736Y-111275387D01*
X112628738Y-111275387D01*
X112703321Y-111280079D01*
X112785815Y-111285270D01*
X112879848Y-111267332D01*
X112950509Y-111274215D01*
X113006232Y-111318208D01*
X113025497Y-111359760D01*
X113046812Y-111442778D01*
X113126453Y-111587644D01*
X113239619Y-111708153D01*
X113379199Y-111796733D01*
X113386738Y-111799183D01*
X113386741Y-111799184D01*
X113534271Y-111847119D01*
X113592877Y-111887192D01*
X113620514Y-111952589D01*
X113608407Y-112022546D01*
X113584430Y-112056047D01*
X113428372Y-112212105D01*
X113366060Y-112246131D01*
X113339277Y-112249010D01*
X113265783Y-112249010D01*
X113197662Y-112229008D01*
X113163848Y-112197072D01*
X113150755Y-112179051D01*
X113105703Y-112141781D01*
X113029487Y-112078729D01*
X113029483Y-112078726D01*
X113023378Y-112073676D01*
X112873797Y-112003288D01*
X112866014Y-112001803D01*
X112866013Y-112001803D01*
X112719196Y-111973796D01*
X112719194Y-111973796D01*
X112711410Y-111972311D01*
X112628916Y-111977502D01*
X112554333Y-111982194D01*
X112554331Y-111982194D01*
X112546422Y-111982692D01*
X112538886Y-111985141D01*
X112538884Y-111985141D01*
X112396741Y-112031326D01*
X112396738Y-112031327D01*
X112389199Y-112033777D01*
X112249619Y-112122357D01*
X112244192Y-112128136D01*
X112244191Y-112128137D01*
X112165340Y-112212105D01*
X112136453Y-112242866D01*
X112056812Y-112387732D01*
X112015700Y-112547853D01*
X112015700Y-112713167D01*
X112056812Y-112873288D01*
X112136453Y-113018154D01*
X112141877Y-113023930D01*
X112209325Y-113095754D01*
X112249619Y-113138663D01*
X112389199Y-113227243D01*
X112396738Y-113229693D01*
X112396741Y-113229694D01*
X112538884Y-113275879D01*
X112538886Y-113275879D01*
X112546422Y-113278328D01*
X112554331Y-113278826D01*
X112554333Y-113278826D01*
X112628916Y-113283518D01*
X112711410Y-113288709D01*
X112719194Y-113287224D01*
X112719196Y-113287224D01*
X112866009Y-113259218D01*
X112866012Y-113259217D01*
X112873797Y-113257732D01*
X112878468Y-113255534D01*
X112948207Y-113253543D01*
X113009004Y-113290207D01*
X113040328Y-113353920D01*
X113034574Y-113418497D01*
X112985608Y-113553029D01*
X112985607Y-113553034D01*
X112983198Y-113559652D01*
X112960579Y-113738698D01*
X112978190Y-113918305D01*
X112980414Y-113924990D01*
X112980414Y-113924991D01*
X112991361Y-113957900D01*
X113035154Y-114089546D01*
X113038801Y-114095568D01*
X113038802Y-114095570D01*
X113057167Y-114125893D01*
X113128642Y-114243913D01*
X113254005Y-114373730D01*
X113405015Y-114472548D01*
X113574164Y-114535454D01*
X113581145Y-114536385D01*
X113581147Y-114536386D01*
X113746066Y-114558391D01*
X113746070Y-114558391D01*
X113753047Y-114559322D01*
X113760058Y-114558684D01*
X113760062Y-114558684D01*
X113925752Y-114543605D01*
X113932773Y-114542966D01*
X114082698Y-114494252D01*
X114097708Y-114489375D01*
X114104408Y-114487198D01*
X114135459Y-114468688D01*
X114253371Y-114398399D01*
X114253373Y-114398398D01*
X114259423Y-114394791D01*
X114390113Y-114270337D01*
X114455956Y-114171236D01*
X114486082Y-114125893D01*
X114486083Y-114125891D01*
X114489983Y-114120021D01*
X114554068Y-113951314D01*
X114579184Y-113772603D01*
X114579500Y-113750000D01*
X114559383Y-113570656D01*
X114522169Y-113463792D01*
X114520425Y-113458785D01*
X160264299Y-113458785D01*
X160301704Y-113706113D01*
X160303253Y-113710937D01*
X160303254Y-113710942D01*
X160314417Y-113745710D01*
X160378170Y-113944279D01*
X160380468Y-113948789D01*
X160380470Y-113948794D01*
X160385110Y-113957900D01*
X160491732Y-114167156D01*
X160639466Y-114369009D01*
X160817573Y-114544646D01*
X160821698Y-114547578D01*
X160821701Y-114547580D01*
X160836914Y-114558391D01*
X161021469Y-114689548D01*
X161245910Y-114799986D01*
X161250749Y-114801465D01*
X161250753Y-114801467D01*
X161480272Y-114871638D01*
X161480274Y-114871638D01*
X161485120Y-114873120D01*
X161490141Y-114873808D01*
X161490142Y-114873808D01*
X161727923Y-114906380D01*
X161732946Y-114907068D01*
X161805588Y-114905293D01*
X161977951Y-114901081D01*
X161977955Y-114901081D01*
X161983012Y-114900957D01*
X162228884Y-114854943D01*
X162464236Y-114770211D01*
X162683014Y-114648941D01*
X162686992Y-114645811D01*
X162686996Y-114645808D01*
X162875613Y-114497381D01*
X162875614Y-114497380D01*
X162879589Y-114494252D01*
X163048903Y-114310124D01*
X163186600Y-114101295D01*
X163254005Y-113951314D01*
X163287065Y-113877753D01*
X163287067Y-113877747D01*
X163289139Y-113873137D01*
X163290447Y-113868256D01*
X163290449Y-113868250D01*
X163352572Y-113636402D01*
X163352572Y-113636401D01*
X163353880Y-113631520D01*
X163379158Y-113382660D01*
X163379500Y-113350000D01*
X163374449Y-113287224D01*
X163359845Y-113105706D01*
X163359844Y-113105701D01*
X163359439Y-113100665D01*
X163299772Y-112857745D01*
X163243704Y-112725656D01*
X163204011Y-112632147D01*
X163204010Y-112632145D01*
X163202034Y-112627490D01*
X163068741Y-112415823D01*
X163043976Y-112387732D01*
X162906664Y-112231983D01*
X162903320Y-112228190D01*
X162710028Y-112069418D01*
X162560163Y-111982194D01*
X162498206Y-111946134D01*
X162498204Y-111946133D01*
X162493838Y-111943592D01*
X162429909Y-111919052D01*
X162265036Y-111855763D01*
X162265032Y-111855762D01*
X162260312Y-111853950D01*
X162255362Y-111852916D01*
X162255359Y-111852915D01*
X162020408Y-111803831D01*
X162020404Y-111803831D01*
X162015457Y-111802797D01*
X161765574Y-111791450D01*
X161760554Y-111792031D01*
X161760550Y-111792031D01*
X161522122Y-111819618D01*
X161517092Y-111820200D01*
X161512221Y-111821578D01*
X161512218Y-111821579D01*
X161450174Y-111839136D01*
X161276402Y-111888309D01*
X161049698Y-111994023D01*
X161045518Y-111996864D01*
X161045514Y-111996866D01*
X160852353Y-112128137D01*
X160842811Y-112134622D01*
X160839134Y-112138099D01*
X160839128Y-112138104D01*
X160721850Y-112249010D01*
X160661066Y-112306491D01*
X160509136Y-112505206D01*
X160506746Y-112509664D01*
X160506745Y-112509665D01*
X160393511Y-112720846D01*
X160390932Y-112725656D01*
X160309495Y-112962168D01*
X160308634Y-112967151D01*
X160308633Y-112967156D01*
X160267779Y-113203672D01*
X160266918Y-113208658D01*
X160266865Y-113213717D01*
X160266183Y-113278826D01*
X160264299Y-113458785D01*
X114520425Y-113458785D01*
X114502352Y-113406885D01*
X114502350Y-113406882D01*
X114500033Y-113400227D01*
X114429422Y-113287224D01*
X114408133Y-113253155D01*
X114404400Y-113247181D01*
X114395653Y-113238372D01*
X114282198Y-113124123D01*
X114277236Y-113119126D01*
X114256090Y-113105706D01*
X114218588Y-113081907D01*
X114124861Y-113022426D01*
X113997183Y-112976962D01*
X113939719Y-112935268D01*
X113913919Y-112869125D01*
X113927974Y-112799534D01*
X113950355Y-112769168D01*
X115191118Y-111528405D01*
X115253430Y-111494379D01*
X115280213Y-111491500D01*
X121839786Y-111491500D01*
X121907907Y-111511502D01*
X121928881Y-111528404D01*
X122267725Y-111867247D01*
X122280788Y-111883423D01*
X122283343Y-111886231D01*
X122288989Y-111894975D01*
X122297164Y-111901420D01*
X122297166Y-111901422D01*
X122313700Y-111914456D01*
X122318662Y-111918866D01*
X122318698Y-111918824D01*
X122322655Y-111922177D01*
X122326336Y-111925858D01*
X122330568Y-111928882D01*
X122343454Y-111938091D01*
X122348200Y-111941654D01*
X122388658Y-111973549D01*
X122397339Y-111976597D01*
X122404819Y-111981943D01*
X122414800Y-111984928D01*
X122414802Y-111984929D01*
X122454142Y-111996694D01*
X122459790Y-111998529D01*
X122500923Y-112012974D01*
X122500926Y-112012975D01*
X122508405Y-112015601D01*
X122517123Y-112016356D01*
X122519832Y-112016356D01*
X122519897Y-112016359D01*
X122526415Y-112018308D01*
X122573626Y-112016453D01*
X122578572Y-112016356D01*
X124328281Y-112016356D01*
X124396402Y-112036358D01*
X124420131Y-112056103D01*
X124441379Y-112078729D01*
X124459619Y-112098153D01*
X124599199Y-112186733D01*
X124606738Y-112189183D01*
X124606741Y-112189184D01*
X124748884Y-112235369D01*
X124748886Y-112235369D01*
X124756422Y-112237818D01*
X124764331Y-112238316D01*
X124764333Y-112238316D01*
X124836651Y-112242866D01*
X124921410Y-112248199D01*
X124929194Y-112246714D01*
X124929196Y-112246714D01*
X125076013Y-112218707D01*
X125076014Y-112218707D01*
X125083797Y-112217222D01*
X125233378Y-112146834D01*
X125239483Y-112141784D01*
X125239487Y-112141781D01*
X125354647Y-112046512D01*
X125360755Y-112041459D01*
X125403452Y-111982692D01*
X125453265Y-111914130D01*
X125453266Y-111914128D01*
X125457924Y-111907717D01*
X125465609Y-111888309D01*
X125515864Y-111761379D01*
X125515864Y-111761377D01*
X125518781Y-111754011D01*
X125524038Y-111712402D01*
X125538506Y-111597868D01*
X125539500Y-111590000D01*
X125533179Y-111539966D01*
X125544486Y-111469879D01*
X125591892Y-111417028D01*
X125666098Y-111398427D01*
X125730676Y-111402490D01*
X125821410Y-111408199D01*
X125829194Y-111406714D01*
X125829196Y-111406714D01*
X125976013Y-111378707D01*
X125976014Y-111378707D01*
X125983797Y-111377222D01*
X126133378Y-111306834D01*
X126139483Y-111301784D01*
X126139487Y-111301781D01*
X126254647Y-111206512D01*
X126260755Y-111201459D01*
X126305790Y-111139473D01*
X126353265Y-111074130D01*
X126353266Y-111074128D01*
X126357924Y-111067717D01*
X126376623Y-111020491D01*
X126415864Y-110921379D01*
X126415864Y-110921377D01*
X126418781Y-110914011D01*
X126423483Y-110876795D01*
X126438506Y-110757868D01*
X126439500Y-110750000D01*
X126429840Y-110673532D01*
X126419775Y-110593854D01*
X126419774Y-110593851D01*
X126418781Y-110585989D01*
X126411197Y-110566834D01*
X126360842Y-110439652D01*
X126360841Y-110439650D01*
X126357924Y-110432283D01*
X126332758Y-110397644D01*
X126265415Y-110304955D01*
X126260755Y-110298541D01*
X126197366Y-110246101D01*
X126139487Y-110198219D01*
X126139483Y-110198216D01*
X126133378Y-110193166D01*
X125983797Y-110122778D01*
X125976014Y-110121293D01*
X125976013Y-110121293D01*
X125829196Y-110093286D01*
X125829194Y-110093286D01*
X125821410Y-110091801D01*
X125738916Y-110096991D01*
X125664333Y-110101684D01*
X125664331Y-110101684D01*
X125656422Y-110102182D01*
X125648886Y-110104631D01*
X125648884Y-110104631D01*
X125506741Y-110150816D01*
X125506738Y-110150817D01*
X125499199Y-110153267D01*
X125441029Y-110190183D01*
X125439803Y-110190961D01*
X125371570Y-110210574D01*
X125303564Y-110190183D01*
X125283194Y-110173671D01*
X124397130Y-109287607D01*
X124384068Y-109271434D01*
X124381515Y-109268629D01*
X124375867Y-109259881D01*
X124367692Y-109253436D01*
X124367690Y-109253434D01*
X124351161Y-109240404D01*
X124346195Y-109235991D01*
X124346160Y-109236032D01*
X124342197Y-109232674D01*
X124338520Y-109228997D01*
X124321370Y-109216742D01*
X124316647Y-109213196D01*
X124316025Y-109212705D01*
X124300357Y-109200353D01*
X124284375Y-109187753D01*
X124284373Y-109187752D01*
X124276198Y-109181307D01*
X124267520Y-109178260D01*
X124260037Y-109172912D01*
X124250059Y-109169928D01*
X124250055Y-109169926D01*
X124210694Y-109158155D01*
X124205046Y-109156320D01*
X124163933Y-109141882D01*
X124163930Y-109141881D01*
X124156451Y-109139255D01*
X124147733Y-109138500D01*
X124144992Y-109138500D01*
X124144968Y-109138499D01*
X124138441Y-109136547D01*
X124091206Y-109138403D01*
X124086259Y-109138500D01*
X112162850Y-109138500D01*
X112142160Y-109136298D01*
X112138384Y-109136120D01*
X112128207Y-109133929D01*
X112097731Y-109137536D01*
X112096962Y-109137627D01*
X112090335Y-109138018D01*
X112090339Y-109138072D01*
X112085160Y-109138500D01*
X112079960Y-109138500D01*
X112074834Y-109139353D01*
X112074825Y-109139354D01*
X112059205Y-109141954D01*
X112053329Y-109142791D01*
X112012510Y-109147622D01*
X112012509Y-109147622D01*
X112002170Y-109148846D01*
X111993877Y-109152828D01*
X111984806Y-109154338D01*
X111975641Y-109159283D01*
X111975636Y-109159285D01*
X111939484Y-109178792D01*
X111934191Y-109181489D01*
X111894905Y-109200353D01*
X111894901Y-109200355D01*
X111887761Y-109203784D01*
X111881062Y-109209415D01*
X111879124Y-109211353D01*
X111879105Y-109211371D01*
X111873111Y-109214605D01*
X111866043Y-109222251D01*
X111866042Y-109222252D01*
X111841020Y-109249321D01*
X111837590Y-109252887D01*
X111773394Y-109317083D01*
X111711082Y-109351109D01*
X111676387Y-109353739D01*
X111669199Y-109353287D01*
X111661410Y-109351801D01*
X111590058Y-109356290D01*
X111504333Y-109361684D01*
X111504331Y-109361684D01*
X111496422Y-109362182D01*
X111488886Y-109364631D01*
X111488884Y-109364631D01*
X111346741Y-109410816D01*
X111346738Y-109410817D01*
X111339199Y-109413267D01*
X111199619Y-109501847D01*
X111086453Y-109622356D01*
X111006812Y-109767222D01*
X110965700Y-109927343D01*
X104444000Y-109927343D01*
X104444000Y-88735207D01*
X112710603Y-88735207D01*
X112727906Y-88941260D01*
X112784902Y-89140028D01*
X112787720Y-89145510D01*
X112787721Y-89145514D01*
X112876599Y-89318452D01*
X112876602Y-89318456D01*
X112879420Y-89323940D01*
X113007859Y-89485991D01*
X113165329Y-89620008D01*
X113345830Y-89720886D01*
X113542488Y-89784784D01*
X113747812Y-89809268D01*
X113753947Y-89808796D01*
X113753949Y-89808796D01*
X113947838Y-89793877D01*
X113947842Y-89793876D01*
X113953980Y-89793404D01*
X114153141Y-89737797D01*
X114337708Y-89644565D01*
X114500652Y-89517260D01*
X114635765Y-89360730D01*
X114693677Y-89258785D01*
X160264299Y-89258785D01*
X160265056Y-89263789D01*
X160265056Y-89263792D01*
X160279717Y-89360730D01*
X160301704Y-89506113D01*
X160303253Y-89510937D01*
X160303254Y-89510942D01*
X160306501Y-89521054D01*
X160378170Y-89744279D01*
X160380468Y-89748789D01*
X160380470Y-89748794D01*
X160441721Y-89869004D01*
X160491732Y-89967156D01*
X160639466Y-90169009D01*
X160817573Y-90344646D01*
X160821698Y-90347578D01*
X160821701Y-90347580D01*
X160904709Y-90406571D01*
X161021469Y-90489548D01*
X161245910Y-90599986D01*
X161250749Y-90601465D01*
X161250753Y-90601467D01*
X161480272Y-90671638D01*
X161480274Y-90671638D01*
X161485120Y-90673120D01*
X161490141Y-90673808D01*
X161490142Y-90673808D01*
X161727923Y-90706380D01*
X161732946Y-90707068D01*
X161805588Y-90705293D01*
X161977951Y-90701081D01*
X161977955Y-90701081D01*
X161983012Y-90700957D01*
X162228884Y-90654943D01*
X162464236Y-90570211D01*
X162683014Y-90448941D01*
X162686992Y-90445811D01*
X162686996Y-90445808D01*
X162875613Y-90297381D01*
X162875614Y-90297380D01*
X162879589Y-90294252D01*
X163048903Y-90110124D01*
X163186600Y-89901295D01*
X163228171Y-89808796D01*
X163287065Y-89677753D01*
X163287067Y-89677747D01*
X163289139Y-89673137D01*
X163290447Y-89668256D01*
X163290449Y-89668250D01*
X163352572Y-89436402D01*
X163352572Y-89436401D01*
X163353880Y-89431520D01*
X163379158Y-89182660D01*
X163379500Y-89150000D01*
X163366203Y-88984731D01*
X163359845Y-88905706D01*
X163359844Y-88905701D01*
X163359439Y-88900665D01*
X163299772Y-88657745D01*
X163249074Y-88538307D01*
X163204011Y-88432147D01*
X163204010Y-88432145D01*
X163202034Y-88427490D01*
X163068741Y-88215823D01*
X163022773Y-88163682D01*
X162906664Y-88031983D01*
X162903320Y-88028190D01*
X162710028Y-87869418D01*
X162576817Y-87791887D01*
X162498206Y-87746134D01*
X162498204Y-87746133D01*
X162493838Y-87743592D01*
X162410225Y-87711496D01*
X162265036Y-87655763D01*
X162265032Y-87655762D01*
X162260312Y-87653950D01*
X162255362Y-87652916D01*
X162255359Y-87652915D01*
X162020408Y-87603831D01*
X162020404Y-87603831D01*
X162015457Y-87602797D01*
X161765574Y-87591450D01*
X161760554Y-87592031D01*
X161760550Y-87592031D01*
X161522122Y-87619618D01*
X161517092Y-87620200D01*
X161512221Y-87621578D01*
X161512218Y-87621579D01*
X161401674Y-87652860D01*
X161276402Y-87688309D01*
X161049698Y-87794023D01*
X161045518Y-87796864D01*
X161045514Y-87796866D01*
X160935494Y-87871635D01*
X160842811Y-87934622D01*
X160839134Y-87938099D01*
X160839128Y-87938104D01*
X160743866Y-88028190D01*
X160661066Y-88106491D01*
X160509136Y-88305206D01*
X160390932Y-88525656D01*
X160309495Y-88762168D01*
X160308634Y-88767151D01*
X160308633Y-88767156D01*
X160286420Y-88895754D01*
X160266918Y-89008658D01*
X160264299Y-89258785D01*
X114693677Y-89258785D01*
X114737901Y-89180937D01*
X114747243Y-89152856D01*
X114770421Y-89083181D01*
X114803171Y-88984731D01*
X114829087Y-88779583D01*
X114829500Y-88750000D01*
X114809322Y-88544209D01*
X114749557Y-88346256D01*
X114652480Y-88163682D01*
X114602999Y-88103012D01*
X114525685Y-88008215D01*
X114525682Y-88008212D01*
X114521790Y-88003440D01*
X114504525Y-87989157D01*
X114367215Y-87875564D01*
X114367211Y-87875562D01*
X114362465Y-87871635D01*
X114180573Y-87773286D01*
X113983042Y-87712140D01*
X113976917Y-87711496D01*
X113976916Y-87711496D01*
X113783525Y-87691170D01*
X113783524Y-87691170D01*
X113777397Y-87690526D01*
X113691429Y-87698350D01*
X113577608Y-87708708D01*
X113577605Y-87708709D01*
X113571469Y-87709267D01*
X113565563Y-87711005D01*
X113565559Y-87711006D01*
X113419616Y-87753960D01*
X113373104Y-87767649D01*
X113189857Y-87863448D01*
X113028707Y-87993016D01*
X113024748Y-87997734D01*
X113024747Y-87997735D01*
X112930116Y-88110511D01*
X112895792Y-88151417D01*
X112892829Y-88156806D01*
X112892826Y-88156811D01*
X112813454Y-88301190D01*
X112796176Y-88332619D01*
X112733653Y-88529718D01*
X112732967Y-88535837D01*
X112732966Y-88535840D01*
X112719814Y-88653089D01*
X112710603Y-88735207D01*
X104444000Y-88735207D01*
X104444000Y-73586400D01*
X105326900Y-73586400D01*
X105326900Y-75313600D01*
X105346653Y-75412906D01*
X105402906Y-75497094D01*
X105487094Y-75553347D01*
X105586400Y-75573100D01*
X107313600Y-75573100D01*
X107412906Y-75553347D01*
X107497094Y-75497094D01*
X107553347Y-75412906D01*
X107573100Y-75313600D01*
X107573100Y-74553741D01*
X107871702Y-74553741D01*
X107911494Y-74763335D01*
X107990202Y-74961622D01*
X108104985Y-75141449D01*
X108251702Y-75296327D01*
X108256567Y-75299817D01*
X108256570Y-75299819D01*
X108420188Y-75417174D01*
X108425058Y-75420667D01*
X108430503Y-75423177D01*
X108605793Y-75503987D01*
X108618799Y-75509983D01*
X108624615Y-75511417D01*
X108624618Y-75511418D01*
X108742920Y-75540585D01*
X108825934Y-75561052D01*
X108831924Y-75561361D01*
X108831926Y-75561361D01*
X108906712Y-75565215D01*
X109038989Y-75572031D01*
X109044924Y-75571202D01*
X109044928Y-75571202D01*
X109222155Y-75546452D01*
X109250276Y-75542525D01*
X109452172Y-75473597D01*
X109544780Y-75420667D01*
X109632187Y-75370710D01*
X109632192Y-75370707D01*
X109637391Y-75367735D01*
X109799251Y-75228760D01*
X109931911Y-75061684D01*
X110030584Y-74872537D01*
X110091711Y-74668145D01*
X110102639Y-74559628D01*
X110103232Y-74553741D01*
X110411702Y-74553741D01*
X110451494Y-74763335D01*
X110530202Y-74961622D01*
X110644985Y-75141449D01*
X110791702Y-75296327D01*
X110796567Y-75299817D01*
X110796570Y-75299819D01*
X110960188Y-75417174D01*
X110965058Y-75420667D01*
X110970503Y-75423177D01*
X111145793Y-75503987D01*
X111158799Y-75509983D01*
X111164615Y-75511417D01*
X111164618Y-75511418D01*
X111282920Y-75540585D01*
X111365934Y-75561052D01*
X111371924Y-75561361D01*
X111371926Y-75561361D01*
X111446712Y-75565215D01*
X111578989Y-75572031D01*
X111584924Y-75571202D01*
X111584928Y-75571202D01*
X111762155Y-75546452D01*
X111790276Y-75542525D01*
X111992172Y-75473597D01*
X112084780Y-75420667D01*
X112172187Y-75370710D01*
X112172192Y-75370707D01*
X112177391Y-75367735D01*
X112339251Y-75228760D01*
X112471911Y-75061684D01*
X112570584Y-74872537D01*
X112631711Y-74668145D01*
X112642639Y-74559628D01*
X112643232Y-74553741D01*
X112951702Y-74553741D01*
X112991494Y-74763335D01*
X113070202Y-74961622D01*
X113184985Y-75141449D01*
X113331702Y-75296327D01*
X113336567Y-75299817D01*
X113336570Y-75299819D01*
X113500188Y-75417174D01*
X113505058Y-75420667D01*
X113510503Y-75423177D01*
X113685793Y-75503987D01*
X113698799Y-75509983D01*
X113704615Y-75511417D01*
X113704618Y-75511418D01*
X113822920Y-75540585D01*
X113905934Y-75561052D01*
X113911924Y-75561361D01*
X113911926Y-75561361D01*
X113986712Y-75565215D01*
X114118989Y-75572031D01*
X114124924Y-75571202D01*
X114124928Y-75571202D01*
X114302155Y-75546452D01*
X114330276Y-75542525D01*
X114532172Y-75473597D01*
X114624780Y-75420667D01*
X114712187Y-75370710D01*
X114712192Y-75370707D01*
X114717391Y-75367735D01*
X114879251Y-75228760D01*
X115011911Y-75061684D01*
X115110584Y-74872537D01*
X115171711Y-74668145D01*
X115182639Y-74559628D01*
X115183232Y-74553741D01*
X118031702Y-74553741D01*
X118071494Y-74763335D01*
X118150202Y-74961622D01*
X118264985Y-75141449D01*
X118411702Y-75296327D01*
X118416567Y-75299817D01*
X118416570Y-75299819D01*
X118580188Y-75417174D01*
X118585058Y-75420667D01*
X118590503Y-75423177D01*
X118765793Y-75503987D01*
X118778799Y-75509983D01*
X118784615Y-75511417D01*
X118784618Y-75511418D01*
X118902920Y-75540585D01*
X118985934Y-75561052D01*
X118991924Y-75561361D01*
X118991926Y-75561361D01*
X119066712Y-75565215D01*
X119198989Y-75572031D01*
X119204924Y-75571202D01*
X119204928Y-75571202D01*
X119382155Y-75546452D01*
X119410276Y-75542525D01*
X119612172Y-75473597D01*
X119704780Y-75420667D01*
X119792187Y-75370710D01*
X119792192Y-75370707D01*
X119797391Y-75367735D01*
X119959251Y-75228760D01*
X120091911Y-75061684D01*
X120190584Y-74872537D01*
X120251711Y-74668145D01*
X120262639Y-74559628D01*
X120263232Y-74553741D01*
X120571702Y-74553741D01*
X120611494Y-74763335D01*
X120690202Y-74961622D01*
X120804985Y-75141449D01*
X120951702Y-75296327D01*
X120956567Y-75299817D01*
X120956570Y-75299819D01*
X121120188Y-75417174D01*
X121125058Y-75420667D01*
X121130503Y-75423177D01*
X121305793Y-75503987D01*
X121318799Y-75509983D01*
X121324615Y-75511417D01*
X121324618Y-75511418D01*
X121442920Y-75540585D01*
X121525934Y-75561052D01*
X121531924Y-75561361D01*
X121531926Y-75561361D01*
X121606712Y-75565215D01*
X121738989Y-75572031D01*
X121744924Y-75571202D01*
X121744928Y-75571202D01*
X121922155Y-75546452D01*
X121950276Y-75542525D01*
X122152172Y-75473597D01*
X122244780Y-75420667D01*
X122332187Y-75370710D01*
X122332192Y-75370707D01*
X122337391Y-75367735D01*
X122499251Y-75228760D01*
X122631911Y-75061684D01*
X122730584Y-74872537D01*
X122791711Y-74668145D01*
X122802639Y-74559628D01*
X122803232Y-74553741D01*
X123111702Y-74553741D01*
X123151494Y-74763335D01*
X123230202Y-74961622D01*
X123344985Y-75141449D01*
X123491702Y-75296327D01*
X123496567Y-75299817D01*
X123496570Y-75299819D01*
X123660188Y-75417174D01*
X123665058Y-75420667D01*
X123670503Y-75423177D01*
X123845793Y-75503987D01*
X123858799Y-75509983D01*
X123864615Y-75511417D01*
X123864618Y-75511418D01*
X123982920Y-75540585D01*
X124065934Y-75561052D01*
X124071924Y-75561361D01*
X124071926Y-75561361D01*
X124146712Y-75565215D01*
X124278989Y-75572031D01*
X124284924Y-75571202D01*
X124284928Y-75571202D01*
X124462155Y-75546452D01*
X124490276Y-75542525D01*
X124692172Y-75473597D01*
X124784780Y-75420667D01*
X124872187Y-75370710D01*
X124872192Y-75370707D01*
X124877391Y-75367735D01*
X125039251Y-75228760D01*
X125171911Y-75061684D01*
X125270584Y-74872537D01*
X125331711Y-74668145D01*
X125342639Y-74559628D01*
X125343232Y-74553741D01*
X125651702Y-74553741D01*
X125691494Y-74763335D01*
X125770202Y-74961622D01*
X125884985Y-75141449D01*
X126031702Y-75296327D01*
X126036567Y-75299817D01*
X126036570Y-75299819D01*
X126200188Y-75417174D01*
X126205058Y-75420667D01*
X126210503Y-75423177D01*
X126385793Y-75503987D01*
X126398799Y-75509983D01*
X126404615Y-75511417D01*
X126404618Y-75511418D01*
X126522920Y-75540585D01*
X126605934Y-75561052D01*
X126611924Y-75561361D01*
X126611926Y-75561361D01*
X126686712Y-75565215D01*
X126818989Y-75572031D01*
X126824924Y-75571202D01*
X126824928Y-75571202D01*
X127002155Y-75546452D01*
X127030276Y-75542525D01*
X127232172Y-75473597D01*
X127324780Y-75420667D01*
X127412187Y-75370710D01*
X127412192Y-75370707D01*
X127417391Y-75367735D01*
X127579251Y-75228760D01*
X127711911Y-75061684D01*
X127810584Y-74872537D01*
X127871711Y-74668145D01*
X127882639Y-74559628D01*
X127883232Y-74553741D01*
X128191702Y-74553741D01*
X128231494Y-74763335D01*
X128310202Y-74961622D01*
X128424985Y-75141449D01*
X128571702Y-75296327D01*
X128576567Y-75299817D01*
X128576570Y-75299819D01*
X128740188Y-75417174D01*
X128745058Y-75420667D01*
X128750503Y-75423177D01*
X128925793Y-75503987D01*
X128938799Y-75509983D01*
X128944615Y-75511417D01*
X128944618Y-75511418D01*
X129062920Y-75540585D01*
X129145934Y-75561052D01*
X129151924Y-75561361D01*
X129151926Y-75561361D01*
X129226712Y-75565215D01*
X129358989Y-75572031D01*
X129364924Y-75571202D01*
X129364928Y-75571202D01*
X129542155Y-75546452D01*
X129570276Y-75542525D01*
X129772172Y-75473597D01*
X129864780Y-75420667D01*
X129952187Y-75370710D01*
X129952192Y-75370707D01*
X129957391Y-75367735D01*
X130119251Y-75228760D01*
X130251911Y-75061684D01*
X130350584Y-74872537D01*
X130411711Y-74668145D01*
X130422639Y-74559628D01*
X130423232Y-74553741D01*
X130731702Y-74553741D01*
X130771494Y-74763335D01*
X130850202Y-74961622D01*
X130964985Y-75141449D01*
X131111702Y-75296327D01*
X131116567Y-75299817D01*
X131116570Y-75299819D01*
X131280188Y-75417174D01*
X131285058Y-75420667D01*
X131290503Y-75423177D01*
X131465793Y-75503987D01*
X131478799Y-75509983D01*
X131484615Y-75511417D01*
X131484618Y-75511418D01*
X131602920Y-75540585D01*
X131685934Y-75561052D01*
X131691924Y-75561361D01*
X131691926Y-75561361D01*
X131766712Y-75565215D01*
X131898989Y-75572031D01*
X131904924Y-75571202D01*
X131904928Y-75571202D01*
X132082155Y-75546452D01*
X132110276Y-75542525D01*
X132312172Y-75473597D01*
X132404780Y-75420667D01*
X132492187Y-75370710D01*
X132492192Y-75370707D01*
X132497391Y-75367735D01*
X132659251Y-75228760D01*
X132791911Y-75061684D01*
X132890584Y-74872537D01*
X132951711Y-74668145D01*
X132962639Y-74559628D01*
X132963232Y-74553741D01*
X133271702Y-74553741D01*
X133311494Y-74763335D01*
X133390202Y-74961622D01*
X133504985Y-75141449D01*
X133651702Y-75296327D01*
X133656567Y-75299817D01*
X133656570Y-75299819D01*
X133820188Y-75417174D01*
X133825058Y-75420667D01*
X133830503Y-75423177D01*
X134005793Y-75503987D01*
X134018799Y-75509983D01*
X134024615Y-75511417D01*
X134024618Y-75511418D01*
X134142920Y-75540585D01*
X134225934Y-75561052D01*
X134231924Y-75561361D01*
X134231926Y-75561361D01*
X134306712Y-75565215D01*
X134438989Y-75572031D01*
X134444924Y-75571202D01*
X134444928Y-75571202D01*
X134622155Y-75546452D01*
X134650276Y-75542525D01*
X134852172Y-75473597D01*
X134944780Y-75420667D01*
X135032187Y-75370710D01*
X135032192Y-75370707D01*
X135037391Y-75367735D01*
X135199251Y-75228760D01*
X135331911Y-75061684D01*
X135430584Y-74872537D01*
X135491711Y-74668145D01*
X135502639Y-74559628D01*
X135512777Y-74458944D01*
X135512777Y-74458935D01*
X135513085Y-74455881D01*
X135513100Y-74450000D01*
X135492838Y-74237627D01*
X135432782Y-74032917D01*
X135430032Y-74027577D01*
X135337847Y-73848587D01*
X135337845Y-73848584D01*
X135335101Y-73843256D01*
X135203317Y-73675488D01*
X135042187Y-73535667D01*
X134857525Y-73428837D01*
X134782852Y-73402906D01*
X134661667Y-73360823D01*
X134661664Y-73360822D01*
X134655993Y-73358853D01*
X134512888Y-73338104D01*
X134450803Y-73329102D01*
X134450800Y-73329102D01*
X134444863Y-73328241D01*
X134231754Y-73338104D01*
X134225930Y-73339508D01*
X134225927Y-73339508D01*
X134030187Y-73386682D01*
X134030185Y-73386683D01*
X134024354Y-73388088D01*
X134018896Y-73390570D01*
X134018892Y-73390571D01*
X133939066Y-73426866D01*
X133830148Y-73476388D01*
X133741037Y-73539599D01*
X133683615Y-73580332D01*
X133656143Y-73599819D01*
X133652001Y-73604146D01*
X133512766Y-73749592D01*
X133512762Y-73749597D01*
X133508618Y-73753926D01*
X133505364Y-73758965D01*
X133505362Y-73758968D01*
X133447496Y-73848587D01*
X133392895Y-73933150D01*
X133313150Y-74131022D01*
X133312002Y-74136903D01*
X133312000Y-74136908D01*
X133293456Y-74231866D01*
X133272260Y-74340405D01*
X133271702Y-74553741D01*
X132963232Y-74553741D01*
X132972777Y-74458944D01*
X132972777Y-74458935D01*
X132973085Y-74455881D01*
X132973100Y-74450000D01*
X132952838Y-74237627D01*
X132892782Y-74032917D01*
X132890032Y-74027577D01*
X132797847Y-73848587D01*
X132797845Y-73848584D01*
X132795101Y-73843256D01*
X132663317Y-73675488D01*
X132502187Y-73535667D01*
X132317525Y-73428837D01*
X132242852Y-73402906D01*
X132121667Y-73360823D01*
X132121664Y-73360822D01*
X132115993Y-73358853D01*
X131972888Y-73338104D01*
X131910803Y-73329102D01*
X131910800Y-73329102D01*
X131904863Y-73328241D01*
X131691754Y-73338104D01*
X131685930Y-73339508D01*
X131685927Y-73339508D01*
X131490187Y-73386682D01*
X131490185Y-73386683D01*
X131484354Y-73388088D01*
X131478896Y-73390570D01*
X131478892Y-73390571D01*
X131399066Y-73426866D01*
X131290148Y-73476388D01*
X131201037Y-73539599D01*
X131143615Y-73580332D01*
X131116143Y-73599819D01*
X131112001Y-73604146D01*
X130972766Y-73749592D01*
X130972762Y-73749597D01*
X130968618Y-73753926D01*
X130965364Y-73758965D01*
X130965362Y-73758968D01*
X130907496Y-73848587D01*
X130852895Y-73933150D01*
X130773150Y-74131022D01*
X130772002Y-74136903D01*
X130772000Y-74136908D01*
X130753456Y-74231866D01*
X130732260Y-74340405D01*
X130731702Y-74553741D01*
X130423232Y-74553741D01*
X130432777Y-74458944D01*
X130432777Y-74458935D01*
X130433085Y-74455881D01*
X130433100Y-74450000D01*
X130412838Y-74237627D01*
X130352782Y-74032917D01*
X130350032Y-74027577D01*
X130257847Y-73848587D01*
X130257845Y-73848584D01*
X130255101Y-73843256D01*
X130123317Y-73675488D01*
X129962187Y-73535667D01*
X129777525Y-73428837D01*
X129702852Y-73402906D01*
X129581667Y-73360823D01*
X129581664Y-73360822D01*
X129575993Y-73358853D01*
X129432888Y-73338104D01*
X129370803Y-73329102D01*
X129370800Y-73329102D01*
X129364863Y-73328241D01*
X129151754Y-73338104D01*
X129145930Y-73339508D01*
X129145927Y-73339508D01*
X128950187Y-73386682D01*
X128950185Y-73386683D01*
X128944354Y-73388088D01*
X128938896Y-73390570D01*
X128938892Y-73390571D01*
X128859066Y-73426866D01*
X128750148Y-73476388D01*
X128661037Y-73539599D01*
X128603615Y-73580332D01*
X128576143Y-73599819D01*
X128572001Y-73604146D01*
X128432766Y-73749592D01*
X128432762Y-73749597D01*
X128428618Y-73753926D01*
X128425364Y-73758965D01*
X128425362Y-73758968D01*
X128367496Y-73848587D01*
X128312895Y-73933150D01*
X128233150Y-74131022D01*
X128232002Y-74136903D01*
X128232000Y-74136908D01*
X128213456Y-74231866D01*
X128192260Y-74340405D01*
X128191702Y-74553741D01*
X127883232Y-74553741D01*
X127892777Y-74458944D01*
X127892777Y-74458935D01*
X127893085Y-74455881D01*
X127893100Y-74450000D01*
X127872838Y-74237627D01*
X127812782Y-74032917D01*
X127810032Y-74027577D01*
X127717847Y-73848587D01*
X127717845Y-73848584D01*
X127715101Y-73843256D01*
X127583317Y-73675488D01*
X127422187Y-73535667D01*
X127237525Y-73428837D01*
X127162852Y-73402906D01*
X127041667Y-73360823D01*
X127041664Y-73360822D01*
X127035993Y-73358853D01*
X126892888Y-73338104D01*
X126830803Y-73329102D01*
X126830800Y-73329102D01*
X126824863Y-73328241D01*
X126611754Y-73338104D01*
X126605930Y-73339508D01*
X126605927Y-73339508D01*
X126410187Y-73386682D01*
X126410185Y-73386683D01*
X126404354Y-73388088D01*
X126398896Y-73390570D01*
X126398892Y-73390571D01*
X126319066Y-73426866D01*
X126210148Y-73476388D01*
X126121037Y-73539599D01*
X126063615Y-73580332D01*
X126036143Y-73599819D01*
X126032001Y-73604146D01*
X125892766Y-73749592D01*
X125892762Y-73749597D01*
X125888618Y-73753926D01*
X125885364Y-73758965D01*
X125885362Y-73758968D01*
X125827496Y-73848587D01*
X125772895Y-73933150D01*
X125693150Y-74131022D01*
X125692002Y-74136903D01*
X125692000Y-74136908D01*
X125673456Y-74231866D01*
X125652260Y-74340405D01*
X125651702Y-74553741D01*
X125343232Y-74553741D01*
X125352777Y-74458944D01*
X125352777Y-74458935D01*
X125353085Y-74455881D01*
X125353100Y-74450000D01*
X125332838Y-74237627D01*
X125272782Y-74032917D01*
X125270032Y-74027577D01*
X125177847Y-73848587D01*
X125177845Y-73848584D01*
X125175101Y-73843256D01*
X125043317Y-73675488D01*
X124882187Y-73535667D01*
X124697525Y-73428837D01*
X124622852Y-73402906D01*
X124501667Y-73360823D01*
X124501664Y-73360822D01*
X124495993Y-73358853D01*
X124352888Y-73338104D01*
X124290803Y-73329102D01*
X124290800Y-73329102D01*
X124284863Y-73328241D01*
X124071754Y-73338104D01*
X124065930Y-73339508D01*
X124065927Y-73339508D01*
X123870187Y-73386682D01*
X123870185Y-73386683D01*
X123864354Y-73388088D01*
X123858896Y-73390570D01*
X123858892Y-73390571D01*
X123779066Y-73426866D01*
X123670148Y-73476388D01*
X123581037Y-73539599D01*
X123523615Y-73580332D01*
X123496143Y-73599819D01*
X123492001Y-73604146D01*
X123352766Y-73749592D01*
X123352762Y-73749597D01*
X123348618Y-73753926D01*
X123345364Y-73758965D01*
X123345362Y-73758968D01*
X123287496Y-73848587D01*
X123232895Y-73933150D01*
X123153150Y-74131022D01*
X123152002Y-74136903D01*
X123152000Y-74136908D01*
X123133456Y-74231866D01*
X123112260Y-74340405D01*
X123111702Y-74553741D01*
X122803232Y-74553741D01*
X122812777Y-74458944D01*
X122812777Y-74458935D01*
X122813085Y-74455881D01*
X122813100Y-74450000D01*
X122792838Y-74237627D01*
X122732782Y-74032917D01*
X122730032Y-74027577D01*
X122637847Y-73848587D01*
X122637845Y-73848584D01*
X122635101Y-73843256D01*
X122503317Y-73675488D01*
X122342187Y-73535667D01*
X122157525Y-73428837D01*
X122082852Y-73402906D01*
X121961667Y-73360823D01*
X121961664Y-73360822D01*
X121955993Y-73358853D01*
X121812888Y-73338104D01*
X121750803Y-73329102D01*
X121750800Y-73329102D01*
X121744863Y-73328241D01*
X121531754Y-73338104D01*
X121525930Y-73339508D01*
X121525927Y-73339508D01*
X121330187Y-73386682D01*
X121330185Y-73386683D01*
X121324354Y-73388088D01*
X121318896Y-73390570D01*
X121318892Y-73390571D01*
X121239066Y-73426866D01*
X121130148Y-73476388D01*
X121041037Y-73539599D01*
X120983615Y-73580332D01*
X120956143Y-73599819D01*
X120952001Y-73604146D01*
X120812766Y-73749592D01*
X120812762Y-73749597D01*
X120808618Y-73753926D01*
X120805364Y-73758965D01*
X120805362Y-73758968D01*
X120747496Y-73848587D01*
X120692895Y-73933150D01*
X120613150Y-74131022D01*
X120612002Y-74136903D01*
X120612000Y-74136908D01*
X120593456Y-74231866D01*
X120572260Y-74340405D01*
X120571702Y-74553741D01*
X120263232Y-74553741D01*
X120272777Y-74458944D01*
X120272777Y-74458935D01*
X120273085Y-74455881D01*
X120273100Y-74450000D01*
X120252838Y-74237627D01*
X120192782Y-74032917D01*
X120190032Y-74027577D01*
X120097847Y-73848587D01*
X120097845Y-73848584D01*
X120095101Y-73843256D01*
X119963317Y-73675488D01*
X119802187Y-73535667D01*
X119617525Y-73428837D01*
X119542852Y-73402906D01*
X119421667Y-73360823D01*
X119421664Y-73360822D01*
X119415993Y-73358853D01*
X119272888Y-73338104D01*
X119210803Y-73329102D01*
X119210800Y-73329102D01*
X119204863Y-73328241D01*
X118991754Y-73338104D01*
X118985930Y-73339508D01*
X118985927Y-73339508D01*
X118790187Y-73386682D01*
X118790185Y-73386683D01*
X118784354Y-73388088D01*
X118778896Y-73390570D01*
X118778892Y-73390571D01*
X118699066Y-73426866D01*
X118590148Y-73476388D01*
X118501037Y-73539599D01*
X118443615Y-73580332D01*
X118416143Y-73599819D01*
X118412001Y-73604146D01*
X118272766Y-73749592D01*
X118272762Y-73749597D01*
X118268618Y-73753926D01*
X118265364Y-73758965D01*
X118265362Y-73758968D01*
X118207496Y-73848587D01*
X118152895Y-73933150D01*
X118073150Y-74131022D01*
X118072002Y-74136903D01*
X118072000Y-74136908D01*
X118053456Y-74231866D01*
X118032260Y-74340405D01*
X118031702Y-74553741D01*
X115183232Y-74553741D01*
X115192777Y-74458944D01*
X115192777Y-74458935D01*
X115193085Y-74455881D01*
X115193100Y-74450000D01*
X115172838Y-74237627D01*
X115112782Y-74032917D01*
X115110032Y-74027577D01*
X115017847Y-73848587D01*
X115017845Y-73848584D01*
X115015101Y-73843256D01*
X114883317Y-73675488D01*
X114722187Y-73535667D01*
X114537525Y-73428837D01*
X114462852Y-73402906D01*
X114341667Y-73360823D01*
X114341664Y-73360822D01*
X114335993Y-73358853D01*
X114192888Y-73338104D01*
X114130803Y-73329102D01*
X114130800Y-73329102D01*
X114124863Y-73328241D01*
X113911754Y-73338104D01*
X113905930Y-73339508D01*
X113905927Y-73339508D01*
X113710187Y-73386682D01*
X113710185Y-73386683D01*
X113704354Y-73388088D01*
X113698896Y-73390570D01*
X113698892Y-73390571D01*
X113619066Y-73426866D01*
X113510148Y-73476388D01*
X113421037Y-73539599D01*
X113363615Y-73580332D01*
X113336143Y-73599819D01*
X113332001Y-73604146D01*
X113192766Y-73749592D01*
X113192762Y-73749597D01*
X113188618Y-73753926D01*
X113185364Y-73758965D01*
X113185362Y-73758968D01*
X113127496Y-73848587D01*
X113072895Y-73933150D01*
X112993150Y-74131022D01*
X112992002Y-74136903D01*
X112992000Y-74136908D01*
X112973456Y-74231866D01*
X112952260Y-74340405D01*
X112951702Y-74553741D01*
X112643232Y-74553741D01*
X112652777Y-74458944D01*
X112652777Y-74458935D01*
X112653085Y-74455881D01*
X112653100Y-74450000D01*
X112632838Y-74237627D01*
X112572782Y-74032917D01*
X112570032Y-74027577D01*
X112477847Y-73848587D01*
X112477845Y-73848584D01*
X112475101Y-73843256D01*
X112343317Y-73675488D01*
X112182187Y-73535667D01*
X111997525Y-73428837D01*
X111922852Y-73402906D01*
X111801667Y-73360823D01*
X111801664Y-73360822D01*
X111795993Y-73358853D01*
X111652888Y-73338104D01*
X111590803Y-73329102D01*
X111590800Y-73329102D01*
X111584863Y-73328241D01*
X111371754Y-73338104D01*
X111365930Y-73339508D01*
X111365927Y-73339508D01*
X111170187Y-73386682D01*
X111170185Y-73386683D01*
X111164354Y-73388088D01*
X111158896Y-73390570D01*
X111158892Y-73390571D01*
X111079066Y-73426866D01*
X110970148Y-73476388D01*
X110881037Y-73539599D01*
X110823615Y-73580332D01*
X110796143Y-73599819D01*
X110792001Y-73604146D01*
X110652766Y-73749592D01*
X110652762Y-73749597D01*
X110648618Y-73753926D01*
X110645364Y-73758965D01*
X110645362Y-73758968D01*
X110587496Y-73848587D01*
X110532895Y-73933150D01*
X110453150Y-74131022D01*
X110452002Y-74136903D01*
X110452000Y-74136908D01*
X110433456Y-74231866D01*
X110412260Y-74340405D01*
X110411702Y-74553741D01*
X110103232Y-74553741D01*
X110112777Y-74458944D01*
X110112777Y-74458935D01*
X110113085Y-74455881D01*
X110113100Y-74450000D01*
X110092838Y-74237627D01*
X110032782Y-74032917D01*
X110030032Y-74027577D01*
X109937847Y-73848587D01*
X109937845Y-73848584D01*
X109935101Y-73843256D01*
X109803317Y-73675488D01*
X109642187Y-73535667D01*
X109457525Y-73428837D01*
X109382852Y-73402906D01*
X109261667Y-73360823D01*
X109261664Y-73360822D01*
X109255993Y-73358853D01*
X109112888Y-73338104D01*
X109050803Y-73329102D01*
X109050800Y-73329102D01*
X109044863Y-73328241D01*
X108831754Y-73338104D01*
X108825930Y-73339508D01*
X108825927Y-73339508D01*
X108630187Y-73386682D01*
X108630185Y-73386683D01*
X108624354Y-73388088D01*
X108618896Y-73390570D01*
X108618892Y-73390571D01*
X108539066Y-73426866D01*
X108430148Y-73476388D01*
X108341037Y-73539599D01*
X108283615Y-73580332D01*
X108256143Y-73599819D01*
X108252001Y-73604146D01*
X108112766Y-73749592D01*
X108112762Y-73749597D01*
X108108618Y-73753926D01*
X108105364Y-73758965D01*
X108105362Y-73758968D01*
X108047496Y-73848587D01*
X107992895Y-73933150D01*
X107913150Y-74131022D01*
X107912002Y-74136903D01*
X107912000Y-74136908D01*
X107893456Y-74231866D01*
X107872260Y-74340405D01*
X107871702Y-74553741D01*
X107573100Y-74553741D01*
X107573100Y-73586400D01*
X107553347Y-73487094D01*
X107497094Y-73402906D01*
X107478634Y-73390571D01*
X107423225Y-73353548D01*
X107412906Y-73346653D01*
X107313600Y-73326900D01*
X105586400Y-73326900D01*
X105487094Y-73346653D01*
X105476775Y-73353548D01*
X105421367Y-73390571D01*
X105402906Y-73402906D01*
X105346653Y-73487094D01*
X105326900Y-73586400D01*
X104444000Y-73586400D01*
X104444000Y-72013741D01*
X105331702Y-72013741D01*
X105371494Y-72223335D01*
X105450202Y-72421622D01*
X105564985Y-72601449D01*
X105711702Y-72756327D01*
X105716567Y-72759817D01*
X105716570Y-72759819D01*
X105815407Y-72830710D01*
X105885058Y-72880667D01*
X106078799Y-72969983D01*
X106084615Y-72971417D01*
X106084618Y-72971418D01*
X106202920Y-73000585D01*
X106285934Y-73021052D01*
X106291924Y-73021361D01*
X106291926Y-73021361D01*
X106366712Y-73025215D01*
X106498989Y-73032031D01*
X106504924Y-73031202D01*
X106504928Y-73031202D01*
X106671779Y-73007901D01*
X106710276Y-73002525D01*
X106912172Y-72933597D01*
X107004780Y-72880667D01*
X107092187Y-72830710D01*
X107092192Y-72830707D01*
X107097391Y-72827735D01*
X107259251Y-72688760D01*
X107391911Y-72521684D01*
X107490584Y-72332537D01*
X107551711Y-72128145D01*
X107562639Y-72019628D01*
X107563232Y-72013741D01*
X107871702Y-72013741D01*
X107911494Y-72223335D01*
X107990202Y-72421622D01*
X108104985Y-72601449D01*
X108251702Y-72756327D01*
X108256567Y-72759817D01*
X108256570Y-72759819D01*
X108355407Y-72830710D01*
X108425058Y-72880667D01*
X108618799Y-72969983D01*
X108624615Y-72971417D01*
X108624618Y-72971418D01*
X108742920Y-73000585D01*
X108825934Y-73021052D01*
X108831924Y-73021361D01*
X108831926Y-73021361D01*
X108906712Y-73025215D01*
X109038989Y-73032031D01*
X109044924Y-73031202D01*
X109044928Y-73031202D01*
X109211779Y-73007901D01*
X109250276Y-73002525D01*
X109452172Y-72933597D01*
X109544780Y-72880667D01*
X109632187Y-72830710D01*
X109632192Y-72830707D01*
X109637391Y-72827735D01*
X109799251Y-72688760D01*
X109931911Y-72521684D01*
X110030584Y-72332537D01*
X110091711Y-72128145D01*
X110102639Y-72019628D01*
X110103232Y-72013741D01*
X112951702Y-72013741D01*
X112991494Y-72223335D01*
X113070202Y-72421622D01*
X113184985Y-72601449D01*
X113331702Y-72756327D01*
X113336567Y-72759817D01*
X113336570Y-72759819D01*
X113435407Y-72830710D01*
X113505058Y-72880667D01*
X113698799Y-72969983D01*
X113704615Y-72971417D01*
X113704618Y-72971418D01*
X113822920Y-73000585D01*
X113905934Y-73021052D01*
X113911924Y-73021361D01*
X113911926Y-73021361D01*
X113986712Y-73025215D01*
X114118989Y-73032031D01*
X114124924Y-73031202D01*
X114124928Y-73031202D01*
X114291779Y-73007901D01*
X114330276Y-73002525D01*
X114532172Y-72933597D01*
X114624780Y-72880667D01*
X114712187Y-72830710D01*
X114712192Y-72830707D01*
X114717391Y-72827735D01*
X114879251Y-72688760D01*
X115011911Y-72521684D01*
X115110584Y-72332537D01*
X115171711Y-72128145D01*
X115182639Y-72019628D01*
X115183232Y-72013741D01*
X115491702Y-72013741D01*
X115531494Y-72223335D01*
X115610202Y-72421622D01*
X115724985Y-72601449D01*
X115871702Y-72756327D01*
X115876567Y-72759817D01*
X115876570Y-72759819D01*
X115975407Y-72830710D01*
X116045058Y-72880667D01*
X116238799Y-72969983D01*
X116244615Y-72971417D01*
X116244618Y-72971418D01*
X116362920Y-73000585D01*
X116445934Y-73021052D01*
X116451924Y-73021361D01*
X116451926Y-73021361D01*
X116526712Y-73025215D01*
X116658989Y-73032031D01*
X116664924Y-73031202D01*
X116664928Y-73031202D01*
X116831779Y-73007901D01*
X116870276Y-73002525D01*
X117072172Y-72933597D01*
X117164780Y-72880667D01*
X117252187Y-72830710D01*
X117252192Y-72830707D01*
X117257391Y-72827735D01*
X117419251Y-72688760D01*
X117551911Y-72521684D01*
X117650584Y-72332537D01*
X117711711Y-72128145D01*
X117722639Y-72019628D01*
X117723232Y-72013741D01*
X118031702Y-72013741D01*
X118071494Y-72223335D01*
X118150202Y-72421622D01*
X118264985Y-72601449D01*
X118411702Y-72756327D01*
X118416567Y-72759817D01*
X118416570Y-72759819D01*
X118515407Y-72830710D01*
X118585058Y-72880667D01*
X118778799Y-72969983D01*
X118784615Y-72971417D01*
X118784618Y-72971418D01*
X118902920Y-73000585D01*
X118985934Y-73021052D01*
X118991924Y-73021361D01*
X118991926Y-73021361D01*
X119066712Y-73025215D01*
X119198989Y-73032031D01*
X119204924Y-73031202D01*
X119204928Y-73031202D01*
X119371779Y-73007901D01*
X119410276Y-73002525D01*
X119612172Y-72933597D01*
X119704780Y-72880667D01*
X119792187Y-72830710D01*
X119792192Y-72830707D01*
X119797391Y-72827735D01*
X119959251Y-72688760D01*
X120091911Y-72521684D01*
X120190584Y-72332537D01*
X120251711Y-72128145D01*
X120262639Y-72019628D01*
X120263232Y-72013741D01*
X123111702Y-72013741D01*
X123151494Y-72223335D01*
X123230202Y-72421622D01*
X123344985Y-72601449D01*
X123491702Y-72756327D01*
X123496567Y-72759817D01*
X123496570Y-72759819D01*
X123595407Y-72830710D01*
X123665058Y-72880667D01*
X123858799Y-72969983D01*
X123864615Y-72971417D01*
X123864618Y-72971418D01*
X123982920Y-73000585D01*
X124065934Y-73021052D01*
X124071924Y-73021361D01*
X124071926Y-73021361D01*
X124146712Y-73025215D01*
X124278989Y-73032031D01*
X124284924Y-73031202D01*
X124284928Y-73031202D01*
X124451779Y-73007901D01*
X124490276Y-73002525D01*
X124692172Y-72933597D01*
X124784780Y-72880667D01*
X124872187Y-72830710D01*
X124872192Y-72830707D01*
X124877391Y-72827735D01*
X125039251Y-72688760D01*
X125171911Y-72521684D01*
X125270584Y-72332537D01*
X125331711Y-72128145D01*
X125342639Y-72019628D01*
X125343232Y-72013741D01*
X125651702Y-72013741D01*
X125691494Y-72223335D01*
X125770202Y-72421622D01*
X125884985Y-72601449D01*
X126031702Y-72756327D01*
X126036567Y-72759817D01*
X126036570Y-72759819D01*
X126135407Y-72830710D01*
X126205058Y-72880667D01*
X126398799Y-72969983D01*
X126404615Y-72971417D01*
X126404618Y-72971418D01*
X126522920Y-73000585D01*
X126605934Y-73021052D01*
X126611924Y-73021361D01*
X126611926Y-73021361D01*
X126686712Y-73025215D01*
X126818989Y-73032031D01*
X126824924Y-73031202D01*
X126824928Y-73031202D01*
X126991779Y-73007901D01*
X127030276Y-73002525D01*
X127232172Y-72933597D01*
X127324780Y-72880667D01*
X127412187Y-72830710D01*
X127412192Y-72830707D01*
X127417391Y-72827735D01*
X127579251Y-72688760D01*
X127711911Y-72521684D01*
X127810584Y-72332537D01*
X127871711Y-72128145D01*
X127882639Y-72019628D01*
X127883232Y-72013741D01*
X130731702Y-72013741D01*
X130771494Y-72223335D01*
X130850202Y-72421622D01*
X130964985Y-72601449D01*
X131111702Y-72756327D01*
X131116567Y-72759817D01*
X131116570Y-72759819D01*
X131215407Y-72830710D01*
X131285058Y-72880667D01*
X131478799Y-72969983D01*
X131484615Y-72971417D01*
X131484618Y-72971418D01*
X131602920Y-73000585D01*
X131685934Y-73021052D01*
X131691924Y-73021361D01*
X131691926Y-73021361D01*
X131766712Y-73025215D01*
X131898989Y-73032031D01*
X131904924Y-73031202D01*
X131904928Y-73031202D01*
X132071779Y-73007901D01*
X132110276Y-73002525D01*
X132312172Y-72933597D01*
X132404780Y-72880667D01*
X132492187Y-72830710D01*
X132492192Y-72830707D01*
X132497391Y-72827735D01*
X132659251Y-72688760D01*
X132791911Y-72521684D01*
X132890584Y-72332537D01*
X132951711Y-72128145D01*
X132962639Y-72019628D01*
X132963232Y-72013741D01*
X133271702Y-72013741D01*
X133311494Y-72223335D01*
X133390202Y-72421622D01*
X133504985Y-72601449D01*
X133651702Y-72756327D01*
X133656567Y-72759817D01*
X133656570Y-72759819D01*
X133755407Y-72830710D01*
X133825058Y-72880667D01*
X134018799Y-72969983D01*
X134024615Y-72971417D01*
X134024618Y-72971418D01*
X134142920Y-73000585D01*
X134225934Y-73021052D01*
X134231924Y-73021361D01*
X134231926Y-73021361D01*
X134306712Y-73025215D01*
X134438989Y-73032031D01*
X134444924Y-73031202D01*
X134444928Y-73031202D01*
X134611779Y-73007901D01*
X134650276Y-73002525D01*
X134852172Y-72933597D01*
X134944780Y-72880667D01*
X135032187Y-72830710D01*
X135032192Y-72830707D01*
X135037391Y-72827735D01*
X135199251Y-72688760D01*
X135331911Y-72521684D01*
X135430584Y-72332537D01*
X135491711Y-72128145D01*
X135502639Y-72019628D01*
X135503232Y-72013741D01*
X135811702Y-72013741D01*
X135851494Y-72223335D01*
X135930202Y-72421622D01*
X136044985Y-72601449D01*
X136191702Y-72756327D01*
X136196567Y-72759817D01*
X136196570Y-72759819D01*
X136295407Y-72830710D01*
X136365058Y-72880667D01*
X136558799Y-72969983D01*
X136564615Y-72971417D01*
X136564618Y-72971418D01*
X136682920Y-73000585D01*
X136765934Y-73021052D01*
X136771924Y-73021361D01*
X136771926Y-73021361D01*
X136846712Y-73025215D01*
X136978989Y-73032031D01*
X136984924Y-73031202D01*
X136984928Y-73031202D01*
X137151779Y-73007901D01*
X137190276Y-73002525D01*
X137392172Y-72933597D01*
X137484780Y-72880667D01*
X137572187Y-72830710D01*
X137572192Y-72830707D01*
X137577391Y-72827735D01*
X137739251Y-72688760D01*
X137871911Y-72521684D01*
X137970584Y-72332537D01*
X138031711Y-72128145D01*
X138042639Y-72019628D01*
X138052777Y-71918944D01*
X138052777Y-71918935D01*
X138053085Y-71915881D01*
X138053100Y-71910000D01*
X138032838Y-71697627D01*
X137972782Y-71492917D01*
X137970032Y-71487577D01*
X137877847Y-71308587D01*
X137877845Y-71308584D01*
X137875101Y-71303256D01*
X137743317Y-71135488D01*
X137582187Y-70995667D01*
X137397525Y-70888837D01*
X137276132Y-70846682D01*
X137201667Y-70820823D01*
X137201664Y-70820822D01*
X137195993Y-70818853D01*
X137052888Y-70798104D01*
X136990803Y-70789102D01*
X136990800Y-70789102D01*
X136984863Y-70788241D01*
X136771754Y-70798104D01*
X136765930Y-70799508D01*
X136765927Y-70799508D01*
X136570187Y-70846682D01*
X136570185Y-70846683D01*
X136564354Y-70848088D01*
X136558896Y-70850570D01*
X136558892Y-70850571D01*
X136479066Y-70886866D01*
X136370148Y-70936388D01*
X136196143Y-71059819D01*
X136192001Y-71064146D01*
X136052766Y-71209592D01*
X136052762Y-71209597D01*
X136048618Y-71213926D01*
X136045364Y-71218965D01*
X136045362Y-71218968D01*
X135987496Y-71308587D01*
X135932895Y-71393150D01*
X135853150Y-71591022D01*
X135852002Y-71596903D01*
X135852000Y-71596908D01*
X135833456Y-71691866D01*
X135812260Y-71800405D01*
X135811702Y-72013741D01*
X135503232Y-72013741D01*
X135512777Y-71918944D01*
X135512777Y-71918935D01*
X135513085Y-71915881D01*
X135513100Y-71910000D01*
X135492838Y-71697627D01*
X135432782Y-71492917D01*
X135430032Y-71487577D01*
X135337847Y-71308587D01*
X135337845Y-71308584D01*
X135335101Y-71303256D01*
X135203317Y-71135488D01*
X135042187Y-70995667D01*
X134857525Y-70888837D01*
X134736132Y-70846682D01*
X134661667Y-70820823D01*
X134661664Y-70820822D01*
X134655993Y-70818853D01*
X134512888Y-70798104D01*
X134450803Y-70789102D01*
X134450800Y-70789102D01*
X134444863Y-70788241D01*
X134231754Y-70798104D01*
X134225930Y-70799508D01*
X134225927Y-70799508D01*
X134030187Y-70846682D01*
X134030185Y-70846683D01*
X134024354Y-70848088D01*
X134018896Y-70850570D01*
X134018892Y-70850571D01*
X133939066Y-70886866D01*
X133830148Y-70936388D01*
X133656143Y-71059819D01*
X133652001Y-71064146D01*
X133512766Y-71209592D01*
X133512762Y-71209597D01*
X133508618Y-71213926D01*
X133505364Y-71218965D01*
X133505362Y-71218968D01*
X133447496Y-71308587D01*
X133392895Y-71393150D01*
X133313150Y-71591022D01*
X133312002Y-71596903D01*
X133312000Y-71596908D01*
X133293456Y-71691866D01*
X133272260Y-71800405D01*
X133271702Y-72013741D01*
X132963232Y-72013741D01*
X132972777Y-71918944D01*
X132972777Y-71918935D01*
X132973085Y-71915881D01*
X132973100Y-71910000D01*
X132952838Y-71697627D01*
X132892782Y-71492917D01*
X132890032Y-71487577D01*
X132797847Y-71308587D01*
X132797845Y-71308584D01*
X132795101Y-71303256D01*
X132663317Y-71135488D01*
X132502187Y-70995667D01*
X132317525Y-70888837D01*
X132196132Y-70846682D01*
X132121667Y-70820823D01*
X132121664Y-70820822D01*
X132115993Y-70818853D01*
X131972888Y-70798104D01*
X131910803Y-70789102D01*
X131910800Y-70789102D01*
X131904863Y-70788241D01*
X131691754Y-70798104D01*
X131685930Y-70799508D01*
X131685927Y-70799508D01*
X131490187Y-70846682D01*
X131490185Y-70846683D01*
X131484354Y-70848088D01*
X131478896Y-70850570D01*
X131478892Y-70850571D01*
X131399066Y-70886866D01*
X131290148Y-70936388D01*
X131116143Y-71059819D01*
X131112001Y-71064146D01*
X130972766Y-71209592D01*
X130972762Y-71209597D01*
X130968618Y-71213926D01*
X130965364Y-71218965D01*
X130965362Y-71218968D01*
X130907496Y-71308587D01*
X130852895Y-71393150D01*
X130773150Y-71591022D01*
X130772002Y-71596903D01*
X130772000Y-71596908D01*
X130753456Y-71691866D01*
X130732260Y-71800405D01*
X130731702Y-72013741D01*
X127883232Y-72013741D01*
X127892777Y-71918944D01*
X127892777Y-71918935D01*
X127893085Y-71915881D01*
X127893100Y-71910000D01*
X127872838Y-71697627D01*
X127812782Y-71492917D01*
X127810032Y-71487577D01*
X127717847Y-71308587D01*
X127717845Y-71308584D01*
X127715101Y-71303256D01*
X127583317Y-71135488D01*
X127422187Y-70995667D01*
X127237525Y-70888837D01*
X127116132Y-70846682D01*
X127041667Y-70820823D01*
X127041664Y-70820822D01*
X127035993Y-70818853D01*
X126892888Y-70798104D01*
X126830803Y-70789102D01*
X126830800Y-70789102D01*
X126824863Y-70788241D01*
X126611754Y-70798104D01*
X126605930Y-70799508D01*
X126605927Y-70799508D01*
X126410187Y-70846682D01*
X126410185Y-70846683D01*
X126404354Y-70848088D01*
X126398896Y-70850570D01*
X126398892Y-70850571D01*
X126319066Y-70886866D01*
X126210148Y-70936388D01*
X126036143Y-71059819D01*
X126032001Y-71064146D01*
X125892766Y-71209592D01*
X125892762Y-71209597D01*
X125888618Y-71213926D01*
X125885364Y-71218965D01*
X125885362Y-71218968D01*
X125827496Y-71308587D01*
X125772895Y-71393150D01*
X125693150Y-71591022D01*
X125692002Y-71596903D01*
X125692000Y-71596908D01*
X125673456Y-71691866D01*
X125652260Y-71800405D01*
X125651702Y-72013741D01*
X125343232Y-72013741D01*
X125352777Y-71918944D01*
X125352777Y-71918935D01*
X125353085Y-71915881D01*
X125353100Y-71910000D01*
X125332838Y-71697627D01*
X125272782Y-71492917D01*
X125270032Y-71487577D01*
X125177847Y-71308587D01*
X125177845Y-71308584D01*
X125175101Y-71303256D01*
X125043317Y-71135488D01*
X124882187Y-70995667D01*
X124697525Y-70888837D01*
X124576132Y-70846682D01*
X124501667Y-70820823D01*
X124501664Y-70820822D01*
X124495993Y-70818853D01*
X124352888Y-70798104D01*
X124290803Y-70789102D01*
X124290800Y-70789102D01*
X124284863Y-70788241D01*
X124071754Y-70798104D01*
X124065930Y-70799508D01*
X124065927Y-70799508D01*
X123870187Y-70846682D01*
X123870185Y-70846683D01*
X123864354Y-70848088D01*
X123858896Y-70850570D01*
X123858892Y-70850571D01*
X123779066Y-70886866D01*
X123670148Y-70936388D01*
X123496143Y-71059819D01*
X123492001Y-71064146D01*
X123352766Y-71209592D01*
X123352762Y-71209597D01*
X123348618Y-71213926D01*
X123345364Y-71218965D01*
X123345362Y-71218968D01*
X123287496Y-71308587D01*
X123232895Y-71393150D01*
X123153150Y-71591022D01*
X123152002Y-71596903D01*
X123152000Y-71596908D01*
X123133456Y-71691866D01*
X123112260Y-71800405D01*
X123111702Y-72013741D01*
X120263232Y-72013741D01*
X120272777Y-71918944D01*
X120272777Y-71918935D01*
X120273085Y-71915881D01*
X120273100Y-71910000D01*
X120252838Y-71697627D01*
X120192782Y-71492917D01*
X120190032Y-71487577D01*
X120097847Y-71308587D01*
X120097845Y-71308584D01*
X120095101Y-71303256D01*
X119963317Y-71135488D01*
X119802187Y-70995667D01*
X119617525Y-70888837D01*
X119496132Y-70846682D01*
X119421667Y-70820823D01*
X119421664Y-70820822D01*
X119415993Y-70818853D01*
X119272888Y-70798104D01*
X119210803Y-70789102D01*
X119210800Y-70789102D01*
X119204863Y-70788241D01*
X118991754Y-70798104D01*
X118985930Y-70799508D01*
X118985927Y-70799508D01*
X118790187Y-70846682D01*
X118790185Y-70846683D01*
X118784354Y-70848088D01*
X118778896Y-70850570D01*
X118778892Y-70850571D01*
X118699066Y-70886866D01*
X118590148Y-70936388D01*
X118416143Y-71059819D01*
X118412001Y-71064146D01*
X118272766Y-71209592D01*
X118272762Y-71209597D01*
X118268618Y-71213926D01*
X118265364Y-71218965D01*
X118265362Y-71218968D01*
X118207496Y-71308587D01*
X118152895Y-71393150D01*
X118073150Y-71591022D01*
X118072002Y-71596903D01*
X118072000Y-71596908D01*
X118053456Y-71691866D01*
X118032260Y-71800405D01*
X118031702Y-72013741D01*
X117723232Y-72013741D01*
X117732777Y-71918944D01*
X117732777Y-71918935D01*
X117733085Y-71915881D01*
X117733100Y-71910000D01*
X117712838Y-71697627D01*
X117652782Y-71492917D01*
X117650032Y-71487577D01*
X117557847Y-71308587D01*
X117557845Y-71308584D01*
X117555101Y-71303256D01*
X117423317Y-71135488D01*
X117262187Y-70995667D01*
X117077525Y-70888837D01*
X116956132Y-70846682D01*
X116881667Y-70820823D01*
X116881664Y-70820822D01*
X116875993Y-70818853D01*
X116732888Y-70798104D01*
X116670803Y-70789102D01*
X116670800Y-70789102D01*
X116664863Y-70788241D01*
X116451754Y-70798104D01*
X116445930Y-70799508D01*
X116445927Y-70799508D01*
X116250187Y-70846682D01*
X116250185Y-70846683D01*
X116244354Y-70848088D01*
X116238896Y-70850570D01*
X116238892Y-70850571D01*
X116159066Y-70886866D01*
X116050148Y-70936388D01*
X115876143Y-71059819D01*
X115872001Y-71064146D01*
X115732766Y-71209592D01*
X115732762Y-71209597D01*
X115728618Y-71213926D01*
X115725364Y-71218965D01*
X115725362Y-71218968D01*
X115667496Y-71308587D01*
X115612895Y-71393150D01*
X115533150Y-71591022D01*
X115532002Y-71596903D01*
X115532000Y-71596908D01*
X115513456Y-71691866D01*
X115492260Y-71800405D01*
X115491702Y-72013741D01*
X115183232Y-72013741D01*
X115192777Y-71918944D01*
X115192777Y-71918935D01*
X115193085Y-71915881D01*
X115193100Y-71910000D01*
X115172838Y-71697627D01*
X115112782Y-71492917D01*
X115110032Y-71487577D01*
X115017847Y-71308587D01*
X115017845Y-71308584D01*
X115015101Y-71303256D01*
X114883317Y-71135488D01*
X114722187Y-70995667D01*
X114537525Y-70888837D01*
X114416132Y-70846682D01*
X114341667Y-70820823D01*
X114341664Y-70820822D01*
X114335993Y-70818853D01*
X114192888Y-70798104D01*
X114130803Y-70789102D01*
X114130800Y-70789102D01*
X114124863Y-70788241D01*
X113911754Y-70798104D01*
X113905930Y-70799508D01*
X113905927Y-70799508D01*
X113710187Y-70846682D01*
X113710185Y-70846683D01*
X113704354Y-70848088D01*
X113698896Y-70850570D01*
X113698892Y-70850571D01*
X113619066Y-70886866D01*
X113510148Y-70936388D01*
X113336143Y-71059819D01*
X113332001Y-71064146D01*
X113192766Y-71209592D01*
X113192762Y-71209597D01*
X113188618Y-71213926D01*
X113185364Y-71218965D01*
X113185362Y-71218968D01*
X113127496Y-71308587D01*
X113072895Y-71393150D01*
X112993150Y-71591022D01*
X112992002Y-71596903D01*
X112992000Y-71596908D01*
X112973456Y-71691866D01*
X112952260Y-71800405D01*
X112951702Y-72013741D01*
X110103232Y-72013741D01*
X110112777Y-71918944D01*
X110112777Y-71918935D01*
X110113085Y-71915881D01*
X110113100Y-71910000D01*
X110092838Y-71697627D01*
X110032782Y-71492917D01*
X110030032Y-71487577D01*
X109937847Y-71308587D01*
X109937845Y-71308584D01*
X109935101Y-71303256D01*
X109803317Y-71135488D01*
X109642187Y-70995667D01*
X109457525Y-70888837D01*
X109336132Y-70846682D01*
X109261667Y-70820823D01*
X109261664Y-70820822D01*
X109255993Y-70818853D01*
X109112888Y-70798104D01*
X109050803Y-70789102D01*
X109050800Y-70789102D01*
X109044863Y-70788241D01*
X108831754Y-70798104D01*
X108825930Y-70799508D01*
X108825927Y-70799508D01*
X108630187Y-70846682D01*
X108630185Y-70846683D01*
X108624354Y-70848088D01*
X108618896Y-70850570D01*
X108618892Y-70850571D01*
X108539066Y-70886866D01*
X108430148Y-70936388D01*
X108256143Y-71059819D01*
X108252001Y-71064146D01*
X108112766Y-71209592D01*
X108112762Y-71209597D01*
X108108618Y-71213926D01*
X108105364Y-71218965D01*
X108105362Y-71218968D01*
X108047496Y-71308587D01*
X107992895Y-71393150D01*
X107913150Y-71591022D01*
X107912002Y-71596903D01*
X107912000Y-71596908D01*
X107893456Y-71691866D01*
X107872260Y-71800405D01*
X107871702Y-72013741D01*
X107563232Y-72013741D01*
X107572777Y-71918944D01*
X107572777Y-71918935D01*
X107573085Y-71915881D01*
X107573100Y-71910000D01*
X107552838Y-71697627D01*
X107492782Y-71492917D01*
X107490032Y-71487577D01*
X107397847Y-71308587D01*
X107397845Y-71308584D01*
X107395101Y-71303256D01*
X107263317Y-71135488D01*
X107102187Y-70995667D01*
X106917525Y-70888837D01*
X106796132Y-70846682D01*
X106721667Y-70820823D01*
X106721664Y-70820822D01*
X106715993Y-70818853D01*
X106572888Y-70798104D01*
X106510803Y-70789102D01*
X106510800Y-70789102D01*
X106504863Y-70788241D01*
X106291754Y-70798104D01*
X106285930Y-70799508D01*
X106285927Y-70799508D01*
X106090187Y-70846682D01*
X106090185Y-70846683D01*
X106084354Y-70848088D01*
X106078896Y-70850570D01*
X106078892Y-70850571D01*
X105999066Y-70886866D01*
X105890148Y-70936388D01*
X105716143Y-71059819D01*
X105712001Y-71064146D01*
X105572766Y-71209592D01*
X105572762Y-71209597D01*
X105568618Y-71213926D01*
X105565364Y-71218965D01*
X105565362Y-71218968D01*
X105507496Y-71308587D01*
X105452895Y-71393150D01*
X105373150Y-71591022D01*
X105372002Y-71596903D01*
X105372000Y-71596908D01*
X105353456Y-71691866D01*
X105332260Y-71800405D01*
X105331702Y-72013741D01*
X104444000Y-72013741D01*
X104444000Y-69550000D01*
X104464002Y-69481879D01*
X104517658Y-69435386D01*
X104570000Y-69424000D01*
X142800000Y-69424000D01*
X142868121Y-69444002D01*
X142914614Y-69497658D01*
X142926000Y-69550000D01*
X142926000Y-83122527D01*
X142923589Y-83147059D01*
X142921000Y-83160102D01*
X142930871Y-83209623D01*
X142940715Y-83259115D01*
X142940744Y-83259158D01*
X142940754Y-83259209D01*
X142947708Y-83269608D01*
X142947710Y-83269612D01*
X142968765Y-83301096D01*
X142968794Y-83301138D01*
X142990178Y-83333143D01*
X142990180Y-83333145D01*
X142996859Y-83343141D01*
X142996902Y-83343170D01*
X142996931Y-83343213D01*
X143006901Y-83349869D01*
X143006902Y-83349870D01*
X143031372Y-83366206D01*
X143039028Y-83371317D01*
X143080885Y-83399285D01*
X143080936Y-83399295D01*
X143080979Y-83399324D01*
X143093295Y-83401769D01*
X143093296Y-83401769D01*
X143105327Y-83404157D01*
X143130743Y-83409202D01*
X143180000Y-83419000D01*
X143192171Y-83416579D01*
X143192172Y-83416579D01*
X143193037Y-83416407D01*
X143217569Y-83413985D01*
X145591117Y-83413053D01*
X147913319Y-83412141D01*
X150546080Y-83411107D01*
X155872480Y-83409015D01*
X155897109Y-83411436D01*
X155910000Y-83414000D01*
X155922171Y-83411579D01*
X155935187Y-83408990D01*
X155935237Y-83408990D01*
X155959485Y-83404157D01*
X155996809Y-83396733D01*
X155996810Y-83396733D01*
X156009115Y-83394285D01*
X156009158Y-83394256D01*
X156009209Y-83394246D01*
X156019605Y-83387294D01*
X156019609Y-83387292D01*
X156051096Y-83366235D01*
X156051138Y-83366206D01*
X156083143Y-83344822D01*
X156083145Y-83344820D01*
X156093141Y-83338141D01*
X156093170Y-83338098D01*
X156093213Y-83338069D01*
X156121317Y-83295972D01*
X156149285Y-83254115D01*
X156149295Y-83254064D01*
X156149324Y-83254021D01*
X156159162Y-83204459D01*
X156164000Y-83180137D01*
X156164000Y-83180087D01*
X156169000Y-83154898D01*
X156166431Y-83142009D01*
X156164000Y-83117379D01*
X156164000Y-69545362D01*
X156184002Y-69477241D01*
X156237658Y-69430748D01*
X156290120Y-69419362D01*
X157429382Y-69420445D01*
G37*
%TD.AperFunction*%
%TD*%
M02*
