%TF.GenerationSoftware,KiCad,Pcbnew,(5.99.0-9801-g46d71f0d23)*%
%TF.CreationDate,2021-03-17T00:26:50+01:00*%
%TF.ProjectId,pi-hat-lorawan-gateway-minipci,70692d68-6174-42d6-9c6f-726177616e2d,rev?*%
%TF.SameCoordinates,Original*%
%TF.FileFunction,Copper,L2,Bot*%
%TF.FilePolarity,Positive*%
%FSLAX46Y46*%
G04 Gerber Fmt 4.6, Leading zero omitted, Abs format (unit mm)*
G04 Created by KiCad (PCBNEW (5.99.0-9801-g46d71f0d23)) date 2021-03-17 00:26:50*
%MOMM*%
%LPD*%
G01*
G04 APERTURE LIST*
%TA.AperFunction,SMDPad,CuDef*%
%ADD10R,1.800000X4.000000*%
%TD*%
%TA.AperFunction,ViaPad*%
%ADD11C,0.900000*%
%TD*%
%TA.AperFunction,Conductor*%
%ADD12C,0.254000*%
%TD*%
%TA.AperFunction,Conductor*%
%ADD13C,1.524000*%
%TD*%
G04 APERTURE END LIST*
D10*
%TO.P,Con1,2,2*%
%TO.N,3V3*%
X185550000Y-60110000D03*
%TO.P,Con1,4,4*%
%TO.N,N/C*%
X188090000Y-60110000D03*
%TO.P,Con1,6,6*%
X190630000Y-60110000D03*
%TO.P,Con1,8,8*%
X193170000Y-60110000D03*
%TO.P,Con1,10,10*%
%TO.N,GND*%
X195710000Y-60110000D03*
%TO.P,Con1,12,12*%
%TO.N,N/C*%
X198250000Y-60110000D03*
%TO.P,Con1,14,14*%
X200790000Y-60110000D03*
%TO.P,Con1,16,16*%
X203330000Y-60110000D03*
%TO.P,Con1,18,18*%
%TO.N,3V3*%
X205870000Y-60110000D03*
%TO.P,Con1,20,20*%
%TO.N,/GPIO10(MOSI)*%
X208410000Y-60110000D03*
%TO.P,Con1,22,22*%
%TO.N,/GPIO9(MISO)*%
X210950000Y-60110000D03*
%TO.P,Con1,24,24*%
%TO.N,/GPIO11(SCLK)*%
X213490000Y-60110000D03*
%TO.P,Con1,26,26*%
%TO.N,GND*%
X216030000Y-60110000D03*
%TO.P,Con1,28,28*%
%TO.N,N/C*%
X218570000Y-60110000D03*
%TO.P,Con1,30,30*%
X221110000Y-60110000D03*
%TO.P,Con1,32,32*%
X223650000Y-60110000D03*
%TO.P,Con1,34,34*%
X226190000Y-60110000D03*
%TO.P,Con1,36,36*%
X228730000Y-60110000D03*
%TO.P,Con1,38,38*%
X231270000Y-60110000D03*
%TO.P,Con1,40,40*%
%TO.N,GND*%
X233810000Y-60110000D03*
%TD*%
D11*
%TO.N,GND*%
X200750000Y-63900000D03*
X195690000Y-63880000D03*
%TO.N,/GPIO8(CE0)*%
X203190000Y-80550000D03*
X212530000Y-64210000D03*
%TO.N,3V3*%
X205870000Y-63600000D03*
X205870000Y-65250000D03*
X205870000Y-66880000D03*
X204880000Y-67870000D03*
%TO.N,GND*%
X192610000Y-72360000D03*
X192470000Y-73960000D03*
X185800000Y-73040000D03*
X185740000Y-69330000D03*
%TO.N,3V3*%
X185550000Y-62990000D03*
X185550000Y-64980000D03*
X185550000Y-66680000D03*
X186635000Y-67835000D03*
X187470000Y-74160000D03*
X187770000Y-75630000D03*
X189460000Y-75630000D03*
X191230000Y-75630000D03*
%TO.N,GND*%
X199060000Y-94560000D03*
X202950000Y-94610000D03*
X205490000Y-94610000D03*
X208280000Y-94860000D03*
X212410000Y-94660000D03*
X210470000Y-94950000D03*
X210590000Y-86180000D03*
X208180000Y-86200000D03*
X207330000Y-82030000D03*
X201700000Y-86210000D03*
X205000000Y-86150000D03*
X204120000Y-82240000D03*
%TO.N,/GPIO23*%
X205720000Y-70890000D03*
X203340000Y-63780000D03*
%TO.N,/GPIO25*%
X209960000Y-63640000D03*
X208758169Y-69708169D03*
%TO.N,/GPIO11(SCLK)*%
X202180000Y-81610000D03*
%TO.N,/GPIO9(MISO)*%
X200760000Y-81630000D03*
%TO.N,/GPIO10(MOSI)*%
X199597613Y-81647613D03*
%TD*%
D12*
%TO.N,GND*%
X195710000Y-63860000D02*
X195690000Y-63880000D01*
X195710000Y-60110000D02*
X195710000Y-63860000D01*
%TO.N,/GPIO10(MOSI)*%
X207927168Y-68877168D02*
X207927168Y-70692832D01*
X208410000Y-60110000D02*
X208410000Y-68394336D01*
X208410000Y-68394336D02*
X207927168Y-68877168D01*
%TO.N,/GPIO8(CE0)*%
X212240000Y-64500000D02*
X212530000Y-64210000D01*
X203190000Y-80550000D02*
X203190000Y-79410000D01*
X203190000Y-79410000D02*
X212240000Y-70360000D01*
X212240000Y-70360000D02*
X212240000Y-64500000D01*
%TO.N,/GPIO9(MISO)*%
X210950000Y-60110000D02*
X210950000Y-64353116D01*
X210950000Y-64353116D02*
X210250000Y-65053116D01*
X210250000Y-65053116D02*
X210250000Y-69391564D01*
X210250000Y-69391564D02*
X200760000Y-78881564D01*
X200760000Y-78881564D02*
X200760000Y-81630000D01*
%TO.N,/GPIO10(MOSI)*%
X199597613Y-79022387D02*
X199597613Y-81647613D01*
X207927168Y-70692832D02*
X199597613Y-79022387D01*
%TO.N,/GPIO11(SCLK)*%
X213490000Y-60110000D02*
X213490000Y-62020103D01*
X202180000Y-78810000D02*
X202180000Y-81610000D01*
%TO.N,/GPIO25*%
X209310000Y-64290000D02*
X209310000Y-69156338D01*
X209960000Y-63640000D02*
X209310000Y-64290000D01*
%TO.N,/GPIO11(SCLK)*%
X211141980Y-69848020D02*
X202180000Y-78810000D01*
%TO.N,/GPIO25*%
X209310000Y-69156338D02*
X208758169Y-69708169D01*
%TO.N,/GPIO11(SCLK)*%
X213490000Y-62020103D02*
X211698989Y-63811114D01*
X211698989Y-63811114D02*
X211698989Y-64322563D01*
X211698989Y-64322563D02*
X211141980Y-64879572D01*
X211141980Y-64879572D02*
X211141980Y-69848020D01*
D13*
%TO.N,3V3*%
X205870000Y-63600000D02*
X205870000Y-65250000D01*
X205870000Y-65250000D02*
X205870000Y-66880000D01*
X205870000Y-66880000D02*
X204880000Y-67870000D01*
X205870000Y-60110000D02*
X205870000Y-63600000D01*
X185550000Y-62990000D02*
X185550000Y-64980000D01*
X185550000Y-64980000D02*
X185550000Y-66680000D01*
X185550000Y-66680000D02*
X185550000Y-66750000D01*
X186635000Y-67835000D02*
X187350000Y-68550000D01*
X187470000Y-74160000D02*
X187470000Y-75400000D01*
X187770000Y-75630000D02*
X189460000Y-75630000D01*
X189460000Y-75630000D02*
X191230000Y-75630000D01*
X187700000Y-75630000D02*
X187770000Y-75630000D01*
X187470000Y-75400000D02*
X187700000Y-75630000D01*
X187470000Y-68670000D02*
X187470000Y-74160000D01*
X187350000Y-68550000D02*
X187470000Y-68670000D01*
X185550000Y-66750000D02*
X186635000Y-67835000D01*
X185550000Y-60110000D02*
X185550000Y-62990000D01*
D12*
%TO.N,/GPIO23*%
X205720000Y-70890000D02*
X203340000Y-68510000D01*
X203340000Y-68510000D02*
X203340000Y-63780000D01*
%TD*%
%TA.AperFunction,Conductor*%
%TO.N,GND*%
G36*
X197065611Y-57854002D02*
G01*
X197112104Y-57907658D01*
X197122208Y-57977932D01*
X197115286Y-58003162D01*
X197110253Y-58010694D01*
X197090500Y-58110000D01*
X197090500Y-62110000D01*
X197110253Y-62209306D01*
X197166506Y-62293494D01*
X197250694Y-62349747D01*
X197350000Y-62369500D01*
X199150000Y-62369500D01*
X199249306Y-62349747D01*
X199333494Y-62293494D01*
X199389747Y-62209306D01*
X199396421Y-62175753D01*
X199429328Y-62112843D01*
X199491023Y-62077711D01*
X199561918Y-62081511D01*
X199619504Y-62123036D01*
X199643579Y-62175753D01*
X199650253Y-62209306D01*
X199706506Y-62293494D01*
X199790694Y-62349747D01*
X199890000Y-62369500D01*
X201690000Y-62369500D01*
X201789306Y-62349747D01*
X201873494Y-62293494D01*
X201929747Y-62209306D01*
X201936421Y-62175753D01*
X201969328Y-62112843D01*
X202031023Y-62077711D01*
X202101918Y-62081511D01*
X202159504Y-62123036D01*
X202183579Y-62175753D01*
X202190253Y-62209306D01*
X202246506Y-62293494D01*
X202330694Y-62349747D01*
X202430000Y-62369500D01*
X204230000Y-62369500D01*
X204329306Y-62349747D01*
X204413494Y-62293494D01*
X204469747Y-62209306D01*
X204476421Y-62175753D01*
X204509328Y-62112843D01*
X204571023Y-62077711D01*
X204641918Y-62081511D01*
X204699504Y-62123036D01*
X204723579Y-62175753D01*
X204730253Y-62209306D01*
X204786506Y-62293494D01*
X204796822Y-62300387D01*
X204797500Y-62300840D01*
X204798645Y-62302210D01*
X204805599Y-62309164D01*
X204804977Y-62309786D01*
X204843029Y-62355316D01*
X204853500Y-62405606D01*
X204853500Y-66406762D01*
X204833498Y-66474883D01*
X204816595Y-66495857D01*
X204125167Y-67187285D01*
X204107847Y-67208371D01*
X204047029Y-67282412D01*
X204031149Y-67301744D01*
X204026428Y-67310548D01*
X203958544Y-67437152D01*
X203908726Y-67487735D01*
X203839469Y-67503355D01*
X203772761Y-67479051D01*
X203729783Y-67422541D01*
X203721500Y-67377611D01*
X203721500Y-64438551D01*
X203741502Y-64370430D01*
X203765670Y-64342740D01*
X203781325Y-64329370D01*
X203806867Y-64307555D01*
X203856487Y-64265176D01*
X203856489Y-64265173D01*
X203862261Y-64260244D01*
X203961740Y-64121804D01*
X204025324Y-63963632D01*
X204049344Y-63794859D01*
X204049500Y-63780000D01*
X204029020Y-63610761D01*
X203968761Y-63451291D01*
X203940657Y-63410399D01*
X203876506Y-63317058D01*
X203876505Y-63317056D01*
X203872204Y-63310799D01*
X203744921Y-63197395D01*
X203684214Y-63165252D01*
X203600975Y-63121179D01*
X203600973Y-63121178D01*
X203594262Y-63117625D01*
X203586897Y-63115775D01*
X203436295Y-63077946D01*
X203436291Y-63077946D01*
X203428924Y-63076095D01*
X203421325Y-63076055D01*
X203421323Y-63076055D01*
X203350757Y-63075686D01*
X203258452Y-63075202D01*
X203251072Y-63076974D01*
X203251070Y-63076974D01*
X203100067Y-63113226D01*
X203100063Y-63113227D01*
X203092688Y-63114998D01*
X202941202Y-63193186D01*
X202812739Y-63305252D01*
X202714715Y-63444725D01*
X202711955Y-63451805D01*
X202661138Y-63582144D01*
X202652790Y-63603555D01*
X202651798Y-63611088D01*
X202651798Y-63611089D01*
X202633898Y-63747058D01*
X202630539Y-63772570D01*
X202649246Y-63942015D01*
X202651855Y-63949146D01*
X202651856Y-63949148D01*
X202702493Y-64087518D01*
X202707831Y-64102106D01*
X202712067Y-64108409D01*
X202712067Y-64108410D01*
X202794416Y-64230958D01*
X202802912Y-64243602D01*
X202917301Y-64347688D01*
X202954222Y-64408327D01*
X202958500Y-64440880D01*
X202958500Y-68457155D01*
X202956300Y-68477828D01*
X202956122Y-68481613D01*
X202953930Y-68491793D01*
X202955154Y-68502133D01*
X202957627Y-68523032D01*
X202958018Y-68529663D01*
X202958072Y-68529659D01*
X202958500Y-68534835D01*
X202958500Y-68540040D01*
X202959355Y-68545176D01*
X202961954Y-68560794D01*
X202962791Y-68566670D01*
X202964736Y-68583100D01*
X202968846Y-68617830D01*
X202972828Y-68626123D01*
X202974338Y-68635194D01*
X202979281Y-68644355D01*
X202979282Y-68644358D01*
X202998798Y-68680526D01*
X203001475Y-68685779D01*
X203023785Y-68732239D01*
X203029415Y-68738938D01*
X203031351Y-68740874D01*
X203031371Y-68740896D01*
X203034605Y-68746889D01*
X203042251Y-68753957D01*
X203069321Y-68778980D01*
X203072887Y-68782410D01*
X204985507Y-70695030D01*
X205019533Y-70757342D01*
X205021334Y-70800571D01*
X205010539Y-70882570D01*
X205029246Y-71052015D01*
X205031855Y-71059146D01*
X205031856Y-71059148D01*
X205039735Y-71080677D01*
X205087831Y-71212106D01*
X205182912Y-71353602D01*
X205188531Y-71358715D01*
X205188532Y-71358716D01*
X205303384Y-71463223D01*
X205309000Y-71468333D01*
X205458816Y-71549676D01*
X205623710Y-71592936D01*
X205710670Y-71594302D01*
X205786564Y-71595494D01*
X205786567Y-71595494D01*
X205794163Y-71595613D01*
X205801568Y-71593917D01*
X205801569Y-71593917D01*
X205862919Y-71579866D01*
X205960335Y-71557555D01*
X206112631Y-71480958D01*
X206142467Y-71455475D01*
X206236487Y-71375176D01*
X206236489Y-71375173D01*
X206242261Y-71370244D01*
X206341740Y-71231804D01*
X206405324Y-71073632D01*
X206429344Y-70904859D01*
X206429500Y-70890000D01*
X206409020Y-70720761D01*
X206348761Y-70561291D01*
X206299203Y-70489183D01*
X206256506Y-70427058D01*
X206256505Y-70427056D01*
X206252204Y-70420799D01*
X206124921Y-70307395D01*
X206085461Y-70286502D01*
X205980975Y-70231179D01*
X205980973Y-70231178D01*
X205974262Y-70227625D01*
X205935577Y-70217908D01*
X205816295Y-70187946D01*
X205816291Y-70187946D01*
X205808924Y-70186095D01*
X205801325Y-70186055D01*
X205801323Y-70186055D01*
X205724783Y-70185654D01*
X205638452Y-70185202D01*
X205631061Y-70186976D01*
X205624738Y-70187708D01*
X205554769Y-70175668D01*
X205521160Y-70151638D01*
X204405146Y-69035623D01*
X204371120Y-68973311D01*
X204376185Y-68902495D01*
X204418732Y-68845660D01*
X204485252Y-68820849D01*
X204531918Y-68826294D01*
X204671107Y-68869913D01*
X204677230Y-68870578D01*
X204677234Y-68870579D01*
X204863178Y-68890779D01*
X204863182Y-68890779D01*
X204869303Y-68891444D01*
X204943862Y-68884921D01*
X205061773Y-68874605D01*
X205061777Y-68874604D01*
X205067906Y-68874068D01*
X205259352Y-68818449D01*
X205335495Y-68778980D01*
X205430877Y-68729539D01*
X205430881Y-68729536D01*
X205436349Y-68726702D01*
X205557799Y-68629749D01*
X206544202Y-67643346D01*
X206554345Y-67634245D01*
X206579901Y-67613697D01*
X206584706Y-67609834D01*
X206617906Y-67570268D01*
X206621097Y-67566610D01*
X206622646Y-67564902D01*
X206624833Y-67562715D01*
X206626789Y-67560334D01*
X206626796Y-67560326D01*
X206651810Y-67529874D01*
X206652652Y-67528859D01*
X206698928Y-67473709D01*
X206712853Y-67457114D01*
X206715440Y-67452409D01*
X206718850Y-67448257D01*
X206763128Y-67365679D01*
X206763740Y-67364552D01*
X206808897Y-67282412D01*
X206810522Y-67277290D01*
X206813059Y-67272558D01*
X206840467Y-67182911D01*
X206840804Y-67181827D01*
X206869178Y-67092382D01*
X206869777Y-67087039D01*
X206871346Y-67081908D01*
X206875731Y-67038747D01*
X206880813Y-66988710D01*
X206880940Y-66987522D01*
X206886500Y-66937948D01*
X206886500Y-66934422D01*
X206886551Y-66933508D01*
X206887000Y-66927802D01*
X206890872Y-66889692D01*
X206890872Y-66889689D01*
X206891494Y-66883566D01*
X206887059Y-66836649D01*
X206886500Y-66824791D01*
X206886500Y-62405606D01*
X206906502Y-62337485D01*
X206942500Y-62300840D01*
X206943178Y-62300387D01*
X206953494Y-62293494D01*
X207009747Y-62209306D01*
X207016421Y-62175753D01*
X207049328Y-62112843D01*
X207111023Y-62077711D01*
X207181918Y-62081511D01*
X207239504Y-62123036D01*
X207263579Y-62175753D01*
X207270253Y-62209306D01*
X207326506Y-62293494D01*
X207410694Y-62349747D01*
X207510000Y-62369500D01*
X207902500Y-62369500D01*
X207970621Y-62389502D01*
X208017114Y-62443158D01*
X208028500Y-62495500D01*
X208028500Y-68184123D01*
X208008498Y-68252244D01*
X207991595Y-68273218D01*
X207694775Y-68570038D01*
X207678602Y-68583100D01*
X207675797Y-68585653D01*
X207667049Y-68591301D01*
X207660604Y-68599476D01*
X207660602Y-68599478D01*
X207647572Y-68616007D01*
X207643159Y-68620973D01*
X207643200Y-68621008D01*
X207639842Y-68624971D01*
X207636165Y-68628648D01*
X207623910Y-68645798D01*
X207620371Y-68650511D01*
X207616445Y-68655492D01*
X207596574Y-68680697D01*
X207588475Y-68690970D01*
X207585428Y-68699648D01*
X207580080Y-68707131D01*
X207577096Y-68717109D01*
X207577094Y-68717113D01*
X207565323Y-68756474D01*
X207563488Y-68762122D01*
X207556364Y-68782410D01*
X207546423Y-68810717D01*
X207545668Y-68819435D01*
X207545668Y-68822176D01*
X207545667Y-68822200D01*
X207543715Y-68828727D01*
X207545429Y-68872349D01*
X207545571Y-68875962D01*
X207545668Y-68880909D01*
X207545668Y-70482619D01*
X207525666Y-70550740D01*
X207508763Y-70571714D01*
X199365220Y-78715257D01*
X199349048Y-78728318D01*
X199346241Y-78730872D01*
X199337494Y-78736520D01*
X199331049Y-78744695D01*
X199331047Y-78744697D01*
X199318017Y-78761226D01*
X199313604Y-78766192D01*
X199313645Y-78766227D01*
X199310287Y-78770190D01*
X199306610Y-78773867D01*
X199294355Y-78791017D01*
X199290809Y-78795740D01*
X199268663Y-78823831D01*
X199258920Y-78836189D01*
X199255873Y-78844867D01*
X199250525Y-78852350D01*
X199247541Y-78862328D01*
X199247539Y-78862332D01*
X199235768Y-78901693D01*
X199233933Y-78907341D01*
X199216868Y-78955936D01*
X199216113Y-78964654D01*
X199216113Y-78967395D01*
X199216112Y-78967419D01*
X199214160Y-78973946D01*
X199214569Y-78984352D01*
X199216016Y-79021181D01*
X199216113Y-79026128D01*
X199216113Y-80988420D01*
X199196111Y-81056541D01*
X199172942Y-81083369D01*
X199076078Y-81167869D01*
X199076074Y-81167873D01*
X199070352Y-81172865D01*
X198972328Y-81312338D01*
X198969568Y-81319418D01*
X198914461Y-81460761D01*
X198910403Y-81471168D01*
X198909411Y-81478701D01*
X198909411Y-81478702D01*
X198889493Y-81630000D01*
X198888152Y-81640183D01*
X198888986Y-81647733D01*
X198905871Y-81800677D01*
X198906859Y-81809628D01*
X198909468Y-81816759D01*
X198909469Y-81816761D01*
X198961146Y-81957973D01*
X198965444Y-81969719D01*
X198969680Y-81976022D01*
X198969680Y-81976023D01*
X199048690Y-82093602D01*
X199060525Y-82111215D01*
X199066144Y-82116328D01*
X199066145Y-82116329D01*
X199171238Y-82211956D01*
X199186613Y-82225946D01*
X199336429Y-82307289D01*
X199501323Y-82350549D01*
X199588283Y-82351915D01*
X199664177Y-82353107D01*
X199664180Y-82353107D01*
X199671776Y-82353226D01*
X199679181Y-82351530D01*
X199679182Y-82351530D01*
X199749199Y-82335494D01*
X199837948Y-82315168D01*
X199990244Y-82238571D01*
X200107975Y-82138019D01*
X200172763Y-82108989D01*
X200242963Y-82119594D01*
X200274600Y-82140634D01*
X200349000Y-82208333D01*
X200381439Y-82225946D01*
X200479614Y-82279250D01*
X200498816Y-82289676D01*
X200663710Y-82332936D01*
X200750670Y-82334302D01*
X200826564Y-82335494D01*
X200826567Y-82335494D01*
X200834163Y-82335613D01*
X200841568Y-82333917D01*
X200841569Y-82333917D01*
X200916031Y-82316863D01*
X201000335Y-82297555D01*
X201152631Y-82220958D01*
X201196813Y-82183223D01*
X201276487Y-82115176D01*
X201276489Y-82115173D01*
X201282261Y-82110244D01*
X201286695Y-82104074D01*
X201375564Y-81980401D01*
X201431558Y-81936753D01*
X201502262Y-81930307D01*
X201565226Y-81963110D01*
X201582468Y-81983652D01*
X201638673Y-82067294D01*
X201642912Y-82073602D01*
X201648531Y-82078715D01*
X201648532Y-82078716D01*
X201763384Y-82183223D01*
X201769000Y-82188333D01*
X201918816Y-82269676D01*
X202083710Y-82312936D01*
X202170670Y-82314302D01*
X202246564Y-82315494D01*
X202246567Y-82315494D01*
X202254163Y-82315613D01*
X202261568Y-82313917D01*
X202261569Y-82313917D01*
X202347907Y-82294143D01*
X202420335Y-82277555D01*
X202572631Y-82200958D01*
X202643258Y-82140637D01*
X202696487Y-82095176D01*
X202696489Y-82095173D01*
X202702261Y-82090244D01*
X202801740Y-81951804D01*
X202865324Y-81793632D01*
X202889344Y-81624859D01*
X202889500Y-81610000D01*
X202869020Y-81440761D01*
X202851802Y-81395195D01*
X202846434Y-81324403D01*
X202880191Y-81261946D01*
X202942357Y-81227654D01*
X203001642Y-81228782D01*
X203093710Y-81252936D01*
X203180670Y-81254302D01*
X203256564Y-81255494D01*
X203256567Y-81255494D01*
X203264163Y-81255613D01*
X203271568Y-81253917D01*
X203271569Y-81253917D01*
X203332919Y-81239866D01*
X203430335Y-81217555D01*
X203582631Y-81140958D01*
X203612467Y-81115475D01*
X203706487Y-81035176D01*
X203706489Y-81035173D01*
X203712261Y-81030244D01*
X203811740Y-80891804D01*
X203875324Y-80733632D01*
X203899344Y-80564859D01*
X203899500Y-80550000D01*
X203879020Y-80380761D01*
X203818761Y-80221291D01*
X203722204Y-80080799D01*
X203613681Y-79984109D01*
X203576125Y-79923858D01*
X203571500Y-79890032D01*
X203571500Y-79620213D01*
X203591502Y-79552092D01*
X203608405Y-79531118D01*
X212472393Y-70667130D01*
X212488566Y-70654068D01*
X212491371Y-70651515D01*
X212500119Y-70645867D01*
X212506564Y-70637692D01*
X212506566Y-70637690D01*
X212519596Y-70621161D01*
X212524010Y-70616194D01*
X212523969Y-70616159D01*
X212527328Y-70612195D01*
X212531003Y-70608520D01*
X212543242Y-70591394D01*
X212546805Y-70586648D01*
X212572246Y-70554377D01*
X212572248Y-70554374D01*
X212578693Y-70546198D01*
X212581741Y-70537518D01*
X212587088Y-70530036D01*
X212596618Y-70498172D01*
X212601845Y-70480692D01*
X212603680Y-70475044D01*
X212618119Y-70433930D01*
X212618120Y-70433926D01*
X212620745Y-70426451D01*
X212621500Y-70417733D01*
X212621500Y-70414992D01*
X212621501Y-70414967D01*
X212623453Y-70408441D01*
X212621597Y-70361205D01*
X212621500Y-70356259D01*
X212621500Y-65012047D01*
X212641502Y-64943926D01*
X212695158Y-64897433D01*
X212719371Y-64889227D01*
X212746215Y-64883079D01*
X212770335Y-64877555D01*
X212922631Y-64800958D01*
X212986993Y-64745988D01*
X213046487Y-64695176D01*
X213046489Y-64695173D01*
X213052261Y-64690244D01*
X213151740Y-64551804D01*
X213215324Y-64393632D01*
X213235949Y-64248711D01*
X213238763Y-64228942D01*
X213238763Y-64228941D01*
X213239344Y-64224859D01*
X213239500Y-64210000D01*
X213219020Y-64040761D01*
X213158761Y-63881291D01*
X213104313Y-63802068D01*
X213066506Y-63747058D01*
X213066505Y-63747056D01*
X213062204Y-63740799D01*
X212934921Y-63627395D01*
X212928205Y-63623839D01*
X212790975Y-63551179D01*
X212790973Y-63551178D01*
X212784262Y-63547625D01*
X212774219Y-63545102D01*
X212772480Y-63544079D01*
X212769801Y-63543051D01*
X212769972Y-63542604D01*
X212713025Y-63509107D01*
X212681005Y-63445741D01*
X212688326Y-63375123D01*
X212715822Y-63333804D01*
X213643221Y-62406405D01*
X213705533Y-62372379D01*
X213732316Y-62369500D01*
X214390000Y-62369500D01*
X214489306Y-62349747D01*
X214573494Y-62293494D01*
X214629747Y-62209306D01*
X214649500Y-62110000D01*
X214649500Y-58110000D01*
X214629747Y-58010694D01*
X214625719Y-58004666D01*
X214618512Y-57937627D01*
X214650292Y-57874140D01*
X214711351Y-57837914D01*
X214742510Y-57834000D01*
X217317490Y-57834000D01*
X217385611Y-57854002D01*
X217432104Y-57907658D01*
X217442208Y-57977932D01*
X217435286Y-58003162D01*
X217430253Y-58010694D01*
X217410500Y-58110000D01*
X217410500Y-62110000D01*
X217430253Y-62209306D01*
X217486506Y-62293494D01*
X217570694Y-62349747D01*
X217670000Y-62369500D01*
X219470000Y-62369500D01*
X219569306Y-62349747D01*
X219653494Y-62293494D01*
X219709747Y-62209306D01*
X219716421Y-62175753D01*
X219749328Y-62112843D01*
X219811023Y-62077711D01*
X219881918Y-62081511D01*
X219939504Y-62123036D01*
X219963579Y-62175753D01*
X219970253Y-62209306D01*
X220026506Y-62293494D01*
X220110694Y-62349747D01*
X220210000Y-62369500D01*
X222010000Y-62369500D01*
X222109306Y-62349747D01*
X222193494Y-62293494D01*
X222249747Y-62209306D01*
X222256421Y-62175753D01*
X222289328Y-62112843D01*
X222351023Y-62077711D01*
X222421918Y-62081511D01*
X222479504Y-62123036D01*
X222503579Y-62175753D01*
X222510253Y-62209306D01*
X222566506Y-62293494D01*
X222650694Y-62349747D01*
X222750000Y-62369500D01*
X224550000Y-62369500D01*
X224649306Y-62349747D01*
X224733494Y-62293494D01*
X224789747Y-62209306D01*
X224796421Y-62175753D01*
X224829328Y-62112843D01*
X224891023Y-62077711D01*
X224961918Y-62081511D01*
X225019504Y-62123036D01*
X225043579Y-62175753D01*
X225050253Y-62209306D01*
X225106506Y-62293494D01*
X225190694Y-62349747D01*
X225290000Y-62369500D01*
X227090000Y-62369500D01*
X227189306Y-62349747D01*
X227273494Y-62293494D01*
X227329747Y-62209306D01*
X227336421Y-62175753D01*
X227369328Y-62112843D01*
X227431023Y-62077711D01*
X227501918Y-62081511D01*
X227559504Y-62123036D01*
X227583579Y-62175753D01*
X227590253Y-62209306D01*
X227646506Y-62293494D01*
X227730694Y-62349747D01*
X227830000Y-62369500D01*
X229630000Y-62369500D01*
X229729306Y-62349747D01*
X229813494Y-62293494D01*
X229869747Y-62209306D01*
X229876421Y-62175753D01*
X229909328Y-62112843D01*
X229971023Y-62077711D01*
X230041918Y-62081511D01*
X230099504Y-62123036D01*
X230123579Y-62175753D01*
X230130253Y-62209306D01*
X230186506Y-62293494D01*
X230270694Y-62349747D01*
X230370000Y-62369500D01*
X232170000Y-62369500D01*
X232269306Y-62349747D01*
X232353494Y-62293494D01*
X232409747Y-62209306D01*
X232429500Y-62110000D01*
X232429500Y-58110000D01*
X232409747Y-58010694D01*
X232405719Y-58004666D01*
X232398512Y-57937627D01*
X232430292Y-57874140D01*
X232491351Y-57837914D01*
X232522510Y-57834000D01*
X234417742Y-57834000D01*
X234434188Y-57835078D01*
X234538963Y-57848872D01*
X234570735Y-57857385D01*
X234660674Y-57894639D01*
X234689160Y-57911086D01*
X234766393Y-57970349D01*
X234789651Y-57993607D01*
X234848914Y-58070840D01*
X234865361Y-58099326D01*
X234902615Y-58189265D01*
X234911128Y-58221037D01*
X234924922Y-58325812D01*
X234926000Y-58342258D01*
X234926000Y-141817742D01*
X234924922Y-141834188D01*
X234911128Y-141938963D01*
X234902615Y-141970735D01*
X234865361Y-142060674D01*
X234848914Y-142089160D01*
X234789651Y-142166393D01*
X234766393Y-142189651D01*
X234689160Y-142248914D01*
X234660674Y-142265361D01*
X234570735Y-142302615D01*
X234538963Y-142311128D01*
X234434188Y-142324922D01*
X234417742Y-142326000D01*
X184942258Y-142326000D01*
X184925812Y-142324922D01*
X184821037Y-142311128D01*
X184789265Y-142302615D01*
X184699326Y-142265361D01*
X184670840Y-142248914D01*
X184593607Y-142189651D01*
X184570349Y-142166393D01*
X184511086Y-142089160D01*
X184494639Y-142060674D01*
X184457385Y-141970735D01*
X184448872Y-141938963D01*
X184435078Y-141834188D01*
X184434000Y-141817742D01*
X184434000Y-136441285D01*
X196294299Y-136441285D01*
X196331704Y-136688613D01*
X196408170Y-136926779D01*
X196410468Y-136931289D01*
X196410470Y-136931294D01*
X196471721Y-137051504D01*
X196521732Y-137149656D01*
X196669466Y-137351509D01*
X196847573Y-137527146D01*
X196851698Y-137530078D01*
X196851701Y-137530080D01*
X196934709Y-137589071D01*
X197051469Y-137672048D01*
X197275910Y-137782486D01*
X197280749Y-137783965D01*
X197280753Y-137783967D01*
X197510272Y-137854138D01*
X197510274Y-137854138D01*
X197515120Y-137855620D01*
X197520141Y-137856308D01*
X197520142Y-137856308D01*
X197757923Y-137888880D01*
X197762946Y-137889568D01*
X197835588Y-137887793D01*
X198007951Y-137883581D01*
X198007955Y-137883581D01*
X198013012Y-137883457D01*
X198258884Y-137837443D01*
X198494236Y-137752711D01*
X198713014Y-137631441D01*
X198716992Y-137628311D01*
X198716996Y-137628308D01*
X198905613Y-137479881D01*
X198905614Y-137479880D01*
X198909589Y-137476752D01*
X199078903Y-137292624D01*
X199216600Y-137083795D01*
X199218676Y-137079176D01*
X199317065Y-136860253D01*
X199317067Y-136860247D01*
X199319139Y-136855637D01*
X199320447Y-136850756D01*
X199320449Y-136850750D01*
X199382572Y-136618902D01*
X199382572Y-136618901D01*
X199383880Y-136614020D01*
X199401426Y-136441285D01*
X220494299Y-136441285D01*
X220531704Y-136688613D01*
X220608170Y-136926779D01*
X220610468Y-136931289D01*
X220610470Y-136931294D01*
X220671721Y-137051504D01*
X220721732Y-137149656D01*
X220869466Y-137351509D01*
X221047573Y-137527146D01*
X221051698Y-137530078D01*
X221051701Y-137530080D01*
X221134709Y-137589071D01*
X221251469Y-137672048D01*
X221475910Y-137782486D01*
X221480749Y-137783965D01*
X221480753Y-137783967D01*
X221710272Y-137854138D01*
X221710274Y-137854138D01*
X221715120Y-137855620D01*
X221720141Y-137856308D01*
X221720142Y-137856308D01*
X221957923Y-137888880D01*
X221962946Y-137889568D01*
X222035588Y-137887793D01*
X222207951Y-137883581D01*
X222207955Y-137883581D01*
X222213012Y-137883457D01*
X222458884Y-137837443D01*
X222694236Y-137752711D01*
X222913014Y-137631441D01*
X222916992Y-137628311D01*
X222916996Y-137628308D01*
X223105613Y-137479881D01*
X223105614Y-137479880D01*
X223109589Y-137476752D01*
X223278903Y-137292624D01*
X223416600Y-137083795D01*
X223418676Y-137079176D01*
X223517065Y-136860253D01*
X223517067Y-136860247D01*
X223519139Y-136855637D01*
X223520447Y-136850756D01*
X223520449Y-136850750D01*
X223582572Y-136618902D01*
X223582572Y-136618901D01*
X223583880Y-136614020D01*
X223609158Y-136365160D01*
X223609500Y-136332500D01*
X223589439Y-136083165D01*
X223529772Y-135840245D01*
X223473704Y-135708156D01*
X223434011Y-135614647D01*
X223434010Y-135614645D01*
X223432034Y-135609990D01*
X223298741Y-135398323D01*
X223133320Y-135210690D01*
X222940028Y-135051918D01*
X222723838Y-134926092D01*
X222585388Y-134872946D01*
X222495036Y-134838263D01*
X222495032Y-134838262D01*
X222490312Y-134836450D01*
X222485362Y-134835416D01*
X222485359Y-134835415D01*
X222250408Y-134786331D01*
X222250404Y-134786331D01*
X222245457Y-134785297D01*
X221995574Y-134773950D01*
X221990554Y-134774531D01*
X221990550Y-134774531D01*
X221752122Y-134802118D01*
X221747092Y-134802700D01*
X221742221Y-134804078D01*
X221742218Y-134804079D01*
X221631674Y-134835360D01*
X221506402Y-134870809D01*
X221279698Y-134976523D01*
X221275518Y-134979364D01*
X221275514Y-134979366D01*
X221164030Y-135055130D01*
X221072811Y-135117122D01*
X221069134Y-135120599D01*
X221069128Y-135120604D01*
X220973866Y-135210690D01*
X220891066Y-135288991D01*
X220739136Y-135487706D01*
X220620932Y-135708156D01*
X220539495Y-135944668D01*
X220496918Y-136191158D01*
X220494299Y-136441285D01*
X199401426Y-136441285D01*
X199409158Y-136365160D01*
X199409500Y-136332500D01*
X199389439Y-136083165D01*
X199329772Y-135840245D01*
X199273704Y-135708156D01*
X199234011Y-135614647D01*
X199234010Y-135614645D01*
X199232034Y-135609990D01*
X199098741Y-135398323D01*
X198933320Y-135210690D01*
X198740028Y-135051918D01*
X198523838Y-134926092D01*
X198385388Y-134872946D01*
X198295036Y-134838263D01*
X198295032Y-134838262D01*
X198290312Y-134836450D01*
X198285362Y-134835416D01*
X198285359Y-134835415D01*
X198050408Y-134786331D01*
X198050404Y-134786331D01*
X198045457Y-134785297D01*
X197795574Y-134773950D01*
X197790554Y-134774531D01*
X197790550Y-134774531D01*
X197552122Y-134802118D01*
X197547092Y-134802700D01*
X197542221Y-134804078D01*
X197542218Y-134804079D01*
X197431674Y-134835360D01*
X197306402Y-134870809D01*
X197079698Y-134976523D01*
X197075518Y-134979364D01*
X197075514Y-134979366D01*
X196964030Y-135055130D01*
X196872811Y-135117122D01*
X196869134Y-135120599D01*
X196869128Y-135120604D01*
X196773866Y-135210690D01*
X196691066Y-135288991D01*
X196539136Y-135487706D01*
X196420932Y-135708156D01*
X196339495Y-135944668D01*
X196296918Y-136191158D01*
X196294299Y-136441285D01*
X184434000Y-136441285D01*
X184434000Y-88271198D01*
X196640579Y-88271198D01*
X196658190Y-88450805D01*
X196660414Y-88457490D01*
X196660414Y-88457491D01*
X196671361Y-88490400D01*
X196715154Y-88622046D01*
X196718801Y-88628068D01*
X196718802Y-88628070D01*
X196773747Y-88718794D01*
X196808642Y-88776413D01*
X196934005Y-88906230D01*
X197085015Y-89005048D01*
X197254164Y-89067954D01*
X197261145Y-89068885D01*
X197261147Y-89068886D01*
X197426066Y-89090891D01*
X197426070Y-89090891D01*
X197433047Y-89091822D01*
X197440058Y-89091184D01*
X197440062Y-89091184D01*
X197605752Y-89076105D01*
X197612773Y-89075466D01*
X197727336Y-89038242D01*
X197777708Y-89021875D01*
X197784408Y-89019698D01*
X197815459Y-89001188D01*
X197933371Y-88930899D01*
X197933373Y-88930898D01*
X197939423Y-88927291D01*
X198070113Y-88802837D01*
X198091671Y-88770390D01*
X198166082Y-88658393D01*
X198166083Y-88658391D01*
X198169983Y-88652521D01*
X198234068Y-88483814D01*
X198259184Y-88305103D01*
X198259500Y-88282500D01*
X198257841Y-88267707D01*
X221390603Y-88267707D01*
X221407906Y-88473760D01*
X221464902Y-88672528D01*
X221467720Y-88678010D01*
X221467721Y-88678014D01*
X221556599Y-88850952D01*
X221556602Y-88850956D01*
X221559420Y-88856440D01*
X221687859Y-89018491D01*
X221845329Y-89152508D01*
X222025830Y-89253386D01*
X222222488Y-89317284D01*
X222427812Y-89341768D01*
X222433947Y-89341296D01*
X222433949Y-89341296D01*
X222627838Y-89326377D01*
X222627842Y-89326376D01*
X222633980Y-89325904D01*
X222833141Y-89270297D01*
X223017708Y-89177065D01*
X223127632Y-89091184D01*
X223175796Y-89053554D01*
X223175797Y-89053553D01*
X223180652Y-89049760D01*
X223315765Y-88893230D01*
X223417901Y-88713437D01*
X223483171Y-88517231D01*
X223509087Y-88312083D01*
X223509500Y-88282500D01*
X223489322Y-88076709D01*
X223429557Y-87878756D01*
X223376878Y-87779681D01*
X223335376Y-87701628D01*
X223335375Y-87701626D01*
X223332480Y-87696182D01*
X223217275Y-87554926D01*
X223205685Y-87540715D01*
X223205682Y-87540712D01*
X223201790Y-87535940D01*
X223184525Y-87521657D01*
X223047215Y-87408064D01*
X223047211Y-87408062D01*
X223042465Y-87404135D01*
X222860573Y-87305786D01*
X222663042Y-87244640D01*
X222656917Y-87243996D01*
X222656916Y-87243996D01*
X222463525Y-87223670D01*
X222463524Y-87223670D01*
X222457397Y-87223026D01*
X222371429Y-87230850D01*
X222257608Y-87241208D01*
X222257605Y-87241209D01*
X222251469Y-87241767D01*
X222245563Y-87243505D01*
X222245559Y-87243506D01*
X222099616Y-87286460D01*
X222053104Y-87300149D01*
X221869857Y-87395948D01*
X221708707Y-87525516D01*
X221704748Y-87530234D01*
X221704747Y-87530235D01*
X221579750Y-87679200D01*
X221575792Y-87683917D01*
X221572829Y-87689306D01*
X221572826Y-87689311D01*
X221519861Y-87785655D01*
X221476176Y-87865119D01*
X221413653Y-88062218D01*
X221412967Y-88068337D01*
X221412966Y-88068340D01*
X221411038Y-88085529D01*
X221390603Y-88267707D01*
X198257841Y-88267707D01*
X198239383Y-88103156D01*
X198180033Y-87932727D01*
X198146309Y-87878756D01*
X198088133Y-87785655D01*
X198084400Y-87779681D01*
X198075653Y-87770872D01*
X197962198Y-87656623D01*
X197957236Y-87651626D01*
X197804861Y-87554926D01*
X197740508Y-87532011D01*
X197641485Y-87496750D01*
X197641480Y-87496749D01*
X197634850Y-87494388D01*
X197627864Y-87493555D01*
X197627860Y-87493554D01*
X197499279Y-87478222D01*
X197455651Y-87473020D01*
X197448648Y-87473756D01*
X197448647Y-87473756D01*
X197400007Y-87478868D01*
X197276172Y-87491884D01*
X197269506Y-87494153D01*
X197269503Y-87494154D01*
X197111999Y-87547773D01*
X197111996Y-87547774D01*
X197105332Y-87550043D01*
X196951622Y-87644605D01*
X196946591Y-87649531D01*
X196946588Y-87649534D01*
X196903833Y-87691403D01*
X196822682Y-87770872D01*
X196818867Y-87776792D01*
X196749354Y-87884656D01*
X196724921Y-87922568D01*
X196722510Y-87929191D01*
X196722510Y-87929192D01*
X196665608Y-88085529D01*
X196665607Y-88085534D01*
X196663198Y-88092152D01*
X196640579Y-88271198D01*
X184434000Y-88271198D01*
X184434000Y-67322985D01*
X184454002Y-67254864D01*
X184507658Y-67208371D01*
X184577932Y-67198267D01*
X184642512Y-67227761D01*
X184671862Y-67264995D01*
X184693298Y-67306349D01*
X184696650Y-67310548D01*
X184699171Y-67315289D01*
X184703062Y-67320059D01*
X184703062Y-67320060D01*
X184758412Y-67387927D01*
X184759239Y-67388952D01*
X184788053Y-67425046D01*
X184790251Y-67427799D01*
X184792747Y-67430295D01*
X184793347Y-67430966D01*
X184797065Y-67435320D01*
X184825173Y-67469784D01*
X184829918Y-67473709D01*
X184861490Y-67499828D01*
X184870270Y-67507818D01*
X186416595Y-69054143D01*
X186450621Y-69116455D01*
X186453500Y-69143238D01*
X186453500Y-75336969D01*
X186452763Y-75350577D01*
X186448556Y-75389303D01*
X186449093Y-75395438D01*
X186453057Y-75440748D01*
X186453386Y-75445579D01*
X186453500Y-75447910D01*
X186453500Y-75450995D01*
X186453801Y-75454064D01*
X186457653Y-75493359D01*
X186457774Y-75494669D01*
X186465932Y-75587906D01*
X186467429Y-75593060D01*
X186467954Y-75598410D01*
X186479645Y-75637131D01*
X186495030Y-75688090D01*
X186495405Y-75689356D01*
X186519830Y-75773431D01*
X186519833Y-75773438D01*
X186521551Y-75779352D01*
X186524024Y-75784123D01*
X186525576Y-75789263D01*
X186569583Y-75872029D01*
X186570146Y-75873102D01*
X186613298Y-75956349D01*
X186616650Y-75960548D01*
X186619171Y-75965289D01*
X186623062Y-75970059D01*
X186623062Y-75970060D01*
X186678412Y-76037927D01*
X186679239Y-76038952D01*
X186710251Y-76077799D01*
X186712747Y-76080295D01*
X186713347Y-76080966D01*
X186717065Y-76085320D01*
X186745173Y-76119784D01*
X186749918Y-76123709D01*
X186781490Y-76149828D01*
X186790270Y-76157818D01*
X186936654Y-76304202D01*
X186945755Y-76314345D01*
X186970166Y-76344706D01*
X186974890Y-76348670D01*
X186974891Y-76348671D01*
X187009732Y-76377906D01*
X187013390Y-76381097D01*
X187015098Y-76382646D01*
X187017285Y-76384833D01*
X187019666Y-76386789D01*
X187019674Y-76386796D01*
X187050126Y-76411810D01*
X187051141Y-76412652D01*
X187122886Y-76472853D01*
X187127591Y-76475440D01*
X187131743Y-76478850D01*
X187214289Y-76523111D01*
X187215418Y-76523724D01*
X187297588Y-76568897D01*
X187302710Y-76570522D01*
X187307442Y-76573059D01*
X187397116Y-76600475D01*
X187398204Y-76600814D01*
X187487618Y-76629178D01*
X187492957Y-76629777D01*
X187498093Y-76631347D01*
X187504224Y-76631970D01*
X187504225Y-76631970D01*
X187526768Y-76634260D01*
X187591393Y-76640824D01*
X187592553Y-76640948D01*
X187642052Y-76646500D01*
X187645579Y-76646500D01*
X187646491Y-76646551D01*
X187652183Y-76646999D01*
X187671404Y-76648952D01*
X187690308Y-76650872D01*
X187690311Y-76650872D01*
X187696434Y-76651494D01*
X187743350Y-76647059D01*
X187755209Y-76646500D01*
X191280995Y-76646500D01*
X191428410Y-76632046D01*
X191619263Y-76574424D01*
X191635238Y-76565930D01*
X191789847Y-76483723D01*
X191789850Y-76483721D01*
X191795289Y-76480829D01*
X191949784Y-76354827D01*
X191996804Y-76297990D01*
X192072934Y-76205965D01*
X192072937Y-76205960D01*
X192076862Y-76201216D01*
X192171683Y-76025847D01*
X192190573Y-75964825D01*
X192228814Y-75841288D01*
X192228815Y-75841285D01*
X192230636Y-75835401D01*
X192251475Y-75637131D01*
X192238444Y-75493946D01*
X192233965Y-75444729D01*
X192233964Y-75444726D01*
X192233406Y-75438590D01*
X192217098Y-75383178D01*
X192178857Y-75253248D01*
X192177118Y-75247339D01*
X192084755Y-75070664D01*
X191959834Y-74915294D01*
X191955117Y-74911336D01*
X191955114Y-74911333D01*
X191811833Y-74791107D01*
X191807114Y-74787147D01*
X191801712Y-74784177D01*
X191637819Y-74694075D01*
X191637814Y-74694073D01*
X191632412Y-74691103D01*
X191626538Y-74689240D01*
X191626534Y-74689238D01*
X191448252Y-74632684D01*
X191448251Y-74632684D01*
X191442382Y-74630822D01*
X191287948Y-74613500D01*
X188612500Y-74613500D01*
X188544379Y-74593498D01*
X188497886Y-74539842D01*
X188486500Y-74487500D01*
X188486500Y-68733032D01*
X188487237Y-68719425D01*
X188490779Y-68686822D01*
X188490779Y-68686818D01*
X188491444Y-68680697D01*
X188486943Y-68629248D01*
X188486614Y-68624420D01*
X188486500Y-68622090D01*
X188486500Y-68619005D01*
X188482360Y-68576776D01*
X188482239Y-68575476D01*
X188480955Y-68560794D01*
X188478231Y-68529663D01*
X188474606Y-68488231D01*
X188474606Y-68488230D01*
X188474069Y-68482094D01*
X188472570Y-68476934D01*
X188472046Y-68471590D01*
X188444975Y-68381927D01*
X188444600Y-68380662D01*
X188420168Y-68296565D01*
X188418449Y-68290648D01*
X188415976Y-68285877D01*
X188414424Y-68280737D01*
X188370488Y-68198104D01*
X188369876Y-68196937D01*
X188329541Y-68119124D01*
X188329536Y-68119116D01*
X188326703Y-68113651D01*
X188323348Y-68109448D01*
X188320829Y-68104711D01*
X188261590Y-68032077D01*
X188260827Y-68031132D01*
X188229750Y-67992202D01*
X188227257Y-67989709D01*
X188226650Y-67989030D01*
X188222935Y-67984680D01*
X188219461Y-67980420D01*
X188194827Y-67950216D01*
X188158509Y-67920171D01*
X188149730Y-67912182D01*
X186603405Y-66365857D01*
X186569379Y-66303545D01*
X186566500Y-66276762D01*
X186566500Y-62405606D01*
X186586502Y-62337485D01*
X186622500Y-62300840D01*
X186623178Y-62300387D01*
X186633494Y-62293494D01*
X186689747Y-62209306D01*
X186696421Y-62175753D01*
X186729328Y-62112843D01*
X186791023Y-62077711D01*
X186861918Y-62081511D01*
X186919504Y-62123036D01*
X186943579Y-62175753D01*
X186950253Y-62209306D01*
X187006506Y-62293494D01*
X187090694Y-62349747D01*
X187190000Y-62369500D01*
X188990000Y-62369500D01*
X189089306Y-62349747D01*
X189173494Y-62293494D01*
X189229747Y-62209306D01*
X189236421Y-62175753D01*
X189269328Y-62112843D01*
X189331023Y-62077711D01*
X189401918Y-62081511D01*
X189459504Y-62123036D01*
X189483579Y-62175753D01*
X189490253Y-62209306D01*
X189546506Y-62293494D01*
X189630694Y-62349747D01*
X189730000Y-62369500D01*
X191530000Y-62369500D01*
X191629306Y-62349747D01*
X191713494Y-62293494D01*
X191769747Y-62209306D01*
X191776421Y-62175753D01*
X191809328Y-62112843D01*
X191871023Y-62077711D01*
X191941918Y-62081511D01*
X191999504Y-62123036D01*
X192023579Y-62175753D01*
X192030253Y-62209306D01*
X192086506Y-62293494D01*
X192170694Y-62349747D01*
X192270000Y-62369500D01*
X194070000Y-62369500D01*
X194169306Y-62349747D01*
X194253494Y-62293494D01*
X194309747Y-62209306D01*
X194329500Y-62110000D01*
X194329500Y-58110000D01*
X194309747Y-58010694D01*
X194305719Y-58004666D01*
X194298512Y-57937627D01*
X194330292Y-57874140D01*
X194391351Y-57837914D01*
X194422510Y-57834000D01*
X196997490Y-57834000D01*
X197065611Y-57854002D01*
G37*
%TD.AperFunction*%
%TD*%
M02*
