%TF.GenerationSoftware,KiCad,Pcbnew,(5.99.0-9004-gab34d94f36)*%
%TF.CreationDate,2021-02-18T22:09:59+01:00*%
%TF.ProjectId,pi-hat-lorawan-gateway-minipci,70692d68-6174-42d6-9c6f-726177616e2d,rev?*%
%TF.SameCoordinates,PX88da2e0PYac9d740*%
%TF.FileFunction,Copper,L1,Top*%
%TF.FilePolarity,Positive*%
%FSLAX46Y46*%
G04 Gerber Fmt 4.6, Leading zero omitted, Abs format (unit mm)*
G04 Created by KiCad (PCBNEW (5.99.0-9004-gab34d94f36)) date 2021-02-18 22:09:59*
%MOMM*%
%LPD*%
G01*
G04 APERTURE LIST*
%TA.AperFunction,SMDPad,CuDef*%
%ADD10R,1.000000X0.600000*%
%TD*%
%TA.AperFunction,ComponentPad*%
%ADD11R,1.727200X1.727200*%
%TD*%
%TA.AperFunction,ComponentPad*%
%ADD12O,1.727200X1.727200*%
%TD*%
%TA.AperFunction,SMDPad,CuDef*%
%ADD13R,3.200000X2.300000*%
%TD*%
%TA.AperFunction,SMDPad,CuDef*%
%ADD14R,2.000000X0.530000*%
%TD*%
%TA.AperFunction,SMDPad,CuDef*%
%ADD15R,0.600000X1.000000*%
%TD*%
%TA.AperFunction,SMDPad,CuDef*%
%ADD16R,0.450000X0.630000*%
%TD*%
%TA.AperFunction,SMDPad,CuDef*%
%ADD17R,2.600000X1.700000*%
%TD*%
%TA.AperFunction,ViaPad*%
%ADD18C,0.800000*%
%TD*%
%TA.AperFunction,Conductor*%
%ADD19C,0.254000*%
%TD*%
%TA.AperFunction,Conductor*%
%ADD20C,0.508000*%
%TD*%
G04 APERTURE END LIST*
D10*
%TO.P,C1,2*%
%TO.N,GND*%
X-36620000Y70850000D03*
%TO.P,C1,1*%
%TO.N,3V3*%
X-36620000Y72250000D03*
%TD*%
D11*
%TO.P,Con1,1,1*%
%TO.N,3V3*%
X-37050000Y106550000D03*
D12*
%TO.P,Con1,2,2*%
%TO.N,5V*%
X-37050000Y109090000D03*
%TO.P,Con1,3,3*%
%TO.N,/GPIO0(SDA)*%
X-34510000Y106550000D03*
%TO.P,Con1,4,4*%
%TO.N,5V*%
X-34510000Y109090000D03*
%TO.P,Con1,5,5*%
%TO.N,/GPIO1(SCL)*%
X-31970000Y106550000D03*
%TO.P,Con1,6,6*%
%TO.N,GND*%
X-31970000Y109090000D03*
%TO.P,Con1,7,7*%
%TO.N,N/C*%
X-29430000Y106550000D03*
%TO.P,Con1,8,8*%
X-29430000Y109090000D03*
%TO.P,Con1,9,9*%
%TO.N,GND*%
X-26890000Y106550000D03*
%TO.P,Con1,10,10*%
%TO.N,N/C*%
X-26890000Y109090000D03*
%TO.P,Con1,11,11*%
X-24350000Y106550000D03*
%TO.P,Con1,12,12*%
X-24350000Y109090000D03*
%TO.P,Con1,13,13*%
X-21810000Y106550000D03*
%TO.P,Con1,14,14*%
%TO.N,GND*%
X-21810000Y109090000D03*
%TO.P,Con1,15,15*%
%TO.N,N/C*%
X-19270000Y106550000D03*
%TO.P,Con1,16,16*%
%TO.N,/GPIO23*%
X-19270000Y109090000D03*
%TO.P,Con1,17,17*%
%TO.N,3V3*%
X-16730000Y106550000D03*
%TO.P,Con1,18,18*%
%TO.N,N/C*%
X-16730000Y109090000D03*
%TO.P,Con1,19,19*%
%TO.N,/GPIO10(MOSI)*%
X-14190000Y106550000D03*
%TO.P,Con1,20,20*%
%TO.N,GND*%
X-14190000Y109090000D03*
%TO.P,Con1,21,21*%
%TO.N,/GPIO9(MISO)*%
X-11650000Y106550000D03*
%TO.P,Con1,22,22*%
%TO.N,/GPIO25*%
X-11650000Y109090000D03*
%TO.P,Con1,23,23*%
%TO.N,/GPIO11(SCLK)*%
X-9110000Y106550000D03*
%TO.P,Con1,24,24*%
%TO.N,/GPIO8(CE0)*%
X-9110000Y109090000D03*
%TO.P,Con1,25,25*%
%TO.N,GND*%
X-6570000Y106550000D03*
%TO.P,Con1,26,26*%
%TO.N,N/C*%
X-6570000Y109090000D03*
%TD*%
D13*
%TO.P,Con2,0*%
%TO.N,N/C*%
X-33230000Y65100000D03*
X-33230000Y94400000D03*
D14*
%TO.P,Con2,1,1*%
X-33830000Y91550000D03*
%TO.P,Con2,2,2*%
%TO.N,3V3*%
X-25630000Y91150000D03*
%TO.P,Con2,3,3*%
%TO.N,N/C*%
X-33830000Y90750000D03*
%TO.P,Con2,4,4*%
%TO.N,GND*%
X-25630000Y90350000D03*
%TO.P,Con2,5,5*%
%TO.N,N/C*%
X-33830000Y89950000D03*
%TO.P,Con2,6,6*%
X-25630000Y89550000D03*
%TO.P,Con2,7,7*%
X-33830000Y89150000D03*
%TO.P,Con2,8,8*%
X-25630000Y88750000D03*
%TO.P,Con2,9,9*%
%TO.N,GND*%
X-33830000Y88350000D03*
%TO.P,Con2,10,10*%
%TO.N,N/C*%
X-25630000Y87950000D03*
%TO.P,Con2,11,11*%
X-33830000Y87550000D03*
%TO.P,Con2,12,12*%
X-25630000Y87150000D03*
%TO.P,Con2,13,13*%
X-33830000Y86750000D03*
%TO.P,Con2,14,14*%
X-25630000Y86350000D03*
%TO.P,Con2,15,15*%
%TO.N,GND*%
X-33830000Y85950000D03*
%TO.P,Con2,16,16*%
%TO.N,N/C*%
X-25630000Y85550000D03*
%TO.P,Con2,17,17*%
X-33830000Y81950000D03*
%TO.P,Con2,18,18*%
%TO.N,GND*%
X-25630000Y81550000D03*
%TO.P,Con2,19,19*%
%TO.N,/GPIO23*%
X-33830000Y81150000D03*
%TO.P,Con2,20,20*%
%TO.N,GND*%
X-25630000Y80750000D03*
%TO.P,Con2,21,21*%
X-33830000Y80350000D03*
%TO.P,Con2,22,22*%
%TO.N,/GPIO25*%
X-25630000Y79950000D03*
%TO.P,Con2,23,23*%
%TO.N,N/C*%
X-33830000Y79550000D03*
%TO.P,Con2,24,24*%
%TO.N,3V3*%
X-25630000Y79150000D03*
%TO.P,Con2,25,25*%
%TO.N,N/C*%
X-33830000Y78750000D03*
%TO.P,Con2,26,26*%
%TO.N,GND*%
X-25630000Y78350000D03*
%TO.P,Con2,27,27*%
X-33830000Y77950000D03*
%TO.P,Con2,28,28*%
%TO.N,N/C*%
X-25630000Y77550000D03*
%TO.P,Con2,29,29*%
%TO.N,GND*%
X-33830000Y77150000D03*
%TO.P,Con2,30,30*%
%TO.N,N/C*%
X-25630000Y76750000D03*
%TO.P,Con2,31,31*%
X-33830000Y76350000D03*
%TO.P,Con2,32,32*%
X-25630000Y75950000D03*
%TO.P,Con2,33,33*%
X-33830000Y75550000D03*
%TO.P,Con2,34,34*%
%TO.N,GND*%
X-25630000Y75150000D03*
%TO.P,Con2,35,35*%
X-33830000Y74750000D03*
%TO.P,Con2,36,36*%
%TO.N,N/C*%
X-25630000Y74350000D03*
%TO.P,Con2,37,37*%
%TO.N,GND*%
X-33830000Y73950000D03*
%TO.P,Con2,38,38*%
%TO.N,N/C*%
X-25630000Y73550000D03*
%TO.P,Con2,39,39*%
%TO.N,3V3*%
X-33830000Y73150000D03*
%TO.P,Con2,40,40*%
%TO.N,GND*%
X-25630000Y72750000D03*
%TO.P,Con2,41,41*%
%TO.N,3V3*%
X-33830000Y72350000D03*
%TO.P,Con2,42,42*%
%TO.N,N/C*%
X-25630000Y71950000D03*
%TO.P,Con2,43,43*%
%TO.N,GND*%
X-33830000Y71550000D03*
%TO.P,Con2,44,44*%
%TO.N,N/C*%
X-25630000Y71150000D03*
%TO.P,Con2,45,45*%
%TO.N,/GPIO11(SCLK)*%
X-33830000Y70750000D03*
%TO.P,Con2,46,46*%
%TO.N,N/C*%
X-25630000Y70350000D03*
%TO.P,Con2,47,47*%
%TO.N,/GPIO9(MISO)*%
X-33830000Y69950000D03*
%TO.P,Con2,48,48*%
%TO.N,N/C*%
X-25630000Y69550000D03*
%TO.P,Con2,49,49*%
%TO.N,/GPIO10(MOSI)*%
X-33830000Y69150000D03*
%TO.P,Con2,50,50*%
%TO.N,GND*%
X-25630000Y68750000D03*
%TO.P,Con2,51,51*%
%TO.N,/GPIO8(CE0)*%
X-33830000Y68350000D03*
%TO.P,Con2,52,52*%
%TO.N,3V3*%
X-25630000Y67950000D03*
%TD*%
D10*
%TO.P,C2,1*%
%TO.N,3V3*%
X-36620000Y73370000D03*
%TO.P,C2,2*%
%TO.N,GND*%
X-36620000Y74770000D03*
%TD*%
D15*
%TO.P,D1,1,A*%
%TO.N,Net-(D1-Pad1)*%
X-16300000Y99160000D03*
%TO.P,D1,2,K*%
%TO.N,GND*%
X-14900000Y99160000D03*
%TD*%
%TO.P,R3,1*%
%TO.N,Net-(D1-Pad1)*%
X-17590000Y99160000D03*
%TO.P,R3,2*%
%TO.N,3V3*%
X-18990000Y99160000D03*
%TD*%
%TO.P,C3,1*%
%TO.N,5V*%
X-35230000Y103390000D03*
%TO.P,C3,2*%
%TO.N,GND*%
X-33830000Y103390000D03*
%TD*%
%TO.P,C4,1*%
%TO.N,3V3*%
X-35030000Y97580000D03*
%TO.P,C4,2*%
%TO.N,GND*%
X-33630000Y97580000D03*
%TD*%
D16*
%TO.P,U1,1,VOUT*%
%TO.N,3V3*%
X-35520000Y99190000D03*
%TO.P,U1,2,ADJ/SENSE*%
X-34570000Y99190000D03*
%TO.P,U1,3,GND*%
%TO.N,GND*%
X-33620000Y99190000D03*
%TO.P,U1,4,PG*%
%TO.N,N/C*%
X-33620000Y101870000D03*
%TO.P,U1,5,EN*%
%TO.N,5V*%
X-34570000Y101870000D03*
%TO.P,U1,6,VIN*%
X-35520000Y101870000D03*
D17*
%TO.P,U1,EP,EP*%
%TO.N,GND*%
X-34570000Y100530000D03*
%TD*%
D18*
%TO.N,GND*%
X-30190000Y95610000D03*
X-31110000Y96640000D03*
X-27490000Y65560000D03*
X-22760000Y67040000D03*
X-22140000Y65770000D03*
X-22670000Y73170000D03*
X-22520000Y75760000D03*
X-22320000Y78330000D03*
X-15680000Y88980000D03*
X-23150000Y83860000D03*
X-21840000Y85280000D03*
X-21100000Y88350000D03*
X-29490000Y101670000D03*
X-28900000Y97280000D03*
X-31730000Y90370000D03*
X-34250000Y83900000D03*
X-28720000Y86700000D03*
X-29100000Y88350000D03*
X-21740000Y68390000D03*
X-12960000Y92170000D03*
X-13380000Y86530000D03*
X-8630000Y89220000D03*
X-8780000Y96940000D03*
X-19350000Y95990000D03*
%TO.N,/GPIO11(SCLK)*%
X-17890000Y70240000D03*
X-31880000Y70990000D03*
%TO.N,/GPIO8(CE0)*%
X-30830000Y68380000D03*
X-18620000Y69410000D03*
%TO.N,/GPIO9(MISO)*%
X-19420000Y70270000D03*
X-30755595Y70372929D03*
%TO.N,/GPIO10(MOSI)*%
X-20487506Y70145655D03*
X-29840000Y69800000D03*
%TO.N,GND*%
X-27420000Y81590000D03*
X-31500224Y75500211D03*
X-14047010Y99047681D03*
X-30920000Y79040000D03*
X-23110000Y90010000D03*
X-19930000Y103080000D03*
X-23250000Y96700000D03*
X-21730000Y99710000D03*
X-18970000Y103840000D03*
X-16450000Y93140000D03*
X-26030000Y103220000D03*
X-24980000Y104130000D03*
X-22260000Y93780000D03*
X-30990000Y76790000D03*
X-29140000Y93760000D03*
%TD*%
D19*
%TO.N,/GPIO23*%
X-33830000Y81150000D02*
X-32610000Y81150000D01*
X-32610000Y81150000D02*
X-31610000Y82150000D01*
X-31610000Y82150000D02*
X-31610000Y87940000D01*
X-31610000Y87940000D02*
X-25530000Y94020000D01*
X-25530000Y94020000D02*
X-25530000Y100570000D01*
X-25530000Y100570000D02*
X-20619389Y105480611D01*
X-20619389Y105480611D02*
X-20619389Y107740611D01*
X-20619389Y107740611D02*
X-19270000Y109090000D01*
%TO.N,5V*%
X-37050000Y109090000D02*
X-36480000Y109090000D01*
X-34510000Y109090000D02*
X-34510000Y108430000D01*
%TO.N,/GPIO9(MISO)*%
X-11650000Y106550000D02*
X-10920000Y105820000D01*
X-10920000Y105820000D02*
X-10920000Y80510000D01*
X-10920000Y80510000D02*
X-19370000Y72060000D01*
X-19370000Y72060000D02*
X-19370000Y70320000D01*
X-19370000Y70320000D02*
X-19420000Y70270000D01*
%TO.N,/GPIO10(MOSI)*%
X-14190000Y106550000D02*
X-11510000Y103870000D01*
X-11510000Y103870000D02*
X-11510000Y80782068D01*
X-11510000Y80782068D02*
X-20100000Y72192068D01*
X-20100000Y72192068D02*
X-20100000Y70533161D01*
X-20100000Y70533161D02*
X-20487506Y70145655D01*
%TO.N,/GPIO25*%
X-11650000Y109090000D02*
X-12840611Y107899389D01*
X-14602716Y107899389D02*
X-15539389Y106962716D01*
X-12840611Y107899389D02*
X-14602716Y107899389D01*
X-18310000Y101580000D02*
X-18310000Y85320000D01*
X-15539389Y106962716D02*
X-15539389Y104350611D01*
X-15539389Y104350611D02*
X-18310000Y101580000D01*
X-18310000Y85320000D02*
X-23680000Y79950000D01*
X-23680000Y79950000D02*
X-25630000Y79950000D01*
%TO.N,GND*%
X-33830000Y74750000D02*
X-33850000Y74770000D01*
X-33850000Y74770000D02*
X-36620000Y74770000D01*
X-33830000Y71550000D02*
X-35110000Y71550000D01*
X-35110000Y71550000D02*
X-35870000Y70790000D01*
X-35870000Y70790000D02*
X-36560000Y70790000D01*
X-36560000Y70790000D02*
X-36620000Y70850000D01*
%TO.N,/GPIO9(MISO)*%
X-31178524Y69950000D02*
X-30755595Y70372929D01*
X-33830000Y69950000D02*
X-31178524Y69950000D01*
%TO.N,/GPIO10(MOSI)*%
X-30490000Y69150000D02*
X-29840000Y69800000D01*
X-33830000Y69150000D02*
X-30490000Y69150000D01*
%TO.N,/GPIO11(SCLK)*%
X-32120000Y70750000D02*
X-31880000Y70990000D01*
X-33830000Y70750000D02*
X-32120000Y70750000D01*
X-9110000Y106550000D02*
X-9760000Y105900000D01*
X-17890000Y71780000D02*
X-17890000Y70240000D01*
X-9760000Y105900000D02*
X-9760000Y79910000D01*
X-9760000Y79910000D02*
X-17890000Y71780000D01*
%TO.N,/GPIO8(CE0)*%
X-18620000Y69410000D02*
X-18620000Y71920000D01*
X-18620000Y71920000D02*
X-10330000Y80210000D01*
X-10330000Y107870000D02*
X-9110000Y109090000D01*
X-10330000Y80210000D02*
X-10330000Y107870000D01*
X-33830000Y68350000D02*
X-30860000Y68350000D01*
X-30860000Y68350000D02*
X-30830000Y68380000D01*
%TO.N,GND*%
X-14159329Y99160000D02*
X-14047010Y99047681D01*
X-14900000Y99160000D02*
X-14159329Y99160000D01*
X-25630000Y90350000D02*
X-23450000Y90350000D01*
X-23450000Y90350000D02*
X-23110000Y90010000D01*
D20*
%TO.N,3V3*%
X-36620000Y72250000D02*
X-36520000Y72350000D01*
X-35030000Y97580000D02*
X-35030000Y97440000D01*
X-36990000Y106490000D02*
X-37050000Y106550000D01*
D19*
%TO.N,/GPIO11(SCLK)*%
X-33810000Y70730000D02*
X-33830000Y70750000D01*
%TO.N,/GPIO8(CE0)*%
X-9110000Y108880000D02*
X-9110000Y109090000D01*
%TO.N,/GPIO10(MOSI)*%
X-14250000Y106490000D02*
X-14190000Y106550000D01*
%TO.N,Net-(D1-Pad1)*%
X-16300000Y99160000D02*
X-17590000Y99160000D01*
%TD*%
%TA.AperFunction,Conductor*%
%TO.N,GND*%
G36*
X13929382Y111579555D02*
G01*
X15139618Y111578405D01*
X17290122Y111576361D01*
X17358221Y111556294D01*
X17404663Y111502594D01*
X17416000Y111450361D01*
X17416000Y98867547D01*
X17413579Y98842967D01*
X17411000Y98830000D01*
X17416000Y98804863D01*
X17430715Y98730885D01*
X17437609Y98720567D01*
X17437610Y98720565D01*
X17479966Y98657175D01*
X17486859Y98646859D01*
X17497175Y98639966D01*
X17560565Y98597610D01*
X17560567Y98597609D01*
X17570885Y98590715D01*
X17670000Y98571000D01*
X17682171Y98573421D01*
X17682173Y98573421D01*
X17682967Y98573579D01*
X17707547Y98576000D01*
X31642453Y98576000D01*
X31667033Y98573579D01*
X31667827Y98573421D01*
X31667829Y98573421D01*
X31680000Y98571000D01*
X31779115Y98590715D01*
X31789433Y98597609D01*
X31789435Y98597610D01*
X31852825Y98639966D01*
X31863141Y98646859D01*
X31870034Y98657175D01*
X31912390Y98720565D01*
X31912391Y98720567D01*
X31919285Y98730885D01*
X31934000Y98804863D01*
X31939000Y98830000D01*
X31936421Y98842967D01*
X31934000Y98867547D01*
X31934000Y111450000D01*
X31954002Y111518121D01*
X32007658Y111564614D01*
X32060000Y111576000D01*
X45310000Y111576000D01*
X45378121Y111555998D01*
X45424614Y111502342D01*
X45436000Y111450000D01*
X45436000Y95210000D01*
X45415998Y95141879D01*
X45362342Y95095386D01*
X45310000Y95084000D01*
X34727547Y95084000D01*
X34702967Y95086421D01*
X34702173Y95086579D01*
X34702171Y95086579D01*
X34690000Y95089000D01*
X34664863Y95084000D01*
X34590885Y95069285D01*
X34580567Y95062391D01*
X34580565Y95062390D01*
X34517175Y95020034D01*
X34506859Y95013141D01*
X34499966Y95002825D01*
X34457610Y94939435D01*
X34457609Y94939433D01*
X34450715Y94929115D01*
X34431000Y94830000D01*
X34433421Y94817829D01*
X34433421Y94817827D01*
X34433579Y94817033D01*
X34436000Y94792453D01*
X34436000Y79337547D01*
X34433579Y79312967D01*
X34431000Y79300000D01*
X34436000Y79274863D01*
X34450715Y79200885D01*
X34457609Y79190567D01*
X34457610Y79190565D01*
X34460865Y79185694D01*
X34506859Y79116859D01*
X34517175Y79109966D01*
X34580565Y79067610D01*
X34580567Y79067609D01*
X34590885Y79060715D01*
X34690000Y79041000D01*
X34702171Y79043421D01*
X34702173Y79043421D01*
X34702967Y79043579D01*
X34727547Y79046000D01*
X45310000Y79046000D01*
X45378121Y79025998D01*
X45424614Y78972342D01*
X45436000Y78920000D01*
X45436000Y75210000D01*
X45415998Y75141879D01*
X45362342Y75095386D01*
X45310000Y75084000D01*
X24727547Y75084000D01*
X24702967Y75086421D01*
X24702173Y75086579D01*
X24702171Y75086579D01*
X24690000Y75089000D01*
X24664863Y75084000D01*
X24590885Y75069285D01*
X24580567Y75062391D01*
X24580565Y75062390D01*
X24517175Y75020034D01*
X24506859Y75013141D01*
X24499966Y75002825D01*
X24457610Y74939435D01*
X24457609Y74939433D01*
X24450715Y74929115D01*
X24431000Y74830000D01*
X24433421Y74817829D01*
X24433421Y74817827D01*
X24433579Y74817033D01*
X24436000Y74792453D01*
X24436000Y56210000D01*
X24415998Y56141879D01*
X24362342Y56095386D01*
X24310000Y56084000D01*
X-38930000Y56084000D01*
X-38998121Y56104002D01*
X-39044614Y56157658D01*
X-39056000Y56210000D01*
X-39056000Y66250000D01*
X-35089500Y66250000D01*
X-35089500Y63950000D01*
X-35069747Y63850694D01*
X-35013494Y63766506D01*
X-34929306Y63710253D01*
X-34830000Y63690500D01*
X-31630000Y63690500D01*
X-31530694Y63710253D01*
X-31446506Y63766506D01*
X-31390253Y63850694D01*
X-31370500Y63950000D01*
X-31370500Y66250000D01*
X-31390253Y66349306D01*
X-31446506Y66433494D01*
X-31530694Y66489747D01*
X-31630000Y66509500D01*
X-34830000Y66509500D01*
X-34929306Y66489747D01*
X-35013494Y66433494D01*
X-35069747Y66349306D01*
X-35089500Y66250000D01*
X-39056000Y66250000D01*
X-39056000Y110694000D01*
X-38664000Y110694000D01*
X-38664000Y108206000D01*
X-38663640Y108202653D01*
X-38663640Y108202649D01*
X-38659492Y108164068D01*
X-38658196Y108152010D01*
X-38657478Y108148710D01*
X-38657478Y108148709D01*
X-38652392Y108125331D01*
X-38646810Y108099668D01*
X-38639616Y108073445D01*
X-38622849Y108044000D01*
X-38593638Y107992702D01*
X-38593635Y107992698D01*
X-38590575Y107987324D01*
X-38573804Y107967969D01*
X-38546390Y107936332D01*
X-38544082Y107933668D01*
X-38511498Y107902227D01*
X-38503517Y107898052D01*
X-38503514Y107898050D01*
X-38465162Y107877989D01*
X-38414071Y107828691D01*
X-38397744Y107759598D01*
X-38421363Y107692645D01*
X-38443480Y107670708D01*
X-38442779Y107669900D01*
X-38496408Y107623377D01*
X-38527829Y107590778D01*
X-38532000Y107582794D01*
X-38532001Y107582792D01*
X-38567054Y107515689D01*
X-38573716Y107502935D01*
X-38593680Y107434803D01*
X-38594318Y107430351D01*
X-38594318Y107430349D01*
X-38601183Y107382408D01*
X-38603929Y107363236D01*
X-38600942Y102045247D01*
X-38600745Y101694903D01*
X-38584216Y72266001D01*
X-38584070Y72005326D01*
X-38578348Y71951860D01*
X-38567152Y71900008D01*
X-38560168Y71874286D01*
X-38511442Y71787986D01*
X-38465146Y71734161D01*
X-38432677Y71702601D01*
X-38424709Y71698396D01*
X-38424708Y71698395D01*
X-38350509Y71659236D01*
X-38345029Y71656344D01*
X-38339091Y71654577D01*
X-38339089Y71654576D01*
X-38302744Y71643760D01*
X-38276982Y71636093D01*
X-38272537Y71635437D01*
X-38272531Y71635436D01*
X-38209910Y71626199D01*
X-38209904Y71626199D01*
X-38205460Y71625543D01*
X-37574902Y71623236D01*
X-35359833Y71615132D01*
X-35356273Y71615119D01*
X-35299416Y71621351D01*
X-35244416Y71633766D01*
X-35190399Y71652560D01*
X-35187194Y71654099D01*
X-35187189Y71654101D01*
X-35176189Y71659383D01*
X-35176165Y71659395D01*
X-35175852Y71659545D01*
X-35170506Y71662190D01*
X-35167627Y71663657D01*
X-35128192Y71676126D01*
X-35125027Y71676576D01*
X-35119107Y71677490D01*
X-35118622Y71677571D01*
X-35118471Y71677595D01*
X-35108082Y71678810D01*
X-35108082Y71678813D01*
X-35093172Y71680134D01*
X-35086465Y71680928D01*
X-35086465Y71680927D01*
X-35086452Y71680930D01*
X-35082818Y71681360D01*
X-35079911Y71681704D01*
X-35043428Y71688756D01*
X-35041221Y71689353D01*
X-35041208Y71689356D01*
X-35021055Y71694808D01*
X-35007948Y71698353D01*
X-34998373Y71701146D01*
X-34911389Y71748642D01*
X-34867284Y71785501D01*
X-34866480Y71784540D01*
X-34854577Y71796443D01*
X-34850351Y71799267D01*
X-34780353Y71820500D01*
X-32899715Y71820500D01*
X-32831594Y71800498D01*
X-32802256Y71773102D01*
X-32801696Y71773565D01*
X-32768787Y71733742D01*
X-32732530Y71697996D01*
X-32714303Y71681680D01*
X-32626655Y71635423D01*
X-32620717Y71633656D01*
X-32620715Y71633655D01*
X-32584370Y71622839D01*
X-32558608Y71615172D01*
X-32554163Y71614516D01*
X-32554157Y71614515D01*
X-32507380Y71607615D01*
X-32487086Y71604622D01*
X-32482589Y71604606D01*
X-32481851Y71604550D01*
X-32415423Y71579494D01*
X-32373086Y71522502D01*
X-32368282Y71451668D01*
X-32399455Y71392651D01*
X-32413547Y71377644D01*
X-32417365Y71370699D01*
X-32417368Y71370695D01*
X-32481977Y71253173D01*
X-32532322Y71203114D01*
X-32601739Y71188221D01*
X-32662391Y71209108D01*
X-32730694Y71254747D01*
X-32830000Y71274500D01*
X-34830000Y71274500D01*
X-34929306Y71254747D01*
X-35013494Y71198494D01*
X-35069747Y71114306D01*
X-35089500Y71015000D01*
X-35089500Y70485000D01*
X-35088293Y70478932D01*
X-35069747Y70385694D01*
X-35070942Y70385456D01*
X-35064725Y70327627D01*
X-35067766Y70317271D01*
X-35069747Y70314306D01*
X-35089500Y70215000D01*
X-35089500Y69685000D01*
X-35070369Y69588821D01*
X-35069747Y69585694D01*
X-35070942Y69585456D01*
X-35064725Y69527627D01*
X-35067766Y69517271D01*
X-35069747Y69514306D01*
X-35089500Y69415000D01*
X-35089500Y68885000D01*
X-35088293Y68878932D01*
X-35069747Y68785694D01*
X-35070942Y68785456D01*
X-35064725Y68727627D01*
X-35067766Y68717271D01*
X-35069747Y68714306D01*
X-35089500Y68615000D01*
X-35089500Y68085000D01*
X-35069747Y67985694D01*
X-35013494Y67901506D01*
X-34929306Y67845253D01*
X-34830000Y67825500D01*
X-32830000Y67825500D01*
X-32730694Y67845253D01*
X-32646506Y67901506D01*
X-32639160Y67912500D01*
X-32637790Y67913645D01*
X-32630836Y67920599D01*
X-32630214Y67919977D01*
X-32584684Y67958029D01*
X-32534394Y67968500D01*
X-31395670Y67968500D01*
X-31327549Y67948498D01*
X-31303821Y67928754D01*
X-31255809Y67877627D01*
X-31250381Y67871847D01*
X-31110801Y67783267D01*
X-31103262Y67780817D01*
X-31103259Y67780816D01*
X-30961116Y67734631D01*
X-30961114Y67734631D01*
X-30953578Y67732182D01*
X-30945669Y67731684D01*
X-30945667Y67731684D01*
X-30871084Y67726992D01*
X-30788590Y67721801D01*
X-30780806Y67723286D01*
X-30780804Y67723286D01*
X-30633990Y67751292D01*
X-30633986Y67751293D01*
X-30626203Y67752778D01*
X-30619030Y67756153D01*
X-30618425Y67756350D01*
X-30547458Y67758378D01*
X-30486660Y67721715D01*
X-30455334Y67658003D01*
X-30461088Y67593423D01*
X-30514392Y67446971D01*
X-30514393Y67446966D01*
X-30516802Y67440348D01*
X-30539421Y67261302D01*
X-30521810Y67081695D01*
X-30464846Y66910454D01*
X-30461199Y66904432D01*
X-30461198Y66904430D01*
X-30382005Y66773668D01*
X-30371358Y66756087D01*
X-30245995Y66626270D01*
X-30094985Y66527452D01*
X-29925836Y66464546D01*
X-29918855Y66463615D01*
X-29918853Y66463614D01*
X-29753934Y66441609D01*
X-29753930Y66441609D01*
X-29746953Y66440678D01*
X-29739942Y66441316D01*
X-29739938Y66441316D01*
X-29574248Y66456395D01*
X-29567227Y66457034D01*
X-29409469Y66508293D01*
X-29402292Y66510625D01*
X-29395592Y66512802D01*
X-29364541Y66531312D01*
X-29246629Y66601601D01*
X-29246627Y66601602D01*
X-29240577Y66605209D01*
X-29169891Y66672522D01*
X-29144264Y66696926D01*
X-29081139Y66729418D01*
X-29010468Y66722624D01*
X-28998972Y66717328D01*
X-28964241Y66699161D01*
X-28964231Y66699157D01*
X-28958752Y66696291D01*
X-28890631Y66676289D01*
X-28886172Y66675648D01*
X-28886168Y66675647D01*
X-28864432Y66672522D01*
X-28819071Y66666000D01*
X-24286000Y66666000D01*
X-24282653Y66666360D01*
X-24282649Y66666360D01*
X-24235374Y66671442D01*
X-24235367Y66671443D01*
X-24232010Y66671804D01*
X-24228709Y66672522D01*
X-24181322Y66682830D01*
X-24181315Y66682832D01*
X-24179668Y66683190D01*
X-24153445Y66690384D01*
X-24112680Y66713597D01*
X-24072702Y66736362D01*
X-24072698Y66736365D01*
X-24067324Y66739425D01*
X-24027805Y66773668D01*
X-24015791Y66784078D01*
X-24015786Y66784083D01*
X-24013668Y66785918D01*
X-23982227Y66818502D01*
X-23936291Y66906319D01*
X-23916289Y66974440D01*
X-23906000Y67046000D01*
X-23906000Y67541215D01*
X16764299Y67541215D01*
X16801704Y67293887D01*
X16803253Y67289063D01*
X16803254Y67289058D01*
X16814417Y67254290D01*
X16878170Y67055721D01*
X16880468Y67051211D01*
X16880470Y67051206D01*
X16880827Y67050506D01*
X16991732Y66832844D01*
X17139466Y66630991D01*
X17317573Y66455354D01*
X17321698Y66452422D01*
X17321701Y66452420D01*
X17348333Y66433494D01*
X17521469Y66310452D01*
X17745910Y66200014D01*
X17750749Y66198535D01*
X17750753Y66198533D01*
X17980272Y66128362D01*
X17980274Y66128362D01*
X17985120Y66126880D01*
X17990141Y66126192D01*
X17990142Y66126192D01*
X18227923Y66093620D01*
X18232946Y66092932D01*
X18305588Y66094707D01*
X18477951Y66098919D01*
X18477955Y66098919D01*
X18483012Y66099043D01*
X18728884Y66145057D01*
X18964236Y66229789D01*
X19183014Y66351059D01*
X19186992Y66354189D01*
X19186996Y66354192D01*
X19375613Y66502619D01*
X19375614Y66502620D01*
X19379589Y66505748D01*
X19548903Y66689876D01*
X19686600Y66898705D01*
X19750792Y67041537D01*
X19787065Y67122247D01*
X19787067Y67122253D01*
X19789139Y67126863D01*
X19790447Y67131744D01*
X19790449Y67131750D01*
X19852572Y67363598D01*
X19852572Y67363599D01*
X19853880Y67368480D01*
X19879158Y67617340D01*
X19879500Y67650000D01*
X19871231Y67752778D01*
X19859845Y67894294D01*
X19859844Y67894299D01*
X19859439Y67899335D01*
X19856206Y67912500D01*
X19800979Y68137341D01*
X19799772Y68142255D01*
X19743704Y68274344D01*
X19704011Y68367853D01*
X19704010Y68367855D01*
X19702034Y68372510D01*
X19695175Y68383403D01*
X19571433Y68579902D01*
X19568741Y68584177D01*
X19551378Y68603872D01*
X19406664Y68768017D01*
X19403320Y68771810D01*
X19210028Y68930582D01*
X19017164Y69042832D01*
X18998206Y69053866D01*
X18998204Y69053867D01*
X18993838Y69056408D01*
X18917087Y69085870D01*
X18765036Y69144237D01*
X18765032Y69144238D01*
X18760312Y69146050D01*
X18755362Y69147084D01*
X18755359Y69147085D01*
X18520408Y69196169D01*
X18520404Y69196169D01*
X18515457Y69197203D01*
X18265574Y69208550D01*
X18260554Y69207969D01*
X18260550Y69207969D01*
X18022122Y69180382D01*
X18017092Y69179800D01*
X18012221Y69178422D01*
X18012218Y69178421D01*
X17948096Y69160276D01*
X17776402Y69111691D01*
X17549698Y69005977D01*
X17545518Y69003136D01*
X17545514Y69003134D01*
X17380788Y68891187D01*
X17342811Y68865378D01*
X17339134Y68861901D01*
X17339128Y68861896D01*
X17183058Y68714306D01*
X17161066Y68693509D01*
X17009136Y68494794D01*
X17006746Y68490336D01*
X17006745Y68490335D01*
X16989031Y68457298D01*
X16890932Y68274344D01*
X16809495Y68037832D01*
X16808634Y68032849D01*
X16808633Y68032844D01*
X16772818Y67825500D01*
X16766918Y67791342D01*
X16764299Y67541215D01*
X-23906000Y67541215D01*
X-23906000Y68244000D01*
X-23909262Y68274344D01*
X-23911442Y68294626D01*
X-23911443Y68294633D01*
X-23911804Y68297990D01*
X-23923190Y68350332D01*
X-23930384Y68376555D01*
X-23953597Y68417320D01*
X-23976362Y68457298D01*
X-23976365Y68457302D01*
X-23979425Y68462676D01*
X-24019478Y68508900D01*
X-24024078Y68514209D01*
X-24024083Y68514214D01*
X-24025918Y68516332D01*
X-24058502Y68547773D01*
X-24146319Y68593709D01*
X-24214440Y68613711D01*
X-24218899Y68614352D01*
X-24218903Y68614353D01*
X-24251211Y68618998D01*
X-24286000Y68624000D01*
X-24333391Y68624000D01*
X-24355560Y68621717D01*
X-24381957Y68618998D01*
X-24381964Y68618997D01*
X-24385167Y68618667D01*
X-24388321Y68618010D01*
X-24388323Y68618010D01*
X-24433979Y68608504D01*
X-24433989Y68608502D01*
X-24435457Y68608196D01*
X-24447298Y68605117D01*
X-24452089Y68603872D01*
X-24452090Y68603872D01*
X-24459581Y68601924D01*
X-24546564Y68554427D01*
X-24593457Y68515237D01*
X-24595624Y68517830D01*
X-24596458Y68517080D01*
X-24594356Y68514901D01*
X-24594441Y68514819D01*
X-24597272Y68513338D01*
X-24596637Y68512578D01*
X-24601038Y68508900D01*
X-24602474Y68510618D01*
X-24605293Y68509144D01*
X-24616869Y68498745D01*
X-24619025Y68497617D01*
X-24620810Y68501029D01*
X-24657354Y68481918D01*
X-24681922Y68479500D01*
X-26576329Y68479500D01*
X-26644450Y68499502D01*
X-26664625Y68515612D01*
X-26671341Y68522209D01*
X-26680492Y68531198D01*
X-26690450Y68540063D01*
X-26693329Y68542626D01*
X-26693330Y68542627D01*
X-26699111Y68547773D01*
X-26711831Y68554427D01*
X-26760533Y68579902D01*
X-26786928Y68593709D01*
X-26855049Y68613711D01*
X-26859508Y68614352D01*
X-26859512Y68614353D01*
X-26891820Y68618998D01*
X-26926609Y68624000D01*
X-27920000Y68624000D01*
X-27988121Y68644002D01*
X-28034614Y68697658D01*
X-28046000Y68750000D01*
X-28046000Y72215000D01*
X-26889500Y72215000D01*
X-26889500Y71685000D01*
X-26886051Y71667663D01*
X-26869747Y71585694D01*
X-26870942Y71585456D01*
X-26864725Y71527627D01*
X-26867766Y71517271D01*
X-26869747Y71514306D01*
X-26889500Y71415000D01*
X-26889500Y70885000D01*
X-26888293Y70878932D01*
X-26869747Y70785694D01*
X-26870942Y70785456D01*
X-26864725Y70727627D01*
X-26867766Y70717271D01*
X-26869747Y70714306D01*
X-26889500Y70615000D01*
X-26889500Y70085000D01*
X-26888293Y70078932D01*
X-26869747Y69985694D01*
X-26870942Y69985456D01*
X-26864725Y69927627D01*
X-26867766Y69917271D01*
X-26869747Y69914306D01*
X-26889500Y69815000D01*
X-26889500Y69285000D01*
X-26869747Y69185694D01*
X-26813494Y69101506D01*
X-26729306Y69045253D01*
X-26630000Y69025500D01*
X-24630000Y69025500D01*
X-24530694Y69045253D01*
X-24446506Y69101506D01*
X-24390253Y69185694D01*
X-24370500Y69285000D01*
X-24370500Y69815000D01*
X-24390253Y69914306D01*
X-24389058Y69914544D01*
X-24395275Y69972373D01*
X-24392234Y69982729D01*
X-24390253Y69985694D01*
X-24370500Y70085000D01*
X-24370500Y70615000D01*
X-24390253Y70714306D01*
X-24389058Y70714544D01*
X-24395275Y70772373D01*
X-24392234Y70782729D01*
X-24390253Y70785694D01*
X-24370500Y70885000D01*
X-24370500Y71415000D01*
X-24390253Y71514306D01*
X-24389058Y71514544D01*
X-24395275Y71572373D01*
X-24392234Y71582729D01*
X-24390253Y71585694D01*
X-24370500Y71685000D01*
X-24370500Y72215000D01*
X-24390253Y72314306D01*
X-24446506Y72398494D01*
X-24530694Y72454747D01*
X-24630000Y72474500D01*
X-26630000Y72474500D01*
X-26729306Y72454747D01*
X-26813494Y72398494D01*
X-26869747Y72314306D01*
X-26889500Y72215000D01*
X-28046000Y72215000D01*
X-28046000Y74615000D01*
X-26889500Y74615000D01*
X-26889500Y74085000D01*
X-26888293Y74078932D01*
X-26869747Y73985694D01*
X-26870942Y73985456D01*
X-26864725Y73927627D01*
X-26867766Y73917271D01*
X-26869747Y73914306D01*
X-26889500Y73815000D01*
X-26889500Y73285000D01*
X-26869747Y73185694D01*
X-26813494Y73101506D01*
X-26729306Y73045253D01*
X-26630000Y73025500D01*
X-24630000Y73025500D01*
X-24530694Y73045253D01*
X-24446506Y73101506D01*
X-24390253Y73185694D01*
X-24370500Y73285000D01*
X-24370500Y73815000D01*
X-24390253Y73914306D01*
X-24389058Y73914544D01*
X-24395275Y73972373D01*
X-24392234Y73982729D01*
X-24390253Y73985694D01*
X-24370500Y74085000D01*
X-24370500Y74615000D01*
X-24390253Y74714306D01*
X-24446506Y74798494D01*
X-24530694Y74854747D01*
X-24630000Y74874500D01*
X-26630000Y74874500D01*
X-26729306Y74854747D01*
X-26813494Y74798494D01*
X-26869747Y74714306D01*
X-26889500Y74615000D01*
X-28046000Y74615000D01*
X-28046000Y77815000D01*
X-26889500Y77815000D01*
X-26889500Y77285000D01*
X-26888293Y77278932D01*
X-26869747Y77185694D01*
X-26870942Y77185456D01*
X-26864725Y77127627D01*
X-26867766Y77117271D01*
X-26869747Y77114306D01*
X-26889500Y77015000D01*
X-26889500Y76485000D01*
X-26888293Y76478932D01*
X-26869747Y76385694D01*
X-26870942Y76385456D01*
X-26864725Y76327627D01*
X-26867766Y76317271D01*
X-26869747Y76314306D01*
X-26889500Y76215000D01*
X-26889500Y75685000D01*
X-26869747Y75585694D01*
X-26813494Y75501506D01*
X-26729306Y75445253D01*
X-26630000Y75425500D01*
X-24630000Y75425500D01*
X-24530694Y75445253D01*
X-24446506Y75501506D01*
X-24390253Y75585694D01*
X-24370500Y75685000D01*
X-24370500Y76215000D01*
X-24390253Y76314306D01*
X-24389058Y76314544D01*
X-24395275Y76372373D01*
X-24392234Y76382729D01*
X-24390253Y76385694D01*
X-24370500Y76485000D01*
X-24370500Y77015000D01*
X-24390253Y77114306D01*
X-24389058Y77114544D01*
X-24395275Y77172373D01*
X-24392234Y77182729D01*
X-24390253Y77185694D01*
X-24370500Y77285000D01*
X-24370500Y77815000D01*
X-24390253Y77914306D01*
X-24446506Y77998494D01*
X-24530694Y78054747D01*
X-24630000Y78074500D01*
X-26630000Y78074500D01*
X-26729306Y78054747D01*
X-26813494Y77998494D01*
X-26869747Y77914306D01*
X-26889500Y77815000D01*
X-28046000Y77815000D01*
X-28046000Y78350000D01*
X-28025998Y78418121D01*
X-27972342Y78464614D01*
X-27920000Y78476000D01*
X-26926609Y78476000D01*
X-26898143Y78478932D01*
X-26878043Y78481002D01*
X-26878036Y78481003D01*
X-26874833Y78481333D01*
X-26871679Y78481990D01*
X-26871677Y78481990D01*
X-26826021Y78491496D01*
X-26826011Y78491498D01*
X-26824543Y78491804D01*
X-26812702Y78494883D01*
X-26807911Y78496128D01*
X-26807910Y78496128D01*
X-26800419Y78498076D01*
X-26713436Y78545573D01*
X-26666543Y78584763D01*
X-26664376Y78582170D01*
X-26663542Y78582920D01*
X-26665644Y78585099D01*
X-26665559Y78585181D01*
X-26662728Y78586662D01*
X-26663363Y78587422D01*
X-26658962Y78591100D01*
X-26657526Y78589382D01*
X-26654707Y78590856D01*
X-26643131Y78601255D01*
X-26640975Y78602383D01*
X-26639190Y78598971D01*
X-26602646Y78618082D01*
X-26578078Y78620500D01*
X-24675528Y78620500D01*
X-24605528Y78599266D01*
X-24597944Y78594199D01*
X-24587627Y78587305D01*
X-24586992Y78588255D01*
X-24573351Y78581426D01*
X-24550220Y78564746D01*
X-24489453Y78536993D01*
X-24486805Y78536059D01*
X-24486798Y78536056D01*
X-24462184Y78527373D01*
X-24446747Y78521927D01*
X-24347784Y78516622D01*
X-24341650Y78517504D01*
X-24341648Y78517504D01*
X-24280303Y78526324D01*
X-24280294Y78526326D01*
X-24277510Y78526726D01*
X-24233445Y78537139D01*
X-24178607Y78568366D01*
X-24152702Y78583117D01*
X-24152698Y78583120D01*
X-24147324Y78586180D01*
X-24093668Y78632673D01*
X-24062227Y78665257D01*
X-24016291Y78753074D01*
X-23996289Y78821195D01*
X-23986000Y78892755D01*
X-23986000Y79407245D01*
X-23986162Y79416310D01*
X-23986483Y79425299D01*
X-23987106Y79428433D01*
X-23975217Y79497889D01*
X-23927306Y79550282D01*
X-23862044Y79568500D01*
X-23732845Y79568500D01*
X-23712172Y79566300D01*
X-23708387Y79566122D01*
X-23698207Y79563930D01*
X-23666968Y79567627D01*
X-23660337Y79568018D01*
X-23660341Y79568072D01*
X-23655165Y79568500D01*
X-23649960Y79568500D01*
X-23629208Y79571954D01*
X-23623330Y79572791D01*
X-23582510Y79577622D01*
X-23582509Y79577622D01*
X-23572170Y79578846D01*
X-23563877Y79582828D01*
X-23554806Y79584338D01*
X-23545645Y79589281D01*
X-23545642Y79589282D01*
X-23509474Y79608798D01*
X-23504221Y79611475D01*
X-23457761Y79633785D01*
X-23451062Y79639415D01*
X-23449126Y79641351D01*
X-23449104Y79641371D01*
X-23443111Y79644605D01*
X-23411019Y79679322D01*
X-23407590Y79682887D01*
X-18077607Y85012870D01*
X-18061434Y85025932D01*
X-18058629Y85028485D01*
X-18049881Y85034133D01*
X-18043436Y85042308D01*
X-18043434Y85042310D01*
X-18030404Y85058839D01*
X-18025990Y85063806D01*
X-18026031Y85063841D01*
X-18022672Y85067805D01*
X-18018997Y85071480D01*
X-18006758Y85088606D01*
X-18003195Y85093352D01*
X-17977754Y85125623D01*
X-17977752Y85125626D01*
X-17971307Y85133802D01*
X-17968259Y85142482D01*
X-17962912Y85149964D01*
X-17955312Y85175375D01*
X-17948155Y85199308D01*
X-17946320Y85204956D01*
X-17931881Y85246070D01*
X-17931880Y85246074D01*
X-17929255Y85253549D01*
X-17928500Y85262267D01*
X-17928500Y85265008D01*
X-17928499Y85265033D01*
X-17926547Y85271559D01*
X-17928403Y85318795D01*
X-17928500Y85323741D01*
X-17928500Y98498500D01*
X-17908498Y98566621D01*
X-17854842Y98613114D01*
X-17802500Y98624500D01*
X-17290000Y98624500D01*
X-17276415Y98627202D01*
X-17264898Y98634898D01*
X-17257202Y98646415D01*
X-17254500Y98660000D01*
X-17254500Y98665176D01*
X-17228050Y98730682D01*
X-17170096Y98771692D01*
X-17129239Y98778500D01*
X-16760761Y98778500D01*
X-16692640Y98758498D01*
X-16646147Y98704842D01*
X-16635500Y98665339D01*
X-16635500Y98660000D01*
X-16632798Y98646415D01*
X-16625102Y98634898D01*
X-16613585Y98627202D01*
X-16600000Y98624500D01*
X-16000000Y98624500D01*
X-15986415Y98627202D01*
X-15974898Y98634898D01*
X-15967202Y98646415D01*
X-15964500Y98660000D01*
X-15964500Y98949377D01*
X-15953741Y99000324D01*
X-15929854Y99054356D01*
X-15925643Y99063881D01*
X-15914691Y99190324D01*
X-15945288Y99313498D01*
X-15950937Y99322246D01*
X-15954137Y99329642D01*
X-15964500Y99379683D01*
X-15964500Y99660000D01*
X-15967202Y99673585D01*
X-15974898Y99685102D01*
X-15986415Y99692798D01*
X-16000000Y99695500D01*
X-16600000Y99695500D01*
X-16613585Y99692798D01*
X-16625102Y99685102D01*
X-16632798Y99673585D01*
X-16635500Y99660000D01*
X-16635500Y99654824D01*
X-16661950Y99589318D01*
X-16719904Y99548308D01*
X-16760761Y99541500D01*
X-17129239Y99541500D01*
X-17197360Y99561502D01*
X-17243853Y99615158D01*
X-17254500Y99654661D01*
X-17254500Y99660000D01*
X-17257202Y99673585D01*
X-17264898Y99685102D01*
X-17276415Y99692798D01*
X-17290000Y99695500D01*
X-17802500Y99695500D01*
X-17870621Y99715502D01*
X-17917114Y99769158D01*
X-17928500Y99821500D01*
X-17928500Y101369787D01*
X-17908498Y101437908D01*
X-17891595Y101458882D01*
X-15306996Y104043481D01*
X-15290823Y104056543D01*
X-15288018Y104059096D01*
X-15279270Y104064744D01*
X-15272825Y104072919D01*
X-15272823Y104072921D01*
X-15259793Y104089450D01*
X-15255379Y104094417D01*
X-15255420Y104094452D01*
X-15252061Y104098416D01*
X-15248386Y104102091D01*
X-15236147Y104119217D01*
X-15232584Y104123963D01*
X-15207143Y104156234D01*
X-15207141Y104156237D01*
X-15200696Y104164413D01*
X-15197648Y104173093D01*
X-15192301Y104180575D01*
X-15184278Y104207400D01*
X-15177544Y104229919D01*
X-15175709Y104235567D01*
X-15161270Y104276681D01*
X-15161269Y104276685D01*
X-15158644Y104284160D01*
X-15157889Y104292878D01*
X-15157889Y104295619D01*
X-15157888Y104295644D01*
X-15155936Y104302170D01*
X-15157792Y104349406D01*
X-15157889Y104354352D01*
X-15157889Y105629812D01*
X-15137887Y105697933D01*
X-15084231Y105744426D01*
X-15013957Y105754530D01*
X-14949377Y105725036D01*
X-14940416Y105716465D01*
X-14928298Y105703673D01*
X-14923433Y105700183D01*
X-14923430Y105700181D01*
X-14796562Y105609185D01*
X-14754942Y105579333D01*
X-14749497Y105576823D01*
X-14597200Y105506613D01*
X-14561201Y105490017D01*
X-14555385Y105488583D01*
X-14555382Y105488582D01*
X-14437080Y105459415D01*
X-14354066Y105438948D01*
X-14348076Y105438639D01*
X-14348074Y105438639D01*
X-14273288Y105434785D01*
X-14141011Y105427969D01*
X-14135076Y105428798D01*
X-14135072Y105428798D01*
X-13968221Y105452099D01*
X-13929724Y105457475D01*
X-13924048Y105459413D01*
X-13924039Y105459415D01*
X-13785792Y105506613D01*
X-13714863Y105509693D01*
X-13655988Y105476466D01*
X-11928405Y103748883D01*
X-11894379Y103686571D01*
X-11891500Y103659788D01*
X-11891500Y80992280D01*
X-11911502Y80924159D01*
X-11928405Y80903185D01*
X-16210523Y76621068D01*
X-20332393Y72499198D01*
X-20348566Y72486136D01*
X-20351371Y72483583D01*
X-20360119Y72477935D01*
X-20366564Y72469760D01*
X-20366566Y72469758D01*
X-20379596Y72453229D01*
X-20384009Y72448263D01*
X-20383968Y72448228D01*
X-20387326Y72444265D01*
X-20391003Y72440588D01*
X-20403258Y72423438D01*
X-20406797Y72418725D01*
X-20438693Y72378266D01*
X-20441740Y72369588D01*
X-20447088Y72362105D01*
X-20450072Y72352127D01*
X-20450074Y72352123D01*
X-20461845Y72312762D01*
X-20463680Y72307114D01*
X-20480745Y72258519D01*
X-20481500Y72249801D01*
X-20481500Y72247060D01*
X-20481501Y72247036D01*
X-20483453Y72240509D01*
X-20483044Y72230103D01*
X-20481597Y72193274D01*
X-20481500Y72188327D01*
X-20481500Y70919947D01*
X-20501502Y70851826D01*
X-20555158Y70805333D01*
X-20599585Y70794196D01*
X-20611084Y70793473D01*
X-20618620Y70791024D01*
X-20618622Y70791024D01*
X-20760765Y70744839D01*
X-20760768Y70744838D01*
X-20768307Y70742388D01*
X-20907887Y70653808D01*
X-21021053Y70533299D01*
X-21100694Y70388433D01*
X-21141806Y70228312D01*
X-21141806Y70062998D01*
X-21100694Y69902877D01*
X-21021053Y69758011D01*
X-21015629Y69752235D01*
X-20961126Y69694196D01*
X-20907887Y69637502D01*
X-20768307Y69548922D01*
X-20760768Y69546472D01*
X-20760765Y69546471D01*
X-20618622Y69500286D01*
X-20618620Y69500286D01*
X-20611084Y69497837D01*
X-20603175Y69497339D01*
X-20603173Y69497339D01*
X-20528757Y69492657D01*
X-20446096Y69487456D01*
X-20438312Y69488941D01*
X-20438310Y69488941D01*
X-20291493Y69516948D01*
X-20291492Y69516948D01*
X-20283709Y69518433D01*
X-20134128Y69588821D01*
X-20128023Y69593871D01*
X-20128019Y69593874D01*
X-20012859Y69689143D01*
X-20006751Y69694196D01*
X-19990156Y69717037D01*
X-19933934Y69760391D01*
X-19863197Y69766466D01*
X-19820706Y69749361D01*
X-19700801Y69673267D01*
X-19693262Y69670817D01*
X-19693259Y69670816D01*
X-19551116Y69624631D01*
X-19551114Y69624631D01*
X-19543578Y69622182D01*
X-19535669Y69621684D01*
X-19535667Y69621684D01*
X-19392388Y69612669D01*
X-19325657Y69588429D01*
X-19282626Y69531960D01*
X-19274300Y69486918D01*
X-19274300Y69327343D01*
X-19233188Y69167222D01*
X-19153547Y69022356D01*
X-19148123Y69016580D01*
X-19093620Y68958541D01*
X-19040381Y68901847D01*
X-18900801Y68813267D01*
X-18893262Y68810817D01*
X-18893259Y68810816D01*
X-18751116Y68764631D01*
X-18751114Y68764631D01*
X-18743578Y68762182D01*
X-18735669Y68761684D01*
X-18735667Y68761684D01*
X-18661084Y68756991D01*
X-18578590Y68751801D01*
X-18570806Y68753286D01*
X-18570804Y68753286D01*
X-18423987Y68781293D01*
X-18423986Y68781293D01*
X-18416203Y68782778D01*
X-18266622Y68853166D01*
X-18260517Y68858216D01*
X-18260513Y68858219D01*
X-18145353Y68953488D01*
X-18139245Y68958541D01*
X-18092881Y69022356D01*
X-18046735Y69085870D01*
X-18046734Y69085872D01*
X-18042076Y69092283D01*
X-18034391Y69111691D01*
X-17984136Y69238621D01*
X-17984136Y69238623D01*
X-17981219Y69245989D01*
X-17960500Y69410000D01*
X-17964458Y69441331D01*
X-17953152Y69511422D01*
X-17905746Y69564273D01*
X-17850377Y69581913D01*
X-17848590Y69581801D01*
X-17699691Y69610205D01*
X-17693987Y69611293D01*
X-17693986Y69611293D01*
X-17686203Y69612778D01*
X-17536622Y69683166D01*
X-17530517Y69688216D01*
X-17530513Y69688219D01*
X-17415353Y69783488D01*
X-17409245Y69788541D01*
X-17331222Y69895931D01*
X-17316735Y69915870D01*
X-17316734Y69915872D01*
X-17312076Y69922283D01*
X-17292243Y69972373D01*
X-17254136Y70068621D01*
X-17254136Y70068623D01*
X-17251219Y70075989D01*
X-17250080Y70085000D01*
X-17231494Y70232132D01*
X-17230500Y70240000D01*
X-17239887Y70314306D01*
X-17250225Y70396146D01*
X-17250226Y70396149D01*
X-17251219Y70404011D01*
X-17271639Y70455586D01*
X-17309158Y70550348D01*
X-17309159Y70550350D01*
X-17312076Y70557717D01*
X-17409245Y70691459D01*
X-17462815Y70735776D01*
X-17502554Y70794610D01*
X-17508500Y70832861D01*
X-17508500Y71569787D01*
X-17488498Y71637908D01*
X-17471595Y71658882D01*
X-9527607Y79602870D01*
X-9511434Y79615932D01*
X-9508629Y79618485D01*
X-9499881Y79624133D01*
X-9493436Y79632308D01*
X-9493434Y79632310D01*
X-9480404Y79648839D01*
X-9475989Y79653807D01*
X-9476031Y79653842D01*
X-9472678Y79657799D01*
X-9468997Y79661480D01*
X-9456756Y79678609D01*
X-9453193Y79683355D01*
X-9427755Y79715622D01*
X-9427754Y79715625D01*
X-9421307Y79723802D01*
X-9418259Y79732482D01*
X-9412913Y79739963D01*
X-9409929Y79749939D01*
X-9409928Y79749942D01*
X-9398159Y79789296D01*
X-9396324Y79794942D01*
X-9381882Y79836067D01*
X-9381881Y79836070D01*
X-9379255Y79843549D01*
X-9378500Y79852267D01*
X-9378500Y79855008D01*
X-9378499Y79855032D01*
X-9376547Y79861559D01*
X-9378403Y79908795D01*
X-9378500Y79913741D01*
X-9378500Y91741215D01*
X16764299Y91741215D01*
X16765056Y91736211D01*
X16765056Y91736208D01*
X16779717Y91639270D01*
X16801704Y91493887D01*
X16803253Y91489063D01*
X16803254Y91489058D01*
X16806501Y91478946D01*
X16878170Y91255721D01*
X16880468Y91251211D01*
X16880470Y91251206D01*
X16913972Y91185456D01*
X16991732Y91032844D01*
X17139466Y90830991D01*
X17317573Y90655354D01*
X17321698Y90652422D01*
X17321701Y90652420D01*
X17396161Y90599504D01*
X17521469Y90510452D01*
X17745910Y90400014D01*
X17750749Y90398535D01*
X17750753Y90398533D01*
X17980272Y90328362D01*
X17980274Y90328362D01*
X17985120Y90326880D01*
X17990141Y90326192D01*
X17990142Y90326192D01*
X18227923Y90293620D01*
X18232946Y90292932D01*
X18305588Y90294707D01*
X18477951Y90298919D01*
X18477955Y90298919D01*
X18483012Y90299043D01*
X18728884Y90345057D01*
X18964236Y90429789D01*
X19183014Y90551059D01*
X19186992Y90554189D01*
X19186996Y90554192D01*
X19375613Y90702619D01*
X19375614Y90702620D01*
X19379589Y90705748D01*
X19548903Y90889876D01*
X19686600Y91098705D01*
X19688676Y91103324D01*
X19787065Y91322247D01*
X19787067Y91322253D01*
X19789139Y91326863D01*
X19790447Y91331744D01*
X19790449Y91331750D01*
X19852572Y91563598D01*
X19852572Y91563599D01*
X19853880Y91568480D01*
X19879158Y91817340D01*
X19879500Y91850000D01*
X19878221Y91865898D01*
X19859845Y92094294D01*
X19859844Y92094299D01*
X19859439Y92099335D01*
X19799772Y92342255D01*
X19796485Y92350000D01*
X19704011Y92567853D01*
X19704010Y92567855D01*
X19702034Y92572510D01*
X19568741Y92784177D01*
X19522773Y92836318D01*
X19406664Y92968017D01*
X19403320Y92971810D01*
X19210028Y93130582D01*
X19076817Y93208113D01*
X18998206Y93253866D01*
X18998204Y93253867D01*
X18993838Y93256408D01*
X18910225Y93288504D01*
X18765036Y93344237D01*
X18765032Y93344238D01*
X18760312Y93346050D01*
X18755362Y93347084D01*
X18755359Y93347085D01*
X18520408Y93396169D01*
X18520404Y93396169D01*
X18515457Y93397203D01*
X18265574Y93408550D01*
X18260554Y93407969D01*
X18260550Y93407969D01*
X18022122Y93380382D01*
X18017092Y93379800D01*
X18012221Y93378422D01*
X18012218Y93378421D01*
X17901674Y93347140D01*
X17776402Y93311691D01*
X17549698Y93205977D01*
X17545518Y93203136D01*
X17545514Y93203134D01*
X17435494Y93128365D01*
X17342811Y93065378D01*
X17339134Y93061901D01*
X17339128Y93061896D01*
X17243866Y92971810D01*
X17161066Y92893509D01*
X17009136Y92694794D01*
X16890932Y92474344D01*
X16809495Y92237832D01*
X16808634Y92232849D01*
X16808633Y92232844D01*
X16779621Y92064882D01*
X16766918Y91991342D01*
X16764299Y91741215D01*
X-9378500Y91741215D01*
X-9378500Y105311670D01*
X-9358498Y105379791D01*
X-9304842Y105426284D01*
X-9246017Y105437503D01*
X-9061011Y105427969D01*
X-9055076Y105428798D01*
X-9055072Y105428798D01*
X-8888221Y105452099D01*
X-8849724Y105457475D01*
X-8647828Y105526403D01*
X-8555220Y105579333D01*
X-8467813Y105629290D01*
X-8467808Y105629293D01*
X-8462609Y105632265D01*
X-8300749Y105771240D01*
X-8168089Y105938316D01*
X-8069416Y106127463D01*
X-8008289Y106331855D01*
X-8007108Y106343576D01*
X-7987223Y106541056D01*
X-7987223Y106541065D01*
X-7986915Y106544119D01*
X-7986900Y106550000D01*
X-8007162Y106762373D01*
X-8067218Y106967083D01*
X-8069968Y106972423D01*
X-8162153Y107151413D01*
X-8162155Y107151416D01*
X-8164899Y107156744D01*
X-8296683Y107324512D01*
X-8341308Y107363236D01*
X-8453282Y107460401D01*
X-8457813Y107464333D01*
X-8642475Y107571163D01*
X-8677063Y107583174D01*
X-8838333Y107639177D01*
X-8838336Y107639178D01*
X-8844007Y107641147D01*
X-8987112Y107661896D01*
X-9049197Y107670898D01*
X-9049200Y107670898D01*
X-9055137Y107671759D01*
X-9268246Y107661896D01*
X-9274070Y107660492D01*
X-9274073Y107660492D01*
X-9469813Y107613318D01*
X-9469815Y107613317D01*
X-9475646Y107611912D01*
X-9481104Y107609430D01*
X-9481108Y107609429D01*
X-9540141Y107582588D01*
X-9669852Y107523612D01*
X-9691274Y107508416D01*
X-9749600Y107467043D01*
X-9816735Y107443945D01*
X-9885699Y107460809D01*
X-9934599Y107512281D01*
X-9948500Y107569813D01*
X-9948500Y107659787D01*
X-9928498Y107727908D01*
X-9911595Y107748882D01*
X-9645459Y108015018D01*
X-9583147Y108049044D01*
X-9512332Y108043979D01*
X-9503613Y108040349D01*
X-9481201Y108030017D01*
X-9475385Y108028583D01*
X-9475382Y108028582D01*
X-9329852Y107992702D01*
X-9274066Y107978948D01*
X-9268076Y107978639D01*
X-9268074Y107978639D01*
X-9193288Y107974785D01*
X-9061011Y107967969D01*
X-9055076Y107968798D01*
X-9055072Y107968798D01*
X-8860702Y107995942D01*
X-8849724Y107997475D01*
X-8647828Y108066403D01*
X-8559612Y108116823D01*
X-8467813Y108169290D01*
X-8467808Y108169293D01*
X-8462609Y108172265D01*
X-8352785Y108266561D01*
X-8305297Y108307335D01*
X-8300749Y108311240D01*
X-8168089Y108478316D01*
X-8096714Y108615134D01*
X-8072187Y108662151D01*
X-8072187Y108662152D01*
X-8069416Y108667463D01*
X-8008289Y108871855D01*
X-7997361Y108980372D01*
X-7996768Y108986259D01*
X-7688298Y108986259D01*
X-7648506Y108776665D01*
X-7569798Y108578378D01*
X-7455015Y108398551D01*
X-7450892Y108394199D01*
X-7328461Y108264958D01*
X-7308298Y108243673D01*
X-7303433Y108240183D01*
X-7303430Y108240181D01*
X-7139812Y108122826D01*
X-7134942Y108119333D01*
X-7085732Y108096647D01*
X-6971532Y108044000D01*
X-6941201Y108030017D01*
X-6935385Y108028583D01*
X-6935382Y108028582D01*
X-6789852Y107992702D01*
X-6734066Y107978948D01*
X-6728076Y107978639D01*
X-6728074Y107978639D01*
X-6653288Y107974785D01*
X-6521011Y107967969D01*
X-6515076Y107968798D01*
X-6515072Y107968798D01*
X-6320702Y107995942D01*
X-6309724Y107997475D01*
X-6107828Y108066403D01*
X-6019612Y108116823D01*
X-5927813Y108169290D01*
X-5927808Y108169293D01*
X-5922609Y108172265D01*
X-5812785Y108266561D01*
X-5765297Y108307335D01*
X-5760749Y108311240D01*
X-5628089Y108478316D01*
X-5556714Y108615134D01*
X-5532187Y108662151D01*
X-5532187Y108662152D01*
X-5529416Y108667463D01*
X-5468289Y108871855D01*
X-5457361Y108980372D01*
X-5447223Y109081056D01*
X-5447223Y109081065D01*
X-5446915Y109084119D01*
X-5446900Y109090000D01*
X-5467162Y109302373D01*
X-5527218Y109507083D01*
X-5529968Y109512423D01*
X-5622153Y109691413D01*
X-5622155Y109691416D01*
X-5624899Y109696744D01*
X-5756683Y109864512D01*
X-5917813Y110004333D01*
X-6102475Y110111163D01*
X-6223868Y110153318D01*
X-6298333Y110179177D01*
X-6298336Y110179178D01*
X-6304007Y110181147D01*
X-6447112Y110201896D01*
X-6509197Y110210898D01*
X-6509200Y110210898D01*
X-6515137Y110211759D01*
X-6728246Y110201896D01*
X-6734070Y110200492D01*
X-6734073Y110200492D01*
X-6929813Y110153318D01*
X-6929815Y110153317D01*
X-6935646Y110151912D01*
X-6941104Y110149430D01*
X-6941108Y110149429D01*
X-7020934Y110113134D01*
X-7129852Y110063612D01*
X-7303857Y109940181D01*
X-7307999Y109935854D01*
X-7447234Y109790408D01*
X-7447238Y109790403D01*
X-7451382Y109786074D01*
X-7454636Y109781035D01*
X-7454638Y109781032D01*
X-7512504Y109691413D01*
X-7567105Y109606850D01*
X-7569349Y109601281D01*
X-7638430Y109429870D01*
X-7646850Y109408978D01*
X-7647998Y109403097D01*
X-7648000Y109403092D01*
X-7660304Y109340086D01*
X-7687740Y109199595D01*
X-7687756Y109193610D01*
X-7687756Y109193606D01*
X-7687805Y109174696D01*
X-7688298Y108986259D01*
X-7996768Y108986259D01*
X-7987223Y109081056D01*
X-7987223Y109081065D01*
X-7986915Y109084119D01*
X-7986900Y109090000D01*
X-8007162Y109302373D01*
X-8067218Y109507083D01*
X-8069968Y109512423D01*
X-8162153Y109691413D01*
X-8162155Y109691416D01*
X-8164899Y109696744D01*
X-8296683Y109864512D01*
X-8457813Y110004333D01*
X-8642475Y110111163D01*
X-8763868Y110153318D01*
X-8838333Y110179177D01*
X-8838336Y110179178D01*
X-8844007Y110181147D01*
X-8987112Y110201896D01*
X-9049197Y110210898D01*
X-9049200Y110210898D01*
X-9055137Y110211759D01*
X-9268246Y110201896D01*
X-9274070Y110200492D01*
X-9274073Y110200492D01*
X-9469813Y110153318D01*
X-9469815Y110153317D01*
X-9475646Y110151912D01*
X-9481104Y110149430D01*
X-9481108Y110149429D01*
X-9560934Y110113134D01*
X-9669852Y110063612D01*
X-9843857Y109940181D01*
X-9847999Y109935854D01*
X-9987234Y109790408D01*
X-9987238Y109790403D01*
X-9991382Y109786074D01*
X-9994636Y109781035D01*
X-9994638Y109781032D01*
X-10052504Y109691413D01*
X-10107105Y109606850D01*
X-10109349Y109601281D01*
X-10178430Y109429870D01*
X-10186850Y109408978D01*
X-10187998Y109403097D01*
X-10188000Y109403092D01*
X-10200304Y109340086D01*
X-10227740Y109199595D01*
X-10227756Y109193610D01*
X-10227756Y109193606D01*
X-10227805Y109174696D01*
X-10228298Y108986259D01*
X-10188506Y108776665D01*
X-10186294Y108771093D01*
X-10154953Y108692135D01*
X-10148412Y108621440D01*
X-10182969Y108556554D01*
X-10562393Y108177130D01*
X-10578566Y108164068D01*
X-10581371Y108161515D01*
X-10590119Y108155867D01*
X-10596564Y108147692D01*
X-10596566Y108147690D01*
X-10609596Y108131161D01*
X-10614009Y108126195D01*
X-10613968Y108126160D01*
X-10617326Y108122197D01*
X-10621003Y108118520D01*
X-10633258Y108101370D01*
X-10636804Y108096647D01*
X-10662176Y108064464D01*
X-10668693Y108056198D01*
X-10671740Y108047520D01*
X-10677088Y108040037D01*
X-10680072Y108030059D01*
X-10680074Y108030055D01*
X-10691845Y107990694D01*
X-10693680Y107985046D01*
X-10701942Y107961518D01*
X-10710745Y107936451D01*
X-10711500Y107927733D01*
X-10711500Y107924992D01*
X-10711501Y107924968D01*
X-10713453Y107918441D01*
X-10712652Y107898050D01*
X-10711597Y107871206D01*
X-10711500Y107866259D01*
X-10711500Y107492046D01*
X-10731502Y107423925D01*
X-10785158Y107377432D01*
X-10855432Y107367328D01*
X-10920080Y107396880D01*
X-10993282Y107460401D01*
X-10997813Y107464333D01*
X-11182475Y107571163D01*
X-11217063Y107583174D01*
X-11378333Y107639177D01*
X-11378336Y107639178D01*
X-11384007Y107641147D01*
X-11527112Y107661896D01*
X-11589197Y107670898D01*
X-11589200Y107670898D01*
X-11595137Y107671759D01*
X-11808246Y107661896D01*
X-11814070Y107660492D01*
X-11814073Y107660492D01*
X-12009813Y107613318D01*
X-12009815Y107613317D01*
X-12015646Y107611912D01*
X-12021104Y107609430D01*
X-12021108Y107609429D01*
X-12080141Y107582588D01*
X-12209852Y107523612D01*
X-12383857Y107400181D01*
X-12387999Y107395854D01*
X-12527234Y107250408D01*
X-12527238Y107250403D01*
X-12531382Y107246074D01*
X-12534636Y107241035D01*
X-12534638Y107241032D01*
X-12592504Y107151413D01*
X-12647105Y107066850D01*
X-12726850Y106868978D01*
X-12727998Y106863097D01*
X-12728000Y106863092D01*
X-12739125Y106806123D01*
X-12767740Y106659595D01*
X-12768298Y106446259D01*
X-12767180Y106440372D01*
X-12739399Y106294043D01*
X-12728506Y106236665D01*
X-12649798Y106038378D01*
X-12646574Y106033327D01*
X-12646573Y106033325D01*
X-12611569Y105978486D01*
X-12535015Y105858551D01*
X-12388298Y105703673D01*
X-12383433Y105700183D01*
X-12383430Y105700181D01*
X-12256562Y105609185D01*
X-12214942Y105579333D01*
X-12209497Y105576823D01*
X-12057200Y105506613D01*
X-12021201Y105490017D01*
X-12015385Y105488583D01*
X-12015382Y105488582D01*
X-11897080Y105459415D01*
X-11814066Y105438948D01*
X-11808076Y105438639D01*
X-11808074Y105438639D01*
X-11733288Y105434785D01*
X-11601011Y105427969D01*
X-11595076Y105428798D01*
X-11595072Y105428798D01*
X-11444927Y105449766D01*
X-11374694Y105439378D01*
X-11321227Y105392668D01*
X-11301500Y105324977D01*
X-11301500Y104505212D01*
X-11321502Y104437091D01*
X-11375158Y104390598D01*
X-11445432Y104380494D01*
X-11510012Y104409988D01*
X-11516595Y104416117D01*
X-12273958Y105173481D01*
X-13114329Y106013852D01*
X-13148355Y106076164D01*
X-13145951Y106139050D01*
X-13090006Y106326112D01*
X-13090005Y106326117D01*
X-13088289Y106331855D01*
X-13087108Y106343576D01*
X-13067223Y106541056D01*
X-13067223Y106541065D01*
X-13066915Y106544119D01*
X-13066900Y106550000D01*
X-13087162Y106762373D01*
X-13147218Y106967083D01*
X-13149968Y106972423D01*
X-13242153Y107151413D01*
X-13242155Y107151416D01*
X-13244899Y107156744D01*
X-13368470Y107314057D01*
X-13394820Y107379981D01*
X-13381345Y107449687D01*
X-13332324Y107501043D01*
X-13269384Y107517889D01*
X-12893456Y107517889D01*
X-12872783Y107515689D01*
X-12868998Y107515511D01*
X-12858818Y107513319D01*
X-12827579Y107517016D01*
X-12820948Y107517407D01*
X-12820952Y107517461D01*
X-12815776Y107517889D01*
X-12810571Y107517889D01*
X-12789819Y107521343D01*
X-12783941Y107522180D01*
X-12743121Y107527011D01*
X-12743120Y107527011D01*
X-12732781Y107528235D01*
X-12724488Y107532217D01*
X-12715417Y107533727D01*
X-12706256Y107538670D01*
X-12706253Y107538671D01*
X-12670085Y107558187D01*
X-12664832Y107560864D01*
X-12618372Y107583174D01*
X-12611673Y107588804D01*
X-12609737Y107590740D01*
X-12609715Y107590760D01*
X-12603722Y107593994D01*
X-12571630Y107628711D01*
X-12568201Y107632276D01*
X-12185459Y108015018D01*
X-12123147Y108049044D01*
X-12052332Y108043979D01*
X-12043613Y108040349D01*
X-12021201Y108030017D01*
X-12015385Y108028583D01*
X-12015382Y108028582D01*
X-11869852Y107992702D01*
X-11814066Y107978948D01*
X-11808076Y107978639D01*
X-11808074Y107978639D01*
X-11733288Y107974785D01*
X-11601011Y107967969D01*
X-11595076Y107968798D01*
X-11595072Y107968798D01*
X-11400702Y107995942D01*
X-11389724Y107997475D01*
X-11187828Y108066403D01*
X-11099612Y108116823D01*
X-11007813Y108169290D01*
X-11007808Y108169293D01*
X-11002609Y108172265D01*
X-10892785Y108266561D01*
X-10845297Y108307335D01*
X-10840749Y108311240D01*
X-10708089Y108478316D01*
X-10636714Y108615134D01*
X-10612187Y108662151D01*
X-10612187Y108662152D01*
X-10609416Y108667463D01*
X-10548289Y108871855D01*
X-10537361Y108980372D01*
X-10527223Y109081056D01*
X-10527223Y109081065D01*
X-10526915Y109084119D01*
X-10526900Y109090000D01*
X-10547162Y109302373D01*
X-10607218Y109507083D01*
X-10609968Y109512423D01*
X-10702153Y109691413D01*
X-10702155Y109691416D01*
X-10704899Y109696744D01*
X-10836683Y109864512D01*
X-10997813Y110004333D01*
X-11182475Y110111163D01*
X-11303868Y110153318D01*
X-11378333Y110179177D01*
X-11378336Y110179178D01*
X-11384007Y110181147D01*
X-11527112Y110201896D01*
X-11589197Y110210898D01*
X-11589200Y110210898D01*
X-11595137Y110211759D01*
X-11808246Y110201896D01*
X-11814070Y110200492D01*
X-11814073Y110200492D01*
X-12009813Y110153318D01*
X-12009815Y110153317D01*
X-12015646Y110151912D01*
X-12021104Y110149430D01*
X-12021108Y110149429D01*
X-12100934Y110113134D01*
X-12209852Y110063612D01*
X-12383857Y109940181D01*
X-12387999Y109935854D01*
X-12527234Y109790408D01*
X-12527238Y109790403D01*
X-12531382Y109786074D01*
X-12534636Y109781035D01*
X-12534638Y109781032D01*
X-12592504Y109691413D01*
X-12647105Y109606850D01*
X-12649349Y109601281D01*
X-12718430Y109429870D01*
X-12726850Y109408978D01*
X-12727998Y109403097D01*
X-12728000Y109403092D01*
X-12740304Y109340086D01*
X-12767740Y109199595D01*
X-12767756Y109193610D01*
X-12767756Y109193606D01*
X-12767805Y109174696D01*
X-12768298Y108986259D01*
X-12728506Y108776665D01*
X-12726294Y108771093D01*
X-12694953Y108692135D01*
X-12688412Y108621440D01*
X-12722969Y108556554D01*
X-12961729Y108317794D01*
X-13024041Y108283768D01*
X-13050824Y108280889D01*
X-14549866Y108280889D01*
X-14570556Y108283091D01*
X-14574332Y108283269D01*
X-14584509Y108285460D01*
X-14615050Y108281845D01*
X-14615754Y108281762D01*
X-14622381Y108281371D01*
X-14622377Y108281317D01*
X-14627556Y108280889D01*
X-14632756Y108280889D01*
X-14637882Y108280036D01*
X-14637891Y108280035D01*
X-14653511Y108277435D01*
X-14659387Y108276598D01*
X-14700206Y108271767D01*
X-14700207Y108271767D01*
X-14710546Y108270543D01*
X-14718839Y108266561D01*
X-14727910Y108265051D01*
X-14737075Y108260106D01*
X-14737080Y108260104D01*
X-14773232Y108240597D01*
X-14778525Y108237900D01*
X-14817811Y108219036D01*
X-14817815Y108219034D01*
X-14824955Y108215605D01*
X-14831654Y108209974D01*
X-14833592Y108208036D01*
X-14833611Y108208018D01*
X-14839605Y108204784D01*
X-14846673Y108197138D01*
X-14846674Y108197137D01*
X-14871696Y108170068D01*
X-14875126Y108166502D01*
X-15372511Y107669117D01*
X-15434823Y107635091D01*
X-15505638Y107640156D01*
X-15562474Y107682703D01*
X-15584726Y107731428D01*
X-15592823Y107768650D01*
X-15592833Y107768689D01*
X-15593190Y107770332D01*
X-15600384Y107796555D01*
X-15640076Y107866259D01*
X-15646362Y107877298D01*
X-15646365Y107877302D01*
X-15649425Y107882676D01*
X-15675378Y107912627D01*
X-15694078Y107934209D01*
X-15694083Y107934214D01*
X-15695918Y107936332D01*
X-15728502Y107967773D01*
X-15816319Y108013709D01*
X-15884440Y108033711D01*
X-15917676Y108038490D01*
X-15982252Y108067981D01*
X-16020636Y108127708D01*
X-16020636Y108198704D01*
X-15981821Y108258803D01*
X-15971095Y108268012D01*
X-15920749Y108311240D01*
X-15788089Y108478316D01*
X-15716714Y108615134D01*
X-15692187Y108662151D01*
X-15692187Y108662152D01*
X-15689416Y108667463D01*
X-15628289Y108871855D01*
X-15617361Y108980372D01*
X-15607223Y109081056D01*
X-15607223Y109081065D01*
X-15606915Y109084119D01*
X-15606900Y109090000D01*
X-15627162Y109302373D01*
X-15687218Y109507083D01*
X-15689968Y109512423D01*
X-15782153Y109691413D01*
X-15782155Y109691416D01*
X-15784899Y109696744D01*
X-15916683Y109864512D01*
X-16077813Y110004333D01*
X-16262475Y110111163D01*
X-16383868Y110153318D01*
X-16458333Y110179177D01*
X-16458336Y110179178D01*
X-16464007Y110181147D01*
X-16607112Y110201896D01*
X-16669197Y110210898D01*
X-16669200Y110210898D01*
X-16675137Y110211759D01*
X-16888246Y110201896D01*
X-16894070Y110200492D01*
X-16894073Y110200492D01*
X-17089813Y110153318D01*
X-17089815Y110153317D01*
X-17095646Y110151912D01*
X-17101104Y110149430D01*
X-17101108Y110149429D01*
X-17180934Y110113134D01*
X-17289852Y110063612D01*
X-17463857Y109940181D01*
X-17467999Y109935854D01*
X-17607234Y109790408D01*
X-17607238Y109790403D01*
X-17611382Y109786074D01*
X-17614636Y109781035D01*
X-17614638Y109781032D01*
X-17672504Y109691413D01*
X-17727105Y109606850D01*
X-17729349Y109601281D01*
X-17798430Y109429870D01*
X-17806850Y109408978D01*
X-17807998Y109403097D01*
X-17808000Y109403092D01*
X-17820304Y109340086D01*
X-17847740Y109199595D01*
X-17847756Y109193610D01*
X-17847756Y109193606D01*
X-17847805Y109174696D01*
X-17848298Y108986259D01*
X-17808506Y108776665D01*
X-17729798Y108578378D01*
X-17615015Y108398551D01*
X-17488461Y108264958D01*
X-17480594Y108256653D01*
X-17448267Y108193443D01*
X-17455246Y108122790D01*
X-17499314Y108067126D01*
X-17572067Y108044000D01*
X-17724000Y108044000D01*
X-17727347Y108043640D01*
X-17727351Y108043640D01*
X-17774626Y108038558D01*
X-17774633Y108038557D01*
X-17777990Y108038196D01*
X-17781290Y108037478D01*
X-17781291Y108037478D01*
X-17828678Y108027170D01*
X-17828685Y108027168D01*
X-17830332Y108026810D01*
X-17856555Y108019616D01*
X-17887891Y108001772D01*
X-17937298Y107973638D01*
X-17937302Y107973635D01*
X-17942676Y107970575D01*
X-17947353Y107966522D01*
X-17994086Y107926028D01*
X-17996332Y107924082D01*
X-18027773Y107891498D01*
X-18073709Y107803681D01*
X-18093711Y107735560D01*
X-18094352Y107731101D01*
X-18094353Y107731097D01*
X-18096237Y107717990D01*
X-18104000Y107664000D01*
X-18104000Y107239907D01*
X-18124002Y107171786D01*
X-18177658Y107125293D01*
X-18247932Y107115189D01*
X-18312512Y107144683D01*
X-18329086Y107162074D01*
X-18452977Y107319794D01*
X-18456683Y107324512D01*
X-18501308Y107363236D01*
X-18613282Y107460401D01*
X-18617813Y107464333D01*
X-18802475Y107571163D01*
X-18837063Y107583174D01*
X-18998333Y107639177D01*
X-18998336Y107639178D01*
X-19004007Y107641147D01*
X-19147112Y107661896D01*
X-19209197Y107670898D01*
X-19209200Y107670898D01*
X-19215137Y107671759D01*
X-19428246Y107661896D01*
X-19434070Y107660492D01*
X-19434073Y107660492D01*
X-19629813Y107613318D01*
X-19629815Y107613317D01*
X-19635646Y107611912D01*
X-19641104Y107609430D01*
X-19641108Y107609429D01*
X-19700141Y107582588D01*
X-19829852Y107523612D01*
X-20003857Y107400181D01*
X-20007995Y107395858D01*
X-20008000Y107395854D01*
X-20020871Y107382408D01*
X-20082426Y107347032D01*
X-20153336Y107350551D01*
X-20211086Y107391848D01*
X-20237342Y107457811D01*
X-20237889Y107469539D01*
X-20237889Y107530398D01*
X-20217887Y107598519D01*
X-20200984Y107619493D01*
X-19805459Y108015018D01*
X-19743147Y108049044D01*
X-19672332Y108043979D01*
X-19663613Y108040349D01*
X-19641201Y108030017D01*
X-19635385Y108028583D01*
X-19635382Y108028582D01*
X-19489852Y107992702D01*
X-19434066Y107978948D01*
X-19428076Y107978639D01*
X-19428074Y107978639D01*
X-19353288Y107974785D01*
X-19221011Y107967969D01*
X-19215076Y107968798D01*
X-19215072Y107968798D01*
X-19020702Y107995942D01*
X-19009724Y107997475D01*
X-18807828Y108066403D01*
X-18719612Y108116823D01*
X-18627813Y108169290D01*
X-18627808Y108169293D01*
X-18622609Y108172265D01*
X-18512785Y108266561D01*
X-18465297Y108307335D01*
X-18460749Y108311240D01*
X-18328089Y108478316D01*
X-18256714Y108615134D01*
X-18232187Y108662151D01*
X-18232187Y108662152D01*
X-18229416Y108667463D01*
X-18168289Y108871855D01*
X-18157361Y108980372D01*
X-18147223Y109081056D01*
X-18147223Y109081065D01*
X-18146915Y109084119D01*
X-18146900Y109090000D01*
X-18167162Y109302373D01*
X-18227218Y109507083D01*
X-18229968Y109512423D01*
X-18322153Y109691413D01*
X-18322155Y109691416D01*
X-18324899Y109696744D01*
X-18456683Y109864512D01*
X-18617813Y110004333D01*
X-18802475Y110111163D01*
X-18923868Y110153318D01*
X-18998333Y110179177D01*
X-18998336Y110179178D01*
X-19004007Y110181147D01*
X-19147112Y110201896D01*
X-19209197Y110210898D01*
X-19209200Y110210898D01*
X-19215137Y110211759D01*
X-19428246Y110201896D01*
X-19434070Y110200492D01*
X-19434073Y110200492D01*
X-19629813Y110153318D01*
X-19629815Y110153317D01*
X-19635646Y110151912D01*
X-19641104Y110149430D01*
X-19641108Y110149429D01*
X-19720934Y110113134D01*
X-19829852Y110063612D01*
X-20003857Y109940181D01*
X-20007999Y109935854D01*
X-20147234Y109790408D01*
X-20147238Y109790403D01*
X-20151382Y109786074D01*
X-20154636Y109781035D01*
X-20154638Y109781032D01*
X-20212504Y109691413D01*
X-20267105Y109606850D01*
X-20269349Y109601281D01*
X-20338430Y109429870D01*
X-20346850Y109408978D01*
X-20347998Y109403097D01*
X-20348000Y109403092D01*
X-20360304Y109340086D01*
X-20387740Y109199595D01*
X-20387756Y109193610D01*
X-20387756Y109193606D01*
X-20387805Y109174696D01*
X-20388298Y108986259D01*
X-20348506Y108776665D01*
X-20346294Y108771093D01*
X-20314953Y108692135D01*
X-20308412Y108621440D01*
X-20342968Y108556554D01*
X-20614063Y108285460D01*
X-20851785Y108047738D01*
X-20867961Y108034674D01*
X-20870762Y108032125D01*
X-20879508Y108026478D01*
X-20885953Y108018303D01*
X-20885955Y108018301D01*
X-20898985Y108001772D01*
X-20903398Y107996806D01*
X-20903357Y107996771D01*
X-20906715Y107992808D01*
X-20910392Y107989131D01*
X-20922647Y107971981D01*
X-20926186Y107967268D01*
X-20937472Y107952952D01*
X-20950574Y107936332D01*
X-20958082Y107926809D01*
X-20961129Y107918131D01*
X-20966477Y107910648D01*
X-20969461Y107900670D01*
X-20969463Y107900666D01*
X-20981234Y107861305D01*
X-20983069Y107855657D01*
X-20989870Y107836289D01*
X-21000134Y107807062D01*
X-21000889Y107798344D01*
X-21000889Y107795603D01*
X-21000890Y107795579D01*
X-21002842Y107789052D01*
X-21002433Y107778646D01*
X-21000986Y107741817D01*
X-21000889Y107736870D01*
X-21000889Y107592008D01*
X-21020891Y107523887D01*
X-21074547Y107477394D01*
X-21144821Y107467290D01*
X-21189981Y107482942D01*
X-21342475Y107571163D01*
X-21377063Y107583174D01*
X-21538333Y107639177D01*
X-21538336Y107639178D01*
X-21544007Y107641147D01*
X-21687112Y107661896D01*
X-21749197Y107670898D01*
X-21749200Y107670898D01*
X-21755137Y107671759D01*
X-21968246Y107661896D01*
X-21974070Y107660492D01*
X-21974073Y107660492D01*
X-22169813Y107613318D01*
X-22169815Y107613317D01*
X-22175646Y107611912D01*
X-22181104Y107609430D01*
X-22181108Y107609429D01*
X-22240141Y107582588D01*
X-22369852Y107523612D01*
X-22543857Y107400181D01*
X-22547999Y107395854D01*
X-22687234Y107250408D01*
X-22687238Y107250403D01*
X-22691382Y107246074D01*
X-22694636Y107241035D01*
X-22694638Y107241032D01*
X-22752504Y107151413D01*
X-22807105Y107066850D01*
X-22886850Y106868978D01*
X-22887998Y106863097D01*
X-22888000Y106863092D01*
X-22899125Y106806123D01*
X-22927740Y106659595D01*
X-22928298Y106446259D01*
X-22927180Y106440372D01*
X-22899399Y106294043D01*
X-22888506Y106236665D01*
X-22809798Y106038378D01*
X-22806574Y106033327D01*
X-22806573Y106033325D01*
X-22771569Y105978486D01*
X-22695015Y105858551D01*
X-22548298Y105703673D01*
X-22543433Y105700183D01*
X-22543430Y105700181D01*
X-22416562Y105609185D01*
X-22374942Y105579333D01*
X-22369497Y105576823D01*
X-22217200Y105506613D01*
X-22181201Y105490017D01*
X-22175385Y105488583D01*
X-22175382Y105488582D01*
X-22057080Y105459415D01*
X-21974066Y105438948D01*
X-21968076Y105438639D01*
X-21968074Y105438639D01*
X-21893288Y105434785D01*
X-21761011Y105427969D01*
X-21755076Y105428798D01*
X-21755072Y105428798D01*
X-21588221Y105452099D01*
X-21549724Y105457475D01*
X-21504880Y105472785D01*
X-21433950Y105475865D01*
X-21372615Y105440109D01*
X-21340348Y105376869D01*
X-21347393Y105306223D01*
X-21375075Y105264448D01*
X-25762393Y100877130D01*
X-25778566Y100864068D01*
X-25781371Y100861515D01*
X-25790119Y100855867D01*
X-25796564Y100847692D01*
X-25796566Y100847690D01*
X-25809596Y100831161D01*
X-25814009Y100826195D01*
X-25813968Y100826160D01*
X-25817326Y100822197D01*
X-25821003Y100818520D01*
X-25833258Y100801370D01*
X-25836797Y100796657D01*
X-25868693Y100756198D01*
X-25871740Y100747520D01*
X-25877088Y100740037D01*
X-25880072Y100730059D01*
X-25880074Y100730055D01*
X-25891845Y100690694D01*
X-25893680Y100685046D01*
X-25910745Y100636451D01*
X-25911500Y100627733D01*
X-25911500Y100624992D01*
X-25911501Y100624968D01*
X-25913453Y100618441D01*
X-25913044Y100608035D01*
X-25911597Y100571206D01*
X-25911500Y100566259D01*
X-25911500Y94230212D01*
X-25931502Y94162091D01*
X-25948405Y94141117D01*
X-28898062Y91191461D01*
X-31842393Y88247130D01*
X-31858566Y88234068D01*
X-31861371Y88231515D01*
X-31870119Y88225867D01*
X-31876564Y88217692D01*
X-31876566Y88217690D01*
X-31889596Y88201161D01*
X-31894009Y88196195D01*
X-31893968Y88196160D01*
X-31897326Y88192197D01*
X-31901003Y88188520D01*
X-31913258Y88171370D01*
X-31916797Y88166657D01*
X-31948693Y88126198D01*
X-31951740Y88117520D01*
X-31957088Y88110037D01*
X-31960072Y88100059D01*
X-31960074Y88100055D01*
X-31971845Y88060694D01*
X-31973680Y88055046D01*
X-31990745Y88006451D01*
X-31991500Y87997733D01*
X-31991500Y87994992D01*
X-31991501Y87994968D01*
X-31993453Y87988441D01*
X-31993044Y87978035D01*
X-31991597Y87941206D01*
X-31991500Y87936259D01*
X-31991500Y82360213D01*
X-32011502Y82292092D01*
X-32028405Y82271118D01*
X-32355405Y81944118D01*
X-32417717Y81910092D01*
X-32488532Y81915157D01*
X-32545368Y81957704D01*
X-32570179Y82024224D01*
X-32570500Y82033213D01*
X-32570500Y82215000D01*
X-32590253Y82314306D01*
X-32646506Y82398494D01*
X-32730694Y82454747D01*
X-32830000Y82474500D01*
X-34830000Y82474500D01*
X-34929306Y82454747D01*
X-35013494Y82398494D01*
X-35069747Y82314306D01*
X-35089500Y82215000D01*
X-35089500Y81685000D01*
X-35088293Y81678932D01*
X-35069747Y81585694D01*
X-35070942Y81585456D01*
X-35064725Y81527627D01*
X-35067766Y81517271D01*
X-35069747Y81514306D01*
X-35089500Y81415000D01*
X-35089500Y80885000D01*
X-35069747Y80785694D01*
X-35013494Y80701506D01*
X-34929306Y80645253D01*
X-34830000Y80625500D01*
X-32830000Y80625500D01*
X-32730694Y80645253D01*
X-32646506Y80701506D01*
X-32635056Y80718642D01*
X-32580578Y80764168D01*
X-32545101Y80773765D01*
X-32512510Y80777622D01*
X-32512509Y80777622D01*
X-32502170Y80778846D01*
X-32493877Y80782828D01*
X-32484806Y80784338D01*
X-32475645Y80789281D01*
X-32475642Y80789282D01*
X-32439474Y80808798D01*
X-32434221Y80811475D01*
X-32387761Y80833785D01*
X-32381062Y80839415D01*
X-32379126Y80841351D01*
X-32379104Y80841371D01*
X-32373111Y80844605D01*
X-32341032Y80879308D01*
X-32337603Y80882874D01*
X-31377609Y81842869D01*
X-31361433Y81855932D01*
X-31358625Y81858487D01*
X-31349881Y81864133D01*
X-31343436Y81872308D01*
X-31343434Y81872310D01*
X-31330400Y81888844D01*
X-31325989Y81893807D01*
X-31326031Y81893843D01*
X-31322677Y81897801D01*
X-31318997Y81901481D01*
X-31315975Y81905709D01*
X-31315968Y81905718D01*
X-31306750Y81918617D01*
X-31303188Y81923361D01*
X-31277755Y81955623D01*
X-31271307Y81963802D01*
X-31268259Y81972482D01*
X-31262912Y81979964D01*
X-31249675Y82024224D01*
X-31248155Y82029308D01*
X-31246320Y82034956D01*
X-31231881Y82076070D01*
X-31231880Y82076074D01*
X-31229255Y82083549D01*
X-31228500Y82092267D01*
X-31228500Y82095008D01*
X-31228499Y82095033D01*
X-31226547Y82101559D01*
X-31228403Y82148795D01*
X-31228500Y82153741D01*
X-31228500Y87729787D01*
X-31208498Y87797908D01*
X-31191595Y87818882D01*
X-29813063Y89197414D01*
X-28319095Y90691383D01*
X-28256783Y90725409D01*
X-28185968Y90720344D01*
X-28129132Y90677797D01*
X-28104321Y90611277D01*
X-28104000Y90602288D01*
X-28104000Y85621209D01*
X-28124002Y85553088D01*
X-28177658Y85506595D01*
X-28242927Y85495874D01*
X-28819227Y85555313D01*
X-29915252Y85668356D01*
X-29982271Y85666372D01*
X-29986375Y85665701D01*
X-29986379Y85665701D01*
X-30012138Y85661492D01*
X-30047345Y85655739D01*
X-30086188Y85646201D01*
X-30093742Y85641916D01*
X-30093743Y85641916D01*
X-30130250Y85621209D01*
X-30172393Y85597306D01*
X-30177072Y85593265D01*
X-30177077Y85593262D01*
X-30221222Y85555141D01*
X-30226127Y85550905D01*
X-30228082Y85548886D01*
X-30228085Y85548883D01*
X-30246161Y85530213D01*
X-30257622Y85518376D01*
X-30261810Y85510403D01*
X-30261812Y85510400D01*
X-30276968Y85481545D01*
X-30303708Y85430637D01*
X-30305462Y85424701D01*
X-30305464Y85424696D01*
X-30316542Y85387201D01*
X-30323826Y85362551D01*
X-30324473Y85358105D01*
X-30329834Y85321263D01*
X-30334237Y85291008D01*
X-30334245Y85286509D01*
X-30334245Y85286504D01*
X-30336198Y84135938D01*
X-30352745Y74389105D01*
X-30353360Y74027179D01*
X-30373478Y73959092D01*
X-30427212Y73912691D01*
X-30478491Y73901396D01*
X-32490389Y73887521D01*
X-32493579Y73887499D01*
X-32529380Y73883624D01*
X-32541301Y73882334D01*
X-32541303Y73882334D01*
X-32544460Y73881992D01*
X-32547565Y73881334D01*
X-32547567Y73881334D01*
X-32592419Y73871834D01*
X-32592434Y73871830D01*
X-32593876Y73871525D01*
X-32617140Y73865434D01*
X-32704123Y73817938D01*
X-32727954Y73798022D01*
X-32755146Y73775298D01*
X-32755150Y73775295D01*
X-32758600Y73772411D01*
X-32761611Y73769059D01*
X-32761612Y73769058D01*
X-32804512Y73721300D01*
X-32864914Y73683989D01*
X-32898247Y73679500D01*
X-34764447Y73679500D01*
X-34832568Y73699502D01*
X-34861349Y73724964D01*
X-34872525Y73738411D01*
X-34874626Y73740939D01*
X-34912003Y73777402D01*
X-34931360Y73794456D01*
X-35019492Y73839786D01*
X-35087748Y73859318D01*
X-35146903Y73867408D01*
X-35154918Y73868504D01*
X-35154919Y73868504D01*
X-35159379Y73869114D01*
X-35163880Y73869083D01*
X-35163881Y73869083D01*
X-35519131Y73866633D01*
X-35587388Y73886165D01*
X-35634250Y73939499D01*
X-35646000Y73992630D01*
X-35646000Y74262500D01*
X-35651804Y74316490D01*
X-35663190Y74368832D01*
X-35670384Y74395055D01*
X-35693597Y74435820D01*
X-35716362Y74475798D01*
X-35716365Y74475802D01*
X-35719425Y74481176D01*
X-35765918Y74534832D01*
X-35798502Y74566273D01*
X-35886319Y74612209D01*
X-35954440Y74632211D01*
X-35958899Y74632852D01*
X-35958903Y74632853D01*
X-35990220Y74637355D01*
X-36026000Y74642500D01*
X-36619516Y74642500D01*
X-36661271Y74649620D01*
X-36666783Y74651556D01*
X-36724426Y74693002D01*
X-36750511Y74759033D01*
X-36736756Y74828684D01*
X-36687528Y74879842D01*
X-36645709Y74894727D01*
X-36639314Y74895791D01*
X-36618633Y74897500D01*
X-36026000Y74897500D01*
X-36022653Y74897860D01*
X-36022649Y74897860D01*
X-35975374Y74902942D01*
X-35975367Y74902943D01*
X-35972010Y74903304D01*
X-35968709Y74904022D01*
X-35921322Y74914330D01*
X-35921315Y74914332D01*
X-35919668Y74914690D01*
X-35893445Y74921884D01*
X-35852680Y74945097D01*
X-35812702Y74967862D01*
X-35812698Y74967865D01*
X-35807324Y74970925D01*
X-35753668Y75017418D01*
X-35722227Y75050002D01*
X-35676291Y75137819D01*
X-35656289Y75205940D01*
X-35646000Y75277500D01*
X-35646000Y76615000D01*
X-35089500Y76615000D01*
X-35089500Y76085000D01*
X-35088293Y76078932D01*
X-35069747Y75985694D01*
X-35070942Y75985456D01*
X-35064725Y75927627D01*
X-35067766Y75917271D01*
X-35069747Y75914306D01*
X-35089500Y75815000D01*
X-35089500Y75285000D01*
X-35069747Y75185694D01*
X-35013494Y75101506D01*
X-34929306Y75045253D01*
X-34830000Y75025500D01*
X-32830000Y75025500D01*
X-32730694Y75045253D01*
X-32646506Y75101506D01*
X-32590253Y75185694D01*
X-32570500Y75285000D01*
X-32570500Y75815000D01*
X-32590253Y75914306D01*
X-32589058Y75914544D01*
X-32595275Y75972373D01*
X-32592234Y75982729D01*
X-32590253Y75985694D01*
X-32570500Y76085000D01*
X-32570500Y76615000D01*
X-32590253Y76714306D01*
X-32646506Y76798494D01*
X-32730694Y76854747D01*
X-32830000Y76874500D01*
X-34830000Y76874500D01*
X-34929306Y76854747D01*
X-35013494Y76798494D01*
X-35069747Y76714306D01*
X-35089500Y76615000D01*
X-35646000Y76615000D01*
X-35646000Y79815000D01*
X-35089500Y79815000D01*
X-35089500Y79285000D01*
X-35088293Y79278932D01*
X-35069747Y79185694D01*
X-35070942Y79185456D01*
X-35064725Y79127627D01*
X-35067766Y79117271D01*
X-35069747Y79114306D01*
X-35089500Y79015000D01*
X-35089500Y78485000D01*
X-35069747Y78385694D01*
X-35013494Y78301506D01*
X-34929306Y78245253D01*
X-34830000Y78225500D01*
X-32830000Y78225500D01*
X-32730694Y78245253D01*
X-32646506Y78301506D01*
X-32590253Y78385694D01*
X-32570500Y78485000D01*
X-32570500Y79015000D01*
X-32590253Y79114306D01*
X-32589058Y79114544D01*
X-32595275Y79172373D01*
X-32592234Y79182729D01*
X-32590253Y79185694D01*
X-32570500Y79285000D01*
X-32570500Y79815000D01*
X-32590253Y79914306D01*
X-32646506Y79998494D01*
X-32730694Y80054747D01*
X-32830000Y80074500D01*
X-34830000Y80074500D01*
X-34929306Y80054747D01*
X-35013494Y79998494D01*
X-35069747Y79914306D01*
X-35089500Y79815000D01*
X-35646000Y79815000D01*
X-35646000Y87815000D01*
X-35089500Y87815000D01*
X-35089500Y87285000D01*
X-35088293Y87278932D01*
X-35069747Y87185694D01*
X-35070942Y87185456D01*
X-35064725Y87127627D01*
X-35067766Y87117271D01*
X-35069747Y87114306D01*
X-35089500Y87015000D01*
X-35089500Y86485000D01*
X-35069747Y86385694D01*
X-35013494Y86301506D01*
X-34929306Y86245253D01*
X-34830000Y86225500D01*
X-32830000Y86225500D01*
X-32730694Y86245253D01*
X-32646506Y86301506D01*
X-32590253Y86385694D01*
X-32570500Y86485000D01*
X-32570500Y87015000D01*
X-32590253Y87114306D01*
X-32589058Y87114544D01*
X-32595275Y87172373D01*
X-32592234Y87182729D01*
X-32590253Y87185694D01*
X-32570500Y87285000D01*
X-32570500Y87815000D01*
X-32590253Y87914306D01*
X-32646506Y87998494D01*
X-32730694Y88054747D01*
X-32830000Y88074500D01*
X-34830000Y88074500D01*
X-34929306Y88054747D01*
X-35013494Y87998494D01*
X-35069747Y87914306D01*
X-35089500Y87815000D01*
X-35646000Y87815000D01*
X-35646000Y91815000D01*
X-35089500Y91815000D01*
X-35089500Y91285000D01*
X-35088293Y91278932D01*
X-35069747Y91185694D01*
X-35070942Y91185456D01*
X-35064725Y91127627D01*
X-35067766Y91117271D01*
X-35069747Y91114306D01*
X-35089500Y91015000D01*
X-35089500Y90485000D01*
X-35088293Y90478932D01*
X-35069747Y90385694D01*
X-35070942Y90385456D01*
X-35064725Y90327627D01*
X-35067766Y90317271D01*
X-35069747Y90314306D01*
X-35089500Y90215000D01*
X-35089500Y89685000D01*
X-35088293Y89678932D01*
X-35069747Y89585694D01*
X-35070942Y89585456D01*
X-35064725Y89527627D01*
X-35067766Y89517271D01*
X-35069747Y89514306D01*
X-35089500Y89415000D01*
X-35089500Y88885000D01*
X-35069747Y88785694D01*
X-35013494Y88701506D01*
X-34929306Y88645253D01*
X-34830000Y88625500D01*
X-32830000Y88625500D01*
X-32730694Y88645253D01*
X-32646506Y88701506D01*
X-32590253Y88785694D01*
X-32570500Y88885000D01*
X-32570500Y89415000D01*
X-32590253Y89514306D01*
X-32589058Y89514544D01*
X-32595275Y89572373D01*
X-32592234Y89582729D01*
X-32590253Y89585694D01*
X-32570500Y89685000D01*
X-32570500Y90215000D01*
X-32590253Y90314306D01*
X-32589058Y90314544D01*
X-32595275Y90372373D01*
X-32592234Y90382729D01*
X-32590253Y90385694D01*
X-32570500Y90485000D01*
X-32570500Y91015000D01*
X-32590253Y91114306D01*
X-32589058Y91114544D01*
X-32595275Y91172373D01*
X-32592234Y91182729D01*
X-32590253Y91185694D01*
X-32570500Y91285000D01*
X-32570500Y91815000D01*
X-32590253Y91914306D01*
X-32646506Y91998494D01*
X-32730694Y92054747D01*
X-32830000Y92074500D01*
X-34830000Y92074500D01*
X-34929306Y92054747D01*
X-35013494Y91998494D01*
X-35069747Y91914306D01*
X-35089500Y91815000D01*
X-35646000Y91815000D01*
X-35646000Y92264793D01*
X-30789397Y92264793D01*
X-30786714Y92232844D01*
X-30773417Y92074500D01*
X-30772094Y92058740D01*
X-30715098Y91859972D01*
X-30712280Y91854490D01*
X-30712279Y91854486D01*
X-30623401Y91681548D01*
X-30623398Y91681544D01*
X-30620580Y91676060D01*
X-30492141Y91514009D01*
X-30334671Y91379992D01*
X-30154170Y91279114D01*
X-29957512Y91215216D01*
X-29752188Y91190732D01*
X-29746053Y91191204D01*
X-29746051Y91191204D01*
X-29552162Y91206123D01*
X-29552158Y91206124D01*
X-29546020Y91206596D01*
X-29346859Y91262203D01*
X-29162292Y91355435D01*
X-28999348Y91482740D01*
X-28864235Y91639270D01*
X-28762099Y91819063D01*
X-28752757Y91847144D01*
X-28726983Y91924625D01*
X-28696829Y92015269D01*
X-28670913Y92220417D01*
X-28670500Y92250000D01*
X-28690678Y92455791D01*
X-28750443Y92653744D01*
X-28847520Y92836318D01*
X-28897001Y92896988D01*
X-28974315Y92991785D01*
X-28974318Y92991788D01*
X-28978210Y92996560D01*
X-28990810Y93006984D01*
X-29132785Y93124436D01*
X-29132789Y93124438D01*
X-29137535Y93128365D01*
X-29319427Y93226714D01*
X-29516958Y93287860D01*
X-29523083Y93288504D01*
X-29523084Y93288504D01*
X-29716475Y93308830D01*
X-29716476Y93308830D01*
X-29722603Y93309474D01*
X-29808571Y93301650D01*
X-29922392Y93291292D01*
X-29922395Y93291291D01*
X-29928531Y93290733D01*
X-29934437Y93288995D01*
X-29934441Y93288994D01*
X-30066930Y93250000D01*
X-30126896Y93232351D01*
X-30310143Y93136552D01*
X-30471293Y93006984D01*
X-30475252Y93002266D01*
X-30475253Y93002265D01*
X-30569884Y92889489D01*
X-30604208Y92848583D01*
X-30607171Y92843194D01*
X-30607174Y92843189D01*
X-30686546Y92698810D01*
X-30703824Y92667381D01*
X-30766347Y92470282D01*
X-30767033Y92464163D01*
X-30767034Y92464160D01*
X-30788710Y92270918D01*
X-30789397Y92264793D01*
X-35646000Y92264793D01*
X-35646000Y95670000D01*
X-35625998Y95738121D01*
X-35572342Y95784614D01*
X-35520000Y95796000D01*
X-35194099Y95796000D01*
X-35125978Y95775998D01*
X-35079485Y95722342D01*
X-35070520Y95645420D01*
X-35089500Y95550000D01*
X-35089500Y93250000D01*
X-35069747Y93150694D01*
X-35013494Y93066506D01*
X-34929306Y93010253D01*
X-34830000Y92990500D01*
X-31630000Y92990500D01*
X-31530694Y93010253D01*
X-31446506Y93066506D01*
X-31390253Y93150694D01*
X-31370500Y93250000D01*
X-31370500Y95550000D01*
X-31390253Y95649306D01*
X-31446506Y95733494D01*
X-31530694Y95789747D01*
X-31630000Y95809500D01*
X-33806831Y95809500D01*
X-33874952Y95829502D01*
X-33921445Y95883158D01*
X-33931549Y95953432D01*
X-33918479Y95993902D01*
X-33899157Y96030839D01*
X-33899155Y96030843D01*
X-33896291Y96036319D01*
X-33876289Y96104440D01*
X-33866000Y96176000D01*
X-33866000Y99475933D01*
X-33871395Y99528005D01*
X-33872060Y99531182D01*
X-33872062Y99531192D01*
X-33881666Y99577042D01*
X-33881667Y99577048D01*
X-33881986Y99578569D01*
X-33888377Y99602973D01*
X-33921282Y99662894D01*
X-33933105Y99684423D01*
X-33933106Y99684424D01*
X-33936081Y99689842D01*
X-33940832Y99695500D01*
X-33979937Y99742066D01*
X-33979943Y99742073D01*
X-33981738Y99744210D01*
X-34013832Y99776152D01*
X-34100929Y99823441D01*
X-34106836Y99825275D01*
X-34106838Y99825276D01*
X-34164439Y99843161D01*
X-34164443Y99843162D01*
X-34168733Y99844494D01*
X-34193064Y99848377D01*
X-34235674Y99855178D01*
X-34235677Y99855178D01*
X-34240124Y99855888D01*
X-34244622Y99855958D01*
X-34244627Y99855958D01*
X-34406102Y99858455D01*
X-34408074Y99858477D01*
X-34410022Y99858492D01*
X-34411978Y99858500D01*
X-35679547Y99858500D01*
X-35747668Y99878502D01*
X-35794161Y99932158D01*
X-35805547Y99984661D01*
X-35804141Y101088088D01*
X-35784052Y101156183D01*
X-35730337Y101202607D01*
X-35660209Y101212644D01*
X-35614000Y101206000D01*
X-34246000Y101206000D01*
X-34242653Y101206360D01*
X-34242649Y101206360D01*
X-34195374Y101211442D01*
X-34195367Y101211443D01*
X-34192010Y101211804D01*
X-34171392Y101216289D01*
X-34141322Y101222830D01*
X-34141315Y101222832D01*
X-34139668Y101223190D01*
X-34113445Y101230384D01*
X-34056923Y101262570D01*
X-34032702Y101276362D01*
X-34032698Y101276365D01*
X-34027324Y101279425D01*
X-33973668Y101325918D01*
X-33942227Y101358502D01*
X-33914294Y101411902D01*
X-33864996Y101462992D01*
X-33802646Y101479500D01*
X-33395000Y101479500D01*
X-33387810Y101480930D01*
X-33378277Y101482826D01*
X-33378276Y101482827D01*
X-33366107Y101485247D01*
X-33355792Y101492139D01*
X-33355790Y101492140D01*
X-33351928Y101494721D01*
X-33341613Y101501613D01*
X-33325247Y101526107D01*
X-33319500Y101555000D01*
X-33319500Y102185000D01*
X-33325247Y102213893D01*
X-33341613Y102238387D01*
X-33352683Y102245783D01*
X-33355790Y102247860D01*
X-33355792Y102247861D01*
X-33366107Y102254753D01*
X-33378276Y102257173D01*
X-33378277Y102257174D01*
X-33388932Y102259293D01*
X-33395000Y102260500D01*
X-33740000Y102260500D01*
X-33808121Y102280502D01*
X-33854614Y102334158D01*
X-33866000Y102386500D01*
X-33866000Y102781027D01*
X-33867455Y102808174D01*
X-33870334Y102834957D01*
X-33899949Y102929541D01*
X-33901718Y102932781D01*
X-33911500Y102980834D01*
X-33911500Y103799252D01*
X-33899681Y103847339D01*
X-33901478Y103848065D01*
X-33899157Y103853813D01*
X-33896291Y103859292D01*
X-33876289Y103927413D01*
X-33871901Y103957932D01*
X-33842408Y104022513D01*
X-33782682Y104060896D01*
X-33747184Y104066000D01*
X-33156000Y104066000D01*
X-33152653Y104066360D01*
X-33152649Y104066360D01*
X-33105374Y104071442D01*
X-33105367Y104071443D01*
X-33102010Y104071804D01*
X-33096875Y104072921D01*
X-33051322Y104082830D01*
X-33051315Y104082832D01*
X-33049668Y104083190D01*
X-33023445Y104090384D01*
X-32972811Y104119217D01*
X-32942702Y104136362D01*
X-32942698Y104136365D01*
X-32937324Y104139425D01*
X-32903624Y104168626D01*
X-32885791Y104184078D01*
X-32885786Y104184083D01*
X-32883668Y104185918D01*
X-32852227Y104218502D01*
X-32806291Y104306319D01*
X-32786289Y104374440D01*
X-32785418Y104380494D01*
X-32776642Y104441537D01*
X-32776000Y104446000D01*
X-32776000Y105506799D01*
X-32755998Y105574920D01*
X-32702342Y105621413D01*
X-32632068Y105631517D01*
X-32576563Y105609185D01*
X-32539820Y105582830D01*
X-32539807Y105582822D01*
X-32534942Y105579333D01*
X-32529497Y105576823D01*
X-32377200Y105506613D01*
X-32341201Y105490017D01*
X-32335385Y105488583D01*
X-32335382Y105488582D01*
X-32217080Y105459415D01*
X-32134066Y105438948D01*
X-32128076Y105438639D01*
X-32128074Y105438639D01*
X-32053288Y105434785D01*
X-31921011Y105427969D01*
X-31915076Y105428798D01*
X-31915072Y105428798D01*
X-31748221Y105452099D01*
X-31709724Y105457475D01*
X-31507828Y105526403D01*
X-31415220Y105579333D01*
X-31327813Y105629290D01*
X-31327808Y105629293D01*
X-31322609Y105632265D01*
X-31160749Y105771240D01*
X-31028089Y105938316D01*
X-30929416Y106127463D01*
X-30868289Y106331855D01*
X-30867108Y106343576D01*
X-30856768Y106446259D01*
X-30548298Y106446259D01*
X-30547180Y106440372D01*
X-30519399Y106294043D01*
X-30508506Y106236665D01*
X-30429798Y106038378D01*
X-30426574Y106033327D01*
X-30426573Y106033325D01*
X-30391569Y105978486D01*
X-30315015Y105858551D01*
X-30168298Y105703673D01*
X-30163433Y105700183D01*
X-30163430Y105700181D01*
X-30036562Y105609185D01*
X-29994942Y105579333D01*
X-29989497Y105576823D01*
X-29837200Y105506613D01*
X-29801201Y105490017D01*
X-29795385Y105488583D01*
X-29795382Y105488582D01*
X-29677080Y105459415D01*
X-29594066Y105438948D01*
X-29588076Y105438639D01*
X-29588074Y105438639D01*
X-29513288Y105434785D01*
X-29381011Y105427969D01*
X-29375076Y105428798D01*
X-29375072Y105428798D01*
X-29208221Y105452099D01*
X-29169724Y105457475D01*
X-28967828Y105526403D01*
X-28875220Y105579333D01*
X-28787813Y105629290D01*
X-28787808Y105629293D01*
X-28782609Y105632265D01*
X-28620749Y105771240D01*
X-28488089Y105938316D01*
X-28389416Y106127463D01*
X-28328289Y106331855D01*
X-28327108Y106343576D01*
X-28316768Y106446259D01*
X-25468298Y106446259D01*
X-25467180Y106440372D01*
X-25439399Y106294043D01*
X-25428506Y106236665D01*
X-25349798Y106038378D01*
X-25346574Y106033327D01*
X-25346573Y106033325D01*
X-25311569Y105978486D01*
X-25235015Y105858551D01*
X-25088298Y105703673D01*
X-25083433Y105700183D01*
X-25083430Y105700181D01*
X-24956562Y105609185D01*
X-24914942Y105579333D01*
X-24909497Y105576823D01*
X-24757200Y105506613D01*
X-24721201Y105490017D01*
X-24715385Y105488583D01*
X-24715382Y105488582D01*
X-24597080Y105459415D01*
X-24514066Y105438948D01*
X-24508076Y105438639D01*
X-24508074Y105438639D01*
X-24433288Y105434785D01*
X-24301011Y105427969D01*
X-24295076Y105428798D01*
X-24295072Y105428798D01*
X-24128221Y105452099D01*
X-24089724Y105457475D01*
X-23887828Y105526403D01*
X-23795220Y105579333D01*
X-23707813Y105629290D01*
X-23707808Y105629293D01*
X-23702609Y105632265D01*
X-23540749Y105771240D01*
X-23408089Y105938316D01*
X-23309416Y106127463D01*
X-23248289Y106331855D01*
X-23247108Y106343576D01*
X-23227223Y106541056D01*
X-23227223Y106541065D01*
X-23226915Y106544119D01*
X-23226900Y106550000D01*
X-23247162Y106762373D01*
X-23307218Y106967083D01*
X-23309968Y106972423D01*
X-23402153Y107151413D01*
X-23402155Y107151416D01*
X-23404899Y107156744D01*
X-23536683Y107324512D01*
X-23581308Y107363236D01*
X-23693282Y107460401D01*
X-23697813Y107464333D01*
X-23882475Y107571163D01*
X-23917063Y107583174D01*
X-24078333Y107639177D01*
X-24078336Y107639178D01*
X-24084007Y107641147D01*
X-24227112Y107661896D01*
X-24289197Y107670898D01*
X-24289200Y107670898D01*
X-24295137Y107671759D01*
X-24508246Y107661896D01*
X-24514070Y107660492D01*
X-24514073Y107660492D01*
X-24709813Y107613318D01*
X-24709815Y107613317D01*
X-24715646Y107611912D01*
X-24721104Y107609430D01*
X-24721108Y107609429D01*
X-24780141Y107582588D01*
X-24909852Y107523612D01*
X-25083857Y107400181D01*
X-25087999Y107395854D01*
X-25227234Y107250408D01*
X-25227238Y107250403D01*
X-25231382Y107246074D01*
X-25234636Y107241035D01*
X-25234638Y107241032D01*
X-25292504Y107151413D01*
X-25347105Y107066850D01*
X-25426850Y106868978D01*
X-25427998Y106863097D01*
X-25428000Y106863092D01*
X-25439125Y106806123D01*
X-25467740Y106659595D01*
X-25468298Y106446259D01*
X-28316768Y106446259D01*
X-28307223Y106541056D01*
X-28307223Y106541065D01*
X-28306915Y106544119D01*
X-28306900Y106550000D01*
X-28327162Y106762373D01*
X-28387218Y106967083D01*
X-28389968Y106972423D01*
X-28482153Y107151413D01*
X-28482155Y107151416D01*
X-28484899Y107156744D01*
X-28616683Y107324512D01*
X-28661308Y107363236D01*
X-28773282Y107460401D01*
X-28777813Y107464333D01*
X-28962475Y107571163D01*
X-28997063Y107583174D01*
X-29158333Y107639177D01*
X-29158336Y107639178D01*
X-29164007Y107641147D01*
X-29307112Y107661896D01*
X-29369197Y107670898D01*
X-29369200Y107670898D01*
X-29375137Y107671759D01*
X-29588246Y107661896D01*
X-29594070Y107660492D01*
X-29594073Y107660492D01*
X-29789813Y107613318D01*
X-29789815Y107613317D01*
X-29795646Y107611912D01*
X-29801104Y107609430D01*
X-29801108Y107609429D01*
X-29860141Y107582588D01*
X-29989852Y107523612D01*
X-30163857Y107400181D01*
X-30167999Y107395854D01*
X-30307234Y107250408D01*
X-30307238Y107250403D01*
X-30311382Y107246074D01*
X-30314636Y107241035D01*
X-30314638Y107241032D01*
X-30372504Y107151413D01*
X-30427105Y107066850D01*
X-30506850Y106868978D01*
X-30507998Y106863097D01*
X-30508000Y106863092D01*
X-30519125Y106806123D01*
X-30547740Y106659595D01*
X-30548298Y106446259D01*
X-30856768Y106446259D01*
X-30847223Y106541056D01*
X-30847223Y106541065D01*
X-30846915Y106544119D01*
X-30846900Y106550000D01*
X-30867162Y106762373D01*
X-30927218Y106967083D01*
X-30929968Y106972423D01*
X-31022153Y107151413D01*
X-31022155Y107151416D01*
X-31024899Y107156744D01*
X-31156683Y107324512D01*
X-31201308Y107363236D01*
X-31313282Y107460401D01*
X-31317813Y107464333D01*
X-31502475Y107571163D01*
X-31537063Y107583174D01*
X-31698333Y107639177D01*
X-31698336Y107639178D01*
X-31704007Y107641147D01*
X-31847112Y107661896D01*
X-31909197Y107670898D01*
X-31909200Y107670898D01*
X-31915137Y107671759D01*
X-32128246Y107661896D01*
X-32134070Y107660492D01*
X-32134073Y107660492D01*
X-32329813Y107613318D01*
X-32329815Y107613317D01*
X-32335646Y107611912D01*
X-32341104Y107609430D01*
X-32341108Y107609429D01*
X-32400141Y107582588D01*
X-32529852Y107523612D01*
X-32574351Y107492046D01*
X-32577099Y107490097D01*
X-32644233Y107466998D01*
X-32713198Y107483861D01*
X-32762098Y107535333D01*
X-32776000Y107592866D01*
X-32776000Y108705951D01*
X-32780520Y108753656D01*
X-32789409Y108800142D01*
X-32802134Y108843837D01*
X-32804946Y108855554D01*
X-32829761Y108986259D01*
X-30548298Y108986259D01*
X-30508506Y108776665D01*
X-30429798Y108578378D01*
X-30315015Y108398551D01*
X-30310892Y108394199D01*
X-30188461Y108264958D01*
X-30168298Y108243673D01*
X-30163433Y108240183D01*
X-30163430Y108240181D01*
X-29999812Y108122826D01*
X-29994942Y108119333D01*
X-29945732Y108096647D01*
X-29831532Y108044000D01*
X-29801201Y108030017D01*
X-29795385Y108028583D01*
X-29795382Y108028582D01*
X-29649852Y107992702D01*
X-29594066Y107978948D01*
X-29588076Y107978639D01*
X-29588074Y107978639D01*
X-29513288Y107974785D01*
X-29381011Y107967969D01*
X-29375076Y107968798D01*
X-29375072Y107968798D01*
X-29180702Y107995942D01*
X-29169724Y107997475D01*
X-28967828Y108066403D01*
X-28879612Y108116823D01*
X-28787813Y108169290D01*
X-28787808Y108169293D01*
X-28782609Y108172265D01*
X-28672785Y108266561D01*
X-28625297Y108307335D01*
X-28620749Y108311240D01*
X-28488089Y108478316D01*
X-28416714Y108615134D01*
X-28392187Y108662151D01*
X-28392187Y108662152D01*
X-28389416Y108667463D01*
X-28328289Y108871855D01*
X-28317361Y108980372D01*
X-28316768Y108986259D01*
X-28008298Y108986259D01*
X-27968506Y108776665D01*
X-27889798Y108578378D01*
X-27775015Y108398551D01*
X-27770892Y108394199D01*
X-27648461Y108264958D01*
X-27628298Y108243673D01*
X-27623433Y108240183D01*
X-27623430Y108240181D01*
X-27459812Y108122826D01*
X-27454942Y108119333D01*
X-27405732Y108096647D01*
X-27291532Y108044000D01*
X-27261201Y108030017D01*
X-27255385Y108028583D01*
X-27255382Y108028582D01*
X-27109852Y107992702D01*
X-27054066Y107978948D01*
X-27048076Y107978639D01*
X-27048074Y107978639D01*
X-26973288Y107974785D01*
X-26841011Y107967969D01*
X-26835076Y107968798D01*
X-26835072Y107968798D01*
X-26640702Y107995942D01*
X-26629724Y107997475D01*
X-26427828Y108066403D01*
X-26339612Y108116823D01*
X-26247813Y108169290D01*
X-26247808Y108169293D01*
X-26242609Y108172265D01*
X-26132785Y108266561D01*
X-26085297Y108307335D01*
X-26080749Y108311240D01*
X-25948089Y108478316D01*
X-25876714Y108615134D01*
X-25852187Y108662151D01*
X-25852187Y108662152D01*
X-25849416Y108667463D01*
X-25788289Y108871855D01*
X-25777361Y108980372D01*
X-25776768Y108986259D01*
X-25468298Y108986259D01*
X-25428506Y108776665D01*
X-25349798Y108578378D01*
X-25235015Y108398551D01*
X-25230892Y108394199D01*
X-25108461Y108264958D01*
X-25088298Y108243673D01*
X-25083433Y108240183D01*
X-25083430Y108240181D01*
X-24919812Y108122826D01*
X-24914942Y108119333D01*
X-24865732Y108096647D01*
X-24751532Y108044000D01*
X-24721201Y108030017D01*
X-24715385Y108028583D01*
X-24715382Y108028582D01*
X-24569852Y107992702D01*
X-24514066Y107978948D01*
X-24508076Y107978639D01*
X-24508074Y107978639D01*
X-24433288Y107974785D01*
X-24301011Y107967969D01*
X-24295076Y107968798D01*
X-24295072Y107968798D01*
X-24100702Y107995942D01*
X-24089724Y107997475D01*
X-23887828Y108066403D01*
X-23799612Y108116823D01*
X-23707813Y108169290D01*
X-23707808Y108169293D01*
X-23702609Y108172265D01*
X-23592785Y108266561D01*
X-23545297Y108307335D01*
X-23540749Y108311240D01*
X-23408089Y108478316D01*
X-23336714Y108615134D01*
X-23312187Y108662151D01*
X-23312187Y108662152D01*
X-23309416Y108667463D01*
X-23248289Y108871855D01*
X-23237361Y108980372D01*
X-23227223Y109081056D01*
X-23227223Y109081065D01*
X-23226915Y109084119D01*
X-23226900Y109090000D01*
X-23247162Y109302373D01*
X-23307218Y109507083D01*
X-23309968Y109512423D01*
X-23402153Y109691413D01*
X-23402155Y109691416D01*
X-23404899Y109696744D01*
X-23536683Y109864512D01*
X-23697813Y110004333D01*
X-23882475Y110111163D01*
X-24003868Y110153318D01*
X-24078333Y110179177D01*
X-24078336Y110179178D01*
X-24084007Y110181147D01*
X-24227112Y110201896D01*
X-24289197Y110210898D01*
X-24289200Y110210898D01*
X-24295137Y110211759D01*
X-24508246Y110201896D01*
X-24514070Y110200492D01*
X-24514073Y110200492D01*
X-24709813Y110153318D01*
X-24709815Y110153317D01*
X-24715646Y110151912D01*
X-24721104Y110149430D01*
X-24721108Y110149429D01*
X-24800934Y110113134D01*
X-24909852Y110063612D01*
X-25083857Y109940181D01*
X-25087999Y109935854D01*
X-25227234Y109790408D01*
X-25227238Y109790403D01*
X-25231382Y109786074D01*
X-25234636Y109781035D01*
X-25234638Y109781032D01*
X-25292504Y109691413D01*
X-25347105Y109606850D01*
X-25349349Y109601281D01*
X-25418430Y109429870D01*
X-25426850Y109408978D01*
X-25427998Y109403097D01*
X-25428000Y109403092D01*
X-25440304Y109340086D01*
X-25467740Y109199595D01*
X-25467756Y109193610D01*
X-25467756Y109193606D01*
X-25467805Y109174696D01*
X-25468298Y108986259D01*
X-25776768Y108986259D01*
X-25767223Y109081056D01*
X-25767223Y109081065D01*
X-25766915Y109084119D01*
X-25766900Y109090000D01*
X-25787162Y109302373D01*
X-25847218Y109507083D01*
X-25849968Y109512423D01*
X-25942153Y109691413D01*
X-25942155Y109691416D01*
X-25944899Y109696744D01*
X-26076683Y109864512D01*
X-26237813Y110004333D01*
X-26422475Y110111163D01*
X-26543868Y110153318D01*
X-26618333Y110179177D01*
X-26618336Y110179178D01*
X-26624007Y110181147D01*
X-26767112Y110201896D01*
X-26829197Y110210898D01*
X-26829200Y110210898D01*
X-26835137Y110211759D01*
X-27048246Y110201896D01*
X-27054070Y110200492D01*
X-27054073Y110200492D01*
X-27249813Y110153318D01*
X-27249815Y110153317D01*
X-27255646Y110151912D01*
X-27261104Y110149430D01*
X-27261108Y110149429D01*
X-27340934Y110113134D01*
X-27449852Y110063612D01*
X-27623857Y109940181D01*
X-27627999Y109935854D01*
X-27767234Y109790408D01*
X-27767238Y109790403D01*
X-27771382Y109786074D01*
X-27774636Y109781035D01*
X-27774638Y109781032D01*
X-27832504Y109691413D01*
X-27887105Y109606850D01*
X-27889349Y109601281D01*
X-27958430Y109429870D01*
X-27966850Y109408978D01*
X-27967998Y109403097D01*
X-27968000Y109403092D01*
X-27980304Y109340086D01*
X-28007740Y109199595D01*
X-28007756Y109193610D01*
X-28007756Y109193606D01*
X-28007805Y109174696D01*
X-28008298Y108986259D01*
X-28316768Y108986259D01*
X-28307223Y109081056D01*
X-28307223Y109081065D01*
X-28306915Y109084119D01*
X-28306900Y109090000D01*
X-28327162Y109302373D01*
X-28387218Y109507083D01*
X-28389968Y109512423D01*
X-28482153Y109691413D01*
X-28482155Y109691416D01*
X-28484899Y109696744D01*
X-28616683Y109864512D01*
X-28777813Y110004333D01*
X-28962475Y110111163D01*
X-29083868Y110153318D01*
X-29158333Y110179177D01*
X-29158336Y110179178D01*
X-29164007Y110181147D01*
X-29307112Y110201896D01*
X-29369197Y110210898D01*
X-29369200Y110210898D01*
X-29375137Y110211759D01*
X-29588246Y110201896D01*
X-29594070Y110200492D01*
X-29594073Y110200492D01*
X-29789813Y110153318D01*
X-29789815Y110153317D01*
X-29795646Y110151912D01*
X-29801104Y110149430D01*
X-29801108Y110149429D01*
X-29880934Y110113134D01*
X-29989852Y110063612D01*
X-30163857Y109940181D01*
X-30167999Y109935854D01*
X-30307234Y109790408D01*
X-30307238Y109790403D01*
X-30311382Y109786074D01*
X-30314636Y109781035D01*
X-30314638Y109781032D01*
X-30372504Y109691413D01*
X-30427105Y109606850D01*
X-30429349Y109601281D01*
X-30498430Y109429870D01*
X-30506850Y109408978D01*
X-30507998Y109403097D01*
X-30508000Y109403092D01*
X-30520304Y109340086D01*
X-30547740Y109199595D01*
X-30547756Y109193610D01*
X-30547756Y109193606D01*
X-30547805Y109174696D01*
X-30548298Y108986259D01*
X-32829761Y108986259D01*
X-32831995Y108998024D01*
X-32834205Y109021851D01*
X-32833835Y109162679D01*
X-32831499Y109186496D01*
X-32818378Y109253689D01*
X-32818378Y109253692D01*
X-32802647Y109334243D01*
X-32799818Y109345799D01*
X-32790633Y109376881D01*
X-32789780Y109379766D01*
X-32780646Y109426864D01*
X-32776000Y109475223D01*
X-32776000Y110694000D01*
X-32781804Y110747990D01*
X-32785626Y110765560D01*
X-32792830Y110798678D01*
X-32792832Y110798685D01*
X-32793190Y110800332D01*
X-32800384Y110826555D01*
X-32823597Y110867320D01*
X-32846362Y110907298D01*
X-32846365Y110907302D01*
X-32849425Y110912676D01*
X-32885303Y110954082D01*
X-32894078Y110964209D01*
X-32894083Y110964214D01*
X-32895918Y110966332D01*
X-32928502Y110997773D01*
X-33016319Y111043709D01*
X-33084440Y111063711D01*
X-33088899Y111064352D01*
X-33088903Y111064353D01*
X-33120220Y111068855D01*
X-33156000Y111074000D01*
X-38284000Y111074000D01*
X-38287347Y111073640D01*
X-38287351Y111073640D01*
X-38334626Y111068558D01*
X-38334633Y111068557D01*
X-38337990Y111068196D01*
X-38341290Y111067478D01*
X-38341291Y111067478D01*
X-38388678Y111057170D01*
X-38388685Y111057168D01*
X-38390332Y111056810D01*
X-38416555Y111049616D01*
X-38457320Y111026403D01*
X-38497298Y111003638D01*
X-38497302Y111003635D01*
X-38502676Y111000575D01*
X-38507353Y110996522D01*
X-38539945Y110968281D01*
X-38556332Y110954082D01*
X-38587773Y110921498D01*
X-38633709Y110833681D01*
X-38653711Y110765560D01*
X-38664000Y110694000D01*
X-39056000Y110694000D01*
X-39056000Y111450000D01*
X-39035998Y111518121D01*
X-38982342Y111564614D01*
X-38930000Y111576000D01*
X-700000Y111576000D01*
X-631879Y111555998D01*
X-585386Y111502342D01*
X-574000Y111450000D01*
X-574000Y97877473D01*
X-576411Y97852941D01*
X-579000Y97839898D01*
X-569129Y97790377D01*
X-559285Y97740885D01*
X-559256Y97740842D01*
X-559246Y97740791D01*
X-552292Y97730392D01*
X-552290Y97730388D01*
X-531235Y97698904D01*
X-531206Y97698862D01*
X-509822Y97666857D01*
X-509820Y97666855D01*
X-503141Y97656859D01*
X-503098Y97656830D01*
X-503069Y97656787D01*
X-493099Y97650131D01*
X-493098Y97650130D01*
X-468628Y97633794D01*
X-460972Y97628683D01*
X-419115Y97600715D01*
X-419064Y97600705D01*
X-419021Y97600676D01*
X-406705Y97598231D01*
X-406704Y97598231D01*
X-394673Y97595843D01*
X-369257Y97590798D01*
X-320000Y97581000D01*
X-307829Y97583421D01*
X-307828Y97583421D01*
X-306963Y97583593D01*
X-282431Y97586015D01*
X2091117Y97586947D01*
X4413319Y97587859D01*
X7046080Y97588893D01*
X12372480Y97590985D01*
X12397109Y97588564D01*
X12410000Y97586000D01*
X12422171Y97588421D01*
X12435187Y97591010D01*
X12435237Y97591010D01*
X12459485Y97595843D01*
X12496809Y97603267D01*
X12496810Y97603267D01*
X12509115Y97605715D01*
X12509158Y97605744D01*
X12509209Y97605754D01*
X12519605Y97612706D01*
X12519609Y97612708D01*
X12551096Y97633765D01*
X12551138Y97633794D01*
X12583143Y97655178D01*
X12583145Y97655180D01*
X12593141Y97661859D01*
X12593170Y97661902D01*
X12593213Y97661931D01*
X12621317Y97704028D01*
X12649285Y97745885D01*
X12649295Y97745936D01*
X12649324Y97745979D01*
X12659162Y97795541D01*
X12664000Y97819863D01*
X12664000Y97819913D01*
X12669000Y97845102D01*
X12666431Y97857991D01*
X12664000Y97882621D01*
X12664000Y111454638D01*
X12684002Y111522759D01*
X12737658Y111569252D01*
X12790120Y111580638D01*
X13929382Y111579555D01*
G37*
%TD.AperFunction*%
%TA.AperFunction,Conductor*%
G36*
X-24608157Y90600498D02*
G01*
X-24606752Y90599485D01*
X-24606740Y90599504D01*
X-24601562Y90596111D01*
X-24596744Y90592228D01*
X-24589042Y90588199D01*
X-24588688Y90588014D01*
X-24588821Y90587760D01*
X-24587736Y90587049D01*
X-24587544Y90587416D01*
X-24524030Y90554192D01*
X-24508926Y90546291D01*
X-24502988Y90544548D01*
X-24502987Y90544547D01*
X-24486288Y90539644D01*
X-24440805Y90526289D01*
X-24436346Y90525648D01*
X-24436342Y90525647D01*
X-24408569Y90521654D01*
X-24369245Y90516000D01*
X-18935293Y90516000D01*
X-18912471Y90518421D01*
X-18885303Y90521303D01*
X-18885296Y90521304D01*
X-18881998Y90521654D01*
X-18843937Y90529822D01*
X-18773137Y90524559D01*
X-18716421Y90481854D01*
X-18691796Y90415264D01*
X-18691500Y90406627D01*
X-18691500Y85530213D01*
X-18711502Y85462092D01*
X-18728405Y85441118D01*
X-23801118Y80368405D01*
X-23863430Y80334379D01*
X-23890213Y80331500D01*
X-24334394Y80331500D01*
X-24402515Y80351502D01*
X-24439160Y80387500D01*
X-24439613Y80388178D01*
X-24446506Y80398494D01*
X-24530694Y80454747D01*
X-24630000Y80474500D01*
X-26630000Y80474500D01*
X-26729306Y80454747D01*
X-26813494Y80398494D01*
X-26869747Y80314306D01*
X-26889500Y80215000D01*
X-26889500Y79923182D01*
X-26909502Y79855061D01*
X-26963158Y79808568D01*
X-27015190Y79797182D01*
X-27494928Y79796003D01*
X-27929691Y79794934D01*
X-27997860Y79814769D01*
X-28044485Y79868310D01*
X-28056000Y79920934D01*
X-28056000Y83757407D01*
X-28035998Y83825528D01*
X-27982342Y83872021D01*
X-27929143Y83883404D01*
X-27892984Y83883158D01*
X-26971802Y83876891D01*
X-26971799Y83876891D01*
X-26968394Y83876868D01*
X-26913705Y83882445D01*
X-26910362Y83883158D01*
X-26910360Y83883158D01*
X-26862369Y83893389D01*
X-26862352Y83893393D01*
X-26860678Y83893750D01*
X-26833788Y83901045D01*
X-26747593Y83949957D01*
X-26742909Y83954004D01*
X-26742904Y83954007D01*
X-26696007Y83994521D01*
X-26696005Y83994523D01*
X-26693868Y83996369D01*
X-26662380Y84028903D01*
X-26638253Y84074858D01*
X-26619187Y84111171D01*
X-26619185Y84111176D01*
X-26616311Y84116650D01*
X-26596206Y84184740D01*
X-26585809Y84256287D01*
X-26584840Y84899690D01*
X-26564735Y84967780D01*
X-26511010Y85014192D01*
X-26458840Y85025500D01*
X-24630000Y85025500D01*
X-24530694Y85045253D01*
X-24446506Y85101506D01*
X-24390253Y85185694D01*
X-24370500Y85285000D01*
X-24370500Y85815000D01*
X-24390253Y85914306D01*
X-24389058Y85914544D01*
X-24395275Y85972373D01*
X-24392234Y85982729D01*
X-24390253Y85985694D01*
X-24370500Y86085000D01*
X-24370500Y86615000D01*
X-24390253Y86714306D01*
X-24389058Y86714544D01*
X-24395275Y86772373D01*
X-24392234Y86782729D01*
X-24390253Y86785694D01*
X-24370500Y86885000D01*
X-24370500Y87415000D01*
X-24390253Y87514306D01*
X-24389058Y87514544D01*
X-24395275Y87572373D01*
X-24392234Y87582729D01*
X-24390253Y87585694D01*
X-24370500Y87685000D01*
X-24370500Y88215000D01*
X-24390253Y88314306D01*
X-24389058Y88314544D01*
X-24395275Y88372373D01*
X-24392234Y88382729D01*
X-24390253Y88385694D01*
X-24370500Y88485000D01*
X-24370500Y89015000D01*
X-24390253Y89114306D01*
X-24389058Y89114544D01*
X-24395275Y89172373D01*
X-24392234Y89182729D01*
X-24390253Y89185694D01*
X-24370500Y89285000D01*
X-24370500Y89815000D01*
X-24390253Y89914306D01*
X-24446506Y89998494D01*
X-24530694Y90054747D01*
X-24630000Y90074500D01*
X-26509500Y90074500D01*
X-26577621Y90094502D01*
X-26624114Y90148158D01*
X-26635500Y90200500D01*
X-26635500Y90494500D01*
X-26615498Y90562621D01*
X-26561842Y90609114D01*
X-26509500Y90620500D01*
X-24676278Y90620500D01*
X-24608157Y90600498D01*
G37*
%TD.AperFunction*%
%TA.AperFunction,Conductor*%
G36*
X-18138404Y105945746D02*
G01*
X-18106167Y105882490D01*
X-18104000Y105859224D01*
X-18104000Y104207400D01*
X-18124002Y104139279D01*
X-18140905Y104118305D01*
X-18602816Y103656394D01*
X-18616349Y103641754D01*
X-18629190Y103626720D01*
X-18641542Y103611052D01*
X-18666519Y103576673D01*
X-18688135Y103553655D01*
X-18730644Y103518489D01*
X-18775181Y103481645D01*
X-18775765Y103481138D01*
X-18775770Y103481134D01*
X-18783652Y103474295D01*
X-18783679Y103474271D01*
X-18784231Y103473792D01*
X-18793011Y103465802D01*
X-18801661Y103457549D01*
X-20212700Y102046510D01*
X-20230865Y102026288D01*
X-20247768Y102005314D01*
X-20293709Y101917491D01*
X-20313711Y101849370D01*
X-20324000Y101777810D01*
X-20324000Y99607400D01*
X-20344002Y99539279D01*
X-20360905Y99518305D01*
X-21122700Y98756510D01*
X-21140865Y98736288D01*
X-21157768Y98715314D01*
X-21160639Y98709825D01*
X-21199834Y98634898D01*
X-21203709Y98627491D01*
X-21205452Y98621553D01*
X-21205453Y98621552D01*
X-21210688Y98603722D01*
X-21223711Y98559370D01*
X-21234000Y98487810D01*
X-21234000Y92350000D01*
X-21254002Y92281879D01*
X-21307658Y92235386D01*
X-21360000Y92224000D01*
X-26482288Y92224000D01*
X-26550409Y92244002D01*
X-26596902Y92297658D01*
X-26607006Y92367932D01*
X-26577512Y92432512D01*
X-26571383Y92439095D01*
X-25297611Y93712867D01*
X-25281425Y93725940D01*
X-25278627Y93728485D01*
X-25269881Y93734133D01*
X-25263436Y93742308D01*
X-25263434Y93742310D01*
X-25250400Y93758844D01*
X-25245990Y93763806D01*
X-25246032Y93763842D01*
X-25242679Y93767799D01*
X-25238998Y93771480D01*
X-25226764Y93788599D01*
X-25223201Y93793345D01*
X-25197754Y93825624D01*
X-25191307Y93833802D01*
X-25188259Y93842483D01*
X-25182913Y93849963D01*
X-25168162Y93899286D01*
X-25166327Y93904934D01*
X-25151882Y93946067D01*
X-25151881Y93946070D01*
X-25149255Y93953549D01*
X-25148500Y93962267D01*
X-25148500Y93964976D01*
X-25148497Y93965041D01*
X-25146548Y93971559D01*
X-25148403Y94018770D01*
X-25148500Y94023716D01*
X-25148500Y100359787D01*
X-25128498Y100427908D01*
X-25111595Y100448882D01*
X-20386996Y105173481D01*
X-20370823Y105186543D01*
X-20368018Y105189096D01*
X-20359270Y105194744D01*
X-20352825Y105202919D01*
X-20352823Y105202921D01*
X-20339793Y105219450D01*
X-20335379Y105224417D01*
X-20335420Y105224452D01*
X-20332061Y105228416D01*
X-20328386Y105232091D01*
X-20316147Y105249217D01*
X-20312584Y105253963D01*
X-20287143Y105286234D01*
X-20287141Y105286237D01*
X-20280696Y105294413D01*
X-20277648Y105303093D01*
X-20272301Y105310575D01*
X-20267993Y105324977D01*
X-20257544Y105359919D01*
X-20255709Y105365567D01*
X-20241270Y105406681D01*
X-20241269Y105406685D01*
X-20238644Y105414160D01*
X-20237889Y105422878D01*
X-20237889Y105425619D01*
X-20237888Y105425644D01*
X-20235936Y105432170D01*
X-20237792Y105479406D01*
X-20237889Y105484352D01*
X-20237889Y105629812D01*
X-20217887Y105697933D01*
X-20164231Y105744426D01*
X-20093957Y105754530D01*
X-20029377Y105725036D01*
X-20020416Y105716465D01*
X-20008298Y105703673D01*
X-20003433Y105700183D01*
X-20003430Y105700181D01*
X-19876562Y105609185D01*
X-19834942Y105579333D01*
X-19829497Y105576823D01*
X-19677200Y105506613D01*
X-19641201Y105490017D01*
X-19635385Y105488583D01*
X-19635382Y105488582D01*
X-19517080Y105459415D01*
X-19434066Y105438948D01*
X-19428076Y105438639D01*
X-19428074Y105438639D01*
X-19353288Y105434785D01*
X-19221011Y105427969D01*
X-19215076Y105428798D01*
X-19215072Y105428798D01*
X-19048221Y105452099D01*
X-19009724Y105457475D01*
X-18807828Y105526403D01*
X-18715220Y105579333D01*
X-18627813Y105629290D01*
X-18627808Y105629293D01*
X-18622609Y105632265D01*
X-18460749Y105771240D01*
X-18457021Y105775935D01*
X-18328677Y105937575D01*
X-18270653Y105978486D01*
X-18199722Y105981532D01*
X-18138404Y105945746D01*
G37*
%TD.AperFunction*%
%TA.AperFunction,Conductor*%
G36*
X-19309026Y96389702D02*
G01*
X-19240957Y96376717D01*
X-19210918Y96366957D01*
X-19124670Y96326371D01*
X-19111873Y96319419D01*
X-19086841Y96303882D01*
X-19082937Y96302139D01*
X-19082934Y96302138D01*
X-19027510Y96277401D01*
X-19027504Y96277399D01*
X-19025159Y96276352D01*
X-19022738Y96275502D01*
X-19022733Y96275500D01*
X-19002531Y96268408D01*
X-18985833Y96262545D01*
X-18977058Y96262025D01*
X-18977057Y96262025D01*
X-18893081Y96257050D01*
X-18893079Y96257050D01*
X-18886900Y96256684D01*
X-18834731Y96263886D01*
X-18764515Y96253388D01*
X-18711121Y96206594D01*
X-18691500Y96139070D01*
X-18691500Y95833409D01*
X-18711502Y95765288D01*
X-18765158Y95718795D01*
X-18838276Y95709134D01*
X-18883470Y95716690D01*
X-18886281Y95716905D01*
X-18886288Y95716906D01*
X-18904177Y95718275D01*
X-18928620Y95720146D01*
X-18965009Y95712420D01*
X-19019514Y95700848D01*
X-19019517Y95700847D01*
X-19025565Y95699563D01*
X-19083334Y95674759D01*
X-19082919Y95673793D01*
X-19095724Y95666288D01*
X-19098673Y95665147D01*
X-19104684Y95662821D01*
X-19105584Y95665147D01*
X-19107967Y95663810D01*
X-19107207Y95661846D01*
X-19119917Y95656929D01*
X-19125134Y95653618D01*
X-19129715Y95651307D01*
X-19132802Y95649801D01*
X-19210924Y95613040D01*
X-19240953Y95603284D01*
X-19264852Y95598725D01*
X-19309027Y95590298D01*
X-19340548Y95588315D01*
X-19365710Y95589898D01*
X-19375132Y95590491D01*
X-19375136Y95590491D01*
X-19397812Y95591917D01*
X-19409723Y95592667D01*
X-19440743Y95598584D01*
X-19506660Y95620001D01*
X-19535227Y95633444D01*
X-19593752Y95670585D01*
X-19618084Y95690715D01*
X-19626392Y95699563D01*
X-19638462Y95712416D01*
X-19638463Y95712417D01*
X-19665527Y95741236D01*
X-19684092Y95766789D01*
X-19689155Y95775998D01*
X-19717482Y95827526D01*
X-19729107Y95856889D01*
X-19732325Y95869425D01*
X-19746341Y95924011D01*
X-19750300Y95955346D01*
X-19750300Y96024654D01*
X-19746341Y96055989D01*
X-19729107Y96123111D01*
X-19717481Y96152476D01*
X-19702071Y96180506D01*
X-19684092Y96213211D01*
X-19665527Y96238764D01*
X-19618086Y96289283D01*
X-19593750Y96309415D01*
X-19535230Y96346553D01*
X-19506652Y96360001D01*
X-19440746Y96381415D01*
X-19409723Y96387333D01*
X-19397812Y96388083D01*
X-19375136Y96389509D01*
X-19375132Y96389509D01*
X-19365710Y96390102D01*
X-19340548Y96391685D01*
X-19309026Y96389702D01*
G37*
%TD.AperFunction*%
%TD*%
%TA.AperFunction,Conductor*%
%TO.N,5V*%
G36*
X-33087879Y110799998D02*
G01*
X-33041386Y110746342D01*
X-33030000Y110694000D01*
X-33030000Y109475223D01*
X-33039134Y109428125D01*
X-33044607Y109414546D01*
X-33044610Y109414537D01*
X-33046850Y109408978D01*
X-33047998Y109403097D01*
X-33048000Y109403092D01*
X-33067669Y109302373D01*
X-33087740Y109199595D01*
X-33088298Y108986259D01*
X-33048506Y108776665D01*
X-33046294Y108771093D01*
X-33038889Y108752437D01*
X-33030000Y108705951D01*
X-33030000Y106935223D01*
X-33039134Y106888125D01*
X-33044607Y106874546D01*
X-33044610Y106874537D01*
X-33046850Y106868978D01*
X-33047998Y106863097D01*
X-33048000Y106863092D01*
X-33066544Y106768134D01*
X-33087740Y106659595D01*
X-33088298Y106446259D01*
X-33048506Y106236665D01*
X-33046294Y106231093D01*
X-33038889Y106212437D01*
X-33030000Y106165951D01*
X-33030000Y104446000D01*
X-33050002Y104377879D01*
X-33103658Y104331386D01*
X-33156000Y104320000D01*
X-34120000Y104320000D01*
X-34120000Y103998973D01*
X-34140002Y103930852D01*
X-34149886Y103918587D01*
X-34155102Y103915102D01*
X-34162798Y103903585D01*
X-34165500Y103890000D01*
X-34165500Y102890000D01*
X-34162798Y102876415D01*
X-34155102Y102864898D01*
X-34153449Y102863794D01*
X-34122879Y102807810D01*
X-34120000Y102781027D01*
X-34120000Y101586000D01*
X-34140002Y101517879D01*
X-34193658Y101471386D01*
X-34246000Y101460000D01*
X-35614000Y101460000D01*
X-35682121Y101480002D01*
X-35728614Y101533658D01*
X-35740000Y101586000D01*
X-35740000Y105967443D01*
X-35719998Y106035564D01*
X-35666342Y106082057D01*
X-35596068Y106092161D01*
X-35531488Y106062667D01*
X-35507792Y106035235D01*
X-35395015Y105858551D01*
X-35248298Y105703673D01*
X-35243433Y105700183D01*
X-35243430Y105700181D01*
X-35079812Y105582826D01*
X-35074942Y105579333D01*
X-35069497Y105576823D01*
X-34909159Y105502906D01*
X-34881201Y105490017D01*
X-34875385Y105488583D01*
X-34875382Y105488582D01*
X-34757080Y105459415D01*
X-34674066Y105438948D01*
X-34668076Y105438639D01*
X-34668074Y105438639D01*
X-34593288Y105434785D01*
X-34461011Y105427969D01*
X-34455076Y105428798D01*
X-34455072Y105428798D01*
X-34288221Y105452099D01*
X-34249724Y105457475D01*
X-34047828Y105526403D01*
X-33955220Y105579333D01*
X-33867813Y105629290D01*
X-33867808Y105629293D01*
X-33862609Y105632265D01*
X-33700749Y105771240D01*
X-33568089Y105938316D01*
X-33469416Y106127463D01*
X-33408289Y106331855D01*
X-33397361Y106440372D01*
X-33387223Y106541056D01*
X-33387223Y106541065D01*
X-33386915Y106544119D01*
X-33386900Y106550000D01*
X-33407162Y106762373D01*
X-33467218Y106967083D01*
X-33469968Y106972423D01*
X-33562153Y107151413D01*
X-33562155Y107151416D01*
X-33564899Y107156744D01*
X-33696683Y107324512D01*
X-33857813Y107464333D01*
X-34042475Y107571163D01*
X-34163868Y107613318D01*
X-34238333Y107639177D01*
X-34238336Y107639178D01*
X-34244007Y107641147D01*
X-34387112Y107661896D01*
X-34449197Y107670898D01*
X-34449200Y107670898D01*
X-34455137Y107671759D01*
X-34668246Y107661896D01*
X-34674070Y107660492D01*
X-34674073Y107660492D01*
X-34869813Y107613318D01*
X-34869815Y107613317D01*
X-34875646Y107611912D01*
X-34881104Y107609430D01*
X-34881108Y107609429D01*
X-34908237Y107597094D01*
X-35069852Y107523612D01*
X-35243857Y107400181D01*
X-35247999Y107395854D01*
X-35387234Y107250408D01*
X-35387238Y107250403D01*
X-35391382Y107246074D01*
X-35394636Y107241035D01*
X-35394638Y107241032D01*
X-35452504Y107151413D01*
X-35507105Y107066850D01*
X-35508975Y107068057D01*
X-35551246Y107023924D01*
X-35620279Y107007342D01*
X-35687318Y107030713D01*
X-35731080Y107086619D01*
X-35740000Y107133185D01*
X-35740000Y108080000D01*
X-38284000Y108080000D01*
X-38352121Y108100002D01*
X-38398614Y108153658D01*
X-38410000Y108206000D01*
X-38410000Y110694000D01*
X-38389998Y110762121D01*
X-38336342Y110808614D01*
X-38284000Y110820000D01*
X-33156000Y110820000D01*
X-33087879Y110799998D01*
G37*
%TD.AperFunction*%
%TD*%
%TA.AperFunction,Conductor*%
%TO.N,3V3*%
G36*
X-15887879Y107769998D02*
G01*
X-15841386Y107716342D01*
X-15830000Y107664000D01*
X-15830000Y107253599D01*
X-15850002Y107185478D01*
X-15857051Y107175592D01*
X-15871634Y107157094D01*
X-15871636Y107157090D01*
X-15878082Y107148914D01*
X-15881129Y107140236D01*
X-15886477Y107132753D01*
X-15889461Y107122775D01*
X-15889463Y107122771D01*
X-15901234Y107083410D01*
X-15903069Y107077762D01*
X-15920134Y107029167D01*
X-15920889Y107020449D01*
X-15920889Y107017708D01*
X-15920890Y107017684D01*
X-15922842Y107011157D01*
X-15922433Y107000751D01*
X-15920986Y106963922D01*
X-15920889Y106958975D01*
X-15920889Y104560824D01*
X-15940891Y104492703D01*
X-15957794Y104471729D01*
X-18542393Y101887130D01*
X-18558566Y101874068D01*
X-18561371Y101871515D01*
X-18570119Y101865867D01*
X-18576564Y101857692D01*
X-18576566Y101857690D01*
X-18589596Y101841161D01*
X-18594009Y101836195D01*
X-18593968Y101836160D01*
X-18597326Y101832197D01*
X-18601003Y101828520D01*
X-18613258Y101811370D01*
X-18616804Y101806647D01*
X-18639538Y101777810D01*
X-18648693Y101766198D01*
X-18651740Y101757520D01*
X-18657088Y101750037D01*
X-18660072Y101740059D01*
X-18660074Y101740055D01*
X-18671845Y101700694D01*
X-18673680Y101695046D01*
X-18682475Y101670000D01*
X-18690745Y101646451D01*
X-18691500Y101637733D01*
X-18691500Y101634992D01*
X-18691501Y101634968D01*
X-18693453Y101628441D01*
X-18693044Y101618035D01*
X-18691597Y101581206D01*
X-18691500Y101576259D01*
X-18691500Y101541068D01*
X-18711502Y101472947D01*
X-18727651Y101452733D01*
X-18737298Y101442920D01*
X-18750000Y101430000D01*
X-18750062Y101419067D01*
X-18750062Y101419066D01*
X-18777005Y96632204D01*
X-18797390Y96564197D01*
X-18851307Y96518007D01*
X-18921636Y96508298D01*
X-18983318Y96535828D01*
X-18990513Y96541781D01*
X-18990517Y96541784D01*
X-18996622Y96546834D01*
X-19146203Y96617222D01*
X-19153986Y96618707D01*
X-19153987Y96618707D01*
X-19300804Y96646714D01*
X-19300806Y96646714D01*
X-19308590Y96648199D01*
X-19391084Y96643008D01*
X-19465667Y96638316D01*
X-19465669Y96638316D01*
X-19473578Y96637818D01*
X-19481114Y96635369D01*
X-19481116Y96635369D01*
X-19623259Y96589184D01*
X-19623262Y96589183D01*
X-19630801Y96586733D01*
X-19770381Y96498153D01*
X-19775808Y96492374D01*
X-19775809Y96492373D01*
X-19865162Y96397222D01*
X-19883547Y96377644D01*
X-19963188Y96232778D01*
X-20004300Y96072657D01*
X-20004300Y95907343D01*
X-19963188Y95747222D01*
X-19883547Y95602356D01*
X-19878123Y95596580D01*
X-19823620Y95538541D01*
X-19770381Y95481847D01*
X-19630801Y95393267D01*
X-19623262Y95390817D01*
X-19623259Y95390816D01*
X-19481116Y95344631D01*
X-19481114Y95344631D01*
X-19473578Y95342182D01*
X-19465669Y95341684D01*
X-19465667Y95341684D01*
X-19391084Y95336992D01*
X-19308590Y95331801D01*
X-19300806Y95333286D01*
X-19300804Y95333286D01*
X-19153987Y95361293D01*
X-19153986Y95361293D01*
X-19146203Y95362778D01*
X-18996622Y95433166D01*
X-18990513Y95438220D01*
X-18983822Y95442466D01*
X-18983122Y95441363D01*
X-18925353Y95466167D01*
X-18855328Y95454460D01*
X-18802748Y95406754D01*
X-18784276Y95340363D01*
X-18809295Y90895291D01*
X-18829680Y90827284D01*
X-18883597Y90781094D01*
X-18935293Y90770000D01*
X-24369245Y90770000D01*
X-24437366Y90790002D01*
X-24444876Y90796054D01*
X-24446506Y90798494D01*
X-24530694Y90854747D01*
X-24630000Y90874500D01*
X-26630000Y90874500D01*
X-26729306Y90854747D01*
X-26813494Y90798494D01*
X-26869747Y90714306D01*
X-26889500Y90615000D01*
X-26889500Y90085000D01*
X-26888293Y90078932D01*
X-26869747Y89985694D01*
X-26870942Y89985456D01*
X-26864725Y89927627D01*
X-26867766Y89917271D01*
X-26869747Y89914306D01*
X-26889500Y89815000D01*
X-26889500Y89285000D01*
X-26888293Y89278932D01*
X-26869747Y89185694D01*
X-26870942Y89185456D01*
X-26864725Y89127627D01*
X-26867766Y89117271D01*
X-26869747Y89114306D01*
X-26889500Y89015000D01*
X-26889500Y88485000D01*
X-26888293Y88478932D01*
X-26869747Y88385694D01*
X-26870942Y88385456D01*
X-26864725Y88327627D01*
X-26867766Y88317271D01*
X-26869747Y88314306D01*
X-26889500Y88215000D01*
X-26889500Y87685000D01*
X-26888293Y87678932D01*
X-26869747Y87585694D01*
X-26870942Y87585456D01*
X-26864725Y87527627D01*
X-26867766Y87517271D01*
X-26869747Y87514306D01*
X-26889500Y87415000D01*
X-26889500Y86885000D01*
X-26888293Y86878932D01*
X-26869747Y86785694D01*
X-26870942Y86785456D01*
X-26864725Y86727627D01*
X-26867766Y86717271D01*
X-26869747Y86714306D01*
X-26889500Y86615000D01*
X-26889500Y86085000D01*
X-26888293Y86078932D01*
X-26869747Y85985694D01*
X-26870942Y85985456D01*
X-26864725Y85927627D01*
X-26867766Y85917271D01*
X-26869747Y85914306D01*
X-26889500Y85815000D01*
X-26889500Y85285000D01*
X-26869747Y85185694D01*
X-26862852Y85175375D01*
X-26859773Y85170767D01*
X-26838539Y85100576D01*
X-26839809Y84256669D01*
X-26859914Y84188579D01*
X-26913639Y84142167D01*
X-26966666Y84130862D01*
X-28291884Y84139877D01*
X-28291885Y84139877D01*
X-28310000Y84140000D01*
X-28310000Y79540000D01*
X-28296380Y79540033D01*
X-28296378Y79540033D01*
X-26904518Y79543453D01*
X-26836348Y79523618D01*
X-26818894Y79509587D01*
X-26813494Y79501506D01*
X-26729306Y79445253D01*
X-26630000Y79425500D01*
X-24630000Y79425500D01*
X-24530694Y79445253D01*
X-24446506Y79501506D01*
X-24446273Y79501157D01*
X-24392783Y79530366D01*
X-24321968Y79525301D01*
X-24265132Y79482754D01*
X-24240321Y79416234D01*
X-24240000Y79407245D01*
X-24240000Y78892755D01*
X-24260002Y78824634D01*
X-24313658Y78778141D01*
X-24383932Y78768037D01*
X-24444699Y78795790D01*
X-24446506Y78798494D01*
X-24456823Y78805388D01*
X-24492087Y78828950D01*
X-24530694Y78854747D01*
X-24630000Y78874500D01*
X-26630000Y78874500D01*
X-26729306Y78854747D01*
X-26813494Y78798494D01*
X-26820387Y78788178D01*
X-26820388Y78788177D01*
X-26821843Y78785999D01*
X-26826244Y78782321D01*
X-26829165Y78779400D01*
X-26829426Y78779661D01*
X-26876319Y78740471D01*
X-26926609Y78730000D01*
X-28300000Y78730000D01*
X-28300000Y68370000D01*
X-26926609Y68370000D01*
X-26858488Y68349998D01*
X-26821843Y68314001D01*
X-26813494Y68301506D01*
X-26729306Y68245253D01*
X-26630000Y68225500D01*
X-24630000Y68225500D01*
X-24530694Y68245253D01*
X-24446506Y68301506D01*
X-24438157Y68314001D01*
X-24433756Y68317679D01*
X-24430835Y68320600D01*
X-24430574Y68320339D01*
X-24383681Y68359529D01*
X-24333391Y68370000D01*
X-24286000Y68370000D01*
X-24217879Y68349998D01*
X-24171386Y68296342D01*
X-24160000Y68244000D01*
X-24160000Y67046000D01*
X-24180002Y66977879D01*
X-24233658Y66931386D01*
X-24286000Y66920000D01*
X-28819071Y66920000D01*
X-28887192Y66940002D01*
X-28933685Y66993658D01*
X-28943845Y67063536D01*
X-28921367Y67223473D01*
X-28921366Y67223481D01*
X-28920816Y67227397D01*
X-28920500Y67250000D01*
X-28940617Y67429344D01*
X-28999967Y67599773D01*
X-29060855Y67697216D01*
X-29080000Y67763983D01*
X-29080000Y67930000D01*
X-29125786Y67930436D01*
X-29267574Y67931787D01*
X-29333887Y67951395D01*
X-29360841Y67968500D01*
X-29375139Y67977574D01*
X-29444735Y68002356D01*
X-29538515Y68035750D01*
X-29538520Y68035751D01*
X-29545150Y68038112D01*
X-29552136Y68038945D01*
X-29552140Y68038946D01*
X-29680721Y68054278D01*
X-29724349Y68059480D01*
X-29731352Y68058744D01*
X-29731353Y68058744D01*
X-29779993Y68053632D01*
X-29903828Y68040616D01*
X-29910494Y68038347D01*
X-29910497Y68038346D01*
X-29963394Y68020338D01*
X-30034327Y68017320D01*
X-30095631Y68053130D01*
X-30127842Y68116399D01*
X-30130000Y68139616D01*
X-30130000Y68918287D01*
X-30109998Y68986408D01*
X-30093095Y69007382D01*
X-29989428Y69111049D01*
X-29927116Y69145075D01*
X-29892424Y69147705D01*
X-29798590Y69141801D01*
X-29790806Y69143286D01*
X-29790804Y69143286D01*
X-29643987Y69171293D01*
X-29643986Y69171293D01*
X-29636203Y69172778D01*
X-29486622Y69243166D01*
X-29480517Y69248216D01*
X-29480513Y69248219D01*
X-29365353Y69343488D01*
X-29359245Y69348541D01*
X-29346308Y69366348D01*
X-29266735Y69475870D01*
X-29266734Y69475872D01*
X-29262076Y69482283D01*
X-29257968Y69492657D01*
X-29204136Y69628621D01*
X-29204136Y69628623D01*
X-29201219Y69635989D01*
X-29200130Y69644605D01*
X-29181494Y69792132D01*
X-29180500Y69800000D01*
X-29194940Y69914306D01*
X-29200225Y69956146D01*
X-29200226Y69956149D01*
X-29201219Y69964011D01*
X-29240411Y70062998D01*
X-29259158Y70110348D01*
X-29259159Y70110350D01*
X-29262076Y70117717D01*
X-29359245Y70251459D01*
X-29455998Y70331500D01*
X-29480513Y70351781D01*
X-29480517Y70351784D01*
X-29486622Y70356834D01*
X-29636203Y70427222D01*
X-29643986Y70428707D01*
X-29643987Y70428707D01*
X-29790804Y70456714D01*
X-29790806Y70456714D01*
X-29798590Y70458199D01*
X-29908126Y70451307D01*
X-29955664Y70448316D01*
X-29963578Y70447818D01*
X-29971116Y70445369D01*
X-29972352Y70445133D01*
X-30043014Y70452018D01*
X-30098737Y70496013D01*
X-30116479Y70534285D01*
X-30116814Y70536940D01*
X-30121153Y70547899D01*
X-30130000Y70594281D01*
X-30130000Y71850000D01*
X-32486157Y71858620D01*
X-32554204Y71878871D01*
X-32590461Y71914617D01*
X-32591490Y71916158D01*
X-32646506Y71998494D01*
X-32730694Y72054747D01*
X-32830000Y72074500D01*
X-34830000Y72074500D01*
X-34929306Y72054747D01*
X-35013494Y71998494D01*
X-35020387Y71988178D01*
X-35029164Y71979401D01*
X-35030164Y71980401D01*
X-35074269Y71943542D01*
X-35109749Y71933945D01*
X-35116326Y71933167D01*
X-35123033Y71932373D01*
X-35129664Y71931982D01*
X-35129660Y71931928D01*
X-35134837Y71931500D01*
X-35140040Y71931500D01*
X-35160810Y71928043D01*
X-35166671Y71927209D01*
X-35207490Y71922378D01*
X-35207491Y71922378D01*
X-35217830Y71921154D01*
X-35226123Y71917172D01*
X-35235194Y71915662D01*
X-35280532Y71891199D01*
X-35285797Y71888517D01*
X-35300344Y71881532D01*
X-35355344Y71869117D01*
X-37573973Y71877234D01*
X-38204531Y71879541D01*
X-38272578Y71899792D01*
X-38318874Y71953617D01*
X-38330070Y72005469D01*
X-38346745Y101695046D01*
X-38349929Y107363379D01*
X-38329965Y107431511D01*
X-38276336Y107478034D01*
X-38223381Y107489449D01*
X-36175612Y107480546D01*
X-36107579Y107460248D01*
X-36061320Y107406391D01*
X-36050160Y107354386D01*
X-36050657Y106963922D01*
X-36057467Y101618035D01*
X-36060000Y99630000D01*
X-35959659Y99628448D01*
X-35913391Y99618873D01*
X-35909213Y99617142D01*
X-35898893Y99610247D01*
X-35870000Y99604500D01*
X-34411978Y99604500D01*
X-34410030Y99604485D01*
X-34244052Y99601918D01*
X-34176248Y99580865D01*
X-34130591Y99526497D01*
X-34120000Y99475933D01*
X-34120000Y96176000D01*
X-34140002Y96107879D01*
X-34193658Y96061386D01*
X-34246000Y96050000D01*
X-35900000Y96050000D01*
X-35900000Y75277500D01*
X-35920002Y75209379D01*
X-35973658Y75162886D01*
X-36026000Y75151500D01*
X-36650040Y75151500D01*
X-36745194Y75135662D01*
X-36754360Y75130716D01*
X-36754364Y75130715D01*
X-36773088Y75120612D01*
X-36832919Y75105500D01*
X-37120000Y75105500D01*
X-37133585Y75102798D01*
X-37145102Y75095102D01*
X-37152798Y75083585D01*
X-37155500Y75070000D01*
X-37155500Y74470000D01*
X-37152798Y74456415D01*
X-37145102Y74444898D01*
X-37133585Y74437202D01*
X-37120000Y74434500D01*
X-36836772Y74434500D01*
X-36795024Y74427383D01*
X-36686451Y74389255D01*
X-36677733Y74388500D01*
X-36026000Y74388500D01*
X-35957879Y74368498D01*
X-35911386Y74314842D01*
X-35900000Y74262500D01*
X-35900000Y73610000D01*
X-35157627Y73615120D01*
X-35089371Y73595588D01*
X-35051994Y73559125D01*
X-35013494Y73501506D01*
X-34929306Y73445253D01*
X-34830000Y73425500D01*
X-32830000Y73425500D01*
X-32730694Y73445253D01*
X-32646506Y73501506D01*
X-32595720Y73577511D01*
X-32541243Y73623038D01*
X-32491827Y73633505D01*
X-30445525Y73647617D01*
X-30118117Y73649875D01*
X-30100000Y73650000D01*
X-30098745Y74388673D01*
X-30082198Y84135506D01*
X-30080237Y85290576D01*
X-30060119Y85358662D01*
X-30006385Y85405063D01*
X-29941311Y85415696D01*
X-27850000Y85200000D01*
X-27850000Y91108288D01*
X-27829998Y91176409D01*
X-27813095Y91197383D01*
X-27077383Y91933095D01*
X-27015071Y91967121D01*
X-26988288Y91970000D01*
X-20980000Y91970000D01*
X-20980000Y98487810D01*
X-20959998Y98555931D01*
X-20943095Y98576905D01*
X-20070000Y99450000D01*
X-20070000Y101777810D01*
X-20049998Y101845931D01*
X-20033095Y101866905D01*
X-18622056Y103277944D01*
X-18613276Y103285934D01*
X-18568739Y103322778D01*
X-18489245Y103388541D01*
X-18436052Y103461755D01*
X-18423211Y103476789D01*
X-17850000Y104050000D01*
X-17850000Y107664000D01*
X-17829998Y107732121D01*
X-17776342Y107778614D01*
X-17724000Y107790000D01*
X-15956000Y107790000D01*
X-15887879Y107769998D01*
G37*
%TD.AperFunction*%
%TD*%
M02*
