M48
; DRILL file {KiCad 5.99.0-unknown-140f4a8d21~125~ubuntu20.04.1} date Thu Apr  1 23:20:37 2021
; FORMAT={-:-/ absolute / inch / decimal}
; #@! TF.CreationDate,2021-04-01T23:20:37+02:00
; #@! TF.GenerationSoftware,Kicad,Pcbnew,5.99.0-unknown-140f4a8d21~125~ubuntu20.04.1
; #@! TF.FileFunction,Plated,1,2,PTH
FMAT,2
INCH
; #@! TA.AperFunction,ViaDrill
T1C0.0157
; #@! TA.AperFunction,ComponentDrill,Plated,PTH
T2C0.0400
%
G90
G05
T1
X4.3012Y-3.8228
X4.3945Y-4.3311
X4.4004Y-3.5681
X4.4094Y-4.1535
X4.4248Y-3.3213
X4.4295Y-4.1028
X4.4323Y-4.0142
X4.4358Y-4.4343
X4.4388Y-4.3554
X4.461Y-3.3618
X4.4748Y-4.378
X4.4886Y-3.1232
X4.5024Y-3.4346
X4.5039Y-3.6476
X4.5118Y-3.2961
X4.5189Y-3.7126
X4.5673Y-4.5449
X4.5701Y-3.9138
X4.6248Y-3.0622
X4.6661Y-3.0264
X4.7343Y-3.3189
X4.7382Y-3.8244
X4.7398Y-3.5823
X4.7535Y-4.4866
X4.7571Y-4.2453
X4.763Y-4.1433
X4.7709Y-4.0421
X4.7732Y-3.4339
X4.778Y-4.5366
X4.7898Y-3.7685
X4.7937Y-4.4335
X4.7941Y-3.2004
X4.8189Y-3.6476
X4.843Y-4.3643
X4.865Y-3.0677
X4.8869Y-4.3602
X4.8878Y-3.3469
X4.9028Y-3.0378
X4.9165Y-4.3933
X4.952Y-4.3602
X5.002Y-3.4591
X5.0323Y-3.6228
X5.0966Y-3.2265
X5.1228Y-3.7193
X5.1394Y-3.4972
X5.3039Y-3.3094
X5.3098Y-3.6134
T2
X4.1909Y-2.8311
X4.1909Y-2.9311
X4.2909Y-2.8311
X4.2909Y-2.9311
X4.3909Y-2.8311
X4.3909Y-2.9311
X4.4909Y-2.8311
X4.4909Y-2.9311
X4.5909Y-2.8311
X4.5909Y-2.9311
X4.6909Y-2.8311
X4.6909Y-2.9311
X4.7909Y-2.8311
X4.7909Y-2.9311
X4.8909Y-2.8311
X4.8909Y-2.9311
X4.9909Y-2.8311
X4.9909Y-2.9311
X5.0909Y-2.8311
X5.0909Y-2.9311
X5.1909Y-2.8311
X5.1909Y-2.9311
X5.2909Y-2.8311
X5.2909Y-2.9311
X5.3909Y-2.8311
X5.3909Y-2.9311
T0
M30
