%TF.GenerationSoftware,KiCad,Pcbnew,(5.99.0-9801-g46d71f0d23)*%
%TF.CreationDate,2021-03-17T00:26:50+01:00*%
%TF.ProjectId,pi-hat-lorawan-gateway-minipci,70692d68-6174-42d6-9c6f-726177616e2d,rev?*%
%TF.SameCoordinates,Original*%
%TF.FileFunction,Legend,Bot*%
%TF.FilePolarity,Positive*%
%FSLAX46Y46*%
G04 Gerber Fmt 4.6, Leading zero omitted, Abs format (unit mm)*
G04 Created by KiCad (PCBNEW (5.99.0-9801-g46d71f0d23)) date 2021-03-17 00:26:50*
%MOMM*%
%LPD*%
G01*
G04 APERTURE LIST*
%ADD10C,0.010000*%
G04 APERTURE END LIST*
D10*
%TO.C,REF\u002A\u002A*%
X207780493Y-90331600D02*
X207358309Y-92571068D01*
X207358309Y-92571068D02*
X205800509Y-93213245D01*
X205800509Y-93213245D02*
X204242709Y-93855421D01*
X204242709Y-93855421D02*
X202373868Y-92584623D01*
X202373868Y-92584623D02*
X201850495Y-92230790D01*
X201850495Y-92230790D02*
X201377394Y-91914863D01*
X201377394Y-91914863D02*
X200976642Y-91651268D01*
X200976642Y-91651268D02*
X200670316Y-91454426D01*
X200670316Y-91454426D02*
X200480494Y-91338763D01*
X200480494Y-91338763D02*
X200428799Y-91313824D01*
X200428799Y-91313824D02*
X200335672Y-91377965D01*
X200335672Y-91377965D02*
X200136669Y-91555289D01*
X200136669Y-91555289D02*
X199854098Y-91823143D01*
X199854098Y-91823143D02*
X199510263Y-92158875D01*
X199510263Y-92158875D02*
X199127471Y-92539834D01*
X199127471Y-92539834D02*
X198728027Y-92943369D01*
X198728027Y-92943369D02*
X198334237Y-93346826D01*
X198334237Y-93346826D02*
X197968407Y-93727556D01*
X197968407Y-93727556D02*
X197652842Y-94062905D01*
X197652842Y-94062905D02*
X197409849Y-94330222D01*
X197409849Y-94330222D02*
X197261733Y-94506856D01*
X197261733Y-94506856D02*
X197226324Y-94565969D01*
X197226324Y-94565969D02*
X197277283Y-94674949D01*
X197277283Y-94674949D02*
X197420149Y-94913702D01*
X197420149Y-94913702D02*
X197639898Y-95258875D01*
X197639898Y-95258875D02*
X197921511Y-95687113D01*
X197921511Y-95687113D02*
X198249967Y-96175064D01*
X198249967Y-96175064D02*
X198440294Y-96453379D01*
X198440294Y-96453379D02*
X198787206Y-96961582D01*
X198787206Y-96961582D02*
X199095472Y-97420184D01*
X199095472Y-97420184D02*
X199350137Y-97806356D01*
X199350137Y-97806356D02*
X199536247Y-98097272D01*
X199536247Y-98097272D02*
X199638848Y-98270104D01*
X199638848Y-98270104D02*
X199654265Y-98306425D01*
X199654265Y-98306425D02*
X199619314Y-98409651D01*
X199619314Y-98409651D02*
X199524045Y-98650229D01*
X199524045Y-98650229D02*
X199382832Y-98994336D01*
X199382832Y-98994336D02*
X199210051Y-99408145D01*
X199210051Y-99408145D02*
X199020075Y-99857831D01*
X199020075Y-99857831D02*
X198827279Y-100309569D01*
X198827279Y-100309569D02*
X198646038Y-100729534D01*
X198646038Y-100729534D02*
X198490727Y-101083900D01*
X198490727Y-101083900D02*
X198375721Y-101338843D01*
X198375721Y-101338843D02*
X198315393Y-101460536D01*
X198315393Y-101460536D02*
X198311832Y-101465326D01*
X198311832Y-101465326D02*
X198217105Y-101488562D01*
X198217105Y-101488562D02*
X197964828Y-101540400D01*
X197964828Y-101540400D02*
X197581150Y-101615746D01*
X197581150Y-101615746D02*
X197092221Y-101709502D01*
X197092221Y-101709502D02*
X196524189Y-101816572D01*
X196524189Y-101816572D02*
X196192773Y-101878316D01*
X196192773Y-101878316D02*
X195585802Y-101993883D01*
X195585802Y-101993883D02*
X195037565Y-102103851D01*
X195037565Y-102103851D02*
X194575799Y-102202203D01*
X194575799Y-102202203D02*
X194228239Y-102282923D01*
X194228239Y-102282923D02*
X194022621Y-102339992D01*
X194022621Y-102339992D02*
X193981287Y-102358099D01*
X193981287Y-102358099D02*
X193940804Y-102480654D01*
X193940804Y-102480654D02*
X193908140Y-102757442D01*
X193908140Y-102757442D02*
X193883273Y-103156096D01*
X193883273Y-103156096D02*
X193866181Y-103644249D01*
X193866181Y-103644249D02*
X193856841Y-104189536D01*
X193856841Y-104189536D02*
X193855232Y-104759588D01*
X193855232Y-104759588D02*
X193861331Y-105322038D01*
X193861331Y-105322038D02*
X193875117Y-105844522D01*
X193875117Y-105844522D02*
X193896566Y-106294670D01*
X193896566Y-106294670D02*
X193925658Y-106640117D01*
X193925658Y-106640117D02*
X193962369Y-106848495D01*
X193962369Y-106848495D02*
X193984388Y-106891875D01*
X193984388Y-106891875D02*
X194116004Y-106943870D01*
X194116004Y-106943870D02*
X194394892Y-107018205D01*
X194394892Y-107018205D02*
X194784163Y-107106148D01*
X194784163Y-107106148D02*
X195246927Y-107198965D01*
X195246927Y-107198965D02*
X195408468Y-107228992D01*
X195408468Y-107228992D02*
X196187322Y-107371654D01*
X196187322Y-107371654D02*
X196802560Y-107486546D01*
X196802560Y-107486546D02*
X197274512Y-107578233D01*
X197274512Y-107578233D02*
X197623506Y-107651282D01*
X197623506Y-107651282D02*
X197869871Y-107710259D01*
X197869871Y-107710259D02*
X198033936Y-107759731D01*
X198033936Y-107759731D02*
X198136029Y-107804265D01*
X198136029Y-107804265D02*
X198196479Y-107848426D01*
X198196479Y-107848426D02*
X198204936Y-107857154D01*
X198204936Y-107857154D02*
X198289364Y-107997749D01*
X198289364Y-107997749D02*
X198418157Y-108271367D01*
X198418157Y-108271367D02*
X198578457Y-108644501D01*
X198578457Y-108644501D02*
X198757404Y-109083649D01*
X198757404Y-109083649D02*
X198942136Y-109555304D01*
X198942136Y-109555304D02*
X199119794Y-110025962D01*
X199119794Y-110025962D02*
X199277518Y-110462119D01*
X199277518Y-110462119D02*
X199402447Y-110830270D01*
X199402447Y-110830270D02*
X199481721Y-111096909D01*
X199481721Y-111096909D02*
X199502481Y-111228533D01*
X199502481Y-111228533D02*
X199500750Y-111233144D01*
X199500750Y-111233144D02*
X199430411Y-111340729D01*
X199430411Y-111340729D02*
X199270838Y-111577444D01*
X199270838Y-111577444D02*
X199038801Y-111918649D01*
X199038801Y-111918649D02*
X198751068Y-112339706D01*
X198751068Y-112339706D02*
X198424408Y-112815976D01*
X198424408Y-112815976D02*
X198331379Y-112951322D01*
X198331379Y-112951322D02*
X197999677Y-113442010D01*
X197999677Y-113442010D02*
X197707793Y-113889716D01*
X197707793Y-113889716D02*
X197471628Y-114268731D01*
X197471628Y-114268731D02*
X197307081Y-114553345D01*
X197307081Y-114553345D02*
X197230055Y-114717852D01*
X197230055Y-114717852D02*
X197226324Y-114738062D01*
X197226324Y-114738062D02*
X197291041Y-114844289D01*
X197291041Y-114844289D02*
X197469865Y-115054728D01*
X197469865Y-115054728D02*
X197739810Y-115346762D01*
X197739810Y-115346762D02*
X198077886Y-115697776D01*
X198077886Y-115697776D02*
X198461104Y-116085152D01*
X198461104Y-116085152D02*
X198866478Y-116486273D01*
X198866478Y-116486273D02*
X199271017Y-116878522D01*
X199271017Y-116878522D02*
X199651735Y-117239284D01*
X199651735Y-117239284D02*
X199985642Y-117545941D01*
X199985642Y-117545941D02*
X200249750Y-117775876D01*
X200249750Y-117775876D02*
X200421071Y-117906472D01*
X200421071Y-117906472D02*
X200468465Y-117927794D01*
X200468465Y-117927794D02*
X200578782Y-117877573D01*
X200578782Y-117877573D02*
X200804645Y-117742122D01*
X200804645Y-117742122D02*
X201109263Y-117544259D01*
X201109263Y-117544259D02*
X201343635Y-117385002D01*
X201343635Y-117385002D02*
X201768306Y-117092776D01*
X201768306Y-117092776D02*
X202271220Y-116748691D01*
X202271220Y-116748691D02*
X202775669Y-116405157D01*
X202775669Y-116405157D02*
X203046876Y-116221298D01*
X203046876Y-116221298D02*
X203964855Y-115600388D01*
X203964855Y-115600388D02*
X204735434Y-116017032D01*
X204735434Y-116017032D02*
X205086490Y-116199556D01*
X205086490Y-116199556D02*
X205385011Y-116341427D01*
X205385011Y-116341427D02*
X205586996Y-116422344D01*
X205586996Y-116422344D02*
X205638411Y-116433603D01*
X205638411Y-116433603D02*
X205700236Y-116350473D01*
X205700236Y-116350473D02*
X205822206Y-116115560D01*
X205822206Y-116115560D02*
X205995217Y-115750532D01*
X205995217Y-115750532D02*
X206210163Y-115277060D01*
X206210163Y-115277060D02*
X206457939Y-114716811D01*
X206457939Y-114716811D02*
X206729441Y-114091453D01*
X206729441Y-114091453D02*
X207015563Y-113422657D01*
X207015563Y-113422657D02*
X207307200Y-112732089D01*
X207307200Y-112732089D02*
X207595247Y-112041420D01*
X207595247Y-112041420D02*
X207870600Y-111372318D01*
X207870600Y-111372318D02*
X208124152Y-110746451D01*
X208124152Y-110746451D02*
X208346800Y-110185488D01*
X208346800Y-110185488D02*
X208529438Y-109711099D01*
X208529438Y-109711099D02*
X208662960Y-109344950D01*
X208662960Y-109344950D02*
X208738263Y-109108712D01*
X208738263Y-109108712D02*
X208750373Y-109027578D01*
X208750373Y-109027578D02*
X208654388Y-108924089D01*
X208654388Y-108924089D02*
X208444229Y-108756095D01*
X208444229Y-108756095D02*
X208163832Y-108558501D01*
X208163832Y-108558501D02*
X208140298Y-108542868D01*
X208140298Y-108542868D02*
X207415581Y-107962757D01*
X207415581Y-107962757D02*
X206831221Y-107285965D01*
X206831221Y-107285965D02*
X206392282Y-106534133D01*
X206392282Y-106534133D02*
X206103829Y-105728902D01*
X206103829Y-105728902D02*
X205970924Y-104891912D01*
X205970924Y-104891912D02*
X205998634Y-104044804D01*
X205998634Y-104044804D02*
X206192021Y-103209219D01*
X206192021Y-103209219D02*
X206556151Y-102406798D01*
X206556151Y-102406798D02*
X206663281Y-102231238D01*
X206663281Y-102231238D02*
X207220494Y-101522318D01*
X207220494Y-101522318D02*
X207878774Y-100953044D01*
X207878774Y-100953044D02*
X208615337Y-100526378D01*
X208615337Y-100526378D02*
X209407399Y-100245279D01*
X209407399Y-100245279D02*
X210232176Y-100112709D01*
X210232176Y-100112709D02*
X211066886Y-100131627D01*
X211066886Y-100131627D02*
X211888744Y-100304995D01*
X211888744Y-100304995D02*
X212674966Y-100635772D01*
X212674966Y-100635772D02*
X213402769Y-101126919D01*
X213402769Y-101126919D02*
X213627900Y-101326265D01*
X213627900Y-101326265D02*
X214200868Y-101950271D01*
X214200868Y-101950271D02*
X214618385Y-102607171D01*
X214618385Y-102607171D02*
X214904787Y-103343497D01*
X214904787Y-103343497D02*
X215064298Y-104072689D01*
X215064298Y-104072689D02*
X215103675Y-104892531D01*
X215103675Y-104892531D02*
X214972372Y-105716443D01*
X214972372Y-105716443D02*
X214683725Y-106516576D01*
X214683725Y-106516576D02*
X214251073Y-107265080D01*
X214251073Y-107265080D02*
X213687753Y-107934109D01*
X213687753Y-107934109D02*
X213007101Y-108495812D01*
X213007101Y-108495812D02*
X212917646Y-108555021D01*
X212917646Y-108555021D02*
X212634244Y-108748920D01*
X212634244Y-108748920D02*
X212418806Y-108916921D01*
X212418806Y-108916921D02*
X212315809Y-109024187D01*
X212315809Y-109024187D02*
X212314311Y-109027578D01*
X212314311Y-109027578D02*
X212336423Y-109143615D01*
X212336423Y-109143615D02*
X212424079Y-109406966D01*
X212424079Y-109406966D02*
X212568169Y-109795970D01*
X212568169Y-109795970D02*
X212759584Y-110288961D01*
X212759584Y-110288961D02*
X212989216Y-110864276D01*
X212989216Y-110864276D02*
X213247957Y-111500252D01*
X213247957Y-111500252D02*
X213526698Y-112175225D01*
X213526698Y-112175225D02*
X213816329Y-112867530D01*
X213816329Y-112867530D02*
X214107744Y-113555504D01*
X214107744Y-113555504D02*
X214391832Y-114217483D01*
X214391832Y-114217483D02*
X214659485Y-114831804D01*
X214659485Y-114831804D02*
X214901594Y-115376802D01*
X214901594Y-115376802D02*
X215109052Y-115830815D01*
X215109052Y-115830815D02*
X215272749Y-116172177D01*
X215272749Y-116172177D02*
X215383577Y-116379225D01*
X215383577Y-116379225D02*
X215428207Y-116433603D01*
X215428207Y-116433603D02*
X215564585Y-116391259D01*
X215564585Y-116391259D02*
X215819762Y-116277692D01*
X215819762Y-116277692D02*
X216149737Y-116113200D01*
X216149737Y-116113200D02*
X216331184Y-116017032D01*
X216331184Y-116017032D02*
X217101763Y-115600388D01*
X217101763Y-115600388D02*
X218019742Y-116221298D01*
X218019742Y-116221298D02*
X218488350Y-116539386D01*
X218488350Y-116539386D02*
X219001394Y-116889433D01*
X219001394Y-116889433D02*
X219482167Y-117219031D01*
X219482167Y-117219031D02*
X219722983Y-117385002D01*
X219722983Y-117385002D02*
X220061682Y-117612441D01*
X220061682Y-117612441D02*
X220348482Y-117792677D01*
X220348482Y-117792677D02*
X220545971Y-117902885D01*
X220545971Y-117902885D02*
X220610116Y-117926183D01*
X220610116Y-117926183D02*
X220703479Y-117863335D01*
X220703479Y-117863335D02*
X220910106Y-117687885D01*
X220910106Y-117687885D02*
X221209964Y-117418050D01*
X221209964Y-117418050D02*
X221583022Y-117072045D01*
X221583022Y-117072045D02*
X222009247Y-116668088D01*
X222009247Y-116668088D02*
X222278816Y-116408720D01*
X222278816Y-116408720D02*
X222750431Y-115945338D01*
X222750431Y-115945338D02*
X223158012Y-115530877D01*
X223158012Y-115530877D02*
X223485081Y-115183068D01*
X223485081Y-115183068D02*
X223715163Y-114919640D01*
X223715163Y-114919640D02*
X223831782Y-114758323D01*
X223831782Y-114758323D02*
X223842970Y-114725586D01*
X223842970Y-114725586D02*
X223791051Y-114601063D01*
X223791051Y-114601063D02*
X223647578Y-114349283D01*
X223647578Y-114349283D02*
X223428468Y-113995738D01*
X223428468Y-113995738D02*
X223149634Y-113565917D01*
X223149634Y-113565917D02*
X222826992Y-113085311D01*
X222826992Y-113085311D02*
X222735239Y-112951322D01*
X222735239Y-112951322D02*
X222400919Y-112464334D01*
X222400919Y-112464334D02*
X222100982Y-112025883D01*
X222100982Y-112025883D02*
X221852197Y-111660607D01*
X221852197Y-111660607D02*
X221671333Y-111393146D01*
X221671333Y-111393146D02*
X221575159Y-111248138D01*
X221575159Y-111248138D02*
X221565868Y-111233144D01*
X221565868Y-111233144D02*
X221579763Y-111117580D01*
X221579763Y-111117580D02*
X221653518Y-110863496D01*
X221653518Y-110863496D02*
X221774273Y-110504396D01*
X221774273Y-110504396D02*
X221929169Y-110073784D01*
X221929169Y-110073784D02*
X222105344Y-109605166D01*
X222105344Y-109605166D02*
X222289938Y-109132046D01*
X222289938Y-109132046D02*
X222470092Y-108687929D01*
X222470092Y-108687929D02*
X222632945Y-108306319D01*
X222632945Y-108306319D02*
X222765637Y-108020721D01*
X222765637Y-108020721D02*
X222855308Y-107864641D01*
X222855308Y-107864641D02*
X222861682Y-107857154D01*
X222861682Y-107857154D02*
X222916516Y-107812547D01*
X222916516Y-107812547D02*
X223009130Y-107768436D01*
X223009130Y-107768436D02*
X223159852Y-107720254D01*
X223159852Y-107720254D02*
X223389011Y-107663434D01*
X223389011Y-107663434D02*
X223716936Y-107593411D01*
X223716936Y-107593411D02*
X224163954Y-107505618D01*
X224163954Y-107505618D02*
X224750396Y-107395488D01*
X224750396Y-107395488D02*
X225496589Y-107258455D01*
X225496589Y-107258455D02*
X225658150Y-107228992D01*
X225658150Y-107228992D02*
X226136984Y-107136477D01*
X226136984Y-107136477D02*
X226554424Y-107045974D01*
X226554424Y-107045974D02*
X226873579Y-106966213D01*
X226873579Y-106966213D02*
X227057561Y-106905929D01*
X227057561Y-106905929D02*
X227082231Y-106891875D01*
X227082231Y-106891875D02*
X227122883Y-106767275D01*
X227122883Y-106767275D02*
X227155926Y-106488830D01*
X227155926Y-106488830D02*
X227181339Y-106088908D01*
X227181339Y-106088908D02*
X227199100Y-105599876D01*
X227199100Y-105599876D02*
X227209186Y-105054100D01*
X227209186Y-105054100D02*
X227211575Y-104483947D01*
X227211575Y-104483947D02*
X227206244Y-103921784D01*
X227206244Y-103921784D02*
X227193173Y-103399978D01*
X227193173Y-103399978D02*
X227172339Y-102950896D01*
X227172339Y-102950896D02*
X227143719Y-102606905D01*
X227143719Y-102606905D02*
X227107291Y-102400371D01*
X227107291Y-102400371D02*
X227085331Y-102358099D01*
X227085331Y-102358099D02*
X226963074Y-102315459D01*
X226963074Y-102315459D02*
X226684682Y-102246089D01*
X226684682Y-102246089D02*
X226277890Y-102156008D01*
X226277890Y-102156008D02*
X225770435Y-102051232D01*
X225770435Y-102051232D02*
X225190054Y-101937779D01*
X225190054Y-101937779D02*
X224873845Y-101878316D01*
X224873845Y-101878316D02*
X224273888Y-101766163D01*
X224273888Y-101766163D02*
X223738872Y-101664563D01*
X223738872Y-101664563D02*
X223294944Y-101578614D01*
X223294944Y-101578614D02*
X222968255Y-101513412D01*
X222968255Y-101513412D02*
X222784955Y-101474052D01*
X222784955Y-101474052D02*
X222754787Y-101465326D01*
X222754787Y-101465326D02*
X222703798Y-101366947D01*
X222703798Y-101366947D02*
X222596015Y-101129983D01*
X222596015Y-101129983D02*
X222445804Y-100788287D01*
X222445804Y-100788287D02*
X222267532Y-100375714D01*
X222267532Y-100375714D02*
X222075567Y-99926118D01*
X222075567Y-99926118D02*
X221884276Y-99473351D01*
X221884276Y-99473351D02*
X221708026Y-99051267D01*
X221708026Y-99051267D02*
X221561183Y-98693720D01*
X221561183Y-98693720D02*
X221458115Y-98434564D01*
X221458115Y-98434564D02*
X221413189Y-98307652D01*
X221413189Y-98307652D02*
X221412353Y-98302105D01*
X221412353Y-98302105D02*
X221463283Y-98201989D01*
X221463283Y-98201989D02*
X221606067Y-97971599D01*
X221606067Y-97971599D02*
X221825698Y-97633832D01*
X221825698Y-97633832D02*
X222107169Y-97211587D01*
X222107169Y-97211587D02*
X222435472Y-96727762D01*
X222435472Y-96727762D02*
X222626324Y-96449853D01*
X222626324Y-96449853D02*
X222974090Y-95940289D01*
X222974090Y-95940289D02*
X223282971Y-95477659D01*
X223282971Y-95477659D02*
X223537896Y-95085365D01*
X223537896Y-95085365D02*
X223723793Y-94786810D01*
X223723793Y-94786810D02*
X223825592Y-94605399D01*
X223825592Y-94605399D02*
X223840294Y-94564732D01*
X223840294Y-94564732D02*
X223777093Y-94470074D01*
X223777093Y-94470074D02*
X223602369Y-94267965D01*
X223602369Y-94267965D02*
X223338442Y-93981047D01*
X223338442Y-93981047D02*
X223007630Y-93631963D01*
X223007630Y-93631963D02*
X222632253Y-93243354D01*
X222632253Y-93243354D02*
X222234631Y-92837865D01*
X222234631Y-92837865D02*
X221837083Y-92438136D01*
X221837083Y-92438136D02*
X221461928Y-92066811D01*
X221461928Y-92066811D02*
X221131486Y-91746532D01*
X221131486Y-91746532D02*
X220868076Y-91499942D01*
X220868076Y-91499942D02*
X220694017Y-91349684D01*
X220694017Y-91349684D02*
X220635788Y-91313824D01*
X220635788Y-91313824D02*
X220540976Y-91364248D01*
X220540976Y-91364248D02*
X220314207Y-91505908D01*
X220314207Y-91505908D02*
X219977528Y-91724382D01*
X219977528Y-91724382D02*
X219552988Y-92005251D01*
X219552988Y-92005251D02*
X219062635Y-92334095D01*
X219062635Y-92334095D02*
X218692750Y-92584623D01*
X218692750Y-92584623D02*
X216823909Y-93855421D01*
X216823909Y-93855421D02*
X215266109Y-93213245D01*
X215266109Y-93213245D02*
X213708309Y-92571068D01*
X213708309Y-92571068D02*
X213286125Y-90331600D01*
X213286125Y-90331600D02*
X212863941Y-88092133D01*
X212863941Y-88092133D02*
X208202677Y-88092133D01*
X208202677Y-88092133D02*
X207780493Y-90331600D01*
X207780493Y-90331600D02*
X207780493Y-90331600D01*
G36*
X213286125Y-90331600D02*
G01*
X213708309Y-92571068D01*
X215266109Y-93213245D01*
X216823909Y-93855421D01*
X218692750Y-92584623D01*
X219062635Y-92334095D01*
X219552988Y-92005251D01*
X219977528Y-91724382D01*
X220314207Y-91505908D01*
X220540976Y-91364248D01*
X220635788Y-91313824D01*
X220694017Y-91349684D01*
X220868076Y-91499942D01*
X221131486Y-91746532D01*
X221461928Y-92066811D01*
X221837083Y-92438136D01*
X222234631Y-92837865D01*
X222632253Y-93243354D01*
X223007630Y-93631963D01*
X223338442Y-93981047D01*
X223602369Y-94267965D01*
X223777093Y-94470074D01*
X223840294Y-94564732D01*
X223825592Y-94605399D01*
X223723793Y-94786810D01*
X223537896Y-95085365D01*
X223282971Y-95477659D01*
X222974090Y-95940289D01*
X222626324Y-96449853D01*
X222435472Y-96727762D01*
X222107169Y-97211587D01*
X221825698Y-97633832D01*
X221606067Y-97971599D01*
X221463283Y-98201989D01*
X221412353Y-98302105D01*
X221413189Y-98307652D01*
X221458115Y-98434564D01*
X221561183Y-98693720D01*
X221708026Y-99051267D01*
X221884276Y-99473351D01*
X222075567Y-99926118D01*
X222267532Y-100375714D01*
X222445804Y-100788287D01*
X222596015Y-101129983D01*
X222703798Y-101366947D01*
X222754787Y-101465326D01*
X222784955Y-101474052D01*
X222968255Y-101513412D01*
X223294944Y-101578614D01*
X223738872Y-101664563D01*
X224273888Y-101766163D01*
X224873845Y-101878316D01*
X225190054Y-101937779D01*
X225770435Y-102051232D01*
X226277890Y-102156008D01*
X226684682Y-102246089D01*
X226963074Y-102315459D01*
X227085331Y-102358099D01*
X227107291Y-102400371D01*
X227143719Y-102606905D01*
X227172339Y-102950896D01*
X227193173Y-103399978D01*
X227206244Y-103921784D01*
X227211575Y-104483947D01*
X227209186Y-105054100D01*
X227199100Y-105599876D01*
X227181339Y-106088908D01*
X227155926Y-106488830D01*
X227122883Y-106767275D01*
X227082231Y-106891875D01*
X227057561Y-106905929D01*
X226873579Y-106966213D01*
X226554424Y-107045974D01*
X226136984Y-107136477D01*
X225658150Y-107228992D01*
X225496589Y-107258455D01*
X224750396Y-107395488D01*
X224163954Y-107505618D01*
X223716936Y-107593411D01*
X223389011Y-107663434D01*
X223159852Y-107720254D01*
X223009130Y-107768436D01*
X222916516Y-107812547D01*
X222861682Y-107857154D01*
X222855308Y-107864641D01*
X222765637Y-108020721D01*
X222632945Y-108306319D01*
X222470092Y-108687929D01*
X222289938Y-109132046D01*
X222105344Y-109605166D01*
X221929169Y-110073784D01*
X221774273Y-110504396D01*
X221653518Y-110863496D01*
X221579763Y-111117580D01*
X221565868Y-111233144D01*
X221575159Y-111248138D01*
X221671333Y-111393146D01*
X221852197Y-111660607D01*
X222100982Y-112025883D01*
X222400919Y-112464334D01*
X222735239Y-112951322D01*
X222826992Y-113085311D01*
X223149634Y-113565917D01*
X223428468Y-113995738D01*
X223647578Y-114349283D01*
X223791051Y-114601063D01*
X223842970Y-114725586D01*
X223831782Y-114758323D01*
X223715163Y-114919640D01*
X223485081Y-115183068D01*
X223158012Y-115530877D01*
X222750431Y-115945338D01*
X222278816Y-116408720D01*
X222009247Y-116668088D01*
X221583022Y-117072045D01*
X221209964Y-117418050D01*
X220910106Y-117687885D01*
X220703479Y-117863335D01*
X220610116Y-117926183D01*
X220545971Y-117902885D01*
X220348482Y-117792677D01*
X220061682Y-117612441D01*
X219722983Y-117385002D01*
X219482167Y-117219031D01*
X219001394Y-116889433D01*
X218488350Y-116539386D01*
X218019742Y-116221298D01*
X217101763Y-115600388D01*
X216331184Y-116017032D01*
X216149737Y-116113200D01*
X215819762Y-116277692D01*
X215564585Y-116391259D01*
X215428207Y-116433603D01*
X215383577Y-116379225D01*
X215272749Y-116172177D01*
X215109052Y-115830815D01*
X214901594Y-115376802D01*
X214659485Y-114831804D01*
X214391832Y-114217483D01*
X214107744Y-113555504D01*
X213816329Y-112867530D01*
X213526698Y-112175225D01*
X213247957Y-111500252D01*
X212989216Y-110864276D01*
X212759584Y-110288961D01*
X212568169Y-109795970D01*
X212424079Y-109406966D01*
X212336423Y-109143615D01*
X212314311Y-109027578D01*
X212315809Y-109024187D01*
X212418806Y-108916921D01*
X212634244Y-108748920D01*
X212917646Y-108555021D01*
X213007101Y-108495812D01*
X213687753Y-107934109D01*
X214251073Y-107265080D01*
X214683725Y-106516576D01*
X214972372Y-105716443D01*
X215103675Y-104892531D01*
X215064298Y-104072689D01*
X214904787Y-103343497D01*
X214618385Y-102607171D01*
X214200868Y-101950271D01*
X213627900Y-101326265D01*
X213402769Y-101126919D01*
X212674966Y-100635772D01*
X211888744Y-100304995D01*
X211066886Y-100131627D01*
X210232176Y-100112709D01*
X209407399Y-100245279D01*
X208615337Y-100526378D01*
X207878774Y-100953044D01*
X207220494Y-101522318D01*
X206663281Y-102231238D01*
X206556151Y-102406798D01*
X206192021Y-103209219D01*
X205998634Y-104044804D01*
X205970924Y-104891912D01*
X206103829Y-105728902D01*
X206392282Y-106534133D01*
X206831221Y-107285965D01*
X207415581Y-107962757D01*
X208140298Y-108542868D01*
X208163832Y-108558501D01*
X208444229Y-108756095D01*
X208654388Y-108924089D01*
X208750373Y-109027578D01*
X208738263Y-109108712D01*
X208662960Y-109344950D01*
X208529438Y-109711099D01*
X208346800Y-110185488D01*
X208124152Y-110746451D01*
X207870600Y-111372318D01*
X207595247Y-112041420D01*
X207307200Y-112732089D01*
X207015563Y-113422657D01*
X206729441Y-114091453D01*
X206457939Y-114716811D01*
X206210163Y-115277060D01*
X205995217Y-115750532D01*
X205822206Y-116115560D01*
X205700236Y-116350473D01*
X205638411Y-116433603D01*
X205586996Y-116422344D01*
X205385011Y-116341427D01*
X205086490Y-116199556D01*
X204735434Y-116017032D01*
X203964855Y-115600388D01*
X203046876Y-116221298D01*
X202775669Y-116405157D01*
X202271220Y-116748691D01*
X201768306Y-117092776D01*
X201343635Y-117385002D01*
X201109263Y-117544259D01*
X200804645Y-117742122D01*
X200578782Y-117877573D01*
X200468465Y-117927794D01*
X200421071Y-117906472D01*
X200249750Y-117775876D01*
X199985642Y-117545941D01*
X199651735Y-117239284D01*
X199271017Y-116878522D01*
X198866478Y-116486273D01*
X198461104Y-116085152D01*
X198077886Y-115697776D01*
X197739810Y-115346762D01*
X197469865Y-115054728D01*
X197291041Y-114844289D01*
X197226324Y-114738062D01*
X197230055Y-114717852D01*
X197307081Y-114553345D01*
X197471628Y-114268731D01*
X197707793Y-113889716D01*
X197999677Y-113442010D01*
X198331379Y-112951322D01*
X198424408Y-112815976D01*
X198751068Y-112339706D01*
X199038801Y-111918649D01*
X199270838Y-111577444D01*
X199430411Y-111340729D01*
X199500750Y-111233144D01*
X199502481Y-111228533D01*
X199481721Y-111096909D01*
X199402447Y-110830270D01*
X199277518Y-110462119D01*
X199119794Y-110025962D01*
X198942136Y-109555304D01*
X198757404Y-109083649D01*
X198578457Y-108644501D01*
X198418157Y-108271367D01*
X198289364Y-107997749D01*
X198204936Y-107857154D01*
X198196479Y-107848426D01*
X198136029Y-107804265D01*
X198033936Y-107759731D01*
X197869871Y-107710259D01*
X197623506Y-107651282D01*
X197274512Y-107578233D01*
X196802560Y-107486546D01*
X196187322Y-107371654D01*
X195408468Y-107228992D01*
X195246927Y-107198965D01*
X194784163Y-107106148D01*
X194394892Y-107018205D01*
X194116004Y-106943870D01*
X193984388Y-106891875D01*
X193962369Y-106848495D01*
X193925658Y-106640117D01*
X193896566Y-106294670D01*
X193875117Y-105844522D01*
X193861331Y-105322038D01*
X193855232Y-104759588D01*
X193856841Y-104189536D01*
X193866181Y-103644249D01*
X193883273Y-103156096D01*
X193908140Y-102757442D01*
X193940804Y-102480654D01*
X193981287Y-102358099D01*
X194022621Y-102339992D01*
X194228239Y-102282923D01*
X194575799Y-102202203D01*
X195037565Y-102103851D01*
X195585802Y-101993883D01*
X196192773Y-101878316D01*
X196524189Y-101816572D01*
X197092221Y-101709502D01*
X197581150Y-101615746D01*
X197964828Y-101540400D01*
X198217105Y-101488562D01*
X198311832Y-101465326D01*
X198315393Y-101460536D01*
X198375721Y-101338843D01*
X198490727Y-101083900D01*
X198646038Y-100729534D01*
X198827279Y-100309569D01*
X199020075Y-99857831D01*
X199210051Y-99408145D01*
X199382832Y-98994336D01*
X199524045Y-98650229D01*
X199619314Y-98409651D01*
X199654265Y-98306425D01*
X199638848Y-98270104D01*
X199536247Y-98097272D01*
X199350137Y-97806356D01*
X199095472Y-97420184D01*
X198787206Y-96961582D01*
X198440294Y-96453379D01*
X198249967Y-96175064D01*
X197921511Y-95687113D01*
X197639898Y-95258875D01*
X197420149Y-94913702D01*
X197277283Y-94674949D01*
X197226324Y-94565969D01*
X197261733Y-94506856D01*
X197409849Y-94330222D01*
X197652842Y-94062905D01*
X197968407Y-93727556D01*
X198334237Y-93346826D01*
X198728027Y-92943369D01*
X199127471Y-92539834D01*
X199510263Y-92158875D01*
X199854098Y-91823143D01*
X200136669Y-91555289D01*
X200335672Y-91377965D01*
X200428799Y-91313824D01*
X200480494Y-91338763D01*
X200670316Y-91454426D01*
X200976642Y-91651268D01*
X201377394Y-91914863D01*
X201850495Y-92230790D01*
X202373868Y-92584623D01*
X204242709Y-93855421D01*
X205800509Y-93213245D01*
X207358309Y-92571068D01*
X207780493Y-90331600D01*
X208202677Y-88092133D01*
X212863941Y-88092133D01*
X213286125Y-90331600D01*
G37*
X213286125Y-90331600D02*
X213708309Y-92571068D01*
X215266109Y-93213245D01*
X216823909Y-93855421D01*
X218692750Y-92584623D01*
X219062635Y-92334095D01*
X219552988Y-92005251D01*
X219977528Y-91724382D01*
X220314207Y-91505908D01*
X220540976Y-91364248D01*
X220635788Y-91313824D01*
X220694017Y-91349684D01*
X220868076Y-91499942D01*
X221131486Y-91746532D01*
X221461928Y-92066811D01*
X221837083Y-92438136D01*
X222234631Y-92837865D01*
X222632253Y-93243354D01*
X223007630Y-93631963D01*
X223338442Y-93981047D01*
X223602369Y-94267965D01*
X223777093Y-94470074D01*
X223840294Y-94564732D01*
X223825592Y-94605399D01*
X223723793Y-94786810D01*
X223537896Y-95085365D01*
X223282971Y-95477659D01*
X222974090Y-95940289D01*
X222626324Y-96449853D01*
X222435472Y-96727762D01*
X222107169Y-97211587D01*
X221825698Y-97633832D01*
X221606067Y-97971599D01*
X221463283Y-98201989D01*
X221412353Y-98302105D01*
X221413189Y-98307652D01*
X221458115Y-98434564D01*
X221561183Y-98693720D01*
X221708026Y-99051267D01*
X221884276Y-99473351D01*
X222075567Y-99926118D01*
X222267532Y-100375714D01*
X222445804Y-100788287D01*
X222596015Y-101129983D01*
X222703798Y-101366947D01*
X222754787Y-101465326D01*
X222784955Y-101474052D01*
X222968255Y-101513412D01*
X223294944Y-101578614D01*
X223738872Y-101664563D01*
X224273888Y-101766163D01*
X224873845Y-101878316D01*
X225190054Y-101937779D01*
X225770435Y-102051232D01*
X226277890Y-102156008D01*
X226684682Y-102246089D01*
X226963074Y-102315459D01*
X227085331Y-102358099D01*
X227107291Y-102400371D01*
X227143719Y-102606905D01*
X227172339Y-102950896D01*
X227193173Y-103399978D01*
X227206244Y-103921784D01*
X227211575Y-104483947D01*
X227209186Y-105054100D01*
X227199100Y-105599876D01*
X227181339Y-106088908D01*
X227155926Y-106488830D01*
X227122883Y-106767275D01*
X227082231Y-106891875D01*
X227057561Y-106905929D01*
X226873579Y-106966213D01*
X226554424Y-107045974D01*
X226136984Y-107136477D01*
X225658150Y-107228992D01*
X225496589Y-107258455D01*
X224750396Y-107395488D01*
X224163954Y-107505618D01*
X223716936Y-107593411D01*
X223389011Y-107663434D01*
X223159852Y-107720254D01*
X223009130Y-107768436D01*
X222916516Y-107812547D01*
X222861682Y-107857154D01*
X222855308Y-107864641D01*
X222765637Y-108020721D01*
X222632945Y-108306319D01*
X222470092Y-108687929D01*
X222289938Y-109132046D01*
X222105344Y-109605166D01*
X221929169Y-110073784D01*
X221774273Y-110504396D01*
X221653518Y-110863496D01*
X221579763Y-111117580D01*
X221565868Y-111233144D01*
X221575159Y-111248138D01*
X221671333Y-111393146D01*
X221852197Y-111660607D01*
X222100982Y-112025883D01*
X222400919Y-112464334D01*
X222735239Y-112951322D01*
X222826992Y-113085311D01*
X223149634Y-113565917D01*
X223428468Y-113995738D01*
X223647578Y-114349283D01*
X223791051Y-114601063D01*
X223842970Y-114725586D01*
X223831782Y-114758323D01*
X223715163Y-114919640D01*
X223485081Y-115183068D01*
X223158012Y-115530877D01*
X222750431Y-115945338D01*
X222278816Y-116408720D01*
X222009247Y-116668088D01*
X221583022Y-117072045D01*
X221209964Y-117418050D01*
X220910106Y-117687885D01*
X220703479Y-117863335D01*
X220610116Y-117926183D01*
X220545971Y-117902885D01*
X220348482Y-117792677D01*
X220061682Y-117612441D01*
X219722983Y-117385002D01*
X219482167Y-117219031D01*
X219001394Y-116889433D01*
X218488350Y-116539386D01*
X218019742Y-116221298D01*
X217101763Y-115600388D01*
X216331184Y-116017032D01*
X216149737Y-116113200D01*
X215819762Y-116277692D01*
X215564585Y-116391259D01*
X215428207Y-116433603D01*
X215383577Y-116379225D01*
X215272749Y-116172177D01*
X215109052Y-115830815D01*
X214901594Y-115376802D01*
X214659485Y-114831804D01*
X214391832Y-114217483D01*
X214107744Y-113555504D01*
X213816329Y-112867530D01*
X213526698Y-112175225D01*
X213247957Y-111500252D01*
X212989216Y-110864276D01*
X212759584Y-110288961D01*
X212568169Y-109795970D01*
X212424079Y-109406966D01*
X212336423Y-109143615D01*
X212314311Y-109027578D01*
X212315809Y-109024187D01*
X212418806Y-108916921D01*
X212634244Y-108748920D01*
X212917646Y-108555021D01*
X213007101Y-108495812D01*
X213687753Y-107934109D01*
X214251073Y-107265080D01*
X214683725Y-106516576D01*
X214972372Y-105716443D01*
X215103675Y-104892531D01*
X215064298Y-104072689D01*
X214904787Y-103343497D01*
X214618385Y-102607171D01*
X214200868Y-101950271D01*
X213627900Y-101326265D01*
X213402769Y-101126919D01*
X212674966Y-100635772D01*
X211888744Y-100304995D01*
X211066886Y-100131627D01*
X210232176Y-100112709D01*
X209407399Y-100245279D01*
X208615337Y-100526378D01*
X207878774Y-100953044D01*
X207220494Y-101522318D01*
X206663281Y-102231238D01*
X206556151Y-102406798D01*
X206192021Y-103209219D01*
X205998634Y-104044804D01*
X205970924Y-104891912D01*
X206103829Y-105728902D01*
X206392282Y-106534133D01*
X206831221Y-107285965D01*
X207415581Y-107962757D01*
X208140298Y-108542868D01*
X208163832Y-108558501D01*
X208444229Y-108756095D01*
X208654388Y-108924089D01*
X208750373Y-109027578D01*
X208738263Y-109108712D01*
X208662960Y-109344950D01*
X208529438Y-109711099D01*
X208346800Y-110185488D01*
X208124152Y-110746451D01*
X207870600Y-111372318D01*
X207595247Y-112041420D01*
X207307200Y-112732089D01*
X207015563Y-113422657D01*
X206729441Y-114091453D01*
X206457939Y-114716811D01*
X206210163Y-115277060D01*
X205995217Y-115750532D01*
X205822206Y-116115560D01*
X205700236Y-116350473D01*
X205638411Y-116433603D01*
X205586996Y-116422344D01*
X205385011Y-116341427D01*
X205086490Y-116199556D01*
X204735434Y-116017032D01*
X203964855Y-115600388D01*
X203046876Y-116221298D01*
X202775669Y-116405157D01*
X202271220Y-116748691D01*
X201768306Y-117092776D01*
X201343635Y-117385002D01*
X201109263Y-117544259D01*
X200804645Y-117742122D01*
X200578782Y-117877573D01*
X200468465Y-117927794D01*
X200421071Y-117906472D01*
X200249750Y-117775876D01*
X199985642Y-117545941D01*
X199651735Y-117239284D01*
X199271017Y-116878522D01*
X198866478Y-116486273D01*
X198461104Y-116085152D01*
X198077886Y-115697776D01*
X197739810Y-115346762D01*
X197469865Y-115054728D01*
X197291041Y-114844289D01*
X197226324Y-114738062D01*
X197230055Y-114717852D01*
X197307081Y-114553345D01*
X197471628Y-114268731D01*
X197707793Y-113889716D01*
X197999677Y-113442010D01*
X198331379Y-112951322D01*
X198424408Y-112815976D01*
X198751068Y-112339706D01*
X199038801Y-111918649D01*
X199270838Y-111577444D01*
X199430411Y-111340729D01*
X199500750Y-111233144D01*
X199502481Y-111228533D01*
X199481721Y-111096909D01*
X199402447Y-110830270D01*
X199277518Y-110462119D01*
X199119794Y-110025962D01*
X198942136Y-109555304D01*
X198757404Y-109083649D01*
X198578457Y-108644501D01*
X198418157Y-108271367D01*
X198289364Y-107997749D01*
X198204936Y-107857154D01*
X198196479Y-107848426D01*
X198136029Y-107804265D01*
X198033936Y-107759731D01*
X197869871Y-107710259D01*
X197623506Y-107651282D01*
X197274512Y-107578233D01*
X196802560Y-107486546D01*
X196187322Y-107371654D01*
X195408468Y-107228992D01*
X195246927Y-107198965D01*
X194784163Y-107106148D01*
X194394892Y-107018205D01*
X194116004Y-106943870D01*
X193984388Y-106891875D01*
X193962369Y-106848495D01*
X193925658Y-106640117D01*
X193896566Y-106294670D01*
X193875117Y-105844522D01*
X193861331Y-105322038D01*
X193855232Y-104759588D01*
X193856841Y-104189536D01*
X193866181Y-103644249D01*
X193883273Y-103156096D01*
X193908140Y-102757442D01*
X193940804Y-102480654D01*
X193981287Y-102358099D01*
X194022621Y-102339992D01*
X194228239Y-102282923D01*
X194575799Y-102202203D01*
X195037565Y-102103851D01*
X195585802Y-101993883D01*
X196192773Y-101878316D01*
X196524189Y-101816572D01*
X197092221Y-101709502D01*
X197581150Y-101615746D01*
X197964828Y-101540400D01*
X198217105Y-101488562D01*
X198311832Y-101465326D01*
X198315393Y-101460536D01*
X198375721Y-101338843D01*
X198490727Y-101083900D01*
X198646038Y-100729534D01*
X198827279Y-100309569D01*
X199020075Y-99857831D01*
X199210051Y-99408145D01*
X199382832Y-98994336D01*
X199524045Y-98650229D01*
X199619314Y-98409651D01*
X199654265Y-98306425D01*
X199638848Y-98270104D01*
X199536247Y-98097272D01*
X199350137Y-97806356D01*
X199095472Y-97420184D01*
X198787206Y-96961582D01*
X198440294Y-96453379D01*
X198249967Y-96175064D01*
X197921511Y-95687113D01*
X197639898Y-95258875D01*
X197420149Y-94913702D01*
X197277283Y-94674949D01*
X197226324Y-94565969D01*
X197261733Y-94506856D01*
X197409849Y-94330222D01*
X197652842Y-94062905D01*
X197968407Y-93727556D01*
X198334237Y-93346826D01*
X198728027Y-92943369D01*
X199127471Y-92539834D01*
X199510263Y-92158875D01*
X199854098Y-91823143D01*
X200136669Y-91555289D01*
X200335672Y-91377965D01*
X200428799Y-91313824D01*
X200480494Y-91338763D01*
X200670316Y-91454426D01*
X200976642Y-91651268D01*
X201377394Y-91914863D01*
X201850495Y-92230790D01*
X202373868Y-92584623D01*
X204242709Y-93855421D01*
X205800509Y-93213245D01*
X207358309Y-92571068D01*
X207780493Y-90331600D01*
X208202677Y-88092133D01*
X212863941Y-88092133D01*
X213286125Y-90331600D01*
%TD*%
M02*
