%TF.GenerationSoftware,KiCad,Pcbnew,5.99.0-unknown-140f4a8d21~125~ubuntu20.04.1*%
%TF.CreationDate,2021-04-01T23:04:03+02:00*%
%TF.ProjectId,pi-hat-lorawan-gateway-minipci,70692d68-6174-42d6-9c6f-726177616e2d,rev?*%
%TF.SameCoordinates,Original*%
%TF.FileFunction,Soldermask,Top*%
%TF.FilePolarity,Negative*%
%FSLAX46Y46*%
G04 Gerber Fmt 4.6, Leading zero omitted, Abs format (unit mm)*
G04 Created by KiCad (PCBNEW 5.99.0-unknown-140f4a8d21~125~ubuntu20.04.1) date 2021-04-01 23:04:03*
%MOMM*%
%LPD*%
G01*
G04 APERTURE LIST*
G04 Aperture macros list*
%AMRoundRect*
0 Rectangle with rounded corners*
0 $1 Rounding radius*
0 $2 $3 $4 $5 $6 $7 $8 $9 X,Y pos of 4 corners*
0 Add a 4 corners polygon primitive as box body*
4,1,4,$2,$3,$4,$5,$6,$7,$8,$9,$2,$3,0*
0 Add four circle primitives for the rounded corners*
1,1,$1+$1,$2,$3*
1,1,$1+$1,$4,$5*
1,1,$1+$1,$6,$7*
1,1,$1+$1,$8,$9*
0 Add four rect primitives between the rounded corners*
20,1,$1+$1,$2,$3,$4,$5,0*
20,1,$1+$1,$4,$5,$6,$7,0*
20,1,$1+$1,$6,$7,$8,$9,0*
20,1,$1+$1,$8,$9,$2,$3,0*%
G04 Aperture macros list end*
%ADD10C,1.998980*%
%ADD11C,1.600000*%
%ADD12C,2.600000*%
%ADD13C,1.100000*%
%ADD14RoundRect,0.010000X1.150000X1.600000X-1.150000X1.600000X-1.150000X-1.600000X1.150000X-1.600000X0*%
%ADD15RoundRect,0.010000X0.265000X1.000000X-0.265000X1.000000X-0.265000X-1.000000X0.265000X-1.000000X0*%
%ADD16RoundRect,0.010000X-0.500000X0.300000X-0.500000X-0.300000X0.500000X-0.300000X0.500000X0.300000X0*%
%ADD17RoundRect,0.010000X0.500000X-0.300000X0.500000X0.300000X-0.500000X0.300000X-0.500000X-0.300000X0*%
%ADD18RoundRect,0.010000X-0.300000X-0.500000X0.300000X-0.500000X0.300000X0.500000X-0.300000X0.500000X0*%
%ADD19RoundRect,0.010000X0.300000X0.500000X-0.300000X0.500000X-0.300000X-0.500000X0.300000X-0.500000X0*%
%ADD20RoundRect,0.050000X0.225000X-0.315000X0.225000X0.315000X-0.225000X0.315000X-0.225000X-0.315000X0*%
%ADD21RoundRect,0.050000X1.300000X-0.850000X1.300000X0.850000X-1.300000X0.850000X-1.300000X-0.850000X0*%
%ADD22R,1.800000X4.000000*%
G04 APERTURE END LIST*
D10*
%TO.C,P1*%
X130180000Y-67189980D03*
X127640000Y-67189980D03*
%TD*%
D11*
%TO.C,Con2*%
X160410000Y-89802500D03*
D12*
X160010000Y-137852500D03*
D13*
X135410000Y-89802500D03*
D12*
X135810000Y-137852500D03*
D14*
X133260000Y-86302500D03*
X162560000Y-86302500D03*
D15*
X159710000Y-85702500D03*
X159310000Y-93902500D03*
X158910000Y-85702500D03*
X158510000Y-93902500D03*
X158110000Y-85702500D03*
X157710000Y-93902500D03*
X157310000Y-85702500D03*
X156910000Y-93902500D03*
X156510000Y-85702500D03*
X156110000Y-93902500D03*
X155710000Y-85702500D03*
X155310000Y-93902500D03*
X154910000Y-85702500D03*
X154510000Y-93902500D03*
X154110000Y-85702500D03*
X153710000Y-93902500D03*
X150110000Y-85702500D03*
X149710000Y-93902500D03*
X149310000Y-85702500D03*
X148910000Y-93902500D03*
X148510000Y-85702500D03*
X148110000Y-93902500D03*
X147710000Y-85702500D03*
X147310000Y-93902500D03*
X146910000Y-85702500D03*
X146510000Y-93902500D03*
X146110000Y-85702500D03*
X145710000Y-93902500D03*
X145310000Y-85702500D03*
X144910000Y-93902500D03*
X144510000Y-85702500D03*
X144110000Y-93902500D03*
X143710000Y-85702500D03*
X143310000Y-93902500D03*
X142910000Y-85702500D03*
X142510000Y-93902500D03*
X142110000Y-85702500D03*
X141710000Y-93902500D03*
X141310000Y-85702500D03*
X140910000Y-93902500D03*
X140510000Y-85702500D03*
X140110000Y-93902500D03*
X139710000Y-85702500D03*
X139310000Y-93902500D03*
X138910000Y-85702500D03*
X138510000Y-93902500D03*
X138110000Y-85702500D03*
X137710000Y-93902500D03*
X137310000Y-85702500D03*
X136910000Y-93902500D03*
X136510000Y-85702500D03*
X136110000Y-93902500D03*
%TD*%
D16*
%TO.C,C1*%
X125530000Y-73080000D03*
X125530000Y-74480000D03*
%TD*%
D17*
%TO.C,C2*%
X125530000Y-71960000D03*
X125530000Y-70560000D03*
%TD*%
D18*
%TO.C,D1*%
X154400000Y-69360000D03*
X155800000Y-69360000D03*
%TD*%
D19*
%TO.C,R3*%
X153110000Y-69360000D03*
X151710000Y-69360000D03*
%TD*%
D18*
%TO.C,C3*%
X127750000Y-69680000D03*
X129150000Y-69680000D03*
%TD*%
%TO.C,C4*%
X127950000Y-75490000D03*
X129350000Y-75490000D03*
%TD*%
D20*
%TO.C,U1*%
X127460000Y-73880000D03*
X128410000Y-73880000D03*
X129360000Y-73880000D03*
X129360000Y-71200000D03*
X128410000Y-71200000D03*
X127460000Y-71200000D03*
D21*
X128410000Y-72540000D03*
%TD*%
D22*
%TO.C,Con1*%
X123510000Y-61630000D03*
X126050000Y-61630000D03*
X128590000Y-61630000D03*
X131130000Y-61630000D03*
X133670000Y-61630000D03*
X136210000Y-61630000D03*
X138750000Y-61630000D03*
X141290000Y-61630000D03*
X143830000Y-61630000D03*
X146370000Y-61630000D03*
X148910000Y-61630000D03*
X151450000Y-61630000D03*
X153990000Y-61630000D03*
X156530000Y-61630000D03*
X159070000Y-61630000D03*
X161610000Y-61630000D03*
X164150000Y-61630000D03*
X166690000Y-61630000D03*
X169230000Y-61630000D03*
X171770000Y-61630000D03*
%TD*%
M02*
