M48
; DRILL file {KiCad (5.99.0-9004-gab34d94f36)} date 02/18/21 22:09:57
; FORMAT={-:-/ absolute / inch / decimal}
; #@! TF.CreationDate,2021-02-18T22:09:57+01:00
; #@! TF.GenerationSoftware,Kicad,Pcbnew,(5.99.0-9004-gab34d94f36)
; #@! TF.FileFunction,Plated,1,2,PTH
FMAT,2
INCH
T1C0.0157
T2C0.0400
%
G90
G05
T1
X-1.3484Y3.3031
X-1.2551Y2.7949
X-1.2492Y3.5579
X-1.2402Y2.9724
X-1.2248Y3.8047
X-1.2201Y3.0232
X-1.2173Y3.1118
X-1.2138Y2.6921
X-1.2109Y2.7706
X-1.1886Y3.7642
X-1.1748Y2.748
X-1.161Y4.0028
X-1.1472Y3.6913
X-1.1457Y3.4783
X-1.1378Y3.8299
X-1.1307Y3.4134
X-1.0823Y2.5811
X-1.0795Y3.2122
X-1.0248Y4.0638
X-0.9835Y4.0996
X-0.9154Y3.8071
X-0.9114Y3.3016
X-0.9098Y3.5437
X-0.8961Y2.6394
X-0.8925Y2.8807
X-0.8866Y2.9827
X-0.8787Y3.0839
X-0.8764Y3.6921
X-0.8717Y2.5894
X-0.8598Y3.3575
X-0.8559Y2.6925
X-0.8555Y3.9256
X-0.8307Y3.4783
X-0.8066Y2.7616
X-0.7846Y4.0583
X-0.7646Y2.7665
X-0.7618Y3.7791
X-0.7469Y4.0882
X-0.7331Y2.7327
X-0.7043Y2.7654
X-0.6476Y3.6669
X-0.6173Y3.5031
X-0.553Y3.8995
X-0.5268Y3.4067
X-0.5102Y3.6287
X-0.3457Y3.8165
X-0.3398Y3.5126
T2
X-1.4587Y4.2949
X-1.4587Y4.1949
X-1.3587Y4.2949
X-1.3587Y4.1949
X-1.2587Y4.2949
X-1.2587Y4.1949
X-1.1587Y4.2949
X-1.1587Y4.1949
X-1.0587Y4.2949
X-1.0587Y4.1949
X-0.9587Y4.2949
X-0.9587Y4.1949
X-0.8587Y4.2949
X-0.8587Y4.1949
X-0.7587Y4.2949
X-0.7587Y4.1949
X-0.6587Y4.2949
X-0.6587Y4.1949
X-0.5587Y4.2949
X-0.5587Y4.1949
X-0.4587Y4.2949
X-0.4587Y4.1949
X-0.3587Y4.2949
X-0.3587Y4.1949
X-0.2587Y4.2949
X-0.2587Y4.1949
T0
M30
